<?xml version="1.0" encoding="utf-8"?>
<!-- Generator: Adobe Illustrator 21.1.0, SVG Export Plug-In . SVG Version: 6.00 Build 0)  -->
<svg version="1.1" id="beachcombing_xA0_Image_1_" xmlns="http://www.w3.org/2000/svg" xmlns:xlink="http://www.w3.org/1999/xlink"
	 x="0px" y="0px" viewBox="0 0 575.8 574.3" style="enable-background:new 0 0 575.8 574.3;" xml:space="preserve">
<style type="text/css">
	.st0{fill:#FFFF00;}
	.st1{fill:#573922;}
	.st2{fill:#FFFFFF;}
</style>
<rect y="0" class="st0" width="575.8" height="574.3"/>
<rect x="45" y="44.8" class="st1" width="486" height="484.7"/>
<g id="Layer_2">
	<path class="st2" d="M227.1,144.4c20.3-1.9,35.9-19.3,35.9-39.6c0-21.9-17.8-39.8-39.8-39.8s-39.8,17.8-39.8,39.8
		c0,6.7,1.9,13.6,5,19.3l14.1,199.4h145.9l59.9,140.3L487,433l-12.1-29l-44.1,15.8l-58-133.6l-135.7,0.9l-1.9-25.3h98.1v-37.4h-102
		L227.1,144.4z"/>
	<path class="st2" d="M374,430.2c-24.7,48.7-76.2,80.9-131.2,80.9c-80.9,0-146.7-65.8-146.7-146.7c0-56.7,34.4-109.5,85.7-132.7
		l3.3,43.3c-30.3,19.1-49.1,53.5-49.1,89.8c0,58.6,47.8,106.3,106.3,106.3c53.5,0,99.3-41.1,105.6-93.9L374,430.2z"/>
</g>
</svg>
