<?xml version="1.0" encoding="utf-8"?>
<!-- Generator: Adobe Illustrator 16.0.3, SVG Export Plug-In . SVG Version: 6.00 Build 0)  -->
<!DOCTYPE svg PUBLIC "-//W3C//DTD SVG 1.1//EN" "http://www.w3.org/Graphics/SVG/1.1/DTD/svg11.dtd">
<svg version="1.1" id="beachcombing_xA0_Image_1_" xmlns="http://www.w3.org/2000/svg" xmlns:xlink="http://www.w3.org/1999/xlink"
	 x="0px" y="0px" width="575.76px" height="574.32px" viewBox="0 0 575.76 574.32" enable-background="new 0 0 575.76 574.32"
	 xml:space="preserve">
<ellipse fill="#00831C" stroke="#014500" stroke-width="30" stroke-miterlimit="10" cx="286.74" cy="287.6" rx="274.299" ry="273.439"/>
<polygon fill="#FFFFFF" points="308.45,252.559 308.276,215.318 382.718,215.18 345.843,168.774 374.017,168.774 335.897,122.369 
	354.958,122.783 312.696,72.649 326.783,72.649 287.3,33.972 287.301,32.873 286.739,33.422 286.178,32.873 286.179,33.972 
	246.696,72.649 260.784,72.649 218.521,122.783 237.581,122.369 199.462,168.774 227.637,168.774 190.761,215.18 265.203,215.318 
	265.029,252.559 246.282,252.47 246.095,262 286.396,262 287.083,262 327.384,262 327.197,252.47 "/>
</svg>
