<?xml version="1.0" encoding="utf-8"?>
<!-- Generator: Adobe Illustrator 19.0.0, SVG Export Plug-In . SVG Version: 6.00 Build 0)  -->
<svg version="1.1" id="beachcombing_xA0_Image_1_" xmlns="http://www.w3.org/2000/svg" xmlns:xlink="http://www.w3.org/1999/xlink"
	 x="0px" y="0px" viewBox="-11 13.7 575.8 574.3" style="enable-background:new -11 13.7 575.8 574.3;" xml:space="preserve">
<style type="text/css">
	.st0{fill:#FFFF00;}
	.st1{fill:#573922;}
	.st2{fill:#FFFFFF;}
</style>
<rect x="-11" y="13.7" class="st0" width="575.8" height="574.3"/>
<rect x="34" y="58.5" class="st1" width="486" height="484.7"/>
<g>
	<path class="st2" d="M279.4,307l-68.9-46.2c-9.5-49.9-25.8-74.8-48.8-74.8c-16,0-31,14.7-44.9,44.2l20.2-50.1
		c-2.2-3.5-6.7-7-13.7-10.7c-6.9-3.7-12.6-5.5-16.9-5.5c-1.3,0-3.7,0.4-7.2,1.3l-39,85.9c7.4,11.3,20.8,17.6,40.3,18.9
		c-5.6,17.3-8.5,30.4-8.5,39c0,8.2,2.8,15.2,8.5,20.8L49.8,494.4l26.7,18.2l59.2-137.9l22.1,28l9.8,36.4l-36.4,65.7l25.4,3.3
		l19.5-36.4l10.4,39l38.4-9.8l-19.5-82l54-97.6l8.5,3.9L279.4,307z M217.6,152.2c0-8.7-2.9-15.9-8.8-21.8s-13.1-8.8-21.8-8.8
		c-8.7,0-15.9,2.9-21.8,8.8s-8.8,13.1-8.8,21.8c0,8.2,3,15.3,9.1,21.1c6.1,5.9,13.2,8.8,21.5,8.8c8.2,0,15.4-2.9,21.5-8.8
		C214.6,167.5,217.6,160.5,217.6,152.2z M239.7,312.3l-41.6,75.4l-2-8.5l-36.4-67.6c8.2-16,14.3-29.9,18.2-41.6l12.4,20.8
		L239.7,312.3z M502.5,286.9l-69.6-48.8c-7.4-29-12.4-46.6-15-52.7c-9.5-22.5-22.1-33.8-37.7-33.8c-8.2,0-16.5,4.1-24.7,12.4
		l-18.2,22.1l18.2-43.6c-8.7-10.8-21.7-15.6-39-14.3l-43.6,96.3c9.5,14.7,22.5,20.8,39,18.2c-6.1,15.6-9.1,30.4-9.1,44.2
		c0,11.3,3,20,9.1,26c-1.7,3.9-3.9,8.9-6.5,15l-52.7,165.2l28.6,19.5L349,362.3c10.8,13.4,20.4,24.5,28.6,33.2l4.6,23.4l-46.2,80
		l27.6,5.2l25.7-44.2l9,49.4l43-8.5l-19.5-97.6l58.5-99.5l9.8,5.2L502.5,286.9z M457.6,292.8l-45.5,77.9
		c-8.3-33.9-19.8-61-34.6-81.4c6.2-9.9,13.5-22.8,21.9-38.8l7.1,17.5L457.6,292.8z M441.3,116.5c0-8.2-2.9-15.4-8.8-21.5
		c-5.9-6.1-12.9-9.1-21.1-9.1c-8.7,0-15.9,2.9-21.8,8.8s-8.8,13.1-8.8,21.8c0,8.2,3,15.4,9.1,21.5c6.1,6.1,13.2,9.1,21.5,9.1
		c8.2,0,15.3-3,21.1-9.1C438.4,131.9,441.3,124.7,441.3,116.5z"/>
</g>
</svg>
