<?xml version="1.0" encoding="utf-8"?>
<!-- Generator: Adobe Illustrator 19.0.0, SVG Export Plug-In . SVG Version: 6.00 Build 0)  -->
<svg version="1.1" id="beachcombing_xA0_Image_1_" xmlns="http://www.w3.org/2000/svg" xmlns:xlink="http://www.w3.org/1999/xlink"
	 x="0px" y="0px" viewBox="-11 13.7 575.8 574.3" style="enable-background:new -11 13.7 575.8 574.3;" xml:space="preserve">
<style type="text/css">
	.st0{fill:#FFFF00;}
	.st1{fill:#573922;}
	.st2{fill:#FFFFFF;}
</style>
<rect x="-11" y="13.7" class="st0" width="575.8" height="574.3"/>
<rect x="34" y="58.5" class="st1" width="486" height="484.7"/>
<path class="st2" d="M501,484.1v-45.4c-12.4,25.8-31.1,38.7-56,38.7c-24.9,0-43.6-12.9-56.1-38.7c-13.3,25.8-32.3,38.7-56.7,38.7
	c-24.9,0-43.6-12.9-56.1-38.7c-12.5,25.8-31.6,38.7-57.4,38.7c-24.5,0-43.4-12.9-56.7-38.7c-12.5,25.8-31.2,38.7-56.1,38.7
	s-43.6-12.9-56.1-38.7v45.4c12.4,25.8,31.1,38.7,56.1,38.7s43.6-12.7,56.1-38c13.3,25.4,32.2,38,56.7,38c25.8,0,44.9-12.7,57.4-38
	c12.4,25.4,31.1,38,56.1,38c24.5,0,43.4-12.7,56.7-38c12.4,25.4,31.1,38,56.1,38C469.9,522.8,488.6,509.9,501,484.1z"/>
<path class="st2" d="M455.9,167.6c-6.2-6.7-32.3-20.3-35.1-14.2c-3.7,8-77.7,155.3-99.5,198.6h-4.7l100.7-204.4
	c0,0-2.2-27.8-32.9-43c-26.3-8.7-46.5-3.5-46.5-3.5l-49,250.9H284l47.2-252.8c0,0-18.1-20.1-51.9-20.1c-49.7,0-60,22.5-60,22.5
	L265,352h-4.7l-48.6-248.6c0,0-20.1-5.1-46.5,3.5c-30.6,15.2-32.9,43-32.9,43L232,352h-5.4c-23.9-47.5-94-187.2-97.7-194.9
	c-2.8-6.1-28.9,7.5-35.1,14.2c-26.9,25.2-26.5,44.1-26.5,44.1l131,148.3c-0.2,0.9-0.3,1.8-0.3,2.8v44.3c0,7.9,6.4,14.4,14.4,14.4
	h123.3c7.9,0,14.4-6.4,14.4-14.4v-44.3c0-1.5-0.2-2.9-0.6-4.3l132.9-150.5C482.4,211.6,482.7,192.7,455.9,167.6z"/>
</svg>
