<?xml version="1.0" encoding="utf-8"?>
<!-- Generator: Adobe Illustrator 19.0.0, SVG Export Plug-In . SVG Version: 6.00 Build 0)  -->
<svg version="1.1" id="beachcombing_xA0_Image_1_" xmlns="http://www.w3.org/2000/svg" xmlns:xlink="http://www.w3.org/1999/xlink"
	 x="0px" y="0px" viewBox="-11 13.7 575.8 574.3" style="enable-background:new -11 13.7 575.8 574.3;" xml:space="preserve">
<style type="text/css">
	.st0{fill:#FFFF00;}
	.st1{fill:#573922;}
	.st2{fill:#FFFFFF;}
</style>
<rect x="-11" y="13.7" class="st0" width="575.8" height="574.3"/>
<rect x="34" y="58.5" class="st1" width="486" height="484.7"/>
<g>
	<path class="st2" d="M424.8,122.1c-22.3,0-40.7,6.8-55.4,20.5c-0.4,0.4-3.6,4.2-9.7,11.6c-6.1,7.4-15.4,18.6-28,33.6
		c-7.5,1.8-16.3,4.3-26.4,7.5c-10,3.2-21,7.9-32.8,14c-23.3,11.1-40.7,21.9-52.2,32.3c-4,8.6-5.9,14.5-5.9,17.8l0.5,2.2
		c-7.9,5-17.6,11.1-29.1,18.3c-11.5,7.2-25.3,15.4-41.4,24.8c-11.1,5-24.6,11.4-40.4,19.1c-15.8,7.7-34.1,17.1-54.9,28.3
		c1.1,4.3,2.2,8,3.5,11c1.3,3.1,2.2,5.7,3,7.8c5.7,4,17.4,7.5,35,10.8c3.6-2.2,14.9-10.2,33.9-24.2c19.4-14.3,29.2-22.2,29.6-23.7
		c9.7-5.4,21.5-8.4,35.5-9.1l7.5,3.2c-4,4-8.8,8.7-14.5,14.3c-5.7,5.6-12.6,12.5-20.5,20.7l-2.2,8.6l9.2,2.2
		c8.3-1.8,17.9-4.4,29.1-7.8c11.1-3.4,24.2-7.6,39.3-12.6c2.9,3.2,5.9,7.7,9.2,13.5c3.2,5.7,6.6,12.7,10.2,21
		c4.7,9.3,8,17.2,10,23.7c2,6.5,3,11.7,3,15.6c0,5.7-7.5,11.8-22.6,18.3c-15.1,6.1-22.6,15.4-22.6,28c0,1.4,0.9,2.2,2.7,2.2
		c1.8,0,13.3-7.3,34.4-22.1l8.1,2.7l8.1-4.3h7l3.8-10.8l52.2-32.3l5.9,5.4l6.5-8.1l6.5,2.7l5.9-8.1h5.9l7.5-10.8l33.4-21.5
		c6.1-4.7,10.1-9.3,12.1-14c2-4.7,3-9.5,3-14.5l-0.5-4.3c-0.4,0.4-15.1,11.3-44.1,32.8h-4.3c-4.7,0-11.7-1.4-21-4.3
		c-10-3.2-15.1-7-15.1-11.3c1.8-4.3,12-11.5,30.7-21.5c11.1-6.1,20.8-12.1,29.1-18c8.2-5.9,15.4-11.9,21.5-18
		c19-20.1,30.1-43.8,33.4-71.1l4.8-2.7c2.5-2.5,5.6-9.5,9.1-21c2.2-7.2,3.9-12.8,5.1-17c1.3-4.1,2.1-6.7,2.4-7.8
		c6.1,0,14.9-1.1,26.4-3.2c-5.4-7.5-14.9-11.3-28.5-11.3c-2.2,0-4.8,0.3-7.8,0.8c-3.1,0.5-6.4,1.7-10,3.5l-1.6-4.3
		c7.9-6.8,15.4-12.4,22.6-16.7c7.2-4.3,14.7-8.4,22.6-12.4c-3.2-1.4-10.2-2.3-21-2.7c-10.4,1.8-18.5,4.7-24.2,8.6
		C445.6,127.3,434.8,122.1,424.8,122.1z M315.5,360c22.2,3.2,33.4,8.1,33.4,14.5c0,5-8.6,12.2-25.8,21.5c-5.7,3.2-11.4,6.3-17,9.2
		c-5.6,2.9-11.4,5.7-17.5,8.6l-4.8-2.7c-5.7-10.4-10.8-20.4-15.1-29.9c-4.3-9.5-7.9-18.9-10.8-28.3l6.5-1.1
		c2.5,0.4,9.3,2.3,20.5,5.9c9.3,2.9,16.3,4.3,21,4.3C308.7,362.1,311.9,361.4,315.5,360z"/>
</g>
</svg>
