<?xml version="1.0" encoding="utf-8"?>
<!-- Generator: Adobe Illustrator 19.0.0, SVG Export Plug-In . SVG Version: 6.00 Build 0)  -->
<svg version="1.1" id="beachcombing_xA0_Image_1_" xmlns="http://www.w3.org/2000/svg" xmlns:xlink="http://www.w3.org/1999/xlink"
	 x="0px" y="0px" viewBox="-11 13.7 575.8 574.3" style="enable-background:new -11 13.7 575.8 574.3;" xml:space="preserve">
<style type="text/css">
	.st0{fill:#FFFF00;}
	.st1{fill:#573922;}
	.st2{fill:#FFFFFF;}
</style>
<rect x="-11" y="13.7" class="st0" width="575.8" height="574.3"/>
<rect x="34" y="58.5" class="st1" width="486" height="484.7"/>
<g>
	<path class="st2" d="M504,282.9l-122.7,5.3l-29.8-76.3l-196.3,8.5l6,25.4l61.7-2.7l15.9,49.7l-186.4,7.2l15.3,89.6
		c1.8,0.4,4.4,0.7,8,0.7c20.8,0,36-10.2,45.8-30.5c10.6,20.3,25.9,30.5,45.8,30.5c21.2,0,36.9-10.2,47.1-30.5
		c9.7,20.3,25,30.5,45.8,30.5c20.3,0,35.6-10.2,45.8-30.5c9.7,20.3,24.8,30.5,45.1,30.5c20.8,0,36-10.2,45.8-30.5
		c9.3,18.2,23.2,28.4,41.8,30.5L504,282.9z M351.4,288.2l-67,2.7l-17.2-47.8l65-4L351.4,288.2z"/>
</g>
</svg>
