<?xml version="1.0" encoding="utf-8"?>
<!-- Generator: Adobe Illustrator 19.0.0, SVG Export Plug-In . SVG Version: 6.00 Build 0)  -->
<svg version="1.1" id="beachcombing_xA0_Image_1_" xmlns="http://www.w3.org/2000/svg" xmlns:xlink="http://www.w3.org/1999/xlink"
	 x="0px" y="0px" viewBox="-11 13.7 575.8 574.3" style="enable-background:new -11 13.7 575.8 574.3;" xml:space="preserve">
<style type="text/css">
	.st0{fill:#FFFF00;}
	.st1{fill:#573922;}
	.st2{fill:#FFFFFF;}
</style>
<rect x="-11" y="13.7" class="st0" width="575.8" height="574.3"/>
<rect x="34" y="58.5" class="st1" width="486" height="484.7"/>
<path class="st2" d="M319,178.7c0-6.4-2.4-11.9-7-16.4c-4.6-4.5-10.2-6.9-16.6-6.9c-6.5,0-11.9,2.3-16.3,6.9
	c-4.5,4.5-6.6,10-6.6,16.4c0,6.4,2.2,11.7,6.6,16.1s9.8,6.6,16.3,6.6c6.4,0,11.9-2.2,16.6-6.6C316.7,190.4,319,185.1,319,178.7z"/>
<path class="st2" d="M497,320.8c-47.9-10.8-93.9-17.9-138.2-21.1c-16.9,27.7-44,41.6-81.5,41.6c-6.1,0-11.9-0.6-17.5-1.8l18.7-16.9
	c23.3-1.2,42.9-9.4,58.5-24.7c-4-0.4-13.3-0.8-27.7-1.2l119.5-103.2l10.3,12.7c34.2-29.9,51.3-53.5,51.3-70.7
	c0-6.8-3.6-10.2-10.8-10.2c-17.7,0-42.6,13.6-74.8,40.8l10.3,12l-38,31.8l-25.3,11.3l-36.8-9.7c-10.5-2.8-21.5-4.2-33.2-4.2
	c-14.1,0-25.6,2-34.4,6.1l-32.6,63.4l18.7,25.3c3.6,6.5,9.8,11.7,18.7,15.7l-14.6,12.6c-13.7-8.1-22.4-18.9-26-32.6
	c-51.1,3.2-102.8,10.8-155.1,22.9c-4,0.8-6.1,3-6.1,6.6c0,2.4,2,4.6,6.1,6.6c39.8,19.3,82.9,33,129.1,41l-21.1,18.1L153.6,381
	c-6.5,6.1-15.5,15-27.2,27.2c-4.8,6.1-10.5,13.9-16.9,23.5c-16.5-4.8-28.7-15.7-36.8-32.6v41c11.3,23.4,28.2,35,50.7,35
	s39.4-11.4,50.7-34.4c12.1,22.9,29.2,34.4,51.3,34.4c23.3,0,40.6-11.4,51.9-34.4c11.3,22.9,28.2,34.4,50.7,34.4
	c22.1,0,39.3-11.4,51.3-34.4c11.3,22.9,28.2,34.4,50.7,34.4s39.4-11.7,50.7-35v-41c-11.3,23.4-28.2,35-50.7,35s-39.4-11.7-50.7-35
	c-12.1,23.4-29.2,35-51.3,35c-22.5,0-39.4-11.7-50.7-35c-11.3,23.4-28.6,35-51.9,35c-18.5,0-33.8-8.7-45.9-26l33.8-29
	c20.5,2.4,41.6,3.6,63.4,3.6c80.4,0,153.8-16.3,220.2-48.8c4-2,6.1-4.2,6.1-6.6C503.1,323.8,501.1,321.6,497,320.8z M311.2,237.5
	l30.2,3l-42.2,36.8L311.2,237.5z M247.2,287l-8.4-15.7l9.1-16.9L247.2,287z"/>
</svg>
