<?xml version="1.0" encoding="utf-8"?>
<!-- Generator: Adobe Illustrator 19.0.0, SVG Export Plug-In . SVG Version: 6.00 Build 0)  -->
<svg version="1.1" id="beachcombing_xA0_Image_1_" xmlns="http://www.w3.org/2000/svg" xmlns:xlink="http://www.w3.org/1999/xlink"
	 x="0px" y="0px" viewBox="-11 13.7 575.8 574.3" style="enable-background:new -11 13.7 575.8 574.3;" xml:space="preserve">
<style type="text/css">
	.st0{fill:#FFFF00;}
	.st1{fill:#573922;}
	.st2{fill:#FFFFFF;}
</style>
<rect x="-11" y="13.7" class="st0" width="575.8" height="574.3"/>
<rect x="34" y="58.5" class="st1" width="486" height="484.7"/>
<g>
	<path class="st2" d="M492,233.2L277.3,89.8l-82.4,55.4V94.7h-41.6v76.9l-90.7,61.6H109v278.4h336.6V233.2H492z M359.7,276.1h-50.6
		v-4.8c0-6.9-3.1-13.5-9.1-19.7c-6.1-6.2-13.9-9.3-23.4-9.3c-19.4,0-29.1,8.8-29.1,26.3c0,10.6,9.4,19.2,28.2,25.6
		c28.4,10.2,45.9,17.6,52.3,22.2c18.8,12.9,28.2,32.3,28.2,58.2c0,17.6-5.4,32.9-16.3,46.1c-10.9,13.2-24.8,22.1-41.9,26.7v27.7h-45
		V447c-17.1-4.6-31.1-13.6-41.9-26.8c-10.9-13.2-16.3-28.7-16.3-46.4h50.6c0,7.6,2.8,14.5,8.6,20.9c5.7,6.4,13.1,9.6,22.2,9.6
		c19.6,0,29.4-9.2,29.4-27.7c0-12.9-9.5-22.9-28.4-29.8c-31.9-12.5-49.2-19.6-51.9-21.5c-18.9-11.5-28.4-29.8-28.4-54.7
		c0-37.4,18.7-60.9,56.1-70.6v-28.4h45v27.7c17.5,4.2,32.2,12.8,44,26c11.8,13.2,17.7,28.7,17.7,46.7L359.7,276.1L359.7,276.1z"/>
</g>
</svg>
