<?xml version="1.0" encoding="utf-8"?>
<!-- Generator: Adobe Illustrator 21.0.2, SVG Export Plug-In . SVG Version: 6.00 Build 0)  -->
<svg version="1.1" id="beachcombing_xA0_Image_1_" xmlns="http://www.w3.org/2000/svg" xmlns:xlink="http://www.w3.org/1999/xlink"
	 x="0px" y="0px" viewBox="0 0 575.8 574.3" style="enable-background:new 0 0 575.8 574.3;" xml:space="preserve">
<style type="text/css">
	.st0{fill:#573922;stroke:#2B1C11;stroke-width:30;stroke-miterlimit:10;}
	.st1{display:none;}
	.st2{display:inline;fill:#FFFFFF;}
	.st3{fill:#FFFFFF;}
	.st4{fill:#573922;}
</style>
<ellipse class="st0" cx="289.3" cy="286.7" rx="273.5" ry="272.7"/>
<g class="st1">
	<path class="st2" d="M449.2,54c-0.5,0-1,0-1.5,0c-1.2-0.5-2.4-0.8-3.5-1.4c-1.6-1-3.1-2.2-4.7-3.3c-1.5-1.1-3.1-1.7-5-1.6
		c-1.3,0-2.6,0-3.8,0c-3.1-0.1-4.9-1.4-5.9-4.4c-0.4-1.1-0.7-2.2-1-3.3c-0.6-2.3-1.7-4.2-3.5-5.7c-5.2-4.5-10.4-9.1-15.5-13.7
		c-5.4-4.9-10.3-10.1-12.5-17.2c0-0.1,1.3,3.9-0.3-0.2c-1.6-4.1,0-3.9,0-5.9c0.9-1.5,1.8-3,2.9-4.4c0.7-0.9,1.1-1.6,0.8-2.7
		c-0.8-3.7,0.2-7,3.3-9.3c1.8-1.4,4-2.3,6.1-3.3c0.7-0.3,1.2-0.6,1.4-1.4c1.1-6.3,4.9-9.7,11.4-10.1c1.1-0.1,1.8-0.5,2.3-1.5
		c3.2-6.7,8.1-9.1,15.3-7.5c0.4,0.1,1.1,0.1,1.4-0.2c2-2.1,7-4.5,7-4.5s2.4-1.6,5.6,0c0.3,0.2,0.6,0.4,0.9,0.5
		c1.7,1.1,3.5,2,5.2,3.2c0.9,0.7,1.6,1,2.8,0.6c3.7-1.1,7.1-0.4,9.9,2.2c1.6,1.4,2.8,3.3,4.1,5c0.5,0.6,0.9,1.1,1.8,0.9
		c3.2-0.7,5.9,0.3,8.3,2.3c2.9,2.4,4.6,5.5,6.1,8.8c0.4,0.8,1.1,1.8,1.8,2.1c5.5,2.1,8,6.4,8.6,11.9c0.2,1.8,0.5,3.4,2.3,4.5
		c0.9,0.6,1.4,2,2.1,3c0.2,0.3,0.5,1.1,0.5,1.1s1.6,2.7,0,5.4c-2,4.2-0.3,0.3-0.3,0.5c-1.1,3.1-2.9,5.9-4.9,8.4
		c-5.7,7.1-12.1,13.6-18.6,19.9c-2.1,2.1-3.7,4.4-4.8,7.1c-0.6,1.5-1.3,3-2,4.4c-1.5,2.6-3.8,3.8-6.8,3.6c-0.9,0-1.8-0.1-2.7-0.1
		c-2.3-0.1-4.3,0.6-6.1,2C455.1,51.4,452.3,53,449.2,54z"/>
</g>
<polygon class="st3" points="221.3,58.9 246.7,58.9 246.7,84.3 289.9,58.9 395,127.5 376.1,127.5 376.1,276.8 200.2,276.8 
	200.2,125.3 183.6,124.2 222.4,97.6 "/>
<g>
	<path class="st4" d="M301.5,244v15.8c0,1.6-1.3,3-3,3h-22.8c-1.6,0-3-1.3-3-3v-16.4c-12-2.9-23.1-9-30.8-17.1l-4.4-4.7
		c-0.5-0.6-0.8-1.3-0.8-2.1c0-0.8,0.4-1.5,0.9-2.1l16.6-15.7c1.2-1.1,3.1-1.1,4.2,0.1l4.4,4.7c5.6,6,15.6,10,24.9,10
		c7.3,0,19.7-1.9,19.7-9.2c0.1-6.3-2.7-8.8-21.8-14.6c-16.4-5-43.8-13.3-43.8-44.2c0-17.3,11.8-31.1,30.9-36.3v-17c0-1.6,1.3-3,3-3
		h22.8c1.6,0,3,1.3,3,3v15.4c9.9,1.5,19.5,4.9,26.7,9.5l5.4,3.5c1.4,0.9,1.8,2.7,0.9,4.1L322.1,147c-0.9,1.4-2.7,1.8-4.1,0.9
		l-5.4-3.5c-5.1-3.3-14.1-5.7-21.4-5.7c-7.7,0-20.6,2.1-20.6,10c0,7.4,3.1,10.5,23.4,16.6c16.9,5.1,42.5,12.9,42.2,42.2
		C336.2,226.1,322.9,239.9,301.5,244L301.5,244z M301.5,244"/>
</g>
</svg>
