<?xml version="1.0" encoding="utf-8"?>
<!-- Generator: Adobe Illustrator 19.0.0, SVG Export Plug-In . SVG Version: 6.00 Build 0)  -->
<svg version="1.1" id="beachcombing_xA0_Image_1_" xmlns="http://www.w3.org/2000/svg" xmlns:xlink="http://www.w3.org/1999/xlink"
	 x="0px" y="0px" viewBox="-11 13.7 575.8 574.3" style="enable-background:new -11 13.7 575.8 574.3;" xml:space="preserve">
<style type="text/css">
	.st0{fill:#FFFF00;}
	.st1{fill:#573922;}
	.st2{fill:#FFFFFF;}
</style>
<rect x="-11" y="13.7" class="st0" width="575.8" height="574.3"/>
<rect x="34" y="58.5" class="st1" width="486" height="484.7"/>
<g>
	<path class="st2" d="M494,477.4V124.6c0-10.8-3.9-20.1-11.6-27.8c-7.7-7.7-17-11.6-27.8-11.6H101.4c-10.8,0-20.1,3.9-27.8,11.6
		S62,113.8,62,124.6v352.8c0,10.8,3.9,20.1,11.6,27.8c7.7,7.7,17,11.6,27.8,11.6h353.2c10.8,0,20.1-3.9,27.8-11.6
		C490.1,497.4,494,488.2,494,477.4z M472.1,398.3c-6.6-8.9-11.2-13.3-13.9-13.3c-3.1,0-8.9,6-17.3,17.9l-11,15.6
		c-2.3,3.1-5.4,9.4-9.2,19.1l-21.9-31.8c-1.2-2.3-2.7-3.5-4.6-3.5c-5,0-11.4,18.3-19.1,54.9c-6.2,19.3-14.1,28.9-23.7,28.9
		c-3.5,0-8.5-2.5-15-7.5l-9.8-7.5c-0.8,0-4.8,3.6-12.1,10.7c-12.3,9.8-20.8,14.7-25.4,14.7c-1.5,0-4-1-7.5-3c-3.5-2-5.8-3.2-6.9-3.6
		c-11.6-3.7-18.1-5.5-19.6-5.5c-2.3,0-4.6,0.8-6.9,2.3l-15.6,9.8c-1.9,1.2-3.5,1.7-4.6,1.7c-2.7,0-7.4-2-14.1-6.1
		c-6.7-4-10.9-6.1-12.4-6.1c-1.2,0-3.3,1.7-6.4,5.2c-3.1,3.5-5.6,5.2-7.5,5.2c-1.2,0-2.9,0-5.2,0c-2.3,0-4,0-5.2,0
		c-1.5,0-3.7,0.5-6.4,1.4c-2.7,1-4.6,1.4-5.8,1.4c-1.5,0-4.9-2.3-10.1-6.9c-5.2-4.6-8.6-6.9-10.1-6.9c-2.7,0-6.6,1.4-11.6,4
		c-5,2.7-8.5,4.2-10.4,4.6l-11.6,2.3c-18.1-0.8-27.1-9.8-27.1-27.1V132h33.5c3.5,4.6,8.7,6.9,15.6,6.9c2.7,0,6.8-0.4,12.4-1.2
		c5.6-0.8,9.7-1.2,12.4-1.2c8.5,0,15,5.2,19.6,15.7c5,16.1,9.8,24.1,14.4,24.1c5,0,7.7-2.3,8.1-6.9c2.3-19.2,4.6-32.3,6.9-39.3
		c5.4-14.6,14.8-21.9,28.3-21.9c8.1,0,13.3,5.6,15.6,16.7l1.2,5.8c0.8,3.9,2.3,5.8,4.6,5.8c6.2,0,9.8-3.3,11-9.8
		c2.3-12.3,8.5-18.5,18.5-18.5c11.2,0,20,14.6,26.6,43.9c3.5,15.8,6.5,23.7,9.2,23.7c1.5,0,4-7.9,7.5-23.7c5.4-24.6,9.8-37,13.3-37
		c2.7,0,4.6,2.1,5.8,6.4l6.4,20.8c1.5,5,4.6,7.5,9.2,7.5c3.8,0,7.9-7.3,12.1-21.9c1.5-4.6,4.6-6.9,9.2-6.9h13.3
		c15.8,0,25.8,5.4,30,16.2c3.5,8.9,6.9,13.3,10.4,13.3c1.5,0,3.3-0.6,5.2-1.7l12.1-7.5l15.6-9.2L472.1,398.3L472.1,398.3z
		 M382,398.9l-54.3-44.5c-8.1-6.5-16.4-15.8-24.8-27.7c-3.1-5.4-8.5-12.9-16.2-22.5c-7.7-7.7-27.1-11.6-58.3-11.6
		c-27.3,0-52.9,3.7-76.8,11c-13.9,4.2-20.8,13.9-20.8,28.9c0,15.4,11.7,33.1,35.2,53.1H93.8l8.7,23.7H196c3.1,2.7,4.6,4.8,4.6,6.4
		c0,1.5-1.9,2.3-5.8,2.3H95.5l9.2,25.4h115.5c17.7,0,26.6-6.8,26.6-20.3c0-5.8-2.3-11.2-6.9-16.3L196,359l5.8-0.6
		c6.2,0,20.8-2,43.9-5.9l12.7-2.2l28.9,40.4l68.7,47.9l13.3-11l-45-42.7l45,27.1L382,398.9z M364.6,266L349,253.3l4-16.2l-14.4-1.2
		c-9.2-7.7-19.4-11.6-30.6-11.6c-18.1,0-28.9,10.6-32.3,31.8L364.6,266z M346.1,270.4l-69.9-8.9c-0.4,1.2-0.6,3.1-0.6,5.8
		c0,9.6,3.5,17.9,10.4,24.8c6.9,6.9,15.2,10.4,24.8,10.4c9.2,0,17.2-3,24-9.2C341.6,287.2,345.3,279.5,346.1,270.4z M464,219.8
		l-106.3,23.7l-1.7,8.7l105.1,29.5L464,219.8z"/>
</g>
</svg>
