<?xml version="1.0" encoding="utf-8"?>
<!-- Generator: Adobe Illustrator 19.0.0, SVG Export Plug-In . SVG Version: 6.00 Build 0)  -->
<svg version="1.1" id="beachcombing_xA0_Image_1_" xmlns="http://www.w3.org/2000/svg" xmlns:xlink="http://www.w3.org/1999/xlink"
	 x="0px" y="0px" viewBox="38 -37.3 575.8 574.3" style="enable-background:new 38 -37.3 575.8 574.3;" xml:space="preserve">
<style type="text/css">
	.st0{fill:#573922;stroke:#2B1C11;stroke-width:30;stroke-miterlimit:10;}
	.st1{display:none;}
	.st2{display:inline;fill:#FFFFFF;}
	.st3{fill:#FFFFFF;}
</style>
<ellipse class="st0" cx="327.3" cy="249.4" rx="273.5" ry="272.7"/>
<g class="st1">
	<path class="st2" d="M487.2,16.7c-0.5,0-1,0-1.5,0c-1.2-0.5-2.4-0.8-3.5-1.4c-1.6-1-3.1-2.2-4.7-3.3c-1.5-1.1-3.1-1.7-5-1.6
		c-1.3,0-2.6,0-3.8,0c-3.1-0.1-4.9-1.4-5.9-4.4c-0.4-1.1-0.7-2.2-1-3.3c-0.6-2.3-1.7-4.2-3.5-5.7c-5.2-4.5-10.4-9.1-15.5-13.7
		c-5.4-4.9-10.3-10.1-12.5-17.2c0-0.1,1.3,3.9-0.3-0.2c-1.6-4.1,0-3.9,0-5.9c0.9-1.5,1.8-3,2.9-4.4c0.7-0.9,1.1-1.6,0.8-2.7
		c-0.8-3.7,0.2-7,3.3-9.3c1.8-1.4,4-2.3,6.1-3.3c0.7-0.3,1.2-0.6,1.4-1.4c1.1-6.3,4.9-9.7,11.4-10.1c1.1-0.1,1.8-0.5,2.3-1.5
		c3.2-6.7,8.1-9.1,15.3-7.5c0.4,0.1,1.1,0.1,1.4-0.2c2-2.1,7-4.5,7-4.5s2.4-1.6,5.6,0c0.3,0.2,0.6,0.4,0.9,0.5
		c1.7,1.1,3.5,2,5.2,3.2c0.9,0.7,1.6,1,2.8,0.6c3.7-1.1,7.1-0.4,9.9,2.2c1.6,1.4,2.8,3.3,4.1,5c0.5,0.6,0.9,1.1,1.8,0.9
		c3.2-0.7,5.9,0.3,8.3,2.3c2.9,2.4,4.6,5.5,6.1,8.8c0.4,0.8,1.1,1.8,1.8,2.1c5.5,2.1,8,6.4,8.6,11.9c0.2,1.8,0.5,3.4,2.3,4.5
		c0.9,0.6,1.4,2,2.1,3c0.2,0.3,0.5,1.1,0.5,1.1s1.6,2.7,0,5.4c-2,4.2-0.3,0.3-0.3,0.5c-1.1,3.1-2.9,5.9-4.9,8.4
		c-5.7,7.1-12.1,13.6-18.6,19.9c-2.1,2.1-3.7,4.4-4.8,7.1c-0.6,1.5-1.3,3-2,4.4c-1.5,2.6-3.8,3.8-6.8,3.6c-0.9,0-1.8-0.1-2.7-0.1
		c-2.3-0.1-4.3,0.6-6.1,2C493.1,14.1,490.3,15.7,487.2,16.7z"/>
</g>
<g>
	<path class="st3" d="M431,230.1c0-5.5-5.1-11.2-15.3-16.9c-1.1-0.4-4.9-1.8-11.3-4l-14.9-54.7c14.8-8.8,22.2-26.5,22.2-53
		c0-25-8.3-46.1-24.9-63.3c-10.6-11-31.3-22.1-62.1-33.2l-8.3-3L348,107.9c-1.6,2.2-2.3,4.2-2.3,6c-6.6-1.5-18.1-6.3-34.5-14.3
		c-1.8-0.9-4.8-1.3-9-1.3c-11.3,0-16.9,4.1-16.9,12.3c0,18.1,5,31,14.9,38.5l30.2-8l-5.3-9c11.3,2.4,20.7,4.3,28.2,5.6
		c0.2,0.2,1.3,0.3,3.3,0.3l19.9,65.1l-10-3l-7-32.2c-0.9-4-4.2-8.1-10-12.3l-17.6-12.6c-0.2-0.4-0.4-0.8-0.7-1c-0.7,0-2,0.2-4,0.7
		c-12.6,2.9-21.5,5.3-26.6,7.3c0,4.4,3.4,8.9,10.3,13.3c8.8,5.8,15.7,9.6,20.6,11.6c0.4,4.2,1.5,9.8,3.3,16.9
		c-36.5-9.7-61.6-14.6-75.4-14.6c-1.8,0-5.3,1-10.6,3l-9,3.3c-7.1-1.1-11.6-9.1-13.6-23.9l-6.3,28.7l0.7,8.9
		c0.2,3.1,1.1,5.4,2.7,6.9l5.3,7.3c2.2,3.1,4.3,4.6,6.3,4.6c6,0,12-2.7,17.9-8c2.7,9.5,8.6,14.3,17.9,14.3c6.4,0,12.2-2.1,17.3-6.3
		c2.2,7.3,6.6,11.9,13.3,13.6c5.1,1.3,10.5,0.1,16.3-3.7c1.8,4.8,3.9,7.6,6.3,8.5c18.6,7,42.7,10.4,72.4,10.4
		c16.2,0,26.6-1.8,31.2-5.3C429.9,234.2,431,231,431,230.1z M319.5,77.7c0-10.6-5.5-15.9-16.6-15.9c-4.6,0-8.6,1.5-11.8,4.5
		c-3.2,3-4.8,6.8-4.8,11.5c0,4.6,1.6,8.5,4.8,11.5c3.2,3,7.1,4.5,11.8,4.5c4.4,0,8.3-1.5,11.6-4.6C317.8,85.9,319.5,82.2,319.5,77.7
		z"/>
</g>
</svg>
