<?xml version="1.0" encoding="utf-8"?>
<!-- Generator: Adobe Illustrator 19.0.0, SVG Export Plug-In . SVG Version: 6.00 Build 0)  -->
<svg version="1.1" id="beachcombing_xA0_Image_1_" xmlns="http://www.w3.org/2000/svg" xmlns:xlink="http://www.w3.org/1999/xlink"
	 x="0px" y="0px" viewBox="0 0 575.76 574.32" enable-background="new 0 0 575.76 574.32" xml:space="preserve">
<ellipse fill="#573922" stroke="#2B1C11" stroke-width="30" stroke-miterlimit="10" cx="287.493" cy="288.351" rx="273.546" ry="272.688"/>
<g>
	<path fill="#FFFFFF" d="M369.705,49.955V151.32c-4.912,6.681-10.216,10.019-15.912,10.019c-5.303,0-10.363-2.358-15.175-7.072
		c-4.815-4.715-8.104-10.608-9.872-17.68c-2.164-9.033-3.637-13.453-4.419-13.26c-1.377,0-2.799,1.326-4.273,3.978
		c-1.474,2.652-2.21,5.649-2.21,8.988c0,11.003,3.435,20.727,10.313,29.171c7.072,8.251,15.516,12.376,25.341,12.376
		c8.053,0,15.221-2.55,21.51-7.661c6.483-5.304,9.724-11.391,9.724-18.27V49.66L369.705,49.955z M411.842,251.801
		c-15.129-3.14-22.887-5.99-23.278-8.545v-0.295c0-2.357,7.367-6.188,22.1-11.492c-5.893-6.086-15.521-11.98-28.878-17.68
		c-10.018-3.927-20.972-6.971-32.855-9.135c-11.887-2.159-24.802-3.338-38.749-3.536h-3.536c-31.041,0-59.034,7.661-83.98,22.983
		c-9.825,5.894-16.308,10.019-19.448,12.377c-4.323-2.749-8.743-5.843-13.26-9.282c-4.521-3.435-9.038-7.118-13.555-11.05
		c-6.483-5.695-10.313-8.545-11.492-8.545h-0.295c-0.985,0.59-1.473,4.912-1.473,12.965c0,5.111,5.304,13.362,15.912,24.753
		c-6.68,11.593-10.019,20.727-10.019,27.404v2.357c0.391,3.145,0.737,5.7,1.031,7.662c0.295,1.966,0.539,3.439,0.737,4.419
		c0.589,0,4.024-3.83,10.313-11.491c7.855-9.429,15.221-16.99,22.1-22.689c17.284,10.018,28.583,16.307,33.887,18.858
		c20.23,8.84,42.823,13.26,67.773,13.26h2.357C352.614,284.905,387.481,273.804,411.842,251.801z M363.222,235.594
		c0,3.536-1.132,6.584-3.388,9.135c-2.261,2.555-4.765,3.831-7.514,3.831c-7.859,0-11.786-4.319-11.786-12.965
		c0-3.729,1.178-6.874,3.536-9.429c2.358-2.551,5.009-3.831,7.956-3.831c2.947,0,5.548,1.279,7.808,3.831
		C362.09,228.72,363.222,231.865,363.222,235.594z"/>
</g>
</svg>
