<?xml version="1.0" encoding="utf-8"?>
<!-- Generator: Adobe Illustrator 19.0.0, SVG Export Plug-In . SVG Version: 6.00 Build 0)  -->
<svg version="1.1" id="beachcombing_xA0_Image_1_" xmlns="http://www.w3.org/2000/svg" xmlns:xlink="http://www.w3.org/1999/xlink"
	 x="0px" y="0px" viewBox="38 -37.3 575.8 574.3" style="enable-background:new 38 -37.3 575.8 574.3;" xml:space="preserve">
<style type="text/css">
	.st0{fill:#573922;stroke:#2B1C11;stroke-width:30;stroke-miterlimit:10;}
	.st1{display:none;}
	.st2{display:inline;fill:#FFFFFF;}
	.st3{fill:#FFFFFF;}
</style>
<ellipse class="st0" cx="327.3" cy="249.4" rx="273.5" ry="272.7"/>
<g class="st1">
	<path class="st2" d="M487.2,16.7c-0.5,0-1,0-1.5,0c-1.2-0.5-2.4-0.8-3.5-1.4c-1.6-1-3.1-2.2-4.7-3.3c-1.5-1.1-3.1-1.7-5-1.6
		c-1.3,0-2.6,0-3.8,0c-3.1-0.1-4.9-1.4-5.9-4.4c-0.4-1.1-0.7-2.2-1-3.3c-0.6-2.3-1.7-4.2-3.5-5.7c-5.2-4.5-10.4-9.1-15.5-13.7
		c-5.4-4.9-10.3-10.1-12.5-17.2c0-0.1,1.3,3.9-0.3-0.2c-1.6-4.1,0-3.9,0-5.9c0.9-1.5,1.8-3,2.9-4.4c0.7-0.9,1.1-1.6,0.8-2.7
		c-0.8-3.7,0.2-7,3.3-9.3c1.8-1.4,4-2.3,6.1-3.3c0.7-0.3,1.2-0.6,1.4-1.4c1.1-6.3,4.9-9.7,11.4-10.1c1.1-0.1,1.8-0.5,2.3-1.5
		c3.2-6.7,8.1-9.1,15.3-7.5c0.4,0.1,1.1,0.1,1.4-0.2c2-2.1,7-4.5,7-4.5s2.4-1.6,5.6,0c0.3,0.2,0.6,0.4,0.9,0.5
		c1.7,1.1,3.5,2,5.2,3.2c0.9,0.7,1.6,1,2.8,0.6c3.7-1.1,7.1-0.4,9.9,2.2c1.6,1.4,2.8,3.3,4.1,5c0.5,0.6,0.9,1.1,1.8,0.9
		c3.2-0.7,5.9,0.3,8.3,2.3c2.9,2.4,4.6,5.5,6.1,8.8c0.4,0.8,1.1,1.8,1.8,2.1c5.5,2.1,8,6.4,8.6,11.9c0.2,1.8,0.5,3.4,2.3,4.5
		c0.9,0.6,1.4,2,2.1,3c0.2,0.3,0.5,1.1,0.5,1.1s1.6,2.7,0,5.4c-2,4.2-0.3,0.3-0.3,0.5c-1.1,3.1-2.9,5.9-4.9,8.4
		c-5.7,7.1-12.1,13.6-18.6,19.9c-2.1,2.1-3.7,4.4-4.8,7.1c-0.6,1.5-1.3,3-2,4.4c-1.5,2.6-3.8,3.8-6.8,3.6c-0.9,0-1.8-0.1-2.7-0.1
		c-2.3-0.1-4.3,0.6-6.1,2C493.1,14.1,490.3,15.7,487.2,16.7z"/>
</g>
<g>
	<path class="st3" d="M457.9,217.9c0-2-0.1-3.5-0.3-4.5c-7.2,4.2-12.7,6.6-16.5,7.2h-34.8l-1.2-13.2c25.6-8.8,38.3-15.8,38.3-21
		v-12.6l1.5-11.7c0-2-0.5-3.7-1.5-5.1l-24.9-15c-16.2-9.8-24.7-15.4-25.5-16.8c-1.4-3.2-8.5-9.4-21.3-18.6l-5.4,21.6
		c-21.6-12.2-32.7-19.8-33.3-22.8c0.2,0.6,0.3-4.3,0.3-14.7c0-13-3.3-21.5-9.9-25.5c0.4-1.2,0.6-2.3,0.6-3.3l-0.6-7.5
		c0-3,2-5.4,6.1-7.2c4.1-1.8,8.3-2.7,12.7-2.7c-7.2-15-15.8-22.5-25.8-22.5c-3,0-5.9,0.7-8.7,2.2c-2.8,1.5-5.2,3.4-7.3,5.8
		c-2.1,2.4-3.8,5.1-5.1,8.1c-1.3,3-1.9,6-1.9,9c0,1,0.1,1.5,0.3,1.5c0.2,0,0.3-0.1,0.3-0.3c2.2,9,6.2,14.6,12,16.8l-4.5,1.2
		c-7,1.8-12.1,11.4-15.3,28.8c-1.6,8.4-2.8,17-3.7,25.9c-0.9,8.9-1.3,18.1-1.3,27.7c0,2,0,4,0,6c0,1.8,0.1,3.7,0.3,5.7h-44.6
		c-3.8-13.6-11.4-20.9-22.8-21.9v32.7c-11.8,16.4-17.7,27.3-17.7,32.7c0,2.2,1,3.3,3,3.3h188.7V223H342v13.2h104
		C453.9,231.4,457.9,225.3,457.9,217.9z M307.8,225.1h-104c1.6,6.4,4.2,10.4,7.8,12c1.6,0.4,4.6,0.6,9,0.6h37.7
		c5.4-0.4,10.5-0.7,15.4-0.9c4.9-0.2,9.5-0.3,13.9-0.3c4.4,0,7.2,0.2,8.4,0.6h0.9C301.8,237.1,305.4,233.1,307.8,225.1z
		 M359.7,144.2c-1.4,1.6-2.9,3.2-4.5,4.8c-2.8,3.2-4.2,5-4.2,5.4v0.3c0.2,1.2,0.3,2.2,0.4,3.1c0.1,0.9,0.1,1.6,0.1,2.2
		c0,3.4-1.7,5.1-5.1,5.1H345c-13.2-2.4-19.8-8.1-19.8-17.1c0-2.2,0.2-4.6,0.6-7.3c0.4-2.7,1-5.7,1.8-9.1c9.6,0.8,17.3,2.4,23.2,4.8
		C356.7,138.8,359.7,141.4,359.7,144.2z"/>
</g>
</svg>
