<?xml version="1.0" encoding="utf-8"?>
<!-- Generator: Adobe Illustrator 19.0.0, SVG Export Plug-In . SVG Version: 6.00 Build 0)  -->
<svg version="1.1" id="beachcombing_xA0_Image_1_" xmlns="http://www.w3.org/2000/svg" xmlns:xlink="http://www.w3.org/1999/xlink"
	 x="0px" y="0px" viewBox="18 -17.2 635.8 634.2" style="enable-background:new 18 -17.2 635.8 634.2;" xml:space="preserve">
<style type="text/css">
	.st0{fill:#FFFF00;}
	.st1{fill:#573922;stroke:#2B1C11;stroke-width:30;stroke-miterlimit:10;}
	.st2{fill:#FFFFFF;}
</style>
<ellipse class="st0" cx="336.7" cy="300.5" rx="318.7" ry="317.7"/>
<ellipse class="st1" cx="335.9" cy="300.7" rx="273.5" ry="272.7"/>
<g>
	<path class="st2" d="M430.9,264c0.3-2.5,0.6-6.2,0.8-10.9s0.4-10.6,0.4-17.8V86.6c0-7.2-1.6-12.5-4.7-16c-3.1-3.5-7.5-5.3-13.1-5.3
		c-2.2,0-4.7,0.3-7.4,1l-21.1,38.5l-13.4-4.5l-47.8,9.3c-4.2,0.8-8.2,1.7-12.2,2.7s-8,2.2-12,3.5c-2.4,6.5-4.1,31.4-5,74.6
		l-20.6,75.3l-11.8,4.1l-24.2,11.9c3.5,2.1,10.4,3.1,20.6,3.1c0.3,0,0.8,0,1.4-0.1c0.6-0.1,1.5-0.2,2.6-0.4h133
		c11.8,0,20.2-1.4,25-4.3C426.3,277.1,429.5,271.8,430.9,264z M290.8,120.6h-0.2c-2.2-5.7-5.1-8.7-8.6-8.8c-0.3,0-0.6,0-1-0.1
		c-0.3-0.1-0.6-0.1-1-0.1c-4,0-6.5,2.1-7.4,6.2l-1.9,44.7c2.7,4.3,5.3,6.6,7.7,6.9h0.7c2.6,0,5.4-1.8,8.4-5.3L290.8,120.6z
		 M340,226.4l-33.4,32.7l-17.5,4.5l28.1-70.5l21.6-2.2L340,226.4z M328.7,87.1c0-4.5-1.6-8.3-4.8-11.5c-3.2-3.2-7-4.8-11.5-4.8
		c-4.6,0-8.6,1.6-11.8,4.8c-3.2,3.2-4.8,7-4.8,11.5s1.6,8.3,4.8,11.5c3.2,3.2,7.1,4.8,11.8,4.8c4.5,0,8.3-1.6,11.5-4.8
		S328.7,91.6,328.7,87.1z M368.3,215l-14.9,8.4l4.1-42.3l-34.1-10.8l5.3-44.2l44.6-16.5L368.3,215z"/>
</g>
</svg>
