<?xml version="1.0" encoding="utf-8"?>
<!-- Generator: Adobe Illustrator 19.0.0, SVG Export Plug-In . SVG Version: 6.00 Build 0)  -->
<svg version="1.1" id="beachcombing_xA0_Image_1_" xmlns="http://www.w3.org/2000/svg" xmlns:xlink="http://www.w3.org/1999/xlink"
	 x="0px" y="0px" viewBox="38 -37.3 575.8 574.3" style="enable-background:new 38 -37.3 575.8 574.3;" xml:space="preserve">
<style type="text/css">
	.st0{fill:#573922;stroke:#2B1C11;stroke-width:30;stroke-miterlimit:10;}
	.st1{display:none;}
	.st2{display:inline;fill:#FFFFFF;}
	.st3{fill:#FFFFFF;}
</style>
<ellipse class="st0" cx="327.3" cy="249.4" rx="273.5" ry="272.7"/>
<g class="st1">
	<path class="st2" d="M487.2,16.7c-0.5,0-1,0-1.5,0c-1.2-0.5-2.4-0.8-3.5-1.4c-1.6-1-3.1-2.2-4.7-3.3c-1.5-1.1-3.1-1.7-5-1.6
		c-1.3,0-2.6,0-3.8,0c-3.1-0.1-4.9-1.4-5.9-4.4c-0.4-1.1-0.7-2.2-1-3.3c-0.6-2.3-1.7-4.2-3.5-5.7c-5.2-4.5-10.4-9.1-15.5-13.7
		c-5.4-4.9-10.3-10.1-12.5-17.2c0-0.1,1.3,3.9-0.3-0.2c-1.6-4.1,0-3.9,0-5.9c0.9-1.5,1.8-3,2.9-4.4c0.7-0.9,1.1-1.6,0.8-2.7
		c-0.8-3.7,0.2-7,3.3-9.3c1.8-1.4,4-2.3,6.1-3.3c0.7-0.3,1.2-0.6,1.4-1.4c1.1-6.3,4.9-9.7,11.4-10.1c1.1-0.1,1.8-0.5,2.3-1.5
		c3.2-6.7,8.1-9.1,15.3-7.5c0.4,0.1,1.1,0.1,1.4-0.2c2-2.1,7-4.5,7-4.5s2.4-1.6,5.6,0c0.3,0.2,0.6,0.4,0.9,0.5
		c1.7,1.1,3.5,2,5.2,3.2c0.9,0.7,1.6,1,2.8,0.6c3.7-1.1,7.1-0.4,9.9,2.2c1.6,1.4,2.8,3.3,4.1,5c0.5,0.6,0.9,1.1,1.8,0.9
		c3.2-0.7,5.9,0.3,8.3,2.3c2.9,2.4,4.6,5.5,6.1,8.8c0.4,0.8,1.1,1.8,1.8,2.1c5.5,2.1,8,6.4,8.6,11.9c0.2,1.8,0.5,3.4,2.3,4.5
		c0.9,0.6,1.4,2,2.1,3c0.2,0.3,0.5,1.1,0.5,1.1s1.6,2.7,0,5.4c-2,4.2-0.3,0.3-0.3,0.5c-1.1,3.1-2.9,5.9-4.9,8.4
		c-5.7,7.1-12.1,13.6-18.6,19.9c-2.1,2.1-3.7,4.4-4.8,7.1c-0.6,1.5-1.3,3-2,4.4c-1.5,2.6-3.8,3.8-6.8,3.6c-0.9,0-1.8-0.1-2.7-0.1
		c-2.3-0.1-4.3,0.6-6.1,2C493.1,14.1,490.3,15.7,487.2,16.7z"/>
</g>
<g>
	<path class="st3" d="M329.9,99.1l-33.6-36.9h-39.7l-33.9,36.9l37.4,43.2h32.6L329.9,99.1z M258.6,119.9h-4.5l-16.8-18.1v-3.8
		l21.3-17.3L258.6,119.9L258.6,119.9z M303,34c-0.2-0.5-0.3-1-0.3-1.5h-49v4.3h3.3c3,0,4.8,0.3,5.3,1c1.2,4.9,3.3,8.9,6.4,12.1
		c3.1,3.2,6.3,4.8,9.7,4.8c7.7,0,13.1-5.6,16.3-16.8c2.2-0.7,4.7-1,7.5-1c0.3,0,0.5-0.4,0.5-1.3C302.9,35.4,303,34.9,303,34z
		 M294.7,245.4V150h-36.2v95.4h10.5l8.5-73.1l6,73.1L294.7,245.4L294.7,245.4z M294.7,25.5C292.2,18,287,14,279.2,13.7h-0.8
		c-6.4,0-11.1,3.9-14.3,11.8H294.7z M315.6,101.8l-16.8,18.1h-4V80.7l20.8,17.3L315.6,101.8L315.6,101.8z M431.8,62.9l-0.8-19.6
		c-2,0.7-4.6,1-7.8,1c-5.5,0-13.2-2.6-23.1-7.8c-11.4-1.5-19.2-3.6-23.3-6.3V83l1,2.8l-48.5,34.1v71.3h32.4V140h32.1v51.2h31.9
		v-71.3l-41.7-31.4V61.4c0.8-3.3,4.1-5,9.8-5c1.8,0,4.8,0.8,8.8,2.5c9,3.7,15.8,5.5,20.3,5.5C426.4,64.4,429.3,63.9,431.8,62.9z"/>
</g>
</svg>
