<?xml version="1.0" encoding="utf-8"?>
<!-- Generator: Adobe Illustrator 19.0.0, SVG Export Plug-In . SVG Version: 6.00 Build 0)  -->
<svg version="1.1" id="beachcombing_xA0_Image_1_" xmlns="http://www.w3.org/2000/svg" xmlns:xlink="http://www.w3.org/1999/xlink"
	 x="0px" y="0px" viewBox="38 -37.3 575.8 574.3" style="enable-background:new 38 -37.3 575.8 574.3;" xml:space="preserve">
<style type="text/css">
	.st0{fill:#573922;stroke:#2B1C11;stroke-width:30;stroke-miterlimit:10;}
	.st1{display:none;}
	.st2{display:inline;fill:#FFFFFF;}
	.st3{fill:#FFFFFF;}
</style>
<ellipse class="st0" cx="325.9" cy="249.4" rx="273.5" ry="272.7"/>
<g class="st1">
	<path class="st2" d="M449.2,54c-0.5,0-1,0-1.5,0c-1.2-0.5-2.4-0.8-3.5-1.4c-1.6-1-3.1-2.2-4.7-3.3c-1.5-1.1-3.1-1.7-5-1.6
		c-1.3,0-2.6,0-3.8,0c-3.1-0.1-4.9-1.4-5.9-4.4c-0.4-1.1-0.7-2.2-1-3.3c-0.6-2.3-1.7-4.2-3.5-5.7c-5.2-4.5-10.4-9.1-15.5-13.7
		c-5.4-4.9-10.3-10.1-12.5-17.2c0-0.1,1.3,3.9-0.3-0.2c-1.6-4.1,0-3.9,0-5.9c0.9-1.5,1.8-3,2.9-4.4c0.7-0.9,1.1-1.6,0.8-2.7
		c-0.8-3.7,0.2-7,3.3-9.3c1.8-1.4,4-2.3,6.1-3.3c0.7-0.3,1.2-0.6,1.4-1.4c1.1-6.3,4.9-9.7,11.4-10.1c1.1-0.1,1.8-0.5,2.3-1.5
		c3.2-6.7,8.1-9.1,15.3-7.5c0.4,0.1,1.1,0.1,1.4-0.2c2-2.1,7-4.5,7-4.5s2.4-1.6,5.6,0c0.3,0.2,0.6,0.4,0.9,0.5
		c1.7,1.1,3.5,2,5.2,3.2c0.9,0.7,1.6,1,2.8,0.6c3.7-1.1,7.1-0.4,9.9,2.2c1.6,1.4,2.8,3.3,4.1,5c0.5,0.6,0.9,1.1,1.8,0.9
		c3.2-0.7,5.9,0.3,8.3,2.3c2.9,2.4,4.6,5.5,6.1,8.8c0.4,0.8,1.1,1.8,1.8,2.1c5.5,2.1,8,6.4,8.6,11.9c0.2,1.8,0.5,3.4,2.3,4.5
		c0.9,0.6,1.4,2,2.1,3c0.2,0.3,0.5,1.1,0.5,1.1s1.6,2.7,0,5.4c-2,4.2-0.3,0.3-0.3,0.5c-1.1,3.1-2.9,5.9-4.9,8.4
		c-5.7,7.1-12.1,13.6-18.6,19.9c-2.1,2.1-3.7,4.4-4.8,7.1c-0.6,1.5-1.3,3-2,4.4c-1.5,2.6-3.8,3.8-6.8,3.6c-0.9,0-1.8-0.1-2.7-0.1
		c-2.3-0.1-4.3,0.6-6.1,2C455.1,51.4,452.3,53,449.2,54z"/>
</g>
<g>
	<path class="st3" d="M240.4,65.9c-3.4,6.1-6.3,12.8-8.9,20c-2.5,7.2-4.5,15-5.8,23.4c-1.3,8.4-2,17.3-2,26.9s0.7,18.5,2.1,26.7
		c1.4,8.2,3.3,15.8,5.8,23c2.4,7.1,5.4,13.8,8.9,19.9c3.5,6.1,7.2,11.8,11.1,17.1h-15.2c-3.6-4.3-7.1-9.4-10.6-15.1
		c-3.5-5.7-6.6-12.2-9.3-19.3c-2.7-7.1-5-15-6.8-23.7c-1.8-8.6-2.7-18.2-2.7-28.8c0.2-10.5,1.1-20.2,2.8-28.9
		c1.7-8.7,3.9-16.7,6.6-23.8c2.7-7.1,5.8-13.6,9.3-19.3c3.5-5.7,6.9-10.8,10.3-15.1h15.5C247.5,54.1,243.8,59.7,240.4,65.9z
		 M271,176.2c2.5-2.5,5.7-3.8,9.4-3.8c3.9,0,7.1,1.3,9.5,3.8c2.3,2.5,3.5,5.8,3.5,9.7c0,3.8-1.2,7-3.5,9.6c-2.4,2.6-5.6,3.9-9.7,3.9
		c-3.8,0-6.9-1.3-9.3-3.8c-2.4-2.5-3.7-5.8-3.7-9.7S268.4,178.7,271,176.2z M316.8,176.2c2.4-2.5,5.6-3.8,9.6-3.8s7.1,1.3,9.5,3.8
		c2.3,2.5,3.5,5.8,3.5,9.7c0,3.8-1.2,7-3.5,9.6c-2.4,2.6-5.6,3.9-9.7,3.9c-3.8,0-6.9-1.3-9.3-3.8c-2.4-2.5-3.7-5.8-3.7-9.7
		S314.4,178.7,316.8,176.2z M362.5,176.2c2.4-2.5,5.6-3.8,9.6-3.8s7.1,1.3,9.5,3.8c2.3,2.5,3.5,5.8,3.5,9.7c0,3.8-1.2,7-3.7,9.6
		c-2.4,2.6-5.6,3.9-9.6,3.9c-3.8,0-6.9-1.3-9.3-3.8c-2.4-2.5-3.7-5.8-3.7-9.7S360.1,178.7,362.5,176.2z M408.8,206.1
		c3.4-6.1,6.3-12.8,8.9-20c2.5-7.2,4.5-15,5.9-23.4c1.4-8.4,2.1-17.3,2.1-26.9c0-19.2-2.6-35.8-7.9-49.9
		c-5.3-14.1-11.9-26.3-20-36.7h15c3.6,4.3,7.1,9.4,10.6,15.1c3.5,5.7,6.6,12.2,9.3,19.3c2.7,7.1,4.9,15,6.6,23.7
		c1.7,8.7,2.5,18.2,2.5,28.8c0,10.5-0.8,20.1-2.5,28.8c-1.7,8.7-3.9,16.6-6.6,23.7c-2.7,7.1-5.8,13.6-9.3,19.3
		c-3.5,5.7-7,10.9-10.6,15.4h-15C401.7,217.9,405.4,212.2,408.8,206.1z"/>
</g>
</svg>
