<?xml version="1.0" encoding="utf-8"?>
<!-- Generator: Adobe Illustrator 19.0.0, SVG Export Plug-In . SVG Version: 6.00 Build 0)  -->
<svg version="1.1" id="beachcombing_xA0_Image_1_" xmlns="http://www.w3.org/2000/svg" xmlns:xlink="http://www.w3.org/1999/xlink"
	 x="0px" y="0px" viewBox="38 -37.3 575.8 574.3" style="enable-background:new 38 -37.3 575.8 574.3;" xml:space="preserve">
<style type="text/css">
	.st0{fill:#573922;stroke:#2B1C11;stroke-width:30;stroke-miterlimit:10;}
	.st1{display:none;}
	.st2{display:inline;fill:#FFFFFF;}
	.st3{fill:#FFFFFF;}
</style>
<ellipse class="st0" cx="325.5" cy="251" rx="273.5" ry="272.7"/>
<g class="st1">
	<path class="st2" d="M335.2,165.9c-0.5,0-1,0-1.5,0c-1.2-0.5-2.4-0.8-3.5-1.4c-1.6-1-3.1-2.2-4.7-3.3c-1.5-1.1-3.1-1.7-5-1.6
		c-1.3,0-2.6,0-3.8,0c-3.1-0.1-4.9-1.4-5.9-4.4c-0.4-1.1-0.7-2.2-1-3.3c-0.6-2.3-1.7-4.2-3.5-5.7c-5.2-4.5-10.4-9.1-15.5-13.7
		c-5.4-4.9-10.3-10.1-12.5-17.2c0-0.1,1.3,3.9-0.3-0.2c-1.6-4.1,0-3.9,0-5.9c0.9-1.5,1.8-3,2.9-4.4c0.7-0.9,1.1-1.6,0.8-2.7
		c-0.8-3.7,0.2-7,3.3-9.3c1.8-1.4,4-2.3,6.1-3.3c0.7-0.3,1.2-0.6,1.4-1.4c1.1-6.3,4.9-9.7,11.4-10.1c1.1-0.1,1.8-0.5,2.3-1.5
		c3.2-6.7,8.1-9.1,15.3-7.5c0.4,0.1,1.1,0.1,1.4-0.2c2-2.1,7-4.5,7-4.5s2.4-1.6,5.6,0c0.3,0.2,0.6,0.4,0.9,0.5
		c1.7,1.1,3.5,2,5.2,3.2c0.9,0.7,1.6,1,2.8,0.6c3.7-1.1,7.1-0.4,9.9,2.2c1.6,1.4,2.8,3.3,4.1,5c0.5,0.6,0.9,1.1,1.8,0.9
		c3.2-0.7,5.9,0.3,8.3,2.3c2.9,2.4,4.6,5.5,6.1,8.8c0.4,0.8,1.1,1.8,1.8,2.1c5.5,2.1,8,6.4,8.6,11.9c0.2,1.8,0.5,3.4,2.3,4.5
		c0.9,0.6,1.4,2,2.1,3c0.2,0.3,0.5,1.1,0.5,1.1s1.6,2.7,0,5.4c-2,4.2-0.3,0.3-0.3,0.5c-1.1,3.1-2.9,5.9-4.9,8.4
		c-5.7,7.1-12.1,13.6-18.6,19.9c-2.1,2.1-3.7,4.4-4.8,7.1c-0.6,1.5-1.3,3-2,4.4c-1.5,2.6-3.8,3.8-6.8,3.6c-0.9,0-1.8-0.1-2.7-0.1
		c-2.3-0.1-4.3,0.6-6.1,2C341.1,163.3,338.3,164.9,335.2,165.9z"/>
</g>
<g>
	<path class="st3" d="M461.3,201.3c1.1-13-2.5-24.5-10.8-34.3c-8.2-9.8-18.9-15.3-31.9-16.4c-8.5-0.8-16.5,0.5-23.9,4l-5.2-8.8
		c9.6-5.3,19.5-7.4,29.9-6.4l-3.2-6.4c-9.8-0.8-19.9,1.3-30.3,6.4L358,90.4h-24.3c-5.3,0-14.8,0.9-28.3,2.8
		c-0.8-5-3.3-12.6-7.6-22.7l-17.1-11.6c-19.4,14.4-29.1,38.4-29.1,72.2l-23.9-3.6l-0.8,4.4c-10.9,1.3-20.5,5.1-28.7,11.2l3.6,5.2
		c10.4-3.5,18.9-5.2,25.5-5.2c11.4,0,21.7,3.3,30.7,10l-4,6.8c-6.6-4-14-6-21.9-6c-12,0-22.2,4.3-30.7,13
		c-8.5,8.6-12.8,18.9-12.8,30.9c0,12.2,4.2,22.6,12.8,31.1c8.5,8.5,18.9,12.8,31.1,12.8c9.8,0,18.7-3,26.5-9
		c7.8-6,13.1-13.8,15.8-23.3l59.8,0.4l33.9-76.6h4.8l6,10.4c-6.4,5.3-11.3,10.4-14.8,15.2l2.8,8.4c4-6.4,9.3-12,16-16.7l4.8,8.4
		c-12.2,8.2-19,19.8-20.3,34.7c-1.1,13,2.5,24.5,10.8,34.3c8.2,9.8,18.9,15.3,31.9,16.4c13,1.1,24.5-2.5,34.5-10.8
		C454.7,225,460.2,214.3,461.3,201.3z M258.7,206.1c-4.3,13-13.2,19.5-26.7,19.5c-7.7,0-14.2-2.7-19.5-8.2c-5.3-5.4-8-12-8-19.7
		c0-7.7,2.7-14.3,8-19.7c5.3-5.4,11.8-8.2,19.5-8.2c4.8,0,9,1.1,12.8,3.2l-6.4,10c-2.7-1.1-4.8-1.6-6.4-1.6c-4.3,0-8,1.7-11.2,5
		c-3.2,3.3-4.8,7.1-4.8,11.4c0,4.5,1.6,8.3,4.8,11.4c3.2,3.1,7,4.6,11.6,4.6c6.9,0,11.7-3.2,14.4-9.6L258.7,206.1z M259.9,198.9
		l-11.6-1.6c0-4-1.6-7.6-4.8-10.8l6.8-10c6.4,5.9,9.6,12.9,9.6,21.1V198.9L259.9,198.9z M279.8,201.3l-4-0.4
		c1.3-16.2-4.3-28.7-16.7-37.5l3.6-6c12,0,17.9,9.3,17.9,27.9C280.6,189.3,280.4,194.6,279.8,201.3z M326.1,39.4
		c0-3.5-2.7-6.7-8.2-9.8c-5.5-3.1-10.2-4.6-14.2-4.6c-5.3,0-9.7,1.9-13.2,5.8c-3.5,3.9-5.2,8.4-5.2,13.8c0,4.3,1.4,8.4,4.2,12.6
		c2.8,4.1,6.2,6.2,10.2,6.2c5,0,9.7-5.8,14-17.5l5.6-2.4C323.8,41.5,326.1,40.2,326.1,39.4z M362.4,115.1
		c-6.1,1.6-10.5,2.4-13.2,2.4c-4.8,0-10.9,2-18.3,6l-17.5,9.6c-5.3-3.5-9-5.8-11.2-7.2c-4.5-2.1-8.8-3.5-12.8-4
		c3.2-6.6,6-11.4,8.4-14.4l6.4,4l21.5-6.8c4.2-1.3,7.6-2.1,10-2.4c9.8,0,15.2,0.9,16,2.8l4.4-2L362.4,115.1z M310.6,186.5h-10.4
		l10.4-16V186.5z M350.4,151l-10.8,24.3c-0.5,1.1-1.3,1.6-2.4,1.6c-1.6,0-2.4-0.5-2.4-1.6l1.6-14.4c0.3-3.2-1.2-4.8-4.4-4.8h-16.4
		l6.4-9.2h25.1c2.7,0,4,0.7,4,2C351.2,149.6,351,150.2,350.4,151z M401.5,113.2c0-5.3-1.5-9.8-4.4-13.6c-4.5,0-8.8,1.1-12.8,3.2
		c-4.8,2.4-7.2,5.7-7.2,10c0,4,2.5,7.2,7.6,9.6c4.2,2.1,8.5,3.2,12.8,3.2C400.1,122.3,401.5,118.2,401.5,113.2z M445.7,197.3
		c0,8.8-3.1,16.2-9.2,22.1c-6.1,6-13.6,9-22.3,9c-8.5,0-15.8-3.1-21.9-9.2c-6.1-6.1-9.2-13.4-9.2-21.9c0-10.4,4.4-18.9,13.2-25.5
		l8,14.4c-3.2,2.7-4.8,6.4-4.8,11.2c0,4.3,1.5,7.8,4.4,10.8c2.9,2.9,6.5,4.4,10.8,4.4c4.2,0,7.8-1.5,10.8-4.4
		c2.9-2.9,4.4-6.5,4.4-10.8c0-4.3-1.5-7.8-4.4-10.8c-2.9-2.9-6.5-4.4-10.8-4.4h-2c-1.1,0.3-1.7,0.4-2,0.4l-8.4-14
		c4-1.6,8-2.4,12-2.4c8.8,0,16.2,3,22.3,9C442.7,181.2,445.7,188.5,445.7,197.3z"/>
</g>
</svg>
