<?xml version="1.0" encoding="utf-8"?>
<!-- Generator: Adobe Illustrator 19.0.0, SVG Export Plug-In . SVG Version: 6.00 Build 0)  -->
<svg version="1.1" id="beachcombing_xA0_Image_1_" xmlns="http://www.w3.org/2000/svg" xmlns:xlink="http://www.w3.org/1999/xlink"
	 x="0px" y="0px" viewBox="38 -37.3 575.8 574.3" style="enable-background:new 38 -37.3 575.8 574.3;" xml:space="preserve">
<style type="text/css">
	.st0{fill:#573922;stroke:#2B1C11;stroke-width:30;stroke-miterlimit:10;}
	.st1{display:none;}
	.st2{display:inline;fill:#FFFFFF;}
	.st3{fill:#FFFFFF;}
</style>
<ellipse class="st0" cx="327.3" cy="249.4" rx="273.5" ry="272.7"/>
<g class="st1">
	<path class="st2" d="M487.2,16.7c-0.5,0-1,0-1.5,0c-1.2-0.5-2.4-0.8-3.5-1.4c-1.6-1-3.1-2.2-4.7-3.3c-1.5-1.1-3.1-1.7-5-1.6
		c-1.3,0-2.6,0-3.8,0c-3.1-0.1-4.9-1.4-5.9-4.4c-0.4-1.1-0.7-2.2-1-3.3c-0.6-2.3-1.7-4.2-3.5-5.7c-5.2-4.5-10.4-9.1-15.5-13.7
		c-5.4-4.9-10.3-10.1-12.5-17.2c0-0.1,1.3,3.9-0.3-0.2c-1.6-4.1,0-3.9,0-5.9c0.9-1.5,1.8-3,2.9-4.4c0.7-0.9,1.1-1.6,0.8-2.7
		c-0.8-3.7,0.2-7,3.3-9.3c1.8-1.4,4-2.3,6.1-3.3c0.7-0.3,1.2-0.6,1.4-1.4c1.1-6.3,4.9-9.7,11.4-10.1c1.1-0.1,1.8-0.5,2.3-1.5
		c3.2-6.7,8.1-9.1,15.3-7.5c0.4,0.1,1.1,0.1,1.4-0.2c2-2.1,7-4.5,7-4.5s2.4-1.6,5.6,0c0.3,0.2,0.6,0.4,0.9,0.5
		c1.7,1.1,3.5,2,5.2,3.2c0.9,0.7,1.6,1,2.8,0.6c3.7-1.1,7.1-0.4,9.9,2.2c1.6,1.4,2.8,3.3,4.1,5c0.5,0.6,0.9,1.1,1.8,0.9
		c3.2-0.7,5.9,0.3,8.3,2.3c2.9,2.4,4.6,5.5,6.1,8.8c0.4,0.8,1.1,1.8,1.8,2.1c5.5,2.1,8,6.4,8.6,11.9c0.2,1.8,0.5,3.4,2.3,4.5
		c0.9,0.6,1.4,2,2.1,3c0.2,0.3,0.5,1.1,0.5,1.1s1.6,2.7,0,5.4c-2,4.2-0.3,0.3-0.3,0.5c-1.1,3.1-2.9,5.9-4.9,8.4
		c-5.7,7.1-12.1,13.6-18.6,19.9c-2.1,2.1-3.7,4.4-4.8,7.1c-0.6,1.5-1.3,3-2,4.4c-1.5,2.6-3.8,3.8-6.8,3.6c-0.9,0-1.8-0.1-2.7-0.1
		c-2.3-0.1-4.3,0.6-6.1,2C493.1,14.1,490.3,15.7,487.2,16.7z"/>
</g>
<g>
	<path class="st3" d="M203,70c-5.1,8.4-11.6,21.2-19.4,38.4c-2.7,6-3.9,11.4-3.6,16.3l1.8,26.2l-25.7,42l17.6,14l30.7-40.2
		c3.6-4.8,5.6-14,5.9-27.5l16.3,15.8l0.9,7.2c0.3,3,1.1,8.4,2.3,16.3c2.1,4.8,5.1,13.9,9,27.1l17.6-3.6l-2.3-33.4l-2.7-22.1
		c-3.6-7.8-10.1-16.7-19.4-26.6l-7.7-8.1l9.5-15.4l10.8,6.3l27.1,13.1l11.3-15.4l-68.6-48.3L203,70z M477.6,177.5l-3.2-2.3
		c3.9,2.4,9.5,3.6,16.7,3.6c3-3,5-6.6,5.9-10.8l-4.1-2.3c-8.1-4.5-12.8-8.4-14-11.7l-1.4-7.7l-2.7-0.9c-2.1-1.5-5.4-2.6-9.9-3.2
		c-0.9,0-4.2-0.6-9.9-1.8c-1.2-0.9-2.3-1.4-3.2-1.4c-2.7,0-4.1,2.4-4.1,7.2l4.1,2.7c1.2,0.6,1.8,1.2,1.8,1.8l-10.8,5l-21.2,1.4
		c-4.2,0.3-8,0.2-11.3-0.5c-1.8-0.3-4.1,0.2-6.8,1.6c-2.7,1.4-4.2,2-4.5,2H291.8l-25.2-37.9l-5.4,0l10.3,88.1h-78.8l-5.9,29.8h114.7
		c19.3,0,28.9-8.3,28.9-25v-18.3h-14.5l-14.5-21.2H371l-10.4,3.2H357l-31.2,4l7.2,5.7l-5.4,3.1l9.9,3.5l-4.1,3.5l9.9,0.9l4.1-3.8
		l1.8-1.3l1.8-2.1v2l-6.3,4.8l3.6,0.4l5-1.2l3.6-1.2l2.3-1.6l1.8-2.4l0.5,1.8l-0.9,1.8l-12.2,7.7l13.5-1.8l-1.8,3.2l9.5-7.7
		l-0.9,4.5l7.7-5.9l0.5,2.2c0.6,1.2,0.4,2.7-0.7,4.5c-1.1,1.8-1.6,2.8-1.6,3.1c0,0.6,0.6,1.2,1.8,1.8c1.8,1.8,3.3,5.7,4.5,11.6
		c0.6,3.9,3,6.7,7.2,8.5c11.4,5.1,19.9,7.6,25.3,7.6c11.7,0,17.6-2.3,17.6-6.9c0-4-1.4-6.6-4.1-7.9c-11.1-1.2-16.7-4.6-16.7-10.2
		v-3.7c0-1.5,0-2.6,0-3.2c0-1.5,0.3-3.1,0.9-4.6h0.4c1.8,1.2,4.4,2.9,8,5.1c3.9,0.6,8.5,1.6,13.8,2.8c1.2,0.6,3.4,2,6.7,4.2v0.5
		c-6.6,1.2-9.9,4.3-9.9,9.3c0,5,3.8,7.5,11.3,7.5c13.8,0,20.8-4.8,20.8-14.3c0-3.3-2.6-7.2-7.7-11.6c1.8-1.8,4.1-4.8,6.8-8.9
		c0.3-1.2,0.5-3.7,0.5-7.6c0.3-2.1,1.1-3.1,2.3-3.1c0.9,0,2.7,0.6,5.4,1.8c3.6,2.1,7.1,3.2,10.4,3.2c4.2,0,6.3-2.3,6.3-6.8
		C484.1,180.6,481.2,179.3,477.6,177.5z M226.9,44.7c0,12.3,6.2,18.5,18.5,18.5c12.6,0,19-6.2,19-18.5c0-12.6-6.3-19-19-19
		C233.1,25.7,226.9,32.1,226.9,44.7z"/>
</g>
</svg>
