<?xml version="1.0" encoding="utf-8"?>
<!-- Generator: Adobe Illustrator 19.0.0, SVG Export Plug-In . SVG Version: 6.00 Build 0)  -->
<svg version="1.1" id="beachcombing_xA0_Image_1_" xmlns="http://www.w3.org/2000/svg" xmlns:xlink="http://www.w3.org/1999/xlink"
	 x="0px" y="0px" viewBox="18 -17.2 635.8 634.2" style="enable-background:new 18 -17.2 635.8 634.2;" xml:space="preserve">
<style type="text/css">
	.st0{fill:#FFFF00;}
	.st1{fill:#573922;stroke:#2B1C11;stroke-width:30;stroke-miterlimit:10;}
	.st2{fill:#FFFFFF;}
</style>
<ellipse class="st0" cx="336.7" cy="300.5" rx="318.7" ry="317.7"/>
<ellipse class="st1" cx="335.9" cy="300.7" rx="273.5" ry="272.7"/>
<g>
	<path class="st2" d="M435.4,290.8c-4.8,0-9.4-2-12.6-5.3l-48.2-48c-16.4,11.4-36.1,17.4-56,17.4c-54.6,0-98.8-44.2-98.8-98.8
		c0-54.6,44.2-98.8,98.8-98.8s98.8,44.2,98.8,98.8c0,19.9-6,39.6-17.4,56l48.2,48.2c3.2,3.2,5.2,7.9,5.2,12.6
		C453.4,282.7,445.3,290.8,435.4,290.8z M318.6,93.1c-34.7,0-62.9,28.2-62.9,62.9s28.2,62.9,62.9,62.9s62.9-28.2,62.9-62.9
		S353.3,93.1,318.6,93.1z"/>
</g>
</svg>
