<?xml version="1.0" encoding="utf-8"?>
<!-- Generator: Adobe Illustrator 19.0.0, SVG Export Plug-In . SVG Version: 6.00 Build 0)  -->
<svg version="1.1" id="beachcombing_xA0_Image_1_" xmlns="http://www.w3.org/2000/svg" xmlns:xlink="http://www.w3.org/1999/xlink"
	 x="0px" y="0px" viewBox="38 -37.3 575.8 574.3" style="enable-background:new 38 -37.3 575.8 574.3;" xml:space="preserve">
<style type="text/css">
	.st0{fill:#573922;stroke:#2B1C11;stroke-width:30;stroke-miterlimit:10;}
	.st1{display:none;}
	.st2{display:inline;fill:#FFFFFF;}
	.st3{fill:#FFFFFF;}
</style>
<ellipse class="st0" cx="327.3" cy="249.4" rx="273.5" ry="272.7"/>
<g class="st1">
	<path class="st2" d="M487.2,16.7c-0.5,0-1,0-1.5,0c-1.2-0.5-2.4-0.8-3.5-1.4c-1.6-1-3.1-2.2-4.7-3.3c-1.5-1.1-3.1-1.7-5-1.6
		c-1.3,0-2.6,0-3.8,0c-3.1-0.1-4.9-1.4-5.9-4.4c-0.4-1.1-0.7-2.2-1-3.3c-0.6-2.3-1.7-4.2-3.5-5.7c-5.2-4.5-10.4-9.1-15.5-13.7
		c-5.4-4.9-10.3-10.1-12.5-17.2c0-0.1,1.3,3.9-0.3-0.2c-1.6-4.1,0-3.9,0-5.9c0.9-1.5,1.8-3,2.9-4.4c0.7-0.9,1.1-1.6,0.8-2.7
		c-0.8-3.7,0.2-7,3.3-9.3c1.8-1.4,4-2.3,6.1-3.3c0.7-0.3,1.2-0.6,1.4-1.4c1.1-6.3,4.9-9.7,11.4-10.1c1.1-0.1,1.8-0.5,2.3-1.5
		c3.2-6.7,8.1-9.1,15.3-7.5c0.4,0.1,1.1,0.1,1.4-0.2c2-2.1,7-4.5,7-4.5s2.4-1.6,5.6,0c0.3,0.2,0.6,0.4,0.9,0.5
		c1.7,1.1,3.5,2,5.2,3.2c0.9,0.7,1.6,1,2.8,0.6c3.7-1.1,7.1-0.4,9.9,2.2c1.6,1.4,2.8,3.3,4.1,5c0.5,0.6,0.9,1.1,1.8,0.9
		c3.2-0.7,5.9,0.3,8.3,2.3c2.9,2.4,4.6,5.5,6.1,8.8c0.4,0.8,1.1,1.8,1.8,2.1c5.5,2.1,8,6.4,8.6,11.9c0.2,1.8,0.5,3.4,2.3,4.5
		c0.9,0.6,1.4,2,2.1,3c0.2,0.3,0.5,1.1,0.5,1.1s1.6,2.7,0,5.4c-2,4.2-0.3,0.3-0.3,0.5c-1.1,3.1-2.9,5.9-4.9,8.4
		c-5.7,7.1-12.1,13.6-18.6,19.9c-2.1,2.1-3.7,4.4-4.8,7.1c-0.6,1.5-1.3,3-2,4.4c-1.5,2.6-3.8,3.8-6.8,3.6c-0.9,0-1.8-0.1-2.7-0.1
		c-2.3-0.1-4.3,0.6-6.1,2C493.1,14.1,490.3,15.7,487.2,16.7z"/>
</g>
<g>
	<path class="st3" d="M256.2,158.6l3.3-6.2h50.7c1.9,0,4.1-1,6.5-2.9l12.7-18.4l10.1,22.7l-6.9,51.6l-1.4,5.8h-67v19.5h155.3
		c14.5,0,22.7-6.3,24.6-18.9l1.8-12.1l-16.3-3.6c-0.7,3.8-1.9,8.2-3.6,13c-1.2,1.4-3.5,2.2-6.9,2.2h-47.4c-0.7-2.2-2.7-3.8-5.8-5
		l-8.3-3.2c1.9-7.7,4-16.5,6.2-26.3c0-1.7,2-10.5,6.2-26.3c0.5-1.9,0.5-3.7,0-5.4l-14.1-43.6h-0.4L377,82.5l0.7,0.4l17.7,9.4
		c3.1,1,5.7,0.7,7.6-0.7l2.5-1.8l-23.9,84.4l-1.4-0.4c-4.1-1-6.8,0.5-8,4.3l-0.7,2.2c-1.4,4.6,0.1,7.5,4.7,8.7l1.4,0.4l-2.5,9
		l17.7,5l2.9-9.4c1.2,0.2,2.2,0.4,2.9,0.4c1.2,0,2.4-1.7,3.6-5l0.7-2.2c1.4-4.6,0.5-7.2-2.9-7.9l30-104.2l4-5.8l-9-13.3l-23.5,13.3
		c-0.5,0-1-0.1-1.4-0.4l-11.9-7.9l-11.9-19.1l-35.5,13.7c-1.7,1-3,1.9-4,2.9l-21.7,20.9c-0.5,0.5-1.2,1.1-2.2,1.8l-12.7,5.8
		l-90.1,6.8v-1.4c0-4.8-2.2-6.9-6.5-6.1h-2.9c-4.1,0.7-6.2,3-6.2,6.9v1.8l-9.4,0.7l1.1,15.5l10.1-0.7v1.4c0,4.8,2.2,6.9,6.5,6.1h2.9
		c4.1-0.7,6.2-3,6.2-6.9v-1.4l94.5-6.1l3.6-1.4l-10.5,21.6l-57.2,9c-3.1,0.5-4.5,2.4-4,5.8l1.8,16.2l-59.4-34.3l-9.4,18l114,65.4
		c4.6,2.6,9.2,3.9,13.8,3.9c5.1,0,9.6-1.7,13.8-5c1.4-1.2,4.8-4.6,10.1-10.3l-12.7-11.4c-1.7,1.2-4.7,3.4-9,6.5
		c-1.7,0.7-4,0.2-6.9-1.5l-34.7-20.4c0-1.5-0.7-3.3-2.2-5.5L256.2,158.6z M382.5,39.6c0,5.5,2,10.3,6,14.2c4,4,8.7,5.9,14.3,5.9
		c5.8,0,10.6-1.9,14.5-5.8c3.9-3.8,5.8-8.7,5.8-14.4s-1.9-10.6-5.8-14.4c-3.9-3.8-8.7-5.8-14.5-5.8c-5.8,0-10.6,1.9-14.5,5.8
		C384.4,29,382.5,33.8,382.5,39.6z"/>
</g>
</svg>
