<?xml version="1.0" encoding="utf-8"?>
<!-- Generator: Adobe Illustrator 19.0.0, SVG Export Plug-In . SVG Version: 6.00 Build 0)  -->
<svg version="1.1" id="beachcombing_xA0_Image_1_" xmlns="http://www.w3.org/2000/svg" xmlns:xlink="http://www.w3.org/1999/xlink"
	 x="0px" y="0px" viewBox="38 -37.3 575.8 574.3" style="enable-background:new 38 -37.3 575.8 574.3;" xml:space="preserve">
<style type="text/css">
	.st0{fill:#573922;stroke:#2B1C11;stroke-width:30;stroke-miterlimit:10;}
	.st1{display:none;}
	.st2{display:inline;fill:#FFFFFF;}
	.st3{fill:#FFFFFF;}
</style>
<ellipse class="st0" cx="325.5" cy="251" rx="273.5" ry="272.7"/>
<g class="st1">
	<path class="st2" d="M335.2,165.9c-0.5,0-1,0-1.5,0c-1.2-0.5-2.4-0.8-3.5-1.4c-1.6-1-3.1-2.2-4.7-3.3c-1.5-1.1-3.1-1.7-5-1.6
		c-1.3,0-2.6,0-3.8,0c-3.1-0.1-4.9-1.4-5.9-4.4c-0.4-1.1-0.7-2.2-1-3.3c-0.6-2.3-1.7-4.2-3.5-5.7c-5.2-4.5-10.4-9.1-15.5-13.7
		c-5.4-4.9-10.3-10.1-12.5-17.2c0-0.1,1.3,3.9-0.3-0.2c-1.6-4.1,0-3.9,0-5.9c0.9-1.5,1.8-3,2.9-4.4c0.7-0.9,1.1-1.6,0.8-2.7
		c-0.8-3.7,0.2-7,3.3-9.3c1.8-1.4,4-2.3,6.1-3.3c0.7-0.3,1.2-0.6,1.4-1.4c1.1-6.3,4.9-9.7,11.4-10.1c1.1-0.1,1.8-0.5,2.3-1.5
		c3.2-6.7,8.1-9.1,15.3-7.5c0.4,0.1,1.1,0.1,1.4-0.2c2-2.1,7-4.5,7-4.5s2.4-1.6,5.6,0c0.3,0.2,0.6,0.4,0.9,0.5
		c1.7,1.1,3.5,2,5.2,3.2c0.9,0.7,1.6,1,2.8,0.6c3.7-1.1,7.1-0.4,9.9,2.2c1.6,1.4,2.8,3.3,4.1,5c0.5,0.6,0.9,1.1,1.8,0.9
		c3.2-0.7,5.9,0.3,8.3,2.3c2.9,2.4,4.6,5.5,6.1,8.8c0.4,0.8,1.1,1.8,1.8,2.1c5.5,2.1,8,6.4,8.6,11.9c0.2,1.8,0.5,3.4,2.3,4.5
		c0.9,0.6,1.4,2,2.1,3c0.2,0.3,0.5,1.1,0.5,1.1s1.6,2.7,0,5.4c-2,4.2-0.3,0.3-0.3,0.5c-1.1,3.1-2.9,5.9-4.9,8.4
		c-5.7,7.1-12.1,13.6-18.6,19.9c-2.1,2.1-3.7,4.4-4.8,7.1c-0.6,1.5-1.3,3-2,4.4c-1.5,2.6-3.8,3.8-6.8,3.6c-0.9,0-1.8-0.1-2.7-0.1
		c-2.3-0.1-4.3,0.6-6.1,2C341.1,163.3,338.3,164.9,335.2,165.9z"/>
</g>
<g>
	<path class="st3" d="M348.3,26.4l-3.7-3.7c-9.8-7.4-18.6-10.9-26.2-10.6c-20.2,0.8-39.6,6-58.2,15.5c-33.6,17.1-57.9,33.7-73,49.7
		l-5.7,6.1c0,0.6,0.3,1.1,0.8,1.6l9.8-4.5c16.1-7.4,31.4-11.1,45.9-11.1c5.2,0,7.8,1.2,7.8,3.7c0,1.6-1.1,3.7-3.3,6.1l-10.2,11.9
		c-12.8,15-20.5,24-23,27.1c-7.4,10.1-14.5,22.5-21.3,37.3c-1.4,3-2.5,5.7-3.3,8.2c1.4,2.7,2.3,3.7,2.9,2.9
		c16.1-26.2,38.8-52.6,68-79.3C288.1,57.8,319,37.5,348.3,26.4z M469.2,183c0-22.9-7.1-49.7-21.3-80.5c-8.2-18-17.1-33.5-26.6-46.6
		c-5.2-7.1-12-13.6-20.5-19.6c-10.7-7.6-20.6-11.4-29.9-11.4c-15.3,0-39.5,11.4-72.6,34.3c-40.4,28.1-77.2,65-110.3,110.8
		c0.3,1.4,1.2,2.3,2.9,2.9l23.4-17.2c12.3-9,27.3-18.2,45.1-27.5c37.7-19.7,66.4-29.5,86.1-29.5c5.2,0,12.2,2.3,20.9,7l-25,39.8H331
		l-4.9-4.8c-4.9-4.8-8.5-7.7-10.7-8.8l-20.5,6.6l-22.5,13.5l-13.5,7.4l-25.4,19.7l-30.7,3.3l-1.2,1.2l-9.4,23l4.5,0.8l12.4-14.8
		l29.2,3.7l8.5-4.4l18.8-13.3l-10.7,23l-4.9,2.1l-24.6,12.7l-1.6,1.2l-5.3,22.1l4.1,1.6l11.1-16.4l32.8-11.9
		c8.2-8.5,15.3-17.8,21.3-27.9c2.7-4.6,5.3-9.3,7.8-13.9c19.4-5.2,28.7-8.3,27.9-9.4l15.2,20.1l30.3-21.3l22.1,5.7l2.5-8.6l-4.9-1.2
		l-2.9-38.1l8.2,6.1c28.4,21.3,51.6,42.4,69.7,63.1h2.9C468.2,187.5,469.2,186,469.2,183z M349.9,123.1c0-3.5-1.6-6.7-4.9-9.4
		c-3.3-2.7-7-4.1-11.1-4.1c-3.6,0-6.6,1.4-9.2,4.1c-2.6,2.7-3.9,5.9-3.9,9.4c0,8.7,4,13.1,11.9,13.1c1.4,0,2.7-1.4,4.1-4.1
		c0.5-1.1,1.4-2.5,2.5-4.1c1.1,0.3,2.7,0.4,4.9,0.4C348,127.4,349.9,125.6,349.9,123.1z M356.5,157.6l-13.5,7.4l-4.9-9.4l2.9-0.4
		L356.5,157.6z M377.8,153.5l-4.9-1.2l-2.5-5.3l-4.1,3.7l-12.3-3.3l-1.2-3.3l21.3-34l2,1.2L377.8,153.5z"/>
</g>
</svg>
