<?xml version="1.0" encoding="utf-8"?>
<!-- Generator: Adobe Illustrator 19.0.0, SVG Export Plug-In . SVG Version: 6.00 Build 0)  -->
<svg version="1.1" id="beachcombing_xA0_Image_1_" xmlns="http://www.w3.org/2000/svg" xmlns:xlink="http://www.w3.org/1999/xlink"
	 x="0px" y="0px" viewBox="38 -37.3 575.8 574.3" style="enable-background:new 38 -37.3 575.8 574.3;" xml:space="preserve">
<style type="text/css">
	.st0{fill:#573922;stroke:#2B1C11;stroke-width:30;stroke-miterlimit:10;}
	.st1{fill:#FFFFFF;}
</style>
<ellipse class="st0" cx="325.5" cy="251" rx="273.5" ry="272.7"/>
<g>
	<path class="st1" d="M327.5,132l-37.5-25.1c-5.2-27.1-14-40.6-26.5-40.6c-8.7,0-16.8,8-24.4,24l11-27.2c-1.2-1.9-3.7-3.8-7.4-5.8
		c-3.8-2-6.8-3-9.2-3c-0.7,0-2,0.2-3.9,0.7l-21.2,46.6c4,6.1,11.3,9.5,21.9,10.2c-3.1,9.4-4.6,16.5-4.6,21.2c0,4.5,1.5,8.2,4.6,11.3
		l-27.6,89.4l14.5,9.9l32.2-74.9l12,15.2l5.3,19.8L247,239.4l13.8,1.8l10.6-19.8l5.7,21.2l20.8-5.3l-10.6-44.5l29.3-53l4.6,2.1
		L327.5,132z M294,47.9c0-4.7-1.6-8.7-4.8-11.8c-3.2-3.2-7.1-4.8-11.8-4.8c-4.7,0-8.7,1.6-11.8,4.8c-3.2,3.2-4.8,7.1-4.8,11.8
		c0,4.5,1.6,8.3,4.9,11.5c3.3,3.2,7.2,4.8,11.7,4.8c4.5,0,8.4-1.6,11.7-4.8C292.3,56.2,294,52.4,294,47.9z M306,134.8l-22.6,41
		l-1.1-4.6l-19.8-36.7c4.5-8.7,7.8-16.3,9.9-22.6l6.7,11.3L306,134.8z M448.7,121.1l-37.8-26.5c-4-15.8-6.7-25.3-8.1-28.6
		c-5.2-12.2-12-18.4-20.5-18.4c-4.5,0-9,2.2-13.4,6.7l-9.9,12l9.9-23.7c-4.7-5.9-11.8-8.5-21.2-7.8L324,87.1
		c5.2,8,12.2,11.3,21.2,9.9c-3.3,8.5-4.9,16.5-4.9,24c0,6.1,1.6,10.8,4.9,14.1c-0.9,2.1-2.1,4.8-3.5,8.1L313,233.1l15.5,10.6
		l36.7-81.6c5.9,7.3,11.1,13.3,15.5,18l2.5,12.7l-25.1,43.5l15,2.8l14-24l4.9,26.9l23.4-4.6l-10.6-53l31.8-54.1l5.3,2.8L448.7,121.1
		z M424.3,124.3l-24.7,42.3c-4.5-18.4-10.8-33.1-18.8-44.2c3.4-5.4,7.3-12.4,11.9-21.1l3.9,9.5L424.3,124.3z M415.5,28.5
		c0-4.5-1.6-8.4-4.8-11.7c-3.2-3.3-7-4.9-11.5-4.9c-4.7,0-8.7,1.6-11.8,4.8c-3.2,3.2-4.8,7.1-4.8,11.8c0,4.5,1.6,8.4,4.9,11.7
		c3.3,3.3,7.2,4.9,11.7,4.9c4.5,0,8.3-1.6,11.5-4.9C413.9,36.9,415.5,33,415.5,28.5z"/>
</g>
</svg>
