<?xml version="1.0" encoding="utf-8"?>
<!-- Generator: Adobe Illustrator 19.0.0, SVG Export Plug-In . SVG Version: 6.00 Build 0)  -->
<svg version="1.1" id="beachcombing_xA0_Image_1_" xmlns="http://www.w3.org/2000/svg" xmlns:xlink="http://www.w3.org/1999/xlink"
	 x="0px" y="0px" viewBox="38 -37.3 575.8 574.3" style="enable-background:new 38 -37.3 575.8 574.3;" xml:space="preserve">
<style type="text/css">
	.st0{fill:#573922;stroke:#2B1C11;stroke-width:30;stroke-miterlimit:10;}
	.st1{fill:#FFFFFF;}
</style>
<ellipse class="st0" cx="325.5" cy="251" rx="273.5" ry="272.7"/>
<path class="st1" d="M344.5,56.6c0-3.8-1.4-7.1-4.1-9.8c-2.8-2.7-6.1-4.1-9.9-4.1c-3.8,0-7.1,1.4-9.7,4.1c-2.6,2.7-4,6-4,9.8
	s1.3,7,4,9.6c2.6,2.6,5.9,3.9,9.7,3.9c3.8,0,7.1-1.3,9.9-3.9C343.1,63.6,344.5,60.4,344.5,56.6z"/>
<path class="st1" d="M450.8,141.4c-28.6-6.5-56.1-10.7-82.5-12.6c-10.1,16.6-26.3,24.9-48.6,24.9c-3.6,0-7.1-0.4-10.4-1.1l11.2-10.1
	c13.9-0.7,25.6-5.6,35-14.8c-2.4-0.2-7.9-0.5-16.6-0.7l71.3-61.6l6.1,7.6c20.4-17.9,30.6-31.9,30.6-42.2c0-4.1-2.2-6.1-6.5-6.1
	c-10.6,0-25.5,8.1-44.7,24.4l6.1,7.2l-22.7,19L364,82l-22-5.8c-6.3-1.7-12.9-2.5-19.8-2.5c-8.4,0-15.3,1.2-20.5,3.6l-19.5,37.8
	l11.2,15.1c2.2,3.8,5.9,7,11.2,9.4l-8.6,7.6c-8.2-4.8-13.3-11.3-15.5-19.5c-30.5,1.9-61.4,6.5-92.6,13.7c-2.4,0.5-3.6,1.8-3.6,4
	c0,1.4,1.2,2.8,3.6,4c23.8,11.5,49.5,19.7,77.1,24.5l-12.6,10.8l-6.5-7.2c-3.8,3.6-9.3,9-16.2,16.2c-2.9,3.6-6.2,8.3-10.1,14.1
	c-9.9-2.9-17.2-9.4-22-19.5v24.5c6.7,13.9,16.8,20.9,30.3,20.9c13.5,0,23.5-6.8,30.3-20.5c7.2,13.7,17.4,20.5,30.6,20.5
	c13.9,0,24.3-6.8,31-20.5c6.7,13.7,16.8,20.5,30.3,20.5c13.2,0,23.4-6.8,30.6-20.5c6.7,13.7,16.8,20.5,30.3,20.5
	c13.5,0,23.5-7,30.3-20.9v-24.5c-6.7,13.9-16.8,20.9-30.3,20.9c-13.5,0-23.5-7-30.3-20.9c-7.2,13.9-17.4,20.9-30.6,20.9
	c-13.5,0-23.5-7-30.3-20.9c-6.7,13.9-17.1,20.9-31,20.9c-11.1,0-20.2-5.2-27.4-15.5l20.2-17.3c12.3,1.4,24.9,2.2,37.8,2.2
	c48,0,91.9-9.7,131.5-29.2c2.4-1.2,3.6-2.5,3.6-4C454.4,143.2,453.2,141.9,450.8,141.4z M339.8,91.7l18,1.8l-25.2,22L339.8,91.7z
	 M301.6,121.3l-5-9.4l5.4-10.1L301.6,121.3z"/>
</svg>
