<?xml version="1.0" encoding="utf-8"?>
<!-- Generator: Adobe Illustrator 19.0.0, SVG Export Plug-In . SVG Version: 6.00 Build 0)  -->
<svg version="1.1" id="beachcombing_xA0_Image_1_" xmlns="http://www.w3.org/2000/svg" xmlns:xlink="http://www.w3.org/1999/xlink"
	 x="0px" y="0px" viewBox="38 -37.3 575.8 574.3" style="enable-background:new 38 -37.3 575.8 574.3;" xml:space="preserve">
<style type="text/css">
	.st0{fill:#E34930;stroke:#854D27;stroke-width:30;stroke-miterlimit:10;}
	.st1{display:none;}
	.st2{display:inline;fill:#FFFFFF;}
	.st3{fill:#FFFFFF;}
</style>
<ellipse class="st0" cx="326.3" cy="249.4" rx="273.5" ry="272.7"/>
<g id="Shape">
	<g class="st1">
		<path class="st2" d="M339.3,163.1c-0.7,0-1.3,0-2,0c-1.5-0.6-3.2-1.1-4.6-1.9c-2.1-1.3-4.1-2.9-6.1-4.4c-2-1.5-4.1-2.3-6.6-2.2
			c-1.7,0.1-3.4,0-5,0c-4.1-0.1-6.4-1.9-7.7-5.8c-0.5-1.4-0.9-2.9-1.3-4.3c-0.7-3-2.3-5.5-4.7-7.6c-6.8-6-13.6-12-20.3-18.1
			c-7.1-6.4-13.5-13.3-16.4-22.7c0-0.1,1.7,5.1-0.3-0.3c-2.1-5.4,0-5.2,0-7.7c1.2-1.9,2.3-4,3.8-5.8c0.9-1.1,1.4-2.1,1.1-3.6
			c-1-4.9,0.3-9.2,4.3-12.3c2.4-1.8,5.3-3,8-4.4c0.9-0.4,1.6-0.8,1.8-1.9c1.5-8.3,6.5-12.8,15-13.4c1.4-0.1,2.4-0.6,3-2
			c4.1-8.8,10.6-12,20.1-9.9c0.6,0.1,1.5,0.1,1.8-0.3c2.6-2.8,9.2-5.9,9.2-5.9s3.1-2.2,7.4,0c0.4,0.2,0.8,0.5,1.2,0.7
			c2.3,1.4,4.7,2.7,6.8,4.3c1.2,0.9,2.2,1.3,3.6,0.8c4.8-1.5,9.3-0.5,13,2.9c2.1,1.9,3.7,4.3,5.4,6.6c0.6,0.8,1.2,1.4,2.3,1.2
			c4.1-0.9,7.7,0.4,10.9,3c3.8,3.1,6.1,7.2,8,11.7c0.5,1.1,1.4,2.3,2.4,2.7c7.2,2.8,10.5,8.4,11.3,15.7c0.3,2.4,0.7,4.5,3,6
			c1.2,0.8,1.9,2.6,2.7,3.9c0.3,0.5,0.7,1.4,0.7,1.4s2.1,3.6,0,7.1c-2.7,5.6-0.3,0.4-0.4,0.7c-1.5,4.1-3.8,7.7-6.5,11.1
			c-7.4,9.4-15.8,17.9-24.4,26.2c-2.8,2.7-4.9,5.8-6.3,9.4c-0.8,2-1.7,3.9-2.7,5.8c-1.9,3.5-5,5-8.9,4.8c-1.2-0.1-2.4-0.1-3.5-0.2
			c-3-0.1-5.7,0.8-8,2.6C347,159.6,343.4,161.8,339.3,163.1z"/>
	</g>
	<path class="st3" d="M147.2,141c1-0.7,2.2-1.2,3.1-2c45.8-37.6,91.6-75.2,137.4-112.8c11-9,21.9-18,32.8-27.1
		c4.4-3.7,4.4-3.7,8.8-0.1C384.3,44.1,439.1,89.2,494,134.3c2.8,2.3,5.6,4.6,9.2,7.6c-1.7,0.3-2.6,0.6-3.5,0.6
		c-9.1,0-18.3,0.3-27.4-0.2c-3.1-0.2-7.2-1.6-8.9-3.9c-9.7-12.9-22.4-21.4-37.5-26.4c-9.4-3.1-16.1-10-22.3-17.1
		c-4.2-4.7-8.6-6.3-14.4-3.9c-2.5,1-4.3,0.6-5.8-1.8c-1.6-2.6-3.9-4.7-5.3-7.4c-3.2-6.5-8.4-10.4-15.1-13
		c-7.5-2.9-15.1-5.9-21.3-11.4c-1.3-1.1-3-1.9-4.6-2.6c-7.9-3.8-12-3-17.6,3.7c-8.7,10.4-17.4,20.8-29.2,28
		c-3.8,2.3-7.7,4.3-11.5,6.7c-2.8,1.8-4.8,1.6-7.1-1.1c-2.2-2.6-4.7-5.1-7.6-6.8c-2-1.2-5-1.7-7.4-1.3c-8,1.3-13.1,7.3-18.5,12.6
		c-6.3,6.2-12.5,12.6-18.7,18.9c-7.1,7.3-15.9,12-24.8,16.6c-5.7,3-11.3,6.2-17,9.3c-0.9,0.5-1.8,1.1-2.8,1.1c-9,0.1-17.9,0-26.9,0
		C147.8,142,147.5,141.5,147.2,141z"/>
	<path class="st3" d="M392.6,213.2c-2.9-1.8-3.3-3.8-3.3-6.5c0-17.5,0-34.9,0-52.4c0-9.4,0-9.4-9.6-9.3c-5.5,0-5.5,0-5.5,5.7
		c0,7.1,0,14.1,0,21.7c-1.5-0.3-2.3-0.3-3-0.5c-16.2-6-34.8,5.5-33.2,27.3c0.7,10.1,4.4,19,14.8,22.8c9,3.3,17.2,2,23.5-6
		c3.9,6.7,7.2,8.3,14.6,6.8c1.2-0.2,3.1-1.5,3.1-2.3C394.1,218,394.2,214.1,392.6,213.2z M373.8,202.9c-1.3,4.8-5,7.4-9.7,7.5
		c-4.8,0-8.7-2.5-9.8-7.3c-0.8-3.5-1.2-7.3-0.5-10.8c1.7-8.4,12.4-12.3,19.3-7.3c0.8,0.6,1.2,1.8,1.3,2.8c0.2,2.1,0.1,4.3,0.1,6.4
		c0.1,0,0.2,0,0.3,0C374.5,197.2,374.5,200.2,373.8,202.9z"/>
	<path class="st3" d="M148.5,171.8c5.5,0,10.4-0.2,15.3,0.1c0.9,0.1,1.9,1.9,2.3,3.1c3.6,9.2,7,18.5,10.5,27.7
		c0.4,1.1,0.9,2.2,1.7,4.3c1.7-5.5,3.1-10,4.6-14.6c2-6,4.2-12,6.2-18c0.7-2.1,1.9-3.1,4.2-3c2.7,0.1,5.3,0,8,0.1
		c4.4,0,4.8,0.6,3.2,4.6c-4.2,10.5-8.3,20.9-12.5,31.4c-2.9,7.3-5.7,14.6-8.8,21.8c-1.4,3.4-3,6.7-4.9,9.8
		c-5.6,8.9-14.3,11.6-24,7.6c-0.9-0.4-1.8-1.9-1.9-3c-0.2-1.4,0.3-3,0.5-4.5c0.3-2.4,1.2-3.2,3.8-2.6c5.4,1.3,8.2-0.2,10.9-5.2
		c2.7-5.1,3.7-9.8,0.8-15.7c-6.5-12.7-12-26-17.9-39C149.8,175.6,149.3,174,148.5,171.8z"/>
	<path class="st3" d="M238.1,169.8c-16.3-0.5-28.3,9.9-28.8,25.2c-0.6,16.2,10.3,27.8,26.6,28.3c16,0.5,27.4-10.3,28-26.5
		C264.5,181.9,253.4,170.3,238.1,169.8z M242.4,208.8c-8.5,4.9-17.8-1.5-17.8-12.2c-0.1-5.3,1.7-9.8,6.6-12.3
		c4.1-2.1,8.3-2,12.2,0.8C251.1,190.3,250.5,204.2,242.4,208.8z"/>
	<path class="st3" d="M291.6,175.6c2.6-2.9,7.1-4.4,12-5c12.4-1.5,21.5,5.1,22.5,17.5c0.9,10.6,0.5,21.2,0.5,31.8
		c0,0.9-1.7,1.9-2.6,2.8c-0.1,0.1-0.5,0-0.7,0c-11.9,0.6-11.9,0.6-11.9-11.4c0-6.1,0-12.1,0-18.2c0-6.5-4-11-9.6-11
		c-5.8,0-10.4,4.6-10.5,10.8c-0.1,8.6-0.1,17.2,0,25.8c0,2.8-0.6,4-3.8,4.1c-11.6,0.1-11.6,0.2-11.6-11.4c0-8.5,0-17,0-25.4
		c0-2.4-0.6-4-3-5.5c-1.3-0.8-1.4-4-1.6-6.2c-0.1-0.9,1.1-2.8,1.6-2.8c4.6,0.1,9.2,0.2,13.8,0.9
		C288.3,172.6,289.8,174.3,291.6,175.6z"/>
	<path class="st3" d="M416.5,200c0,5.9,3.5,9.8,9.5,11c6.2,1.2,12.4,0.6,18.4-1.4c3.3-1.1,4.5-0.3,4.9,3.1c0.8,7,1,7-5.9,9
		c-7.8,2.3-15.7,2.8-23.6,0.7c-12.5-3.4-20.1-14.6-19.1-27.6c1.2-14.1,10-23.3,23.9-24.5c3.4-0.3,6.9-0.1,10.2,0.5
		c15.1,3.1,18.3,15.4,16.3,26.7c-0.4,2.5-2.1,2.5-3.9,2.5c-8.9,0-17.7,0-26.6,0C419.2,200,417.9,200,416.5,200z M416.2,190.4
		c6.5,0,12.2,0.1,18,0c1.3,0,2.5-0.7,3.8-1c-0.4-1.4-0.5-3.1-1.3-4.2c-3.1-4.1-7.6-4.1-12.1-3.3
		C420.5,182.7,417.6,185.2,416.2,190.4z"/>
	<path class="st3" d="M478.9,176.8c6-7.2,13.3-8.1,21.5-5.5c2.8,0.9,3.8,2.6,2.9,5.5c-0.9,2.7-1.6,5.5-2.4,8.5
		c-2-0.7-3.6-1.4-5.3-1.8c-9.2-2.4-16,2.5-16.2,12c-0.2,7.7-0.2,15.4,0,23.2c0.1,3.2-1,4.1-4.1,4.1c-10.8,0-10.8,0.1-10.8-10.7
		c0-8.7,0-17.5,0-26.2c0-2.6-0.2-4.9-3.6-5.8c-0.9-0.3-1.5-3.1-1.5-4.8c0-1.4,0.6-3.5,1.7-4.1C466.4,168.3,475,171,478.9,176.8z"/>
</g>
</svg>
