<?xml version="1.0" encoding="utf-8"?>
<!-- Generator: Adobe Illustrator 19.0.0, SVG Export Plug-In . SVG Version: 6.00 Build 0)  -->
<svg version="1.1" id="beachcombing_xA0_Image_1_" xmlns="http://www.w3.org/2000/svg" xmlns:xlink="http://www.w3.org/1999/xlink"
	 x="0px" y="0px" viewBox="38 -37.3 575.8 574.3" style="enable-background:new 38 -37.3 575.8 574.3;" xml:space="preserve">
<style type="text/css">
	.st0{fill:#573922;stroke:#2B1C11;stroke-width:30;stroke-miterlimit:10;}
	.st1{fill:#FFFFFF;}
</style>
<ellipse class="st0" cx="325.5" cy="251" rx="273.5" ry="272.7"/>
<g>
	<path class="st1" d="M439.5,94.1L328,19.7l-42.8,28.8V22.2h-21.6v39.9l-47.1,32h24.1v144.6h174.8V94.1H439.5z M370.8,116.4h-26.3
		v-2.5c0-3.6-1.6-7-4.7-10.2c-3.2-3.2-7.2-4.9-12.1-4.9c-10.1,0-15.1,4.6-15.1,13.7c0,5.5,4.9,10,14.6,13.3
		c14.8,5.3,23.8,9.1,27.2,11.5c9.8,6.7,14.6,16.8,14.6,30.2c0,9.1-2.8,17.1-8.5,23.9c-5.6,6.8-12.9,11.5-21.8,13.8v14.4h-23.4v-14.5
		c-8.9-2.4-16.1-7.1-21.8-13.9c-5.6-6.9-8.5-14.9-8.5-24.1h26.3c0,3.9,1.5,7.5,4.4,10.9c3,3.3,6.8,5,11.6,5
		c10.2,0,15.3-4.8,15.3-14.4c0-6.7-4.9-11.9-14.7-15.5c-16.5-6.5-25.5-10.2-27-11.1c-9.8-6-14.7-15.5-14.7-28.4
		c0-19.4,9.7-31.6,29.1-36.7V62.1h23.4v14.4c9.1,2.2,16.7,6.7,22.8,13.5c6.1,6.8,9.2,14.9,9.2,24.3L370.8,116.4L370.8,116.4z"/>
</g>
</svg>
