<?xml version="1.0" encoding="utf-8"?>
<!-- Generator: Adobe Illustrator 19.0.0, SVG Export Plug-In . SVG Version: 6.00 Build 0)  -->
<svg version="1.1" id="beachcombing_xA0_Image_1_" xmlns="http://www.w3.org/2000/svg" xmlns:xlink="http://www.w3.org/1999/xlink"
	 x="0px" y="0px" viewBox="38 -37.3 575.8 574.3" style="enable-background:new 38 -37.3 575.8 574.3;" xml:space="preserve">
<style type="text/css">
	.st0{fill:#573922;stroke:#2B1C11;stroke-width:30;stroke-miterlimit:10;}
	.st1{fill:#FFFFFF;}
</style>
<ellipse class="st0" cx="325.5" cy="251" rx="273.5" ry="272.7"/>
<g>
	<path class="st1" d="M433.5,220V44c0-5.4-1.9-10-5.8-13.8c-3.9-3.8-8.5-5.8-13.9-5.8H237.6c-5.4,0-10,1.9-13.9,5.8
		C219.9,34,218,38.6,218,44v176c0,5.4,1.9,10,5.8,13.9c3.9,3.8,8.5,5.8,13.9,5.8h176.2c5.4,0,10-1.9,13.9-5.8
		C431.6,230,433.5,225.4,433.5,220z M422.6,180.5c-3.3-4.4-5.6-6.6-6.9-6.6c-1.5,0-4.4,3-8.6,8.9l-5.5,7.8c-1.2,1.5-2.7,4.7-4.6,9.5
		L386,184.3c-0.6-1.2-1.3-1.7-2.3-1.7c-2.5,0-5.7,9.1-9.5,27.4c-3.1,9.6-7,14.4-11.8,14.4c-1.7,0-4.2-1.2-7.5-3.7l-4.9-3.7
		c-0.4,0-2.4,1.8-6.1,5.4c-6.1,4.9-10.4,7.3-12.7,7.3c-0.8,0-2-0.5-3.7-1.5c-1.7-1-2.9-1.6-3.5-1.8c-5.8-1.8-9-2.8-9.8-2.8
		c-1.2,0-2.3,0.4-3.5,1.2l-7.8,4.9c-1,0.6-1.7,0.9-2.3,0.9c-1.3,0-3.7-1-7.1-3c-3.4-2-5.4-3-6.2-3c-0.6,0-1.6,0.9-3.2,2.6
		c-1.5,1.7-2.8,2.6-3.7,2.6c-0.6,0-1.4,0-2.6,0c-1.2,0-2,0-2.6,0c-0.8,0-1.8,0.2-3.2,0.7c-1.3,0.5-2.3,0.7-2.9,0.7
		c-0.8,0-2.4-1.2-5-3.5c-2.6-2.3-4.3-3.5-5-3.5c-1.3,0-3.3,0.7-5.8,2c-2.5,1.3-4.2,2.1-5.2,2.3l-5.8,1.2c-9-0.4-13.5-4.9-13.5-13.5
		V47.7h16.7c1.7,2.3,4.3,3.5,7.8,3.5c1.3,0,3.4-0.2,6.2-0.6c2.8-0.4,4.8-0.6,6.2-0.6c4.2,0,7.5,2.6,9.8,7.8c2.5,8,4.9,12,7.2,12
		c2.5,0,3.8-1.2,4-3.5c1.2-9.6,2.3-16.1,3.5-19.6c2.7-7.3,7.4-10.9,14.1-10.9c4,0,6.6,2.8,7.8,8.4l0.6,2.9c0.4,1.9,1.2,2.9,2.3,2.9
		c3.1,0,4.9-1.6,5.5-4.9c1.2-6.1,4.2-9.2,9.2-9.2c5.6,0,10,7.3,13.3,21.9c1.7,7.9,3.3,11.8,4.6,11.8c0.8,0,2-3.9,3.7-11.8
		c2.7-12.3,4.9-18.4,6.6-18.4c1.3,0,2.3,1.1,2.9,3.2l3.2,10.4c0.8,2.5,2.3,3.7,4.6,3.7c1.9,0,3.9-3.6,6.1-10.9
		c0.8-2.3,2.3-3.5,4.6-3.5h6.6c7.9,0,12.9,2.7,15,8.1c1.7,4.4,3.5,6.6,5.2,6.6c0.8,0,1.6-0.3,2.6-0.9l6.1-3.7l7.8-4.6L422.6,180.5
		L422.6,180.5z M377.6,180.8l-27.1-22.2c-4-3.3-8.2-7.9-12.4-13.8c-1.5-2.7-4.2-6.4-8.1-11.2c-3.8-3.8-13.5-5.8-29.1-5.8
		c-13.6,0-26.4,1.8-38.3,5.5c-6.9,2.1-10.4,6.9-10.4,14.4c0,7.7,5.9,16.5,17.6,26.5h-36l4.3,11.8h46.7c1.5,1.3,2.3,2.4,2.3,3.2
		c0,0.8-1,1.2-2.9,1.2h-49.6l4.6,12.7h57.6c8.8,0,13.3-3.4,13.3-10.2c0-2.9-1.2-5.6-3.5-8.1l-21.9-23.8l2.9-0.3c3.1,0,10.4-1,21.9-3
		l6.3-1.1l14.4,20.2l34.3,23.9l6.6-5.5l-22.5-21.3l22.5,13.5L377.6,180.8z M369,114.6l-7.8-6.3l2-8.1l-7.2-0.6
		c-4.6-3.8-9.7-5.8-15.3-5.8c-9,0-14.4,5.3-16.1,15.9L369,114.6z M359.7,116.7l-34.8-4.4c-0.2,0.6-0.3,1.5-0.3,2.9
		c0,4.8,1.7,8.9,5.2,12.4c3.5,3.4,7.6,5.2,12.4,5.2c4.6,0,8.6-1.5,11.9-4.6C357.5,125.1,359.3,121.3,359.7,116.7z M418.5,91.5
		l-53,11.8l-0.9,4.3l52.4,14.7L418.5,91.5z"/>
</g>
</svg>
