<?xml version="1.0" encoding="utf-8"?>
<!-- Generator: Adobe Illustrator 19.0.0, SVG Export Plug-In . SVG Version: 6.00 Build 0)  -->
<svg version="1.1" id="beachcombing_xA0_Image_1_" xmlns="http://www.w3.org/2000/svg" xmlns:xlink="http://www.w3.org/1999/xlink"
	 x="0px" y="0px" viewBox="38 -37.3 575.8 574.3" style="enable-background:new 38 -37.3 575.8 574.3;" xml:space="preserve">
<style type="text/css">
	.st0{fill:#2A82C1;stroke:#133647;stroke-width:30;stroke-miterlimit:10;}
	.st1{fill:#FFFFFF;}
</style>
<ellipse class="st0" cx="325.5" cy="251" rx="273.5" ry="272.7"/>
<g>
	<path class="st1" d="M397.5,115.8l-40.5-28c-4.5-19.2-8.8-32.2-12.9-39.2c-4.1-7-9.8-10.5-17.1-10.5c-5.5,0-10.6,2.8-15.4,8.5
		c-2,2.5-5.1,6.1-9.4,11l10.1-24.8c-3.8-5.4-9.9-7.8-18.4-7l-25.1,55.4c5,7.5,11.1,10.6,18.4,9.4c-3.5,9.7-5.3,18.2-5.3,25.5
		c0,6,1.7,11,5.3,15c-0.8,1.5-1.9,4.4-3.4,8.6l-30.4,95.1l16.5,11.2l39-86.6c6.2,7.8,11.7,14.1,16.5,19.1l3.4,18.4l-24.8,42
		l13.4,2.3l14.9-25.5l4.8,28.5l25-4.9L351,182.8l33.4-57.4l5.6,3L397.5,115.8z M373.5,120.2l-27,46.9c-5-21-12-37.6-21-49.9
		c4.5-7.5,8.5-15,12-22.5l4.5,10.1L373.5,120.2z M362.2,17.6c0-4.9-1.7-9.1-5.1-12.4c-3.4-3.3-7.6-5-12.6-5c-4.8,0-8.9,1.7-12.4,5
		c-3.5,3.3-5.3,7.5-5.3,12.4c0,4.7,1.7,8.8,5.3,12.2c3.5,3.5,7.6,5.2,12.4,5.2c5,0,9.2-1.7,12.6-5.2
		C360.6,26.4,362.2,22.3,362.2,17.6z"/>
</g>
</svg>
