<?xml version="1.0" encoding="utf-8"?>
<!-- Generator: Adobe Illustrator 21.0.2, SVG Export Plug-In . SVG Version: 6.00 Build 0)  -->
<svg version="1.1" id="beachcombing_xA0_Image_1_" xmlns="http://www.w3.org/2000/svg" xmlns:xlink="http://www.w3.org/1999/xlink"
	 x="0px" y="0px" viewBox="0 0 635.8 634.2" style="enable-background:new 0 0 635.8 634.2;" xml:space="preserve">
<style type="text/css">
	.st0{fill:#FFFF00;}
	.st1{fill:#573922;stroke:#2B1C11;stroke-width:30;stroke-miterlimit:10;}
	.st2{fill:#FFFFFF;}
	.st3{fill:#573922;}
</style>
<ellipse class="st0" cx="318.7" cy="317.7" rx="318.7" ry="317.7"/>
<ellipse class="st1" cx="317.9" cy="317.9" rx="273.5" ry="272.7"/>
<polygon class="st2" points="249.9,91.9 275.3,91.9 275.3,117.3 318.5,91.9 423.6,160.5 404.7,160.5 404.7,309.8 228.8,309.8 
	228.8,158.3 212.2,157.2 251,130.6 "/>
<g>
	<path class="st3" d="M330.1,277v15.8c0,1.6-1.3,3-3,3h-22.8c-1.6,0-3-1.3-3-3v-16.4c-12-2.9-23.1-9-30.8-17.1l-4.4-4.7
		c-0.5-0.6-0.8-1.3-0.8-2.1c0-0.8,0.4-1.5,0.9-2.1l16.6-15.7c1.2-1.1,3.1-1.1,4.2,0.1l4.4,4.7c5.6,6,15.6,10,24.9,10
		c7.3,0,19.7-1.9,19.7-9.2c0.1-6.3-2.7-8.8-21.8-14.6c-16.4-5-43.8-13.3-43.8-44.2c0-17.3,11.8-31.1,30.9-36.3v-17c0-1.6,1.3-3,3-3
		h22.8c1.6,0,3,1.3,3,3v15.4c9.9,1.5,19.5,4.9,26.7,9.5l5.4,3.5c1.4,0.9,1.8,2.7,0.9,4.1L350.7,180c-0.9,1.4-2.7,1.8-4.1,0.9
		l-5.4-3.5c-5.1-3.3-14.1-5.7-21.4-5.7c-7.7,0-20.6,2.1-20.6,10c0,7.4,3.1,10.5,23.4,16.6c16.9,5.1,42.5,12.9,42.2,42.2
		C364.8,259.1,351.5,272.9,330.1,277L330.1,277z M330.1,277"/>
</g>
</svg>
