<?xml version="1.0" encoding="utf-8"?>
<!-- Generator: Adobe Illustrator 19.0.0, SVG Export Plug-In . SVG Version: 6.00 Build 0)  -->
<svg version="1.1" id="beachcombing_xA0_Image_1_" xmlns="http://www.w3.org/2000/svg" xmlns:xlink="http://www.w3.org/1999/xlink"
	 x="0px" y="0px" viewBox="38 -37.3 575.8 574.3" style="enable-background:new 38 -37.3 575.8 574.3;" xml:space="preserve">
<style type="text/css">
	.st0{fill:#573922;stroke:#2B1C11;stroke-width:30;stroke-miterlimit:10;}
	.st1{display:none;}
	.st2{display:inline;fill:#FFFFFF;}
	.st3{fill:#FFFFFF;}
</style>
<ellipse class="st0" cx="327.3" cy="249.4" rx="273.5" ry="272.7"/>
<g class="st1">
	<path class="st2" d="M487.2,16.7c-0.5,0-1,0-1.5,0c-1.2-0.5-2.4-0.8-3.5-1.4c-1.6-1-3.1-2.2-4.7-3.3c-1.5-1.1-3.1-1.7-5-1.6
		c-1.3,0-2.6,0-3.8,0c-3.1-0.1-4.9-1.4-5.9-4.4c-0.4-1.1-0.7-2.2-1-3.3c-0.6-2.3-1.7-4.2-3.5-5.7c-5.2-4.5-10.4-9.1-15.5-13.7
		c-5.4-4.9-10.3-10.1-12.5-17.2c0-0.1,1.3,3.9-0.3-0.2c-1.6-4.1,0-3.9,0-5.9c0.9-1.5,1.8-3,2.9-4.4c0.7-0.9,1.1-1.6,0.8-2.7
		c-0.8-3.7,0.2-7,3.3-9.3c1.8-1.4,4-2.3,6.1-3.3c0.7-0.3,1.2-0.6,1.4-1.4c1.1-6.3,4.9-9.7,11.4-10.1c1.1-0.1,1.8-0.5,2.3-1.5
		c3.2-6.7,8.1-9.1,15.3-7.5c0.4,0.1,1.1,0.1,1.4-0.2c2-2.1,7-4.5,7-4.5s2.4-1.6,5.6,0c0.3,0.2,0.6,0.4,0.9,0.5
		c1.7,1.1,3.5,2,5.2,3.2c0.9,0.7,1.6,1,2.8,0.6c3.7-1.1,7.1-0.4,9.9,2.2c1.6,1.4,2.8,3.3,4.1,5c0.5,0.6,0.9,1.1,1.8,0.9
		c3.2-0.7,5.9,0.3,8.3,2.3c2.9,2.4,4.6,5.5,6.1,8.8c0.4,0.8,1.1,1.8,1.8,2.1c5.5,2.1,8,6.4,8.6,11.9c0.2,1.8,0.5,3.4,2.3,4.5
		c0.9,0.6,1.4,2,2.1,3c0.2,0.3,0.5,1.1,0.5,1.1s1.6,2.7,0,5.4c-2,4.2-0.3,0.3-0.3,0.5c-1.1,3.1-2.9,5.9-4.9,8.4
		c-5.7,7.1-12.1,13.6-18.6,19.9c-2.1,2.1-3.7,4.4-4.8,7.1c-0.6,1.5-1.3,3-2,4.4c-1.5,2.6-3.8,3.8-6.8,3.6c-0.9,0-1.8-0.1-2.7-0.1
		c-2.3-0.1-4.3,0.6-6.1,2C493.1,14.1,490.3,15.7,487.2,16.7z"/>
</g>
<g>
	<path class="st3" d="M450.9,218.6l-41.7-30l8.5-15.4c2.4-4.3,3.6-9.4,3.6-15.4c0-14.8-5.8-21.9-17.4-21.1l-49.7,3.2l-35.6-23.9
		c-8.4-1.6-16.3-2.4-23.8-2.4c-4.6,0-8.1,0.1-10.5,0.4c-0.5-12.9-6.2-34.4-17-64.5l-3.2-8.5l-4-4.4L223,39.9v7.3l23.9,7.3
		c3.2,1.1,5.1,3.6,5.7,7.7l3.6,25c1.9,13.2,5.1,28.4,9.7,45.6l-21.5-10.1l-14.6,11.8l26.2,12.2l-24.5,14.3l-36.5-18l-12.1,9.7
		l174.4,83.9c10,4.8,19.7,7.3,29.1,7.3c13.5,0,25.4-5.7,35.6-17.2l13.9,6.7L450.9,218.6z M408.1,219.3c-7,7.1-15,10.7-23.9,10.7
		c-5.4,0-11.8-1.8-19.1-5.3L246.3,167l24.4-13.9L408.1,219.3z M388.2,174.8l-4.9,14.2l-26.3-13L388.2,174.8z M470.4,147.9
		c0-5.9-2-10.8-6.1-14.8c-4-4-9-6-15-6c-5.9,0-10.9,2-15,6c-4,4-6.1,9-6.1,14.8c0,5.6,2,10.5,6.1,14.6c4,4.1,9,6.2,15,6.2
		c5.9,0,10.9-2.1,15-6.2C468.4,158.4,470.4,153.5,470.4,147.9z"/>
</g>
</svg>
