<?xml version="1.0" encoding="utf-8"?>
<!-- Generator: Adobe Illustrator 19.0.0, SVG Export Plug-In . SVG Version: 6.00 Build 0)  -->
<svg version="1.1" id="beachcombing_xA0_Image_1_" xmlns="http://www.w3.org/2000/svg" xmlns:xlink="http://www.w3.org/1999/xlink"
	 x="0px" y="0px" viewBox="38 -37.3 575.8 574.3" style="enable-background:new 38 -37.3 575.8 574.3;" xml:space="preserve">
<style type="text/css">
	.st0{fill:#573922;stroke:#2B1C11;stroke-width:30;stroke-miterlimit:10;}
	.st1{fill:#FFFFFF;}
</style>
<ellipse class="st0" cx="325.5" cy="251" rx="273.5" ry="272.7"/>
<g>
	<path class="st1" d="M526.2,124.9l-109.5,4.7L390,61.5l-175.3,7.5l5.3,22.6l55.1-2.4l14.2,44.4L123,140.2l13.6,80
		c1.6,0.4,3.9,0.6,7.1,0.6c18.5,0,32.2-9.1,40.9-27.2c9.5,18.2,23.1,27.2,40.9,27.2c18.9,0,33-9.1,42-27.2
		c8.7,18.2,22.3,27.2,40.9,27.2c18.2,0,31.8-9.1,40.9-27.2c8.7,18.2,22.1,27.2,40.3,27.2c18.5,0,32.2-9.1,40.9-27.2
		c8.3,16.2,20.7,25.3,37.3,27.2L526.2,124.9z M390,129.6l-59.8,2.4l-15.4-42.6l58-3.6L390,129.6z"/>
</g>
</svg>
