<?xml version="1.0" encoding="utf-8"?>
<!-- Generator: Adobe Illustrator 19.0.0, SVG Export Plug-In . SVG Version: 6.00 Build 0)  -->
<svg version="1.1" id="beachcombing_xA0_Image_1_" xmlns="http://www.w3.org/2000/svg" xmlns:xlink="http://www.w3.org/1999/xlink"
	 x="0px" y="0px" viewBox="38 -37.3 575.8 574.3" style="enable-background:new 38 -37.3 575.8 574.3;" xml:space="preserve">
<style type="text/css">
	.st0{fill:#573922;stroke:#2B1C11;stroke-width:30;stroke-miterlimit:10;}
	.st1{display:none;}
	.st2{display:inline;fill:#FFFFFF;}
	.st3{fill:#FFFFFF;}
</style>
<ellipse class="st0" cx="325.5" cy="251" rx="273.5" ry="272.7"/>
<g class="st1">
	<path class="st2" d="M335.2,165.9c-0.5,0-1,0-1.5,0c-1.2-0.5-2.4-0.8-3.5-1.4c-1.6-1-3.1-2.2-4.7-3.3c-1.5-1.1-3.1-1.7-5-1.6
		c-1.3,0-2.6,0-3.8,0c-3.1-0.1-4.9-1.4-5.9-4.4c-0.4-1.1-0.7-2.2-1-3.3c-0.6-2.3-1.7-4.2-3.5-5.7c-5.2-4.5-10.4-9.1-15.5-13.7
		c-5.4-4.9-10.3-10.1-12.5-17.2c0-0.1,1.3,3.9-0.3-0.2c-1.6-4.1,0-3.9,0-5.9c0.9-1.5,1.8-3,2.9-4.4c0.7-0.9,1.1-1.6,0.8-2.7
		c-0.8-3.7,0.2-7,3.3-9.3c1.8-1.4,4-2.3,6.1-3.3c0.7-0.3,1.2-0.6,1.4-1.4c1.1-6.3,4.9-9.7,11.4-10.1c1.1-0.1,1.8-0.5,2.3-1.5
		c3.2-6.7,8.1-9.1,15.3-7.5c0.4,0.1,1.1,0.1,1.4-0.2c2-2.1,7-4.5,7-4.5s2.4-1.6,5.6,0c0.3,0.2,0.6,0.4,0.9,0.5
		c1.7,1.1,3.5,2,5.2,3.2c0.9,0.7,1.6,1,2.8,0.6c3.7-1.1,7.1-0.4,9.9,2.2c1.6,1.4,2.8,3.3,4.1,5c0.5,0.6,0.9,1.1,1.8,0.9
		c3.2-0.7,5.9,0.3,8.3,2.3c2.9,2.4,4.6,5.5,6.1,8.8c0.4,0.8,1.1,1.8,1.8,2.1c5.5,2.1,8,6.4,8.6,11.9c0.2,1.8,0.5,3.4,2.3,4.5
		c0.9,0.6,1.4,2,2.1,3c0.2,0.3,0.5,1.1,0.5,1.1s1.6,2.7,0,5.4c-2,4.2-0.3,0.3-0.3,0.5c-1.1,3.1-2.9,5.9-4.9,8.4
		c-5.7,7.1-12.1,13.6-18.6,19.9c-2.1,2.1-3.7,4.4-4.8,7.1c-0.6,1.5-1.3,3-2,4.4c-1.5,2.6-3.8,3.8-6.8,3.6c-0.9,0-1.8-0.1-2.7-0.1
		c-2.3-0.1-4.3,0.6-6.1,2C341.1,163.3,338.3,164.9,335.2,165.9z"/>
</g>
<g>
	<path class="st3" d="M256,195.3l1.2,20.2c0.2,1.7,0.8,3.9,1.9,6.5c1.1,2.6,2.5,5.5,4.5,8.8l5.5,9c-2.3,1-4.3,1.6-5.9,2
		c-1.6,0.4-3,0.6-4.2,0.6c-5.4,0-9.8-0.6-13.1-1.7c-3.4-1.2-5.9-2.9-7.7-5.2l0.9-5.2c0-0.8-0.4-1.7-1.3-2.7
		c-0.9-1.1-2.1-2.3-3.6-3.6l1.2-20.5c0.2-1.5,0.2-3.5,0.1-5.9c-0.1-2.4-0.3-5.1-0.7-8.2c-0.4-3.1-0.6-5.7-0.7-7.8
		c-0.1-2.1-0.1-3.8-0.1-5.2c0-2.5,0.2-4.7,0.7-6.6c0.5-1.9,1.3-3.7,2.5-5.2c1.2-2.1,2-4,2.5-5.6c0.5-1.6,0.9-3.1,1.3-4.5
		c-1.7,5.2-4.9,9.1-9.4,11.6c-4.5,2.5-10.3,3.8-17.2,3.8c3.7-5.4,6.4-10.6,8.1-15.7c1.7-5.1,2.6-9.9,2.6-14.3c0-1.2-0.1-2.4-0.1-3.8
		c-0.1-1.3-0.2-3.1-0.4-5.2c-0.2-1.9-0.3-3.6-0.3-4.9c0-1.3,0-2.6,0-3.8c0-6.4,1.2-12,3.5-16.9c2.3-4.9,5.7-9.1,10.1-12.6
		c4-2.9,8.6-5.1,13.6-6.5c5-1.4,10.5-2.2,16.5-2.2c2.5,0,5.8,0.3,9.8,1c4,0.7,8.8,1.7,14.2,3c5,1.3,9.6,2.3,13.7,2.9
		c4.1,0.6,7.6,0.9,10.3,0.9c4.8,0,11.3-1,19.4-3c8.1-2,17.8-5.1,29.2-9.1c8.9-3.1,17.8-5.6,26.9-7.7c9-2,18.2-3.5,27.4-4.5
		l11.6-13.6H440L432.5,72l15.3,41.9c0.4,1.2,0.7,2.5,0.9,3.9c0.2,1.4,0.3,2.9,0.3,4.5c0,1.3-0.3,2.6-0.9,3.9
		c-0.6,1.3-1.3,2.5-2.3,3.6c-1,1.2-2,2-3.2,2.5c-1.2,0.5-2.3,0.7-3.5,0.7c-1.3,0-2.9-0.7-4.8-2c-1.8-1.3-3.8-3.5-5.9-6.4
		c-3.5-3.7-6.5-6.7-9.2-9.2c-2.7-2.5-5-4.6-6.9-6.4c-5.8,2.9-10.7,7-14.9,12.3c-4.1,5.3-7.4,11.9-9.7,19.8l-8.1,43v5.2
		c-0.2,1-0.3,1.8-0.3,2.5c0,0.7,0,1.2,0,1.6l-0.9,9.5l0.3,9l0.3,4c0.6,1.2,1,2.1,1.3,2.7c0.3,0.7,0.5,1,0.7,1c1.9,1,3.5,2.1,4.8,3.5
		c1.2,1.3,2.1,3,2.5,4.9c0.6,0.4,1.3,1,2.3,1.9c1,0.9,2.2,2.1,3.8,3.6c-2.7,1.7-5.6,3-8.8,3.8c-3.2,0.8-6.5,1.1-10,0.9
		c-3.1-0.2-5.3-0.7-6.8-1.4c-1.4-0.8-1.9-1.9-1.3-3.5l-2.6,2.6l-5.2-7.2c-1.9-1.7-3.1-3.9-3.6-6.5c-0.5-2.6-0.5-5.5-0.1-8.8l4-23.4
		h-0.6l-4,22.2v4c0,1.5,0,2.8,0.1,3.9c0.1,1.1,0.3,2,0.7,2.7c2.1,5.8,3.8,10.1,5.1,13c1.2,2.9,1.9,4.4,1.9,4.6
		c-0.8,0.2-1.8,0.3-3,0.3c-1.3,0-2.6,0-4.2,0c-6.2,0-11.2-0.5-15-1.4c-3.9-1-6.5-2.4-7.8-4.3v-5.2c-0.8-0.2-1.4-0.5-2-0.9
		c-1.2-1.9-2-3.8-2.5-5.5c-0.5-1.7-0.4-3.5,0.1-5.2l6.6-26.6l2.3-26.6c-4,2.1-8,3.7-12,4.6c-3.9,1-7.8,1.4-11.7,1.4
		c-4.4,0-9.2-1.2-14.4-3.5c-5.2-2.3-10.8-5.7-16.8-10.1c-1,6.4-1.7,12-2.3,16.9c-0.6,4.9-1.1,9-1.4,12.3v0.9c0,3.1,1.3,7.6,3.9,13.4
		c2.6,5.9,6.4,13.2,11.4,22.1c1.7,1.3,3.1,2.6,4,3.9c1,1.3,1.6,2.4,2,3.3c1.2,2.3,2.1,4.2,2.9,5.8c0.8,1.5,1.4,2.5,2,2.9
		c0,2.1-1,3.6-3,4.5c-2,0.9-5.1,1-9.1,0.4l-17.6-1.4c-0.8-1.9-1.3-3.8-1.6-5.5c-0.3-1.7-0.3-3.3-0.1-4.6c-2.1-1.9-3.8-3.7-4.9-5.3
		c-1.2-1.6-1.9-3-2.3-4.2l-0.9-4.6c-1-3.7-2.3-7.4-3.9-11.3C260.3,203,258.3,199.2,256,195.3z M307.7,80.1h-81.2v-8.4h8.1l32.6-58.9
		l32.1,58.9h8.4V80.1z M280.6,71.4l-13-24.8L254,71.4H280.6z"/>
</g>
</svg>
