<?xml version="1.0" encoding="utf-8"?>
<!-- Generator: Adobe Illustrator 19.0.0, SVG Export Plug-In . SVG Version: 6.00 Build 0)  -->
<svg version="1.1" id="beachcombing_xA0_Image_1_" xmlns="http://www.w3.org/2000/svg" xmlns:xlink="http://www.w3.org/1999/xlink"
	 x="0px" y="0px" viewBox="38 -37.3 575.8 574.3" style="enable-background:new 38 -37.3 575.8 574.3;" xml:space="preserve">
<style type="text/css">
	.st0{fill:#573922;stroke:#2B1C11;stroke-width:30;stroke-miterlimit:10;}
	.st1{fill:#FFFFFF;}
</style>
<ellipse class="st0" cx="325.5" cy="251" rx="273.5" ry="272.7"/>
<path class="st1" d="M448.7,222.6v-24.7c-6.8,14.1-17,21.1-30.6,21.1c-13.6,0-23.9-7-30.7-21.1c-7.3,14.1-17.6,21.1-31,21.1
	c-13.6,0-23.8-7-30.7-21.1c-6.8,14.1-17.3,21.1-31.4,21.1c-13.4,0-23.7-7-31-21.1c-6.8,14.1-17,21.1-30.7,21.1
	c-13.6,0-23.8-7-30.6-21.1v24.7c6.8,14.1,17,21.1,30.6,21.1c13.6,0,23.8-6.9,30.7-20.7c7.3,13.8,17.6,20.7,31,20.7
	c14.1,0,24.6-6.9,31.4-20.7c6.8,13.8,17,20.7,30.7,20.7c13.4,0,23.7-6.9,31-20.7c6.8,13.8,17,20.7,30.7,20.7
	C431.7,243.7,441.9,236.7,448.7,222.6z"/>
<path class="st1" d="M424,50.3c-3.4-3.7-17.7-11-19.2-7.7c-2,4.3-42.5,84.5-54.4,108.2h-2.6l55.1-111.3c0,0-1.2-15.1-18-23.4
	c-14.4-4.7-25.4-1.9-25.4-1.9l-26.8,136.6H330l25.8-137.6c0,0-9.9-10.9-28.4-10.9c-27.2,0-32.8,12.3-32.8,12.3l25,136.3h-2.5
	L290.5,15.4c0,0-11-2.8-25.4,1.9c-16.8,8.3-18,23.4-18,23.4l54.4,110h-2.9c-13-25.8-51.4-101.9-53.4-106.1
	c-1.6-3.3-15.8,4.1-19.2,7.7c-14.7,13.7-14.5,24-14.5,24l71.6,80.7c-0.1,0.5-0.1,1-0.1,1.5v24.1c0,4.3,3.5,7.8,7.9,7.8h67.4
	c4.3,0,7.9-3.5,7.9-7.8v-24.1c0-0.8-0.1-1.6-0.3-2.3l72.7-82C438.5,74.3,438.7,63.9,424,50.3z"/>
</svg>
