<?xml version="1.0" encoding="utf-8"?>
<!-- Generator: Adobe Illustrator 19.0.0, SVG Export Plug-In . SVG Version: 6.00 Build 0)  -->
<svg version="1.1" id="beachcombing_xA0_Image_1_" xmlns="http://www.w3.org/2000/svg" xmlns:xlink="http://www.w3.org/1999/xlink"
	 x="0px" y="0px" viewBox="38 -37.3 575.8 574.3" style="enable-background:new 38 -37.3 575.8 574.3;" xml:space="preserve">
<style type="text/css">
	.st0{fill:#573922;stroke:#2B1C11;stroke-width:30;stroke-miterlimit:10;}
	.st1{display:none;}
	.st2{display:inline;fill:#FFFFFF;}
	.st3{fill:#FFFFFF;}
</style>
<ellipse class="st0" cx="325.9" cy="249.4" rx="273.5" ry="272.7"/>
<g class="st1">
	<path class="st2" d="M449.2,54c-0.5,0-1,0-1.5,0c-1.2-0.5-2.4-0.8-3.5-1.4c-1.6-1-3.1-2.2-4.7-3.3c-1.5-1.1-3.1-1.7-5-1.6
		c-1.3,0-2.6,0-3.8,0c-3.1-0.1-4.9-1.4-5.9-4.4c-0.4-1.1-0.7-2.2-1-3.3c-0.6-2.3-1.7-4.2-3.5-5.7c-5.2-4.5-10.4-9.1-15.5-13.7
		c-5.4-4.9-10.3-10.1-12.5-17.2c0-0.1,1.3,3.9-0.3-0.2c-1.6-4.1,0-3.9,0-5.9c0.9-1.5,1.8-3,2.9-4.4c0.7-0.9,1.1-1.6,0.8-2.7
		c-0.8-3.7,0.2-7,3.3-9.3c1.8-1.4,4-2.3,6.1-3.3c0.7-0.3,1.2-0.6,1.4-1.4c1.1-6.3,4.9-9.7,11.4-10.1c1.1-0.1,1.8-0.5,2.3-1.5
		c3.2-6.7,8.1-9.1,15.3-7.5c0.4,0.1,1.1,0.1,1.4-0.2c2-2.1,7-4.5,7-4.5s2.4-1.6,5.6,0c0.3,0.2,0.6,0.4,0.9,0.5
		c1.7,1.1,3.5,2,5.2,3.2c0.9,0.7,1.6,1,2.8,0.6c3.7-1.1,7.1-0.4,9.9,2.2c1.6,1.4,2.8,3.3,4.1,5c0.5,0.6,0.9,1.1,1.8,0.9
		c3.2-0.7,5.9,0.3,8.3,2.3c2.9,2.4,4.6,5.5,6.1,8.8c0.4,0.8,1.1,1.8,1.8,2.1c5.5,2.1,8,6.4,8.6,11.9c0.2,1.8,0.5,3.4,2.3,4.5
		c0.9,0.6,1.4,2,2.1,3c0.2,0.3,0.5,1.1,0.5,1.1s1.6,2.7,0,5.4c-2,4.2-0.3,0.3-0.3,0.5c-1.1,3.1-2.9,5.9-4.9,8.4
		c-5.7,7.1-12.1,13.6-18.6,19.9c-2.1,2.1-3.7,4.4-4.8,7.1c-0.6,1.5-1.3,3-2,4.4c-1.5,2.6-3.8,3.8-6.8,3.6c-0.9,0-1.8-0.1-2.7-0.1
		c-2.3-0.1-4.3,0.6-6.1,2C455.1,51.4,452.3,53,449.2,54z"/>
</g>
<g>
	<path class="st3" d="M253.1,47c4.2,0.5,7.5,0.4,10.2-0.5c2.3-2.4,3.2-6.3,2.7-11.6c-0.4-5.3-0.5-10.2-0.1-14.7c0-0.3,0-0.7,0-1.2
		c0-0.4,0.2-0.7,0.5-0.7c7.1,0,14.2,0,21.2,0s14.1,0,21.2,0c0.2,6.2,0.3,13,0.4,20.3c0.1,7.3,0.2,14.9,0.3,22.8
		c0.1,7.9,0.1,15.9,0,24c-0.1,8.1-0.1,16-0.1,23.8c0,7.5-0.2,15-0.5,22.6c-0.3,7.6-5,10.3-14.1,8.1c0,7.3,0.2,14.6,0.5,22
		c0.3,7.4,0.7,14.8,1,22.3c0.3,7.5,0.6,14.8,0.7,22.1c0.1,7.3,0,14.6-0.4,21.9c-3.3,3.3-8.4,4.9-15.2,4.7
		c-6.9-0.2-13.9-0.3-21.2-0.3c-5.2,0-12.2,0.2-21,0.7c-8.8,0.4-14.4-0.7-16.8-3.3c-1.7-1.9-2.5-5.7-2.3-11.5
		c0.2-5.7,0.3-10.4,0.3-14.1c0-9,0.3-17.4,0.9-25.3c0.6-7.8,1.4-15.4,2.5-22.6c1-7.3,2.2-14.6,3.5-21.9c1.3-7.3,2.6-14.9,4-22.9
		c2.1-11.1,4-22.2,5.9-33.3c1.8-11.1,3.9-21.2,6.4-30.2C245.8,46.9,249,46.5,253.1,47z M338.3,87.7c0,13.6,0,27.2,0,40.7
		c-4.3,0-8.6,0-12.9,0c-4.3,0-8.6,0-12.9,0c0.2-6.8,0.2-13.6,0.1-20.4c-0.1-6.9-0.1-13.8-0.1-20.7c0-6.9,0-13.8,0.1-20.4
		c0.1-6.7,0.3-13.3,0.7-19.9c4.2,0,8.3,0,12.5,0c4.2,0,8.3,0,12.5,0C338.3,60.5,338.3,74.1,338.3,87.7z M334.9,87.5
		c0-12.6,0-25.2,0-37.9c-3.1,0-6.3,0-9.5,0c-3.2,0-6.4,0-9.5,0C315,61.6,314.7,74,315,87c0.3,12.9,0.3,25.6,0.1,38.1
		c3.3,0,6.6,0,9.9,0c3.3,0,6.6,0,9.9,0C334.9,112.6,334.9,100.1,334.9,87.5z M334.9,87.5c0,12.6,0,25.1,0,37.6c-3.3,0-6.6,0-9.9,0
		c-3.3,0-6.6,0-9.9,0c0.2-12.5,0.1-25.2-0.1-38.1c-0.3-12.9,0-25.4,0.9-37.4c3.1,0,6.3,0,9.5,0c3.2,0,6.4,0,9.5,0
		C334.9,62.3,334.9,74.9,334.9,87.5z M428.1,171c1,8.2,1.6,19,1.6,32.2c0,4.3,0.2,9.2,0.7,14.6c0.4,5.4-0.2,9.3-2,11.7
		c-2.1,3-7.6,4.2-16.5,3.8c-8.9-0.4-16-0.7-21.2-0.7c-5.4,0-12.2,0.2-20.6,0.7c-8.3,0.4-13.6-1.1-15.9-4.6
		c-1.9-2.9-2.4-9.8-1.4-20.4c1-10.7,1.4-18.4,1.4-23c0.2-8.2,0.4-15.8,0.8-22.9c0.3-7.1,0.5-14.4,0.5-21.9c-1.6-0.5-3.7-0.7-6.5-0.7
		c-2.8,0.1-4.9-0.7-6.2-2.5c-1.9-2.1-2.7-6.2-2.5-12.4c0.3-6.2,0.4-11.4,0.4-15.8c0-7.3,0-14.8,0-22.6c0-7.8,0-15.6,0-23.3
		c0-7.7,0-15.2,0-22.5c0-7.3,0-14.1,0-20.6c0-0.5,0.1-0.9,0.4-1.2c0.3-0.3,0.6-0.5,0.9-0.7c7.1,0,14.2,0,21.2,0c7,0,14.1,0,21.2,0
		c1,4.9,0.9,9.9-0.4,15c-1.3,5.1-0.7,9.1,1.7,11.8c2.1,2.4,5.1,3.1,9.1,2.1c4-1,7.7-0.9,11.2,0.5c2.4,4.3,4,9.2,4.7,14.4
		c0.7,5.3,1.5,10.7,2.3,16.3c1.7,10.2,3.5,20.8,5.3,31.6c1.8,10.8,3.7,21.8,5.6,32.9C425.6,153.5,427,162.8,428.1,171z M427.4,196.8
		c-0.3-10-1-19.7-2.2-29c-1.2-9.4-2.6-18.5-4.3-27.5c-1.7-8.9-3.3-17.8-4.8-26.7c-1.7-10.8-3.5-21.4-5.2-32
		c-1.7-10.6-3.8-21-6.2-31.2c-3.8-1.4-7.7-1.6-11.6-0.7c-3.9,1-7.1,0.3-9.5-2c-2.6-2.6-3.3-6.4-2.2-11.3c1.1-4.9,1.3-9.9,0.4-15
		c-6.2,0-12.5,0-18.6,0c-6.2,0-12.4,0-18.6,0c-0.2,9.2-0.3,18.6-0.5,28.1c-0.2,9.5-0.3,19.2-0.3,28.9c0,9.7,0.1,19.4,0.3,28.9
		c0.2,9.5,0.3,18.9,0.5,28.1c1.4,1.4,3.6,2,6.6,1.7c3-0.3,5.5,0,7.4,0.7c-0.2,7.5-0.4,15-0.7,22.5c-0.3,7.5-0.5,15.1-0.8,22.6
		c-0.3,7.5-0.5,15.1-0.7,22.5c-0.2,7.5-0.1,14.8,0.3,21.9c4.5,1.7,9.8,2.5,15.8,2.3c6-0.2,12-0.3,18.1-0.3c6.1,0,12.2,0.1,18.5,0.3
		c6.2,0.2,11.8-0.3,16.7-1.6C427.1,217.3,427.7,206.8,427.4,196.8z M420.9,140.3c1.6,8.9,3.1,18.1,4.3,27.5c1.2,9.4,2,19,2.2,29
		c0.3,10-0.3,20.4-1.7,31.4c-4.9,1.2-10.4,1.7-16.7,1.6c-6.2-0.2-12.4-0.3-18.5-0.3c-6.1,0-12.1,0.1-18.1,0.3
		c-6,0.2-11.2-0.6-15.8-2.3c-0.3-7.1-0.4-14.4-0.3-21.9c0.2-7.5,0.4-15,0.7-22.5c0.3-7.5,0.5-15.1,0.8-22.6
		c0.3-7.5,0.5-15.1,0.7-22.5c-1.9-0.7-4.4-0.9-7.4-0.7c-3,0.3-5.3-0.3-6.6-1.7c-0.2-9.2-0.3-18.6-0.5-28.1
		c-0.2-9.5-0.3-19.2-0.3-28.9c0-9.7,0.1-19.3,0.3-28.9c0.2-9.5,0.3-18.9,0.5-28.1c6.2,0,12.5,0,18.6,0c6.2,0,12.4,0,18.6,0
		c0.9,5,0.7,10-0.4,15c-1.1,4.9-0.4,8.7,2.2,11.3c2.4,2.3,5.6,2.9,9.5,2c3.9-1,7.8-0.7,11.6,0.7c2.4,10.2,4.5,20.7,6.2,31.2
		c1.7,10.6,3.5,21.3,5.2,32C417.7,122.5,419.3,131.4,420.9,140.3z"/>
</g>
</svg>
