<?xml version="1.0" encoding="utf-8"?>
<!-- Generator: Adobe Illustrator 19.0.0, SVG Export Plug-In . SVG Version: 6.00 Build 0)  -->
<svg version="1.1" id="beachcombing_xA0_Image_1_" xmlns="http://www.w3.org/2000/svg" xmlns:xlink="http://www.w3.org/1999/xlink"
	 x="0px" y="0px" viewBox="38 -37.3 575.8 574.3" style="enable-background:new 38 -37.3 575.8 574.3;" xml:space="preserve">
<style type="text/css">
	.st0{fill:#573922;stroke:#2B1C11;stroke-width:30;stroke-miterlimit:10;}
	.st1{display:none;}
	.st2{display:inline;fill:#FFFFFF;}
	.st3{fill:#FFFFFF;}
</style>
<ellipse class="st0" cx="327.3" cy="249.4" rx="273.5" ry="272.7"/>
<g class="st1">
	<path class="st2" d="M487.2,16.7c-0.5,0-1,0-1.5,0c-1.2-0.5-2.4-0.8-3.5-1.4c-1.6-1-3.1-2.2-4.7-3.3c-1.5-1.1-3.1-1.7-5-1.6
		c-1.3,0-2.6,0-3.8,0c-3.1-0.1-4.9-1.4-5.9-4.4c-0.4-1.1-0.7-2.2-1-3.3c-0.6-2.3-1.7-4.2-3.5-5.7c-5.2-4.5-10.4-9.1-15.5-13.7
		c-5.4-4.9-10.3-10.1-12.5-17.2c0-0.1,1.3,3.9-0.3-0.2c-1.6-4.1,0-3.9,0-5.9c0.9-1.5,1.8-3,2.9-4.4c0.7-0.9,1.1-1.6,0.8-2.7
		c-0.8-3.7,0.2-7,3.3-9.3c1.8-1.4,4-2.3,6.1-3.3c0.7-0.3,1.2-0.6,1.4-1.4c1.1-6.3,4.9-9.7,11.4-10.1c1.1-0.1,1.8-0.5,2.3-1.5
		c3.2-6.7,8.1-9.1,15.3-7.5c0.4,0.1,1.1,0.1,1.4-0.2c2-2.1,7-4.5,7-4.5s2.4-1.6,5.6,0c0.3,0.2,0.6,0.4,0.9,0.5
		c1.7,1.1,3.5,2,5.2,3.2c0.9,0.7,1.6,1,2.8,0.6c3.7-1.1,7.1-0.4,9.9,2.2c1.6,1.4,2.8,3.3,4.1,5c0.5,0.6,0.9,1.1,1.8,0.9
		c3.2-0.7,5.9,0.3,8.3,2.3c2.9,2.4,4.6,5.5,6.1,8.8c0.4,0.8,1.1,1.8,1.8,2.1c5.5,2.1,8,6.4,8.6,11.9c0.2,1.8,0.5,3.4,2.3,4.5
		c0.9,0.6,1.4,2,2.1,3c0.2,0.3,0.5,1.1,0.5,1.1s1.6,2.7,0,5.4c-2,4.2-0.3,0.3-0.3,0.5c-1.1,3.1-2.9,5.9-4.9,8.4
		c-5.7,7.1-12.1,13.6-18.6,19.9c-2.1,2.1-3.7,4.4-4.8,7.1c-0.6,1.5-1.3,3-2,4.4c-1.5,2.6-3.8,3.8-6.8,3.6c-0.9,0-1.8-0.1-2.7-0.1
		c-2.3-0.1-4.3,0.6-6.1,2C493.1,14.1,490.3,15.7,487.2,16.7z"/>
</g>
<g>
	<path class="st3" d="M235.3,241.9c-6.8,0-12.8-1.9-17.9-5.7c-5.1-3.8-9.3-9.4-12.5-16.9V193c3.4,7.4,7.6,13,12.5,16.7
		c4.9,3.7,10.8,5.6,17.6,5.6c6.8,0,12.8-1.9,17.8-5.6c5-3.7,9.1-9.3,12.4-16.7c3.4,7.4,7.7,13,13,16.7c5.2,3.7,11.1,5.6,17.5,5.6
		c6.4,0,12.2-1.9,17.3-5.6c5.1-3.7,9.4-9.3,12.8-16.7c3.4,7.4,7.7,13,13,16.7c5.2,3.7,11.3,5.6,18.1,5.6c6.6,0,12.5-1.9,17.5-5.6
		c5-3.7,9.2-9.3,12.7-16.7c3.4,7.4,7.6,13,12.5,16.7c4.9,3.7,10.8,5.6,17.6,5.6c6.8,0,12.8-1.9,17.9-5.6c5.1-3.7,9.4-9.3,12.8-16.7
		v26.2c-3.4,7.6-7.6,13.3-12.7,17c-5,3.7-11,5.6-17.8,5.6c-6.8,0-12.7-1.9-17.6-5.7c-4.9-3.8-9.1-9.4-12.5-16.9
		c-3.2,7.4-7.4,13.1-12.5,16.9c-5.1,3.8-11,5.7-17.6,5.7c-7.2,0-13.4-1.9-18.5-5.7c-5.1-3.8-9.3-9.4-12.5-16.9
		c-3.4,7.4-7.7,13.1-12.8,16.9c-5.1,3.8-10.9,5.7-17.3,5.7c-6.8,0-12.8-1.9-17.9-5.7c-5.1-3.8-9.3-9.4-12.5-16.9
		c-3.2,7.4-7.3,13.1-12.4,16.9C248.1,239.9,242.2,241.9,235.3,241.9z M315.8,10.9c-1.4-2.8-3-5.6-4.7-8.4c-1.7-2.8-4.3-5-7.7-6.6
		c-0.4,0-0.9,0-1.5,0c-0.6,0-1.1,0-1.5,0c-0.2,0.8-0.5,1.6-0.9,2.4c-0.4,0.8-0.7,1.7-0.9,2.7c-1.4,6-2.2,12.2-2.4,18.4
		c-0.2,6.2-0.1,12.5,0.3,18.7c0.2,4.8,0.5,9.7,0.9,14.6c0.4,4.9,0.8,9.9,1.2,14.9c0.2,1,0,1.8-0.5,2.3c-0.5,0.5-1.3,0.9-2.3,1.1
		c-8.4,2-16.9,4-25.3,6c-8.4,2-16.8,4.1-25,6.3c-3.4,1-6.7,2.2-9.9,3.6c-3.2,1.4-5.7,3.8-7.5,7.2c0,0.4,0,0.9,0,1.5
		c0,0.6,0,1.1,0,1.5c1.8,2.6,4,4.6,6.6,6c2.6,1.4,5.4,2.6,8.4,3.6c4.4,1.4,8.8,2.7,13.3,3.8c4.4,1.1,8.9,2.3,13.6,3.5
		c3.4,0.8,6.8,1.7,10.2,2.6c3.4,0.9,6.8,1.9,10.2,2.9c0,0.6-0.1,1.2-0.2,1.7c-0.1,0.5-0.3,1-0.5,1.4c-0.8,3.8-1.7,7.7-2.6,11.6
		c-0.9,3.9-1.7,7.8-2.3,11.6c-1.4,7.2-2.7,14.5-3.8,21.7c-1.1,7.2-2.4,14.5-3.8,21.7c-0.6,4.6-0.3,8.1,0.9,10.4
		c1.2,2.3,3.6,4.6,7.2,6.8c0.8,0,1.6,0,2.4,0c0.8,0,1.6,0,2.4,0c3-1.4,5.5-3.2,7.4-5.4c1.9-2.2,3.6-4.7,5-7.5
		c4.6-8.8,9.1-17.6,13.4-26.4c4.3-8.7,8.7-17.4,13.1-26.1c0.8-1.6,1.6-3.2,2.4-4.8c0.8-1.6,1.7-3.2,2.7-4.8c2.6,2.6,5.1,5.2,7.5,7.8
		c2.4,2.6,4.8,5,7.2,7.2c4.4,4.4,8.9,8.8,13.6,13.3c4.6,4.4,9.2,8.8,13.9,13.3c1.6,1.6,3.3,3.1,5.1,4.4c1.8,1.3,3.6,2.6,5.4,3.8
		c2.4,1.4,4.6,1.6,6.5,0.6c1.9-1,3.2-2.9,3.8-5.7c0.6-3.4,0.4-6.5-0.6-9.3c-1-2.8-2.3-5.5-3.9-8.1c-2.4-4.4-4.8-8.9-7.2-13.6
		c-2.4-4.6-4.8-9.1-7.2-13.6c-1.6-3.4-3.3-6.9-5-10.6c-1.7-3.6-3.5-7.3-5.3-11.2c3.6-3.4,7.3-6.8,11-10.1c3.7-3.3,7.3-6.7,10.7-10.1
		c2.4-2.6,5-5.2,7.7-7.8c2.7-2.6,5.1-5.3,7.1-8.1c1.6-1.6,2.9-3.5,3.9-5.7c1-2.2,2-4.3,3-6.3c0-0.6,0-1.2,0-1.8c0-0.6,0-1.2,0-1.8
		c-1.2-2-2.7-3.3-4.5-3.8c-1.8-0.5-3.8-0.6-6-0.2c-2.4,0.4-4.9,0.8-7.4,1.2c-2.5,0.4-5,0.9-7.4,1.5c-6.4,1.6-12.9,3.1-19.3,4.5
		c-6.4,1.4-13.1,2.2-19.9,2.4c-1.4,0-2.6-0.2-3.5-0.6c-0.9-0.4-1.8-1.3-2.6-2.7L315.8,10.9z"/>
</g>
</svg>
