<?xml version="1.0" encoding="utf-8"?>
<!-- Generator: Adobe Illustrator 19.0.0, SVG Export Plug-In . SVG Version: 6.00 Build 0)  -->
<svg version="1.1" id="beachcombing_xA0_Image_1_" xmlns="http://www.w3.org/2000/svg" xmlns:xlink="http://www.w3.org/1999/xlink"
	 x="0px" y="0px" viewBox="38 -37.3 575.8 574.3" style="enable-background:new 38 -37.3 575.8 574.3;" xml:space="preserve">
<style type="text/css">
	.st0{fill:#573922;stroke:#2B1C11;stroke-width:30;stroke-miterlimit:10;}
	.st1{display:none;}
	.st2{display:inline;fill:#FFFFFF;}
	.st3{fill:#FFFFFF;}
</style>
<ellipse class="st0" cx="327.3" cy="249.4" rx="273.5" ry="272.7"/>
<g class="st1">
	<path class="st2" d="M487.2,16.7c-0.5,0-1,0-1.5,0c-1.2-0.5-2.4-0.8-3.5-1.4c-1.6-1-3.1-2.2-4.7-3.3c-1.5-1.1-3.1-1.7-5-1.6
		c-1.3,0-2.6,0-3.8,0c-3.1-0.1-4.9-1.4-5.9-4.4c-0.4-1.1-0.7-2.2-1-3.3c-0.6-2.3-1.7-4.2-3.5-5.7c-5.2-4.5-10.4-9.1-15.5-13.7
		c-5.4-4.9-10.3-10.1-12.5-17.2c0-0.1,1.3,3.9-0.3-0.2c-1.6-4.1,0-3.9,0-5.9c0.9-1.5,1.8-3,2.9-4.4c0.7-0.9,1.1-1.6,0.8-2.7
		c-0.8-3.7,0.2-7,3.3-9.3c1.8-1.4,4-2.3,6.1-3.3c0.7-0.3,1.2-0.6,1.4-1.4c1.1-6.3,4.9-9.7,11.4-10.1c1.1-0.1,1.8-0.5,2.3-1.5
		c3.2-6.7,8.1-9.1,15.3-7.5c0.4,0.1,1.1,0.1,1.4-0.2c2-2.1,7-4.5,7-4.5s2.4-1.6,5.6,0c0.3,0.2,0.6,0.4,0.9,0.5
		c1.7,1.1,3.5,2,5.2,3.2c0.9,0.7,1.6,1,2.8,0.6c3.7-1.1,7.1-0.4,9.9,2.2c1.6,1.4,2.8,3.3,4.1,5c0.5,0.6,0.9,1.1,1.8,0.9
		c3.2-0.7,5.9,0.3,8.3,2.3c2.9,2.4,4.6,5.5,6.1,8.8c0.4,0.8,1.1,1.8,1.8,2.1c5.5,2.1,8,6.4,8.6,11.9c0.2,1.8,0.5,3.4,2.3,4.5
		c0.9,0.6,1.4,2,2.1,3c0.2,0.3,0.5,1.1,0.5,1.1s1.6,2.7,0,5.4c-2,4.2-0.3,0.3-0.3,0.5c-1.1,3.1-2.9,5.9-4.9,8.4
		c-5.7,7.1-12.1,13.6-18.6,19.9c-2.1,2.1-3.7,4.4-4.8,7.1c-0.6,1.5-1.3,3-2,4.4c-1.5,2.6-3.8,3.8-6.8,3.6c-0.9,0-1.8-0.1-2.7-0.1
		c-2.3-0.1-4.3,0.6-6.1,2C493.1,14.1,490.3,15.7,487.2,16.7z"/>
</g>
<g>
	<path class="st3" d="M403.6,158L323.2,17.7C252.4,48.3,217,65.4,217,69c0,0.6,0.3,1,1,1h1c10.2,0,40.1-8,89.6-23.9l17.5,44
		l-138.4,69.8c7,10.8,14.9,16.3,23.6,16.3c7.9,0,15.8-5.4,23.9-16.3c7.9,10.8,15.8,16.3,23.9,16.3c7.4,0,13.9-5.4,19.5-16.3
		c7.9,11.5,15.5,17.2,23,17.2c6.8,0,12.8-5.7,17.9-17.2c7.9,10.8,15.5,16.3,23,16.3c7.2,0,13.5-5.5,18.8-16.6
		c0.4,2.3,3.4,5.5,8.9,9.6c6,4.3,10.5,6.4,13.7,6.4C391,175.6,397.6,169.7,403.6,158z M447.3,212.3v-15.3
		c-6.8,18.5-13.7,27.7-20.7,27.7c-3.6,0-8.9-4.7-15.9-14c-5.3-7.2-8-11.5-8-12.8c0-0.6,0.3-1,1-1c-5.7,16.8-12.3,25.2-19.8,25.2
		c-3,0-7.5-3.1-13.7-9.2c-5.5-6.2-8.5-10.9-8.9-14.4l0.3-0.3c-1.5,0.4-4.9,4.6-10.2,12.4c-5.3,7.9-8.3,11.8-8.9,11.8
		c-7.4,0-15.1-7.8-23-23.3c-5.1,16.2-11.1,24.2-17.9,24.2c-5.3,0-10.6-4.1-15.9-12.4c-4.7-6.6-7-10.5-7-11.8
		c-5.5,15.9-12,23.9-19.5,23.9c-8.1,0-16.1-8-23.9-23.9c-8.1,15.9-16.1,23.9-23.9,23.9c-8.7,0-16.6-8-23.6-23.9v15.9
		c7,15.5,14.9,23.3,23.6,23.3c8.1,0,16.1-7.8,23.9-23.3c7.9,15.5,15.8,23.3,23.9,23.3c7.7,0,14.1-7.8,19.5-23.3
		c7.9,16.2,15.5,24.2,23,24.2c6.8,0,12.8-8.1,17.9-24.2c7.9,15.3,15.5,23,23,23c7.4,0,13.7-8,18.8-23.9c0.2,0.4,0.9,1.6,2.1,3.5
		c1.2,1.9,2.9,4.6,5.3,8c5.3,7.9,10.4,11.8,15.3,11.8c7,0,13.6-8.5,19.8-25.5c-0.6,0-1,0.2-1,0.6c0,1.3,2.7,5.5,8,12.8
		c7,9.4,12.3,14,15.9,14C433.7,239.4,440.7,230.3,447.3,212.3z M464.5,96.5c0-4.5-0.8-8.8-2.4-12.9c-1.6-4.1-3.8-7.7-6.5-10.7
		c-2.8-3-6-5.4-9.7-7.2c-3.7-1.8-7.6-2.7-11.6-2.7c-4.3,0-8.2,0.9-12,2.7c-3.7,1.8-6.9,4.2-9.6,7.2c-2.7,3-4.8,6.5-6.4,10.7
		c-1.6,4.1-2.4,8.5-2.4,12.9c0,4.5,0.8,8.7,2.4,12.6c1.6,3.9,3.7,7.4,6.4,10.5c2.7,3.1,5.8,5.5,9.4,7.2c3.6,1.7,7.5,2.6,11.8,2.6
		c8.1,0,15.2-3.2,21.4-9.6C461.4,113.2,464.5,105.4,464.5,96.5z"/>
</g>
</svg>
