<?xml version="1.0" encoding="utf-8"?>
<!-- Generator: Adobe Illustrator 19.0.0, SVG Export Plug-In . SVG Version: 6.00 Build 0)  -->
<svg version="1.1" id="beachcombing_xA0_Image_1_" xmlns="http://www.w3.org/2000/svg" xmlns:xlink="http://www.w3.org/1999/xlink"
	 x="0px" y="0px" viewBox="38 -37.3 575.8 574.3" style="enable-background:new 38 -37.3 575.8 574.3;" xml:space="preserve">
<style type="text/css">
	.st0{fill:#573922;stroke:#2B1C11;stroke-width:30;stroke-miterlimit:10;}
	.st1{display:none;}
	.st2{display:inline;fill:#FFFFFF;}
	.st3{fill:#FFFFFF;}
</style>
<ellipse class="st0" cx="325.9" cy="251.7" rx="273.5" ry="272.7"/>
<g class="st1">
	<path class="st2" d="M411.2,91.3c-0.5,0-1,0-1.5,0c-1.2-0.5-2.4-0.8-3.5-1.4c-1.6-1-3.1-2.2-4.7-3.3c-1.5-1.1-3.1-1.7-5-1.6
		c-1.3,0-2.6,0-3.8,0c-3.1-0.1-4.9-1.4-5.9-4.4c-0.4-1.1-0.7-2.2-1-3.3c-0.6-2.3-1.7-4.2-3.5-5.7c-5.2-4.5-10.4-9.1-15.5-13.7
		c-5.4-4.9-10.3-10.1-12.5-17.2c0-0.1,1.3,3.9-0.3-0.2c-1.6-4.1,0-3.9,0-5.9c0.9-1.5,1.8-3,2.9-4.4c0.7-0.9,1.1-1.6,0.8-2.7
		c-0.8-3.7,0.2-7,3.3-9.3c1.8-1.4,4-2.3,6.1-3.3c0.7-0.3,1.2-0.6,1.4-1.4c1.1-6.3,4.9-9.7,11.4-10.1c1.1-0.1,1.8-0.5,2.3-1.5
		c3.2-6.7,8.1-9.1,15.3-7.5c0.4,0.1,1.1,0.1,1.4-0.2c2-2.1,7-4.5,7-4.5s2.4-1.6,5.6,0c0.3,0.2,0.6,0.4,0.9,0.5
		c1.7,1.1,3.5,2,5.2,3.2c0.9,0.7,1.6,1,2.8,0.6c3.7-1.1,7.1-0.4,9.9,2.2c1.6,1.4,2.8,3.3,4.1,5c0.5,0.6,0.9,1.1,1.8,0.9
		c3.2-0.7,5.9,0.3,8.3,2.3c2.9,2.4,4.6,5.5,6.1,8.8c0.4,0.8,1.1,1.8,1.8,2.1c5.5,2.1,8,6.4,8.6,11.9c0.2,1.8,0.5,3.4,2.3,4.5
		c0.9,0.6,1.4,2,2.1,3c0.2,0.3,0.5,1.1,0.5,1.1s1.6,2.7,0,5.4c-2,4.2-0.3,0.3-0.3,0.5c-1.1,3.1-2.9,5.9-4.9,8.4
		c-5.7,7.1-12.1,13.6-18.6,19.9c-2.1,2.1-3.7,4.4-4.8,7.1c-0.6,1.5-1.3,3-2,4.4c-1.5,2.6-3.8,3.8-6.8,3.6c-0.9,0-1.8-0.1-2.7-0.1
		c-2.3-0.1-4.3,0.6-6.1,2C417.1,88.7,414.3,90.3,411.2,91.3z"/>
</g>
<path class="st3" d="M195.3,104.5c36-2.3,69.2,6.5,99.5,26.4l19.4-54.4c-4.7-7.8-11.5-11.7-20.6-11.7c-4.1,0-9.2,1.6-15.2,4.7
	c-2.6-8-7.6-13.5-15.2-16.3c-6.5-2.6-14.4-2.1-23.7,1.6c7-14.6,17.4-26.1,31.1-34.5c13.7-8.3,28.6-12.5,44.7-12.5
	c10.4,0,20.5,1.8,30.3,5.4c17.1,6.2,30.6,16.6,40.6,31.2c10,14.6,15,30.5,15,47.8c0,7.2-1,14.5-3.1,21.7
	c-6.2-12.2-14.5-18.3-24.9-18.3c-4.7,0-9.5,1.4-14.4,4.3c-3.4-9.3-8.5-15.3-15.5-17.9c-5.2-1.8-10.8-1.9-16.7-0.4l-20.6,57.5
	c14.2,9.8,24.9,17.4,31.9,22.5c17.9,11.7,35.9,19.8,54,24.5H195.3V104.5z"/>
<path class="st3" d="M459.6,224.2c-7,15-17.7,22.5-32.3,22.5c-14.8,0-25.6-7.4-32.6-22.2c-7,14.8-17.9,22.2-32.6,22.2
	c-14.3,0-25.1-7.4-32.6-22.2c-7,14.8-18,22.2-33,22.2c-14.8,0-25.6-7.4-32.6-22.2c-7,14.8-17.7,22.2-32.3,22.2
	c-14.8,0-25.6-7.5-32.6-22.5v-26c7.2,14.8,18.1,22.2,32.6,22.2c14.2,0,25-7.4,32.3-22.2c7.2,14.8,18.1,22.2,32.6,22.2
	c14.8,0,25.8-7.4,33-22.2c7.5,14.8,18.4,22.2,32.6,22.2c14.5,0,25.4-7.4,32.6-22.2c7.3,14.8,18.1,22.2,32.6,22.2
	c14.2,0,25-7.4,32.3-22.2V224.2z"/>
</svg>
