<?xml version="1.0" encoding="utf-8"?>
<!-- Generator: Adobe Illustrator 19.0.0, SVG Export Plug-In . SVG Version: 6.00 Build 0)  -->
<svg version="1.1" id="beachcombing_xA0_Image_1_" xmlns="http://www.w3.org/2000/svg" xmlns:xlink="http://www.w3.org/1999/xlink"
	 x="0px" y="0px" viewBox="0 0 575.76 574.32" enable-background="new 0 0 575.76 574.32" xml:space="preserve">
<ellipse fill="#573922" stroke="#2B1C11" stroke-width="30" stroke-miterlimit="10" cx="287.493" cy="288.351" rx="273.546" ry="272.688"/>
<g>
	<path fill="#FFFFFF" d="M373.119,259.578c0.346-2.765,0.652-6.703,0.912-11.809c0.261-5.102,0.391-11.55,0.391-19.337V66.991
		c0-7.786-1.694-13.582-5.083-17.39c-3.388-3.804-8.125-5.71-14.206-5.71c-2.435,0-5.128,0.349-8.081,1.038l-22.937,41.788
		l-14.597-4.931l-51.869,10.122c-4.521,0.868-8.952,1.861-13.293,2.985c-4.345,1.127-8.691,2.381-13.032,3.764
		c-2.606,7.097-4.431,34.09-5.474,80.98l-22.416,81.759l-12.772,4.412l-26.326,12.977c3.82,2.251,11.294,3.374,22.416,3.374
		c0.346,0,0.867-0.041,1.564-0.13c0.692-0.085,1.649-0.214,2.867-0.389h144.4c12.859,0,21.895-1.557,27.109-4.672
		C368.077,273.854,371.555,268.058,373.119,259.578z M220.899,103.847h-0.261c-2.435-6.229-5.563-9.429-9.383-9.604
		c-0.351,0-0.697-0.04-1.043-0.13c-0.35-0.085-0.696-0.13-1.043-0.13c-4.345,0-7.037,2.251-8.08,6.749l-2.085,48.536
		c2.953,4.672,5.734,7.182,8.341,7.527h0.782c2.778,0,5.82-1.902,9.123-5.71L220.899,103.847z M274.332,218.829l-36.231,35.559
		l-19.027,4.932l30.496-76.569l23.458-2.336L274.332,218.829z M262.082,67.51c0-4.842-1.739-8.995-5.213-12.458
		c-3.478-3.459-7.648-5.191-12.511-5.191c-5.042,0-9.298,1.732-12.772,5.191c-3.478,3.463-5.213,7.616-5.213,12.458
		c0,4.847,1.735,8.999,5.213,12.458c3.474,3.463,7.73,5.191,12.772,5.191c4.863,0,9.033-1.728,12.511-5.191
		C260.343,76.509,262.082,72.357,262.082,67.51z M305.089,206.371l-16.16,9.084l4.431-45.941l-37.013-11.68l5.734-48.017
		l48.481-17.909L305.089,206.371z"/>
</g>
</svg>
