<?xml version="1.0" encoding="utf-8"?>
<!-- Generator: Adobe Illustrator 19.0.0, SVG Export Plug-In . SVG Version: 6.00 Build 0)  -->
<svg version="1.1" id="beachcombing_xA0_Image_1_" xmlns="http://www.w3.org/2000/svg" xmlns:xlink="http://www.w3.org/1999/xlink"
	 x="0px" y="0px" viewBox="18 -17.2 635.8 634.2" style="enable-background:new 18 -17.2 635.8 634.2;" xml:space="preserve">
<style type="text/css">
	.st0{fill:#FFFF00;}
	.st1{fill:#573922;stroke:#2B1C11;stroke-width:30;stroke-miterlimit:10;}
	.st2{fill:#FFFFFF;}
</style>
<ellipse class="st0" cx="336.7" cy="300.5" rx="318.7" ry="317.7"/>
<ellipse class="st1" cx="335.9" cy="300.7" rx="273.5" ry="272.7"/>
<g>
	<path class="st2" d="M214.7,132.5c6.2,6.1,13.4,10,21.6,11.8c8.2,1.8,16.4,1.2,24.5-1.9c8.1-3.1,14.2-8.9,18.2-17.4
		c5.5-11.5,5.7-22.4,0.5-32.8c-5.2-10.3-11.9-17.2-20-20.6c-2.8-1.1-6.5-1.7-11-1.9c-4.6-0.2-8.5-0.1-11.7,0.3
		c-9,1.5-16.5,5.8-22.7,13c-6.2,7.1-9.2,15.7-9,25.8C205.4,118.5,208.6,126.4,214.7,132.5z"/>
	<path class="st2" d="M476.4,132c-3.2-1.1-5.7-0.5-7.5,1.6c-1.8,2.1-4,3.5-6.6,4.2c-3.8,0.9-8.4,1.1-13.6,0.6
		c-5.2-0.4-10.4-0.6-15.5-0.6c-14.5,0-29.6,0.1-45.3,0.2c-15.7,0.1-29.7-0.5-42.1-1.8c5.1-1.9,11.4-2.6,18.9-1.9
		c7.5,0.6,14.3,0.8,20.5,0.3c0.6-2.1,1-5.1,1-9c0-3.9-0.3-6.9-1-9.3c-15.8,0-31.5,0-47.2,0s-31.4,0-47.2,0c-1.5,1.5-2.1,4.4-1.8,8.6
		c0.3,4.3,0.7,7.5,1.1,9.6c3.4,0.4,7.4,0.3,12-0.3c4.6-0.6,7.9,0,10.1,1.9c-5.8,2.6-11.3,3-16.6,1.4c-5.3-1.6-10.6-1.3-15.7,0.8
		c-3.2,1.3-5.5,3.6-7,7c-1.5,3.4-3.6,5.5-6.4,6.4c-7.5,2.1-17,2.3-28.6,0.6c-11.6-1.7-21-1.9-28-0.6c-10.9,2.1-15.8,10.1-14.9,24
		c1,13.9,1.8,27.1,2.4,39.7c0.4,11.1,0.8,22.1,1.3,33.1c0.4,11,1.1,21.7,1.9,32.1c13.4,0,27,0,40.6,0c13.6,0,27.3,0,40.9,0
		c0.2-11.5,0.4-23,0.5-34.5s0.5-22.8,1.1-33.9c5.5,1.3,10.7,3.8,15.4,7.5c4.7,3.7,9.8,5.2,15.4,4.3c2.1-0.2,4.8-1.8,8.2-4.6
		c3.3-2.9,6.1-5.3,8.5-7.2c7.7-6.6,15.6-13.6,23.8-21c8.2-7.4,15.7-13.7,22.6-19c0-1.9,0.1-3.9,0.3-5.9c0.2-2,0.5-3.8,1-5.3
		c4.5-0.2,9-0.5,13.6-0.8s9.2-0.6,13.9-0.8c1.7-1.1,3-2.7,3.8-5c0.9-2.2,2.5-3.7,4.8-4.3c7.9-2.3,18-2.5,30.4-0.5s23,2.2,32,0.5
		c-0.2-3-0.2-6.2,0-9.6C477.6,137.3,477.3,134.4,476.4,132z M295.4,170.4c1.1-1.3,1.7-3,1.9-5.1c7-0.2,14-0.5,20.8-1
		c6.8-0.4,13.5-1,20.2-1.6c-4.1,3.8-8.2,7.5-12.3,11c-4.2,3.5-8.5,7-13,10.4c-3.2-1.9-6.6-3.6-10.1-5.1s-7-3-10.4-4.5
		C293.3,173.1,294.3,171.7,295.4,170.4z"/>
</g>
</svg>
