<?xml version="1.0" encoding="utf-8"?>
<!-- Generator: Adobe Illustrator 21.0.2, SVG Export Plug-In . SVG Version: 6.00 Build 0)  -->
<svg version="1.1" id="beachcombing_xA0_Image_1_" xmlns="http://www.w3.org/2000/svg" xmlns:xlink="http://www.w3.org/1999/xlink"
	 x="0px" y="0px" viewBox="0 0 635.8 634.2" style="enable-background:new 0 0 635.8 634.2;" xml:space="preserve">
<style type="text/css">
	.st0{fill:#FFFF00;}
	.st1{fill:#573922;stroke:#2B1C11;stroke-width:30;stroke-miterlimit:10;}
	.st2{fill:#FFFFFF;stroke:#FFFFFF;stroke-miterlimit:10;}
</style>
<ellipse class="st0" cx="318.7" cy="317.7" rx="318.7" ry="317.7"/>
<ellipse class="st1" cx="317.9" cy="317.9" rx="273.5" ry="272.7"/>
<g>
	<rect x="256.6" y="91.9" class="st2" width="41.2" height="29.8"/>
	<rect x="339" y="91.9" class="st2" width="41.2" height="29.8"/>
	<path class="st2" d="M235.7,131.8h62.1v83c0,0,2.4,6-13.7,6.6v78.8c0,0,1.2,3.6-3.6,6.6h-67.4c0,0-1.8,0-3.6-5.4v-59.7L235.7,131.8
		z"/>
	<rect x="306.8" y="131.8" class="st2" width="22.7" height="75.8"/>
	<path class="st2" d="M339,131.8h62.7l26.3,109.8v59.7c0,0,0.6,1.2-4.2,5.4h-64.2c0,0-3.3-1.8-8.1-6l0.6-81.5c0,0-10.7,4.5-13.1-4.5
		V131.8z"/>
</g>
</svg>
