<?xml version="1.0" encoding="utf-8"?>
<!-- Generator: Adobe Illustrator 19.0.0, SVG Export Plug-In . SVG Version: 6.00 Build 0)  -->
<svg version="1.1" id="beachcombing_xA0_Image_1_" xmlns="http://www.w3.org/2000/svg" xmlns:xlink="http://www.w3.org/1999/xlink"
	 x="0px" y="0px" viewBox="18 -17.2 635.8 634.2" style="enable-background:new 18 -17.2 635.8 634.2;" xml:space="preserve">
<style type="text/css">
	.st0{fill:#FFFF00;}
	.st1{fill:#573922;stroke:#2B1C11;stroke-width:30;stroke-miterlimit:10;}
	.st2{fill:#FFFFFF;}
</style>
<ellipse class="st0" cx="336.7" cy="300.5" rx="318.7" ry="317.7"/>
<ellipse class="st1" cx="335.9" cy="300.7" rx="273.5" ry="272.7"/>
<g>
	<path class="st2" d="M407.1,162.6L367.2,135c-4.4-18.9-8.7-31.7-12.7-38.6c-4.1-6.9-9.7-10.3-16.8-10.3c-5.4,0-10.5,2.8-15.1,8.3
		c-2,2.4-5,6-9.2,10.9l10-24.5c-3.7-5.4-9.7-7.7-18.1-6.9l-24.7,54.6c4.9,7.4,11,10.5,18.1,9.2c-3.5,9.6-5.2,17.9-5.2,25.1
		c0,5.9,1.7,10.8,5.2,14.7c-0.7,1.5-1.8,4.3-3.3,8.5l-29.9,93.6l16.2,11.1l38.4-85.3c6.2,7.6,11.6,13.9,16.2,18.8l3.3,18.1
		l-24.4,41.4l13.2,2.2l14.7-25.1l4.8,28.1l24.6-4.8l-11.1-55.4l32.9-56.5l5.5,3L407.1,162.6z M383.4,167l-26.6,46.2
		c-4.9-20.7-11.8-37.1-20.7-49.1c4.4-7.4,8.4-14.8,11.8-22.2l4.4,10L383.4,167z M372.4,66c0-4.9-1.7-8.9-5-12.2
		c-3.3-3.3-7.4-4.9-12.4-4.9c-4.7,0-8.7,1.6-12.2,4.9c-3.5,3.3-5.2,7.4-5.2,12.2c0,4.6,1.7,8.7,5.2,12.1c3.4,3.4,7.5,5.1,12.2,5.1
		c4.9,0,9-1.7,12.4-5.1C370.7,74.6,372.4,70.6,372.4,66z"/>
</g>
</svg>
