<?xml version="1.0" encoding="utf-8"?>
<!-- Generator: Adobe Illustrator 19.0.0, SVG Export Plug-In . SVG Version: 6.00 Build 0)  -->
<svg version="1.1" id="beachcombing_xA0_Image_1_" xmlns="http://www.w3.org/2000/svg" xmlns:xlink="http://www.w3.org/1999/xlink"
	 x="0px" y="0px" viewBox="38 -37.3 575.8 574.3" style="enable-background:new 38 -37.3 575.8 574.3;" xml:space="preserve">
<style type="text/css">
	.st0{fill:#573922;stroke:#2B1C11;stroke-width:30;stroke-miterlimit:10;}
	.st1{display:none;}
	.st2{display:inline;fill:#FFFFFF;}
	.st3{fill:#FFFFFF;}
</style>
<ellipse class="st0" cx="325.9" cy="251.7" rx="273.5" ry="272.7"/>
<g class="st1">
	<path class="st2" d="M411.2,91.3c-0.5,0-1,0-1.5,0c-1.2-0.5-2.4-0.8-3.5-1.4c-1.6-1-3.1-2.2-4.7-3.3c-1.5-1.1-3.1-1.7-5-1.6
		c-1.3,0-2.6,0-3.8,0c-3.1-0.1-4.9-1.4-5.9-4.4c-0.4-1.1-0.7-2.2-1-3.3c-0.6-2.3-1.7-4.2-3.5-5.7c-5.2-4.5-10.4-9.1-15.5-13.7
		c-5.4-4.9-10.3-10.1-12.5-17.2c0-0.1,1.3,3.9-0.3-0.2c-1.6-4.1,0-3.9,0-5.9c0.9-1.5,1.8-3,2.9-4.4c0.7-0.9,1.1-1.6,0.8-2.7
		c-0.8-3.7,0.2-7,3.3-9.3c1.8-1.4,4-2.3,6.1-3.3c0.7-0.3,1.2-0.6,1.4-1.4c1.1-6.3,4.9-9.7,11.4-10.1c1.1-0.1,1.8-0.5,2.3-1.5
		c3.2-6.7,8.1-9.1,15.3-7.5c0.4,0.1,1.1,0.1,1.4-0.2c2-2.1,7-4.5,7-4.5s2.4-1.6,5.6,0c0.3,0.2,0.6,0.4,0.9,0.5
		c1.7,1.1,3.5,2,5.2,3.2c0.9,0.7,1.6,1,2.8,0.6c3.7-1.1,7.1-0.4,9.9,2.2c1.6,1.4,2.8,3.3,4.1,5c0.5,0.6,0.9,1.1,1.8,0.9
		c3.2-0.7,5.9,0.3,8.3,2.3c2.9,2.4,4.6,5.5,6.1,8.8c0.4,0.8,1.1,1.8,1.8,2.1c5.5,2.1,8,6.4,8.6,11.9c0.2,1.8,0.5,3.4,2.3,4.5
		c0.9,0.6,1.4,2,2.1,3c0.2,0.3,0.5,1.1,0.5,1.1s1.6,2.7,0,5.4c-2,4.2-0.3,0.3-0.3,0.5c-1.1,3.1-2.9,5.9-4.9,8.4
		c-5.7,7.1-12.1,13.6-18.6,19.9c-2.1,2.1-3.7,4.4-4.8,7.1c-0.6,1.5-1.3,3-2,4.4c-1.5,2.6-3.8,3.8-6.8,3.6c-0.9,0-1.8-0.1-2.7-0.1
		c-2.3-0.1-4.3,0.6-6.1,2C417.1,88.7,414.3,90.3,411.2,91.3z"/>
</g>
<g>
	<path class="st3" d="M556.6,152.6c-6.1-8.4-58.2-18-156.1-28.7C381.3,99,368,86.6,360.3,86.6C342.7,86.2,327,86,313.2,86
		c-13.8,0-25.6,0-35.6,0h-21.2l-17.2,17.2c-11.9,11.9-18.6,17.8-20.1,17.8c-5.4,0-13.2,0.7-23.5,2c-10.3,1.3-23.3,3.4-39,6
		c-32.1,5.7-50.9,10.3-56.3,13.8c-2.7,1.5-4,5.7-4,12.6c0,5.7,1,13,2.9,21.8l78.6,9.2c10.3-22.6,25.4-33.9,45.3-33.9h1.7
		c15.3,0,29.1,11.3,41.3,33.9h171.6c6.1-23,20.5-34.4,43.1-34.4c16.5,0,27.9,4,34.4,12.1c8,16.8,14.5,25.3,19.5,25.3
		c3.8,0,9.6-5,17.2-14.9c2.7-3.8,4-7.5,4-10.9C556,155.9,556.2,152.2,556.6,152.6z M253.5,193.9c0-8.4-2.9-15.8-8.6-22.1
		c-5.7-6.3-12.8-9.5-21.2-9.5c-8.4,0-15.6,3-21.5,8.9c-5.9,5.9-8.9,13.1-8.9,21.5c0,8.8,2.9,16.2,8.6,22.1
		c5.7,5.9,12.8,8.9,21.2,8.9c8.8,0,16.1-2.9,21.8-8.6C250.7,209.4,253.5,202.4,253.5,193.9z M242.1,196.8c0,11.9-6.3,17.8-18.9,17.8
		c-12.3,0-18.4-5.9-18.4-17.8c0-12.2,5.9-18.4,17.8-18.4C235.5,178.4,242.1,184.6,242.1,196.8z M381.5,132.5H261l18.4-24.7h84.4
		L381.5,132.5z M515.3,192.8c0-8-2.9-15.3-8.6-21.8c-5.7-6.5-12.4-9.8-20.1-9.8c-8.8,0-16.3,3.1-22.4,9.2
		c-6.1,6.1-9.2,13.6-9.2,22.4c0,8.4,3,15.7,8.9,21.8c5.9,6.1,12.9,9.2,21,9.2c8.8,0,16.1-3,21.8-8.9
		C512.4,209,515.3,201.6,515.3,192.8z M503.2,196.8l0.6-1.1c0,12.6-5.9,18.9-17.8,18.9c-13,0-19.5-5.9-19.5-17.8v-1.7
		c0-11.1,5.9-16.6,17.8-16.6C496.9,178.4,503.2,184.6,503.2,196.8z"/>
</g>
</svg>
