<?xml version="1.0" encoding="utf-8"?>
<!-- Generator: Adobe Illustrator 19.0.0, SVG Export Plug-In . SVG Version: 6.00 Build 0)  -->
<svg version="1.1" id="beachcombing_xA0_Image_1_" xmlns="http://www.w3.org/2000/svg" xmlns:xlink="http://www.w3.org/1999/xlink"
	 x="0px" y="0px" viewBox="38 -37.3 575.8 574.3" style="enable-background:new 38 -37.3 575.8 574.3;" xml:space="preserve">
<style type="text/css">
	.st0{fill:#573922;stroke:#2B1C11;stroke-width:30;stroke-miterlimit:10;}
	.st1{display:none;}
	.st2{display:inline;fill:#FFFFFF;}
	.st3{fill:#FFFFFF;}
</style>
<ellipse class="st0" cx="325.9" cy="251.7" rx="273.5" ry="272.7"/>
<g class="st1">
	<path class="st2" d="M411.2,91.3c-0.5,0-1,0-1.5,0c-1.2-0.5-2.4-0.8-3.5-1.4c-1.6-1-3.1-2.2-4.7-3.3c-1.5-1.1-3.1-1.7-5-1.6
		c-1.3,0-2.6,0-3.8,0c-3.1-0.1-4.9-1.4-5.9-4.4c-0.4-1.1-0.7-2.2-1-3.3c-0.6-2.3-1.7-4.2-3.5-5.7c-5.2-4.5-10.4-9.1-15.5-13.7
		c-5.4-4.9-10.3-10.1-12.5-17.2c0-0.1,1.3,3.9-0.3-0.2c-1.6-4.1,0-3.9,0-5.9c0.9-1.5,1.8-3,2.9-4.4c0.7-0.9,1.1-1.6,0.8-2.7
		c-0.8-3.7,0.2-7,3.3-9.3c1.8-1.4,4-2.3,6.1-3.3c0.7-0.3,1.2-0.6,1.4-1.4c1.1-6.3,4.9-9.7,11.4-10.1c1.1-0.1,1.8-0.5,2.3-1.5
		c3.2-6.7,8.1-9.1,15.3-7.5c0.4,0.1,1.1,0.1,1.4-0.2c2-2.1,7-4.5,7-4.5s2.4-1.6,5.6,0c0.3,0.2,0.6,0.4,0.9,0.5
		c1.7,1.1,3.5,2,5.2,3.2c0.9,0.7,1.6,1,2.8,0.6c3.7-1.1,7.1-0.4,9.9,2.2c1.6,1.4,2.8,3.3,4.1,5c0.5,0.6,0.9,1.1,1.8,0.9
		c3.2-0.7,5.9,0.3,8.3,2.3c2.9,2.4,4.6,5.5,6.1,8.8c0.4,0.8,1.1,1.8,1.8,2.1c5.5,2.1,8,6.4,8.6,11.9c0.2,1.8,0.5,3.4,2.3,4.5
		c0.9,0.6,1.4,2,2.1,3c0.2,0.3,0.5,1.1,0.5,1.1s1.6,2.7,0,5.4c-2,4.2-0.3,0.3-0.3,0.5c-1.1,3.1-2.9,5.9-4.9,8.4
		c-5.7,7.1-12.1,13.6-18.6,19.9c-2.1,2.1-3.7,4.4-4.8,7.1c-0.6,1.5-1.3,3-2,4.4c-1.5,2.6-3.8,3.8-6.8,3.6c-0.9,0-1.8-0.1-2.7-0.1
		c-2.3-0.1-4.3,0.6-6.1,2C417.1,88.7,414.3,90.3,411.2,91.3z"/>
</g>
<g>
	<path class="st3" d="M280.1,205.4l-2.4,2.7l-1.8,0.3l-0.3,2.1l1.8,0.9l-0.6,2.4h-2.1l-0.3,2.1l1.8,1.5l-0.6,2.1l-2.1-0.3l-1.2,1.8
		l1.5,1.5l-1.2,1.8l-1.8-0.9l-1.8,1.8l1.8,2.1l-1.5,1.5l-1.8-0.9l-1.5,1.5l0.6,0.6l-1.5,1.5l-1.8-1.2l-1.5,1.5l0.3,1.8l-1.8,1.2
		l-1.2-1.5l-1.8,1.2l0.3,2.1l-2.1,0.9l-1.5-1.5l-1.8,0.9l0.3,2.4l-1.8,0.9l-1.2-2.1l-1.8,0.3v2.4h-1.5l-0.6-1.8l-2.1,0.3l-0.3,1.8
		h-1.8l-0.3-1.8l-2.4-0.3l-0.6,1.8h-1.8v-2.4l-2.1-0.3l-1.2,1.8l-2.1-0.3l0.3-2.4l-1.8-0.9l-1.5,1.5l-1.8-0.9l0.3-2.1l-1.8-1.2
		l-1.5,1.5l-1.8-1.2l0.9-1.8l-1.8-1.5l-1.5,1.2l-2.1-1.5l1.2-1.8l-1.8-1.5l-1.8,0.9l-1.2-1.5l1.2-2.1l-1.5-1.8l-1.8,0.9l-1.2-1.8
		l1.5-1.5l-1.2-2.1l-1.8,0.6l-0.6-1.8l0.9-1.5l-0.6-2.1h-1.8l-0.6-2.4l2.1-0.9l-0.3-2.1l-2.7-0.3l-0.3-2.1l2.7-1.2l-0.3-2.1
		l-2.1-0.9v-2.4l2.4-0.3l0.3-2.1l-2.1-1.2l0.3-2.1h2.4l0.6-2.1l-1.8-1.2l0.6-2.1l1.8,0.6l0.3-2.7l-1.8-1.8l1.2-1.8l1.8,0.9l1.2-2.1
		l-1.5-1.5l1.5-1.8l1.8,0.6l1.5-1.5l-1.5-1.8l1.5-1.8l1.8,1.2l2.1-1.5l-0.9-1.8l2.1-1.8l1.8,1.2l1.8-1.2l-0.3-1.8l1.8-1.2l1.8,1.5
		l1.8-1.2l-0.3-1.8l1.8-0.9l1.5,1.5l2.1-0.3v-2.1l1.8-0.3l1.2,1.8l2.1-0.3l0.3-2.4h2.1l0.6,2.1h1.8l0.6-2.4h2.1l0.3,2.4l1.8,0.3
		l1.2-1.8l1.8,0.3v2.1l1.8,0.3l0.9-1.2l2.7,0.9l-0.6,1.8l2.1,1.2l1.5-1.5l2.4,1.5l-0.9,1.8l1.8,1.5l1.8-1.5l1.5,1.5l-0.9,1.8
		l1.2,2.1l1.8-1.5l1.8,1.8l-1.5,1.8l1.8,1.8l1.8-1.2l0.9,1.8l-1.5,1.8l1.5,2.1l1.8-0.3l0.9,1.8l-1.5,1.2l0.9,2.4h2.1l0.6,1.8
		l-1.5,1.2l0.3,2.4l2.1,0.3l0.3,1.8L278,197l0.3,1.8l1.8,0.6v2.4l-1.8,0.9v2.1L280.1,205.4z M283.7,71.1H210v-7.5h7.2l29.7-53
		l29.4,53h7.5L283.7,71.1L283.7,71.1z M445.8,165.8c1,0.2,1.7,0.6,2.1,1c0.4,0.5,0.5,0.9,0.3,1.3c0,1-0.4,1.8-1.3,2.5
		c-0.9,0.7-2.2,1.3-4,1.9l-30.9,9c-3.8-2.2-7.9-3.8-12.3-4.8c-4.4-1-9.1-1.5-14.1-1.5c-10,0-18.4,2.6-25.2,7.8
		c-6.8,5.2-12.2,12.9-16.2,23.1l-53,1.8c0.8-8.8-0.3-17.1-3.3-24.9c-3-7.8-7.9-15-14.7-21.6c-3.8-3.8-7.6-6.5-11.5-8.1
		c-3.9-1.6-7.7-2.1-11.5-1.5l-24.3,3c-0.6-0.2-1-0.6-1.3-1.3c-0.3-0.7-0.4-1.6-0.1-2.8c0.2-1.4,0.4-2.4,0.7-3.1
		c0.3-0.7,0.8-1.1,1.6-1.3l22.8-6.6l6.6-1.2l6.9,0.3c1.4-2.6,2.6-4.8,3.7-6.6c1.1-1.8,1.9-3.3,2.5-4.5l25.8,0.9
		c0.2-5.6,0.7-11.1,1.5-16.5c0.8-5.4,1.8-10.7,3-15.9c1.6-7.6,3.7-13.3,6.4-17.1c2.7-3.8,5.7-5.7,9.1-5.7h8.1c4,0,7.4,0.4,10.2,1
		c2.8,0.7,4.9,1.8,6.3,3.4l15,15.9c5.6,1.2,10.4,2.3,14.4,3.3c4,1,7.3,1.8,9.9,2.4c0.6-0.2,1.5-0.2,2.7-0.1c1.2,0.1,2.5,0.4,3.9,1
		c0.6,0.4,1.1,0.9,1.5,1.3c0.4,0.5,0.8,0.9,1.2,1.3c1.4-0.4,2.5-0.2,3.3,0.4c0.8,0.7,1.2,2.1,1.2,4c0,0.6-0.1,1.2-0.4,1.6
		c-0.3,0.5-0.7,0.7-1.3,0.7l-9.6,2.7l1.5,5.4l5.4-0.3l4.2,15.3l-2.4,3.3l7.2,10.8c0.8,0.8,1.4,1.5,1.8,2.1c0.4,0.6,0.9,1,1.5,1.2
		L445.8,165.8z M257.9,202.1c0-2.2-0.4-4.3-1.2-6.3c-0.8-2-2-3.7-3.6-5.1c-1.4-1.6-3-2.8-4.8-3.7c-1.8-0.9-3.7-1.3-5.7-1.3
		c-2,0-3.9,0.4-5.8,1.3c-1.9,0.9-3.4,2.1-4.6,3.7c-1.6,1.4-2.8,3.1-3.6,5.1c-0.8,2-1.2,4.1-1.2,6.3c0,2.2,0.4,4.3,1.3,6.3
		c0.9,2,2,3.8,3.4,5.4c1.2,1.4,2.7,2.5,4.6,3.4c1.9,0.9,3.8,1.3,5.8,1.3c2,0,3.9-0.4,5.7-1.3c1.8-0.9,3.4-2,4.8-3.4
		c1.6-1.6,2.8-3.4,3.6-5.4C257.5,206.4,257.9,204.3,257.9,202.1z M258.8,63.6l-12-22.5l-12.3,22.5H258.8z M355.9,170.9
		c0-0.6-0.3-1.1-0.7-1.5c-0.5-0.4-1.3-0.7-2.2-0.9l-29.4-1.5h-6c-4.8,0-8.4,1.3-10.8,4c-2.4,2.7-3.6,6.6-3.6,11.8
		c0,1.6,0.4,3.3,1.3,5.1c0.9,1.8,2.3,3.7,4.3,5.7l5.4-0.3c-0.4-0.6-0.7-1.4-0.9-2.4c-0.2-1-0.3-2-0.3-3c0-4,0.9-7,2.7-9
		c1.8-2,4.6-3,8.4-3c3.8,0,6.6,1,8.5,3c1.9,2,2.8,5,2.8,9c0,0.6-0.1,1.4-0.4,2.4c-0.3,1-0.7,2-1,3l4.2,1.2c0.8-2.4,1.7-4.6,2.8-6.6
		c1.1-2,2.2-3.9,3.4-5.7c1-1,2.2-2.1,3.6-3.3c1.4-1.2,3-2.5,4.8-3.9c1-1.2,1.7-2,2.2-2.5C355.7,172,355.9,171.5,355.9,170.9z
		 M349,44.5c0,0.6-0.4,1.2-1.3,1.8c-0.9,0.6-2.1,1.5-3.7,2.7l-5.4,1.8c-0.8,3.8-1.6,6.8-2.5,9c-0.9,2.2-1.9,3.6-3.1,4.2
		c-0.6,1-1.5,1.8-2.7,2.4c-1.2,0.6-2.5,0.9-3.9,0.9c-1.6,0-3.1-0.4-4.5-1.3c-1.4-0.9-2.8-2.1-4.2-3.7c-1.4-2-2.4-4-3.1-6
		c-0.7-2-1-4.3-1-6.9c0-2.6,0.4-5,1.2-7.3c0.8-2.3,1.9-4.2,3.3-5.8c1.6-1.8,3.3-3.1,5.2-4c1.9-0.9,3.9-1.3,6.1-1.3
		c2,0,4.1,0.4,6.3,1.3c2.2,0.9,4.4,2.2,6.6,4c2.4,1.6,4.1,3.1,5.2,4.6C348.5,42.2,349,43.5,349,44.5z M370.3,134.3l-4.5-14.1
		c-0.2-0.8-0.7-1.4-1.5-1.8c-0.8-0.4-1.8-0.4-3,0c-2.6,0.8-4.6,1.4-6,1.8c-1.4,0.4-2.3,0.6-2.7,0.6c-0.4,0-0.7-0.1-1-0.3
		c-0.3-0.2-0.6-0.6-0.7-1.2c-0.2-0.2-0.5-0.5-0.9-0.9c-0.4-0.4-0.9-0.8-1.5-1.2l-14.4-1.2l-2.1-0.9l-1.5,6.9
		c9.2-0.6,16.6,0,22.3,1.8c5.7,1.8,9.7,4.9,12.1,9.3L370.3,134.3z M377.5,119.7l-2.7-8.7c-0.2-1.2-0.2-2,0-2.5
		c0.2-0.5,0.6-1,1.2-1.6l-25.2-1.2l-9-3.3l-1.5,1.5c1.6,1.2,3.4,2.2,5.5,3c2.1,0.8,4.3,1.5,6.7,2.1c1.2-0.8,2.4-1.3,3.7-1.6
		c1.3-0.3,2.4-0.3,3.4-0.1c0.8,0.4,1.5,0.8,2.1,1.2c0.6,0.4,1.1,0.8,1.5,1.2c0.4-0.2,0.8-0.4,1.2-0.6c0.4-0.2,0.8-0.3,1.2-0.3
		c1.2-0.2,2.1-0.1,2.7,0.3c0.6,0.4,0.9,1.1,0.9,2.1l3,10.2L377.5,119.7z M413.1,223.6l-1.5-0.3l-0.3,1.5l1.5,1.5l-0.3,1.5H411
		l-0.9,1.8l1.8,0.9l-0.6,1.5h-2.1l-0.6,1.5l1.2,1.2l-0.9,1.5l-1.5-0.9l-1.2,1.5l1.2,1.5l-1.2,1.5l-1.5-0.3l-1.5,1.2l0.9,1.5
		l-1.2,1.2l-1.2-1.2l-1.5,1.2l4.2,1.2l-1.5,1.2l-1.2-1.2l-1.5,0.9l0.3,1.8l-1.5,0.9l-1.5-1.5l-1.5,0.9v1.5l-1.8,0.9l-0.6-1.5
		l-1.8,0.3v1.5l-1.8,0.3l-0.3-1.5H388l-0.3,1.5h-1.5l-0.3-1.5h-2.1l-0.6,1.5l-1.5-0.3l-0.3-1.5l-1.5-0.3l-1.2,1.2l-1.5-0.3v-1.5
		l-1.5-0.9l-1.2,1.5l-1.5-1.2l0.3-1.5l-1.8-0.9l-1.2,1.2l-1.5-1.2l0.3-1.5l-1.5-1.2l-1.2,1.2l-1.5-1.2l0.6-1.5l-1.2-1.5l-1.5,0.9
		l-1.2-1.2l1.2-1.8l-1.2-1.5l-1.5,0.9l-1.5-1.5l1.8-1.2l-1.5-1.5h-1.5l-0.9-1.5l1.5-0.9l-0.6-1.8h-1.5l-0.3-1.8l1.5-1.2l-0.3-1.5
		l-1.8-0.3v-1.5l1.5-0.6v-1.8l-1.5-0.3v-1.8h1.2l0.9-1.8l-1.5-0.9v-2.1h1.8l-0.3-0.9l-1.5-1.2l0.6-1.5h1.5l0.6-1.5l-1.2-1.2l0.9-1.8
		l1.8,0.3l1.2-1.5l-1.2-1.2l0.6-1.5l1.2,0.6l1.2-1.8l-0.6-1.5l1.2-1.2l1.5,0.6l1.2-1.5l-0.6-1.5l0.9-1.2l1.5,1.2l1.5-0.9l-0.3-1.5
		l2.1-0.6l1.2,1.5l1.5-0.9l-0.3-1.5l1.5-0.9l0.6,1.5l1.8-0.9v-1.5l1.5-0.3l0.6,1.5l0.9-0.3l0.3-1.5h1.5l0.3,1.5h1.8l0.9-1.5h1.5
		l0.3,1.5l1.8,0.3l1.2-1.5h0.9v1.5l1.8,0.9l0.6-1.5l1.5,0.9v1.5l1.2,0.9l1.2-1.2l1.2,0.6l-0.3,1.5l1.5,1.2l1.2-1.2l1.5,1.2l-0.6,1.5
		l1.5,1.2l0.9-0.3l0.9,0.6l-0.6,1.5l1.2,1.8l1.2-1.2l1.5,2.1l-1.2,1.2l1.2,1.2l1.5-0.3l0.9,1.5l-1.5,1.2l0.3,2.1l2.1-0.6l0.6,1.8
		l-1.5,0.9l0.3,1.8h1.5l0.3,2.1l-1.5,0.9l0.3,1.8h1.5v1.8l-1.5,0.3v1.8l1.5,0.9L413.1,223.6L413.1,223.6z M395.5,219.4
		c0-4.2-0.9-7.3-2.7-9.4c-1.8-2.1-4.7-3-8.7-2.8c-3.8,0-6.6,1-8.5,3c-1.9,2-2.8,5.1-2.8,9.3c0,4.2,0.9,7.3,2.7,9.3
		c1.8,2,4.7,3,8.7,3c4,0,6.9-1,8.7-3C394.6,226.7,395.5,223.6,395.5,219.4z M442.5,189.5l-1.8,0.3v1.8l1.2,0.6v1.8l-1.5,0.3
		l-0.3,1.5l1.2,0.9l-0.3,1.8h-1.2l-0.6,1.5l1.5,2.4l-0.6,1.5h-1.5l-0.6,1.5l2.4,0.3l-1.2,1.5l-1.5-0.9l-1.2,1.5l1.2,1.5l-1.2,1.2
		l-1.8-0.9l-1.2,1.5l0.6,1.5l-1.5,1.5l-1.2-1.5l-1.5,1.5l0.9,1.5l-1.5,1.2l-1.2-1.2l-1.8,0.9l0.3,1.5l-1.5,0.9l-1.2-1.2l-1.8,0.9
		v1.5l-1.5,0.3l-1.2-1.2l-0.3-16.5c1.8-1,3.2-2.3,4.2-4c1-1.7,1.5-3.6,1.5-5.8c0-1-0.1-2-0.4-3c-0.3-1-0.6-1.9-0.7-2.7l16.5-3.9h1.8
		l0.3,1.5l-1.5,0.9v2.1h1.5L442.5,189.5z"/>
</g>
</svg>
