<?xml version="1.0" encoding="utf-8"?>
<!-- Generator: Adobe Illustrator 19.0.0, SVG Export Plug-In . SVG Version: 6.00 Build 0)  -->
<svg version="1.1" id="beachcombing_xA0_Image_1_" xmlns="http://www.w3.org/2000/svg" xmlns:xlink="http://www.w3.org/1999/xlink"
	 x="0px" y="0px" viewBox="38 -37.3 575.8 574.3" style="enable-background:new 38 -37.3 575.8 574.3;" xml:space="preserve">
<style type="text/css">
	.st0{fill:#573922;stroke:#2B1C11;stroke-width:30;stroke-miterlimit:10;}
	.st1{display:none;}
	.st2{display:inline;fill:#FFFFFF;}
	.st3{fill:#FFFFFF;}
</style>
<ellipse class="st0" cx="325.5" cy="251" rx="273.5" ry="272.7"/>
<g class="st1">
	<path class="st2" d="M335.2,165.9c-0.5,0-1,0-1.5,0c-1.2-0.5-2.4-0.8-3.5-1.4c-1.6-1-3.1-2.2-4.7-3.3c-1.5-1.1-3.1-1.7-5-1.6
		c-1.3,0-2.6,0-3.8,0c-3.1-0.1-4.9-1.4-5.9-4.4c-0.4-1.1-0.7-2.2-1-3.3c-0.6-2.3-1.7-4.2-3.5-5.7c-5.2-4.5-10.4-9.1-15.5-13.7
		c-5.4-4.9-10.3-10.1-12.5-17.2c0-0.1,1.3,3.9-0.3-0.2c-1.6-4.1,0-3.9,0-5.9c0.9-1.5,1.8-3,2.9-4.4c0.7-0.9,1.1-1.6,0.8-2.7
		c-0.8-3.7,0.2-7,3.3-9.3c1.8-1.4,4-2.3,6.1-3.3c0.7-0.3,1.2-0.6,1.4-1.4c1.1-6.3,4.9-9.7,11.4-10.1c1.1-0.1,1.8-0.5,2.3-1.5
		c3.2-6.7,8.1-9.1,15.3-7.5c0.4,0.1,1.1,0.1,1.4-0.2c2-2.1,7-4.5,7-4.5s2.4-1.6,5.6,0c0.3,0.2,0.6,0.4,0.9,0.5
		c1.7,1.1,3.5,2,5.2,3.2c0.9,0.7,1.6,1,2.8,0.6c3.7-1.1,7.1-0.4,9.9,2.2c1.6,1.4,2.8,3.3,4.1,5c0.5,0.6,0.9,1.1,1.8,0.9
		c3.2-0.7,5.9,0.3,8.3,2.3c2.9,2.4,4.6,5.5,6.1,8.8c0.4,0.8,1.1,1.8,1.8,2.1c5.5,2.1,8,6.4,8.6,11.9c0.2,1.8,0.5,3.4,2.3,4.5
		c0.9,0.6,1.4,2,2.1,3c0.2,0.3,0.5,1.1,0.5,1.1s1.6,2.7,0,5.4c-2,4.2-0.3,0.3-0.3,0.5c-1.1,3.1-2.9,5.9-4.9,8.4
		c-5.7,7.1-12.1,13.6-18.6,19.9c-2.1,2.1-3.7,4.4-4.8,7.1c-0.6,1.5-1.3,3-2,4.4c-1.5,2.6-3.8,3.8-6.8,3.6c-0.9,0-1.8-0.1-2.7-0.1
		c-2.3-0.1-4.3,0.6-6.1,2C341.1,163.3,338.3,164.9,335.2,165.9z"/>
</g>
<path class="st3" d="M347.3,101.8c-1.1-0.9-3.6-2.7-7.5-5.5c-1.4-1.1-3.4-2.6-6.2-4.5l-1.7-1l1-0.7l14,10.3l12.3-11l-23.9-21.2
	c-0.7-6.2-2.4-15.8-5.1-28.8H321c-1.8,0-5.7-3-11.6-8.9c-7.1,7.5-12.6,22.5-16.7,44.9l-1,5.5c0,1.1-0.2,3.2-0.7,6.2v-1
	c-0.2,1.1-0.3,3.3-0.3,6.5c0,1.1-0.9,2.9-2.7,5.1c-0.5,0.7-2.4,1-5.8,1c-2.5,0-6.4-0.3-11.6-0.9c-5.2-0.6-9.1-0.9-11.6-0.9
	c-11.4,0-21.2,2.6-29.4,7.9c-9.8,6.2-14.7,14.6-14.7,25.3c0,1.6,0.3,3.9,0.9,7c0.6,3.1,0.9,5.4,0.9,7c-0.2,0.9-0.7,3.7-1.4,8.2
	c-1.1,7.5-5,14.8-11.6,21.9c9.8-0.7,17.1-2.7,21.9-6.2c-2,3.2-4.9,6.3-8.5,9.2c-0.7,16.2-3,29-6.8,38.4l-6.1,3.8l7.9,24.7
	c5.7-5.7,11.8-10.5,18.4-14.4c0.5-2.5,1.1-4.3,2-5.5l2.7-3.4c1.1-2.5,1.7-4.8,1.7-6.8c0-4.3,1.6-11.8,4.8-22.3l1.4-1
	c3-2.3,4.8-3.9,5.5-4.8l9.6-14.4c1.8,2.9,2.7,7,2.7,12.3v3.7c0,2,2.1,6.1,6.2,12.2c6.6,10,9.9,17,9.9,21.1c0,0.7,0,1.4,0,2
	c0,1.8,1.5,3.3,4.4,4.4l0.7,0.4c1.6,4.8,3.8,7.1,6.8,7.1h17.3c4.3,0,6.4-2.1,6.4-6.5c0-2-1.8-4.4-5.5-7.2l-4.1-5.1
	c-1.4-0.7-2.7-2.2-4.1-4.4c-0.7-1.6-1.6-4.2-2.7-7.8c-4.8-10.2-7.2-20.4-7.2-30.7c0-2.3,0.2-5.4,0.7-9.2c0.2,0.6,1.6,1.5,4.1,2.6
	c9.8,1.3,21.3,2.2,34.5,2.9l2.4,19.3l-5.1,9.7l-2,3.1c-0.2,0.2-0.9,0.7-2.1,1.4c-1.6,1.4-3.2,3.8-4.8,7.3l-0.3,1
	c-0.2-0.2-0.7-0.5-1.4-0.7l-5.5,8.6c3.6,3,11.1,9.4,22.5,19.2c1.8-5,2.8-8.8,3.1-11.3c0-1.1,0.1-3.3,0.4-6.5c0.5-0.2,1-0.4,1.7-0.7
	c1.6-3.4,4.8-7.7,9.5-12.7c3-2.5,6.3-6.4,9.9-11.6l-1-19.5c2.3,4.6,5.1,10.1,8.5,16.4c8.4,6.4,12.9,17,13.3,31.9
	c5.2,0.5,8.1,4,8.5,10.6h27.3c0.7-4.8-3-11.2-10.9-19.2c-0.2-0.5-0.6-1.3-1-2.4l-3.4-7.9c-2.3-5.3-5.6-13.4-9.9-24.3l-3.4-23.3
	c0.2-1.1,0.9-3.1,2.1-5.8l3.1-11.6c0.2-0.5,1.2-1.6,3.1-3.4l16.4,12.4c3.7,2.7,7,4,9.9,4c5,0,9.1-3.4,12.3-10.2
	c3.2,0,6.7-1.6,10.4-4.9c3.8-3.3,5.6-6.5,5.6-9.7l-9.2-23.2L431.7,89c1.8-3.9,2.7-9.7,2.7-17.4l-9.2,3.8c-0.7-0.5-1.7-0.7-3.1-0.7
	c-3,1.8-5.4,4.1-7.2,6.8h-0.7c-4.1,0.5-20.8,4.3-50.2,11.6l-4.1-3.1l-9.2,8.2L347.3,101.8z M326.2,0.7c-12.1,1.4-18.1,7.7-18.1,18.8
	c0,5,1.8,9.4,5.5,13c3.6,3.7,8,5.5,13,5.5c5,0,9.5-1.9,13.5-5.6c4-3.8,5.7-8.2,5.3-13.2c-0.7-6.6-2.6-11.1-5.8-13.4
	C334.2,2,329.8,0.3,326.2,0.7z M421.1,137.7c-1.4,0-2.9-0.6-4.4-1.7l-16.4-11.3c2.5-1.4,4.9-2.2,7.2-2.4c3.9,4.3,8.1,7.1,12.6,8.2
	c0.7,0.9,1.5,2.3,2.4,4.1c0.7,0.7,1,1.3,1,1.7C423.3,137.3,422.5,137.7,421.1,137.7z"/>
</svg>
