<?xml version="1.0" encoding="utf-8"?>
<!-- Generator: Adobe Illustrator 19.0.0, SVG Export Plug-In . SVG Version: 6.00 Build 0)  -->
<svg version="1.1" id="beachcombing_xA0_Image_1_" xmlns="http://www.w3.org/2000/svg" xmlns:xlink="http://www.w3.org/1999/xlink"
	 x="0px" y="0px" viewBox="38 -37.3 575.8 574.3" style="enable-background:new 38 -37.3 575.8 574.3;" xml:space="preserve">
<style type="text/css">
	.st0{fill:#573922;stroke:#2B1C11;stroke-width:30;stroke-miterlimit:10;}
	.st1{display:none;}
	.st2{display:inline;fill:#FFFFFF;}
	.st3{fill:#FFFFFF;}
</style>
<ellipse class="st0" cx="327.3" cy="249.4" rx="273.5" ry="272.7"/>
<g class="st1">
	<path class="st2" d="M487.2,16.7c-0.5,0-1,0-1.5,0c-1.2-0.5-2.4-0.8-3.5-1.4c-1.6-1-3.1-2.2-4.7-3.3c-1.5-1.1-3.1-1.7-5-1.6
		c-1.3,0-2.6,0-3.8,0c-3.1-0.1-4.9-1.4-5.9-4.4c-0.4-1.1-0.7-2.2-1-3.3c-0.6-2.3-1.7-4.2-3.5-5.7c-5.2-4.5-10.4-9.1-15.5-13.7
		c-5.4-4.9-10.3-10.1-12.5-17.2c0-0.1,1.3,3.9-0.3-0.2c-1.6-4.1,0-3.9,0-5.9c0.9-1.5,1.8-3,2.9-4.4c0.7-0.9,1.1-1.6,0.8-2.7
		c-0.8-3.7,0.2-7,3.3-9.3c1.8-1.4,4-2.3,6.1-3.3c0.7-0.3,1.2-0.6,1.4-1.4c1.1-6.3,4.9-9.7,11.4-10.1c1.1-0.1,1.8-0.5,2.3-1.5
		c3.2-6.7,8.1-9.1,15.3-7.5c0.4,0.1,1.1,0.1,1.4-0.2c2-2.1,7-4.5,7-4.5s2.4-1.6,5.6,0c0.3,0.2,0.6,0.4,0.9,0.5
		c1.7,1.1,3.5,2,5.2,3.2c0.9,0.7,1.6,1,2.8,0.6c3.7-1.1,7.1-0.4,9.9,2.2c1.6,1.4,2.8,3.3,4.1,5c0.5,0.6,0.9,1.1,1.8,0.9
		c3.2-0.7,5.9,0.3,8.3,2.3c2.9,2.4,4.6,5.5,6.1,8.8c0.4,0.8,1.1,1.8,1.8,2.1c5.5,2.1,8,6.4,8.6,11.9c0.2,1.8,0.5,3.4,2.3,4.5
		c0.9,0.6,1.4,2,2.1,3c0.2,0.3,0.5,1.1,0.5,1.1s1.6,2.7,0,5.4c-2,4.2-0.3,0.3-0.3,0.5c-1.1,3.1-2.9,5.9-4.9,8.4
		c-5.7,7.1-12.1,13.6-18.6,19.9c-2.1,2.1-3.7,4.4-4.8,7.1c-0.6,1.5-1.3,3-2,4.4c-1.5,2.6-3.8,3.8-6.8,3.6c-0.9,0-1.8-0.1-2.7-0.1
		c-2.3-0.1-4.3,0.6-6.1,2C493.1,14.1,490.3,15.7,487.2,16.7z"/>
</g>
<g>
	<path class="st3" d="M437.4,105.2c-4.2,6.9-9.4,12.2-15.5,15.9c-6.1,3.7-13.2,5.5-21.2,5.5c-8.1,0-15.3-1.7-21.5-5.2
		c-6.3-3.5-11.4-8.8-15.5-15.9c-4,7.1-9.2,12.4-15.3,15.9c-6.2,3.5-13.5,5.2-22,5.2c-8.3,0-15.6-1.7-21.8-5.2
		c-6.3-3.5-11.3-8.8-15.2-15.9c-4.2,7.1-9.4,12.4-15.5,15.9c-6.1,3.5-13.3,5.2-21.5,5.2c-8.3,0-15.6-1.7-21.8-5.2
		c-6.3-3.5-11.3-8.8-15.2-15.9V80.7c4.2,6.7,9.3,11.9,15.3,15.3c6,3.5,13.1,5.2,21.4,5.2c8.3,0,15.5-1.7,21.5-5.2
		c6.1-3.5,11.2-8.6,15.5-15.3c4,6.7,9.2,11.9,15.3,15.3c6.2,3.5,13.4,5.2,21.7,5.2c8.3,0,15.5-1.7,21.7-5.2
		c6.2-3.5,11.4-8.6,15.6-15.3c4.2,6.7,9.4,11.9,15.6,15.3c6.2,3.5,13.3,5.2,21.4,5.2c8.1,0,15.2-1.7,21.4-5.2
		c6.2-3.5,11.4-8.6,15.6-15.3L437.4,105.2L437.4,105.2z M437.4,46.8c-4.2,6.9-9.4,12.2-15.3,15.9c-6,3.7-12.9,5.4-20.8,5.2
		c-8.1,0-15.3-1.7-21.5-5.2c-6.3-3.5-11.4-8.8-15.5-15.9c-4,7.1-9.2,12.4-15.3,15.9c-6.2,3.5-13.5,5.2-22,5.2
		c-8.3,0-15.6-1.7-21.8-5.2c-6.3-3.5-11.3-8.8-15.2-15.9c-4.2,7.1-9.4,12.4-15.5,15.9c-6.1,3.5-13.3,5.2-21.5,5.2
		c-8.3,0-15.6-1.7-21.8-5.2c-6.3-3.5-11.3-8.8-15.2-15.9V22c4,6.7,9.1,11.9,15,15.3c6,3.5,13.1,5.2,21.4,5.2
		c8.3,0,15.5-1.7,21.5-5.2c6.1-3.5,11.2-8.6,15.5-15.3c3.9,6.7,8.9,11.9,15,15.3c6.2,3.5,13.4,5.2,21.7,5.2c8.3,0,15.5-1.7,21.7-5.2
		c6.2-3.5,11.4-8.6,15.6-15.3c4.2,6.7,9.4,11.9,15.6,15.3c6.2,3.5,13.3,5.2,21.4,5.2c8.1,0,15.2-1.7,21.4-5.2
		c6.2-3.5,11.4-8.6,15.6-15.3L437.4,46.8L437.4,46.8z M437.4,163.3c-4.2,6.9-9.4,12.1-15.3,15.6c-6,3.5-12.9,5.2-20.8,5.2
		c-8.1,0-15.3-1.7-21.5-5.1c-6.3-3.4-11.4-8.4-15.5-15.2c-4,6.7-9.2,11.8-15.3,15.2c-6.2,3.4-13.5,5.1-22,5.1
		c-8.3,0-15.6-1.7-21.8-5.1c-6.3-3.4-11.3-8.4-15.2-15.2c-4.2,6.7-9.4,11.8-15.5,15.2c-6.1,3.4-13.3,5.1-21.5,5.1
		c-8.3,0-15.6-1.7-21.8-5.2c-6.3-3.5-11.3-8.7-15.2-15.6v-24.6c4,6.7,9.1,11.9,15.2,15.3c6.1,3.5,13.2,5.2,21.5,5.2
		c8.3,0,15.4-1.7,21.4-5.2c6-3.5,11-8.6,15-15.3c4,6.7,9.2,11.8,15.3,15.2c6.2,3.4,13.4,5.1,21.7,5.1c8.3,0,15.5-1.7,21.7-5.1
		c6.2-3.4,11.4-8.4,15.6-15.2c4.2,6.7,9.4,11.8,15.6,15.2c6.2,3.4,13.3,5.1,21.4,5.1c8.1,0,15.2-1.7,21.4-5.1
		c6.2-3.4,11.4-8.4,15.6-15.2L437.4,163.3L437.4,163.3z M437.4,221.5c-4.2,6.9-9.4,12.2-15.3,15.8c-6,3.6-12.9,5.4-20.8,5.6
		c-8.1,0-15.3-1.7-21.5-5.2c-6.3-3.5-11.4-8.8-15.5-15.9c-4,7.1-9.2,12.4-15.3,15.9c-6.2,3.5-13.5,5.2-22,5.2
		c-8.3,0-15.6-1.7-21.8-5.2c-6.3-3.5-11.3-8.8-15.2-15.9c-4.2,7.1-9.4,12.4-15.5,15.9c-6.1,3.5-13.3,5.2-21.5,5.2
		c-8.3,0-15.6-1.8-21.8-5.3c-6.3-3.6-11.3-8.9-15.2-16v-24.6c4.2,6.9,9.3,12.1,15.3,15.5c6,3.4,13.1,5.1,21.4,5.1
		c8.3,0,15.4-1.7,21.4-5.1c6-3.4,11-8.5,15-15.5c4,6.9,9.2,12.1,15.3,15.5c6.2,3.4,13.4,5.1,21.7,5.1c8.3,0,15.5-1.7,21.7-5.1
		c6.2-3.4,11.4-8.5,15.6-15.5c4.2,6.9,9.4,12.1,15.6,15.5c6.2,3.4,13.3,5.1,21.4,5.1c8.1,0,15.2-1.7,21.4-5.1
		c6.2-3.4,11.4-8.5,15.6-15.5L437.4,221.5L437.4,221.5z"/>
</g>
</svg>
