<?xml version="1.0" encoding="utf-8"?>
<!-- Generator: Adobe Illustrator 19.0.0, SVG Export Plug-In . SVG Version: 6.00 Build 0)  -->
<svg version="1.1" id="beachcombing_xA0_Image_1_" xmlns="http://www.w3.org/2000/svg" xmlns:xlink="http://www.w3.org/1999/xlink"
	 x="0px" y="0px" viewBox="38 -37.3 575.8 574.3" style="enable-background:new 38 -37.3 575.8 574.3;" xml:space="preserve">
<style type="text/css">
	.st0{fill:#573922;stroke:#2B1C11;stroke-width:30;stroke-miterlimit:10;}
	.st1{display:none;}
	.st2{display:inline;fill:#FFFFFF;}
	.st3{fill:#FFFFFF;}
</style>
<ellipse class="st0" cx="325.9" cy="251.7" rx="273.5" ry="272.7"/>
<g class="st1">
	<path class="st2" d="M411.2,91.3c-0.5,0-1,0-1.5,0c-1.2-0.5-2.4-0.8-3.5-1.4c-1.6-1-3.1-2.2-4.7-3.3c-1.5-1.1-3.1-1.7-5-1.6
		c-1.3,0-2.6,0-3.8,0c-3.1-0.1-4.9-1.4-5.9-4.4c-0.4-1.1-0.7-2.2-1-3.3c-0.6-2.3-1.7-4.2-3.5-5.7c-5.2-4.5-10.4-9.1-15.5-13.7
		c-5.4-4.9-10.3-10.1-12.5-17.2c0-0.1,1.3,3.9-0.3-0.2c-1.6-4.1,0-3.9,0-5.9c0.9-1.5,1.8-3,2.9-4.4c0.7-0.9,1.1-1.6,0.8-2.7
		c-0.8-3.7,0.2-7,3.3-9.3c1.8-1.4,4-2.3,6.1-3.3c0.7-0.3,1.2-0.6,1.4-1.4c1.1-6.3,4.9-9.7,11.4-10.1c1.1-0.1,1.8-0.5,2.3-1.5
		c3.2-6.7,8.1-9.1,15.3-7.5c0.4,0.1,1.1,0.1,1.4-0.2c2-2.1,7-4.5,7-4.5s2.4-1.6,5.6,0c0.3,0.2,0.6,0.4,0.9,0.5
		c1.7,1.1,3.5,2,5.2,3.2c0.9,0.7,1.6,1,2.8,0.6c3.7-1.1,7.1-0.4,9.9,2.2c1.6,1.4,2.8,3.3,4.1,5c0.5,0.6,0.9,1.1,1.8,0.9
		c3.2-0.7,5.9,0.3,8.3,2.3c2.9,2.4,4.6,5.5,6.1,8.8c0.4,0.8,1.1,1.8,1.8,2.1c5.5,2.1,8,6.4,8.6,11.9c0.2,1.8,0.5,3.4,2.3,4.5
		c0.9,0.6,1.4,2,2.1,3c0.2,0.3,0.5,1.1,0.5,1.1s1.6,2.7,0,5.4c-2,4.2-0.3,0.3-0.3,0.5c-1.1,3.1-2.9,5.9-4.9,8.4
		c-5.7,7.1-12.1,13.6-18.6,19.9c-2.1,2.1-3.7,4.4-4.8,7.1c-0.6,1.5-1.3,3-2,4.4c-1.5,2.6-3.8,3.8-6.8,3.6c-0.9,0-1.8-0.1-2.7-0.1
		c-2.3-0.1-4.3,0.6-6.1,2C417.1,88.7,414.3,90.3,411.2,91.3z"/>
</g>
<g>
	<path class="st3" d="M412,104.4c-2.9-3.1-6.3-6.7-10.1-11l-18.5-19.6c-19.5-20.7-32.6-33.4-39.4-38.3C319.2,17,294.1,6.7,268.7,4.7
		c5.7,3.3,11.6,6.6,17.5,10.1c5.9,3.5,11.9,7.3,17.8,11.3c9,5.7,18.3,19.4,28,41.1L199.5,220l20,16.6L348,89.1l41.8,36.8L412,104.4z
		 M333.6,237.8c0-7.2-3.3-10.7-9.8-10.7c-7,0-10.5,3.6-10.5,10.7c0,5.9,3.5,8.9,10.5,8.9C330.3,246.7,333.6,243.8,333.6,237.8z
		 M405.9,222.8c0-19.4-10.9-29.1-32.6-29.1c-5.7,0-10,3.9-12.9,11.7l4,11.3c-3.1,5.9-8.9,8.9-17.5,8.9v12.3
		c7,8.6,17.8,12.9,32.6,12.9c9.4,0,16.2-2,20.3-6.1C403.8,240.5,405.9,233.2,405.9,222.8z M451.1,233.2c0-5.7-1.3-10.7-3.8-14.9
		c-2.6-4.2-5.8-6.3-9.7-6.3c-0.2,0-1.7,2-4.6,6.1c-2.9,4.1-4.4,6.1-4.6,6.1c-4.9,0-7.4,3.2-7.4,9.5c0,3.7,1.7,6.9,5.2,9.7
		c3.5,2.8,7.7,4.1,12.6,4.1C446.9,241.5,451.1,236.7,451.1,233.2z"/>
</g>
</svg>
