<?xml version="1.0" encoding="utf-8"?>
<!-- Generator: Adobe Illustrator 19.0.0, SVG Export Plug-In . SVG Version: 6.00 Build 0)  -->
<svg version="1.1" id="beachcombing_xA0_Image_1_" xmlns="http://www.w3.org/2000/svg" xmlns:xlink="http://www.w3.org/1999/xlink"
	 x="0px" y="0px" viewBox="38 -37.3 575.8 574.3" style="enable-background:new 38 -37.3 575.8 574.3;" xml:space="preserve">
<style type="text/css">
	.st0{fill:#573922;stroke:#2B1C11;stroke-width:30;stroke-miterlimit:10;}
	.st1{display:none;}
	.st2{display:inline;fill:#FFFFFF;}
	.st3{fill:#FFFFFF;}
</style>
<ellipse class="st0" cx="325.5" cy="251" rx="273.5" ry="272.7"/>
<g class="st1">
	<path class="st2" d="M335.2,165.9c-0.5,0-1,0-1.5,0c-1.2-0.5-2.4-0.8-3.5-1.4c-1.6-1-3.1-2.2-4.7-3.3c-1.5-1.1-3.1-1.7-5-1.6
		c-1.3,0-2.6,0-3.8,0c-3.1-0.1-4.9-1.4-5.9-4.4c-0.4-1.1-0.7-2.2-1-3.3c-0.6-2.3-1.7-4.2-3.5-5.7c-5.2-4.5-10.4-9.1-15.5-13.7
		c-5.4-4.9-10.3-10.1-12.5-17.2c0-0.1,1.3,3.9-0.3-0.2c-1.6-4.1,0-3.9,0-5.9c0.9-1.5,1.8-3,2.9-4.4c0.7-0.9,1.1-1.6,0.8-2.7
		c-0.8-3.7,0.2-7,3.3-9.3c1.8-1.4,4-2.3,6.1-3.3c0.7-0.3,1.2-0.6,1.4-1.4c1.1-6.3,4.9-9.7,11.4-10.1c1.1-0.1,1.8-0.5,2.3-1.5
		c3.2-6.7,8.1-9.1,15.3-7.5c0.4,0.1,1.1,0.1,1.4-0.2c2-2.1,7-4.5,7-4.5s2.4-1.6,5.6,0c0.3,0.2,0.6,0.4,0.9,0.5
		c1.7,1.1,3.5,2,5.2,3.2c0.9,0.7,1.6,1,2.8,0.6c3.7-1.1,7.1-0.4,9.9,2.2c1.6,1.4,2.8,3.3,4.1,5c0.5,0.6,0.9,1.1,1.8,0.9
		c3.2-0.7,5.9,0.3,8.3,2.3c2.9,2.4,4.6,5.5,6.1,8.8c0.4,0.8,1.1,1.8,1.8,2.1c5.5,2.1,8,6.4,8.6,11.9c0.2,1.8,0.5,3.4,2.3,4.5
		c0.9,0.6,1.4,2,2.1,3c0.2,0.3,0.5,1.1,0.5,1.1s1.6,2.7,0,5.4c-2,4.2-0.3,0.3-0.3,0.5c-1.1,3.1-2.9,5.9-4.9,8.4
		c-5.7,7.1-12.1,13.6-18.6,19.9c-2.1,2.1-3.7,4.4-4.8,7.1c-0.6,1.5-1.3,3-2,4.4c-1.5,2.6-3.8,3.8-6.8,3.6c-0.9,0-1.8-0.1-2.7-0.1
		c-2.3-0.1-4.3,0.6-6.1,2C341.1,163.3,338.3,164.9,335.2,165.9z"/>
</g>
<g>
	<path class="st3" d="M297.3,31.9l0.3,25.1l-113.3,1.4L184,33.2L297.3,31.9z M332.3,35.7L332,65.4c-3.5,1.6-6.1,3.9-8.1,6.7
		c-1.9,2.8-2.9,6.2-2.9,10.2c-0.2,4,0.6,7.6,2.5,10.6c1.8,3.1,4.5,5.5,8.2,7.1l-0.5,33.6c0,3.3-0.5,5.8-1.5,7.5
		c-1,1.7-2.4,2.6-4.2,2.6c-1.1-0.2-1.9-0.5-2.5-1.1s-0.8-1.4-0.8-2.5c0-0.5,0.3-1.2,1-1.9c0.6-0.7,1.5-1.5,2.6-2.2l-15.3-22.4
		c-2,6-3.5,10.8-4.5,14.5c-1,3.6-1.5,6.2-1.5,7.6c0,8,1.7,14,5.2,17.9c3.5,3.9,8.8,6,16.1,6.1c7.3,0,12.7-1.9,16.4-5.7
		c3.6-3.8,5.6-9.6,5.7-17.5l0.3-37.1c3.5-1.6,6-3.9,7.8-6.7c1.7-2.8,2.6-6.2,2.6-10.2c0-4-0.8-7.4-2.5-10.2
		c-1.6-2.8-4.1-5.1-7.4-6.7l0.3-27.3h0.3L332.3,35.7z M338.8,81.3c0.4-0.4,0.8-0.5,1.4-0.5c0.7,0,1.3,0.2,1.8,0.5
		c0.5,0.4,0.7,0.8,0.7,1.4c0,0.7-0.2,1.3-0.7,1.6c-0.5,0.4-1,0.5-1.8,0.5c-0.5,0-1-0.2-1.4-0.5c-0.4-0.4-0.5-0.9-0.5-1.6
		C338.3,82.1,338.5,81.6,338.8,81.3z M463.6,150.6c-13.8-2-27-1.4-39.6,1.9c-6.9,1.8-14.4,4.3-22.4,7.4c-8,3.1-15.8,6.5-23.5,10.1
		c-7.6,3.6-14.7,7.2-21.3,10.8c-6.6,3.6-11.8,6.8-15.8,9.7l8.7,11.2l-7.9,10.4c6.7,5.3,13.6,9.6,20.6,13c7,3.4,14,6.1,21,8.3
		c7,2.2,14.1,4,21.3,5.3c7.2,1.4,14.4,2.8,21.7,4.2c20,3.6,31.7,5,35.1,4c3.4-1,5-1.7,4.8-2L463.6,150.6z M374.3,188
		c0.9,0.9,1.4,2.3,1.4,4.1c0,1.8-0.5,3.2-1.4,4.2c-0.9,1-2.3,1.5-4.1,1.5c-1.8,0-3.2-0.5-4.2-1.4c-1-0.9-1.5-2.3-1.5-4.1
		c0-1.8,0.5-3.3,1.4-4.4c0.9-1.1,2.4-1.5,4.4-1.4C372,186.7,373.4,187.1,374.3,188z M463.3,33l0.3,25.1L374,59.2l-0.3-25.4L463.3,33
		z"/>
</g>
</svg>
