<?xml version="1.0" encoding="utf-8"?>
<!-- Generator: Adobe Illustrator 19.0.0, SVG Export Plug-In . SVG Version: 6.00 Build 0)  -->
<svg version="1.1" id="beachcombing_xA0_Image_1_" xmlns="http://www.w3.org/2000/svg" xmlns:xlink="http://www.w3.org/1999/xlink"
	 x="0px" y="0px" viewBox="38 -37.3 575.8 574.3" style="enable-background:new 38 -37.3 575.8 574.3;" xml:space="preserve">
<style type="text/css">
	.st0{fill:#573922;stroke:#2B1C11;stroke-width:30;stroke-miterlimit:10;}
	.st1{display:none;}
	.st2{display:inline;fill:#FFFFFF;}
	.st3{fill:#FFFFFF;}
</style>
<ellipse class="st0" cx="325.9" cy="251.7" rx="273.5" ry="272.7"/>
<g class="st1">
	<path class="st2" d="M411.2,91.3c-0.5,0-1,0-1.5,0c-1.2-0.5-2.4-0.8-3.5-1.4c-1.6-1-3.1-2.2-4.7-3.3c-1.5-1.1-3.1-1.7-5-1.6
		c-1.3,0-2.6,0-3.8,0c-3.1-0.1-4.9-1.4-5.9-4.4c-0.4-1.1-0.7-2.2-1-3.3c-0.6-2.3-1.7-4.2-3.5-5.7c-5.2-4.5-10.4-9.1-15.5-13.7
		c-5.4-4.9-10.3-10.1-12.5-17.2c0-0.1,1.3,3.9-0.3-0.2c-1.6-4.1,0-3.9,0-5.9c0.9-1.5,1.8-3,2.9-4.4c0.7-0.9,1.1-1.6,0.8-2.7
		c-0.8-3.7,0.2-7,3.3-9.3c1.8-1.4,4-2.3,6.1-3.3c0.7-0.3,1.2-0.6,1.4-1.4c1.1-6.3,4.9-9.7,11.4-10.1c1.1-0.1,1.8-0.5,2.3-1.5
		c3.2-6.7,8.1-9.1,15.3-7.5c0.4,0.1,1.1,0.1,1.4-0.2c2-2.1,7-4.5,7-4.5s2.4-1.6,5.6,0c0.3,0.2,0.6,0.4,0.9,0.5
		c1.7,1.1,3.5,2,5.2,3.2c0.9,0.7,1.6,1,2.8,0.6c3.7-1.1,7.1-0.4,9.9,2.2c1.6,1.4,2.8,3.3,4.1,5c0.5,0.6,0.9,1.1,1.8,0.9
		c3.2-0.7,5.9,0.3,8.3,2.3c2.9,2.4,4.6,5.5,6.1,8.8c0.4,0.8,1.1,1.8,1.8,2.1c5.5,2.1,8,6.4,8.6,11.9c0.2,1.8,0.5,3.4,2.3,4.5
		c0.9,0.6,1.4,2,2.1,3c0.2,0.3,0.5,1.1,0.5,1.1s1.6,2.7,0,5.4c-2,4.2-0.3,0.3-0.3,0.5c-1.1,3.1-2.9,5.9-4.9,8.4
		c-5.7,7.1-12.1,13.6-18.6,19.9c-2.1,2.1-3.7,4.4-4.8,7.1c-0.6,1.5-1.3,3-2,4.4c-1.5,2.6-3.8,3.8-6.8,3.6c-0.9,0-1.8-0.1-2.7-0.1
		c-2.3-0.1-4.3,0.6-6.1,2C417.1,88.7,414.3,90.3,411.2,91.3z"/>
</g>
<g>
	<path class="st3" d="M197.7,61.1c-5.3,8.8-12.1,22.1-20.2,39.9c-2.8,6.3-4.1,11.9-3.8,16.9l1.9,27.3l-26.8,43.7l18.3,14.6l32-41.8
		c3.8-5,5.8-14.6,6.1-28.7l16.9,16.4l0.9,7.5c0.3,3.1,1.1,8.8,2.4,16.9c2.2,5,5.3,14.4,9.4,28.2l18.3-3.8l-2.4-34.8l-2.8-23
		c-3.8-8.1-10.5-17.4-20.2-27.7l-8-8.5l9.9-16l11.3,6.6l28.2,13.6l11.8-16l-71.5-50.3L197.7,61.1z M483.8,172.9l-3.3-2.4
		c4.1,2.5,9.9,3.8,17.4,3.8c3.1-3.1,5.2-6.9,6.1-11.3l-4.2-2.3c-8.5-4.7-13.3-8.8-14.6-12.2l-1.4-8l-2.8-0.9
		c-2.2-1.6-5.6-2.7-10.4-3.3c-0.9,0-4.4-0.6-10.4-1.9c-1.3-0.9-2.4-1.4-3.3-1.4c-2.8,0-4.2,2.5-4.2,7.5l4.2,2.8
		c1.3,0.6,1.9,1.3,1.9,1.9l-11.3,5.2l-22.1,1.4c-4.4,0.3-8.3,0.2-11.7-0.5c-1.9-0.3-4.2,0.2-7,1.6c-2.8,1.4-4.4,2.1-4.7,2.1H290.2
		l-26.3-39.5l-5.6,0l10.8,91.7h-82.1l-6.1,31h119.5c20.1,0,30.1-8.7,30.1-26v-19.1h-15.1L300.3,171h72.5l-10.8,3.3h-3.8l-32.5,4.1
		l7.5,6l-5.6,3.2l10.4,3.7l-4.2,3.7l10.4,0.9l4.2-4l1.9-1.3l1.9-2.2v2.1l-6.6,5l3.8,0.4l5.2-1.2l3.8-1.2l2.4-1.6l1.9-2.5l0.5,1.9
		l-0.9,1.9l-12.7,8l14.1-1.9l-1.9,3.3l9.9-8l-0.9,4.7l8-6.1l0.5,2.3c0.6,1.2,0.4,2.8-0.7,4.6c-1.1,1.9-1.6,2.9-1.6,3.3
		c0,0.6,0.6,1.2,1.9,1.9c1.9,1.9,3.4,5.9,4.7,12.1c0.6,4,3.1,7,7.5,8.8c11.9,5.3,20.7,7.9,26.3,7.9c12.2,0,18.4-2.4,18.4-7.2
		c0-4.2-1.4-6.9-4.2-8.2c-11.6-1.3-17.4-4.8-17.4-10.6v-3.9c0-1.6,0-2.7,0-3.4c0-1.6,0.3-3.2,0.9-4.8h0.5c1.9,1.3,4.6,3.1,8.3,5.3
		c4,0.6,8.8,1.6,14.4,2.9c1.2,0.6,3.6,2.1,7,4.4v0.5c-6.9,1.3-10.4,4.5-10.4,9.7c0,5.2,3.9,7.8,11.8,7.8c14.4,0,21.6-5,21.6-14.9
		c0-3.4-2.7-7.4-8-12.1c1.9-1.9,4.2-5,7.1-9.3c0.3-1.2,0.5-3.9,0.5-7.9c0.3-2.2,1.1-3.3,2.4-3.3c0.9,0,2.8,0.6,5.6,1.9
		c3.8,2.2,7.4,3.3,10.8,3.3c4.4,0,6.6-2.3,6.6-7C490.5,176.2,487.5,174.8,483.8,172.9z M222.6,34.7c0,12.8,6.4,19.3,19.3,19.3
		c13.2,0,19.8-6.4,19.8-19.3c0-13.2-6.6-19.7-19.8-19.7C229.1,15,222.6,21.6,222.6,34.7z"/>
</g>
</svg>
