<?xml version="1.0" encoding="utf-8"?>
<!-- Generator: Adobe Illustrator 19.0.0, SVG Export Plug-In . SVG Version: 6.00 Build 0)  -->
<svg version="1.1" id="beachcombing_xA0_Image_1_" xmlns="http://www.w3.org/2000/svg" xmlns:xlink="http://www.w3.org/1999/xlink"
	 x="0px" y="0px" viewBox="38 -37.3 575.8 574.3" style="enable-background:new 38 -37.3 575.8 574.3;" xml:space="preserve">
<style type="text/css">
	.st0{fill:#573922;stroke:#2B1C11;stroke-width:30;stroke-miterlimit:10;}
	.st1{fill:#FFFFFF;}
	.st2{display:none;}
	.st3{display:inline;fill:#FFFFFF;}
</style>
<ellipse class="st0" cx="325.5" cy="251" rx="273.5" ry="272.7"/>
<g id="Layer_1_1_">
	<path class="st1" d="M443.9,218.3v-23.9c-6.6,13.6-16.5,20.4-29.6,20.4c-13.2,0-23.1-6.8-29.7-20.4c-7.1,13.6-17.1,20.4-30,20.4
		c-13.2,0-23.1-6.8-29.7-20.4c-6.6,13.6-16.7,20.4-30.4,20.4c-12.9,0-22.9-6.8-30-20.4c-6.6,13.6-16.5,20.4-29.7,20.4
		c-13.2,0-23.1-6.8-29.7-20.4v23.9c6.6,13.6,16.5,20.4,29.7,20.4s23.1-6.7,29.7-20c7.1,13.3,17.1,20,30,20c13.7,0,23.8-6.7,30.4-20
		c6.6,13.3,16.5,20,29.7,20c12.9,0,22.9-6.7,30-20c6.6,13.3,16.5,20,29.7,20C427.4,238.7,437.3,231.9,443.9,218.3z"/>
</g>
<g class="st2">
	<path class="st3" d="M335.2,165.9c-0.5,0-1,0-1.5,0c-1.2-0.5-2.4-0.8-3.5-1.4c-1.6-1-3.1-2.2-4.7-3.3c-1.5-1.1-3.1-1.7-5-1.6
		c-1.3,0-2.6,0-3.8,0c-3.1-0.1-4.9-1.4-5.9-4.4c-0.4-1.1-0.7-2.2-1-3.3c-0.6-2.3-1.7-4.2-3.5-5.7c-5.2-4.5-10.4-9.1-15.5-13.7
		c-5.4-4.9-10.3-10.1-12.5-17.2c0-0.1,1.3,3.9-0.3-0.2c-1.6-4.1,0-3.9,0-5.9c0.9-1.5,1.8-3,2.9-4.4c0.7-0.9,1.1-1.6,0.8-2.7
		c-0.8-3.7,0.2-7,3.3-9.3c1.8-1.4,4-2.3,6.1-3.3c0.7-0.3,1.2-0.6,1.4-1.4c1.1-6.3,4.9-9.7,11.4-10.1c1.1-0.1,1.8-0.5,2.3-1.5
		c3.2-6.7,8.1-9.1,15.3-7.5c0.4,0.1,1.1,0.1,1.4-0.2c2-2.1,7-4.5,7-4.5s2.4-1.6,5.6,0c0.3,0.2,0.6,0.4,0.9,0.5
		c1.7,1.1,3.5,2,5.2,3.2c0.9,0.7,1.6,1,2.8,0.6c3.7-1.1,7.1-0.4,9.9,2.2c1.6,1.4,2.8,3.3,4.1,5c0.5,0.6,0.9,1.1,1.8,0.9
		c3.2-0.7,5.9,0.3,8.3,2.3c2.9,2.4,4.6,5.5,6.1,8.8c0.4,0.8,1.1,1.8,1.8,2.1c5.5,2.1,8,6.4,8.6,11.9c0.2,1.8,0.5,3.4,2.3,4.5
		c0.9,0.6,1.4,2,2.1,3c0.2,0.3,0.5,1.1,0.5,1.1s1.6,2.7,0,5.4c-2,4.2-0.3,0.3-0.3,0.5c-1.1,3.1-2.9,5.9-4.9,8.4
		c-5.7,7.1-12.1,13.6-18.6,19.9c-2.1,2.1-3.7,4.4-4.8,7.1c-0.6,1.5-1.3,3-2,4.4c-1.5,2.6-3.8,3.8-6.8,3.6c-0.9,0-1.8-0.1-2.7-0.1
		c-2.3-0.1-4.3,0.6-6.1,2C341.1,163.3,338.3,164.9,335.2,165.9z"/>
</g>
<path class="st1" d="M399.3,92.6l-19.5-6.3h-28h-58.6h-28l-17.8,6.3l-22.9,9.5l-0.3,17.5l54.6,53.9h93.4l50.9-52.9v-18.6L399.3,92.6
	z M387.2,141.8l-6,4.8h-17.1h-66.6h-28l-10.4-9.5v-6.3l9.4-4.8l9.4,4.8l9.4-9.5l4.3,14.3l4.3-9.5l8.5,4.8l4.3-4.8l-1.7-4.8l6.8-6.3
	h4.3l7.7,5.6l0.9,10.3h6.8l-0.9-9.5l7.7-6.3l8.5,6.3v8.7l7.7,0.8l7.7-9.5v4.8l7.7-4.8l2.6,8.7h16.2l3.4,7.1L387.2,141.8z"/>
<polygon class="st1" points="202.8,36.6 233.1,79 229.1,81.8 198.8,39.4 "/>
<polygon class="st1" points="454,39.3 425,82.6 420.9,79.9 449.9,36.6 "/>
<polygon class="st1" points="403.5,17.6 377.8,62.9 373.5,60.5 399.3,15.2 "/>
<polygon class="st1" points="261,14.2 283.4,61.2 278.9,63.3 256.6,16.2 "/>
<rect x="298.5" y="30.3" transform="matrix(-1.909966e-003 -1 1 -1.909966e-003 292.4268 357.2916)" class="st1" width="52.1" height="4.9"/>
</svg>
