<?xml version="1.0" encoding="utf-8"?>
<!-- Generator: Adobe Illustrator 19.0.0, SVG Export Plug-In . SVG Version: 6.00 Build 0)  -->
<svg version="1.1" id="beachcombing_xA0_Image_1_" xmlns="http://www.w3.org/2000/svg" xmlns:xlink="http://www.w3.org/1999/xlink"
	 x="0px" y="0px" viewBox="18 -17.2 635.8 634.2" style="enable-background:new 18 -17.2 635.8 634.2;" xml:space="preserve">
<style type="text/css">
	.st0{fill:#FFFF00;}
	.st1{fill:#573922;stroke:#2B1C11;stroke-width:30;stroke-miterlimit:10;}
	.st2{fill:#FFFFFF;}
</style>
<ellipse class="st0" cx="336.7" cy="300.5" rx="318.7" ry="317.7"/>
<ellipse class="st1" cx="335.9" cy="300.7" rx="273.5" ry="272.7"/>
<g>
	<path class="st2" d="M419,151c-2.8-3-6-6.4-9.7-10.5l-17.7-18.8c-18.7-19.8-31.2-32-37.7-36.7c-23.7-17.7-47.8-27.6-72.1-29.5
		c5.5,3.2,11.1,6.3,16.8,9.7c5.6,3.4,11.4,7,17,10.8c8.6,5.5,17.5,18.6,26.8,39.4L215.5,261.6l19.1,15.9l123-141.2l40,35.2L419,151z
		 M343.9,278.7c0-6.9-3.2-10.2-9.4-10.2c-6.7,0-10.1,3.4-10.1,10.2c0,5.6,3.4,8.5,10.1,8.5C340.7,287.2,343.9,284.4,343.9,278.7z
		 M413.1,264.3c0-18.6-10.4-27.9-31.2-27.9c-5.5,0-9.6,3.7-12.4,11.2l3.8,10.8c-3,5.6-8.5,8.5-16.8,8.5v11.8
		c6.7,8.2,17,12.4,31.2,12.4c9,0,15.5-1.9,19.4-5.8C411.1,281.3,413.1,274.3,413.1,264.3z M456.4,274.3c0-5.5-1.2-10.2-3.6-14.3
		c-2.5-4-5.6-6-9.3-6c-0.2,0-1.6,1.9-4.4,5.8c-2.8,3.9-4.2,5.8-4.4,5.8c-4.7,0-7.1,3.1-7.1,9.1c0,3.5,1.6,6.6,5,9.3
		s7.4,3.9,12.1,3.9C452.4,282.2,456.4,277.6,456.4,274.3z"/>
</g>
</svg>
