<?xml version="1.0" encoding="utf-8"?>
<!-- Generator: Adobe Illustrator 19.2.1, SVG Export Plug-In . SVG Version: 6.00 Build 0)  -->
<svg version="1.1" id="beachcombing_xA0_Image_1_" xmlns="http://www.w3.org/2000/svg" xmlns:xlink="http://www.w3.org/1999/xlink"
	 x="0px" y="0px" viewBox="0 0 575.8 574.3" style="enable-background:new 0 0 575.8 574.3;" xml:space="preserve">
<style type="text/css">
	.st0{fill:#FFFF00;}
	.st1{fill:#573922;stroke:#2B1C11;stroke-width:30;stroke-miterlimit:10;}
	.st2{display:none;}
	.st3{display:inline;fill:#FFFFFF;}
	.st4{fill:#FFFFFF;}
</style>
<ellipse class="st0" cx="287.1" cy="286.7" rx="287.1" ry="286.2"/>
<ellipse class="st1" cx="287.2" cy="286.7" rx="246.4" ry="245.7"/>
<g class="st2">
	<path class="st3" d="M335.2,165.9c-0.5,0-1,0-1.5,0c-1.2-0.5-2.4-0.8-3.5-1.4c-1.6-1-3.1-2.2-4.7-3.3c-1.5-1.1-3.1-1.7-5-1.6
		c-1.3,0-2.6,0-3.8,0c-3.1-0.1-4.9-1.4-5.9-4.4c-0.4-1.1-0.7-2.2-1-3.3c-0.6-2.3-1.7-4.2-3.5-5.7c-5.2-4.5-10.4-9.1-15.5-13.7
		c-5.4-4.9-10.3-10.1-12.5-17.2c0-0.1,1.3,3.9-0.3-0.2c-1.6-4.1,0-3.9,0-5.9c0.9-1.5,1.8-3,2.9-4.4c0.7-0.9,1.1-1.6,0.8-2.7
		c-0.8-3.7,0.2-7,3.3-9.3c1.8-1.4,4-2.3,6.1-3.3c0.7-0.3,1.2-0.6,1.4-1.4c1.1-6.3,4.9-9.7,11.4-10.1c1.1-0.1,1.8-0.5,2.3-1.5
		c3.2-6.7,8.1-9.1,15.3-7.5c0.4,0.1,1.1,0.1,1.4-0.2c2-2.1,7-4.5,7-4.5s2.4-1.6,5.6,0c0.3,0.2,0.6,0.4,0.9,0.5
		c1.7,1.1,3.5,2,5.2,3.2c0.9,0.7,1.6,1,2.8,0.6c3.7-1.1,7.1-0.4,9.9,2.2c1.6,1.4,2.8,3.3,4.1,5c0.5,0.6,0.9,1.1,1.8,0.9
		c3.2-0.7,5.9,0.3,8.3,2.3c2.9,2.4,4.6,5.5,6.1,8.8c0.4,0.8,1.1,1.8,1.8,2.1c5.5,2.1,8,6.4,8.6,11.9c0.2,1.8,0.5,3.4,2.3,4.5
		c0.9,0.6,1.4,2,2.1,3c0.2,0.3,0.5,1.1,0.5,1.1s1.6,2.7,0,5.4c-2,4.2-0.3,0.3-0.3,0.5c-1.1,3.1-2.9,5.9-4.9,8.4
		c-5.7,7.1-12.1,13.6-18.6,19.9c-2.1,2.1-3.7,4.4-4.8,7.1c-0.6,1.5-1.3,3-2,4.4c-1.5,2.6-3.8,3.8-6.8,3.6c-0.9,0-1.8-0.1-2.7-0.1
		c-2.3-0.1-4.3,0.6-6.1,2C341.1,163.3,338.3,164.9,335.2,165.9z"/>
</g>
<g>
	<path class="st4" d="M409.5,241.9c1-11.7-2.3-22.1-9.7-30.9c-7.4-8.8-17-13.8-28.7-14.8c-7.7-0.7-14.9,0.5-21.5,3.6l-4.7-7.9
		c8.6-4.8,17.6-6.7,26.9-5.8l-2.9-5.8c-8.8-0.7-17.9,1.2-27.3,5.8L316.5,142h-21.9c-4.8,0-13.3,0.8-25.5,2.5
		c-0.7-4.5-3-11.4-6.8-20.4l-15.4-10.4c-17.5,13-26.2,34.6-26.2,65l-21.5-3.2l-0.7,4c-9.8,1.2-18.5,4.6-25.9,10.1l3.2,4.7
		c9.4-3.2,17-4.7,23-4.7c10.3,0,19.5,3,27.7,9l-3.6,6.1c-5.9-3.6-12.6-5.4-19.7-5.4c-10.8,0-20,3.9-27.7,11.7
		c-7.7,7.7-11.5,17-11.5,27.8c0,11,3.8,20.4,11.5,28c7.7,7.7,17,11.5,28,11.5c8.8,0,16.8-2.7,23.9-8.1c7-5.4,11.8-12.4,14.2-21
		l53.9,0.4l30.5-69h4.3l5.4,9.4c-5.8,4.8-10.2,9.4-13.3,13.7l2.5,7.6c3.6-5.8,8.4-10.8,14.4-15l4.3,7.6c-11,7.4-17.1,17.8-18.3,31.3
		c-1,11.7,2.3,22.1,9.7,30.9c7.4,8.8,17,13.8,28.7,14.8c11.7,1,22.1-2.3,31.1-9.7C403.6,263.3,408.5,253.6,409.5,241.9z M227,246.2
		c-3.9,11.7-11.9,17.6-24.1,17.6c-6.9,0-12.8-2.4-17.6-7.4c-4.8-4.9-7.2-10.8-7.2-17.7s2.4-12.9,7.2-17.7c4.8-4.9,10.6-7.4,17.6-7.4
		c4.3,0,8.1,1,11.5,2.9l-5.8,9c-2.4-1-4.3-1.4-5.8-1.4c-3.9,0-7.2,1.5-10.1,4.5c-2.9,3-4.3,6.4-4.3,10.3c0,4.1,1.4,7.5,4.3,10.3
		c2.9,2.8,6.3,4.1,10.4,4.1c6.2,0,10.5-2.9,13-8.6L227,246.2z M228.1,239.8l-10.4-1.4c0-3.6-1.4-6.8-4.3-9.7l6.1-9
		c5.8,5.3,8.6,11.6,8.6,19V239.8L228.1,239.8z M246,241.9l-3.6-0.4c1.2-14.6-3.9-25.9-15-33.8l3.2-5.4c10.8,0,16.1,8.4,16.1,25.1
		C246.7,231.1,246.6,235.9,246,241.9z M287.7,96.1c0-3.2-2.4-6-7.4-8.8c-5-2.8-9.2-4.1-12.8-4.1c-4.8,0-8.7,1.7-11.9,5.2
		c-3.2,3.5-4.7,7.6-4.7,12.4c0,3.9,1.3,7.6,3.8,11.4c2.5,3.7,5.6,5.6,9.2,5.6c4.5,0,8.7-5.2,12.6-15.8l5-2.2
		C285.7,98,287.7,96.8,287.7,96.1z M320.4,164.3c-5.5,1.4-9.5,2.2-11.9,2.2c-4.3,0-9.8,1.8-16.5,5.4l-15.8,8.6
		c-4.8-3.2-8.1-5.2-10.1-6.5c-4.1-1.9-7.9-3.2-11.5-3.6c2.9-5.9,5.4-10.3,7.6-13l5.8,3.6l19.4-6.1c3.8-1.2,6.8-1.9,9-2.2
		c8.8,0,13.7,0.8,14.4,2.5l4-1.8L320.4,164.3z M273.8,228.6h-9.4l9.4-14.4V228.6z M309.6,196.6l-9.7,21.9c-0.5,1-1.2,1.4-2.2,1.4
		c-1.4,0-2.2-0.5-2.2-1.4l1.4-13c0.3-2.9-1.1-4.3-4-4.3h-14.8l5.8-8.3h22.6c2.4,0,3.6,0.6,3.6,1.8
		C310.3,195.3,310.2,195.9,309.6,196.6z M355.7,162.6c0-4.8-1.4-8.8-4-12.3c-4.1,0-7.9,1-11.5,2.9c-4.3,2.2-6.5,5.1-6.5,9
		c0,3.6,2.3,6.5,6.8,8.6c3.8,1.9,7.7,2.9,11.5,2.9C354.4,170.7,355.7,167.1,355.7,162.6z M395.5,238.3c0,7.9-2.8,14.6-8.3,19.9
		c-5.5,5.4-12.3,8.1-20.1,8.1c-7.7,0-14.2-2.8-19.7-8.3c-5.5-5.5-8.3-12.1-8.3-19.7c0-9.4,4-17,11.9-23l7.2,13
		c-2.9,2.4-4.3,5.8-4.3,10.1c0,3.9,1.4,7,4,9.7c2.6,2.6,5.9,4,9.7,4c3.8,0,7-1.4,9.7-4c2.6-2.6,4-5.9,4-9.7s-1.4-7-4-9.7
		c-2.6-2.6-5.9-4-9.7-4h-1.8c-1,0.3-1.5,0.4-1.8,0.4l-7.6-12.6c3.6-1.4,7.2-2.2,10.8-2.2c7.9,0,14.6,2.7,20.1,8.1
		C392.8,223.8,395.5,230.4,395.5,238.3z"/>
</g>
</svg>
