<?xml version="1.0" encoding="utf-8"?>
<!-- Generator: Adobe Illustrator 19.0.0, SVG Export Plug-In . SVG Version: 6.00 Build 0)  -->
<svg version="1.1" id="beachcombing_xA0_Image_1_" xmlns="http://www.w3.org/2000/svg" xmlns:xlink="http://www.w3.org/1999/xlink"
	 x="0px" y="0px" viewBox="18 -17.2 635.8 634.2" style="enable-background:new 18 -17.2 635.8 634.2;" xml:space="preserve">
<style type="text/css">
	.st0{fill:#FFFF00;}
	.st1{fill:#573922;stroke:#2B1C11;stroke-width:30;stroke-miterlimit:10;}
	.st2{fill:#FFFFFF;}
</style>
<ellipse class="st0" cx="336.7" cy="300.5" rx="318.7" ry="317.7"/>
<ellipse class="st1" cx="335.9" cy="300.7" rx="273.5" ry="272.7"/>
<g>
	<path class="st2" d="M447.7,152.7c-4.2,6.9-9.4,12.2-15.5,15.9c-6.1,3.7-13.2,5.5-21.2,5.5c-8.1,0-15.3-1.7-21.5-5.2
		c-6.3-3.5-11.4-8.8-15.5-15.9c-4,7.1-9.2,12.4-15.3,15.9c-6.2,3.5-13.5,5.2-22,5.2c-8.3,0-15.6-1.7-21.8-5.2
		c-6.3-3.5-11.3-8.8-15.2-15.9c-4.2,7.1-9.4,12.4-15.5,15.9s-13.3,5.2-21.5,5.2c-8.3,0-15.6-1.7-21.8-5.2
		c-6.3-3.5-11.3-8.8-15.2-15.9v-24.8c4.2,6.7,9.3,11.9,15.3,15.3c6,3.5,13.1,5.2,21.4,5.2c8.3,0,15.5-1.7,21.5-5.2
		c6.1-3.5,11.2-8.6,15.5-15.3c4,6.7,9.2,11.9,15.3,15.3c6.2,3.5,13.4,5.2,21.7,5.2c8.3,0,15.5-1.7,21.7-5.2s11.4-8.6,15.6-15.3
		c4.2,6.7,9.4,11.9,15.6,15.3c6.2,3.5,13.3,5.2,21.4,5.2s15.2-1.7,21.4-5.2c6.2-3.5,11.4-8.6,15.6-15.3V152.7L447.7,152.7z
		 M447.7,94.3c-4.2,6.9-9.4,12.2-15.3,15.9c-6,3.7-12.9,5.4-20.8,5.2c-8.1,0-15.3-1.7-21.5-5.2c-6.3-3.5-11.4-8.8-15.5-15.9
		c-4,7.1-9.2,12.4-15.3,15.9c-6.2,3.5-13.5,5.2-22,5.2c-8.3,0-15.6-1.7-21.8-5.2c-6.3-3.5-11.3-8.8-15.2-15.9
		c-4.2,7.1-9.4,12.4-15.5,15.9s-13.3,5.2-21.5,5.2c-8.3,0-15.6-1.7-21.8-5.2c-6.3-3.5-11.3-8.8-15.2-15.9V69.5
		c4,6.7,9.1,11.9,15,15.3c6,3.5,13.1,5.2,21.4,5.2s15.5-1.7,21.5-5.2c6.1-3.5,11.2-8.6,15.5-15.3c3.9,6.7,8.9,11.9,15,15.3
		c6.2,3.5,13.4,5.2,21.7,5.2c8.3,0,15.5-1.7,21.7-5.2s11.4-8.6,15.6-15.3c4.2,6.7,9.4,11.9,15.6,15.3c6.2,3.5,13.3,5.2,21.4,5.2
		s15.2-1.7,21.4-5.2c6.2-3.5,11.4-8.6,15.6-15.3L447.7,94.3L447.7,94.3z M447.7,210.8c-4.2,6.9-9.4,12.1-15.3,15.6
		c-6,3.5-12.9,5.2-20.8,5.2c-8.1,0-15.3-1.7-21.5-5.1c-6.3-3.4-11.4-8.4-15.5-15.2c-4,6.7-9.2,11.8-15.3,15.2
		c-6.2,3.4-13.5,5.1-22,5.1c-8.3,0-15.6-1.7-21.8-5.1c-6.3-3.4-11.3-8.4-15.2-15.2c-4.2,6.7-9.4,11.8-15.5,15.2s-13.3,5.1-21.5,5.1
		c-8.3,0-15.6-1.7-21.8-5.2c-6.3-3.5-11.3-8.7-15.2-15.6v-24.6c4,6.7,9.1,11.9,15.2,15.3c6.1,3.5,13.2,5.2,21.5,5.2
		c8.3,0,15.4-1.7,21.4-5.2s11-8.6,15-15.3c4,6.7,9.2,11.8,15.3,15.2c6.2,3.4,13.4,5.1,21.7,5.1c8.3,0,15.5-1.7,21.7-5.1
		c6.2-3.4,11.4-8.4,15.6-15.2c4.2,6.7,9.4,11.8,15.6,15.2s13.3,5.1,21.4,5.1s15.2-1.7,21.4-5.1c6.2-3.4,11.4-8.4,15.6-15.2
		L447.7,210.8L447.7,210.8z M447.7,269c-4.2,6.9-9.4,12.2-15.3,15.8c-6,3.6-12.9,5.4-20.8,5.6c-8.1,0-15.3-1.7-21.5-5.2
		c-6.3-3.5-11.4-8.8-15.5-15.9c-4,7.1-9.2,12.4-15.3,15.9c-6.2,3.5-13.5,5.2-22,5.2c-8.3,0-15.6-1.7-21.8-5.2
		c-6.3-3.5-11.3-8.8-15.2-15.9c-4.2,7.1-9.4,12.4-15.5,15.9s-13.3,5.2-21.5,5.2c-8.3,0-15.6-1.8-21.8-5.3c-6.3-3.6-11.3-8.9-15.2-16
		v-24.6c4.2,6.9,9.3,12.1,15.3,15.5s13.1,5.1,21.4,5.1c8.3,0,15.4-1.7,21.4-5.1s11-8.5,15-15.5c4,6.9,9.2,12.1,15.3,15.5
		c6.2,3.4,13.4,5.1,21.7,5.1c8.3,0,15.5-1.7,21.7-5.1s11.4-8.5,15.6-15.5c4.2,6.9,9.4,12.1,15.6,15.5s13.3,5.1,21.4,5.1
		s15.2-1.7,21.4-5.1c6.2-3.4,11.4-8.5,15.6-15.5L447.7,269L447.7,269z"/>
</g>
</svg>
