<?xml version="1.0" encoding="utf-8"?>
<!-- Generator: Adobe Illustrator 19.0.0, SVG Export Plug-In . SVG Version: 6.00 Build 0)  -->
<svg version="1.1" id="beachcombing_xA0_Image_1_" xmlns="http://www.w3.org/2000/svg" xmlns:xlink="http://www.w3.org/1999/xlink"
	 x="0px" y="0px" viewBox="18 -17.2 635.8 634.2" style="enable-background:new 18 -17.2 635.8 634.2;" xml:space="preserve">
<style type="text/css">
	.st0{fill:#FFFF00;}
	.st1{fill:#573922;stroke:#2B1C11;stroke-width:30;stroke-miterlimit:10;}
	.st2{fill:#FFFFFF;}
</style>
<ellipse class="st0" cx="336.7" cy="300.5" rx="318.7" ry="317.7"/>
<ellipse class="st1" cx="335.9" cy="300.7" rx="273.5" ry="272.7"/>
<path class="st2" d="M358.5,148c-1.2-0.9-3.7-2.8-7.6-5.6c-1.4-1.2-3.5-2.7-6.3-4.5l-1.7-1l1-0.7l14.3,10.5l12.5-11.2l-24.3-21.6
	c-0.7-6.3-2.4-16-5.2-29.3h-9.4c-1.9,0-5.8-3-11.8-9.1c-7.2,7.7-12.9,22.9-17,45.7l-1,5.6c0,1.2-0.2,3.3-0.7,6.3v-1
	c-0.2,1.2-0.3,3.4-0.3,6.6c0,1.2-0.9,2.9-2.8,5.2c-0.5,0.7-2.4,1-5.9,1c-2.6,0-6.5-0.3-11.8-0.9c-5.3-0.6-9.3-0.9-11.8-0.9
	c-11.6,0-21.6,2.7-29.9,8c-10,6.3-15,14.9-15,25.8c0,1.6,0.3,4,0.9,7.1c0.6,3.1,0.9,5.5,0.9,7.2c-0.2,0.9-0.7,3.7-1.4,8.4
	c-1.2,7.7-5.1,15.1-11.8,22.3c10-0.7,17.4-2.8,22.3-6.3c-2.1,3.3-5,6.4-8.7,9.4c-0.7,16.5-3,29.5-7,39.1l-6.3,3.8l8,25.1
	c5.8-5.8,12.1-10.7,18.8-14.6c0.5-2.6,1.2-4.4,2.1-5.6l2.8-3.5c1.2-2.6,1.7-4.9,1.7-7c0-4.4,1.6-12,4.9-22.7l1.4-1
	c3-2.3,4.9-4,5.6-4.9l9.7-14.6c1.9,3,2.8,7.2,2.8,12.5v3.8c0,2.1,2.1,6.2,6.3,12.5c6.7,10.2,10.1,17.4,10.1,21.5c0,0.7,0,1.4,0,2.1
	c0,1.8,1.5,3.4,4.5,4.5l0.7,0.4c1.6,4.9,3.9,7.3,6.9,7.3h17.6c4.4,0,6.5-2.2,6.5-6.6c0-2.1-1.9-4.5-5.6-7.3l-4.2-5.2
	c-1.4-0.7-2.8-2.2-4.2-4.5c-0.7-1.6-1.6-4.3-2.8-8c-4.9-10.4-7.3-20.8-7.3-31.2c0-2.3,0.2-5.5,0.7-9.4c0.2,0.6,1.6,1.5,4.2,2.6
	c10,1.3,21.7,2.3,35.1,2.9l2.4,19.7l-5.2,9.8l-2.1,3.2c-0.2,0.2-0.9,0.7-2.1,1.4c-1.6,1.4-3.2,3.9-4.9,7.4l-0.3,1.1
	c-0.2-0.2-0.7-0.5-1.4-0.7l-5.6,8.7c3.7,3,11.4,9.5,23,19.6c1.9-5.1,2.9-9,3.1-11.5c0-1.2,0.1-3.4,0.4-6.6c0.5-0.2,1-0.4,1.7-0.7
	c1.6-3.5,4.9-7.8,9.7-12.9c3-2.6,6.4-6.5,10.1-11.9l-1-19.9c2.3,4.7,5.2,10.2,8.7,16.7c8.6,6.5,13.1,17.3,13.6,32.4
	c5.3,0.5,8.2,4.1,8.7,10.8h27.8c0.7-4.9-3-11.4-11.1-19.5c-0.2-0.5-0.6-1.3-1-2.5l-3.5-8c-2.3-5.3-5.7-13.6-10.1-24.8l-3.5-23.7
	c0.2-1.2,0.9-3.1,2.1-5.9l3.1-11.9c0.2-0.5,1.3-1.6,3.1-3.5l16.7,12.6c3.7,2.7,7.1,4.1,10.1,4.1c5.1,0,9.3-3.5,12.5-10.4
	c3.2,0,6.8-1.7,10.6-5c3.8-3.4,5.7-6.7,5.7-9.9l-9.4-23.6l-6.3-16.7c1.9-3.9,2.8-9.8,2.8-17.7l-9.4,3.8c-0.7-0.5-1.7-0.7-3.1-0.7
	c-3,1.9-5.5,4.2-7.3,7h-0.7c-4.2,0.5-21.2,4.4-51.1,11.9l-4.2-3.1l-9.4,8.4L358.5,148z M336.9,45.1c-12.3,1.4-18.4,7.8-18.4,19.2
	c0,5.1,1.9,9.5,5.6,13.3c3.7,3.7,8.1,5.6,13.2,5.6c5.1,0,9.7-1.9,13.7-5.8c4-3.8,5.8-8.3,5.4-13.4c-0.7-6.7-2.7-11.3-5.9-13.6
	C345.1,46.4,340.6,44.7,336.9,45.1z M433.6,184.7c-1.4,0-2.9-0.6-4.5-1.7l-16.7-11.5c2.5-1.4,5-2.2,7.3-2.4
	c3.9,4.4,8.2,7.2,12.9,8.4c0.7,0.9,1.5,2.3,2.4,4.2c0.7,0.7,1,1.3,1,1.7C435.8,184.2,435,184.7,433.6,184.7z"/>
</svg>
