<?xml version="1.0" encoding="utf-8"?>
<!-- Generator: Adobe Illustrator 19.0.0, SVG Export Plug-In . SVG Version: 6.00 Build 0)  -->
<svg version="1.1" id="beachcombing_xA0_Image_1_" xmlns="http://www.w3.org/2000/svg" xmlns:xlink="http://www.w3.org/1999/xlink"
	 x="0px" y="0px" viewBox="18 -17.2 635.8 634.2" style="enable-background:new 18 -17.2 635.8 634.2;" xml:space="preserve">
<style type="text/css">
	.st0{fill:#FFFF00;}
	.st1{fill:#4040FF;stroke:#0000AA;stroke-width:30;stroke-miterlimit:10;}
	.st2{fill:#FFFFFF;}
</style>
<ellipse class="st0" cx="336.7" cy="300.5" rx="318.7" ry="317.7"/>
<ellipse class="st1" cx="335.9" cy="300.7" rx="273.5" ry="272.7"/>
<path class="st2" d="M470.4,175.3L452.2,148h-13.6l-1.6,18.3h-12v-16.7l-9-11.7l-9.3,12.4v16.3h-7v-11.3H388v10.9l-7.4,0.4
	l-1.2-16.3l-13.6-8.9l4.3-6.2l9.4,5.4l5.9-9.9l-9.8-5.7l3.9-6.3L393,127l15.5-1.9l-5.8-13.6l-14-8.2l5.8-10.5l16.3,7.8l7-11.7
	l-14.4-29.5l-32.7,2.3l-6.6,12l14.8,10.1l-6.2,10.5l-14-8.6l-14.8,1.9l6.2,14.4l14,8.1l-3.5,5.8l-10.1-5.1l-5.4,9.7l9.7,5.4
	l-3.9,6.6l-14.8-7l-14.4,7l-3.5-6.6l9.7-5.4l-5.4-9.7l-10.1,5.1l-3.5-5.8l14-8.2l6.2-14.4l-14.8-1.9l-14,8.6l-6.2-10.5l14.8-10.1
	l-6.6-12l-32.7-2.3L255.5,89l7,11.7l16.3-7.8l5.8,10.5l-14,8.2l-5.8,13.6l15.5,1.9l13.6-8.2l3.9,6.3l-9.7,5.8l5.8,9.7l9.3-5.4
	l4.3,6.2l-13.6,8.9l-1.2,16.3l-7.4-0.4v-10.9h-11.7v11.3h-7v-16.3l-9.3-12.4l-8.9,11.7v16.7h-12l-1.6-18.3h-13.6L203,175.3
	l18.3,27.2l13.6-0.4l1.6-17.9h12v16.3l8.9,12.1l9.3-12.4V184h7v11.3h11.7v-10.9l7.4-0.4l1.6,16.3l13.2,8.9l-4.3,6.2l-9.4-5.4
	l-5.9,9.9l9.8,5.7l-3.9,6.3l-13.5-8.3l-15.5,1.9l5.8,13.6l14,8.2l-5.8,10.5l-16.3-7.8l-7,11.6l14.4,29.3l32.7-2.3l6.6-11.9l-14.8-10
	l6.2-10.4l14,8.6l14.8-1.9l-6.2-14.4l-14-8.2l3.5-5.8l10.1,5.1l5.4-9.7l-9.7-5.4l3.5-6.6l14.8,7l14.8-7l3.5,6.6l-9.7,5.4l5.4,9.7
	l10.1-5.1l3.5,5.8l-14,8.2l-6.2,14.4l14.8,1.9l14-8.6l6.2,10.4l-14.8,10l6.6,11.9l32.7,2.3l14.4-29.3l-7-11.6l-16.3,7.8l-5.8-10.5
	l14-8.2l5.8-13.6l-15.5-1.9l-13.6,8.2l-3.9-6.3l9.7-5.8l-5.8-9.7l-9.3,5.4l-4.3-6.2l14-9.7L381,184l7.4,0.4v10.9h11.7V184h7v16.3
	l9.3,12.4l8.9-11.7v-16.7h12l1.6,17.9l13.6,0.4L470.4,175.3z"/>
</svg>
