<?xml version="1.0" encoding="utf-8"?>
<!-- Generator: Adobe Illustrator 19.0.0, SVG Export Plug-In . SVG Version: 6.00 Build 0)  -->
<svg version="1.1" id="beachcombing_xA0_Image_1_" xmlns="http://www.w3.org/2000/svg" xmlns:xlink="http://www.w3.org/1999/xlink"
	 x="0px" y="0px" viewBox="18 -17.2 635.8 634.2" style="enable-background:new 18 -17.2 635.8 634.2;" xml:space="preserve">
<style type="text/css">
	.st0{fill:#FFFF00;}
	.st1{fill:#573922;stroke:#2B1C11;stroke-width:30;stroke-miterlimit:10;}
	.st2{fill:#FFFFFF;}
</style>
<ellipse class="st0" cx="336.7" cy="300.5" rx="318.7" ry="317.7"/>
<ellipse class="st1" cx="335.9" cy="300.7" rx="273.5" ry="272.7"/>
<polygon class="st2" points="357.2,276.7 357,239.5 431.5,239.3 394.6,192.9 422.8,192.9 384.7,146.5 403.7,146.9 361.5,96.8 
	375.5,96.8 336.1,58.1 336.1,57 335.5,57.6 334.9,57 334.9,58.1 295.5,96.8 309.5,96.8 267.3,146.9 286.3,146.5 248.2,192.9 
	276.4,192.9 239.5,239.3 314,239.5 313.8,276.7 295,276.6 294.9,286.1 335.2,286.1 335.8,286.1 376.1,286.1 376,276.6 "/>
</svg>
