<?xml version="1.0" encoding="utf-8"?>
<!-- Generator: Adobe Illustrator 19.0.0, SVG Export Plug-In . SVG Version: 6.00 Build 0)  -->
<svg version="1.1" id="beachcombing_xA0_Image_1_" xmlns="http://www.w3.org/2000/svg" xmlns:xlink="http://www.w3.org/1999/xlink"
	 x="0px" y="0px" viewBox="0 0 575.76 574.32" enable-background="new 0 0 575.76 574.32" xml:space="preserve">
<ellipse fill="#573922" stroke="#2B1C11" stroke-width="30" stroke-miterlimit="10" cx="287.493" cy="288.351" rx="273.546" ry="272.688"/>
<path fill="#FFFFFF" d="M154.125,137.677c36.451-2.36,70.025,6.559,100.709,26.751l19.67-55.075
	c-4.721-7.868-11.673-11.802-20.85-11.802c-4.198,0-9.312,1.574-15.342,4.721c-2.625-8.126-7.739-13.634-15.342-16.523
	c-6.559-2.619-14.556-2.096-23.997,1.574c7.081-14.826,17.568-26.462,31.472-34.92c13.898-8.452,28.976-12.681,45.24-12.681
	c10.486,0,20.715,1.832,30.685,5.489c17.309,6.27,31.01,16.787,41.11,31.551c10.094,14.765,15.147,30.9,15.147,48.406
	c0,7.321-1.052,14.636-3.148,21.95c-6.294-12.324-14.691-18.489-25.177-18.489c-4.721,0-9.577,1.444-14.556,4.327
	c-3.411-9.442-8.655-15.472-15.736-18.096c-5.249-1.832-10.886-1.967-16.916-0.393l-20.85,58.222
	c14.421,9.97,25.178,17.574,32.259,22.817c18.096,11.802,36.322,20.063,54.682,24.784H154.125V137.677z"/>
<path fill="#FFFFFF" d="M421.635,258.843c-7.081,15.213-17.967,22.817-32.652,22.817c-14.95,0-25.964-7.475-33.046-22.424
	c-7.081,14.949-18.096,22.424-33.045,22.424c-14.426,0-25.441-7.475-33.045-22.424c-7.081,14.949-18.232,22.424-33.439,22.424
	c-14.949,0-25.964-7.475-33.045-22.424c-7.081,14.949-17.967,22.424-32.652,22.424c-14.949,0-25.964-7.604-33.045-22.817v-26.357
	c7.339,14.949,18.354,22.424,33.045,22.424c14.42,0,25.306-7.475,32.652-22.424c7.339,14.949,18.354,22.424,33.045,22.424
	c14.949,0,26.093-7.475,33.439-22.424c7.604,14.949,18.619,22.424,33.045,22.424c14.685,0,25.7-7.475,33.045-22.424
	c7.34,14.949,18.355,22.424,33.046,22.424c14.42,0,25.306-7.475,32.652-22.424V258.843z"/>
</svg>
