<?xml version="1.0" encoding="utf-8"?>
<!-- Generator: Adobe Illustrator 19.0.0, SVG Export Plug-In . SVG Version: 6.00 Build 0)  -->
<svg version="1.1" id="beachcombing_xA0_Image_1_" xmlns="http://www.w3.org/2000/svg" xmlns:xlink="http://www.w3.org/1999/xlink"
	 x="0px" y="0px" viewBox="38 -37.3 575.8 574.3" style="enable-background:new 38 -37.3 575.8 574.3;" xml:space="preserve">
<style type="text/css">
	.st0{fill:#573922;stroke:#2B1C11;stroke-width:30;stroke-miterlimit:10;}
	.st1{display:none;}
	.st2{display:inline;fill:#FFFFFF;}
	.st3{fill:#FFFFFF;}
</style>
<ellipse class="st0" cx="327.3" cy="249.4" rx="273.5" ry="272.7"/>
<g class="st1">
	<path class="st2" d="M487.2,16.7c-0.5,0-1,0-1.5,0c-1.2-0.5-2.4-0.8-3.5-1.4c-1.6-1-3.1-2.2-4.7-3.3c-1.5-1.1-3.1-1.7-5-1.6
		c-1.3,0-2.6,0-3.8,0c-3.1-0.1-4.9-1.4-5.9-4.4c-0.4-1.1-0.7-2.2-1-3.3c-0.6-2.3-1.7-4.2-3.5-5.7c-5.2-4.5-10.4-9.1-15.5-13.7
		c-5.4-4.9-10.3-10.1-12.5-17.2c0-0.1,1.3,3.9-0.3-0.2c-1.6-4.1,0-3.9,0-5.9c0.9-1.5,1.8-3,2.9-4.4c0.7-0.9,1.1-1.6,0.8-2.7
		c-0.8-3.7,0.2-7,3.3-9.3c1.8-1.4,4-2.3,6.1-3.3c0.7-0.3,1.2-0.6,1.4-1.4c1.1-6.3,4.9-9.7,11.4-10.1c1.1-0.1,1.8-0.5,2.3-1.5
		c3.2-6.7,8.1-9.1,15.3-7.5c0.4,0.1,1.1,0.1,1.4-0.2c2-2.1,7-4.5,7-4.5s2.4-1.6,5.6,0c0.3,0.2,0.6,0.4,0.9,0.5
		c1.7,1.1,3.5,2,5.2,3.2c0.9,0.7,1.6,1,2.8,0.6c3.7-1.1,7.1-0.4,9.9,2.2c1.6,1.4,2.8,3.3,4.1,5c0.5,0.6,0.9,1.1,1.8,0.9
		c3.2-0.7,5.9,0.3,8.3,2.3c2.9,2.4,4.6,5.5,6.1,8.8c0.4,0.8,1.1,1.8,1.8,2.1c5.5,2.1,8,6.4,8.6,11.9c0.2,1.8,0.5,3.4,2.3,4.5
		c0.9,0.6,1.4,2,2.1,3c0.2,0.3,0.5,1.1,0.5,1.1s1.6,2.7,0,5.4c-2,4.2-0.3,0.3-0.3,0.5c-1.1,3.1-2.9,5.9-4.9,8.4
		c-5.7,7.1-12.1,13.6-18.6,19.9c-2.1,2.1-3.7,4.4-4.8,7.1c-0.6,1.5-1.3,3-2,4.4c-1.5,2.6-3.8,3.8-6.8,3.6c-0.9,0-1.8-0.1-2.7-0.1
		c-2.3-0.1-4.3,0.6-6.1,2C493.1,14.1,490.3,15.7,487.2,16.7z"/>
</g>
<g>
	<path class="st3" d="M484,226.1V92.8c0-3.3-1.3-6.2-3.9-8.6c-2.6-2.5-5.9-3.7-9.8-3.7h-65.4V52.3h-99.2v28.1H181.6
		c-3.5,0-6.7,1.3-9.5,3.9c-2.8,2.6-4.2,5.6-4.2,9.1v131.9c0.5,3.5,2,6.7,4.6,9.5c2.6,2.8,5.7,4.2,9.5,4.2h289c4,0,7.1-1.3,9.5-3.9
		c2.3-2.6,3.5-5.9,3.5-9.8V226.1z M250.5,60.1c0.5-0.5,0.7-2.2,0.7-5.3c-0.9-3.5-1.8-6.8-2.6-9.8c-0.8-3-1.6-5.9-2.3-8.4h-56.6
		c-4,8.7-6,15.4-6,20c0,7.5,4.9,11.3,14.8,11.3h39C246.1,67.8,250.5,65.2,250.5,60.1z M399.6,159.9c0,12-4.2,22.3-12.7,30.9
		c-8.4,8.4-18.8,12.7-30.9,12.7c-12.2,0-22.6-4.2-31.3-12.7c-8.7-8.7-13-19.1-13-31.3c0-12,4.3-22.2,13-30.6
		c8.7-8.7,19.1-13,31.3-13c12.2,0,22.5,4.3,30.9,13C395.4,137.9,399.6,148.2,399.6,159.9z M381.6,80.5h-55.9V63.2h55.9L381.6,80.5
		L381.6,80.5z M377.1,159.9c0-6.1-2.1-11.2-6.2-15.3c-4.1-4.1-9.1-6.2-14.9-6.2c-6.3,0-11.6,2-15.8,6c-4.2,4-6.3,9.1-6.3,15.5
		c0,5.9,2.1,10.9,6.3,15.1c4.2,4.2,9.5,6.3,15.8,6.3c5.9,0,10.8-2.1,14.9-6.3C375,170.8,377.1,165.8,377.1,159.9z"/>
</g>
</svg>
