<?xml version="1.0" encoding="utf-8"?>
<!-- Generator: Adobe Illustrator 19.0.0, SVG Export Plug-In . SVG Version: 6.00 Build 0)  -->
<svg version="1.1" id="beachcombing_xA0_Image_1_" xmlns="http://www.w3.org/2000/svg" xmlns:xlink="http://www.w3.org/1999/xlink"
	 x="0px" y="0px" viewBox="38 -37.3 575.8 574.3" style="enable-background:new 38 -37.3 575.8 574.3;" xml:space="preserve">
<style type="text/css">
	.st0{fill:#573922;stroke:#2B1C11;stroke-width:30;stroke-miterlimit:10;}
	.st1{display:none;}
	.st2{display:inline;fill:#FFFFFF;}
	.st3{fill:#FFFFFF;}
</style>
<ellipse class="st0" cx="325.5" cy="251" rx="273.5" ry="272.7"/>
<g class="st1">
	<path class="st2" d="M335.2,165.9c-0.5,0-1,0-1.5,0c-1.2-0.5-2.4-0.8-3.5-1.4c-1.6-1-3.1-2.2-4.7-3.3c-1.5-1.1-3.1-1.7-5-1.6
		c-1.3,0-2.6,0-3.8,0c-3.1-0.1-4.9-1.4-5.9-4.4c-0.4-1.1-0.7-2.2-1-3.3c-0.6-2.3-1.7-4.2-3.5-5.7c-5.2-4.5-10.4-9.1-15.5-13.7
		c-5.4-4.9-10.3-10.1-12.5-17.2c0-0.1,1.3,3.9-0.3-0.2c-1.6-4.1,0-3.9,0-5.9c0.9-1.5,1.8-3,2.9-4.4c0.7-0.9,1.1-1.6,0.8-2.7
		c-0.8-3.7,0.2-7,3.3-9.3c1.8-1.4,4-2.3,6.1-3.3c0.7-0.3,1.2-0.6,1.4-1.4c1.1-6.3,4.9-9.7,11.4-10.1c1.1-0.1,1.8-0.5,2.3-1.5
		c3.2-6.7,8.1-9.1,15.3-7.5c0.4,0.1,1.1,0.1,1.4-0.2c2-2.1,7-4.5,7-4.5s2.4-1.6,5.6,0c0.3,0.2,0.6,0.4,0.9,0.5
		c1.7,1.1,3.5,2,5.2,3.2c0.9,0.7,1.6,1,2.8,0.6c3.7-1.1,7.1-0.4,9.9,2.2c1.6,1.4,2.8,3.3,4.1,5c0.5,0.6,0.9,1.1,1.8,0.9
		c3.2-0.7,5.9,0.3,8.3,2.3c2.9,2.4,4.6,5.5,6.1,8.8c0.4,0.8,1.1,1.8,1.8,2.1c5.5,2.1,8,6.4,8.6,11.9c0.2,1.8,0.5,3.4,2.3,4.5
		c0.9,0.6,1.4,2,2.1,3c0.2,0.3,0.5,1.1,0.5,1.1s1.6,2.7,0,5.4c-2,4.2-0.3,0.3-0.3,0.5c-1.1,3.1-2.9,5.9-4.9,8.4
		c-5.7,7.1-12.1,13.6-18.6,19.9c-2.1,2.1-3.7,4.4-4.8,7.1c-0.6,1.5-1.3,3-2,4.4c-1.5,2.6-3.8,3.8-6.8,3.6c-0.9,0-1.8-0.1-2.7-0.1
		c-2.3-0.1-4.3,0.6-6.1,2C341.1,163.3,338.3,164.9,335.2,165.9z"/>
</g>
<g>
	<path class="st3" d="M262.1,42.9V26.5c-0.8-0.2-1.8-0.3-2.9-0.4c-1.1-0.1-2.3-0.1-3.6-0.1c-18.3,0-30.7,10.6-37,31.8l-5.5,4
		l13.3,12.4l16.8-12.4l-4.8-3c0-3.1,2-6.6,6-10.4c1.2-1.2,4.3-2.5,9.3-4c2-0.5,3.6-0.9,4.9-1.2c1.3-0.3,2.2-0.5,2.9-0.5
		c0.3,0,0.5,0.1,0.5,0.2L262.1,42.9L262.1,42.9z M234.6,191.9v-30h-17.5v30H234.6z M263.8,233.1l-10.5-13.4l-3.5,4.7l-1.5-0.2
		c-9.2-3-13.8-10.3-13.8-21.8v-1.7h-17c-0.2,0.8-0.3,1.8-0.4,2.9c-0.1,1.1-0.1,2.3-0.1,3.6c0,9.8,3.3,18,9.8,24.6
		c4.3,4.3,8.7,7.5,13,9.7c1.7,0.3,3.3,0.7,4.8,1.2c1.5,0.5,3.1,1,4.8,1.5l4,5.5L263.8,233.1z M234.8,112.7v-30h-17.5v30H234.8z
		 M234.6,152.4v-30.3h-17.3v30.3H234.6z M347.1,129.8h0.3c-4.2-2.8-8.1-5.3-11.8-7.6c-3.7-2.2-7.1-4.3-10.3-6.3l-1.8-1.2
		c-2.3-1.5-3.5-5.4-3.5-11.7c-1.2-7-5.8-11.5-13.8-13.7l-1.3-0.2c-5.2,0-11.1,7-17.8,20.9c-1.3,3-2.4,5.5-3.3,7.4
		c-0.8,2-1.3,3.4-1.5,4.2l-1.5,12.9c-0.8,6.3-2.1,11-3.8,14.2c-1.5,3.3-4.3,10.3-8.3,20.9c-4,10.8-6,16.7-6,17.9
		c0,1.5,2.9,4.1,8.8,7.9l21.3-38.5c0.3-0.8,0.7-1.2,1.3-1.2c0.7,0.3,1.9,1.4,3.8,3.2c2.5,2.5,7.6,14.5,15.3,36l14.8-2.7
		c-3.8-10.1-10.8-28.7-21-55.9c-0.8-2.1-1.3-4.5-1.3-7.2c0.2-2.1,0.3-3.1,0.5-3c0.2-2.1,2-4.1,5.5-6l16.8,10.9
		c0.3,0.2,1.8,0.7,4.5,1.5c2.7,0.8,6.4,1.9,11.3,3.2L347.1,129.8z M301.1,244v-17.4h-30.5V244H301.1z M301.3,42.9V26.5h-30.5v16.4
		L301.3,42.9L301.3,42.9z M328.1,79.1c0-2.8-1-5.3-3.1-7.6c-2.1-2.2-4.5-3.4-7.4-3.4c-3,0-5.5,1-7.6,3.1c-2.1,2.1-3.1,4.6-3.1,7.6
		c0,2.8,1,5.2,3.1,7.2c2.1,2,4.5,3,7.4,3c3,0,5.5-1,7.6-3C327.1,84.1,328.1,81.8,328.1,79.1z M340.6,244v-17.4h-30.8v17.1L340.6,244
		z M340.9,42.7V26h-30.8v16.6H340.9z M379.6,243.7v-17.4h-30.8v16.9L379.6,243.7z M380.1,42.7V26h-30.5v16.6H380.1z M392.1,142
		l-29-4.2l-12.5,15.9l23.8,4.5L392.1,142z M372.6,152.4l-1.2,1.2l-12.8-3.5l1.5-0.5L372.6,152.4z M380.1,147.4l-1.5,1l-16.8-3.2
		l1.7-1.2L380.1,147.4z M378.4,191.9v-32.3l-5.3,1.7l-10.8-1.7v32.3H378.4z M433.4,62.5c0-7.1-2-13.8-6.1-20
		c-4.1-6.2-9.6-10.9-16.6-14c-1.7-0.3-3.3-0.7-4.8-1.2c-1.5-0.5-3.1-1-4.8-1.5l-4-5.2l-12,13.9l12,15.9l5-4.7
		c9.2,3.3,13.8,10.8,13.8,22.6v1h16.8C433.1,67.2,433.4,65,433.4,62.5z M437.4,207.7l-16.3-10.9l-13.8,10.9l4.5,4.5
		c-2.5,8.9-10.3,13.7-23.5,14.2v16.4c0.8,0.2,1.8,0.3,2.9,0.4c1.1,0.1,2.3,0.1,3.6,0.1c18.3,0,30.7-10.6,37-31.8L437.4,207.7z
		 M432.1,147.7v-30h-16.5v30H432.1z M432.1,186.6v-30.3h-16.5v30.3H432.1z M432.4,108.7v-30h-16.5v30H432.4z"/>
</g>
</svg>
