<?xml version="1.0" encoding="utf-8"?>
<!-- Generator: Adobe Illustrator 19.0.0, SVG Export Plug-In . SVG Version: 6.00 Build 0)  -->
<svg version="1.1" id="beachcombing_xA0_Image_1_" xmlns="http://www.w3.org/2000/svg" xmlns:xlink="http://www.w3.org/1999/xlink"
	 x="0px" y="0px" viewBox="38 -37.3 575.8 574.3" style="enable-background:new 38 -37.3 575.8 574.3;" xml:space="preserve">
<style type="text/css">
	.st0{fill:#573922;stroke:#2B1C11;stroke-width:30;stroke-miterlimit:10;}
	.st1{display:none;}
	.st2{display:inline;fill:#FFFFFF;}
	.st3{fill:#FFFFFF;}
</style>
<ellipse class="st0" cx="325.9" cy="251.7" rx="273.5" ry="272.7"/>
<g class="st1">
	<path class="st2" d="M411.2,91.3c-0.5,0-1,0-1.5,0c-1.2-0.5-2.4-0.8-3.5-1.4c-1.6-1-3.1-2.2-4.7-3.3c-1.5-1.1-3.1-1.7-5-1.6
		c-1.3,0-2.6,0-3.8,0c-3.1-0.1-4.9-1.4-5.9-4.4c-0.4-1.1-0.7-2.2-1-3.3c-0.6-2.3-1.7-4.2-3.5-5.7c-5.2-4.5-10.4-9.1-15.5-13.7
		c-5.4-4.9-10.3-10.1-12.5-17.2c0-0.1,1.3,3.9-0.3-0.2c-1.6-4.1,0-3.9,0-5.9c0.9-1.5,1.8-3,2.9-4.4c0.7-0.9,1.1-1.6,0.8-2.7
		c-0.8-3.7,0.2-7,3.3-9.3c1.8-1.4,4-2.3,6.1-3.3c0.7-0.3,1.2-0.6,1.4-1.4c1.1-6.3,4.9-9.7,11.4-10.1c1.1-0.1,1.8-0.5,2.3-1.5
		c3.2-6.7,8.1-9.1,15.3-7.5c0.4,0.1,1.1,0.1,1.4-0.2c2-2.1,7-4.5,7-4.5s2.4-1.6,5.6,0c0.3,0.2,0.6,0.4,0.9,0.5
		c1.7,1.1,3.5,2,5.2,3.2c0.9,0.7,1.6,1,2.8,0.6c3.7-1.1,7.1-0.4,9.9,2.2c1.6,1.4,2.8,3.3,4.1,5c0.5,0.6,0.9,1.1,1.8,0.9
		c3.2-0.7,5.9,0.3,8.3,2.3c2.9,2.4,4.6,5.5,6.1,8.8c0.4,0.8,1.1,1.8,1.8,2.1c5.5,2.1,8,6.4,8.6,11.9c0.2,1.8,0.5,3.4,2.3,4.5
		c0.9,0.6,1.4,2,2.1,3c0.2,0.3,0.5,1.1,0.5,1.1s1.6,2.7,0,5.4c-2,4.2-0.3,0.3-0.3,0.5c-1.1,3.1-2.9,5.9-4.9,8.4
		c-5.7,7.1-12.1,13.6-18.6,19.9c-2.1,2.1-3.7,4.4-4.8,7.1c-0.6,1.5-1.3,3-2,4.4c-1.5,2.6-3.8,3.8-6.8,3.6c-0.9,0-1.8-0.1-2.7-0.1
		c-2.3-0.1-4.3,0.6-6.1,2C417.1,88.7,414.3,90.3,411.2,91.3z"/>
</g>
<g>
	<path class="st3" d="M297.5,83.9h-85.6v-8.8h8.8l34.2-60.5L289,74.9h8.5v8.8V83.9L297.5,83.9z M277.4,180.3l3.1,5.1
		c0.4,0,0.6,0.1,0.7,0.3c0.1,0.2,0.1,0.6,0.1,1.1c0.2,0.2,0.3,0.4,0.3,0.6c0,0.2,0,0.5,0,0.8l-0.8,2l0.8,2.3v2l-0.8,2.8
		c-0.2,1.9-0.3,3.5-0.4,4.8c-0.1,1.3-0.2,2.5-0.4,3.4c-0.4,0.9-0.6,1.7-0.7,2.3c-0.1,0.6-0.1,0.9-0.1,1.1c-0.4,1.7-1,3.1-2,4.1
		c-0.9,1-2.3,1.9-4,2.7c-0.4,1.1-0.8,2.1-1.1,2.8c-0.4,0.8-0.8,1.2-1.4,1.4c-0.6,0.4-1.2,0.7-2,1c-0.8,0.3-1.5,0.6-2.3,1
		c-0.4,0.2-0.6,0.4-0.7,0.6c-0.1,0.2-0.1,0.5-0.1,0.8c0,0.2,0,0.4,0,0.6v1.1c-0.6,0.4-1,0.8-1.4,1.1c-0.8,0.2-1.5,0.6-2.3,1.1
		c-0.8,0.6-1.7,1.1-2.8,1.7h-2.8c-0.4,0-0.7,0.1-1,0.3c-0.3,0.2-0.5,0.3-0.7,0.3c-0.4,0-0.7,0-0.8,0c-0.2,0-0.4,0-0.6,0
		c-0.6,0-1,0-1.4,0c-0.4,0-0.8-0.2-1.1-0.6l-1.7,0.6H246c-0.6,0.4-1.2,0.6-1.8,0.6c-0.7,0-1.2,0-1.6,0c-0.4,0-0.8,0-1.3,0
		c-0.5,0-0.9,0-1.3,0h-1.4c-0.9-0.4-1.7-0.7-2.1-1c-0.5-0.3-0.7-0.6-0.7-1c-0.8-0.4-1.6-0.7-2.4-0.8c-0.8-0.2-1.7-0.3-2.4-0.3
		l-2.5-2.8l-4.5-2.3c-0.2-0.6-0.4-1.3-0.6-2.1c-0.2-0.8-0.3-1.6-0.3-2.1c-0.6-0.2-1-0.4-1.4-0.7c-0.4-0.3-0.8-0.4-1.1-0.4l-5.7-9.6
		l0.8-1.7c-0.4-0.4-0.6-0.8-0.7-1.3c-0.1-0.5-0.1-1-0.1-1.6c0-0.6-0.1-1-0.4-1.4c-0.3-0.4-0.4-0.7-0.4-0.8c0-0.6,0-1.1,0-1.6
		c0-0.5,0.3-1,0.8-1.6l-2-4.2c0.6-1.1,0.9-2.1,1.1-2.8c0-0.8,0.1-1.7,0.4-3c0.3-1.2,0.7-2.7,1.3-4.4c0.2-2.6,0.8-4.8,2-6.4
		c1.1-1.6,2.4-3,4-4.1l2.3-4.8l3.7-0.6l1.7-3.4l3.4-0.8l2-3.1h1.7c0.9,0,1.9,0.1,2.8,0.3c0.9,0.2,2.1,0.4,3.4,0.6
		c0.9-0.4,1.9-0.7,2.8-1c0.9-0.3,1.6-0.6,2-1c0.8-0.2,1.3-0.3,1.7-0.4c0.4-0.1,0.7-0.3,0.8-0.7l4.2,2.8l3.4-0.8
		c0.4,0.4,0.7,0.7,0.8,0.8c0.4,0.4,0.6,0.7,0.7,1c0.1,0.3,0.3,0.7,0.7,1.3c0.6,0,1.1-0.1,1.7-0.4c0.6-0.3,1-0.4,1.4-0.4
		c0.2,0,0.5,0,0.8,0c0.4,0.4,0.7,0.8,0.8,1.4c0.2,0.2,0.4,0.6,0.7,1.1c0.3,0.6,0.5,1.1,0.7,1.7c0.8,0.2,1.3,0.3,1.6,0.3
		c0.3,0,0.5,0.2,0.7,0.6c0,0.2,0.1,0.4,0.3,0.6c0.2,0.2,0.4,0.3,0.6,0.3c0,0.8,0.1,1.5,0.4,2.1c0.3,0.7,0.6,1.4,1,2.1l3.7,1.1l0.3,4
		c0.9,1.1,1.6,1.9,2.1,2.4C277.1,179.5,277.4,179.9,277.4,180.3z M252.5,189.6c-1.7-3.4-3.7-5.9-5.9-7.6c-2.3-1.7-4.9-2.5-7.9-2.5
		c-0.9,0-1.9,0.1-2.8,0.3c-0.9,0.2-2.1,0.5-3.4,0.8c-1.1,0.4-2.4,0.9-3.8,1.6c-1.4,0.7-2.9,1.3-4.4,1.8c-1.3,3-2.3,5.9-3,8.6
		c-0.7,2.7-1,5.3-1,7.8c0,2.8,0.5,5.4,1.4,7.8c0.9,2.4,2.4,4.3,4.2,5.8c1.5,1.5,3.2,2.6,5.2,3.4c2,0.8,4.3,1.1,6.9,1.1
		c2.4,0,4.7-0.4,6.6-1.3c2-0.8,3.9-1.9,5.8-3.2c1.9-1.3,3.2-3,4.1-5.1c0.8-2.1,1.3-4.3,1.3-6.8c0-1.9-0.3-3.9-0.8-6.1
		C254.5,193.8,253.7,191.7,252.5,189.6z M434.2,137.9c0,1.1-1.3,2.6-4,4.4c-2.6,1.8-6.8,4-12.4,6.6c-1.9,0.2-3.8,0.4-5.7,0.7
		c-1.9,0.3-3.6,0.6-5.1,1c-1.7,0-3.3,0.1-4.8,0.4c-1.5,0.3-2.9,0.4-4.2,0.4c-1.7,0-3.3-0.1-4.8-0.3c-1.5-0.2-2.9-0.5-4.2-0.8
		l-7.3-1.7c-0.4-0.4-0.9-0.7-1.7-0.8c-0.8-0.2-1.3-0.6-1.7-1.1c-0.6-0.4-1.2-0.8-1.8-1.1c-0.7-0.4-1.2-0.8-1.6-1.1
		c-0.4-0.4-0.7-0.6-0.8-0.6c-0.4-0.4-0.8-0.6-1.4-0.6c-1.1,0-2,0.3-2.5,0.8c-0.6,0.6-0.8,1.4-0.8,2.5c0,1.5,0.5,2.8,1.6,4
		c1,1.1,2.4,2,4.1,2.5l4.2,2.8c0.6-0.4,1.4-0.7,2.5-0.8c1.1-0.2,2.4-0.3,3.7-0.3c0.2,0,0.6,0.1,1.1,0.3c0.6,0.2,1.2,0.3,2,0.3
		c0.8,0,1.6,0.1,2.4,0.3c0.8,0.2,1.6,0.3,2.4,0.3c1.1,0,2.1,0.1,3,0.3c0.8,0.2,1.7,0.3,2.7,0.3c0.8,0.4,1.6,0.6,2.4,0.6
		c0.8,0,1.6,0,2.4,0c1.1,0,2.3,0,3.5,0c1.2,0,2.5-0.2,3.8-0.6c1.1-0.2,2.3-0.4,3.5-0.6c1.2-0.2,2.4-0.5,3.5-0.8c2.6-1.1,5-2,7.1-2.5
		c2.1-0.6,3.8-0.8,5.1-0.8c0.4,0,0.7,0,0.8,0c0.2,0,0.3,0.2,0.3,0.6c0,0.8-0.9,1.7-2.8,2.7c-1.9,1-4.5,2.2-7.9,3.5
		c-1.7,0.8-3.1,1.4-4.2,1.8c-1.1,0.5-2.2,0.8-3.1,1c-0.9,0.4-1.7,0.7-2.1,0.8c-0.5,0.2-0.8,0.5-1,0.8c-0.4,0-0.7,0-0.8,0
		c-0.6,0-0.9,0-1,0c-0.1,0-0.3,0-0.7,0c-1.3,0-2.6-0.1-4-0.3c-1.3-0.2-2.7-0.6-4.2-1.1c-2.3-0.2-4.5-0.4-6.8-0.6
		c-2.3-0.2-4.2-0.5-5.9-0.8c-2.1-0.2-3.9-0.3-5.5-0.4c-1.6-0.1-3.1-0.1-4.4-0.1c-5.3,0-9.8,0.8-13.7,2.3c-3.9,1.5-7.2,3.7-10,6.5
		c-1.1,0.9-2.4,2.4-3.8,4.4s-3,4.2-4.7,6.6c-1.5,2.5-3.2,5.3-5.1,8.6c-1.9,3.3-4,6.9-6.2,10.9c-0.4,1.5-0.9,3-1.7,4.5
		c-0.2-2.8-0.6-4.9-1.1-6.4s-1.3-2.3-2.3-2.7c-0.6-0.4-2.7-0.7-6.4-1c-3.7-0.3-8.8-0.6-15.4-1c-1.7,2.3-3.3,4.1-4.8,5.7
		c-1.5,1.5-2.6,2.8-3.4,4l-9.3,2.8l-3.7-0.8c-0.8-0.8-1.4-1.8-1.8-3.1c-0.5-1.3-0.7-2.7-0.7-4.2c0-2.4,0.4-4.4,1.1-5.9
		c0.8-1.5,2.1-2.4,4-2.5c3.2,0,5.6-0.3,7.2-0.8c1.6-0.6,2.4-1.5,2.4-2.8c0-1.7-0.9-3.1-2.7-4.2c-1.8-1.1-4.5-2.1-8.1-2.8l-0.3-1.1
		c-1.3-4.1-3.2-8-5.5-11.4c-2.4-3.5-5.3-6.6-8.9-9.5c-3.4-2.8-6.9-5.1-10.6-6.8c-3.7-1.7-7.7-2.9-12-3.7c-3.6,0-7.5,0.1-11.7,0.3
		c-4.2,0.2-8.6,0.6-13.1,1.1l1.1-13.6c1.3-0.8,2.3-1.3,2.8-1.7c0.8-0.6,1.6-1.1,2.5-1.6c0.9-0.5,2.1-1.1,3.4-1.8
		c1.3-0.8,2.5-1.4,3.7-1.8c1.1-0.5,2.2-0.7,3.1-0.7c1.5,0,3,0.8,4.5,2.4c1.5,1.6,3,4,4.5,7.2c1.9,0,4,0.1,6.2,0.4
		c2.3,0.3,4.8,0.9,7.6,1.8c2.6,1.1,5.6,2.3,8.8,3.4c3.2,1.1,6.6,2.5,10.2,4c5.5,2.3,9.9,4.8,13.4,7.6c3.5,2.8,6,5.8,7.5,9
		c-1.5,2.1-2.7,4.2-3.5,6.4c-0.8,2.2-1.3,4.4-1.3,6.6c0,1.5,0.2,3.2,0.7,5.2c0.5,2,1.3,4.1,2.4,6.4c0.4,0.6,0.8,1,1.3,1.3
		c0.5,0.3,0.9,0.4,1.3,0.4c0.6,0,1.1-0.1,1.6-0.3c0.5-0.2,0.9-0.7,1.3-1.4c-0.4-1.5-0.8-2.9-1.1-4.2c-0.4-1.3-0.6-2.5-0.6-3.7
		c0-3.6,0.8-6.3,2.4-8.2c1.6-1.9,4.1-2.8,7.5-2.8c3,0,5.3,0.8,6.8,2.5c1.5,1.7,2.3,4.2,2.3,7.6c0,0.8-0.2,1.7-0.6,3
		c-0.4,1.2-0.8,2.5-1.1,3.8c-0.4,0.8-0.6,1.3-0.7,1.7c-0.1,0.4-0.1,0.8-0.1,1.4c0,1.1,0.8,2,2.4,2.5c1.6,0.6,4,0.8,7.2,0.8
		c1.5-1.7,2.8-3.3,4-4.9c1.1-1.6,2.3-3.2,3.4-4.7c0.9-1.7,1.8-3.2,2.7-4.5c0.8-1.3,1.6-2.7,2.1-4.2c1.9-2.3,3.3-4,4.2-5.4
		c0.9-1.3,1.4-2.2,1.4-2.5c0-0.9-0.2-1.7-0.7-2.3c-0.5-0.6-1.1-1.1-1.8-1.7h-32.8v-0.8c0-0.6,0.1-1.2,0.4-2c0.3-0.8,0.6-1.6,1-2.5
		c0.4-0.9,0.8-1.9,1.4-2.8c0.6-0.9,1.2-2,2-3.1c0.8-0.9,1.5-2,2.1-3.1c0.7-1.1,1.4-2.2,2.1-3.1c0.6-1.1,1.2-2.3,2-3.5
		c0.8-1.2,1.5-2.4,2.3-3.5c1.3-2.1,2.8-3.8,4.4-5.1c1.6-1.3,3.2-2.3,4.9-2.8c1.7-0.6,3.5-1,5.4-1.4c1.9-0.4,3.8-0.8,5.7-1.1l2.5-2
		c3.4-0.4,5.9-0.9,7.6-1.6c1.7-0.7,2.5-1.4,2.5-2.1c-0.8-3.4-1.7-6.5-3-9.2c-1.2-2.7-2.7-5.2-4.4-7.5c-0.8-1.3-1.6-2.3-2.5-3
		c-0.9-0.7-2-1-3.1-1c-0.2,0-0.4,0.1-0.7,0.3c-0.3,0.2-0.7,0.3-1.3,0.3c-0.2,0.2-0.6,0.4-1.1,0.6c-0.6,0.2-1.1,0.4-1.7,0.6
		c-0.6,0.2-1.2,0.4-1.8,0.6c-0.7,0.2-1.2,0.5-1.6,0.8c-0.6,0-1,0.1-1.4,0.4c-0.4,0.3-0.8,0.4-1.1,0.4c-0.9,0.2-1.8,0.4-2.5,0.7
		c-0.8,0.3-1.6,0.4-2.5,0.4c-0.9,0.2-1.9,0.3-2.8,0.4c-0.9,0.1-1.8,0.1-2.5,0.1h-2.8c-0.4-0.6-0.7-1-1-1.3c-0.3-0.3-0.4-0.5-0.4-0.7
		c-0.4-0.4-0.8-0.8-1.1-1.4c0.6-1.1,1.6-2.1,3.1-2.8c1.5-0.8,3.5-1.3,5.9-1.7h9.9c0.8,0,1.5,0.1,2.3,0.3c0.8,0.2,1.4,0.3,2,0.3
		c0.8,0,1.5,0.1,2.1,0.3c0.7,0.2,1.4,0.3,2.1,0.3h4l7.1,7.9c0.6,0.2,1.2,0.4,1.8,0.7c0.7,0.3,1.4,0.4,2.1,0.4c1.3,0,2.2-0.6,2.7-1.7
		c0.5-1.1,0.7-2.8,0.7-5.1v-4c0-3.6,0.7-6.3,2.1-8.2c1.4-1.9,3.5-2.8,6.4-2.8c0.2,0,0.4,0,0.7,0s0.6,0,1,0c0.4,0,0.8,0.1,1.1,0.3
		c0.4,0.2,0.8,0.3,1.1,0.3v4.8l-5.4,2c-1.5,0.8-2.6,1.6-3.4,2.5c-0.8,0.9-1.1,2-1.1,3.1c0,0.9,0.1,2,0.4,3.1
		c0.3,1.1,0.8,2.3,1.6,3.4l17.8-0.6c0.4,1.1,0.8,2.1,1.1,3c0.4,0.8,0.6,1.6,0.6,2.1c0,1.1-0.5,2.4-1.6,3.8c-1,1.4-2.4,2.9-4.1,4.4
		c-2.3,0-4,0.3-5.1,1c-1.1,0.7-1.7,1.6-1.7,2.7c0,0.8,0.4,1.8,1.3,3.2c0.8,1.4,2.1,3,3.8,4.7l7.1,7.1c1.7,0,3.5-0.1,5.4-0.3
		c1.9-0.2,3.9-0.5,5.9-0.8c2.3-0.2,4.6-0.3,7.1-0.4c2.4-0.1,5-0.1,7.6-0.1c5.8,0,10.2,0.3,13.1,1
		C432.8,135.6,434.2,136.6,434.2,137.9z M268.9,75.2L254.8,50l-14.1,25.1H268.9z M278.8,118.4l43,12.7v0.6c0,0.9-0.3,2.2-1,3.7
		c-0.7,1.5-1.7,3.4-3.2,5.7c-1.1,2.1-2.3,3.7-3.5,4.8c-1.2,1.1-2.4,1.7-3.5,1.7h-0.3l-5.9-2.8c-4.5-2.3-8.8-4.4-12.7-6.4
		c-4-2-7.6-3.7-11-5.2c-3.4-1.5-6.6-2.9-9.7-4.1c-3.1-1.2-6-2.1-8.6-2.7c0.8-1.3,1.4-2.3,2-3c0.6-0.7,1-1.2,1.4-1.6
		c0.2-0.2,1.4-0.6,3.7-1.1C271.5,120.1,274.7,119.4,278.8,118.4z M412.2,205.4l0.3,3.1l-0.8,3.1c0.2,0.2,0.3,0.8,0.3,1.7
		c0,0.9,0,2,0,3.1v2.8l-2.5,3.1c0,0.9-0.1,1.9-0.4,2.8c-0.3,0.9-0.6,1.9-1,2.8c-0.6,0.9-1,1.8-1.4,2.5c-0.4,0.8-0.6,1.3-0.6,1.7
		l-2.5,1.4c-0.8,1.3-1.4,2.4-1.8,3.1c-0.5,0.8-0.7,1.3-0.7,1.7l-4,1.1c-0.8,0.9-1.6,1.7-2.5,2.1c-0.9,0.5-2.1,0.7-3.4,0.7
		c-1.3,1.1-2.4,1.9-3.1,2.3c-0.8,0.4-1.3,0.6-1.7,0.6h-1.4c-0.9,0-2,0.1-3.2,0.3c-1.2,0.2-2.7,0.6-4.4,1.1l-1.7-1.7l-3.1,1.4
		l-4.5-3.1c-0.8,0.2-1.4,0.4-1.8,0.6c-0.5,0.2-0.9,0.3-1.3,0.3c-0.4,0-0.8-0.2-1.1-0.7c-0.4-0.5-0.6-1.2-0.6-2.1l-1.4-0.8h-5.9v-1.1
		c0-0.6,0-1-0.1-1.4c-0.1-0.4-0.1-0.7-0.1-0.8l-2.8-0.6v-3.1l-3.4-5.1v-2.5l-2.5-3.4l-2-17l2.8-3.4l-0.3-3.4c0-0.2,0-0.3-0.1-0.4
		c-0.1-0.1-0.1-0.3-0.1-0.7c-0.2,0-0.3-0.1-0.3-0.3c0-0.2,0-0.4,0-0.6c0.4-0.4,0.7-0.8,0.8-1.1c0.8-0.4,1.6-0.8,2.5-1.4l0.3-4.5
		l0.8-0.6c0.8-0.4,1.3-0.7,1.7-0.8c0.4-0.2,0.8-0.4,1.1-0.6c0.4-0.4,0.8-0.9,1.1-1.7c0.4-0.8,0.8-1.7,1.1-2.8l0.3-0.6
		c1.7-0.8,3.1-1.5,4.1-2.1c1-0.7,1.6-1.2,1.8-1.6l16.4-3.7l12.7,1.4l5.9,2.8c0.6,0.8,1.1,1.3,1.6,1.7c0.5,0.4,0.9,0.8,1.3,1.1
		c0.8,0.4,1.3,0.7,1.6,0.8c0.3,0.2,0.5,0.3,0.7,0.3c0,1.1,0.1,1.9,0.4,2.4c0.3,0.5,0.6,0.9,1,1.3c0.4,0,0.8,0.1,1.4,0.3
		c0.6,0.2,1.1,0.5,1.7,0.8l-0.3,1.1c0,0.8,0.1,1.4,0.3,2c0.2,0.6,0.6,1,1.1,1.4c0.4,0.4,0.8,0.7,1.3,0.8c0.5,0.2,0.9,0.3,1.3,0.3
		c0,1.1,0.2,2.2,0.6,3.2c0.4,1,0.9,2.3,1.7,3.8L412.2,205.4z M386.5,232l4-2.5c0.4-1.5,0.8-3.2,1.1-5.2c0.4-2,0.6-3.9,0.6-5.8
		c0-5.5-1.1-10-3.2-13.7c-2.2-3.7-5.5-6.5-10-8.3c-0.9,0-1.8-0.1-2.5-0.4c-0.8-0.3-1.5-0.4-2.3-0.4c-0.6,0-1.2,0-1.8-0.1
		c-0.7-0.1-1.2-0.3-1.6-0.7c-4.5,1.7-7.9,4.1-10.2,7.1c-2.3,3-3.4,6.6-3.4,10.7c0,1.3,0.2,2.6,0.6,4c0.4,1.3,0.8,2.6,1.4,4
		c0.6,1.3,1.2,2.6,1.8,3.8c0.7,1.2,1.5,2.4,2.4,3.5c0.9,1.1,2,2.1,3.1,3c1.1,0.8,2.3,1.6,3.4,2.1c1.3,0.6,2.6,1.1,3.8,1.6
		c1.2,0.5,2.5,0.7,3.8,0.7c1.7,0,3.2-0.2,4.7-0.7C383.5,233.9,385,233.1,386.5,232z M439.3,170.1l1.4,7.9c0,0.4-0.1,0.7-0.3,1
		c-0.2,0.3-0.4,0.6-0.6,1c-0.2,0.4-0.4,0.8-0.6,1.1c-0.2,0.4-0.3,0.8-0.3,1.1v0.6c0.4,1.1,0.6,2,0.7,2.7c0.1,0.7,0.1,1.3,0.1,1.8
		v0.8v0.6c-0.2,0.4-0.4,1.1-0.6,2.3c-0.2,1.1-0.3,2.5-0.3,4.2c-0.9,1.1-1.7,2.3-2.3,3.4c-0.6,1.1-0.9,2.3-1.1,3.4
		c-0.4,0.4-0.9,0.8-1.6,1.4c-0.7,0.6-1.2,1-1.6,1.4c-0.6,0.4-1,0.8-1.3,1.1c-0.3,0.4-0.4,0.7-0.4,0.8l-2,0.8c-0.6,0.2-1,0.4-1.4,0.6
		c-0.4,0.2-0.7,0.3-0.8,0.3c0,0.2-0.3,0.5-0.8,0.8c0,0.2-0.1,0.4-0.3,0.6c-0.2,0.2-0.4,0.5-0.6,0.8c-0.2,0.4-0.4,0.7-0.7,0.8
		c-0.3,0.2-0.6,0.6-1,1.1l-1.7-0.6l0.3-1.1l-4.5-2.5c0-0.4,0.1-0.8,0.4-1.1c0.3-0.4,0.4-0.7,0.4-0.8c0.2-0.2,0.4-0.5,0.6-0.8
		c0-0.2-0.1-1.1-0.4-2.8c-0.3-1.7-0.8-4.2-1.6-7.6c1.7-1.3,3-3.1,3.8-5.2c0.8-2.2,1.3-4.6,1.3-7.2c0-1.9-0.2-3.7-0.7-5.5
		c-0.5-1.8-1.1-3.6-1.8-5.5v-1.4l0.8-0.3l15-6.2L439.3,170.1z"/>
</g>
</svg>
