<?xml version="1.0" encoding="utf-8"?>
<!-- Generator: Adobe Illustrator 19.0.0, SVG Export Plug-In . SVG Version: 6.00 Build 0)  -->
<svg version="1.1" id="beachcombing_xA0_Image_1_" xmlns="http://www.w3.org/2000/svg" xmlns:xlink="http://www.w3.org/1999/xlink"
	 x="0px" y="0px" viewBox="18 -17.2 635.8 634.2" style="enable-background:new 18 -17.2 635.8 634.2;" xml:space="preserve">
<style type="text/css">
	.st0{fill:#FFFF00;}
	.st1{fill:#573922;stroke:#2B1C11;stroke-width:30;stroke-miterlimit:10;}
	.st2{fill:#FFFFFF;}
</style>
<ellipse class="st0" cx="336.7" cy="300.5" rx="318.7" ry="317.7"/>
<ellipse class="st1" cx="335.9" cy="300.7" rx="273.5" ry="272.7"/>
<g>
	<path class="st2" d="M436.1,140.8l-24.6-3.3h-16.6l-17.2,3.3l2-10.6l3.3-19.3V88.3l-4.6-16.6l-10-23.2l-18.6,15.3l-12.6,12.6
		l-11.3,19.3l-6.6,17.9l-4,10L302.7,113l-15.3-8l-22.6-10.6l-3.3,24.6v17.8l6,21.2l4.6,10l-15.3,4l-19.9,8l12.6,16.6l10.6,10.6
		l17.3,10l33.9,13.3c-8,31.9-13.9,51.1-17.9,57.8l21.2,5.3c1.3-12.4,5.7-31.9,13.3-58.4l20.6,2.7l16.6,2.7h19.3L399,236l18.6-7.9
		L405,211.6l-10.6-11.2l8-5.3l16.6-15.8l8-15.2L436.1,140.8z"/>
</g>
</svg>
