<?xml version="1.0" encoding="utf-8"?>
<!-- Generator: Adobe Illustrator 19.0.0, SVG Export Plug-In . SVG Version: 6.00 Build 0)  -->
<svg version="1.1" id="beachcombing_xA0_Image_1_" xmlns="http://www.w3.org/2000/svg" xmlns:xlink="http://www.w3.org/1999/xlink"
	 x="0px" y="0px" viewBox="18 -17.2 635.8 634.2" style="enable-background:new 18 -17.2 635.8 634.2;" xml:space="preserve">
<style type="text/css">
	.st0{fill:#FFFF00;}
	.st1{fill:#573922;stroke:#2B1C11;stroke-width:30;stroke-miterlimit:10;}
	.st2{fill:#FFFFFF;}
</style>
<ellipse class="st0" cx="336.7" cy="300.5" rx="318.7" ry="317.7"/>
<ellipse class="st1" cx="335.9" cy="300.7" rx="273.5" ry="272.7"/>
<g>
	<path class="st2" d="M522.5,219.4c0-19.3-6.9-35.6-20.7-49c-13.8-13.7-30.4-20.5-49.8-20.5c-10.1,0-20.7,2.4-31.6,7.1L394.7,115
		V68.5h-56.9v12.6h41.7v30.6h-94.5v-31l10.1,0.4V68.5h-56.5v12.6h29.5v39.8l-16.4,32.7c-11.5-5-21.8-7.5-30.8-7.5
		c-18,0.3-34.3,7.5-48.9,21.8c-14.3,14.3-21.5,30.2-21.5,47.8c0,18.2,7.2,34.1,21.5,47.8c14.6,14.3,30.9,21.4,48.9,21.4
		c18,0,34.3-7,48.9-21c14.3-14.3,21.5-30.3,21.5-48.2v-5.5l14.3-3.8c6.7,9.5,12.5,14.5,17.3,15.1h3c7,0,12.8-2.4,17.3-7.1
		c4.5-4.7,6.9-11,7.2-18.9l54.4-37.3l4.2,6.3c-18.3,14-27.4,32.3-27.4,54.9c0,19.6,6.7,36.2,20.2,49.9
		c13.8,13.7,30.5,20.5,50.2,20.5c19.4,0,36-6.8,49.8-20.5C515.6,255.6,522.5,239,522.5,219.4z M271.6,215.6
		c0,13.7-4.9,25.4-14.8,35.2c-9.6,9.5-21.2,14.3-35,14.3c-6.7,0-13.1-1.3-19.2-4c-6-2.7-11.3-6.2-15.8-10.7
		c-4.5-4.5-8-9.7-10.5-15.7c-2.5-6-3.8-12.4-3.8-19.1c0-13.4,4.8-24.9,14.3-34.4c9.6-9.5,21.2-14.3,35-14.3c6.7,0,13.5,1.4,20.2,4.2
		l-30.4,56.6L271.6,215.6z M268.7,200.9L234.5,211l19.4-35.2C260.6,181.1,265.6,189.5,268.7,200.9z M262.3,159l15.6-22.2l30.8,57
		l-20.2,4.6C284.5,183.3,275.8,170.2,262.3,159z M398.1,146.5L342,187.1l-6.7-2.1c-4.2-1.1-7.2-1.7-8.9-1.7c-2.8,0-5.2,0.6-7.2,1.7
		l-29.9-60.8h94.5L398.1,146.5z M335.3,203c0,5.3-2.5,8-7.6,8c-5.6,0-8.4-2.7-8.4-8c0-5,2.8-7.8,8.4-8.4
		C332.8,194.7,335.3,197.5,335.3,203z M503.5,219.4c0,13.7-4.9,25.4-14.8,35.2c-9.6,9.5-21.2,14.3-35,14.3c-6.7,0-13.1-1.3-19.2-4
		c-6-2.7-11.2-6.2-15.6-10.7c-4.4-4.5-7.8-9.7-10.3-15.7c-2.5-6-3.8-12.4-3.8-19.1c0-14.5,5.2-26.5,15.6-36l29.1,44.4l10.5-6.3
		l-27.8-46.1c7-3.4,14.2-5,21.5-5c6.7,0,13.1,1.3,19.2,3.8c6,2.5,11.3,6,15.8,10.5c4.5,4.5,8.1,9.7,10.8,15.7
		C502.2,206.3,503.5,212.7,503.5,219.4z"/>
</g>
</svg>
