<?xml version="1.0" encoding="utf-8"?>
<!-- Generator: Adobe Illustrator 19.0.0, SVG Export Plug-In . SVG Version: 6.00 Build 0)  -->
<svg version="1.1" id="beachcombing_xA0_Image_1_" xmlns="http://www.w3.org/2000/svg" xmlns:xlink="http://www.w3.org/1999/xlink"
	 x="0px" y="0px" viewBox="38 -37.3 575.8 574.3" style="enable-background:new 38 -37.3 575.8 574.3;" xml:space="preserve">
<style type="text/css">
	.st0{fill:#573922;stroke:#2B1C11;stroke-width:30;stroke-miterlimit:10;}
	.st1{display:none;}
	.st2{display:inline;fill:#FFFFFF;}
	.st3{fill:#FFFFFF;}
</style>
<ellipse class="st0" cx="325.5" cy="251" rx="273.5" ry="272.7"/>
<g class="st1">
	<path class="st2" d="M335.2,165.9c-0.5,0-1,0-1.5,0c-1.2-0.5-2.4-0.8-3.5-1.4c-1.6-1-3.1-2.2-4.7-3.3c-1.5-1.1-3.1-1.7-5-1.6
		c-1.3,0-2.6,0-3.8,0c-3.1-0.1-4.9-1.4-5.9-4.4c-0.4-1.1-0.7-2.2-1-3.3c-0.6-2.3-1.7-4.2-3.5-5.7c-5.2-4.5-10.4-9.1-15.5-13.7
		c-5.4-4.9-10.3-10.1-12.5-17.2c0-0.1,1.3,3.9-0.3-0.2c-1.6-4.1,0-3.9,0-5.9c0.9-1.5,1.8-3,2.9-4.4c0.7-0.9,1.1-1.6,0.8-2.7
		c-0.8-3.7,0.2-7,3.3-9.3c1.8-1.4,4-2.3,6.1-3.3c0.7-0.3,1.2-0.6,1.4-1.4c1.1-6.3,4.9-9.7,11.4-10.1c1.1-0.1,1.8-0.5,2.3-1.5
		c3.2-6.7,8.1-9.1,15.3-7.5c0.4,0.1,1.1,0.1,1.4-0.2c2-2.1,7-4.5,7-4.5s2.4-1.6,5.6,0c0.3,0.2,0.6,0.4,0.9,0.5
		c1.7,1.1,3.5,2,5.2,3.2c0.9,0.7,1.6,1,2.8,0.6c3.7-1.1,7.1-0.4,9.9,2.2c1.6,1.4,2.8,3.3,4.1,5c0.5,0.6,0.9,1.1,1.8,0.9
		c3.2-0.7,5.9,0.3,8.3,2.3c2.9,2.4,4.6,5.5,6.1,8.8c0.4,0.8,1.1,1.8,1.8,2.1c5.5,2.1,8,6.4,8.6,11.9c0.2,1.8,0.5,3.4,2.3,4.5
		c0.9,0.6,1.4,2,2.1,3c0.2,0.3,0.5,1.1,0.5,1.1s1.6,2.7,0,5.4c-2,4.2-0.3,0.3-0.3,0.5c-1.1,3.1-2.9,5.9-4.9,8.4
		c-5.7,7.1-12.1,13.6-18.6,19.9c-2.1,2.1-3.7,4.4-4.8,7.1c-0.6,1.5-1.3,3-2,4.4c-1.5,2.6-3.8,3.8-6.8,3.6c-0.9,0-1.8-0.1-2.7-0.1
		c-2.3-0.1-4.3,0.6-6.1,2C341.1,163.3,338.3,164.9,335.2,165.9z"/>
</g>
<g>
	<path class="st3" d="M506,151.7v-34.7h-85.5c-7,0-12.7-2.8-16.9-8.4l-38-51.5l-7.9,5.8l30,47.8L375.2,147h-46.3
		c1.8-7.4,2.6-14.7,2.6-22.1c0-3.9-0.4-7-1.1-9.5l40.5,5.3v-9.5l-31-9.5c-6-5.3-10.5-8.9-13.7-11c-5.3-3.5-10.7-5.4-16.3-5.8
		c-8.8-0.7-14.4,4-16.8,14.2c-1.1,4.2-1.6,11-1.6,20.5v15.2l-14.2-17.9H145.5v78.8h19.5c1.8-13.5,7.7-24.8,17.9-33.8
		c10.2-9,22.1-13.5,35.8-13.5c13.7,0,25.6,4.5,35.8,13.5c10.2,9,16,20.3,17.4,33.8H395l21.6-44.2L506,151.7L506,151.7z M257.4,201.9
		c0-10.8-3.8-19.9-11.3-27.4c-7.5-7.5-16.7-11.2-27.6-11.2c-10.9,0-20.1,3.7-27.6,11.2c-7.5,7.5-11.3,16.6-11.3,27.4
		c0,10.8,3.8,19.9,11.3,27.4c7.5,7.5,16.7,11.2,27.6,11.2c10.9,0,20.1-3.7,27.6-11.2C253.7,221.9,257.4,212.7,257.4,201.9z
		 M327.9,65c0-9.8-4.9-14.7-14.7-14.7c-9.5,0-14.2,4.9-14.2,14.7c0,9.8,4.7,14.7,14.2,14.7C322.9,79.7,327.9,74.8,327.9,65z
		 M494.5,201.9c0-10.8-3.8-19.9-11.3-27.4c-7.5-7.5-16.7-11.2-27.6-11.2c-10.9,0-20.1,3.7-27.6,11.2c-7.5,7.5-11.3,16.6-11.3,27.4
		c0,10.8,3.8,19.9,11.3,27.4c7.5,7.5,16.7,11.2,27.6,11.2c10.9,0,20.1-3.7,27.6-11.2C490.7,221.9,494.5,212.7,494.5,201.9z"/>
</g>
</svg>
