<?xml version="1.0" encoding="utf-8"?>
<!-- Generator: Adobe Illustrator 21.1.0, SVG Export Plug-In . SVG Version: 6.00 Build 0)  -->
<svg version="1.1" id="beachcombing_xA0_Image_1_" xmlns="http://www.w3.org/2000/svg" xmlns:xlink="http://www.w3.org/1999/xlink"
	 x="0px" y="0px" viewBox="0 0 635.8 634.2" style="enable-background:new 0 0 635.8 634.2;" xml:space="preserve">
<style type="text/css">
	.st0{fill:#FFFF00;}
	.st1{fill:#573922;stroke:#2B1C11;stroke-width:30;stroke-miterlimit:10;}
	.st2{fill:#FFFFFF;}
</style>
<ellipse class="st0" cx="318.7" cy="317.7" rx="318.7" ry="317.7"/>
<ellipse class="st1" cx="317.9" cy="317.9" rx="273.5" ry="272.7"/>
<g>
	<path class="st2" d="M282.4,113.7c10.9-1,19.3-10.4,19.3-21.3c0-11.8-9.6-21.4-21.4-21.4c-11.8,0-21.4,9.6-21.4,21.4
		c0,3.6,1,7.3,2.7,10.4l7.6,107.3l78.5,0l32.2,75.5l42.3-16.6l-6.5-15.6l-23.7,8.5l-31.2-71.9l-73,0.5l-1-13.6l52.8,0v-20.1l-54.9,0
		L282.4,113.7z"/>
	<path class="st2" d="M361.4,267.5c-13.3,26.2-41,43.5-70.6,43.5c-43.5,0-78.9-35.4-78.9-78.9c0-30.5,18.5-58.9,46.1-71.4l1.8,23.3
		c-16.3,10.3-26.4,28.8-26.4,48.3c0,31.5,25.7,57.2,57.2,57.2c28.8,0,53.4-22.1,56.8-50.5L361.4,267.5z"/>
</g>
</svg>
