<?xml version="1.0" encoding="utf-8"?>
<!-- Generator: Adobe Illustrator 19.0.0, SVG Export Plug-In . SVG Version: 6.00 Build 0)  -->
<svg version="1.1" id="beachcombing_xA0_Image_1_" xmlns="http://www.w3.org/2000/svg" xmlns:xlink="http://www.w3.org/1999/xlink"
	 x="0px" y="0px" viewBox="38 -37.3 575.8 574.3" style="enable-background:new 38 -37.3 575.8 574.3;" xml:space="preserve">
<style type="text/css">
	.st0{fill:#573922;stroke:#2B1C11;stroke-width:30;stroke-miterlimit:10;}
	.st1{display:none;}
	.st2{display:inline;fill:#FFFFFF;}
	.st3{fill:#FFFFFF;}
</style>
<ellipse class="st0" cx="325.9" cy="251.7" rx="273.5" ry="272.7"/>
<g class="st1">
	<path class="st2" d="M411.2,91.3c-0.5,0-1,0-1.5,0c-1.2-0.5-2.4-0.8-3.5-1.4c-1.6-1-3.1-2.2-4.7-3.3c-1.5-1.1-3.1-1.7-5-1.6
		c-1.3,0-2.6,0-3.8,0c-3.1-0.1-4.9-1.4-5.9-4.4c-0.4-1.1-0.7-2.2-1-3.3c-0.6-2.3-1.7-4.2-3.5-5.7c-5.2-4.5-10.4-9.1-15.5-13.7
		c-5.4-4.9-10.3-10.1-12.5-17.2c0-0.1,1.3,3.9-0.3-0.2c-1.6-4.1,0-3.9,0-5.9c0.9-1.5,1.8-3,2.9-4.4c0.7-0.9,1.1-1.6,0.8-2.7
		c-0.8-3.7,0.2-7,3.3-9.3c1.8-1.4,4-2.3,6.1-3.3c0.7-0.3,1.2-0.6,1.4-1.4c1.1-6.3,4.9-9.7,11.4-10.1c1.1-0.1,1.8-0.5,2.3-1.5
		c3.2-6.7,8.1-9.1,15.3-7.5c0.4,0.1,1.1,0.1,1.4-0.2c2-2.1,7-4.5,7-4.5s2.4-1.6,5.6,0c0.3,0.2,0.6,0.4,0.9,0.5
		c1.7,1.1,3.5,2,5.2,3.2c0.9,0.7,1.6,1,2.8,0.6c3.7-1.1,7.1-0.4,9.9,2.2c1.6,1.4,2.8,3.3,4.1,5c0.5,0.6,0.9,1.1,1.8,0.9
		c3.2-0.7,5.9,0.3,8.3,2.3c2.9,2.4,4.6,5.5,6.1,8.8c0.4,0.8,1.1,1.8,1.8,2.1c5.5,2.1,8,6.4,8.6,11.9c0.2,1.8,0.5,3.4,2.3,4.5
		c0.9,0.6,1.4,2,2.1,3c0.2,0.3,0.5,1.1,0.5,1.1s1.6,2.7,0,5.4c-2,4.2-0.3,0.3-0.3,0.5c-1.1,3.1-2.9,5.9-4.9,8.4
		c-5.7,7.1-12.1,13.6-18.6,19.9c-2.1,2.1-3.7,4.4-4.8,7.1c-0.6,1.5-1.3,3-2,4.4c-1.5,2.6-3.8,3.8-6.8,3.6c-0.9,0-1.8-0.1-2.7-0.1
		c-2.3-0.1-4.3,0.6-6.1,2C417.1,88.7,414.3,90.3,411.2,91.3z"/>
</g>
<g>
	<path class="st3" d="M221.7,140.7c0.5,0-0.2-0.7-2.2-2.2c-1.9-1.4-4.1-3.1-6.5-5c-2.4-1.9-4.7-3.7-6.9-5.4
		c-2.2-1.7-3.3-2.8-3.3-3.2c-0.5-0.5-1.2-2.3-2-5.6c-0.8-3.2-1.9-6.9-3.3-11.1c-1.3-4.2-2.8-8.4-4.4-12.6c-1.6-4.2-3.2-7.4-4.9-9.5
		l-3.3-6.1c-0.7,0-1.2,1-1.5,2.9c-0.2,1.9-0.5,4-0.7,6.3c-0.2,2.3-0.6,4.4-1.1,6.3c-0.5,1.9-1.2,2.9-2.2,2.9c-1.5,0-4.4-0.4-8.7-1.3
		c-4.4-0.8-7.7-1.3-10.2-1.3c-0.5,0-0.8,0.1-1.1,0.2c-0.2,0.1-0.5,0.2-0.7,0.2l35.2,34.5c0.2,0.2,0.8,0.4,1.8,0.4
		c0.2,5,0.8,8.4,1.6,10.1c0.8,1.7,2.5,2.5,4.9,2.5c1.9,0,4.5-0.4,7.6-1.1C213.3,141.8,217.1,141.2,221.7,140.7z M241.3,95.8
		c0.5,0-0.2-0.7-2.2-2.2c-1.9-1.4-4.1-3.1-6.5-5c-2.4-1.9-4.7-3.7-6.9-5.4c-2.2-1.7-3.3-2.8-3.3-3.2c-0.5-1.4-1-4-1.6-7.5
		c-0.6-3.6-1.4-7.5-2.4-11.7c-1-4.2-2.1-8.2-3.4-12c-1.3-3.8-3.1-6.8-5.3-9c-1.2-1.2-2.1-2.6-2.5-4.3c-0.7,0-1.4,1-2,2.9
		c-0.6,1.9-1.2,4-1.8,6.1c-0.6,2.2-1.2,4.2-1.8,6.1c-0.6,1.9-1.4,2.9-2.4,2.9c-1.5,0-4.4-0.4-8.7-1.3c-4.4-0.8-7.7-1.3-10.2-1.3
		c-0.5,0-0.8,0.1-1.1,0.2c-0.2,0.1-0.5,0.2-0.7,0.2l35.2,34.5c0.2,0.2,0.8,0.4,1.8,0.4c0.2,5,0.8,8.4,1.6,10.1
		c0.8,1.7,2.5,2.5,4.9,2.5c1.9,0,4.5-0.4,7.6-1.1C232.8,96.8,236.7,96.2,241.3,95.8z M353,178.1c0-3.1-0.7-7.1-2.2-11.9
		c-4.6-6.7-9.6-10.1-14.9-10.1c-3.9,0-7.6,0.6-11.2,1.8L283.4,182l-57.7-37.4l-17.8,4l71.4,61.8L353,178.1z M329.1,146.1l-2.5-2.9
		h-0.4c-0.5,0-1.1-0.1-1.8-0.4c-0.7-0.2-1.9-0.4-3.6-0.4c-1,0-2.1,0.1-3.3,0.2c-1.2,0.1-2.7,0.4-4.4,0.9l-29.4,7.5
		c-1.2,0-2.8-0.8-4.7-2.5c-1.9-1.7-3.1-2.8-3.6-3.2l-23.2-26.2c-0.5-0.5-1.5-1.6-2.9-3.4c-1.5-1.8-3-3.7-4.7-5.7
		c-1.7-2-3.3-3.9-4.7-5.6c-1.5-1.7-2.4-2.5-2.9-2.5h-0.7c-1.9,0-4.2,0.5-6.9,1.4c-2.7,1-4,2.2-4,3.6l0.4,1.1
		c3.6,6.2,8.4,12.9,14.3,20.1c5.9,7.2,11.7,13.8,17.4,19.9c5.7,6.1,10.6,11.2,14.9,15.3c4.2,4.1,6.6,6.1,7.1,6.1
		c3.1,0,7.3-0.7,12.5-2.2c5.2-1.4,10.5-3.1,15.8-5c5.3-1.9,10.3-4,14.9-6.1c4.6-2.2,8-4,10.2-5.4L329.1,146.1z M434.6,127
		c0-1.9-0.9-3.2-2.7-3.8c-1.8-0.6-4.3-1.9-7.4-3.8l-79-4.3c-2.4,1.4-3.6,2.9-3.6,4.3c0,0.7,0.2,1.4,0.5,2c0.4,0.6,0.5,1.4,0.5,2.3
		c0,1-0.1,2-0.4,3.2c-0.2,1.2-0.4,2.5-0.4,4c0,1.2,0.1,2.3,0.4,3.4c0.2,1.1,1,2.2,2.2,3.4l82.3,3.6c1.5,0,2.7,0.2,3.6,0.7
		c1,0.5,1.7,0.7,2.2,0.7c0.7,0,1.1-1.7,1.1-5L434.6,127z M490.4,249.6l-59.8-88c-19.3-4.8-35.1-7.2-47.1-7.2
		c-14.7,0-22.1,4-22.1,11.9v1.8c0.2,3.6,3.9,7.2,10.9,10.8l46.8,2.9l50.4,67.9L490.4,249.6L490.4,249.6z M434.6,34c0-6-3.3-9-9.8-9
		c-6.8,0-10.2,3-10.2,9c0,6,3.4,9,10.2,9C431.3,42.9,434.6,39.9,434.6,34z M448,67.7c0-5-3.3-7.5-9.8-7.5c-6,0-9.1,2.5-9.1,7.5
		c0,5.3,3,7.9,9.1,7.9C444.7,75.6,448,73,448,67.7z M495.9,161.5l-8-6.5v-1.8c0-8.4-1.9-13.7-5.8-15.8c-3.9-2.2-8.1-3.2-12.7-3.2
		h-6.5c-5.6,0-10.2,1.9-14,5.7c-3.8,3.8-5.7,8.5-6,14l-0.4,8.3c0,4.1,1.5,7,4.5,8.8c3,1.8,7.2,2.7,12.5,2.7h10.5l4.7,8.3
		L495.9,161.5z M461,103.7c0-4.3-2.3-6.5-6.9-6.5c-4.8,0-7.3,2.2-7.3,6.5c0,4.1,2.4,6.1,7.3,6.1C458.7,109.8,461,107.7,461,103.7z"
		/>
</g>
</svg>
