<?xml version="1.0" encoding="utf-8"?>
<!-- Generator: Adobe Illustrator 19.0.0, SVG Export Plug-In . SVG Version: 6.00 Build 0)  -->
<svg version="1.1" id="beachcombing_xA0_Image_1_" xmlns="http://www.w3.org/2000/svg" xmlns:xlink="http://www.w3.org/1999/xlink"
	 x="0px" y="0px" viewBox="0 0 575.76 574.32" enable-background="new 0 0 575.76 574.32" xml:space="preserve">
<ellipse fill="#573922" stroke="#2B1C11" stroke-width="30" stroke-miterlimit="10" cx="287.493" cy="288.351" rx="273.546" ry="272.688"/>
<g>
	<path fill="#FFFFFF" d="M359.496,153.082l-40.502-28.009c-4.5-19.173-8.813-32.239-12.939-39.213
		c-4.125-6.973-9.815-10.46-17.063-10.46c-5.502,0-10.629,2.825-15.375,8.461c-2.004,2.455-5.127,6.135-9.376,11.039l10.125-24.833
		c-3.75-5.443-9.879-7.793-18.376-7.043l-25.126,55.409c4.998,7.489,11.122,10.612,18.376,9.358
		c-3.504,9.739-5.25,18.223-5.25,25.46c0,5.989,1.746,10.981,5.25,14.971c-0.75,1.5-1.875,4.371-3.375,8.613l-30.376,95.09
		l16.501,11.233l39.002-86.629c6.246,7.753,11.748,14.127,16.501,19.126l3.375,18.376l-24.751,42.001l13.413,2.25l14.907-25.502
		l4.839,28.502l24.969-4.875l-11.25-56.253l33.375-57.377l5.626,3L359.496,153.082z M335.495,157.53l-27.001,46.877
		c-5.004-21.001-12-37.625-21.001-49.878c4.499-7.5,8.497-15.001,12-22.501l4.5,10.125L335.495,157.53z M324.244,54.963
		c0-4.945-1.688-9.088-5.063-12.428c-3.374-3.34-7.564-5.01-12.562-5.01c-4.752,0-8.877,1.67-12.376,5.01
		c-3.504,3.34-5.25,7.483-5.25,12.428c0,4.699,1.747,8.784,5.25,12.246c3.498,3.463,7.623,5.192,12.376,5.192
		c4.998,0,9.188-1.729,12.562-5.192C322.557,63.746,324.244,59.662,324.244,54.963z"/>
</g>
</svg>
