<?xml version="1.0" encoding="utf-8"?>
<!-- Generator: Adobe Illustrator 19.0.0, SVG Export Plug-In . SVG Version: 6.00 Build 0)  -->
<svg version="1.1" id="beachcombing_xA0_Image_1_" xmlns="http://www.w3.org/2000/svg" xmlns:xlink="http://www.w3.org/1999/xlink"
	 x="0px" y="0px" viewBox="18 -17.2 635.8 634.2" style="enable-background:new 18 -17.2 635.8 634.2;" xml:space="preserve">
<style type="text/css">
	.st0{fill:#FFFF00;}
	.st1{fill:#573922;stroke:#2B1C11;stroke-width:30;stroke-miterlimit:10;}
	.st2{fill:#FFFFFF;}
</style>
<ellipse class="st0" cx="336.7" cy="299.3" rx="318.7" ry="317.7"/>
<ellipse class="st1" cx="335.9" cy="299.5" rx="273.5" ry="272.7"/>
<g>
	<path class="st2" d="M565.6,210.6c-6.1-8.4-58.2-18-156.1-28.7c-19.1-24.9-32.5-37.3-40.2-37.3c-17.6-0.4-33.3-0.6-47.1-0.6
		c-13.8,0-25.6,0-35.6,0h-21.2l-17.2,17.2c-11.9,11.9-18.6,17.8-20.1,17.8c-5.4,0-13.2,0.7-23.5,2c-10.3,1.3-23.3,3.4-39,6
		c-32.1,5.7-50.9,10.3-56.3,13.8c-2.7,1.5-4,5.7-4,12.6c0,5.7,1,13,2.9,21.8l78.6,9.2c10.3-22.6,25.4-33.9,45.3-33.9h1.7
		c15.3,0,29.1,11.3,41.3,33.9h171.6c6.1-23,20.5-34.4,43.1-34.4c16.5,0,27.9,4,34.4,12.1c8,16.8,14.5,25.3,19.5,25.3
		c3.8,0,9.6-5,17.2-14.9c2.7-3.8,4-7.5,4-10.9C565,213.9,565.2,210.2,565.6,210.6z M262.5,251.9c0-8.4-2.9-15.8-8.6-22.1
		c-5.7-6.3-12.8-9.5-21.2-9.5c-8.4,0-15.6,3-21.5,8.9c-5.9,5.9-8.9,13.1-8.9,21.5c0,8.8,2.9,16.2,8.6,22.1
		c5.7,5.9,12.8,8.9,21.2,8.9c8.8,0,16.1-2.9,21.8-8.6C259.7,267.4,262.5,260.3,262.5,251.9z M251.1,254.8c0,11.9-6.3,17.8-18.9,17.8
		c-12.3,0-18.4-5.9-18.4-17.8c0-12.2,5.9-18.4,17.8-18.4C244.5,236.4,251.1,242.6,251.1,254.8z M390.5,190.5H270l18.4-24.7h84.4
		L390.5,190.5z M524.3,250.8c0-8-2.9-15.3-8.6-21.8c-5.7-6.5-12.4-9.8-20.1-9.8c-8.8,0-16.3,3.1-22.4,9.2
		c-6.1,6.1-9.2,13.6-9.2,22.4c0,8.4,3,15.7,8.9,21.8c5.9,6.1,12.9,9.2,21,9.2c8.8,0,16.1-3,21.8-8.9
		C521.4,266.9,524.3,259.6,524.3,250.8z M512.2,254.8l0.6-1.1c0,12.6-5.9,18.9-17.8,18.9c-13,0-19.5-5.9-19.5-17.8v-1.7
		c0-11.1,5.9-16.6,17.8-16.6C505.9,236.4,512.2,242.6,512.2,254.8z"/>
</g>
</svg>
