<?xml version="1.0" encoding="utf-8"?>
<!-- Generator: Adobe Illustrator 19.2.1, SVG Export Plug-In . SVG Version: 6.00 Build 0)  -->
<svg version="1.1" id="beachcombing_xA0_Image_1_" xmlns="http://www.w3.org/2000/svg" xmlns:xlink="http://www.w3.org/1999/xlink"
	 x="0px" y="0px" viewBox="0 0 575.8 574.3" style="enable-background:new 0 0 575.8 574.3;" xml:space="preserve">
<style type="text/css">
	.st0{fill:#FFFF00;}
	.st1{fill:#573922;stroke:#2B1C11;stroke-width:30;stroke-miterlimit:10;}
	.st2{display:none;}
	.st3{display:inline;fill:#FFFFFF;}
	.st4{fill:#FFFFFF;}
</style>
<ellipse class="st0" cx="287.1" cy="286.7" rx="287.1" ry="286.2"/>
<ellipse class="st1" cx="287.2" cy="286.7" rx="246.4" ry="245.7"/>
<g class="st2">
	<path class="st3" d="M335.2,165.9c-0.5,0-1,0-1.5,0c-1.2-0.5-2.4-0.8-3.5-1.4c-1.6-1-3.1-2.2-4.7-3.3c-1.5-1.1-3.1-1.7-5-1.6
		c-1.3,0-2.6,0-3.8,0c-3.1-0.1-4.9-1.4-5.9-4.4c-0.4-1.1-0.7-2.2-1-3.3c-0.6-2.3-1.7-4.2-3.5-5.7c-5.2-4.5-10.4-9.1-15.5-13.7
		c-5.4-4.9-10.3-10.1-12.5-17.2c0-0.1,1.3,3.9-0.3-0.2c-1.6-4.1,0-3.9,0-5.9c0.9-1.5,1.8-3,2.9-4.4c0.7-0.9,1.1-1.6,0.8-2.7
		c-0.8-3.7,0.2-7,3.3-9.3c1.8-1.4,4-2.3,6.1-3.3c0.7-0.3,1.2-0.6,1.4-1.4c1.1-6.3,4.9-9.7,11.4-10.1c1.1-0.1,1.8-0.5,2.3-1.5
		c3.2-6.7,8.1-9.1,15.3-7.5c0.4,0.1,1.1,0.1,1.4-0.2c2-2.1,7-4.5,7-4.5s2.4-1.6,5.6,0c0.3,0.2,0.6,0.4,0.9,0.5
		c1.7,1.1,3.5,2,5.2,3.2c0.9,0.7,1.6,1,2.8,0.6c3.7-1.1,7.1-0.4,9.9,2.2c1.6,1.4,2.8,3.3,4.1,5c0.5,0.6,0.9,1.1,1.8,0.9
		c3.2-0.7,5.9,0.3,8.3,2.3c2.9,2.4,4.6,5.5,6.1,8.8c0.4,0.8,1.1,1.8,1.8,2.1c5.5,2.1,8,6.4,8.6,11.9c0.2,1.8,0.5,3.4,2.3,4.5
		c0.9,0.6,1.4,2,2.1,3c0.2,0.3,0.5,1.1,0.5,1.1s1.6,2.7,0,5.4c-2,4.2-0.3,0.3-0.3,0.5c-1.1,3.1-2.9,5.9-4.9,8.4
		c-5.7,7.1-12.1,13.6-18.6,19.9c-2.1,2.1-3.7,4.4-4.8,7.1c-0.6,1.5-1.3,3-2,4.4c-1.5,2.6-3.8,3.8-6.8,3.6c-0.9,0-1.8-0.1-2.7-0.1
		c-2.3-0.1-4.3,0.6-6.1,2C341.1,163.3,338.3,164.9,335.2,165.9z"/>
</g>
<g>
	<path class="st4" d="M233.4,247.5h-0.3c0-1.5-1-2.8-2.9-3.8c1.9-2.1,2.9-3.8,2.9-5.1V238c-1.1-1.9-2.7-3.2-4.8-3.8
		c1.3-0.8,1.9-1.9,1.9-3.2c0-2.3-1.7-3.9-5.1-4.8c0.6-0.8,1-1.9,1-3.2c0-1.9-1.1-2.9-3.2-2.9c-1.1,0-1.9,0.1-2.6,0.3v-1.3
		c0-1.9-0.4-3.3-1.3-4.1c0-0.4-1.7-1-5.1-1.6c0-3.2-1.3-4.8-3.8-4.8c-1.1,0-2.4,0.3-3.8,1c-0.2-1.3-1.6-2.8-4.2-4.5h-1
		c-1.7,0-3,0.6-3.8,1.9c-1.7-2.3-3-3.5-3.8-3.5c-1.7,0.6-2.6,1.6-2.6,2.9c-2.6-1.5-4.5-2.2-5.8-2.2c-0.4,0-0.8,0.1-1,0.2
		c-0.2,0.1-0.4,0.2-0.6,0.2c-1.5,0.6-2.2,1.5-2.2,2.6c-1.5-0.8-2.9-1.3-4.2-1.3c-0.9,0-1.5,0.1-1.9,0.3c-0.9,0.2-1.5,1-1.9,2.2
		c-0.6-0.2-1.6-0.3-2.9-0.3c-3.4,0-5.1,1.8-5.1,5.4c-0.6-0.2-1.5-0.3-2.6-0.3c-2.1,0-3.3,0.6-3.5,1.9c-1.1,1.7-1.6,3.3-1.6,4.8
		c-1.7,0.4-3.3,1.7-4.8,3.8c-0.2,0.2-0.3,0.7-0.3,1.6c0,0.9,0.2,1.5,0.6,1.9c-3.4,0-5.1,1.3-5.1,3.8c0,0.4,0.2,0.9,0.6,1.3
		c-1.7,1.1-2.6,2.2-2.6,3.5v1c0,1.1,0.5,1.8,1.6,2.2c-1.1,0.6-2.4,1.9-3.8,3.8c0,2.1,1.5,3.8,4.5,5.1c-1.9,2.3-2.9,4-2.9,5.1
		c0.4,2.3,1.8,3.7,4.2,4.1c-0.9,0.9-1.3,2-1.3,3.5c0,0.9,0.1,1.5,0.3,1.9c0.6,1.1,2.5,2.2,5.4,3.5c-0.2,0.6-0.3,1.5-0.3,2.6
		c0,1.7,0.6,2.9,1.9,3.5l3.2,1.3v1.9c0,3,1.3,4.5,3.8,4.5c1.3,0,2.3-0.4,3.2-1.3c0.6,4.5,2.2,6.7,4.8,6.7c1.5,0,2.7-0.1,3.5-0.3
		c0.2,0.6,1.5,1.8,3.8,3.5c0.4,0.2,1.1,0.3,1.9,0.3c1.1,0,2.2-0.3,3.5-1c1.5,1.9,2.9,2.9,4.2,2.9s2.6-1,3.8-2.9
		c0.9,1.3,1.9,1.9,3.2,1.9c2.1,0,4.1-1.5,5.8-4.5c1.7,1.7,3,2.6,3.8,2.6c1.9,0,2.9-1.9,2.9-5.7c2.1,1.7,3.6,2.6,4.5,2.6h0.3
		c1.1-0.4,1.7-1.5,1.9-3.2l0.3-2.6c1.3,0.6,2.5,1,3.5,1c0.4,0,0.7-0.1,0.8-0.2s0.3-0.2,0.5-0.2c1.7-0.6,2.6-2,2.6-4.1
		c0-0.4-0.1-0.8-0.2-1.1c-0.1-0.3-0.2-0.7-0.2-1.1c1.5-0.6,3.3-1.7,5.4-3.2c0.2-0.4,0.3-0.8,0.3-1.3c0-0.8-0.6-1.8-1.9-2.9
		c3,0,4.6-0.7,4.8-2.2c0-1.5-0.5-3-1.6-4.5c1.1,0,2.2-0.6,3.5-1.9c0.2-0.2,0.3-0.6,0.3-1.3c0-0.8-0.6-1.9-1.9-3.2
		C232.3,250.7,233.4,249,233.4,247.5z M199.1,250.1l0.3-0.3c0.2,1.1,0.3,2,0.3,2.9c0,0.6,0,1.4,0,2.2c0,11.3-5,17.4-15.1,18.5H183
		c-6.2,0-11.7-2.4-16.5-7.2c-4.8-4.8-7.2-10.5-7.2-17.1c0-12.3,4.9-18.9,14.7-19.8h1.6c5.5,0,10.5,2.1,14.9,6.2
		C195,239.7,197.9,244.5,199.1,250.1z M419.8,198.7v-0.3c-0.6-2.3-2.6-3.5-5.8-3.5c-1.7,0-10.1,4.4-25.3,13.1l-25.9-5.1
		c-2.4-0.6-3.5-1.2-3.5-1.6c0-3.6,1.3-5.4,3.8-5.4c5.5,0.9,9.8,1.8,12.8,2.9c7.3,1.3,11.8,1.9,13.8,1.9c0.9,0,5-2.1,12.5-6.4h1.9
		c0.9-0.2,1.3-0.7,1.3-1.6c0.2,0,0.4-0.7,0.6-2.2c0-0.4-0.5-0.8-1.6-1.3c-0.9-0.2-6.5-1.2-17-2.9c-4.9-0.8-9-1.4-12.2-1.8
		c-3.2-0.3-5.3-0.5-6.4-0.5c2.1-0.2,3.4-0.5,3.8-1H372l-1.3,0.6c-2.4,0-6.5-4.1-12.5-12.4c-2.1-0.8-3.4-1.9-3.8-3.2
		c-0.2-0.4-0.3-1-0.3-1.6c0-1.3,0.9-1.9,2.6-1.9c8.3,0,12.5-3.9,12.5-11.8c0-4.7-2.1-7-6.4-7h-0.6c-4.5,0-9.8,0.7-16,2.2l-3.2-7.3
		c0.2-0.4,1.3-1.3,3.2-2.6c6.4-0.8,9.6-3.4,9.6-7.7c0-3.4-1.6-5.1-4.8-5.1c-1.3,0.4-2.4,0.7-3.2,1l0.3-0.6h-13.5
		c-13.9,0-21.5-0.5-22.7-1.6c-6-6.6-13.6-13.5-22.7-20.7c-0.9,0.9-3.4,1.6-7.7,2.2c-3.6-0.6-8.2-1-13.8-1l-6.4-1.3
		c-1.7-0.2-3-0.4-4-0.5s-1.8-0.2-2.4-0.2h-1c-1.1,0.2-3.4,3.9-7,11.2c-1.9,3.6-2.9,10.6-2.9,21.1c0,3.4,0.6,5.5,1.9,6.4l5.1,1.6
		c-0.2,1.5-0.5,3.1-1,4.9c-0.4,1.8-0.9,3.9-1.3,6.2c-0.9,1.7-1.3,5.3-1.3,10.9c-8.3-3.2-14.8-4.8-19.5-4.8c-1.7,0-3.2,0.2-4.5,0.6
		c-5.8,0.9-10.6,3.2-14.4,7c-1.5,1.5-3.7,4.8-6.7,9.9h-0.6c-1.3,0-3.2-0.6-5.8-1.9l-4.5-7.3c-0.4-0.4-1.4-0.6-2.9-0.6
		s-2.8,0.1-3.8,0.3c-2.8,0.9-5.6,1.7-8.3,2.4c-2.8,0.7-5.7,1.7-8.6,2.7c-1.9,1.3-2.9,3-2.9,5.1v2.9c0,2.1-0.3,4.5-1,7
		c-0.6,2.3-1.1,3.5-1.3,3.5v-1c0,0.9,0.3,1.7,1,2.6c4.1-0.8,9.1-1.3,15.1-1.3c14.1,0,25.9,2.3,35.5,7c3,1.7,8.8,7.2,17.3,16.6
		c8.5,9.6,12.4,14.4,11.5,14.4l-0.3,8c0.2,0.4,0.3,1.1,0.3,1.9c0,1.7-0.6,3-1.9,3.8c1.9,1.1,2.9,2.3,2.9,3.8c0,2.1-1.1,3.8-3.2,5.1
		c1.3,1.1,1.9,2.3,1.9,3.8v1l-1.9,0.3c2.1,1.9,3.7,2.9,4.8,2.9c1.1-0.4,2.1-1.6,3.2-3.5c0.4,0,0.9,0.1,1.3,0.2
		c0.4,0.1,0.9,0.2,1.3,0.2c4.7,0,7-1.4,7-4.1l-0.3-1c3.6,0,5.4-0.5,5.4-1.6c0.2-2.8,0.7-4.1,1.6-4.1h25.6c4.7,2.1,7.6,3.2,8.6,3.2
		h0.6c1.5-2.3,2.8-4.7,3.8-7c1.1-2.3,1.8-4.7,2.2-7c2.8-6.6,11.1-14,25-22.3c2.8-1.5,6.3-2.3,10.6-2.6c0.9,0,1.7-0.1,2.6-0.2
		c0.9-0.1,1.8-0.2,2.9-0.2l7,0.3c1.7,0.2,3.1,0.3,4.2,0.3c1.3,0,2.2,0.1,2.9,0.3h-0.3c0,0.2,9.2,1.8,27.5,4.8
		C409.3,207.5,419.8,201.6,419.8,198.7z M189.5,263.5c-2.1-4-5.2-6.9-9.3-8.6c-0.4-0.8-0.9-1.6-1.3-2.2c-0.4-0.6-0.8-1.2-1-1.6
		c-1.9-1.9-4.1-2.9-6.4-2.9l-1.6,0.3c-3.6,0.6-5.6,1.7-5.8,3.2v0.6c0,2.8,1.8,6.2,5.4,10.2c4.1,3.8,7.9,5.7,11.5,5.7
		c1.3,0,3-0.6,5.1-1.9C188.5,265.1,189.5,264.1,189.5,263.5z M189.9,176.6c0,0.9-0.4,1.4-1.3,1.6v-0.3c-2.6,1.9-7.5,4.1-14.7,6.7
		c-0.2,0.2-0.5,0.3-1,0.3c-1.1,0-2.1-0.7-3-2.1c-1-1.4-1.4-2.6-1.4-3.7c0-2.1,5.3-4.8,16-8h0.6c0.9,0,1.5,0.2,1.9,0.6
		C188.9,173.8,189.9,175.4,189.9,176.6z M287.8,80.3h0.6c0-5.1-1.6-9.3-4.8-12.6c-3.2-3.3-7.3-4.9-12.2-4.9c-4.7,0-8.8,1.7-12.3,4.9
		c-3.5,3.3-5.3,7.4-5.3,12.3c0,10.9,7.8,17,23.4,18.5h1.3C284.7,98.4,287.8,92.4,287.8,80.3z M277.3,211.4
		c6.8,0.4,10.2,0.9,10.2,1.3c0,1.9-1.2,4-3.5,6.4c-1.9-1.9-4.7-2.9-8.3-2.9c-8.5,0-12.8,4.4-12.8,13.1c0,3.6,1.2,6.6,3.5,8.9h-4.2
		c-3.4-5.3-5.1-10.1-5.1-14.4c0.2-1.3,0.5-3.2,1-5.7c1.7-3.6,4.7-5.8,9-6.7c0.4,0,0.9-0.1,1.4-0.2c0.5-0.1,1.2-0.2,2.1-0.2
		s1.8,0.1,2.9,0.2C274.5,211.4,275.8,211.4,277.3,211.4z M285.9,80.3c0.4,0.4,0.6,1.1,0.6,1.9c0,0.9-0.1,1.5-0.3,1.9
		c-0.4,1.9-1.1,2.9-1.9,2.9c-0.2,0.2-0.5,0.3-1,0.3c-1.3,0-2.7-0.7-4.2-2.2c-2.8,1.5-4.9,2.2-6.4,2.2c-0.6,0-1.1-0.1-1.3-0.3
		c-3.4-0.2-5.1-1.8-5.1-4.8c0-1.9,0.6-3.8,1.8-5.7c1.2-1.9,2.2-2.9,3-2.9h11.2C284.3,73.6,285.5,75.8,285.9,80.3z M317.9,213.3
		c0,1.1-0.4,2-1.3,2.9c-9,8.9-13.9,15.3-14.7,19.2c-0.4,1.9-1,3.1-1.6,3.5c-0.4,0-0.9-0.2-1.3-0.6c-2.1-0.2-4.6-1.3-7.4-3.2v-0.3
		c0-2.8,3.5-9.5,10.6-20.1c2.3-3,4.8-4.5,7.4-4.5C315.2,210.2,317.9,211.2,317.9,213.3z M331.7,166.1c-0.6,0.6-1.6,1-2.9,1
		s-2.4-0.1-3.2-0.3c-0.9-2.1-2.9-4.5-6.1-7c-1.3-1.5-2.6-2.2-3.8-2.2c-6-1.1-10.7-1.9-14.2-2.6c-3.5-0.6-5.9-1.2-7.2-1.6
		c10-0.8,18.5-3.9,25.3-9.3C321.9,144.1,326,151.4,331.7,166.1z M339.7,131.3c-1.9,3-2.9,5.1-2.9,6.4s0.6,5.1,1.9,11.5l-6.4,1.3
		c-1.5-1.9-3.2-3.9-5-6.1c-1.8-2.1-3.9-4.4-6.2-6.7c-0.4,0-0.8-0.1-1-0.2c-0.2-0.1-0.4-0.2-0.6-0.2c-0.4,0-0.7,0.1-0.8,0.2
		c-0.1,0.1-0.3,0.2-0.5,0.2c-1.5,0.4-4,1-7.5,1.8c-3.5,0.7-8.1,1.7-13.6,2.7V131c4.7,2.3,9.5,3.5,14.4,3.5c2.8,0,5.8-0.5,9-1.6
		c0.6-0.2,2.6-0.4,5.8-0.6C329.5,132.1,334,131.8,339.7,131.3z M397.4,265.7c0-1.5-1.1-2.7-3.2-3.5c1.3-1.9,1.9-3.7,1.9-5.4v-1
		c-1.1-1.1-2.5-2-4.2-2.9c1.1-1.5,1.6-2.7,1.6-3.5c0-3-1.6-4.5-4.8-4.5c-0.4,0-0.8,0.1-1,0.3c0.4-1.7,0.6-2.8,0.6-3.2
		c0-2.3-1.2-3.5-3.5-3.5l-1.9,0.3c0-0.6-0.5-2.2-1.6-4.8c-0.6-0.6-1.8-1-3.5-1h-2.2c0-3.6-1.3-5.4-3.8-5.4c-1.1,0-2.1,0.5-3.2,1.6
		c-0.6-1.3-2-2.6-4.2-3.8c-0.9-0.4-1.5-0.6-1.9-0.6c-1.5,0-2.7,0.7-3.5,2.2c-1.5-2.1-2.8-3.2-3.8-3.2c-1.1,0.4-1.9,1.5-2.6,3.2
		c-2.6-1.1-4.2-1.6-4.8-1.6c-3.2,0-4.8,0.7-4.8,2.2c-1.7-0.4-2.9-0.6-3.5-0.6l-2.2,0.3c-1.1,0.6-1.8,1.6-2.2,2.9
		c-0.6-0.2-1.5-0.3-2.6-0.3c-3.6,0-5.4,1.9-5.4,5.7c-0.6-0.2-1.6-0.3-2.9-0.3c-3,0-4.5,2.1-4.5,6.4c-0.4,0.4-1,0.9-1.8,1.3
		c-0.8,0.4-1.7,1.1-2.7,1.9c0.4,0.9,0.6,2.3,0.6,4.5c-3,0-4.5,1.3-4.5,3.8c0,0.6,0.2,1.2,0.6,1.6c-1.1,0.6-1.9,1.9-2.6,3.8v1.3
		c0,1.3,0.3,2,1,2.2c-0.2,0.2-0.9,1.4-1.9,3.5v1c0,2.3,1.4,3.6,4.2,3.8c-1.7,2.1-2.6,3.8-2.6,5.1v0.6c0.6,1.7,2,2.9,4.2,3.5
		c-0.9,0.9-1.3,2-1.3,3.5c0,2.3,2,4.3,6.1,5.7c-0.2,0.4-0.3,1.2-0.3,2.2c0,2.8,1.9,4.1,5.8,4.1c0,2.6,0.5,4.4,1.6,5.4
		c0.9,0.9,1.7,1.3,2.6,1.3s1.7-0.4,2.6-1.3c1.1,4.3,2.9,6.4,5.4,6.4c1.1,0,2.3-0.4,3.8-1.3c0.4,1.5,1.6,2.9,3.5,4.1h1
		c1.3,0,2.9-0.6,4.8-1.9c2.1,1.7,3.6,2.6,4.5,2.6c1.3,0,2.6-1.1,3.8-3.2c1.1,1.7,2.2,2.6,3.5,2.6c1.9,0,3.4-1.5,4.5-4.5
		c1.7,1.1,2.9,1.6,3.5,1.6c2.1,0,3.2-1,3.2-2.9c0-0.8-0.1-1.6-0.3-2.2c1.9,1.3,3.4,1.9,4.5,1.9h0.6c1.5-0.4,2.2-2,2.2-4.8v-1.3
		c1.3,0.4,2.1,0.6,2.6,0.6c3,0,4.5-1.3,4.5-3.8c0-1.1-0.1-1.9-0.3-2.6c1.5-0.6,3.2-1.7,5.1-3.2c0.2-0.2,0.3-0.5,0.3-1
		c0-1.1-0.6-2.1-1.9-3.2c2.8,0,4.4-1,4.8-2.9c0-0.4-0.2-1.3-0.6-2.6l-1-1.6c1.1,0,2.2-0.8,3.5-2.6v-0.6c0-1.3-0.6-2.6-1.9-3.8
		C396.5,269.1,397.4,267.4,397.4,265.7z M367.9,275c0,5.3-1.4,9.9-4.3,13.9c-2.9,3.9-6.5,6.1-10.7,6.5h-1c-5.8,0-11.2-2.8-16.3-8.3
		c-5.3-5.5-8-11.8-8-18.8c0-10.6,4.9-16.7,14.7-18.2h1.9c6.2,0,11.7,2.4,16.5,7.3C365.5,262.3,367.9,268.1,367.9,275z M341.3,283.2
		c0.2-0.2,0.3-0.6,0.3-1.3c-3-12.1-5.1-18.2-6.4-18.2c-2.4,0-3.5,2.6-3.5,7.7v1.3c0,5.1,1.8,8.5,5.4,10.2c1.3,0.6,2.3,1,3.2,1
		C341,283.9,341.3,283.7,341.3,283.2z M433.2,236.3v-0.6c0-0.4-0.4-1.2-1.1-2.4c-0.8-1.2-1.3-1.8-1.8-1.8H430c0.6-1.3,1-2.7,1-4.1
		v-1.6c-0.2-0.8-2.1-1.9-5.8-3.2c1.3-1.9,1.9-3.5,1.9-4.8c0-1.9-1.7-2.9-5.1-2.9h-1.6l-18.3,7.7c-1.3,0.6-1.9,1.3-1.9,1.9
		c0,0.4,0.1,0.7,0.3,1c0.9,3.6,1.5,6.4,1.9,8.3c0.4,1.9,0.6,3.1,0.6,3.5c0,4,0.3,8.1,1,12.1c2.6,1.3,3.8,2.9,3.8,4.8
		c0,2.1-0.6,3.6-1.9,4.5c1.9,1.3,2.9,2.4,2.9,3.5c0,1.5-1,3.3-2.9,5.4c1.9,1.1,2.9,2.3,2.9,3.8c1.1-0.2,2-0.4,2.7-0.5
		s1.5-0.3,2.4-0.5c0.4,0.2,1,0.3,1.6,0.3s1.2-0.1,1.6-0.3c1.9-0.4,3-2.4,3.2-6.1l1.3,0.3c1.9,0,3.4-2.4,4.5-7.3
		c0.6,0,1.6-0.6,2.9-1.8c1.3-1.2,1.9-2.3,1.9-3.4c0-0.8-0.3-1.6-1-2.2c0.6-0.4,1.5-1.6,2.6-3.5c0-0.8-0.5-2.7-1.6-5.4
		c1.5-2.1,2.2-3.6,2.2-4.5L433.2,236.3L433.2,236.3z"/>
</g>
</svg>
