<?xml version="1.0" encoding="utf-8"?>
<!-- Generator: Adobe Illustrator 19.0.0, SVG Export Plug-In . SVG Version: 6.00 Build 0)  -->
<svg version="1.1" id="beachcombing_xA0_Image_1_" xmlns="http://www.w3.org/2000/svg" xmlns:xlink="http://www.w3.org/1999/xlink"
	 x="0px" y="0px" viewBox="38 -37.3 575.8 574.3" style="enable-background:new 38 -37.3 575.8 574.3;" xml:space="preserve">
<style type="text/css">
	.st0{fill:#573922;stroke:#2B1C11;stroke-width:30;stroke-miterlimit:10;}
	.st1{display:none;}
	.st2{display:inline;fill:#FFFFFF;}
	.st3{fill:#FFFFFF;}
</style>
<ellipse class="st0" cx="325.9" cy="251.7" rx="273.5" ry="272.7"/>
<g class="st1">
	<path class="st2" d="M411.2,91.3c-0.5,0-1,0-1.5,0c-1.2-0.5-2.4-0.8-3.5-1.4c-1.6-1-3.1-2.2-4.7-3.3c-1.5-1.1-3.1-1.7-5-1.6
		c-1.3,0-2.6,0-3.8,0c-3.1-0.1-4.9-1.4-5.9-4.4c-0.4-1.1-0.7-2.2-1-3.3c-0.6-2.3-1.7-4.2-3.5-5.7c-5.2-4.5-10.4-9.1-15.5-13.7
		c-5.4-4.9-10.3-10.1-12.5-17.2c0-0.1,1.3,3.9-0.3-0.2c-1.6-4.1,0-3.9,0-5.9c0.9-1.5,1.8-3,2.9-4.4c0.7-0.9,1.1-1.6,0.8-2.7
		c-0.8-3.7,0.2-7,3.3-9.3c1.8-1.4,4-2.3,6.1-3.3c0.7-0.3,1.2-0.6,1.4-1.4c1.1-6.3,4.9-9.7,11.4-10.1c1.1-0.1,1.8-0.5,2.3-1.5
		c3.2-6.7,8.1-9.1,15.3-7.5c0.4,0.1,1.1,0.1,1.4-0.2c2-2.1,7-4.5,7-4.5s2.4-1.6,5.6,0c0.3,0.2,0.6,0.4,0.9,0.5
		c1.7,1.1,3.5,2,5.2,3.2c0.9,0.7,1.6,1,2.8,0.6c3.7-1.1,7.1-0.4,9.9,2.2c1.6,1.4,2.8,3.3,4.1,5c0.5,0.6,0.9,1.1,1.8,0.9
		c3.2-0.7,5.9,0.3,8.3,2.3c2.9,2.4,4.6,5.5,6.1,8.8c0.4,0.8,1.1,1.8,1.8,2.1c5.5,2.1,8,6.4,8.6,11.9c0.2,1.8,0.5,3.4,2.3,4.5
		c0.9,0.6,1.4,2,2.1,3c0.2,0.3,0.5,1.1,0.5,1.1s1.6,2.7,0,5.4c-2,4.2-0.3,0.3-0.3,0.5c-1.1,3.1-2.9,5.9-4.9,8.4
		c-5.7,7.1-12.1,13.6-18.6,19.9c-2.1,2.1-3.7,4.4-4.8,7.1c-0.6,1.5-1.3,3-2,4.4c-1.5,2.6-3.8,3.8-6.8,3.6c-0.9,0-1.8-0.1-2.7-0.1
		c-2.3-0.1-4.3,0.6-6.1,2C417.1,88.7,414.3,90.3,411.2,91.3z"/>
</g>
<g>
	<path class="st3" d="M491.6,72c-5.9-7.3-23.3-13.7-52.2-19.4c-12.4-2.4-23.5-4.3-33.2-5.7c-9.7-1.3-18.1-2-25.1-2h-95.4
		c-11.1,0-26.7,2.8-46.9,8.5C216.3,60.5,202,66.6,196,72v126.6h-31.5l-5.3,5.3l5.3,5.7H300l0.4-4.4c0-11.9,3.6-21.5,10.9-28.9
		c7.3-7.4,17-11.1,29.1-11.1c4.3,0,9.2,0.9,14.8,2.8c5.5,1.9,10.6,5.1,15.2,9.7c8.9,7.8,13.3,16,13.3,24.7c0,3-0.5,5.4-1.6,7.3
		c8.6,1.1,16.8,1.9,24.7,2.4c7.8,0.5,15.5,0.8,23,0.8c35.6,0,56.2-6.2,61.9-18.6L491.6,72L491.6,72z M199.3,229.7
		c0-10-4.9-15-14.6-15c-9.4,0-14.2,5-14.2,15c0,10,4.7,15,14.2,15C194.4,244.7,199.3,239.7,199.3,229.7z M293.9,127h-60.7V80.1h60.7
		V127L293.9,127z M376.8,206.7c0-10.5-3.4-18.9-10.3-25.3c-6.9-6.3-15.3-9.5-25.3-9.5c-9.7,0-17.5,3.2-23.5,9.5
		c-5.9,6.3-8.9,14.8-8.9,25.3c0,10.8,3,19.8,8.9,27.1c5.9,7.3,13.7,10.9,23.5,10.9c10,0,18.2-3.4,24.7-10.1
		c6.5-6.7,9.7-15.5,9.7-26.3L376.8,206.7z M355.4,208.3c0,9.2-4.6,13.7-13.7,13.7c-4.3,0-7.8-1.1-10.5-3.4c-2.7-2.3-4-5.7-4-10.3
		c0-9.4,4.6-14.2,13.7-14.2c4.6,0,8.2,1.2,10.7,3.4C354.1,199.9,355.4,203.5,355.4,208.3z M341.6,127V80.1h108V127H341.6z"/>
</g>
</svg>
