<?xml version="1.0" encoding="utf-8"?>
<!-- Generator: Adobe Illustrator 19.0.0, SVG Export Plug-In . SVG Version: 6.00 Build 0)  -->
<svg version="1.1" id="beachcombing_xA0_Image_1_" xmlns="http://www.w3.org/2000/svg" xmlns:xlink="http://www.w3.org/1999/xlink"
	 x="0px" y="0px" viewBox="0 0 575.76 574.32" enable-background="new 0 0 575.76 574.32" xml:space="preserve">
<ellipse fill="#573922" stroke="#2B1C11" stroke-width="30" stroke-miterlimit="10" cx="287.493" cy="288.351" rx="273.546" ry="272.688"/>
<polygon fill="#FFFFFF" points="307.091,271.559 306.917,234.318 381.358,234.18 344.483,187.774 372.657,187.774 334.538,141.369 
	353.599,141.783 311.337,91.649 325.424,91.649 285.94,52.972 285.941,51.873 285.38,52.422 284.819,51.873 284.819,52.972 
	245.336,91.649 259.424,91.649 217.162,141.783 236.221,141.369 198.103,187.774 226.277,187.774 189.401,234.18 263.843,234.318 
	263.67,271.559 244.922,271.47 244.735,281 285.037,281 285.723,281 326.024,281 325.838,271.47 "/>
</svg>
