<?xml version="1.0" encoding="utf-8"?>
<!-- Generator: Adobe Illustrator 19.0.0, SVG Export Plug-In . SVG Version: 6.00 Build 0)  -->
<svg version="1.1" id="beachcombing_xA0_Image_1_" xmlns="http://www.w3.org/2000/svg" xmlns:xlink="http://www.w3.org/1999/xlink"
	 x="0px" y="0px" viewBox="0 0 575.76 574.32" enable-background="new 0 0 575.76 574.32" xml:space="preserve">
<ellipse fill="#2A82C1" stroke="#004B6B" stroke-width="30" stroke-miterlimit="10" cx="287.493" cy="288.351" rx="273.546" ry="272.688"/>
<g>
	<path fill="#FFFFFF" d="M333.586,229.698c-10.968,33.902-42.592,57.122-78.204,57.122c-45.156,0-82.05-36.894-82.05-82.05
		c0-34.472,21.652-65.241,53.988-77.064l2.422,18.66c-23.219,10.256-38.176,33.048-38.176,58.404
		c0,35.184,28.632,63.817,63.817,63.817c36.609,0,66.238-31.338,63.674-67.947L333.586,229.698z M405.38,231.123l-36.467,18.233
		c-1.282,0.712-2.706,0.997-4.131,0.997c-3.419,0-6.695-1.994-8.12-4.986l-34.045-67.947h-67.236c-4.558,0-8.547-3.561-9.117-8.12
		L232.591,58.333c-0.142-1.424,0.427-4.558,0.855-5.983c2.706-9.829,11.823-16.239,21.937-16.239
		c12.535,0,22.792,10.256,22.792,22.792c0,12.963-11.396,24.074-24.501,22.649l5.27,41.167h60.256v18.233h-57.976l2.279,18.233
		h64.814c3.419,0,6.695,1.994,8.12,4.986l32.478,64.814l28.205-14.103L405.38,231.123z"/>
</g>
</svg>
