<?xml version="1.0" encoding="utf-8"?>
<!-- Generator: Adobe Illustrator 19.0.0, SVG Export Plug-In . SVG Version: 6.00 Build 0)  -->
<svg version="1.1" id="beachcombing_xA0_Image_1_" xmlns="http://www.w3.org/2000/svg" xmlns:xlink="http://www.w3.org/1999/xlink"
	 x="0px" y="0px" viewBox="38 -37.3 575.8 574.3" style="enable-background:new 38 -37.3 575.8 574.3;" xml:space="preserve">
<style type="text/css">
	.st0{fill:#573922;stroke:#2B1C11;stroke-width:30;stroke-miterlimit:10;}
	.st1{fill:#FFFFFF;}
</style>
<ellipse class="st0" cx="325.5" cy="251" rx="273.5" ry="272.7"/>
<g>
	<path class="st1" d="M389.4,12.7c-14.6,0-26.6,4.5-36.3,13.4c-0.2,0.2-2.3,2.8-6.3,7.6c-4,4.8-10.1,12.1-18.3,22
		c-4.9,1.2-10.7,2.8-17.3,4.9c-6.6,2.1-13.7,5.2-21.5,9.2C274.5,77,263.1,84,255.6,90.9c-2.6,5.6-3.9,9.5-3.9,11.6l0.4,1.4
		c-5.2,3.3-11.5,7.3-19,12c-7.5,4.7-16.6,10.1-27.1,16.2c-7.3,3.3-16.1,7.5-26.4,12.5c-10.3,5.1-22.3,11.2-35.9,18.5
		c0.7,2.8,1.5,5.2,2.3,7.2c0.8,2,1.5,3.7,1.9,5.1c3.8,2.6,11.4,4.9,22.9,7c2.3-1.4,9.7-6.7,22.2-15.8c12.7-9.4,19.1-14.6,19.4-15.5
		c6.3-3.5,14.1-5.5,23.2-6l4.9,2.1c-2.6,2.6-5.8,5.7-9.5,9.3c-3.8,3.6-8.2,8.2-13.4,13.6l-1.4,5.6l6,1.4c5.4-1.2,11.7-2.9,19-5.1
		c7.3-2.2,15.8-5,25.7-8.3c1.9,2.1,3.9,5.1,6,8.8c2.1,3.8,4.3,8.3,6.7,13.7c3,6.1,5.2,11.3,6.5,15.5c1.3,4.2,1.9,7.6,1.9,10.2
		c0,3.8-4.9,7.7-14.8,12c-9.9,4-14.8,10.1-14.8,18.3c0,0.9,0.6,1.4,1.8,1.4c1.2,0,8.7-4.8,22.5-14.4l5.3,1.8l5.3-2.8h4.6l2.5-7
		l34.2-21.1l3.9,3.5l4.2-5.3l4.2,1.8l3.9-5.3h3.9l4.9-7l21.8-14.1c4-3,6.6-6.1,7.9-9.2c1.3-3,1.9-6.2,1.9-9.5l-0.4-2.8
		c-0.2,0.2-9.9,7.4-28.9,21.5h-2.8c-3.1,0-7.6-0.9-13.7-2.8c-6.6-2.1-9.9-4.6-9.9-7.4c1.2-2.8,7.9-7.5,20.1-14.1
		c7.3-4,13.6-7.9,19-11.8c5.4-3.9,10.1-7.8,14.1-11.8c12.4-13.1,19.7-28.6,21.8-46.5l3.2-1.8c1.6-1.6,3.6-6.2,6-13.7
		c1.4-4.7,2.5-8.4,3.3-11.1c0.8-2.7,1.3-4.4,1.6-5.1c4,0,9.7-0.7,17.3-2.1c-3.5-4.9-9.7-7.4-18.7-7.4c-1.4,0-3.1,0.2-5.1,0.5
		c-2,0.4-4.2,1.1-6.5,2.3l-1.1-2.8c5.2-4.5,10.1-8.1,14.8-10.9c4.7-2.8,9.6-5.5,14.8-8.1c-2.1-0.9-6.7-1.5-13.7-1.8
		c-6.8,1.2-12.1,3.1-15.8,5.6C403,16.1,396,12.7,389.4,12.7z M317.9,168.3c14.6,2.1,21.8,5.3,21.8,9.5c0,3.3-5.6,8-16.9,14.1
		c-3.8,2.1-7.5,4.1-11.1,6c-3.6,1.9-7.5,3.8-11.4,5.6l-3.2-1.8c-3.8-6.8-7-13.3-9.9-19.5c-2.8-6.2-5.2-12.4-7-18.5l4.2-0.7
		c1.6,0.2,6.1,1.5,13.4,3.9c6.1,1.9,10.7,2.8,13.7,2.8C313.5,169.7,315.6,169.3,317.9,168.3z"/>
</g>
</svg>
