<?xml version="1.0" encoding="utf-8"?>
<!-- Generator: Adobe Illustrator 19.0.0, SVG Export Plug-In . SVG Version: 6.00 Build 0)  -->
<svg version="1.1" id="beachcombing_xA0_Image_1_" xmlns="http://www.w3.org/2000/svg" xmlns:xlink="http://www.w3.org/1999/xlink"
	 x="0px" y="0px" viewBox="38 -37.3 575.8 574.3" style="enable-background:new 38 -37.3 575.8 574.3;" xml:space="preserve">
<style type="text/css">
	.st0{fill:#573922;stroke:#2B1C11;stroke-width:30;stroke-miterlimit:10;}
	.st1{display:none;}
	.st2{display:inline;fill:#FFFFFF;}
	.st3{fill:#FFFFFF;}
</style>
<ellipse class="st0" cx="325.9" cy="249.4" rx="273.5" ry="272.7"/>
<g class="st1">
	<path class="st2" d="M449.2,54c-0.5,0-1,0-1.5,0c-1.2-0.5-2.4-0.8-3.5-1.4c-1.6-1-3.1-2.2-4.7-3.3c-1.5-1.1-3.1-1.7-5-1.6
		c-1.3,0-2.6,0-3.8,0c-3.1-0.1-4.9-1.4-5.9-4.4c-0.4-1.1-0.7-2.2-1-3.3c-0.6-2.3-1.7-4.2-3.5-5.7c-5.2-4.5-10.4-9.1-15.5-13.7
		c-5.4-4.9-10.3-10.1-12.5-17.2c0-0.1,1.3,3.9-0.3-0.2c-1.6-4.1,0-3.9,0-5.9c0.9-1.5,1.8-3,2.9-4.4c0.7-0.9,1.1-1.6,0.8-2.7
		c-0.8-3.7,0.2-7,3.3-9.3c1.8-1.4,4-2.3,6.1-3.3c0.7-0.3,1.2-0.6,1.4-1.4c1.1-6.3,4.9-9.7,11.4-10.1c1.1-0.1,1.8-0.5,2.3-1.5
		c3.2-6.7,8.1-9.1,15.3-7.5c0.4,0.1,1.1,0.1,1.4-0.2c2-2.1,7-4.5,7-4.5s2.4-1.6,5.6,0c0.3,0.2,0.6,0.4,0.9,0.5
		c1.7,1.1,3.5,2,5.2,3.2c0.9,0.7,1.6,1,2.8,0.6c3.7-1.1,7.1-0.4,9.9,2.2c1.6,1.4,2.8,3.3,4.1,5c0.5,0.6,0.9,1.1,1.8,0.9
		c3.2-0.7,5.9,0.3,8.3,2.3c2.9,2.4,4.6,5.5,6.1,8.8c0.4,0.8,1.1,1.8,1.8,2.1c5.5,2.1,8,6.4,8.6,11.9c0.2,1.8,0.5,3.4,2.3,4.5
		c0.9,0.6,1.4,2,2.1,3c0.2,0.3,0.5,1.1,0.5,1.1s1.6,2.7,0,5.4c-2,4.2-0.3,0.3-0.3,0.5c-1.1,3.1-2.9,5.9-4.9,8.4
		c-5.7,7.1-12.1,13.6-18.6,19.9c-2.1,2.1-3.7,4.4-4.8,7.1c-0.6,1.5-1.3,3-2,4.4c-1.5,2.6-3.8,3.8-6.8,3.6c-0.9,0-1.8-0.1-2.7-0.1
		c-2.3-0.1-4.3,0.6-6.1,2C455.1,51.4,452.3,53,449.2,54z"/>
</g>
<g>
	<path class="st3" d="M203.5,90.4c6.2,6.1,13.4,10,21.6,11.8c8.2,1.8,16.4,1.2,24.5-1.9c8.1-3.1,14.2-8.9,18.2-17.4
		c5.5-11.5,5.7-22.4,0.5-32.8c-5.2-10.3-11.9-17.2-20-20.6c-2.8-1.1-6.5-1.7-11-1.9c-4.6-0.2-8.5-0.1-11.7,0.3
		c-9,1.5-16.5,5.8-22.7,13c-6.2,7.1-9.2,15.7-9,25.8C194.2,76.4,197.4,84.3,203.5,90.4z"/>
	<path class="st3" d="M465.2,89.9c-3.2-1.1-5.7-0.5-7.5,1.6c-1.8,2.1-4,3.5-6.6,4.2c-3.8,0.9-8.4,1.1-13.6,0.6
		c-5.2-0.4-10.4-0.6-15.5-0.6c-14.5,0-29.6,0.1-45.3,0.2c-15.7,0.1-29.7-0.5-42.1-1.8c5.1-1.9,11.4-2.6,18.9-1.9
		c7.5,0.6,14.3,0.8,20.5,0.3c0.6-2.1,1-5.1,1-9s-0.3-6.9-1-9.3c-15.8,0-31.5,0-47.2,0c-15.7,0-31.4,0-47.2,0
		c-1.5,1.5-2.1,4.4-1.8,8.6c0.3,4.3,0.7,7.5,1.1,9.6c3.4,0.4,7.4,0.3,12-0.3c4.6-0.6,7.9,0,10.1,1.9c-5.8,2.6-11.3,3-16.6,1.4
		c-5.3-1.6-10.6-1.3-15.7,0.8c-3.2,1.3-5.5,3.6-7,7c-1.5,3.4-3.6,5.5-6.4,6.4c-7.5,2.1-17,2.3-28.6,0.6c-11.6-1.7-21-1.9-28-0.6
		c-10.9,2.1-15.8,10.1-14.9,24c1,13.9,1.8,27.1,2.4,39.7c0.4,11.1,0.8,22.1,1.3,33.1c0.4,11,1.1,21.7,1.9,32.1c13.4,0,27,0,40.6,0
		c13.6,0,27.3,0,40.9,0c0.2-11.5,0.4-23,0.5-34.5c0.1-11.5,0.5-22.8,1.1-33.9c5.5,1.3,10.7,3.8,15.4,7.5c4.7,3.7,9.8,5.2,15.4,4.3
		c2.1-0.2,4.8-1.8,8.2-4.6c3.3-2.9,6.1-5.3,8.5-7.2c7.7-6.6,15.6-13.6,23.8-21c8.2-7.4,15.7-13.7,22.6-19c0-1.9,0.1-3.9,0.3-5.9
		c0.2-2,0.5-3.8,1-5.3c4.5-0.2,9-0.5,13.6-0.8c4.6-0.3,9.2-0.6,13.9-0.8c1.7-1.1,3-2.7,3.8-5c0.9-2.2,2.5-3.7,4.8-4.3
		c7.9-2.3,18-2.5,30.4-0.5c12.4,2,23,2.2,32,0.5c-0.2-3-0.2-6.2,0-9.6C466.4,95.2,466.1,92.3,465.2,89.9z M284.2,128.3
		c1.1-1.3,1.7-3,1.9-5.1c7-0.2,14-0.5,20.8-1c6.8-0.4,13.5-1,20.2-1.6c-4.1,3.8-8.2,7.5-12.3,11c-4.2,3.5-8.5,7-13,10.4
		c-3.2-1.9-6.6-3.6-10.1-5.1c-3.5-1.5-7-3-10.4-4.5C282.1,131,283.1,129.6,284.2,128.3z"/>
</g>
</svg>
