<?xml version="1.0" encoding="utf-8"?>
<!-- Generator: Adobe Illustrator 19.0.0, SVG Export Plug-In . SVG Version: 6.00 Build 0)  -->
<svg version="1.1" id="beachcombing_xA0_Image_1_" xmlns="http://www.w3.org/2000/svg" xmlns:xlink="http://www.w3.org/1999/xlink"
	 x="0px" y="0px" viewBox="38 -37.3 575.8 574.3" style="enable-background:new 38 -37.3 575.8 574.3;" xml:space="preserve">
<style type="text/css">
	.st0{fill:#573922;stroke:#2B1C11;stroke-width:30;stroke-miterlimit:10;}
	.st1{display:none;}
	.st2{display:inline;fill:#FFFFFF;}
	.st3{fill:#FFFFFF;}
</style>
<ellipse class="st0" cx="325.9" cy="251.7" rx="273.5" ry="272.7"/>
<g class="st1">
	<path class="st2" d="M411.2,91.3c-0.5,0-1,0-1.5,0c-1.2-0.5-2.4-0.8-3.5-1.4c-1.6-1-3.1-2.2-4.7-3.3c-1.5-1.1-3.1-1.7-5-1.6
		c-1.3,0-2.6,0-3.8,0c-3.1-0.1-4.9-1.4-5.9-4.4c-0.4-1.1-0.7-2.2-1-3.3c-0.6-2.3-1.7-4.2-3.5-5.7c-5.2-4.5-10.4-9.1-15.5-13.7
		c-5.4-4.9-10.3-10.1-12.5-17.2c0-0.1,1.3,3.9-0.3-0.2c-1.6-4.1,0-3.9,0-5.9c0.9-1.5,1.8-3,2.9-4.4c0.7-0.9,1.1-1.6,0.8-2.7
		c-0.8-3.7,0.2-7,3.3-9.3c1.8-1.4,4-2.3,6.1-3.3c0.7-0.3,1.2-0.6,1.4-1.4c1.1-6.3,4.9-9.7,11.4-10.1c1.1-0.1,1.8-0.5,2.3-1.5
		c3.2-6.7,8.1-9.1,15.3-7.5c0.4,0.1,1.1,0.1,1.4-0.2c2-2.1,7-4.5,7-4.5s2.4-1.6,5.6,0c0.3,0.2,0.6,0.4,0.9,0.5
		c1.7,1.1,3.5,2,5.2,3.2c0.9,0.7,1.6,1,2.8,0.6c3.7-1.1,7.1-0.4,9.9,2.2c1.6,1.4,2.8,3.3,4.1,5c0.5,0.6,0.9,1.1,1.8,0.9
		c3.2-0.7,5.9,0.3,8.3,2.3c2.9,2.4,4.6,5.5,6.1,8.8c0.4,0.8,1.1,1.8,1.8,2.1c5.5,2.1,8,6.4,8.6,11.9c0.2,1.8,0.5,3.4,2.3,4.5
		c0.9,0.6,1.4,2,2.1,3c0.2,0.3,0.5,1.1,0.5,1.1s1.6,2.7,0,5.4c-2,4.2-0.3,0.3-0.3,0.5c-1.1,3.1-2.9,5.9-4.9,8.4
		c-5.7,7.1-12.1,13.6-18.6,19.9c-2.1,2.1-3.7,4.4-4.8,7.1c-0.6,1.5-1.3,3-2,4.4c-1.5,2.6-3.8,3.8-6.8,3.6c-0.9,0-1.8-0.1-2.7-0.1
		c-2.3-0.1-4.3,0.6-6.1,2C417.1,88.7,414.3,90.3,411.2,91.3z"/>
</g>
<g>
	<path class="st3" d="M503,179.3c0-18.4-6.4-33.9-19.6-46.7c-13-13-28.8-19.4-47.4-19.4c-9.6,0-19.6,2.3-30,6.8
		C381.4,80,381.4,80,381.4,80c0-44.3,0-44.3,0-44.3c-54.2,0-54.2,0-54.2,0c0,12,0,12,0,12c39.8,0,39.8,0,39.8,0
		c0,29.2,0,29.2,0,29.2c-89.9,0-89.9,0-89.9,0c0-29.5,0-29.5,0-29.5c9.7,0.3,9.7,0.3,9.7,0.3c0-12,0-12,0-12c-53.8,0-53.8,0-53.8,0
		c0,12,0,12,0,12c28.1,0,28.1,0,28.1,0c0,37.9,0,37.9,0,37.9c-15.6,31.1-15.6,31.1-15.6,31.1c-10.9-4.7-20.8-7.1-29.3-7.1
		c-17.2,0.3-32.6,7.1-46.5,20.7c-13.7,13.7-20.5,28.8-20.5,45.5c0,17.4,6.8,32.5,20.5,45.5c13.9,13.5,29.3,20.3,46.5,20.3
		s32.6-6.6,46.5-19.8c13.7-13.7,20.5-29,20.5-46c0-5,0-5,0-5c13.7-3.6,13.7-3.6,13.7-3.6c6.4,9,11.8,13.7,16.3,14.4c3,0,3,0,3,0
		c6.6,0,12.2-2.3,16.3-6.9c4.3-4.5,6.6-10.4,6.9-17.9c51.7-35.4,51.7-35.4,51.7-35.4c4,5.9,4,5.9,4,5.9c-17.4,13.4-26,30.7-26,52.3
		c0,18.6,6.4,34.4,19.1,47.4c13.2,13,29.2,19.6,47.8,19.6c18.6,0,34.4-6.6,47.4-19.6C496.6,213.7,503,197.9,503,179.3L503,179.3z
		 M264.2,175.6c0,13-4.7,24.3-13.9,33.5c-9.2,9-20.3,13.5-33.3,13.5c-6.4,0-12.5-1.2-18.2-3.6c-5.9-2.6-10.8-5.9-15.1-10.2
		c-4.3-4.2-7.6-9.2-10.1-14.9c-2.4-5.7-3.6-11.8-3.6-18.2c0-12.7,4.5-23.6,13.7-32.6c9-9,20.1-13.5,33.3-13.5c6.4,0,12.8,1.4,19.3,4
		c-29,53.8-29,53.8-29,53.8L264.2,175.6z M261.5,161.7c-32.5,9.6-32.5,9.6-32.5,9.6c18.4-33.5,18.4-33.5,18.4-33.5
		C253.8,142.8,258.5,150.8,261.5,161.7L261.5,161.7z M255.6,121.8c14.8-21.2,14.8-21.2,14.8-21.2c29.3,54.4,29.3,54.4,29.3,54.4
		c-19.3,4.3-19.3,4.3-19.3,4.3C276.6,144.9,268.4,132.6,255.6,121.8L255.6,121.8z M384.7,109.8c-53.5,38.7-53.5,38.7-53.5,38.7
		c-6.4-1.9-6.4-1.9-6.4-1.9c-4-1-6.8-1.7-8.3-1.7c-2.8,0-5,0.7-6.8,1.7c-28.7-57.8-28.7-57.8-28.7-57.8c89.9,0,89.9,0,89.9,0
		L384.7,109.8z M324.8,163.6c0,5.2-2.4,7.6-7.1,7.6c-5.4,0-8-2.4-8-7.6c0-4.7,2.6-7.3,8-7.8C322.4,155.8,324.8,158.4,324.8,163.6
		L324.8,163.6z M484.9,179.3c0,13-4.7,24.1-13.9,33.5c-9.2,9-20.3,13.5-33.3,13.5c-6.4,0-12.5-1.2-18.2-3.8
		c-5.9-2.4-10.8-5.9-14.9-10.1c-4.2-4.3-7.5-9.2-9.9-14.9c-2.3-5.7-3.5-11.8-3.5-18.2c0-13.9,4.9-25.2,14.8-34.4
		c27.8,42.4,27.8,42.4,27.8,42.4c9.9-5.9,9.9-5.9,9.9-5.9c-26.4-43.9-26.4-43.9-26.4-43.9c6.6-3.3,13.5-4.9,20.5-4.9
		c6.4,0,12.5,1.2,18.2,3.6s10.8,5.7,15.1,9.9c4.2,4.3,7.6,9.4,10.1,15.1C483.7,166.8,484.9,172.9,484.9,179.3L484.9,179.3z"/>
</g>
</svg>
