<?xml version="1.0" encoding="utf-8"?>
<!-- Generator: Adobe Illustrator 19.0.0, SVG Export Plug-In . SVG Version: 6.00 Build 0)  -->
<svg version="1.1" id="beachcombing_xA0_Image_1_" xmlns="http://www.w3.org/2000/svg" xmlns:xlink="http://www.w3.org/1999/xlink"
	 x="0px" y="0px" viewBox="38 -37.3 575.8 574.3" style="enable-background:new 38 -37.3 575.8 574.3;" xml:space="preserve">
<style type="text/css">
	.st0{fill:#573922;stroke:#2B1C11;stroke-width:30;stroke-miterlimit:10;}
	.st1{display:none;}
	.st2{display:inline;fill:#FFFFFF;}
	.st3{fill:#FFFFFF;}
</style>
<ellipse class="st0" cx="326.2" cy="251.4" rx="273.5" ry="272.7"/>
<g class="st1">
	<path class="st2" d="M449.2,54c-0.5,0-1,0-1.5,0c-1.2-0.5-2.4-0.8-3.5-1.4c-1.6-1-3.1-2.2-4.7-3.3c-1.5-1.1-3.1-1.7-5-1.6
		c-1.3,0-2.6,0-3.8,0c-3.1-0.1-4.9-1.4-5.9-4.4c-0.4-1.1-0.7-2.2-1-3.3c-0.6-2.3-1.7-4.2-3.5-5.7c-5.2-4.5-10.4-9.1-15.5-13.7
		c-5.4-4.9-10.3-10.1-12.5-17.2c0-0.1,1.3,3.9-0.3-0.2c-1.6-4.1,0-3.9,0-5.9c0.9-1.5,1.8-3,2.9-4.4c0.7-0.9,1.1-1.6,0.8-2.7
		c-0.8-3.7,0.2-7,3.3-9.3c1.8-1.4,4-2.3,6.1-3.3c0.7-0.3,1.2-0.6,1.4-1.4c1.1-6.3,4.9-9.7,11.4-10.1c1.1-0.1,1.8-0.5,2.3-1.5
		c3.2-6.7,8.1-9.1,15.3-7.5c0.4,0.1,1.1,0.1,1.4-0.2c2-2.1,7-4.5,7-4.5s2.4-1.6,5.6,0c0.3,0.2,0.6,0.4,0.9,0.5
		c1.7,1.1,3.5,2,5.2,3.2c0.9,0.7,1.6,1,2.8,0.6c3.7-1.1,7.1-0.4,9.9,2.2c1.6,1.4,2.8,3.3,4.1,5c0.5,0.6,0.9,1.1,1.8,0.9
		c3.2-0.7,5.9,0.3,8.3,2.3c2.9,2.4,4.6,5.5,6.1,8.8c0.4,0.8,1.1,1.8,1.8,2.1c5.5,2.1,8,6.4,8.6,11.9c0.2,1.8,0.5,3.4,2.3,4.5
		c0.9,0.6,1.4,2,2.1,3c0.2,0.3,0.5,1.1,0.5,1.1s1.6,2.7,0,5.4c-2,4.2-0.3,0.3-0.3,0.5c-1.1,3.1-2.9,5.9-4.9,8.4
		c-5.7,7.1-12.1,13.6-18.6,19.9c-2.1,2.1-3.7,4.4-4.8,7.1c-0.6,1.5-1.3,3-2,4.4c-1.5,2.6-3.8,3.8-6.8,3.6c-0.9,0-1.8-0.1-2.7-0.1
		c-2.3-0.1-4.3,0.6-6.1,2C455.1,51.4,452.3,53,449.2,54z"/>
</g>
<g>
	<path class="st3" d="M430.6,234.1c-0.2-1.1-0.4-2.2-0.5-3.1c-0.1-0.9-0.3-1.8-0.5-2.7l-2.7,0.7c-3.4,0.7-6.7,1.3-9.9,1.7
		c-3.2,0.5-6.4,0.7-9.6,0.7h-13l-5.1-1L288,200.9l41.7-29.1L369.1,84l5.1,4.8l-35.9,82.1l14.4,5.1c7.7,3,15.6,6,23.6,9.1
		c8,3.1,16.2,6.3,24.6,9.7h0.3c3.2,0,16.6-29.3,40.4-87.9h-0.7c-1.1,0.2-2.9,0.3-5.1,0.3c-10,0-18.6-2.8-25.6-8.5
		c-4.6-3.6-7.6-20.1-9.2-49.2h-63.3c-3-1.1-5.1-1.7-6.5-1.7c-2.3,0-3.4,0.9-3.4,2.7c0,0.7,4,6.4,12,17.1c2.3,2.5,4.4,5.1,6.5,7.9
		c2.1,2.7,4.2,5.6,6.5,8.5v0.3c0,1.8-4.4,3.8-13.3,5.8c-12.3,2.5-19.3,4.7-20.9,6.5c-1.6,1.6-3.7,9.9-6.2,25l-3.8,23.3l-54.4-26.7
		l9.6-13l-5.8-4.4l-9.6,14l-18.8-8.5l-3.4,6.8l17.4,8.5l-8.9,12l5.5,4.4l9.2-13.3L302,150c-8.9,6.6-27.7,19.3-56.4,38l-57.1-15.7
		v11.6l200.7,57.5c1.6,0.2,3.1,0.3,4.4,0.3c1.4,0,2.8,0,4.4,0c4.8,0,9.7-0.3,14.9-0.9c5.1-0.6,10.3-1.5,15.6-2.9
		C429.9,237.6,430.6,236.4,430.6,234.1z M413.5,129.1c-9.1,34.7-15,52-17.8,52h-0.3c-2.7-0.7-5.5-1.4-8.2-2.2
		c-2.7-0.8-5.5-1.7-8.2-2.6c-13.5-3.6-21.7-7.3-24.6-10.9v-1c0-4.6,6.5-16.3,19.5-35.2L413.5,129.1L413.5,129.1z M463.8,64.8
		c0-7.1-2.5-13.2-7.4-18.3c-4.9-5.1-10.8-7.7-17.6-7.7c-7.1,0-13.1,2.6-18.1,7.7c-5,5.1-7.5,11.1-7.5,18c0,7.1,2.5,13.1,7.5,18.1
		c5,5,11.1,7.5,18.1,7.5c6.8,0,12.7-2.4,17.6-7.4C461.3,77.9,463.8,71.9,463.8,64.8z"/>
</g>
</svg>
