<?xml version="1.0" encoding="utf-8"?>
<!-- Generator: Adobe Illustrator 19.0.0, SVG Export Plug-In . SVG Version: 6.00 Build 0)  -->
<svg version="1.1" id="beachcombing_xA0_Image_1_" xmlns="http://www.w3.org/2000/svg" xmlns:xlink="http://www.w3.org/1999/xlink"
	 x="0px" y="0px" viewBox="38 -37.3 575.8 574.3" style="enable-background:new 38 -37.3 575.8 574.3;" xml:space="preserve">
<style type="text/css">
	.st0{fill:#573922;stroke:#2B1C11;stroke-width:30;stroke-miterlimit:10;}
	.st1{display:none;}
	.st2{display:inline;fill:#FFFFFF;}
	.st3{fill:#FFFFFF;}
</style>
<ellipse class="st0" cx="325.5" cy="251" rx="273.5" ry="272.7"/>
<g class="st1">
	<path class="st2" d="M335.2,165.9c-0.5,0-1,0-1.5,0c-1.2-0.5-2.4-0.8-3.5-1.4c-1.6-1-3.1-2.2-4.7-3.3c-1.5-1.1-3.1-1.7-5-1.6
		c-1.3,0-2.6,0-3.8,0c-3.1-0.1-4.9-1.4-5.9-4.4c-0.4-1.1-0.7-2.2-1-3.3c-0.6-2.3-1.7-4.2-3.5-5.7c-5.2-4.5-10.4-9.1-15.5-13.7
		c-5.4-4.9-10.3-10.1-12.5-17.2c0-0.1,1.3,3.9-0.3-0.2c-1.6-4.1,0-3.9,0-5.9c0.9-1.5,1.8-3,2.9-4.4c0.7-0.9,1.1-1.6,0.8-2.7
		c-0.8-3.7,0.2-7,3.3-9.3c1.8-1.4,4-2.3,6.1-3.3c0.7-0.3,1.2-0.6,1.4-1.4c1.1-6.3,4.9-9.7,11.4-10.1c1.1-0.1,1.8-0.5,2.3-1.5
		c3.2-6.7,8.1-9.1,15.3-7.5c0.4,0.1,1.1,0.1,1.4-0.2c2-2.1,7-4.5,7-4.5s2.4-1.6,5.6,0c0.3,0.2,0.6,0.4,0.9,0.5
		c1.7,1.1,3.5,2,5.2,3.2c0.9,0.7,1.6,1,2.8,0.6c3.7-1.1,7.1-0.4,9.9,2.2c1.6,1.4,2.8,3.3,4.1,5c0.5,0.6,0.9,1.1,1.8,0.9
		c3.2-0.7,5.9,0.3,8.3,2.3c2.9,2.4,4.6,5.5,6.1,8.8c0.4,0.8,1.1,1.8,1.8,2.1c5.5,2.1,8,6.4,8.6,11.9c0.2,1.8,0.5,3.4,2.3,4.5
		c0.9,0.6,1.4,2,2.1,3c0.2,0.3,0.5,1.1,0.5,1.1s1.6,2.7,0,5.4c-2,4.2-0.3,0.3-0.3,0.5c-1.1,3.1-2.9,5.9-4.9,8.4
		c-5.7,7.1-12.1,13.6-18.6,19.9c-2.1,2.1-3.7,4.4-4.8,7.1c-0.6,1.5-1.3,3-2,4.4c-1.5,2.6-3.8,3.8-6.8,3.6c-0.9,0-1.8-0.1-2.7-0.1
		c-2.3-0.1-4.3,0.6-6.1,2C341.1,163.3,338.3,164.9,335.2,165.9z"/>
</g>
<g>
	<path class="st3" d="M444.3,100.5c-1.3,0.4-4.2,1-8.7,1.7c-4.4,0.8-10.3,1.9-17.6,3.4c-1.7,4.9-6,13.1-12.7,24.5
		c-2.3,0.4-6.2,1.2-11.8,2.4c-5.6,1.2-13,2.6-22.2,4.1c-3.7,2.5-7,4.8-9.9,7.1c-3,2.3-5.8,4.7-8.5,7.1c-4.4,4.4-7.9,7.2-10.4,8.6
		c-2.1,1-5.3,2-9.5,3c-4.2,1-9.4,2.1-15.6,3.3c-12.5,2.3-19.6,6.1-21.3,11.4l-3.7,12.8c-3.8,4.2-16,6.3-36.3,6.3
		c-2.7,1-4.8,1.7-6.3,2.1c-1.5,0.5-2.4,0.8-2.6,1c-0.2,0.2-1.6,3.1-4.3,8.8c-5.8,7.2-13.3,13-22.5,17.4c-7.1,3.2-11.2,8.9-12.4,17.1
		h202.4c22.7-4.6,34-17.1,34-37.6L444.3,100.5L444.3,100.5z M419.2,50.6c-0.4-0.6-1-1.5-1.9-2.7c-0.9-1.2-2-2.6-3.3-4.1
		c-5.8-7.4-13.3-12.3-22.5-14.5c-1.2-0.2-4-0.8-8.6-1.7c-5,0-9.6,0.3-13.8,0.9c-4.6,1.5-8.8,3.5-12.5,5.8c-3.7,2.4-7.3,5.1-10.5,8.1
		c-1.9-1.3-6.8-4.8-14.7-10.4c-7.9-5.6-18.7-13.3-32.6-22.9l-28.3,6.6l2.9,12l20.2-5.1l5.2,3.7l-71.2,41.3l8.6,36.8l-7.2,3.4
		c-4.6,2.3-8.5,5.5-11.7,9.7c-3.2,4.2-5.3,9.2-6.5,15.1l-1.4,7.1c0,13.7,2.9,24.2,8.6,31.6l2.9,3.7c11.9,9.5,23.4,14.3,34.6,14.3
		c11,0,21.7-5,32.3-15.1c0-0.6,1.2-2.2,3.7-4.8c1.3-2.1,2.8-5.6,4.3-10.4c1.5-4.8,2.3-9.4,2.3-13.5v-1.7c-0.4-2.3-0.7-4.6-1-6.8
		c-0.3-2.3-0.5-4.7-0.7-7.1l16.1-9.4c1.5-1.3,3-3.4,4.3-6.3c1.3-2.9,2.5-6.6,3.5-11.1L331,50.1l7.2,4.8c-2.5,5.7-3.7,11.4-3.7,17.1
		c0,3,0.3,5.8,0.9,8.3c1.2,4,2.6,8.3,4.3,12.8l7.2,8.8c8.7,8,17,12.7,25.1,14.3c1,0.2,1.9,0.3,2.9,0.4c1,0.1,1.9,0.1,2.9,0.1
		c4.6,0,10.4-0.9,17.3-2.6c1.5-0.9,3.3-1.9,5.2-2.9c1.9-0.9,3.9-1.9,6.1-2.9c11.7-9.9,17.6-21.4,17.6-34.5c0-2.1-0.1-4.4-0.3-6.8
		c-0.2-2.5-0.6-5-1.2-7.7L419.2,50.6z M239.6,39.2l-29.4,16.5l5.8,10l29.4-17.1L239.6,39.2z M280.5,138.1c0.4,1,0.6,1.9,0.6,2.9
		c0,1,0,1.9,0,2.8c0,18.2-10.3,27.4-30.9,27.4c-6.3-2.3-11.1-4.4-14.1-6.3c-6.3-6.8-9.5-14.3-9.5-22.5c2.7-11,7.2-18.1,13.6-21.1
		l8.1,35.6L280.5,138.1z M287.2,114.8c-6.5-8.2-18-13-34.3-14.5l-4.6-20l49,28.8L287.2,114.8z M305,96.8L255.4,68l55.6-32.2l5.5,3.4
		L305,96.8z M258,133.9l-2.6-20.5c5.4,1.5,12.2,4.8,20.5,9.7L258,133.9z M360.4,52.3c5.6-5.5,12.1-8.3,19.6-8.3
		c8.3,0,15,2.9,20.2,8.6c4.2,5.5,6.3,11.9,6.3,19.1c0,7.6-2.1,13.8-6.3,18.5c-5.2,5.7-11.9,8.6-20.2,8.6c-3.8,0-7.5-0.7-10.8-2.1
		c-3.4-1.4-6.3-3.4-8.8-5.8c-2.5-2.5-4.4-5.4-5.8-8.7c-1.3-3.3-2-6.8-2-10.4c0-0.9,0-1.9,0.1-3c0.1-1,0.2-2,0.4-3
		c5.2,3.8,12.1,8.6,20.8,14.5L382,68L360.4,52.3z"/>
</g>
</svg>
