<?xml version="1.0" encoding="utf-8"?>
<!-- Generator: Adobe Illustrator 19.0.0, SVG Export Plug-In . SVG Version: 6.00 Build 0)  -->
<svg version="1.1" id="beachcombing_xA0_Image_1_" xmlns="http://www.w3.org/2000/svg" xmlns:xlink="http://www.w3.org/1999/xlink"
	 x="0px" y="0px" viewBox="38 -37.3 575.8 574.3" style="enable-background:new 38 -37.3 575.8 574.3;" xml:space="preserve">
<style type="text/css">
	.st0{fill:#573922;stroke:#2B1C11;stroke-width:30;stroke-miterlimit:10;}
	.st1{display:none;}
	.st2{display:inline;fill:#FFFFFF;}
	.st3{fill:#FFFFFF;}
</style>
<ellipse class="st0" cx="327.3" cy="249.4" rx="273.5" ry="272.7"/>
<g class="st1">
	<path class="st2" d="M487.2,16.7c-0.5,0-1,0-1.5,0c-1.2-0.5-2.4-0.8-3.5-1.4c-1.6-1-3.1-2.2-4.7-3.3c-1.5-1.1-3.1-1.7-5-1.6
		c-1.3,0-2.6,0-3.8,0c-3.1-0.1-4.9-1.4-5.9-4.4c-0.4-1.1-0.7-2.2-1-3.3c-0.6-2.3-1.7-4.2-3.5-5.7c-5.2-4.5-10.4-9.1-15.5-13.7
		c-5.4-4.9-10.3-10.1-12.5-17.2c0-0.1,1.3,3.9-0.3-0.2c-1.6-4.1,0-3.9,0-5.9c0.9-1.5,1.8-3,2.9-4.4c0.7-0.9,1.1-1.6,0.8-2.7
		c-0.8-3.7,0.2-7,3.3-9.3c1.8-1.4,4-2.3,6.1-3.3c0.7-0.3,1.2-0.6,1.4-1.4c1.1-6.3,4.9-9.7,11.4-10.1c1.1-0.1,1.8-0.5,2.3-1.5
		c3.2-6.7,8.1-9.1,15.3-7.5c0.4,0.1,1.1,0.1,1.4-0.2c2-2.1,7-4.5,7-4.5s2.4-1.6,5.6,0c0.3,0.2,0.6,0.4,0.9,0.5
		c1.7,1.1,3.5,2,5.2,3.2c0.9,0.7,1.6,1,2.8,0.6c3.7-1.1,7.1-0.4,9.9,2.2c1.6,1.4,2.8,3.3,4.1,5c0.5,0.6,0.9,1.1,1.8,0.9
		c3.2-0.7,5.9,0.3,8.3,2.3c2.9,2.4,4.6,5.5,6.1,8.8c0.4,0.8,1.1,1.8,1.8,2.1c5.5,2.1,8,6.4,8.6,11.9c0.2,1.8,0.5,3.4,2.3,4.5
		c0.9,0.6,1.4,2,2.1,3c0.2,0.3,0.5,1.1,0.5,1.1s1.6,2.7,0,5.4c-2,4.2-0.3,0.3-0.3,0.5c-1.1,3.1-2.9,5.9-4.9,8.4
		c-5.7,7.1-12.1,13.6-18.6,19.9c-2.1,2.1-3.7,4.4-4.8,7.1c-0.6,1.5-1.3,3-2,4.4c-1.5,2.6-3.8,3.8-6.8,3.6c-0.9,0-1.8-0.1-2.7-0.1
		c-2.3-0.1-4.3,0.6-6.1,2C493.1,14.1,490.3,15.7,487.2,16.7z"/>
</g>
<path class="st3" d="M459.4,129.3L441.2,102h-13.6l-1.6,18.3h-12v-16.7L405,91.9l-9.3,12.4v16.3h-7v-11.3H377v10.9l-7.4,0.4
	l-1.2-16.3l-13.6-8.9l4.3-6.2l9.4,5.4l5.9-9.9l-9.8-5.7l3.9-6.3l13.5,8.3l15.5-1.9l-5.8-13.6l-14-8.2l5.8-10.5l16.3,7.8l7-11.7
	l-14.4-29.5l-32.7,2.3l-6.6,12l14.8,10.1l-6.2,10.5l-14-8.6l-14.8,1.9l6.2,14.4l14,8.1l-3.5,5.8l-10.1-5.1l-5.4,9.7l9.7,5.4
	l-3.9,6.6l-14.8-7l-14.4,7l-3.5-6.6l9.7-5.4l-5.4-9.7l-10.1,5.1l-3.5-5.8l14-8.2l6.2-14.4l-14.8-1.9l-14,8.6l-6.2-10.5l14.8-10.1
	l-6.6-12l-32.7-2.3L244.5,43l7,11.7l16.3-7.8l5.8,10.5l-14,8.2l-5.8,13.6l15.5,1.9l13.6-8.2l3.9,6.3l-9.7,5.8l5.8,9.7l9.3-5.4
	l4.3,6.2l-13.6,8.9l-1.2,16.3l-7.4-0.4v-10.9h-11.7v11.3h-7v-16.3l-9.3-12.4l-8.9,11.7v16.7h-12l-1.6-18.3h-13.6L192,129.3
	l18.3,27.2l13.6-0.4l1.6-17.9h12v16.3l8.9,12.1l9.3-12.4v-16.3h7v11.3h11.7v-10.9l7.4-0.4l1.6,16.3l13.2,8.9l-4.3,6.2l-9.4-5.4
	l-5.9,9.9l9.8,5.7l-3.9,6.3l-13.5-8.3l-15.5,1.9l5.8,13.6l14,8.2l-5.8,10.5l-16.3-7.8l-7,11.6l14.4,29.3l32.7-2.3l6.6-11.9l-14.8-10
	l6.2-10.4l14,8.6l14.8-1.9l-6.2-14.4l-14-8.2l3.5-5.8l10.1,5.1l5.4-9.7l-9.7-5.4l3.5-6.6l14.8,7l14.8-7l3.5,6.6l-9.7,5.4l5.4,9.7
	l10.1-5.1l3.5,5.8l-14,8.2l-6.2,14.4l14.8,1.9l14-8.6l6.2,10.4l-14.8,10l6.6,11.9l32.7,2.3l14.4-29.3l-7-11.6l-16.3,7.8l-5.8-10.5
	l14-8.2l5.8-13.6l-15.5-1.9l-13.6,8.2l-3.9-6.3l9.7-5.8l-5.8-9.7l-9.3,5.4l-4.3-6.2l14-9.7l0.8-15.5l7.4,0.4v10.9h11.7v-11.3h7v16.3
	l9.3,12.4l8.9-11.7v-16.7h12l1.6,17.9l13.6,0.4L459.4,129.3z"/>
</svg>
