<?xml version="1.0" encoding="utf-8"?>
<!-- Generator: Adobe Illustrator 19.0.0, SVG Export Plug-In . SVG Version: 6.00 Build 0)  -->
<svg version="1.1" id="beachcombing_xA0_Image_1_" xmlns="http://www.w3.org/2000/svg" xmlns:xlink="http://www.w3.org/1999/xlink"
	 x="0px" y="0px" viewBox="18 -17.2 635.8 634.2" style="enable-background:new 18 -17.2 635.8 634.2;" xml:space="preserve">
<style type="text/css">
	.st0{fill:#FFFF00;}
	.st1{fill:#573922;stroke:#2B1C11;stroke-width:30;stroke-miterlimit:10;}
	.st2{fill:#FFFFFF;}
</style>
<ellipse class="st0" cx="336.7" cy="300.5" rx="318.7" ry="317.7"/>
<ellipse class="st1" cx="335.9" cy="300.7" rx="273.5" ry="272.7"/>
<g>
	<path class="st2" d="M405.6,68.1V163c-4.6,6.3-9.6,9.4-14.9,9.4c-5,0-9.7-2.2-14.2-6.6c-4.5-4.4-7.6-9.9-9.2-16.6
		c-2-8.5-3.4-12.6-4.1-12.4c-1.3,0-2.6,1.2-4,3.7c-1.4,2.5-2.1,5.3-2.1,8.4c0,10.3,3.2,19.4,9.7,27.3c6.6,7.7,14.5,11.6,23.7,11.6
		c7.5,0,14.3-2.4,20.1-7.2c6.1-5,9.1-10.7,9.1-17.1V67.8L405.6,68.1z M445,257.1c-14.2-2.9-21.4-5.6-21.8-8v-0.3
		c0-2.2,6.9-5.8,20.7-10.8c-5.5-5.7-14.5-11.2-27-16.6c-9.4-3.7-19.6-6.5-30.8-8.6c-11.1-2-23.2-3.1-36.3-3.3h-3.3
		c-29.1,0-55.3,7.2-78.6,21.5c-9.2,5.5-15.3,9.4-18.2,11.6c-4-2.6-8.2-5.5-12.4-8.7c-4.2-3.2-8.5-6.7-12.7-10.3
		c-6.1-5.3-9.7-8-10.8-8h-0.3c-0.9,0.6-1.4,4.6-1.4,12.1c0,4.8,5,12.5,14.9,23.2c-6.3,10.9-9.4,19.4-9.4,25.7v2.2
		c0.4,2.9,0.7,5.3,1,7.2c0.3,1.8,0.5,3.2,0.7,4.1c0.6,0,3.8-3.6,9.7-10.8c7.4-8.8,14.3-15.9,20.7-21.2c16.2,9.4,26.8,15.3,31.7,17.7
		c18.9,8.3,40.1,12.4,63.5,12.4h2.2C389.6,288.1,422.2,277.7,445,257.1z M399.5,241.9c0,3.3-1.1,6.2-3.2,8.6c-2.1,2.4-4.5,3.6-7,3.6
		c-7.4,0-11-4-11-12.1c0-3.5,1.1-6.4,3.3-8.8c2.2-2.4,4.7-3.6,7.5-3.6s5.2,1.2,7.3,3.6C398.4,235.5,399.5,238.4,399.5,241.9z"/>
</g>
</svg>
