<?xml version="1.0" encoding="utf-8"?>
<!-- Generator: Adobe Illustrator 19.0.0, SVG Export Plug-In . SVG Version: 6.00 Build 0)  -->
<svg version="1.1" id="beachcombing_xA0_Image_1_" xmlns="http://www.w3.org/2000/svg" xmlns:xlink="http://www.w3.org/1999/xlink"
	 x="0px" y="0px" viewBox="18 -17.2 635.8 634.2" style="enable-background:new 18 -17.2 635.8 634.2;" xml:space="preserve">
<style type="text/css">
	.st0{fill:#FFFF00;}
	.st1{fill:#573922;stroke:#2B1C11;stroke-width:30;stroke-miterlimit:10;}
	.st2{fill:#FFFFFF;}
</style>
<ellipse class="st0" cx="336.7" cy="300.5" rx="318.7" ry="317.7"/>
<ellipse class="st1" cx="335.9" cy="300.7" rx="273.5" ry="272.7"/>
<g>
	<path class="st2" d="M304,132h-86.2v-8.1h8.7l34.2-56.7l34.5,56.7h8.7L304,132L304,132z M361.8,154.2l3.4-2.2l9-8.1l3.9,2.8
		c14.2-3.4,25.3-6,33.3-7.9c8-1.9,12.9-3,14.7-3.4h0.6c0.9-1.3,2-2.5,3.1-3.6c1.1-1.1,2.4-2.1,3.9-2.8c0.6,0,1.1,0,1.7,0
		c0.6,0,0.9,0.2,1.1,0.6l9-3.6c0,3.7-0.2,7-0.7,9.7c-0.5,2.7-1.1,5-1.8,6.9l5.6,15.7l9,22.5c0,1.7-0.5,3.3-1.4,4.8
		c-0.9,1.5-2.3,3.1-4.2,4.8c-1.9,1.5-3.6,2.7-5.2,3.5c-1.6,0.8-3.1,1.3-4.6,1.3c-1.7,3.4-3.5,5.9-5.3,7.4c-1.9,1.6-4,2.4-6.5,2.4
		c-1.5,0-3-0.3-4.6-0.8c-1.6-0.6-3.2-1.5-4.9-2.8l-16-12.1c-0.8,0.7-1.4,1.4-1.8,2c-0.5,0.6-0.8,0.9-1,1.1l-2.8,11.2
		c-0.6,1.5-1,2.7-1.3,3.5c-0.3,0.8-0.5,1.6-0.7,2.4l3.1,22.2c2.1,5.4,3.9,10.1,5.5,14c1.6,3.9,2.9,7.1,4.1,9.5l3.1,7.6
		c0.2,0.6,0.3,1,0.4,1.4c0.1,0.4,0.2,0.7,0.4,0.8c3.7,3.7,6.5,7.2,8.3,10.2c1.8,3.1,2.5,5.9,2.1,8.3H398c-0.2-3.4-1-5.9-2.4-7.6
		c-1.4-1.7-3.3-2.6-5.8-2.8c-0.2-7.3-1.3-13.5-3.4-18.7c-2.1-5.1-5.1-9.2-9.3-12.2c-1.5-3-2.9-5.8-4.2-8.6c-1.3-2.7-2.5-5.1-3.6-7.2
		l0.8,19.1c-1.9,2.4-3.6,4.6-5.2,6.5c-1.6,1.9-3,3.4-4.4,4.5c-2.2,2.6-4.2,4.9-5.8,6.9c-1.6,2-2.8,3.9-3.5,5.8c-0.4,0-0.7,0-1,0.1
		c-0.3,0.1-0.5,0.2-0.7,0.4c-0.2,1.5-0.3,2.8-0.3,3.8c0,1,0,1.8,0,2.4c0,1.1-0.3,2.6-0.8,4.5c-0.6,1.9-1.2,4-2,6.5
		c-5.6-4.7-10.2-8.6-13.8-11.6c-3.6-3.1-6.2-5.4-7.9-6.9l5.1-8.1c0.6,0,0.9,0,1.1,0.1c0.2,0.1,0.3,0.2,0.3,0.4l0.3-1.1
		c0.7-1.7,1.5-3.1,2.4-4.2c0.8-1.1,1.6-2.1,2.4-2.8c0.6-0.4,1-0.7,1.3-0.8c0.3-0.2,0.5-0.4,0.7-0.6l2-2.8l5.1-9.5l-2.5-18.8
		c-6.2-0.2-12-0.6-17.5-1.1c-5.5-0.6-10.6-1.1-15.3-1.7c-1.3-0.6-2.3-1-2.9-1.4c-0.7-0.4-1.1-0.7-1.3-1.1c-0.2,1.9-0.3,3.6-0.4,5.1
		c-0.1,1.5-0.1,2.8-0.1,3.9c0,4.9,0.6,9.8,1.7,14.7c1.1,5,2.9,9.9,5.3,14.7c0.6,1.7,1,3.2,1.4,4.5c0.4,1.3,0.7,2.3,1.1,3.1
		c0.7,1.1,1.4,2.1,2,2.8c0.6,0.7,1.2,1.2,2,1.4l4.8,6.2c1.7,1.3,2.9,2.5,3.8,3.6c0.8,1.1,1.3,2.2,1.3,3.1c0,2.2-0.5,3.9-1.5,4.9
		c-1,1-2.5,1.5-4.4,1.5H306c-1.3,0-2.5-0.6-3.6-1.8c-1.1-1.2-2.1-2.9-2.8-5.2l-0.6-0.3c-1.5-0.6-2.6-1.2-3.4-2
		c-0.8-0.7-1.1-1.5-1.1-2.2c0-0.4,0-0.7,0-1.1c0-0.4,0-0.7,0-0.8c0-2.1-0.8-4.8-2.4-8.1c-1.6-3.4-4-7.5-7.2-12.4
		c-1.9-2.8-3.3-5.2-4.4-7.3c-1-2.1-1.5-3.6-1.5-4.5v-3.6c0-2.4-0.2-4.7-0.7-6.7c-0.5-2.1-1.1-3.7-1.8-5.1l-9.3,13.8
		c-0.4,0.4-1,0.9-1.8,1.7c-0.8,0.7-1.9,1.7-3.2,2.8l-1.7,0.8c-1.5,5.2-2.6,9.6-3.4,13.2c-0.8,3.6-1.1,6.4-1.1,8.4
		c0,0.9-0.1,2-0.4,3.1c-0.3,1.1-0.7,2.3-1.3,3.6l-2.5,3.4c-0.6,0.4-1,1-1.3,2c-0.3,0.9-0.5,2-0.7,3.1c-3.2,1.9-6.3,4-9.3,6.3
		c-3,2.3-5.9,4.9-8.7,7.7l-7.6-23.9l5.9-3.9c1.9-4.5,3.4-9.8,4.5-16c1.1-6.2,1.8-13.2,2-21.1c1.9-1.5,3.5-2.9,4.8-4.4
		c1.3-1.4,2.4-2.9,3.4-4.6c-2.2,1.9-5.1,3.3-8.6,4.2c-3.5,0.9-7.6,1.6-12.5,2c3.2-3.6,5.7-7.1,7.6-10.7c1.9-3.6,3.1-7.1,3.6-10.7
		c0.6-2.2,0.9-4,1.1-5.3c0.2-1.3,0.3-2.2,0.3-2.8c0-0.7,0-1.7-0.1-2.8c-0.1-1.1-0.3-2.4-0.7-3.9c-0.2-1.7-0.4-3.1-0.6-4.2
		c-0.2-1.1-0.3-2.1-0.3-2.8c0-5.1,1.2-9.6,3.5-13.8c2.3-4.1,5.8-7.7,10.5-10.7c3.9-2.6,8.3-4.5,13.1-5.8c4.8-1.2,9.9-1.8,15.3-1.8
		c1.3,0,2.9,0,4.8,0.1c1.9,0.1,4,0.3,6.5,0.7c2.6,0.2,4.9,0.4,6.7,0.6c1.9,0.2,3.4,0.3,4.5,0.3c1.5,0,2.7-0.1,3.6-0.3
		c0.9-0.2,1.5-0.4,1.7-0.6c0.9-1.1,1.6-2.1,2-2.9c0.4-0.8,0.6-1.5,0.6-2.1c0-1.5,0-2.8,0.1-3.8c0.1-1,0.1-1.8,0.1-2.4v0.8
		c0.2-1.5,0.3-2.8,0.4-3.8c0.1-1,0.1-1.8,0.1-2.4l1.1-5.1c1.9-10.9,4.1-19.9,6.7-27.2c2.6-7.3,5.7-12.7,9.3-16.3
		c2.8,3,5.1,5.2,7,6.6c1.9,1.4,3.3,2.1,4.2,2.1h9c1.1,6.4,2.1,11.8,2.9,16.4c0.8,4.6,1.4,8.4,1.8,11.4l23,20.5l-11.8,10.7
		l-13.5-10.1l-0.8,0.6l1.7,0.8c1.3,0.9,2.4,1.7,3.2,2.4c0.8,0.7,1.6,1.4,2.4,2.1c1.9,1.1,3.4,2.2,4.6,3.1
		C360.4,153.1,361.3,153.8,361.8,154.2z M275.4,123.6l-14.6-23.9l-14,23.9H275.4z M341.6,56.5c1.7-0.2,3.6,0.1,5.8,1
		c2.1,0.8,4.5,2.1,7.2,3.8c1.5,1.1,2.7,2.8,3.6,4.9c0.9,2.2,1.6,4.8,2,8c0.2,2.4-0.2,4.7-1.1,6.7c-0.9,2.1-2.3,4-4.2,5.9
		c-1.9,1.9-3.9,3.3-6,4.2c-2.2,0.9-4.4,1.4-6.9,1.4c-2.2,0-4.4-0.4-6.6-1.3c-2.2-0.8-4.1-2.2-5.8-4.1c-1.7-1.9-2.9-3.8-3.8-5.9
		c-0.8-2.1-1.3-4.3-1.3-6.7c0-5.2,1.4-9.4,4.2-12.4C331.5,59.1,335.8,57.2,341.6,56.5z M432.6,189c0.7,0,1.3-0.1,1.7-0.4
		c0.4-0.3,0.5-0.5,0.3-0.7c0-0.4-0.1-0.7-0.3-1c-0.2-0.3-0.4-0.5-0.6-0.7c-0.4-0.9-0.8-1.7-1.3-2.4c-0.5-0.7-0.8-1.3-1-1.8
		c-2.2-0.6-4.4-1.5-6.3-2.8c-2-1.3-3.9-3-5.8-5.1c-1.1,0-2.3,0.2-3.5,0.6c-1.2,0.4-2.4,0.9-3.5,1.7l15.7,10.9c0.7,0.6,1.5,1,2.2,1.3
		C431.1,188.8,431.8,189,432.6,189z"/>
</g>
</svg>
