<?xml version="1.0" encoding="utf-8"?>
<!-- Generator: Adobe Illustrator 19.0.0, SVG Export Plug-In . SVG Version: 6.00 Build 0)  -->
<svg version="1.1" id="beachcombing_xA0_Image_1_" xmlns="http://www.w3.org/2000/svg" xmlns:xlink="http://www.w3.org/1999/xlink"
	 x="0px" y="0px" viewBox="38 -37.3 575.8 574.3" style="enable-background:new 38 -37.3 575.8 574.3;" xml:space="preserve">
<style type="text/css">
	.st0{fill:#573922;stroke:#2B1C11;stroke-width:30;stroke-miterlimit:10;}
	.st1{display:none;}
	.st2{display:inline;fill:#FFFFFF;}
	.st3{fill:#FFFFFF;}
</style>
<ellipse class="st0" cx="325.9" cy="249.4" rx="273.5" ry="272.7"/>
<g class="st1">
	<path class="st2" d="M449.2,54c-0.5,0-1,0-1.5,0c-1.2-0.5-2.4-0.8-3.5-1.4c-1.6-1-3.1-2.2-4.7-3.3c-1.5-1.1-3.1-1.7-5-1.6
		c-1.3,0-2.6,0-3.8,0c-3.1-0.1-4.9-1.4-5.9-4.4c-0.4-1.1-0.7-2.2-1-3.3c-0.6-2.3-1.7-4.2-3.5-5.7c-5.2-4.5-10.4-9.1-15.5-13.7
		c-5.4-4.9-10.3-10.1-12.5-17.2c0-0.1,1.3,3.9-0.3-0.2c-1.6-4.1,0-3.9,0-5.9c0.9-1.5,1.8-3,2.9-4.4c0.7-0.9,1.1-1.6,0.8-2.7
		c-0.8-3.7,0.2-7,3.3-9.3c1.8-1.4,4-2.3,6.1-3.3c0.7-0.3,1.2-0.6,1.4-1.4c1.1-6.3,4.9-9.7,11.4-10.1c1.1-0.1,1.8-0.5,2.3-1.5
		c3.2-6.7,8.1-9.1,15.3-7.5c0.4,0.1,1.1,0.1,1.4-0.2c2-2.1,7-4.5,7-4.5s2.4-1.6,5.6,0c0.3,0.2,0.6,0.4,0.9,0.5
		c1.7,1.1,3.5,2,5.2,3.2c0.9,0.7,1.6,1,2.8,0.6c3.7-1.1,7.1-0.4,9.9,2.2c1.6,1.4,2.8,3.3,4.1,5c0.5,0.6,0.9,1.1,1.8,0.9
		c3.2-0.7,5.9,0.3,8.3,2.3c2.9,2.4,4.6,5.5,6.1,8.8c0.4,0.8,1.1,1.8,1.8,2.1c5.5,2.1,8,6.4,8.6,11.9c0.2,1.8,0.5,3.4,2.3,4.5
		c0.9,0.6,1.4,2,2.1,3c0.2,0.3,0.5,1.1,0.5,1.1s1.6,2.7,0,5.4c-2,4.2-0.3,0.3-0.3,0.5c-1.1,3.1-2.9,5.9-4.9,8.4
		c-5.7,7.1-12.1,13.6-18.6,19.9c-2.1,2.1-3.7,4.4-4.8,7.1c-0.6,1.5-1.3,3-2,4.4c-1.5,2.6-3.8,3.8-6.8,3.6c-0.9,0-1.8-0.1-2.7-0.1
		c-2.3-0.1-4.3,0.6-6.1,2C455.1,51.4,452.3,53,449.2,54z"/>
</g>
<path class="st3" d="M549.5,199.7l-7.8-58.4c-0.9-6.1-5.4-9.5-13.6-10.4l-101.3-9.7l-46.7-49.3c-4.3-4.8-9.5-7.1-15.6-7.1H221.8
	c-5.2,0-8.7,2.8-10.4,8.5l-13.6,46.3l-84.4,11.1c-4.8,0.4-7.4,2.8-7.8,7.2l-3.9,54.8c-0.4,3.9,1.5,6.3,5.8,7.2l27.9,2
	c1.3-13.8,6.7-25,16.2-33.7c9.5-8.7,21-13,34.4-13c13.4,0,25,4.4,34.7,13.3c9.7,8.9,15,20,15.9,33.4H423
	c1.3-13.4,6.7-24.6,16.2-33.4c9.5-8.9,21-13.3,34.4-13.3c13.4,0,24.9,4.4,34.4,13.2c9.5,8.8,14.9,20,16.2,33.6L549.5,199.7z
	 M219.8,205.9c0-9.4-3.2-17.5-9.7-24.1c-6.5-6.6-14.5-10-24-10c-9.5,0-17.6,3.3-24.3,10c-6.7,6.6-10.1,14.7-10.1,24.1
	c0,9.4,3.3,17.5,10.1,24.1c6.7,6.6,14.8,10,24.3,10c9.5,0,17.5-3.3,24-10C216.6,223.3,219.8,215.3,219.8,205.9z M298.3,125.7h-64.9
	l5.2-30.5c0.9-4.8,3.5-7.1,7.8-7.1h51.9V125.7z M392.4,118.6c1.3,1.7,1.5,3.2,0.6,4.5c-0.9,1.7-2.4,2.6-4.5,2.6h-73.3V88.1H360
	c3.9,0,6.7,1.1,8.4,3.2L392.4,118.6z M508,205.9c0-9.4-3.4-17.5-10.1-24.1c-6.7-6.6-14.8-10-24.3-10c-9.5,0-17.6,3.3-24.3,10
	c-6.7,6.6-10.1,14.7-10.1,24.1c0,9.4,3.3,17.5,10.1,24.1c6.7,6.6,14.8,10,24.3,10c9.5,0,17.6-3.3,24.3-10
	C504.6,223.3,508,215.3,508,205.9z"/>
</svg>
