<?xml version="1.0" encoding="utf-8"?>
<!-- Generator: Adobe Illustrator 19.0.0, SVG Export Plug-In . SVG Version: 6.00 Build 0)  -->
<svg version="1.1" id="beachcombing_xA0_Image_1_" xmlns="http://www.w3.org/2000/svg" xmlns:xlink="http://www.w3.org/1999/xlink"
	 x="0px" y="0px" viewBox="18 -17.2 635.8 634.2" style="enable-background:new 18 -17.2 635.8 634.2;" xml:space="preserve">
<style type="text/css">
	.st0{fill:#FFFF00;}
	.st1{fill:#573922;stroke:#2B1C11;stroke-width:30;stroke-miterlimit:10;}
	.st2{fill:#FFFFFF;}
</style>
<ellipse class="st0" cx="336.7" cy="300.5" rx="318.7" ry="317.7"/>
<ellipse class="st1" cx="335.9" cy="300.7" rx="273.5" ry="272.7"/>
<path class="st2" d="M204.6,147.8c36-2.3,69.2,6.5,99.5,26.4l19.4-54.4c-4.7-7.8-11.5-11.7-20.6-11.7c-4.1,0-9.2,1.6-15.2,4.7
	c-2.6-8-7.6-13.5-15.2-16.3c-6.5-2.6-14.4-2.1-23.7,1.6c7-14.6,17.4-26.1,31.1-34.5c13.7-8.3,28.6-12.5,44.7-12.5
	c10.4,0,20.5,1.8,30.3,5.4c17.1,6.2,30.6,16.6,40.6,31.2s15,30.5,15,47.8c0,7.2-1,14.5-3.1,21.7c-6.2-12.2-14.5-18.3-24.9-18.3
	c-4.7,0-9.5,1.4-14.4,4.3c-3.4-9.3-8.5-15.3-15.5-17.9c-5.2-1.8-10.8-1.9-16.7-0.4l-20.6,57.5c14.2,9.8,24.9,17.4,31.9,22.5
	c17.9,11.7,35.9,19.8,54,24.5H204.6V147.8z"/>
<path class="st2" d="M468.9,267.5c-7,15-17.7,22.5-32.3,22.5c-14.8,0-25.6-7.4-32.6-22.2c-7,14.8-17.9,22.2-32.6,22.2
	c-14.3,0-25.1-7.4-32.6-22.2c-7,14.8-18,22.2-33,22.2c-14.8,0-25.6-7.4-32.6-22.2c-7,14.8-17.7,22.2-32.3,22.2
	c-14.8,0-25.6-7.5-32.6-22.5v-26c7.2,14.8,18.1,22.2,32.6,22.2c14.2,0,25-7.4,32.3-22.2c7.2,14.8,18.1,22.2,32.6,22.2
	c14.8,0,25.8-7.4,33-22.2c7.5,14.8,18.4,22.2,32.6,22.2c14.5,0,25.4-7.4,32.6-22.2c7.3,14.8,18.1,22.2,32.6,22.2
	c14.2,0,25-7.4,32.3-22.2V267.5z"/>
</svg>
