<?xml version="1.0" encoding="utf-8"?>
<!-- Generator: Adobe Illustrator 19.0.0, SVG Export Plug-In . SVG Version: 6.00 Build 0)  -->
<svg version="1.1" id="beachcombing_xA0_Image_1_" xmlns="http://www.w3.org/2000/svg" xmlns:xlink="http://www.w3.org/1999/xlink"
	 x="0px" y="0px" viewBox="38 -37.3 575.8 574.3" style="enable-background:new 38 -37.3 575.8 574.3;" xml:space="preserve">
<style type="text/css">
	.st0{fill:#573922;stroke:#2B1C11;stroke-width:30;stroke-miterlimit:10;}
	.st1{display:none;}
	.st2{display:inline;fill:#FFFFFF;}
	.st3{fill:#FFFFFF;}
</style>
<ellipse class="st0" cx="325.9" cy="249.4" rx="273.5" ry="272.7"/>
<g class="st1">
	<path class="st2" d="M449.2,54c-0.5,0-1,0-1.5,0c-1.2-0.5-2.4-0.8-3.5-1.4c-1.6-1-3.1-2.2-4.7-3.3c-1.5-1.1-3.1-1.7-5-1.6
		c-1.3,0-2.6,0-3.8,0c-3.1-0.1-4.9-1.4-5.9-4.4c-0.4-1.1-0.7-2.2-1-3.3c-0.6-2.3-1.7-4.2-3.5-5.7c-5.2-4.5-10.4-9.1-15.5-13.7
		c-5.4-4.9-10.3-10.1-12.5-17.2c0-0.1,1.3,3.9-0.3-0.2c-1.6-4.1,0-3.9,0-5.9c0.9-1.5,1.8-3,2.9-4.4c0.7-0.9,1.1-1.6,0.8-2.7
		c-0.8-3.7,0.2-7,3.3-9.3c1.8-1.4,4-2.3,6.1-3.3c0.7-0.3,1.2-0.6,1.4-1.4c1.1-6.3,4.9-9.7,11.4-10.1c1.1-0.1,1.8-0.5,2.3-1.5
		c3.2-6.7,8.1-9.1,15.3-7.5c0.4,0.1,1.1,0.1,1.4-0.2c2-2.1,7-4.5,7-4.5s2.4-1.6,5.6,0c0.3,0.2,0.6,0.4,0.9,0.5
		c1.7,1.1,3.5,2,5.2,3.2c0.9,0.7,1.6,1,2.8,0.6c3.7-1.1,7.1-0.4,9.9,2.2c1.6,1.4,2.8,3.3,4.1,5c0.5,0.6,0.9,1.1,1.8,0.9
		c3.2-0.7,5.9,0.3,8.3,2.3c2.9,2.4,4.6,5.5,6.1,8.8c0.4,0.8,1.1,1.8,1.8,2.1c5.5,2.1,8,6.4,8.6,11.9c0.2,1.8,0.5,3.4,2.3,4.5
		c0.9,0.6,1.4,2,2.1,3c0.2,0.3,0.5,1.1,0.5,1.1s1.6,2.7,0,5.4c-2,4.2-0.3,0.3-0.3,0.5c-1.1,3.1-2.9,5.9-4.9,8.4
		c-5.7,7.1-12.1,13.6-18.6,19.9c-2.1,2.1-3.7,4.4-4.8,7.1c-0.6,1.5-1.3,3-2,4.4c-1.5,2.6-3.8,3.8-6.8,3.6c-0.9,0-1.8-0.1-2.7-0.1
		c-2.3-0.1-4.3,0.6-6.1,2C455.1,51.4,452.3,53,449.2,54z"/>
</g>
<g>
	<path class="st3" d="M435.6,121.6c0,13-0.9,25.6-2.5,37.5c-1.7,12-4.2,23.6-7.4,34.9c-6.3,3.2-13.1,6.1-20.6,8.7
		c-7.5,2.6-15.5,4.9-24.1,6.8c-8.9,2-17.4,3.5-25.3,4.6c-8,1.1-15.4,1.6-22.4,1.6c-12.3,0-24.8-1.3-37.3-4
		c-12.5-2.7-25.4-6.7-38.6-12.1c-5.2-10-9.1-20.8-11.8-32.3c-2.7-11.5-4-23.7-4-36.6c0-13.2,1.3-26.2,4-38.9
		c2.7-12.7,6.9-25,12.6-37c10.2-3.6,20.6-6.3,31.4-8.2c10.7-1.9,21.7-2.8,33-2.8c12.5,0,25.2,1.4,38.1,4.3
		c12.9,2.9,26,7.2,39.4,13.1c3.6,10.5,6.3,20.9,8.2,31.1c1.9,10.2,2.8,20.5,2.8,30.8c0,6.3-0.5,13.7-1.6,22.4
		c-1.1,8.7-2.8,18.5-5.1,29.4c-11.4,5.7-23.2,10.1-35.3,13c-12.1,2.9-24.5,4.4-37.4,4.4c-10,0-19.7-1-29.1-2.9
		c-9.4-2-18.4-4.9-26.9-8.8c-3.6-7.1-6.2-14.7-7.8-22.7c-1.6-8-2.4-16.4-2.4-25.3c0-6.4,0.5-13.2,1.5-20.4c1-7.1,2.5-14.7,4.4-22.8
		H378c0.7,2.3,1.2,4.1,1.6,5.4c0.4,1.3,0.5,1.8,0.5,1.6c0,1.1-0.3,2-0.8,2.8c-0.5,0.8-1.3,1.4-2.4,1.7h-37l11.5,66.2
		c0.4,1.3,0.2,2.1-0.5,2.7c-0.7,0.5-1.8,0.8-3.2,0.8c-1.8,0-3.2-0.3-4.2-0.8c-1-0.5-1.7-1.4-2-2.7l-12.1-36.5l-12.3,36.7
		c-0.2,1.3-0.8,2.1-1.7,2.7c-1,0.5-2.4,0.8-4.2,0.8c-1.6,0-2.7-0.3-3.4-0.8c-0.6-0.5-0.9-1.4-0.7-2.7l11.5-66.2h-38.3
		c-1.3,5-2.2,10.2-2.8,15.5c-0.6,5.4-0.9,10.7-0.9,16.1c0,7.7,0.5,14.7,1.6,21.2c1.1,6.4,2.8,12.2,5.1,17.4c7.1,3,14.7,5.3,22.7,6.8
		c8,1.5,16.1,2.3,24.5,2.3c11.4,0,22.3-1.2,32.6-3.5c10.3-2.3,20.1-5.8,29.4-10.5c1.8-8.4,3.1-16.2,4-23.5
		c0.9-7.2,1.3-13.8,1.3-19.7c0-8.9-0.7-17.8-2.1-26.5c-1.4-8.8-3.6-17.4-6.4-26c-11.3-5-22.5-8.7-33.8-11.1
		c-11.3-2.4-22.5-3.6-33.8-3.6c-9.7,0-19.1,0.7-28.4,2.1c-9.3,1.4-18.2,3.5-26.8,6.2c-4.5,10.2-7.8,20.8-10.1,31.8
		c-2.2,11-3.4,22.5-3.4,34.4c0,11.6,1,22.3,3.1,32.2c2.1,9.8,5.1,18.8,9.2,26.8c11.6,4.5,23,7.9,34.2,10.2c11.2,2.3,22,3.5,32.6,3.5
		c6.1,0,12.6-0.4,19.7-1.3c7.1-0.9,14.5-2.2,22.4-4c7.9-1.6,15.1-3.5,21.8-5.6c6.7-2.1,12.8-4.6,18.4-7.2c2.9-9.8,5-20,6.4-30.4
		c1.4-10.5,2.1-21.4,2.1-32.8c0-12.3-0.9-24.4-2.8-36.3c-1.9-11.9-4.6-23.5-8.2-35c-7-3-14.1-5.7-21.4-7.9
		c-7.3-2.2-14.7-4.1-22.3-5.6c-7.5-1.5-15.1-2.6-22.9-3.4c-7.8-0.7-15.6-1.1-23.5-1.1c-14.3,0-27.7,0.8-40.3,2.4
		c-12.6,1.6-24.5,4.2-35.8,7.8c-3.2,6.8-6,13.7-8.3,20.8c-2.3,7.1-4.2,14.2-5.8,21.3c-1.5,7.2-2.7,14.3-3.5,21.6
		c-0.8,7.2-1.2,14.4-1.2,21.6c0,16.3,1.6,31.2,4.8,44.9c3.2,13.7,8,26,14.5,36.9c6.8,2.7,13.8,5,20.9,7c7.1,2,14.3,3.6,21.6,5
		c7.2,1.3,14.6,2.4,22,3.1c7.4,0.7,15,1.1,22.7,1.1c15.2,0,29.5-1.5,43-4.4c13.5-2.9,26.1-7.4,37.9-13.3c-1.1,3.2-2.2,6.2-3.5,9
		c-1.3,2.8-2.5,5.3-3.8,7.6c-12.3,4.1-24.7,7.3-37,9.5c-12.3,2.2-24.5,3.4-36.5,3.4c-8.6,0-16.9-0.4-25.1-1.2
		c-8.1-0.8-16.2-1.9-24.1-3.4c-8-1.4-15.8-3.3-23.6-5.5c-7.8-2.2-15.4-4.9-22.9-7.9c-3.8-6.3-7.1-12.9-10.1-19.8
		c-2.9-7-5.4-14.3-7.2-21.8c-1.9-7.6-3.3-15.5-4.3-23.9c-1-8.3-1.5-16.9-1.5-25.9c0-8,0.5-16,1.5-24c1-8,2.4-15.9,4.2-23.9
		c1.8-8,4.1-15.9,6.8-23.7c2.8-7.9,5.9-15.6,9.5-23.3c6.3-2.1,12.7-4,19.3-5.6c6.6-1.6,13.5-2.9,20.6-4c7.1-1.1,14.5-1.9,22-2.4
		c7.5-0.5,15.3-0.8,23.3-0.8c8.8,0,17.4,0.4,25.9,1.2c8.5,0.8,16.9,2.1,25.3,3.9c8.4,1.8,16.6,4,24.7,6.7c8,2.7,16,5.8,23.9,9.4
		c4.5,12.9,7.9,26,10.2,39.3C434.5,94.3,435.6,107.9,435.6,121.6z M339.9,75.8c0,1.4-0.3,2.7-0.8,3.8s-1.3,2.1-2.1,2.9
		c-0.9,0.9-1.9,1.6-3.1,2.1c-1.2,0.5-2.5,0.8-3.9,0.8c-3.4,0-6-0.8-7.8-2.4c-1.8-1.6-2.7-4.1-2.7-7.5c0-1.2,0.3-2.5,0.9-3.8
		c0.6-1.2,1.5-2.3,2.5-3.2c0.9-1.1,2-1.8,3.2-2.3c1.2-0.4,2.5-0.7,3.8-0.7c1.2,0,2.5,0.3,3.8,0.8c1.2,0.5,2.3,1.3,3.2,2.4
		c0.9,0.9,1.6,2,2.1,3.2C339.7,73.3,339.9,74.5,339.9,75.8z"/>
</g>
</svg>
