<?xml version="1.0" encoding="utf-8"?>
<!-- Generator: Adobe Illustrator 19.0.0, SVG Export Plug-In . SVG Version: 6.00 Build 0)  -->
<svg version="1.1" id="beachcombing_xA0_Image_1_" xmlns="http://www.w3.org/2000/svg" xmlns:xlink="http://www.w3.org/1999/xlink"
	 x="0px" y="0px" viewBox="38 -37.3 575.8 574.3" style="enable-background:new 38 -37.3 575.8 574.3;" xml:space="preserve">
<style type="text/css">
	.st0{fill:#573922;stroke:#2B1C11;stroke-width:30;stroke-miterlimit:10;}
	.st1{display:none;}
	.st2{display:inline;fill:#FFFFFF;}
	.st3{fill:#FFFFFF;}
</style>
<ellipse class="st0" cx="325.5" cy="251" rx="273.5" ry="272.7"/>
<g class="st1">
	<path class="st2" d="M335.2,165.9c-0.5,0-1,0-1.5,0c-1.2-0.5-2.4-0.8-3.5-1.4c-1.6-1-3.1-2.2-4.7-3.3c-1.5-1.1-3.1-1.7-5-1.6
		c-1.3,0-2.6,0-3.8,0c-3.1-0.1-4.9-1.4-5.9-4.4c-0.4-1.1-0.7-2.2-1-3.3c-0.6-2.3-1.7-4.2-3.5-5.7c-5.2-4.5-10.4-9.1-15.5-13.7
		c-5.4-4.9-10.3-10.1-12.5-17.2c0-0.1,1.3,3.9-0.3-0.2c-1.6-4.1,0-3.9,0-5.9c0.9-1.5,1.8-3,2.9-4.4c0.7-0.9,1.1-1.6,0.8-2.7
		c-0.8-3.7,0.2-7,3.3-9.3c1.8-1.4,4-2.3,6.1-3.3c0.7-0.3,1.2-0.6,1.4-1.4c1.1-6.3,4.9-9.7,11.4-10.1c1.1-0.1,1.8-0.5,2.3-1.5
		c3.2-6.7,8.1-9.1,15.3-7.5c0.4,0.1,1.1,0.1,1.4-0.2c2-2.1,7-4.5,7-4.5s2.4-1.6,5.6,0c0.3,0.2,0.6,0.4,0.9,0.5
		c1.7,1.1,3.5,2,5.2,3.2c0.9,0.7,1.6,1,2.8,0.6c3.7-1.1,7.1-0.4,9.9,2.2c1.6,1.4,2.8,3.3,4.1,5c0.5,0.6,0.9,1.1,1.8,0.9
		c3.2-0.7,5.9,0.3,8.3,2.3c2.9,2.4,4.6,5.5,6.1,8.8c0.4,0.8,1.1,1.8,1.8,2.1c5.5,2.1,8,6.4,8.6,11.9c0.2,1.8,0.5,3.4,2.3,4.5
		c0.9,0.6,1.4,2,2.1,3c0.2,0.3,0.5,1.1,0.5,1.1s1.6,2.7,0,5.4c-2,4.2-0.3,0.3-0.3,0.5c-1.1,3.1-2.9,5.9-4.9,8.4
		c-5.7,7.1-12.1,13.6-18.6,19.9c-2.1,2.1-3.7,4.4-4.8,7.1c-0.6,1.5-1.3,3-2,4.4c-1.5,2.6-3.8,3.8-6.8,3.6c-0.9,0-1.8-0.1-2.7-0.1
		c-2.3-0.1-4.3,0.6-6.1,2C341.1,163.3,338.3,164.9,335.2,165.9z"/>
</g>
<g>
	<path class="st3" d="M290,80.3h-90.1v-8.5h9.1l35.8-59.3l36.1,59.3h9.1V80.3z M350.5,103.5l3.5-2.3l9.4-8.5l4.1,2.9
		c14.9-3.5,26.5-6.3,34.8-8.2c8.3-2,13.5-3.1,15.4-3.5h0.6c1-1.4,2.1-2.6,3.2-3.8c1.2-1.2,2.5-2.2,4.1-2.9c0.6,0,1.2,0,1.8,0
		c0.6,0,1,0.2,1.2,0.6l9.4-3.8c0,3.9-0.2,7.3-0.7,10.1c-0.5,2.8-1.1,5.2-1.9,7.2l5.9,16.4l9.4,23.5c0,1.8-0.5,3.4-1.5,5
		c-1,1.6-2.4,3.2-4.4,5c-2,1.6-3.8,2.8-5.4,3.7c-1.7,0.9-3.3,1.3-4.8,1.3c-1.8,3.5-3.6,6.1-5.6,7.8c-2,1.7-4.2,2.5-6.8,2.5
		c-1.6,0-3.2-0.3-4.8-0.9c-1.7-0.6-3.4-1.6-5.1-2.9l-16.7-12.6c-0.8,0.8-1.4,1.5-1.9,2.1c-0.5,0.6-0.8,1-1,1.2l-2.9,11.7
		c-0.6,1.6-1,2.8-1.3,3.7c-0.3,0.9-0.5,1.7-0.7,2.5l3.2,23.2c2.2,5.7,4.1,10.6,5.7,14.7c1.7,4.1,3.1,7.4,4.3,10l3.2,7.9
		c0.2,0.6,0.3,1.1,0.4,1.5c0.1,0.4,0.2,0.7,0.4,0.9c3.9,3.9,6.8,7.5,8.7,10.7c1.9,3.2,2.6,6.1,2.2,8.7h-27.3c-0.2-3.5-1-6.2-2.5-7.9
		c-1.5-1.8-3.5-2.7-6-2.9c-0.2-7.6-1.4-14.1-3.5-19.5c-2.2-5.4-5.4-9.6-9.7-12.8c-1.6-3.1-3-6.1-4.4-9c-1.4-2.8-2.6-5.3-3.8-7.5
		l0.9,20c-2,2.5-3.8,4.8-5.4,6.8c-1.7,2-3.2,3.5-4.5,4.7c-2.3,2.7-4.4,5.1-6,7.2c-1.7,2.1-2.9,4.1-3.7,6c-0.4,0-0.7,0.1-1,0.1
		c-0.3,0.1-0.5,0.2-0.7,0.4c-0.2,1.6-0.3,2.9-0.3,4c0,1.1,0,1.9,0,2.5c0,1.2-0.3,2.7-0.9,4.7c-0.6,2-1.3,4.2-2.1,6.8
		c-5.9-4.9-10.7-9-14.4-12.2c-3.7-3.2-6.5-5.6-8.2-7.2l5.3-8.5c0.6,0,1,0.1,1.2,0.1c0.2,0.1,0.3,0.2,0.3,0.4l0.3-1.2
		c0.8-1.8,1.6-3.2,2.5-4.4c0.9-1.2,1.7-2.2,2.5-2.9c0.6-0.4,1-0.7,1.3-0.9c0.3-0.2,0.5-0.4,0.7-0.6l2.1-2.9l5.3-10l-2.6-19.7
		c-6.5-0.2-12.6-0.6-18.3-1.2c-5.8-0.6-11.1-1.2-16-1.8c-1.4-0.6-2.4-1.1-3.1-1.5c-0.7-0.4-1.1-0.8-1.3-1.2c-0.2,2-0.3,3.7-0.4,5.3
		c-0.1,1.6-0.1,2.9-0.1,4.1c0,5.1,0.6,10.2,1.8,15.4c1.2,5.2,3,10.3,5.6,15.4c0.6,1.8,1.1,3.3,1.5,4.7c0.4,1.4,0.8,2.4,1.2,3.2
		c0.8,1.2,1.5,2.2,2.1,2.9c0.6,0.8,1.3,1.3,2.1,1.5l5,6.5c1.8,1.4,3.1,2.6,4,3.8c0.9,1.2,1.3,2.3,1.3,3.2c0,2.3-0.5,4.1-1.6,5.1
		c-1.1,1.1-2.6,1.6-4.5,1.6H292c-1.4,0-2.6-0.6-3.8-1.9c-1.2-1.3-2.2-3.1-2.9-5.4l-0.6-0.3c-1.6-0.6-2.7-1.3-3.5-2.1
		c-0.8-0.8-1.2-1.6-1.2-2.3c0-0.4,0-0.8,0-1.2c0-0.4,0-0.7,0-0.9c0-2.2-0.8-5-2.5-8.5c-1.7-3.5-4.2-7.8-7.5-12.9
		c-2-2.9-3.5-5.5-4.5-7.6c-1.1-2.2-1.6-3.7-1.6-4.7v-3.8c0-2.5-0.2-4.9-0.7-7c-0.5-2.2-1.1-3.9-1.9-5.3l-9.7,14.4
		c-0.4,0.4-1,1-1.9,1.8c-0.9,0.8-2,1.8-3.4,2.9l-1.8,0.9c-1.6,5.5-2.7,10.1-3.5,13.8c-0.8,3.7-1.2,6.7-1.2,8.8c0,1-0.1,2.1-0.4,3.2
		c-0.3,1.2-0.7,2.4-1.3,3.8l-2.6,3.5c-0.6,0.4-1,1.1-1.3,2.1c-0.3,1-0.5,2.1-0.7,3.2c-3.3,2-6.6,4.2-9.7,6.6
		c-3.1,2.4-6.2,5.1-9.1,8.1l-7.9-24.9l6.2-4.1c2-4.7,3.5-10.3,4.7-16.7c1.2-6.5,1.9-13.8,2.1-22c2-1.6,3.6-3.1,5-4.5
		c1.4-1.5,2.5-3.1,3.5-4.8c-2.3,2-5.3,3.4-9,4.4c-3.6,1-8,1.7-13.1,2.1c3.3-3.7,6-7.4,7.9-11.2c2-3.7,3.2-7.4,3.8-11.2
		c0.6-2.3,1-4.2,1.2-5.6c0.2-1.4,0.3-2.3,0.3-2.9c0-0.8-0.1-1.8-0.1-2.9c-0.1-1.2-0.3-2.5-0.7-4.1c-0.2-1.8-0.4-3.2-0.6-4.4
		c-0.2-1.2-0.3-2.2-0.3-2.9c0-5.3,1.2-10.1,3.7-14.4c2.4-4.3,6.1-8,11-11.2c4.1-2.7,8.7-4.7,13.6-6c5-1.3,10.3-1.9,16-1.9
		c1.4,0,3,0.1,5,0.1c2,0.1,4.2,0.3,6.8,0.7c2.7,0.2,5.1,0.4,7,0.6c2,0.2,3.5,0.3,4.7,0.3c1.6,0,2.8-0.1,3.8-0.3
		c1-0.2,1.6-0.4,1.8-0.6c1-1.2,1.7-2.2,2.1-3.1c0.4-0.9,0.6-1.6,0.6-2.2c0-1.6,0-2.9,0.1-4c0.1-1.1,0.1-1.9,0.1-2.5v0.9
		c0.2-1.6,0.3-2.9,0.4-4c0.1-1.1,0.1-1.9,0.1-2.5l1.2-5.3c2-11.3,4.3-20.8,7-28.5c2.7-7.6,6-13.3,9.7-17c2.9,3.1,5.4,5.4,7.3,6.9
		c2,1.5,3.4,2.2,4.4,2.2h9.4c1.2,6.7,2.2,12.4,3.1,17.2c0.9,4.8,1.5,8.8,1.9,11.9l24.1,21.4l-12.3,11.2L336.1,92l-0.9,0.6l1.8,0.9
		c1.4,1,2.5,1.8,3.4,2.5c0.9,0.7,1.7,1.4,2.5,2.2c2,1.2,3.6,2.3,4.8,3.2C348.9,102.4,349.9,103.1,350.5,103.5z M260.1,71.5
		l-15.3-24.9l-14.7,24.9H260.1z M329.3,1.3c1.8-0.2,3.8,0.1,6,1c2.2,0.9,4.7,2.2,7.5,4c1.6,1.2,2.8,2.9,3.8,5.1c1,2.3,1.7,5,2.1,8.4
		c0.2,2.5-0.2,4.9-1.2,7c-1,2.2-2.4,4.2-4.4,6.2c-2,2-4.1,3.4-6.3,4.4c-2.3,1-4.6,1.5-7.2,1.5c-2.3,0-4.7-0.4-6.9-1.3
		c-2.3-0.9-4.3-2.3-6-4.3c-1.8-2-3.1-4-4-6.2c-0.9-2.2-1.3-4.5-1.3-7c0-5.5,1.5-9.8,4.4-12.9C318.8,4.1,323.3,2.1,329.3,1.3z
		 M424.4,139.9c0.8,0,1.4-0.1,1.8-0.4c0.4-0.3,0.5-0.5,0.3-0.7c0-0.4-0.1-0.7-0.3-1c-0.2-0.3-0.4-0.5-0.6-0.7
		c-0.4-1-0.8-1.8-1.3-2.5c-0.5-0.7-0.8-1.3-1-1.9c-2.3-0.6-4.5-1.6-6.6-2.9c-2.1-1.4-4.1-3.1-6-5.3c-1.2,0-2.4,0.2-3.7,0.6
		c-1.3,0.4-2.5,1-3.7,1.8l16.4,11.4c0.8,0.6,1.6,1,2.3,1.3C422.9,139.7,423.6,139.9,424.4,139.9z"/>
</g>
</svg>
