<?xml version="1.0" encoding="utf-8"?>
<!-- Generator: Adobe Illustrator 19.2.1, SVG Export Plug-In . SVG Version: 6.00 Build 0)  -->
<svg version="1.1" id="beachcombing_xA0_Image_1_" xmlns="http://www.w3.org/2000/svg" xmlns:xlink="http://www.w3.org/1999/xlink"
	 x="0px" y="0px" viewBox="0 0 575.8 574.3" style="enable-background:new 0 0 575.8 574.3;" xml:space="preserve">
<style type="text/css">
	.st0{fill:#FFFF00;}
	.st1{fill:#573922;stroke:#2B1C11;stroke-width:30;stroke-miterlimit:10;}
	.st2{display:none;}
	.st3{display:inline;fill:#FFFFFF;}
	.st4{fill:#FFFFFF;}
</style>
<ellipse class="st0" cx="287.1" cy="286.7" rx="287.1" ry="286.2"/>
<ellipse class="st1" cx="287.2" cy="286.7" rx="246.4" ry="245.7"/>
<g class="st2">
	<path class="st3" d="M335.2,165.9c-0.5,0-1,0-1.5,0c-1.2-0.5-2.4-0.8-3.5-1.4c-1.6-1-3.1-2.2-4.7-3.3c-1.5-1.1-3.1-1.7-5-1.6
		c-1.3,0-2.6,0-3.8,0c-3.1-0.1-4.9-1.4-5.9-4.4c-0.4-1.1-0.7-2.2-1-3.3c-0.6-2.3-1.7-4.2-3.5-5.7c-5.2-4.5-10.4-9.1-15.5-13.7
		c-5.4-4.9-10.3-10.1-12.5-17.2c0-0.1,1.3,3.9-0.3-0.2c-1.6-4.1,0-3.9,0-5.9c0.9-1.5,1.8-3,2.9-4.4c0.7-0.9,1.1-1.6,0.8-2.7
		c-0.8-3.7,0.2-7,3.3-9.3c1.8-1.4,4-2.3,6.1-3.3c0.7-0.3,1.2-0.6,1.4-1.4c1.1-6.3,4.9-9.7,11.4-10.1c1.1-0.1,1.8-0.5,2.3-1.5
		c3.2-6.7,8.1-9.1,15.3-7.5c0.4,0.1,1.1,0.1,1.4-0.2c2-2.1,7-4.5,7-4.5s2.4-1.6,5.6,0c0.3,0.2,0.6,0.4,0.9,0.5
		c1.7,1.1,3.5,2,5.2,3.2c0.9,0.7,1.6,1,2.8,0.6c3.7-1.1,7.1-0.4,9.9,2.2c1.6,1.4,2.8,3.3,4.1,5c0.5,0.6,0.9,1.1,1.8,0.9
		c3.2-0.7,5.9,0.3,8.3,2.3c2.9,2.4,4.6,5.5,6.1,8.8c0.4,0.8,1.1,1.8,1.8,2.1c5.5,2.1,8,6.4,8.6,11.9c0.2,1.8,0.5,3.4,2.3,4.5
		c0.9,0.6,1.4,2,2.1,3c0.2,0.3,0.5,1.1,0.5,1.1s1.6,2.7,0,5.4c-2,4.2-0.3,0.3-0.3,0.5c-1.1,3.1-2.9,5.9-4.9,8.4
		c-5.7,7.1-12.1,13.6-18.6,19.9c-2.1,2.1-3.7,4.4-4.8,7.1c-0.6,1.5-1.3,3-2,4.4c-1.5,2.6-3.8,3.8-6.8,3.6c-0.9,0-1.8-0.1-2.7-0.1
		c-2.3-0.1-4.3,0.6-6.1,2C341.1,163.3,338.3,164.9,335.2,165.9z"/>
</g>
<path class="st4" d="M466.6,241.4l-6.3-46.8c-0.7-4.9-4.3-7.6-10.9-8.3l-81.2-7.8L330.8,139c-3.4-3.8-7.6-5.7-12.5-5.7H203.9
	c-4.2,0-7,2.2-8.3,6.8l-10.9,37.1l-67.7,8.9c-3.8,0.3-5.9,2.2-6.3,5.8l-3.1,43.9c-0.3,3.1,1.2,5.1,4.6,5.8l22.4,1.6
	c1-11.1,5.4-20,13-27c7.6-7,16.8-10.4,27.6-10.4c10.7,0,20,3.5,27.8,10.7s12,16,12.7,26.8h149.4c1-10.7,5.4-19.7,13-26.8
	c7.6-7.1,16.8-10.7,27.6-10.7c10.7,0,20,3.5,27.6,10.6s11.9,16,13,26.9L466.6,241.4z M202.3,246.4c0-7.5-2.6-14-7.8-19.3
	c-5.2-5.3-11.6-8-19.2-8s-14.1,2.6-19.5,8c-5.4,5.3-8.1,11.8-8.1,19.3c0,7.5,2.6,14,8.1,19.3c5.4,5.3,11.9,8,19.5,8s14-2.6,19.2-8
	C199.7,260.3,202.3,253.9,202.3,246.4z M265.2,182.1h-52l4.2-24.5c0.7-3.8,2.8-5.7,6.3-5.7h41.6V182.1z M340.7,176.4
	c1,1.4,1.2,2.6,0.5,3.6c-0.7,1.4-1.9,2.1-3.6,2.1h-58.8v-30.1h35.9c3.1,0,5.4,0.9,6.7,2.6L340.7,176.4z M433.4,246.4
	c0-7.5-2.7-14-8.1-19.3s-11.9-8-19.5-8s-14.1,2.6-19.5,8c-5.4,5.3-8.1,11.8-8.1,19.3c0,7.5,2.6,14,8.1,19.3c5.4,5.3,11.9,8,19.5,8
	s14.1-2.6,19.5-8C430.6,260.3,433.4,253.9,433.4,246.4z"/>
</svg>
