<?xml version="1.0" encoding="utf-8"?>
<!-- Generator: Adobe Illustrator 19.0.0, SVG Export Plug-In . SVG Version: 6.00 Build 0)  -->
<svg version="1.1" id="beachcombing_xA0_Image_1_" xmlns="http://www.w3.org/2000/svg" xmlns:xlink="http://www.w3.org/1999/xlink"
	 x="0px" y="0px" viewBox="18 -17.2 635.8 634.2" style="enable-background:new 18 -17.2 635.8 634.2;" xml:space="preserve">
<style type="text/css">
	.st0{fill:#FFFF00;}
	.st1{fill:#573922;stroke:#2B1C11;stroke-width:30;stroke-miterlimit:10;}
	.st2{fill:#FFFFFF;}
</style>
<ellipse class="st0" cx="336.7" cy="300.5" rx="318.7" ry="317.7"/>
<ellipse class="st1" cx="335.9" cy="300.7" rx="273.5" ry="272.7"/>
<g>
	<path class="st2" d="M273.8,83.5V67.1c-0.8-0.2-1.8-0.3-2.9-0.4s-2.3-0.1-3.6-0.1c-18.3,0-30.7,10.6-37,31.8l-5.5,4l13.3,12.4
		l16.8-12.4l-4.8-3c0-3.1,2-6.6,6-10.4c1.2-1.2,4.3-2.5,9.3-4c2-0.5,3.6-0.9,4.9-1.2s2.2-0.5,2.9-0.5c0.3,0,0.5,0.1,0.5,0.2H273.8
		L273.8,83.5z M246.3,232.5v-30h-17.5v30H246.3z M275.5,273.7L265,260.3l-3.5,4.7l-1.5-0.2c-9.2-3-13.8-10.3-13.8-21.8v-1.7h-17
		c-0.2,0.8-0.3,1.8-0.4,2.9c-0.1,1.1-0.1,2.3-0.1,3.6c0,9.8,3.3,18,9.8,24.6c4.3,4.3,8.7,7.5,13,9.7c1.7,0.3,3.3,0.7,4.8,1.2
		c1.5,0.5,3.1,1,4.8,1.5l4,5.5L275.5,273.7z M246.5,153.3v-30H229v30H246.5z M246.3,193v-30.3H229V193H246.3z M358.8,170.4h0.3
		c-4.2-2.8-8.1-5.3-11.8-7.6c-3.7-2.2-7.1-4.3-10.3-6.3l-1.8-1.2c-2.3-1.5-3.5-5.4-3.5-11.7c-1.2-7-5.8-11.5-13.8-13.7l-1.3-0.2
		c-5.2,0-11.1,7-17.8,20.9c-1.3,3-2.4,5.5-3.3,7.4c-0.8,2-1.3,3.4-1.5,4.2l-1.5,12.9c-0.8,6.3-2.1,11-3.8,14.2
		c-1.5,3.3-4.3,10.3-8.3,20.9c-4,10.8-6,16.7-6,17.9c0,1.5,2.9,4.1,8.8,7.9l21.3-38.5c0.3-0.8,0.7-1.2,1.3-1.2
		c0.7,0.3,1.9,1.4,3.8,3.2c2.5,2.5,7.6,14.5,15.3,36l14.8-2.7c-3.8-10.1-10.8-28.7-21-55.9c-0.8-2.1-1.3-4.5-1.3-7.2
		c0.2-2.1,0.3-3.1,0.5-3c0.2-2.1,2-4.1,5.5-6l16.8,10.9c0.3,0.2,1.8,0.7,4.5,1.5s6.4,1.9,11.3,3.2L358.8,170.4z M312.8,284.6v-17.4
		h-30.5v17.4H312.8z M313,83.5V67.1h-30.5v16.4H313L313,83.5z M339.8,119.7c0-2.8-1-5.3-3.1-7.6c-2.1-2.2-4.5-3.4-7.4-3.4
		c-3,0-5.5,1-7.6,3.1c-2.1,2.1-3.1,4.6-3.1,7.6c0,2.8,1,5.2,3.1,7.2s4.5,3,7.4,3c3,0,5.5-1,7.6-3
		C338.8,124.7,339.8,122.4,339.8,119.7z M352.3,284.6v-17.4h-30.8v17.1L352.3,284.6z M352.6,83.3V66.6h-30.8v16.6h30.8V83.3z
		 M391.3,284.3v-17.4h-30.8v16.9L391.3,284.3z M391.8,83.3V66.6h-30.5v16.6h30.5V83.3z M403.8,182.6l-29-4.2l-12.5,15.9l23.8,4.5
		L403.8,182.6z M384.3,193l-1.2,1.2l-12.8-3.5l1.5-0.5L384.3,193z M391.8,188l-1.5,1l-16.8-3.2l1.7-1.2L391.8,188z M390.1,232.5
		v-32.3l-5.3,1.7l-10.8-1.7v32.3H390.1z M445.1,103.1c0-7.1-2-13.8-6.1-20c-4.1-6.2-9.6-10.9-16.6-14c-1.7-0.3-3.3-0.7-4.8-1.2
		s-3.1-1-4.8-1.5l-4-5.2l-12,13.9l12,15.9l5-4.7c9.2,3.3,13.8,10.8,13.8,22.6v1h16.8C444.8,107.8,445.1,105.6,445.1,103.1z
		 M449.1,248.3l-16.3-10.9L419,248.3l4.5,4.5c-2.5,8.9-10.3,13.7-23.5,14.2v16.4c0.8,0.2,1.8,0.3,2.9,0.4s2.3,0.1,3.6,0.1
		c18.3,0,30.7-10.6,37-31.8L449.1,248.3z M443.8,188.3v-30h-16.5v30H443.8z M443.8,227.2v-30.3h-16.5v30.3H443.8z M444.1,149.3v-30
		h-16.5v30H444.1z"/>
</g>
</svg>
