<?xml version="1.0" encoding="utf-8"?>
<!-- Generator: Adobe Illustrator 19.0.0, SVG Export Plug-In . SVG Version: 6.00 Build 0)  -->
<svg version="1.1" id="beachcombing_xA0_Image_1_" xmlns="http://www.w3.org/2000/svg" xmlns:xlink="http://www.w3.org/1999/xlink"
	 x="0px" y="0px" viewBox="-17 109.7 575.8 574.3" style="enable-background:new -17 109.7 575.8 574.3;" xml:space="preserve">
<style type="text/css">
	.st0{fill:#FF8000;}
	.st1{fill:#FFF200;}
</style>
<g>
	<path class="st0" d="M522.5,348.5c-8.3-24.8-16.8-45-25.6-60.6c-8.8-15.6-19.7-33.4-32.9-53.3c-13.1-20-20.7-31.9-22.6-35.8
		L380,292.3L270.5,137.4L160.9,292.3l-61.4-93.5c-2,3.9-9.5,15.8-22.6,35.8c-13.2,20-24.1,37.8-32.9,53.3
		c-8.8,15.6-17.3,35.8-25.6,60.6C10.2,373.4,6,396.5,6,417.9c0,68.2,26.5,126.6,79.6,175.3s114.7,73.1,184.8,73.1
		s131.7-24.3,184.8-73.1c53.1-48.7,79.6-107.1,79.6-175.3C535,396.5,530.8,373.4,522.5,348.5z"/>
	<path class="st1" d="M347.8,585.5c-21.4,13.1-47.3,19.7-77.4,19.7c-30.2,0-56-6.6-77.4-19.7c-21.4-13.2-32.1-27.5-32.1-43.1
		c0-20.5,9-43.8,27-70.1s36.3-47.2,54.8-62.8l27.8-23.4c7.8,6.8,17.8,15.3,30,25.6c12.2,10.2,28.5,29.2,48.9,57
		c20.5,27.8,30.7,52.4,30.7,73.8C379.9,558,369.2,572.4,347.8,585.5z"/>
</g>
</svg>
