<?xml version="1.0" encoding="utf-8"?>
<!-- Generator: Adobe Illustrator 19.0.0, SVG Export Plug-In . SVG Version: 6.00 Build 0)  -->
<svg version="1.1" id="beachcombing_xA0_Image_1_" xmlns="http://www.w3.org/2000/svg" xmlns:xlink="http://www.w3.org/1999/xlink"
	 x="0px" y="0px" viewBox="-11 13.7 575.8 574.3" style="enable-background:new -11 13.7 575.8 574.3;" xml:space="preserve">
<style type="text/css">
	.st0{fill:#FFFF00;}
	.st1{fill:#573922;}
	.st2{fill:#FFFFFF;}
</style>
<rect x="-11" y="13.7" class="st0" width="575.8" height="574.3"/>
<rect x="34" y="58.5" class="st1" width="486" height="484.7"/>
<g>
	<path class="st2" d="M426.6,93.5v179.4c-8.7,11.8-18.1,17.7-28.2,17.7c-9.4,0-18.3-4.2-26.9-12.5c-8.5-8.3-14.3-18.8-17.5-31.3
		c-3.8-16-6.4-23.8-7.8-23.5c-2.4,0-5,2.3-7.6,7c-2.6,4.7-3.9,10-3.9,15.9c0,19.5,6.1,36.7,18.3,51.6c12.5,14.6,27.5,21.9,44.9,21.9
		c14.3,0,26.9-4.5,38.1-13.6c11.5-9.4,17.2-20.2,17.2-32.3V93L426.6,93.5z M501.2,450.8c-26.8-5.6-40.5-10.6-41.2-15.1v-0.5
		c0-4.2,13-11,39.1-20.3c-10.4-10.8-27.5-21.2-51.1-31.3c-17.7-7-37.1-12.3-58.2-16.2c-21-3.8-43.9-5.9-68.6-6.3H315
		c-54.9,0-104.5,13.6-148.6,40.7c-17.4,10.4-28.9,17.7-34.4,21.9c-7.7-4.9-15.5-10.3-23.5-16.4c-8-6.1-16-12.6-24-19.6
		c-11.5-10.1-18.3-15.1-20.3-15.1h-0.5c-1.7,1-2.6,8.7-2.6,22.9c0,9,9.4,23.6,28.2,43.8c-11.8,20.5-17.7,36.7-17.7,48.5v4.2
		c0.7,5.6,1.3,10.1,1.8,13.6c0.5,3.5,1,6.1,1.3,7.8c1,0,7.1-6.8,18.3-20.3c13.9-16.7,26.9-30.1,39.1-40.2
		c30.6,17.7,50.6,28.9,60,33.4c35.8,15.6,75.8,23.5,120,23.5h4.2C396.3,509.4,458.1,489.7,501.2,450.8z M415.1,422.1
		c0,6.3-2,11.7-6,16.2c-4,4.5-8.4,6.8-13.3,6.8c-13.9,0-20.9-7.6-20.9-22.9c0-6.6,2.1-12.2,6.3-16.7c4.2-4.5,8.9-6.8,14.1-6.8
		c5.2,0,9.8,2.3,13.8,6.8C413.1,409.9,415.1,415.5,415.1,422.1z"/>
</g>
</svg>
