<?xml version="1.0" encoding="utf-8"?>
<!-- Generator: Adobe Illustrator 19.0.0, SVG Export Plug-In . SVG Version: 6.00 Build 0)  -->
<svg version="1.1" id="Layer_1" xmlns="http://www.w3.org/2000/svg" xmlns:xlink="http://www.w3.org/1999/xlink" x="0px" y="0px"
	 viewBox="0 0 288 288" style="enable-background:new 0 0 288 288;" xml:space="preserve">
<style type="text/css">
	.st0{fill:#FFCB05;}
	.st1{fill:#00783C;}
</style>
<g>
	<polygon class="st0" points="143.3,288 143.1,287.9 141,284.1 138.6,280.8 136.2,277.9 133.5,275.5 130.7,273.5 127.7,271.8 
		124.6,270.4 121.4,269.2 118.1,268.3 114.7,267.5 111.1,266.9 107.5,266.4 103.8,265.9 100.1,265.4 96.4,265 92.6,264.4 
		88.6,263.8 84.9,263.3 81.3,262.8 78,262.3 74.8,261.8 71.9,261.4 69.1,260.9 66.5,260.5 64.2,260 62,259.6 60,259.2 58.2,258.9 
		56.6,258.5 55.2,258.2 54.1,257.8 53.1,257.5 49.3,256 45.7,254.4 42.3,252.4 39,250.2 35.8,247.9 32.9,245.3 30.2,242.5 
		27.6,239.6 25.3,236.6 23.2,233.4 21.3,230 19.6,226.6 18.2,223.1 17,219.6 16,215.9 15.4,212.2 15.2,210.8 15.1,209.3 15,207.7 
		14.9,206.1 15,204.5 15,202.7 15.1,201 15.3,199.2 15.4,197.3 15.7,195.4 16,193.3 16.3,191.3 16.7,189.2 17.1,187.1 17.6,184.8 
		18.1,182.6 20,175 22,167.3 24.1,159.4 26.2,151.4 28.1,143.4 29.9,135.2 31.3,127.1 32.4,119 32.9,110.9 32.8,102.9 32,95.1 
		30.4,87.3 28,79.7 24.5,72.4 20,65.3 14.3,58.4 54.4,0.5 66,4.6 77.7,8 89.6,10.9 101.6,13.1 113.6,14.8 125.6,15.9 137.6,16.4 
		149.4,16.5 161,16 172.5,15.1 183.6,13.8 194.5,12 205,9.8 215.1,7.2 224.8,4.3 233.9,1 273.2,58.9 267.3,65.7 262.7,72.7 
		259.2,79.9 256.8,87.4 255.3,95 254.7,102.8 254.8,110.8 255.5,118.8 256.7,127 258.3,135.2 260.3,143.4 262.4,151.7 264.5,159.9 
		266.7,168.1 268.7,176.2 270.5,184.2 270.9,186 271.3,187.6 271.6,188.9 271.9,190.2 272.1,191.3 272.3,192.3 272.5,193.3 
		272.7,194.1 272.8,195 272.9,195.9 273,196.7 273,197.6 273.1,198.5 273.1,199.6 273.2,200.7 273.2,202 273.2,204.8 273,207.5 
		272.7,210.2 272.3,212.9 271.8,215.5 271.2,218.1 270.4,220.6 269.5,223.1 268.5,225.7 267.3,228.1 266,230.5 264.6,232.8 
		263,235.2 261.4,237.4 259.6,239.7 257.7,241.9 256,243.7 254.2,245.3 252.3,247 250.4,248.5 248.4,249.9 246.3,251.2 244.1,252.5 
		241.8,253.7 239.4,254.7 237,255.8 234.5,256.7 231.9,257.5 229.2,258.3 226.5,258.9 223.6,259.5 220.7,260 212.4,261.4 
		204.8,262.6 197.6,263.7 191.1,264.6 185.1,265.3 179.6,266.1 174.5,267 169.9,267.9 165.6,269 161.7,270.4 158,272.2 154.7,274.3 
		151.6,276.9 148.7,280 145.9,283.7 143.3,288 	"/>
	<polygon class="st1" points="169.8,255.3 171.8,255 173.7,254.7 175.5,254.4 177.2,254.1 178.8,253.9 180.3,253.7 181.9,253.5 
		183.4,253.3 184.8,253.1 186.3,252.9 187.7,252.7 189.2,252.6 190.7,252.4 192.3,252.2 193.8,251.9 195.5,251.7 196.1,251.6 
		197.4,251.4 199.2,251.2 201.3,250.8 203.8,250.4 206.6,250 209.5,249.5 212.6,249 215.7,248.5 218.7,248 221.6,247.5 224.3,247 
		226.7,246.5 228.7,246.1 230.3,245.7 231.4,245.4 235.1,243.8 238.5,242 241.6,240 244.6,237.7 247.3,235.3 249.7,232.7 252,230 
		254,227.1 255.7,224.1 257.2,221 258.4,217.8 259.4,214.6 260.1,211.4 260.6,208.1 260.8,204.9 260.8,201.6 260.7,200.3 
		260.5,198.5 260.2,196.3 259.7,193.7 259.1,190.8 258.4,187.4 257.6,183.6 256.7,179.4 255.6,174.8 254.5,169.9 253.2,164.5 
		251.8,158.7 250.3,152.6 248.6,146 246.9,139 245,131.6 243.9,126.9 243.1,122.2 242.5,117.5 242.1,112.7 241.9,108.1 242,103.4 
		242.4,98.7 243,94 243.9,89.4 245,84.8 246.4,80.3 248.2,75.8 250.2,71.4 252.5,67 255.1,62.7 258.1,58.5 228.5,15.4 219.2,18.8 
		209.4,21.7 199,24 188.2,25.9 177.1,27.2 165.7,28.1 154.2,28.5 142.7,28.5 131.1,28.1 119.8,27.3 108.6,26.1 97.7,24.5 87.2,22.6 
		77.2,20.4 67.7,17.9 59,15.1 29.2,58.5 30.1,59.8 31.3,61.4 32.6,63.3 33.9,65.6 35.3,68.2 36.7,71.1 38.1,74.2 39.5,77.5 
		40.8,81.1 41.9,84.9 43,88.7 43.9,92.8 44.6,97 45,101.3 45.2,105.7 45.2,110.1 45.1,112 45,113.7 44.8,115.3 44.7,116.8 
		44.6,118.1 44.4,119.5 44.2,120.8 44.1,122.1 43.8,123.4 43.6,124.8 43.2,126.3 42.9,127.9 42.5,129.6 42,131.5 41.5,133.6 
		41,135.9 40.1,139.3 39.3,142.7 38.5,146 37.7,149.3 36.9,152.6 36.1,155.8 35.3,159 34.6,162.2 33.8,165.4 33.1,168.6 32.4,171.7 
		31.7,174.8 31,177.9 30.3,181 29.6,184 28.9,186.9 28.4,189.4 27.9,191.8 27.4,194.3 27,196.8 26.7,199.2 26.5,201.7 26.4,204.3 
		26.5,206.8 26.7,209.4 27.1,212.1 27.7,214.8 28.5,217.6 29.6,220.4 31,223.3 32.6,226.3 34.5,229.4 35.3,230.6 36.3,231.9 
		37.4,233.2 38.7,234.6 40.1,236 41.6,237.4 43.3,238.8 45.1,240.2 47,241.5 49.1,242.7 51.3,243.9 53.6,245 56.1,246 58.6,246.8 
		61.3,247.5 64.2,248 68.7,248.8 73,249.4 77.2,250 81.1,250.7 84.9,251.2 88.5,251.7 91.9,252.2 95.1,252.7 98.1,253.1 
		100.9,253.6 103.6,253.9 106,254.2 108.3,254.6 110.4,254.9 112.3,255.1 114,255.3 115.6,255.5 117.2,255.7 118.8,256 120.4,256.3 
		122.1,256.7 123.8,257.1 125.5,257.7 127.2,258.3 128.9,259 130.8,259.9 132.6,260.9 134.6,261.9 136.5,263.2 138.5,264.6 
		140.7,266.2 142.9,267.9 144.1,266.6 145.4,265.4 146.8,264.2 148.3,263.2 149.8,262.1 151.4,261.2 153.2,260.3 154.9,259.5 
		156.7,258.8 158.5,258.2 160.4,257.5 162.2,257 164.1,256.5 166,256 167.9,255.6 169.8,255.3 	"/>
	<polygon class="st0" points="160.2,164.1 159.9,164.1 159.7,164.1 159.4,164.1 159.1,163.9 158.7,163.8 158.3,163.6 157.9,163.4 
		157.5,163.2 157,163 156.5,162.7 156,162.5 155.5,162.3 154.9,162.2 154.4,162.1 153.8,162 153.3,162 153.2,161.9 153,161.9 
		152.9,161.8 152.8,161.6 152.7,161.5 152.5,161.2 152.4,161 152.2,160.7 152,160.4 151.8,160.1 151.6,159.6 151.4,159.2 
		151.1,158.8 150.9,158.3 150.6,157.7 150.4,157.1 149.6,157 149.5,158.3 149.3,159.6 149.1,160.8 149,162 148.9,163.3 148.8,164.5 
		148.7,165.8 148.7,167.1 148.6,168.4 148.6,169.6 148.6,171 148.6,172.3 148.6,173.6 148.6,174.9 148.7,176.3 148.7,177.6 
		148.8,178.9 148.8,180.1 148.9,181.2 148.9,182.2 148.9,183.1 149,183.9 149,184.7 149.1,185.3 149.1,185.9 149.2,186.4 
		149.3,186.8 149.5,187.2 149.7,187.6 149.9,187.8 150.2,188.1 150.5,188.3 161.7,193.4 162.7,193.8 163.7,194.3 164.7,194.7 
		165.5,195.1 166.3,195.5 167.1,195.8 167.7,196.1 168.3,196.5 168.8,196.8 169.2,197 169.6,197.3 169.9,197.6 170.2,197.8 
		170.4,198 170.5,198.2 170.6,198.4 170.5,198.5 170.5,198.7 170.5,198.8 170.5,198.9 170.4,198.9 170.3,199 170.2,199.1 
		170.1,199.1 170,199.2 169.9,199.2 169.7,199.2 169.6,199.2 169.4,199.2 169.2,199.2 169,199.1 168.8,199.1 168.5,199 168.2,198.9 
		167.9,198.9 167.6,198.8 167.4,198.8 167.1,198.7 166.8,198.7 166.5,198.7 166.3,198.7 166,198.7 165.8,198.7 165.5,198.7 
		165.2,198.7 165,198.7 164.7,198.7 164.5,198.7 164.1,198.8 163.8,198.8 163.5,198.9 163.2,198.9 162.9,198.9 162.6,199 162.3,199 
		162,199 161.7,199 161.3,199 161.1,198.9 160.7,198.9 160.4,198.8 160.1,198.8 159.8,198.7 159.5,198.5 159.2,198.5 159,198.4 
		158.7,198.4 158.4,198.4 158.1,198.4 157.7,198.4 157.4,198.4 157,198.4 156.6,198.4 156.1,198.4 155.6,198.5 155.1,198.5 
		154.6,198.6 154,198.7 153.4,198.8 152.8,198.9 152,198.9 151.2,199.1 150.5,199.2 149.8,199.3 149.1,199.4 148.4,199.6 
		147.7,199.7 147,199.8 146.3,199.9 145.6,200 145,200 144.4,200 143.7,200 143.2,199.9 142.6,199.8 142.1,199.6 141.2,199.4 
		140.4,199.3 139.5,199.1 138.7,199 138,198.8 137.2,198.7 136.4,198.7 135.6,198.6 134.9,198.5 134.2,198.5 133.4,198.5 
		132.7,198.5 132,198.5 131.3,198.5 130.6,198.6 130,198.7 129.2,198.8 128.3,198.9 127.5,199 126.8,199.1 126,199.2 125.4,199.2 
		124.7,199.3 124.1,199.3 123.6,199.3 123.1,199.3 122.6,199.3 122.1,199.3 121.7,199.3 121.3,199.3 121,199.2 120.7,199.1 
		120.5,199.1 120.2,199.1 120,199 119.6,199 119.4,199 119,199 118.7,199 118.4,199 118,199 117.6,199.1 117.2,199.1 116.7,199.1 
		116.3,199.2 115.8,199.3 115.3,199.3 114.9,199.4 114.8,199.4 114.6,199.4 114.5,199.4 114.4,199.4 114.3,199.3 114.3,199.3 
		114.2,199.2 114.1,199.1 114.1,199 114.1,198.9 114.1,198.8 114.1,198.7 114.1,198.7 114.1,198.5 114.2,198.5 114.3,198.4 
		114.7,198.2 115,197.9 115.3,197.8 115.6,197.6 115.9,197.4 116.3,197.2 116.9,196.9 117.6,196.7 118.5,196.3 119.6,195.9 
		120.9,195.3 122.5,194.7 124.5,193.9 126.8,192.9 129.5,191.8 132.6,190.5 133.3,190.3 134,190 134.6,189.6 135.2,189.4 135.7,189 
		136.2,188.7 136.6,188.5 137,188.1 137.3,187.8 137.6,187.5 137.8,187.2 138,186.9 138.2,186.6 138.3,186.3 138.4,185.9 
		138.4,185.6 138.4,166.6 138.4,166.6 138.4,166.4 138.4,166.2 138.4,166.1 138.4,165.8 138.4,165.5 138.5,165.2 138.5,164.8 
		138.5,164.4 138.5,164 138.5,163.5 138.6,163 138.6,162.5 138.7,161.8 138.7,161.2 138.8,160.5 138.8,160.3 138.8,160.1 
		138.8,159.9 138.8,159.8 138.8,159.6 138.8,159.5 138.8,159.3 138.7,159.2 138.7,159.1 138.7,159 138.6,158.9 138.6,158.9 
		138.5,158.9 138.5,158.8 138.4,158.8 138.4,158.8 137.7,158.8 137.4,159.2 137,159.7 136.5,160.2 136.1,160.6 135.5,161.1 
		135,161.5 134.4,161.9 133.9,162.3 133.4,162.7 132.9,163 132.4,163.2 132,163.4 131.7,163.5 131.5,163.5 131.3,163.4 131.2,163.2 
		131.2,163.1 131.3,163 131.3,162.9 131.3,162.8 131.4,162.7 131.5,162.6 131.5,162.5 131.6,162.4 131.6,162.2 131.7,162.1 
		131.7,162.1 131.7,162 131.7,161.9 131.7,161.9 131.7,161.8 131.6,161.8 131.2,161.9 131,162 130.6,162.1 130.4,162.2 130.1,162.4 
		129.9,162.5 129.7,162.7 129.5,162.9 129.3,163 129.2,163.2 129,163.4 128.8,163.6 128.7,163.9 128.5,164.1 128.3,164.3 
		128.2,164.4 127.9,164.7 127.7,165 127.4,165.2 127.2,165.4 126.9,165.5 126.7,165.7 126.4,165.9 126.2,166 125.9,166.1 
		125.7,166.2 125.5,166.2 125.2,166.2 125,166.3 124.7,166.3 124.5,166.2 124.3,166.2 124.2,165.9 124.1,165.6 124.1,165.4 
		124,165.2 124,165.1 123.9,165 123.8,165 123.7,164.9 123.6,164.9 123.5,165 123.4,165 123.3,165.2 123.1,165.3 123,165.4 
		122.9,165.5 122.7,165.7 122.2,166.1 121.8,166.3 121.5,166.5 121.2,166.6 121,166.6 120.9,166.7 120.7,166.6 120.6,166.6 
		120.5,166.5 120.5,166.4 120.5,166.3 120.4,166.2 120.4,166.2 120.3,166.1 120.2,166.1 120.1,166.1 120,166.2 120,166.3 
		119.9,166.4 119.8,166.4 119.8,166.5 119.8,166.6 119.7,166.6 119.6,166.7 119.6,166.7 119.5,166.8 119.5,166.8 119.5,166.8 
		119.5,166.8 119.4,166.8 119.4,166.8 119.2,166.9 119,166.9 118.8,166.9 118.6,167 118.5,167.1 118.2,167.1 118.1,167.2 
		117.9,167.3 117.7,167.3 117.6,167.3 117.4,167.3 117.2,167.3 117.1,167.2 117,167.2 116.8,167 116.7,166.8 116.6,166.7 
		116.5,166.6 116.4,166.5 116.3,166.4 116.2,166.4 116.1,166.4 116,166.4 115.9,166.4 115.7,166.5 115.6,166.6 115.5,166.6 
		115.4,166.7 115.3,166.8 115.2,166.9 115.1,166.9 115,167 114.8,167.1 114.7,167.1 114.6,167.2 114.4,167.3 114.3,167.3 
		114.2,167.3 114,167.3 113.9,167.4 113.7,167.4 113.6,167.4 113.4,167.5 113.3,167.5 113.2,167.5 113,167.5 112.9,167.5 
		112.8,167.5 112.6,167.6 112.4,167.7 112.2,167.8 112,167.8 111.9,167.9 111.7,168 111.5,168 111.2,168 111,168 110.8,168 
		110.5,167.9 110.3,167.8 110,167.7 109.6,167.6 109.2,167.5 108.9,167.3 108.8,167.1 108.8,166.8 108.8,166.6 108.8,166.4 
		108.9,166.2 108.9,166 108.9,165.9 108.9,165.7 109,165.5 109.1,165.4 109.1,165.3 109.2,165.2 109.2,165 109.3,164.9 109.4,164.8 
		109.5,164.7 109.6,164.7 109.7,164.6 109.8,164.6 109.9,164.5 110,164.4 110.1,164.4 110.2,164.3 110.3,164.2 110.3,164.1 
		110.4,164.1 110.5,164 110.5,163.9 110.5,163.9 110.5,163.8 110.5,163.7 110.5,163.7 110.3,163.6 110.3,163.6 110.2,163.6 
		110.1,163.5 110.1,163.5 110,163.4 110,163.4 109.9,163.3 109.9,163.2 109.8,163.1 109.8,163 109.8,162.9 109.7,162.8 109.7,162.7 
		109.7,162.6 109.7,162.5 109.6,162.2 109.6,162 109.6,161.7 109.7,161.5 109.8,161.2 109.8,160.9 110,160.7 110.1,160.4 
		110.3,160.1 110.5,159.9 110.7,159.6 111,159.3 111.3,159 111.6,158.8 111.9,158.5 112.3,158.3 114,157 114.1,156.6 113.3,156.6 
		113.2,156.6 113.1,156.6 113.1,156.6 113.1,156.6 113,156.5 113,156.5 113,156.5 113,156.4 113,156.4 113,156.3 113,156.2 
		113,156.2 113,156.1 113,156 113.1,155.9 113.1,155.8 113.8,155.2 114.4,154.6 115.1,154 115.7,153.4 116.3,152.8 116.8,152.2 
		117.4,151.7 117.9,151.1 118.3,150.6 118.8,150 119.1,149.5 119.5,149 119.9,148.5 120.2,148.1 120.4,147.6 120.7,147.2 
		120.7,147.1 120.7,147 120.7,146.9 120.7,146.8 120.6,146.8 120.6,146.8 120.5,146.8 120.5,146.7 120.4,146.8 120.4,146.8 
		120.3,146.8 120.2,146.8 120.2,146.8 120.1,146.9 120,146.9 120,146.9 119.4,147.6 119.3,147.7 119.2,147.7 119.1,147.8 119,147.8 
		118.9,147.9 118.9,147.9 118.8,148 118.6,148 118.5,148.1 118.4,148.1 118.3,148.1 118.2,148.1 118,148.1 117.9,148.1 117.8,148.1 
		117.7,148.1 117.6,148.1 117.5,148.1 117.5,148 117.5,148 117.4,147.9 117.4,147.8 117.4,147.8 117.4,147.7 117.3,147.7 
		117.3,147.7 117.3,147.6 117.3,147.6 117.3,147.6 117.3,147.6 117.4,147.5 117.4,147.4 117.4,147.4 117.5,147.4 117.5,147.3 
		117.5,147.2 117.5,147.2 117.6,147.2 117.6,147.1 117.6,147.1 117.6,147 117.6,147 117.6,147 117.5,147 117.5,147 117.4,147.1 
		117.3,147.2 117.2,147.2 117.1,147.3 117,147.3 117,147.4 116.8,147.4 116.8,147.5 116.7,147.6 116.6,147.6 116.6,147.7 
		116.5,147.7 116.5,147.7 116.4,147.8 116.4,147.8 116.3,147.9 116.3,147.9 115.2,148.8 114.9,149 114.6,149.2 114.3,149.2 
		114.1,149.2 113.8,149.2 113.6,149.2 113.4,149 113.1,148.9 113,148.8 112.8,148.6 112.6,148.4 112.6,148.1 112.5,147.9 
		112.5,147.7 112.5,147.4 112.5,147.2 112.7,147 113,146.8 113.3,146.6 113.5,146.3 113.8,146.1 114,145.8 114.3,145.6 114.6,145.3 
		114.8,145 115.1,144.7 115.4,144.3 115.7,144 115.9,143.6 116.2,143.3 116.5,142.9 116.7,142.5 117,142.2 117.1,141.9 117.3,141.6 
		117.5,141.3 117.7,141.1 117.9,140.8 118,140.6 118.2,140.4 118.4,140.2 118.5,140 118.6,139.8 118.8,139.6 118.9,139.5 
		118.9,139.3 119.1,139.2 119.1,139.1 119.4,138.8 119.6,138.5 119.9,138.2 120.2,137.9 120.4,137.7 120.5,137.4 120.7,137.2 
		120.9,137 121.1,136.8 121.2,136.6 121.3,136.4 121.4,136.3 121.6,136.2 121.7,136.1 121.7,135.9 121.8,135.9 122.1,135.5 
		122.3,135.1 122.6,134.7 122.9,134.3 123.1,134 123.4,133.7 123.6,133.3 123.9,133 124.1,132.7 124.4,132.4 124.6,132.1 
		124.9,131.8 125.1,131.6 125.3,131.3 125.5,131.1 125.8,130.9 125.8,130.9 125.8,130.8 125.7,130.8 125.7,130.8 125.7,130.8 
		125.7,130.7 125.7,130.7 125.7,130.7 125.7,130.6 125.7,130.6 125.7,130.6 125.6,130.7 125.4,130.8 125.2,130.9 125,131 
		124.7,131.1 124.5,131.3 124.2,131.4 123.8,131.6 123.5,131.8 123.2,132 122.8,132.3 122.3,132.5 121.9,132.8 121.4,133 121,133.3 
		120.5,133.6 118.8,134.6 118.6,134.7 118.5,134.7 118.4,134.7 118.3,134.6 118.2,134.6 118.1,134.5 118.1,134.4 118.1,134.4 
		118,134.3 118,134.2 118,134.1 118.1,134 118.1,133.9 118.1,133.8 118.2,133.7 118.2,133.6 118.2,133.6 118.3,133.4 118.4,133.3 
		118.4,133.2 118.5,133.1 118.5,133 118.6,132.9 118.6,132.8 118.6,132.7 118.6,132.6 118.6,132.5 118.6,132.4 118.6,132.3 
		118.5,132.3 118.4,132.2 118.3,132.1 118.4,131.9 118.5,131.8 118.6,131.5 118.6,131.4 118.8,131.2 118.9,131 118.9,130.8 
		119,130.7 119.1,130.5 119.3,130.3 119.3,130.1 119.5,130 119.5,129.9 119.6,129.7 119.8,129.5 119.9,129.4 120,129.2 120.2,129.1 
		120.3,128.9 120.4,128.7 120.4,128.6 120.5,128.5 120.6,128.3 120.7,128.2 120.8,128.1 120.8,128 120.9,127.9 120.9,127.8 
		120.9,127.8 120.9,127.7 120.9,127.7 121,127.6 120.9,127.7 120.7,127.6 120.7,127.6 120.6,127.6 120.5,127.5 120.5,127.4 
		120.5,127.4 120.5,127.3 120.5,127.3 120.5,127.2 120.5,127.1 120.5,127.1 120.5,127 120.5,126.9 120.5,126.9 120.5,126.9 
		120.7,126.8 120.8,126.7 120.9,126.7 121,126.6 121.1,126.5 121.2,126.4 121.3,126.3 121.3,126.2 121.4,126.2 121.4,126 121.4,126 
		121.4,125.8 121.5,125.8 121.5,125.7 121.5,125.5 121.5,125.4 121.1,125.6 120.8,125.7 120.5,125.8 120.2,125.9 119.9,126 
		119.6,126.1 119.3,126.2 119.1,126.2 118.8,126.3 118.5,126.3 118.2,126.3 118,126.3 117.7,126.3 117.4,126.3 117.1,126.3 
		116.8,126.3 116.7,126.3 116.6,126.3 116.5,126.3 116.4,126.2 116.3,126.2 116.2,126.1 116.1,126 116.1,126 116,125.9 115.9,125.8 
		115.9,125.7 115.9,125.7 115.9,125.5 116,125.5 116.1,125.4 116.2,125.3 116.6,124.9 117.1,124.6 117.5,124.3 117.9,123.9 
		118.4,123.6 118.8,123.2 119.2,122.9 119.6,122.6 120,122.2 120.4,121.8 120.7,121.5 121.1,121.2 121.5,120.8 121.8,120.4 
		122.2,120.1 122.6,119.7 122.7,119.5 123,119.2 123.2,118.9 123.5,118.6 123.8,118.2 124.1,117.8 124.5,117.3 124.9,116.8 
		125.3,116.3 125.8,115.7 126.2,115.1 126.7,114.3 127.3,113.6 127.8,112.9 128.4,112 129.1,111.2 129.2,111 129.3,110.8 
		129.5,110.6 129.6,110.4 129.7,110.3 129.8,110.1 129.9,110 130,109.9 130,109.7 130.1,109.6 130.1,109.5 130.2,109.5 130.2,109.3 
		130.2,109.3 130.2,109.2 130.2,109.2 129.9,109.2 128.8,110.2 128.4,110.6 127.9,111 127.4,111.3 127,111.6 126.5,111.8 126,111.9 
		125.6,112 125.2,112 124.9,111.9 124.5,111.7 124.2,111.5 124,111.3 123.9,110.9 123.8,110.5 123.9,110 124,109.4 124.1,109.3 
		124.1,109.3 124.2,109.2 124.2,109.2 124.3,109.1 124.5,109 124.6,108.8 124.7,108.7 124.9,108.5 125,108.4 125.2,108.2 125.4,108 
		125.6,107.7 125.8,107.5 126.1,107.3 126.1,107.2 126.1,107.2 126.1,107.2 126.1,107.2 126.1,107.1 126.1,107.1 126,107.1 126,107 
		126,107 126,107 126,106.9 126,106.9 125.9,106.9 125.9,106.8 125.9,106.8 125.9,106.8 125.8,106.8 125.8,106.7 125.8,106.7 
		125.8,106.6 125.7,106.6 125.7,106.6 125.7,106.5 125.6,106.5 125.6,106.5 125.6,106.4 125.6,106.4 125.6,106.4 125.6,106.4 
		125.8,106.3 125.9,106.1 126.1,106 126.2,105.8 126.3,105.6 126.5,105.4 126.6,105.2 126.7,105 126.8,104.8 126.9,104.5 127,104.2 
		127.1,104 127.2,103.7 127.3,103.5 127.4,103.2 127.5,103 127.5,103 127.5,102.8 127.5,102.8 127.6,102.7 127.7,102.7 127.7,102.6 
		127.8,102.5 127.9,102.4 128,102.3 128.1,102.3 128.2,102.2 128.3,102.1 128.5,102 128.6,102 128.8,101.8 128.9,101.7 128.9,101.6 
		128.9,101.5 128.9,101.4 128.8,101.4 128.8,101.4 128.7,101.4 128.6,101.5 128.5,101.6 128.4,101.6 128.3,101.7 128.1,101.7 
		128,101.8 127.9,101.8 127.8,101.8 127.7,101.8 127.6,101.7 127.6,101.7 127.5,101.7 127.5,101.7 127.5,101.6 127.5,101.6 
		127.4,101.6 127.4,101.6 127.4,101.5 127.4,101.5 127.4,101.4 127.4,101.2 127.5,101 127.5,100.8 127.4,100.7 127.3,100.7 
		127.2,100.6 127.1,100.6 127,100.6 126.8,100.7 126.7,100.7 126.6,100.7 126.5,100.7 126.4,100.7 126.3,100.7 126.3,100.7 
		126.3,100.5 126.3,100.4 126.4,100.2 126.4,100 126.5,99.9 126.5,99.8 126.5,99.6 126.6,99.5 126.7,99.4 126.7,99.3 126.8,99.1 
		126.8,99 126.8,98.9 126.9,98.8 127,98.7 127,98.6 127.1,98.5 128.3,96.8 128.4,96.7 128.5,96.6 128.6,96.4 128.8,96.2 128.9,96 
		129,95.8 129.1,95.6 129.3,95.4 129.4,95.2 129.5,94.9 129.7,94.6 129.8,94.4 130,94.1 130.2,93.7 130.3,93.4 130.6,93.1 
		130.9,92.4 131.2,91.8 131.5,91.2 131.8,90.7 132.1,90.2 132.3,89.7 132.6,89.3 132.8,88.9 132.9,88.6 133.1,88.3 133.3,88 
		133.4,87.8 133.5,87.6 133.5,87.5 133.6,87.4 133.7,87.3 133.9,86.9 134.2,86.4 134.5,85.9 134.7,85.5 134.9,85.1 135.1,84.8 
		135.3,84.5 135.4,84.2 135.5,84 135.6,83.7 135.6,83.5 135.6,83.4 135.6,83.3 135.6,83.2 135.5,83.1 135.4,83.1 135.3,83.1 
		135.2,83.1 135.1,83.2 135,83.2 134.9,83.3 134.8,83.3 134.7,83.5 134.7,83.5 134.6,83.6 134.5,83.7 134.4,83.8 134.4,83.9 
		134.3,83.9 134.2,84 134.2,84.1 134.1,84.2 133.8,84.4 133.5,84.6 133.3,84.8 133.1,85 132.8,85.1 132.6,85.3 132.4,85.4 
		132.2,85.5 132,85.5 131.9,85.6 131.7,85.6 131.5,85.6 131.4,85.6 131.3,85.5 131.1,85.5 131.1,85.4 131.2,84.1 131.5,81.3 
		131.4,81.3 131.3,81.4 131.2,81.5 131.1,81.6 131,81.7 131,81.7 130.8,81.8 130.7,81.8 130.6,81.8 130.5,81.8 130.4,81.9 
		130.3,81.9 130.2,81.9 130.1,81.9 130.1,81.9 130.1,81.9 130,81.8 130,81.7 130,81.6 130,81.5 130.1,81.3 130.1,81.1 130.2,80.9 
		130.4,80.6 130.6,80.4 130.8,80 131,79.7 131.2,79.4 131.5,79 131.9,78.6 132.2,78.2 132.6,77.7 132.8,77.4 133.1,77.1 133.3,76.8 
		133.6,76.5 133.8,76.1 134.1,75.8 134.3,75.5 134.6,75.2 134.8,74.8 135,74.5 135.2,74.2 135.4,73.8 135.6,73.5 135.8,73.2 
		136,72.9 136.2,72.5 136.5,71.9 136.8,71.2 137.2,70.6 137.5,70.1 137.7,69.6 138,69.1 138.2,68.7 138.4,68.3 138.6,68 138.7,67.7 
		138.9,67.5 139,67.3 139,67.1 139.1,67 139.2,66.9 139.2,66.9 139.5,66.4 139.8,65.9 140,65.4 140.3,64.8 140.6,64.2 140.8,63.7 
		141.1,63.1 141.4,62.5 141.6,61.8 141.9,61.2 142.1,60.5 142.4,59.9 142.6,59.2 142.9,58.6 143.2,57.9 143.5,57.2 143.5,57.2 
		143.5,57.2 143.5,57.2 143.6,57.2 143.6,57.2 143.6,57.2 143.7,57.2 143.7,57.2 143.7,57.2 143.8,57.2 143.8,57.2 143.9,57.2 
		143.9,57.2 143.9,57.2 143.9,57.2 144,57.2 144.2,57.6 144.6,58 144.9,58.3 145.2,58.7 145.5,59.1 145.7,59.5 146,59.9 146.3,60.4 
		146.5,60.8 146.8,61.3 147,61.7 147.2,62.2 147.4,62.7 147.7,63.2 147.8,63.7 148.1,64.1 148.3,65 148.6,65.7 148.9,66.4 
		149.2,67.1 149.5,67.8 149.8,68.4 150.1,69.1 150.4,69.6 150.7,70.2 151,70.7 151.2,71.2 151.6,71.6 151.9,72 152.1,72.4 
		152.4,72.8 152.7,73.1 152.8,73.2 152.9,73.4 153.1,73.5 153.2,73.6 153.4,73.8 153.5,73.9 153.7,74.1 153.8,74.2 153.9,74.3 
		154,74.5 154.1,74.6 154.2,74.7 154.2,74.8 154.2,75 154.1,75.1 154.1,75.2 153.8,75.2 153.5,75.3 153.2,75.3 153,75.3 152.7,75.2 
		152.5,75.2 152.3,75.1 152.1,75 151.9,74.9 151.7,74.8 151.5,74.7 151.3,74.7 151.1,74.6 150.9,74.5 150.7,74.5 150.5,74.5 
		150.4,74.5 150.3,74.7 150.2,74.9 150.3,75.2 150.4,75.7 150.6,76.2 150.9,76.8 151.2,77.5 151.5,78.3 152,79.1 152.5,80.2 
		153,81.2 153.7,82.4 154.3,83.6 155.1,85 155.9,86.4 156.1,86.8 156.3,87.1 156.5,87.5 156.6,87.8 156.8,88.2 156.9,88.6 
		157.1,88.9 157.2,89.2 157.4,89.6 157.6,90 157.8,90.3 158,90.6 158.3,90.9 158.5,91.2 158.8,91.5 159,91.8 159.3,92.1 159.5,92.3 
		159.7,92.6 159.9,92.8 160.1,93.1 160.2,93.3 160.3,93.5 160.3,93.7 160.3,93.8 160.2,93.9 160,94 159.9,94.1 159.6,94 159.3,93.9 
		158.9,93.8 158.4,93.5 158.3,93.5 158.1,93.4 157.9,93.3 157.7,93.3 157.5,93.2 157.4,93.2 157.2,93.1 157,93 156.8,93 156.6,92.9 
		156.5,92.8 156.3,92.8 156.1,92.8 156,92.7 155.8,92.7 155.7,92.6 155.6,92.6 155.5,92.7 155.4,92.8 155.5,93 155.5,93.3 
		155.6,93.5 155.7,93.9 155.8,94.2 155.9,94.6 156.1,94.9 156.3,95.3 156.5,95.6 156.7,96 157,96.2 157.2,96.6 157.5,96.7 
		160.7,100.1 162.2,101.8 162.2,102.1 162.1,102.3 162,102.5 161.9,102.7 161.7,102.7 161.4,102.7 161.1,102.7 160.8,102.7 
		160.5,102.6 160.2,102.5 159.8,102.4 159.5,102.2 159.1,102.1 158.8,102 158.5,101.8 158.3,101.6 158.3,101.7 158.3,101.8 
		158.3,101.8 158.3,102 158.4,102 158.4,102.1 158.5,102.2 158.5,102.3 158.6,102.4 158.7,102.5 158.8,102.6 158.9,102.7 159,102.8 
		159.1,102.9 159.3,103 159.4,103.1 159.6,103.2 159.7,103.4 159.9,103.4 160,103.5 160.2,103.6 160.4,103.7 160.5,103.8 
		160.6,103.9 160.8,104.1 160.9,104.2 161.1,104.3 161.2,104.5 161.3,104.6 161.5,104.8 161.6,105 161.8,105.2 161.7,105.3 
		161.7,105.4 161.7,105.4 161.7,105.5 161.7,105.5 161.6,105.6 161.6,105.6 161.5,105.7 161.5,105.7 161.4,105.8 161.3,105.8 
		161.3,105.8 161.2,105.8 161.1,105.8 161,105.8 160.9,105.8 161.1,106.1 161.3,106.3 161.5,106.6 161.7,106.9 161.9,107.2 
		162.1,107.6 162.3,107.9 162.6,108.2 162.8,108.6 163.1,109 163.3,109.3 163.5,109.7 163.8,110.1 164,110.5 164.3,110.9 
		164.6,111.3 164.7,111.6 164.9,111.8 165,112 165.2,112.3 165.4,112.5 165.5,112.7 165.7,112.9 165.9,113.1 166,113.3 166.2,113.6 
		166.4,113.8 166.6,114 166.8,114.2 167,114.3 167.2,114.6 167.4,114.7 167.6,115 167.7,115.1 167.9,115.3 168,115.5 168.1,115.6 
		168.3,115.8 168.4,116 168.5,116.1 168.6,116.2 168.6,116.4 168.7,116.5 168.7,116.6 168.8,116.7 168.8,116.9 168.8,116.9 
		168.8,117 168.7,117.1 168.7,117.2 168.6,117.2 168.5,117.2 168.3,117.3 168.2,117.3 168.1,117.3 167.9,117.2 167.8,117.2 
		167.6,117.2 167.4,117.1 167.2,117 167,117 166.8,116.9 166.5,116.7 166.3,116.6 166.3,116.7 166.2,116.7 166.2,116.8 166.2,116.9 
		166.2,116.9 166.2,117 166.2,117.1 166.2,117.2 166.3,117.3 166.3,117.4 166.3,117.5 166.3,117.5 166.3,117.6 166.3,117.6 
		166.3,117.7 166.2,117.8 166,117.9 165.8,117.9 165.6,117.9 165.4,117.9 165.1,117.8 164.9,117.6 164.7,117.4 164.5,117.2 
		164.2,117 164,116.7 163.7,116.5 163.5,116.2 163.2,116 163,115.7 162.7,115.5 162.7,115.5 162.6,115.4 162.6,115.4 162.5,115.4 
		162.5,115.4 162.4,115.5 162.4,115.5 162.3,115.5 162.3,115.6 162.3,115.6 162.3,115.7 162.2,115.7 162.2,115.8 162.2,115.8 
		162.3,115.9 162.3,116 162.9,116.9 163.5,117.8 164,118.6 164.5,119.3 165,120.1 165.5,120.8 166,121.4 166.5,122.1 167.1,122.7 
		167.6,123.4 168.1,124 168.7,124.8 169.3,125.5 169.9,126.2 170.6,127 171.4,127.8 171.5,128 171.8,128.2 172,128.4 172.4,128.5 
		172.7,128.7 173,128.9 173.4,129 173.7,129.2 174.1,129.4 174.3,129.5 174.6,129.7 174.8,129.9 175,130 175.1,130.2 175.1,130.4 
		175.1,130.6 175,130.7 174.8,130.8 174.6,130.9 174.4,130.9 174.3,131 174.1,131 173.9,131 173.8,131.1 173.6,131.1 173.4,131.1 
		173.2,131 173,131 172.8,131 172.6,130.9 172.4,130.8 172.2,130.7 172,130.7 171.9,130.6 171.7,130.5 171.6,130.5 171.5,130.4 
		171.4,130.4 171.2,130.3 171.1,130.3 171,130.2 170.9,130.2 170.8,130.1 170.8,130.1 170.7,130.1 170.6,130.1 170.6,130.1 
		170.6,130 170.7,130.5 170.8,131 170.8,131.3 170.8,131.5 170.6,131.8 170.5,131.9 170.2,131.9 170,131.9 169.7,131.9 169.4,131.9 
		169.1,131.8 168.8,131.7 168.5,131.6 168.2,131.4 167.9,131.3 167.7,131.2 167.6,131.1 167.6,131.1 167.4,131 167.4,131 
		167.3,130.9 167.2,130.8 167.2,130.8 167.1,130.7 167,130.7 166.9,130.6 166.8,130.6 166.8,130.6 166.7,130.6 166.6,130.6 
		166.5,130.6 166.4,130.7 166.4,130.8 166.3,130.9 166.3,131 166.3,131 166.3,131.2 166.3,131.3 166.3,131.4 166.4,131.6 
		166.5,131.8 166.5,131.9 166.7,132.1 166.7,132.3 166.9,132.5 167,132.7 167.2,132.9 167.3,133.1 167.5,133.3 167.7,133.6 
		167.8,133.7 167.9,134 168.1,134.2 168.3,134.4 168.5,134.6 168.6,134.8 168.7,135.1 168.9,135.3 169,135.5 169.2,135.8 169.3,136 
		169.5,136.2 169.6,136.5 169.7,136.7 170.1,137.3 170.5,137.9 170.8,138.4 171.2,139 171.5,139.5 171.9,139.9 172.3,140.4 
		172.7,140.8 173,141.2 173.4,141.6 173.8,141.9 174.1,142.2 174.5,142.5 174.8,142.7 175.2,142.9 175.6,143.1 175.6,143.2 
		175.6,143.4 175.6,143.4 175.6,143.5 175.5,143.6 175.3,143.7 175.2,143.7 175,143.8 174.8,143.8 174.7,143.8 174.5,143.8 
		174.3,143.8 174.1,143.8 174,143.8 173.8,143.8 173.7,143.7 173.6,143.8 173.5,143.9 173.6,144.1 173.7,144.4 173.9,144.7 
		174.1,145 174.4,145.4 174.7,145.8 175.1,146.3 175.5,146.7 175.8,147.2 176.2,147.7 176.5,148.1 176.8,148.6 177.1,149 
		177.3,149.4 178,150.3 178.5,151.1 178.9,151.7 179.3,152.3 179.5,152.8 179.6,153.1 179.7,153.4 179.6,153.6 179.4,153.7 
		179.1,153.7 178.8,153.7 178.3,153.6 177.8,153.4 177.2,153.2 176.5,152.8 175.7,152.4 175.6,152.4 175.5,152.4 175.4,152.4 
		175.3,152.3 175.2,152.3 175.1,152.2 175.1,152.2 175,152.2 174.9,152.1 174.8,152.1 174.7,152 174.6,152 174.5,152 174.4,151.9 
		174.3,151.9 174.2,151.9 174.2,151.9 174.3,152 174.4,152.2 174.4,152.3 174.6,152.5 174.7,152.8 174.8,153.1 175,153.3 
		175.2,153.7 175.3,154.1 175.6,154.5 175.8,155 176.1,155.5 176.4,156 176.6,156.5 177,157.1 177.1,157.4 177.2,157.6 177.4,157.8 
		177.5,158 177.6,158.1 177.8,158.4 177.9,158.6 178.1,158.8 178.3,158.9 178.4,159.2 178.6,159.3 178.8,159.5 178.9,159.7 
		179.1,159.9 179.3,160.1 179.4,160.2 179.7,160.5 179.9,160.7 180.1,161 180.3,161.2 180.4,161.5 180.5,161.7 180.5,161.9 
		180.6,162.1 180.6,162.3 180.6,162.5 180.5,162.7 180.4,162.9 180.3,163.1 180.2,163.3 180,163.4 179.8,163.5 179.8,163.9 
		179.8,164.1 179.7,164.3 179.6,164.5 179.5,164.6 179.4,164.8 179.3,164.9 179.2,165 179.1,165.2 179,165.3 178.9,165.3 
		178.9,165.4 178.8,165.5 178.8,165.7 178.9,165.8 178.9,165.9 179.2,166.4 179.3,166.8 179.4,167.1 179.4,167.3 179.3,167.5 
		179.2,167.6 179,167.7 178.9,167.7 178.6,167.7 178.4,167.7 178.2,167.6 177.9,167.5 177.6,167.4 177.5,167.3 177.2,167.2 
		177.1,167 176.9,166.9 176.8,166.8 176.7,166.6 176.6,166.5 176.5,166.3 176.4,166.2 176.3,166.1 176.2,165.9 176.2,165.8 
		176.1,165.6 176.1,165.5 176,165.3 176,165.2 176,165 176,164.9 176,164.8 175.8,164.6 175.6,164.6 175.4,164.6 175.2,164.6 
		175,164.6 174.7,164.8 174.4,164.8 174.2,164.9 173.9,165 173.7,165.2 173.4,165.3 173.2,165.4 172.9,165.5 172.6,165.5 
		172.4,165.6 172.1,165.7 170.6,165.5 170.6,165.7 170.7,165.8 170.9,165.9 171,166.1 171.1,166.2 171.2,166.3 171.3,166.4 
		171.4,166.5 171.5,166.6 171.6,166.7 171.6,166.8 171.7,166.9 171.7,167 171.8,167.1 171.8,167.3 171.7,167.4 171.6,167.5 
		171.4,167.6 171.2,167.6 170.9,167.6 170.5,167.5 170.1,167.4 169.7,167.2 169.2,167 168.8,166.8 168.2,166.4 167.7,166.1 
		167.2,165.6 166.6,165.1 166,164.5 165.5,163.9 165,163.2 164.8,163.3 164.7,163.3 164.5,163.3 164.4,163.3 164.2,163.3 
		164.1,163.3 164,163.3 163.8,163.4 163.7,163.4 163.6,163.4 163.5,163.4 163.3,163.4 163.2,163.5 163.1,163.5 162.9,163.5 
		162.8,163.5 162.7,163.5 162.7,163.5 162.6,163.5 162.5,163.5 162.5,163.4 162.4,163.4 162.3,163.3 162.3,163.2 162.2,163.1 
		162.2,163 162.1,162.9 162,162.8 161.9,162.7 161.8,162.6 161.7,162.6 161.7,162.5 161.6,162.6 161.6,162.7 161.5,162.8 
		161.5,162.9 161.4,162.9 161.3,163 161.3,163 161.2,163.1 161.2,163.1 161.1,163.1 161,163.2 160.9,163.2 160.8,163.2 160.8,163.2 
		160.7,163.2 160.6,163.1 160.5,163 160.4,163 160.4,162.9 160.3,162.8 160.2,162.7 160.2,162.6 160.1,162.6 160,162.5 160,162.5 
		159.9,162.4 159.8,162.3 159.7,162.3 159.7,162.2 159.6,162.2 159.5,162.1 159.4,162.1 159.4,162.1 159.4,162.2 159.4,162.2 
		159.4,162.2 159.4,162.3 159.4,162.3 159.4,162.3 159.4,162.4 159.4,162.4 159.4,162.5 159.4,162.5 159.4,162.5 159.4,162.5 
		159.4,162.6 159.4,162.6 159.5,162.6 159.6,162.7 159.7,162.8 159.8,162.8 159.9,162.9 159.9,163 160,163.1 160,163.2 160.1,163.3 
		160.2,163.4 160.2,163.5 160.2,163.5 160.2,163.7 160.2,163.8 160.2,163.9 160.2,164.1 	"/>
	<polygon class="st0" points="111,95.3 107.2,95.3 107.2,95.4 107.1,95.4 107,95.4 106.9,95.5 106.8,95.5 106.6,95.6 106.5,95.7 
		106.3,95.7 106.1,95.8 106,96 105.8,96 105.7,96.2 105.6,96.3 105.5,96.4 105.5,96.6 105.5,96.7 105.5,157.7 105.5,158.1 
		105.5,158.6 105.4,159 105.4,159.5 105.3,159.9 105.2,160.4 105.1,160.9 105,161.4 104.9,161.9 104.7,162.4 104.6,162.9 
		104.5,163.4 104.3,163.9 104.1,164.4 103.9,164.9 103.7,165.4 103.1,166.8 102.4,168.1 101.7,169.3 100.9,170.4 100.1,171.5 
		99.2,172.5 98.3,173.4 97.2,174.2 96.2,175 95.1,175.7 93.9,176.3 92.7,176.9 91.4,177.4 90.1,177.7 88.7,178.1 87.3,178.3 
		83.5,178.7 80,178.7 76.8,178.3 73.9,177.5 71.2,176.6 68.9,175.3 66.8,173.8 65,172.2 63.4,170.5 62,168.6 60.9,166.7 60,164.8 
		59.3,163 58.8,161.1 58.5,159.4 58.4,157.8 58.2,97.5 58.2,97.4 58.2,97.3 58.2,97.1 58.2,97 58.1,96.9 58.1,96.8 58,96.7 58,96.6 
		57.9,96.5 57.8,96.4 57.8,96.3 57.7,96.3 57.6,96.2 57.6,96.2 57.5,96.2 57.5,96.1 56.2,96.1 56.1,96.1 56.1,96.1 56.1,96.1 
		56,96.1 56,96.1 55.9,96.1 55.9,96 55.9,96 55.9,96 55.9,96 55.9,95.9 55.9,95.9 55.9,95.8 55.9,95.8 55.9,95.7 55.9,89.9 
		74.1,89.5 74.5,89.9 74.5,95.6 72.6,96.3 72.6,96.3 72.5,96.4 72.4,96.5 72.4,96.5 72.3,96.6 72.2,96.6 72.2,96.6 72.2,96.7 
		72.1,96.7 72.1,96.8 72.1,96.9 72.1,96.9 72,96.9 72,97 72,97.1 72,97.1 72,155.3 72.2,158.1 72.9,160.7 74,162.9 75.4,164.9 
		77.1,166.5 79,167.8 81,168.7 83.2,169.3 85.5,169.5 87.7,169.2 89.8,168.6 91.8,167.5 93.6,165.9 95.2,163.9 96.5,161.4 
		97.3,158.4 97.4,158 97.5,157.6 97.5,157 97.6,156.4 97.6,155.7 97.7,154.9 97.7,153.9 97.7,152.9 97.7,151.9 97.8,150.7 
		97.8,149.4 97.9,148.1 97.9,146.6 97.9,145.1 97.9,143.4 97.9,141.7 97.9,99.1 97.9,98.7 97.9,98.3 97.8,97.9 97.7,97.6 97.7,97.3 
		97.6,97 97.5,96.7 97.4,96.5 97.3,96.3 97.2,96.1 97,96 96.8,95.8 96.7,95.8 96.5,95.7 96.3,95.7 96.1,95.6 92.3,95.6 92.3,90.3 
		92.3,90.2 92.3,90.2 92.3,90.1 92.3,90.1 92.3,90 92.3,90 92.3,89.9 92.3,89.8 92.4,89.8 92.4,89.7 92.4,89.7 92.4,89.7 92.4,89.6 
		92.4,89.6 92.4,89.6 92.4,89.5 110.8,89 110.8,89 110.8,89 110.9,89 110.9,89.1 110.9,89.1 110.9,89.1 110.9,89.1 110.9,89.2 
		110.9,89.2 111,89.2 111,89.2 111,89.3 111,89.3 111,89.3 111,95.3 	"/>
	<polygon class="st0" points="237.7,156 237.5,156.9 237.3,157.9 237,158.9 236.7,159.9 236.3,161 235.8,162.1 235.3,163.1 
		234.8,164.2 234.2,165.3 233.6,166.3 232.9,167.3 232.3,168.2 231.6,169.1 230.9,170 230.1,170.8 229.4,171.5 228.2,172.6 
		227,173.5 225.8,174.3 224.6,175.2 223.4,175.9 222.1,176.5 220.9,177.1 219.6,177.6 218.3,178 217,178.3 215.7,178.6 214.3,178.8 
		212.9,178.9 211.6,179 210.2,178.9 208.8,178.8 208,178.8 207.3,178.6 206.5,178.5 205.7,178.3 204.9,178.2 204.2,178 203.4,177.8 
		202.7,177.5 201.9,177.3 201.2,177 200.4,176.7 199.7,176.4 199,176 198.2,175.7 197.5,175.3 196.8,174.9 196.6,174.8 196.4,174.7 
		196.3,174.6 196.1,174.5 195.9,174.4 195.7,174.3 195.6,174.2 195.4,174.1 195.2,174.1 195.1,174 194.9,174 194.7,173.9 
		194.5,173.8 194.3,173.8 194.1,173.8 193.9,173.8 193.6,173.8 193.4,173.9 193.3,174 193.1,174 192.9,174.1 192.8,174.3 
		192.7,174.5 192.7,174.7 192.7,174.8 192.6,175.1 192.7,175.4 192.7,175.6 192.8,175.9 192.9,176.3 193,176.6 193.1,177 193.1,177 
		193.1,177.1 193.1,177.2 193.1,177.3 193.1,177.3 193.1,177.4 193.1,177.4 193.1,177.5 193.1,177.6 193.1,177.6 193,177.7 
		193,177.8 193,177.8 193,177.9 193,177.9 186.2,177.9 186.1,177.9 186.1,177.8 186.1,177.8 186.1,177.7 186,177.7 186,177.6 
		186,177.6 186,177.5 185.9,177.5 185.9,177.4 185.9,177.3 185.9,177.3 185.9,177.2 185.9,177.1 185.9,177 185.9,177 185.9,155.3 
		192.7,155.3 192.7,155.8 192.7,156.2 192.7,156.7 192.8,157.1 192.8,157.5 192.9,157.9 192.9,158.2 193,158.6 193.1,158.9 
		193.2,159.3 193.3,159.6 193.4,160 193.5,160.3 193.6,160.7 193.8,161 193.9,161.4 194.7,163.1 195.6,164.7 196.8,166.1 
		198.1,167.2 199.5,168.2 201.1,169 202.7,169.6 204.4,170.1 206,170.5 207.7,170.8 209.4,170.9 211,170.9 212.5,170.9 213.9,170.7 
		215.2,170.5 216.2,170.2 217.3,169.8 218.4,169.3 219.6,168.5 220.7,167.6 221.8,166.5 222.8,165.3 223.8,163.9 224.5,162.5 
		225.2,160.8 225.6,159 225.8,157.2 225.7,155.2 225.3,153.2 224.6,151 223.6,148.8 222.1,146.5 220.9,145.2 219.8,143.9 
		218.7,142.6 217.5,141.5 216.2,140.4 215.1,139.3 213.9,138.3 212.7,137.3 211.4,136.3 210.1,135.4 208.9,134.4 207.6,133.6 
		206.4,132.6 205.1,131.7 203.8,130.7 202.6,129.8 200.5,128.3 198.7,126.9 197,125.5 195.4,124.3 194,123.1 192.7,122 191.5,120.9 
		190.5,119.9 189.5,118.8 188.7,117.8 188,116.7 187.3,115.7 186.8,114.6 186.3,113.5 185.8,112.3 185.5,111 185.2,109.6 185,108.1 
		185.1,106.4 185.3,104.8 185.7,103.2 186.2,101.6 186.9,99.9 187.8,98.4 189,96.8 190.2,95.4 191.7,94 193.4,92.8 195.3,91.6 
		197.4,90.6 199.7,89.8 202.3,89.2 203.1,89.1 204,89 204.9,88.9 205.9,88.8 206.9,88.8 207.9,88.8 208.9,88.9 210,89 211.1,89.1 
		212.2,89.3 213.4,89.5 214.6,89.7 215.8,90 217.1,90.3 218.4,90.6 219.7,91 219.8,91.1 219.9,91.1 220.1,91.1 220.2,91.2 
		220.3,91.2 220.5,91.3 220.6,91.3 220.7,91.4 220.9,91.4 221,91.4 221.1,91.5 221.3,91.5 221.4,91.5 221.6,91.5 221.7,91.6 
		221.8,91.6 222,89.9 229,89.9 229,108.8 222.6,109 222.4,106.7 222.4,106 222.3,105.3 222.2,104.6 222,103.9 221.8,103.2 
		221.6,102.7 221.3,102.1 221,101.5 220.6,100.9 220.2,100.4 219.8,99.9 219.3,99.4 218.8,99 218.2,98.5 217.6,98.1 217,97.7 
		215.2,96.9 213.3,96.2 211.5,95.9 209.7,95.8 208,96 206.4,96.4 204.8,96.9 203.4,97.7 202.1,98.6 201.1,99.7 200.2,100.9 
		199.5,102.2 199.1,103.6 199,105.2 199.1,106.8 199.6,108.4 199.8,109 200.1,109.5 200.6,110.1 201,110.7 201.6,111.4 202.2,112.1 
		202.9,112.8 203.7,113.6 204.6,114.3 205.5,115.2 206.5,116 207.6,116.9 208.7,117.8 210,118.7 211.3,119.7 212.7,120.7 
		214.2,121.7 215.6,122.7 216.9,123.7 218.2,124.6 219.4,125.5 220.6,126.4 221.7,127.2 222.7,128 223.7,128.7 224.6,129.4 
		225.4,130.1 226.2,130.8 226.9,131.4 227.6,132 228.2,132.5 228.8,133 229.4,133.6 230,134.3 230.6,135 231.3,135.8 232,136.6 
		232.6,137.5 233.3,138.4 233.9,139.3 234.5,140.2 235,141.1 235.5,141.8 236,142.6 236.4,143.4 236.6,144 236.8,144.5 236.9,145 
		237.1,145.4 237.3,145.9 237.4,146.3 237.6,146.7 237.7,147.2 237.8,147.7 238,148.2 238.1,148.8 238.2,149.4 238.2,150.1 
		238.2,150.9 238.2,151.7 238.2,152.6 238,153.7 237.9,154.7 237.7,156 	"/>
	<polygon class="st0" points="231.1,211.8 231.2,211.5 231.4,211.3 231.5,211.1 231.7,210.9 231.8,210.7 232,210.4 232.1,210.2 
		232.3,210 232.4,209.8 232.5,209.5 232.6,209.3 232.8,209.1 232.9,209 232.9,208.7 233.1,208.6 233.1,208.4 233.2,208.5 
		233.3,208.6 233.3,208.7 233.4,208.9 233.6,209 233.7,209.1 233.8,209.1 233.9,209.3 234,209.4 234.2,209.5 234.3,209.5 
		234.4,209.6 234.6,209.7 234.7,209.8 234.8,209.9 235,209.9 243,212.9 244.2,213.5 245.2,213.8 246.2,214 246.9,214 247.7,213.9 
		248.2,213.7 248.6,213.4 248.9,213.1 249.1,212.6 249.1,212.2 248.9,211.7 248.6,211.3 248.2,210.8 247.6,210.4 246.8,210 
		245.9,209.8 236,207.5 235.9,207.5 235.7,207.4 235.6,207.4 235.5,207.3 235.5,207.3 235.4,207.3 235.2,207.3 235.1,207.3 
		235,207.2 234.8,207.2 234.7,207.2 234.5,207.2 234.3,207.3 234.1,207.3 233.8,207.3 233.6,207.4 234.1,203.3 234.2,203.4 
		234.3,203.5 234.4,203.6 234.6,203.6 234.7,203.7 234.9,203.8 235.1,203.8 235.3,203.8 235.4,203.9 235.6,203.9 235.7,203.9 
		235.9,204 236,204 236.1,204 236.2,204.1 236.3,204.1 238.4,204.5 239.4,204.8 240.4,205 241.3,205.3 242.2,205.5 243,205.7 
		243.8,205.9 244.5,206.1 245.2,206.2 245.8,206.4 246.3,206.6 246.8,206.7 247.3,206.8 247.7,207 248,207 248.3,207.2 248.6,207.2 
		250,207.9 251.3,208.7 252.2,209.7 252.7,210.7 253.1,211.7 253.1,212.8 252.9,213.8 252.6,214.8 251.9,215.6 251.1,216.4 
		250.1,217 248.9,217.4 247.6,217.6 246.1,217.5 244.4,217.1 242.7,216.4 241.4,215.9 240.1,215.4 239,214.9 237.9,214.5 236.9,214 
		235.9,213.6 235.1,213.3 234.2,212.9 233.5,212.7 232.9,212.4 232.4,212.2 231.9,212 231.5,211.9 231.3,211.8 231.1,211.8 
		231.1,211.8 	"/>
	<polygon class="st0" points="41.9,199.1 41.9,198.9 41.9,198.8 42,198.5 42,198.4 42.1,198.2 42.1,197.9 42.1,197.7 42.2,197.5 
		42.2,197.3 42.2,197 42.3,196.8 42.3,196.5 42.3,196.3 42.3,196 42.2,195.7 42.2,195.4 35.7,195.9 35.6,195.9 35.6,196.1 
		35.6,196.3 35.6,196.7 35.6,197.1 35.6,197.5 35.7,198 35.7,198.5 35.8,199.1 35.8,199.7 35.8,200.2 35.9,200.7 36,201.2 36,201.6 
		36.1,202 36.2,202.3 36,202.4 35.9,202.4 35.7,202.5 35.5,202.5 35.3,202.5 35,202.5 34.8,202.5 34.5,202.4 34.3,202.4 34,202.4 
		33.8,202.3 33.5,202.2 33.3,202.2 33.1,202.1 32.9,202 32.7,201.9 32.4,192.2 32.4,192.3 32.5,192.3 32.6,192.3 32.7,192.3 
		32.9,192.3 33,192.3 33.2,192.4 33.4,192.4 33.6,192.4 33.8,192.4 34,192.4 34.1,192.5 34.3,192.5 34.4,192.5 34.6,192.5 
		34.7,192.5 51.9,191.5 52,191.5 52.1,191.5 52.2,191.5 52.3,191.4 52.5,191.4 52.6,191.3 52.8,191.2 52.9,191.1 53.1,191 53.2,191 
		53.4,190.9 53.5,190.8 53.6,190.8 53.6,190.8 53.7,190.8 53.8,190.8 54.1,199.8 53.8,199.9 53.5,200 53.3,200.1 53,200.1 
		52.7,200.2 52.5,200.2 52.2,200.3 52,200.3 51.8,200.3 51.6,200.4 51.4,200.4 51.2,200.5 51,200.5 50.8,200.5 50.6,200.6 
		50.4,200.6 50.5,200.5 50.5,200.5 50.5,200.3 50.6,200.3 50.6,200.2 50.7,200.2 50.7,200.1 50.7,200 50.7,199.9 50.7,199.8 
		50.7,199.8 50.7,199.7 50.7,199.6 50.7,199.6 50.7,199.5 50.8,199.4 50.7,195.1 45.6,195.1 45.5,195.5 45.5,195.7 45.5,196 
		45.5,196.2 45.5,196.5 45.5,196.8 45.5,197 45.5,197.2 45.6,197.4 45.6,197.6 45.6,197.8 45.7,198 45.7,198.2 45.7,198.3 
		45.7,198.5 45.8,198.6 45.7,198.7 45.6,198.7 45.5,198.7 45.4,198.7 45.2,198.7 45,198.8 44.8,198.8 44.5,198.8 44.2,198.9 
		44,198.9 43.7,198.9 43.3,199 43,199.1 42.6,199.1 42.3,199.1 41.9,199.1 	"/>
	<polygon class="st0" points="241.2,185.8 241.2,185.6 241.2,185.3 241.1,185 241.1,184.8 241,184.6 241,184.4 241,184.2 240.9,184 
		240.8,183.8 240.8,183.5 240.8,183.4 240.8,183.1 240.8,182.9 240.8,182.7 240.8,182.4 240.8,182.1 241.2,182 241.5,181.9 
		241.7,181.8 242,181.7 242.3,181.7 242.5,181.6 242.7,181.6 242.9,181.5 243.1,181.5 243.3,181.5 243.5,181.5 243.6,181.5 
		243.8,181.6 244,181.6 244.1,181.6 244.4,181.6 244.3,181.9 244.2,182.2 244.1,182.4 244.1,182.7 244.1,182.9 244,183.2 244,183.4 
		244,183.7 244,183.9 244,184.2 244,184.5 244.1,184.7 244.1,185 244.2,185.3 244.3,185.6 244.4,185.8 244.8,185.8 245.2,185.8 
		245.7,185.8 246.2,185.8 246.8,185.8 247.3,185.8 247.8,185.7 248.4,185.7 248.9,185.6 249.4,185.6 249.9,185.5 250.4,185.4 
		250.7,185.4 251.1,185.3 251.4,185.2 251.6,185.1 251.5,184.5 251.5,184 251.4,183.5 251.4,183 251.3,182.6 251.3,182.2 
		251.3,181.8 251.2,181.5 251.1,181.1 251.1,180.8 251,180.5 251,180.3 250.9,180.1 250.9,179.9 250.8,179.7 250.8,179.6 
		250.9,179.6 251.1,179.6 251.3,179.6 251.5,179.6 251.8,179.6 252,179.7 252.3,179.7 252.6,179.7 252.8,179.8 253.1,179.9 
		253.4,179.9 253.7,180 254,180.1 254.2,180.2 254.4,180.3 254.7,180.4 254.6,189.9 254.5,189.8 254.3,189.6 254.2,189.5 
		254.1,189.4 254,189.2 253.8,189.1 253.7,189 253.6,188.9 253.4,188.9 253.3,188.8 253.1,188.7 253,188.7 252.8,188.6 252.6,188.6 
		252.4,188.5 252.2,188.5 236.7,189.2 236.5,189.2 236.3,189.2 236.1,189.2 236,189.3 235.8,189.4 235.6,189.4 235.5,189.5 
		235.3,189.6 235.1,189.7 234.9,189.8 234.7,189.9 234.6,190 234.5,190.1 234.3,190.2 234.2,190.3 234,190.4 233.5,179.5 
		233.7,179.4 233.9,179.4 234.1,179.3 234.4,179.3 234.6,179.2 234.9,179.2 235.2,179.1 235.5,179.1 235.8,179 236.1,179 
		236.4,178.9 236.6,178.9 236.9,178.8 237.2,178.8 237.4,178.8 237.6,178.8 237.6,178.9 237.5,179.1 237.4,179.2 237.4,179.2 
		237.4,179.3 237.3,179.4 237.3,179.5 237.2,179.6 237.2,179.7 237.1,179.7 237.1,179.8 237.1,179.9 237,180 237,180.1 237,180.2 
		237,180.2 236.9,180.5 236.9,180.8 236.8,181.1 236.8,181.3 236.8,181.7 236.8,182 236.8,182.3 236.8,182.6 236.8,183 236.9,183.4 
		236.9,183.7 237,184.1 237.1,184.5 237.2,184.9 237.3,185.4 237.5,185.8 241.2,185.8 	"/>
	<polygon class="st0" points="230.8,212.1 231,212.3 231.3,212.4 231.5,212.5 231.7,212.6 231.9,212.7 232,212.8 232.2,212.9 
		232.4,212.9 232.6,213.1 232.7,213.2 232.8,213.3 232.9,213.4 233.1,213.5 233.3,213.6 233.4,213.7 233.5,213.8 233.4,214 
		233.3,214.1 233.2,214.2 233.1,214.3 232.9,214.5 232.8,214.6 232.7,214.8 232.6,215 232.5,215.1 232.4,215.3 232.3,215.5 
		232.2,215.6 232.1,215.8 232,216 232,216.1 232,216.3 233,217.2 234,218 235,218.9 236,219.7 237,220.5 238,221.3 239,222.1 
		239.9,222.8 240.8,223.5 241.7,224.2 242.5,224.8 243.3,225.3 244,225.8 244.7,226.2 245.3,226.6 245.8,226.8 243.4,230.3 
		243.3,230.1 243.1,229.9 243,229.6 242.8,229.3 242.6,229 242.3,228.7 242.1,228.5 241.8,228.1 241.5,227.8 241.2,227.5 
		240.8,227.1 240.5,226.8 240.1,226.5 239.7,226.1 239.2,225.8 238.8,225.4 232,219.8 230.2,218.2 229.9,218.4 229.7,218.7 
		229.5,218.9 229.3,219.1 229.1,219.3 228.9,219.5 228.8,219.7 228.6,219.9 228.5,220.1 228.3,220.2 228.3,220.4 228.1,220.6 
		228.1,220.7 228,220.9 227.9,221.1 227.8,221.2 227.6,221 227.4,220.7 227.2,220.5 227,220.3 226.9,220.1 226.7,219.9 226.6,219.7 
		226.4,219.5 226.3,219.4 226.2,219.2 226.1,219.1 226.1,218.9 226,218.8 225.9,218.7 225.9,218.7 225.9,218.6 226,218.5 
		226.2,218.3 226.3,218 226.6,217.8 226.8,217.4 227.2,217 227.5,216.6 227.8,216.1 228.2,215.7 228.5,215.2 228.9,214.7 
		229.3,214.2 229.7,213.6 230.1,213.1 230.4,212.6 230.8,212.1 	"/>
	<polygon class="st0" points="230,232.8 224.3,223.1 224.3,223.1 224.2,223 224.1,222.9 224,222.8 223.8,222.6 223.7,222.4 
		223.5,222.3 223.4,222.1 223.1,222 223,221.9 222.8,221.7 222.6,221.5 222.4,221.4 222.2,221.4 222.1,221.2 221.9,221.2 222.1,221 
		222.3,220.8 222.5,220.6 222.7,220.5 222.9,220.3 223.1,220.1 223.4,219.9 223.6,219.7 223.8,219.6 224.1,219.4 224.3,219.2 
		224.5,219.1 224.8,218.9 225,218.8 225.2,218.7 225.4,218.6 225.4,218.8 225.4,219 225.5,219.2 225.6,219.4 225.6,219.6 
		225.8,219.8 225.8,220 225.9,220.3 226.1,220.5 226.2,220.7 226.3,221 226.5,221.3 226.7,221.6 226.8,221.9 227,222.1 227.2,222.4 
		234.2,233.3 237.8,230.8 237.8,230.7 237.9,230.7 238,230.6 238.1,230.5 238.2,230.4 238.2,230.3 238.3,230.3 238.4,230.1 
		238.5,230 238.5,229.9 238.6,229.8 238.7,229.6 238.8,229.5 238.8,229.4 238.9,229.2 239,229 239.2,229.3 239.4,229.5 239.6,229.7 
		239.7,229.9 239.9,230.1 240,230.4 240.1,230.6 240.2,230.8 240.3,231 240.4,231.3 240.4,231.5 240.5,231.8 240.5,232 240.5,232.2 
		240.5,232.5 240.5,232.7 239.7,233.4 238.9,234.1 238.2,234.6 237.4,235.2 236.8,235.7 236.2,236.1 235.6,236.6 235.1,237 
		234.7,237.3 234.2,237.6 233.9,237.8 233.6,238.1 233.3,238.2 233.1,238.3 232.9,238.4 232.8,238.4 230,232.8 	"/>
	<polygon class="st0" points="191.8,38.1 192,38 192.3,38 192.6,38 192.9,38.1 193.3,38.1 193.7,38.2 194.1,38.4 194.5,38.5 
		194.9,38.6 195.3,38.8 195.6,39 196,39.3 196.3,39.5 196.6,39.8 196.8,40.2 197,40.5 201.7,53.6 205,44.9 205,44.9 205,44.8 
		205.1,44.7 205.1,44.6 205.1,44.5 205.2,44.5 205.2,44.4 205.2,44.3 205.2,44.2 205.2,44.1 205.2,44 205.3,44 205.3,43.9 
		205.3,43.8 205.3,43.7 205.3,43.6 205.3,41.6 208.9,43 203.3,62.3 203.2,62.3 203.1,62.3 202.9,62.3 202.8,62.3 202.6,62.2 
		202.4,62.2 202.2,62.1 202.1,62.1 201.9,62 201.7,61.9 201.5,61.9 201.2,61.8 201,61.7 200.8,61.6 200.5,61.5 200.3,61.4 
		193.3,40.7 193.3,40.7 193.3,40.5 193.2,40.4 193.2,40.3 193.1,40.2 193.1,40 193,39.8 192.9,39.6 192.8,39.4 192.7,39.2 192.5,39 
		192.4,38.8 192.3,38.6 192.1,38.4 191.9,38.2 191.8,38.1 	"/>
	<polygon class="st0" points="89.3,246.2 84.9,245.4 85,245.3 85.1,245.1 85.2,245 85.3,244.9 85.4,244.8 85.5,244.6 85.6,244.5 
		85.6,244.3 85.7,244.2 85.7,244 85.8,243.9 85.9,243.8 85.9,243.6 86,243.4 86,243.3 86,243.1 86.9,235.9 82.7,244.7 81.1,235.1 
		80.1,242.3 80.1,242.5 80.1,242.6 80.1,242.8 80.1,242.9 80.1,243.1 80.1,243.3 80.1,243.4 80.1,243.5 80.1,243.7 80.1,243.8 
		80.2,244 80.2,244.2 80.3,244.3 80.3,244.4 80.4,244.5 80.5,244.7 76.1,244 76.2,243.9 76.3,243.8 76.4,243.7 76.5,243.5 
		76.6,243.4 76.6,243.3 76.7,243.1 76.7,243 76.7,242.8 76.8,242.6 76.8,242.5 76.8,242.3 76.9,242.1 76.9,242 76.9,241.8 77,241.6 
		77,241.5 77.1,241.2 77.1,240.8 77.2,240.4 77.3,239.9 77.4,239.3 77.5,238.7 77.6,237.9 77.8,237.1 77.9,236.1 78.1,235.1 
		78.3,234 78.5,232.8 78.7,231.5 78.9,230 79.1,228.5 79.2,228 79.3,227.6 79.3,227.2 79.3,226.8 79.3,226.4 79.3,226.1 79.3,225.8 
		79.3,225.5 79.3,225.2 79.3,225 79.2,224.8 79.1,224.5 79.1,224.4 79,224.2 79,224 78.9,223.8 82.7,224.6 83.9,233.6 87.6,225.3 
		92,225.7 91.9,225.9 91.8,226 91.7,226.2 91.6,226.3 91.5,226.4 91.5,226.6 91.4,226.7 91.3,226.9 91.2,227 91.1,227.2 91.1,227.3 
		91,227.5 90.9,227.6 90.9,227.7 90.9,227.8 90.9,227.9 90,236.3 89.8,237.4 89.7,238.4 89.6,239.3 89.5,240.2 89.4,241.1 
		89.3,241.8 89.3,242.5 89.3,243.2 89.2,243.8 89.2,244.3 89.2,244.8 89.2,245.2 89.2,245.5 89.2,245.8 89.2,246 89.3,246.2 	"/>
	<polygon class="st0" points="154.7,54 154.1,54 153.5,54 152.9,53.9 152.3,53.8 151.7,53.7 151.1,53.5 150.5,53.3 150,53.1 
		149.4,52.8 148.8,52.4 148.2,52 147.7,51.6 147.1,51.2 146.5,50.7 145.9,50.1 145.3,49.5 145.4,49.2 145.4,48.9 145.5,48.6 
		145.6,48.4 145.7,48.2 145.8,47.9 145.9,47.7 146.1,47.5 146.2,47.3 146.4,47.2 146.6,47 146.8,46.8 147,46.7 147.3,46.6 
		147.5,46.5 147.8,46.5 148.1,46.4 148.2,46.9 148.3,47.4 148.4,47.8 148.7,48.2 148.9,48.6 149.1,48.9 149.5,49.2 149.7,49.5 
		150,49.7 150.4,49.9 150.7,50.1 151.1,50.2 151.5,50.4 151.9,50.5 152.3,50.5 152.6,50.6 153.2,50.7 153.7,50.7 154.2,50.7 
		154.7,50.6 155.1,50.5 155.6,50.3 156,50.1 156.3,49.8 156.7,49.6 157,49.3 157.3,49 157.5,48.7 157.7,48.4 157.9,48.2 158,47.9 
		158.1,47.7 158.2,47.2 158.3,46.7 158.3,46.3 158.3,45.9 158.2,45.5 158.1,45.1 157.9,44.7 157.7,44.4 157.5,44.1 157.2,43.8 
		156.8,43.6 156.5,43.4 156.1,43.2 155.6,43 155.1,42.9 154.6,42.7 152.5,42.3 152.1,42.2 151.8,42.2 151.4,42.1 151,42 150.7,41.9 
		150.4,41.8 150.1,41.8 149.8,41.7 149.6,41.7 149.4,41.6 149.2,41.6 149,41.5 148.9,41.4 148.7,41.4 148.6,41.3 148.6,41.3 
		148.1,41 147.8,40.7 147.4,40.5 147.2,40.2 146.9,39.9 146.7,39.6 146.5,39.2 146.4,38.9 146.3,38.5 146.2,38.1 146.1,37.7 
		146.1,37.3 146.2,37 146.3,36.5 146.4,36.1 146.5,35.6 146.9,34.6 147.5,33.8 148.2,33.2 148.9,32.7 149.8,32.3 150.7,32.1 
		151.6,32 152.5,32 153.5,32.1 154.5,32.3 155.4,32.6 156.3,32.9 157.2,33.4 157.9,33.9 158.6,34.4 159.1,35 159.3,35.2 159.5,35.4 
		159.5,35.6 159.5,35.8 159.4,36.1 159.3,36.3 159.1,36.5 158.9,36.7 158.6,36.9 158.4,37.1 158.1,37.3 157.9,37.4 157.7,37.6 
		157.5,37.7 157.3,37.7 157.2,37.8 156.8,37.1 156.4,36.6 155.9,36.1 155.3,35.7 154.7,35.4 154,35.2 153.3,35.1 152.6,35 152,35.1 
		151.4,35.2 150.8,35.4 150.3,35.7 149.9,36 149.6,36.5 149.5,37 149.5,37.6 149.6,37.7 149.8,37.9 150,38 150.1,38.1 150.3,38.3 
		150.5,38.4 150.7,38.5 150.9,38.6 151.1,38.8 151.3,38.8 151.6,38.9 151.8,39 152.1,39.1 152.4,39.1 152.7,39.3 153,39.3 155,39.6 
		156.7,40.2 158.1,40.8 159.3,41.7 160.2,42.7 160.8,43.7 161.2,44.9 161.4,46.1 161.3,47.4 161.1,48.6 160.6,49.7 160,50.8 
		159.2,51.8 158.3,52.6 157.2,53.3 156,53.8 154.7,54 	"/>
	<polygon class="st0" points="116.5,55.9 115.9,56 115.3,56 114.8,56 114.2,56 113.6,55.9 113,55.8 112.4,55.6 111.7,55.4 
		111.2,55.2 110.5,54.9 109.9,54.6 109.3,54.2 108.7,53.8 108,53.4 107.4,52.9 106.8,52.4 106.8,52 106.8,51.8 106.8,51.5 
		106.9,51.3 107,51 107.1,50.8 107.2,50.6 107.3,50.3 107.4,50.1 107.6,50 107.8,49.8 108,49.6 108.2,49.5 108.4,49.3 108.7,49.2 
		108.9,49.1 109.2,49 109.3,49.5 109.5,50 109.7,50.4 110,50.8 110.2,51.1 110.5,51.4 110.8,51.7 111.1,51.9 111.5,52.1 111.9,52.3 
		112.2,52.4 112.6,52.5 113,52.6 113.4,52.7 113.8,52.7 114.2,52.7 114.7,52.8 115.2,52.7 115.7,52.6 116.2,52.5 116.6,52.3 
		117,52.1 117.4,51.9 117.8,51.6 118.1,51.3 118.4,51 118.6,50.6 118.8,50.3 119,50.1 119.1,49.7 119.3,49.5 119.3,49.2 119.3,48.8 
		119.3,48.3 119.3,47.9 119.3,47.4 119.1,47 119,46.7 118.8,46.4 118.6,46.1 118.3,45.8 118,45.6 117.6,45.4 117.2,45.2 116.8,45 
		116.3,44.9 115.8,44.8 115.3,44.7 113.2,44.5 112.8,44.5 112.4,44.5 112,44.4 111.7,44.4 111.4,44.3 111,44.3 110.7,44.2 
		110.5,44.2 110.2,44.2 110,44.1 109.8,44.1 109.6,44.1 109.4,44 109.3,44 109.2,44 109.1,43.9 108.7,43.7 108.3,43.5 108,43.2 
		107.6,43 107.4,42.7 107.1,42.3 106.9,42.1 106.7,41.7 106.5,41.4 106.5,41 106.4,40.6 106.4,40.2 106.3,39.8 106.4,39.4 
		106.4,38.9 106.5,38.4 106.9,37.5 107.3,36.6 107.9,35.9 108.6,35.3 109.4,34.9 110.3,34.5 111.2,34.3 112.1,34.2 113.1,34.2 
		114.1,34.3 115.1,34.5 116,34.8 116.8,35.1 117.7,35.5 118.4,36 119,36.5 119.3,36.7 119.4,36.9 119.4,37.1 119.4,37.3 119.4,37.6 
		119.3,37.8 119.1,38 118.9,38.2 118.7,38.5 118.5,38.7 118.2,38.9 118,39.1 117.8,39.3 117.6,39.4 117.5,39.5 117.3,39.5 117,38.9 
		116.4,38.4 115.9,38 115.3,37.7 114.6,37.4 113.9,37.3 113.2,37.2 112.5,37.2 111.9,37.3 111.3,37.5 110.7,37.8 110.3,38.1 
		110,38.5 109.7,39 109.6,39.5 109.7,40 109.8,40.2 110,40.4 110.2,40.5 110.3,40.6 110.5,40.7 110.7,40.8 110.9,40.9 111.2,41 
		111.4,41.1 111.6,41.2 111.9,41.2 112.1,41.3 112.4,41.3 112.7,41.4 113,41.4 113.4,41.4 115.3,41.6 117.1,41.9 118.6,42.4 
		119.8,43.1 120.8,44 121.6,45 122.1,46.2 122.4,47.4 122.5,48.6 122.3,49.8 122,51 121.5,52.2 120.8,53.3 120,54.2 118.9,54.9 
		117.8,55.6 116.5,55.9 	"/>
	<polygon class="st0" points="135.7,36.6 133.9,36.1 133.7,36.1 133.4,36.1 133.2,36.1 133,36.1 132.8,36.1 132.6,36.1 132.4,36.1 
		132.1,36.1 131.9,36.2 131.7,36.2 131.5,36.2 131.3,36.3 131.1,36.3 130.9,36.4 130.7,36.5 130.5,36.5 130.3,52 130.3,52 130.3,52 
		130.3,52 130.3,52.1 130.3,52.1 130.3,52.1 130.3,52.2 130.3,52.2 130.3,52.2 130.3,52.3 130.3,52.3 130.3,52.3 130.4,52.3 
		130.7,53.3 126.6,54 127,53 127,53 127,53 127,53 127,52.9 127,52.9 127,52.9 127,52.9 127,52.9 127,52.8 127,52.8 127,52.8 
		127,52.8 127.1,52.7 127.3,36.7 127.1,36.6 126.9,36.5 126.7,36.5 126.4,36.4 126.1,36.4 125.8,36.4 125.5,36.3 125.2,36.3 
		124.9,36.3 124.5,36.4 124.2,36.4 123.8,36.4 123.5,36.5 123.1,36.5 122.7,36.6 122.3,36.6 122.2,36.6 122.2,36.6 122.1,36.7 
		122,36.7 121.8,36.8 121.8,36.8 121.7,36.9 121.6,36.9 121.5,37 121.4,37 121.3,37.1 121.2,37.1 121.1,37.2 121,37.3 120.9,37.3 
		120.9,37.3 120.9,33.8 135.8,33 135.7,36.6 	"/>
	<polygon class="st0" points="220.4,242.1 220.1,242.1 219.7,242 219.4,241.9 219.1,241.7 218.8,241.6 218.5,241.4 218.2,241.1 
		217.9,240.9 217.7,240.6 217.5,240.3 217.2,240 217,239.6 216.8,239.2 216.7,238.8 216.5,238.3 216.4,237.9 216.2,237.5 
		216.1,237.1 216.1,236.7 215.9,236.3 215.9,235.9 215.7,235.5 215.6,235.1 215.5,234.7 215.4,234.4 215.3,234 215.2,233.6 
		215.2,233.2 215.1,232.8 215,232.4 214.9,232 214.8,231.6 214.6,230.9 214.5,230.2 214.3,229.5 214.2,228.9 214.1,228.4 
		213.9,227.9 213.8,227.4 213.7,227 213.6,226.6 213.6,226.3 213.5,226 213.4,225.8 213.4,225.7 213.3,225.5 213.3,225.4 
		213.3,225.3 213.2,225.3 213.2,225.2 213.1,225 213.1,224.9 213.1,224.9 213,224.8 213,224.7 213,224.6 212.9,224.5 212.8,224.4 
		212.8,224.3 212.7,224.2 212.6,224 212.4,223.9 212.3,223.8 212.1,223.7 216,222.5 215.9,222.6 215.9,222.8 215.9,223 215.9,223.1 
		215.9,223.3 215.9,223.4 215.9,223.5 215.9,223.7 216,223.8 216,224 216,224.1 216.1,224.2 216.1,224.4 216.1,224.5 216.2,224.7 
		216.2,224.8 216.4,225.6 216.6,226.4 216.8,227.1 217,227.8 217.1,228.4 217.3,229.1 217.4,229.8 217.6,230.4 217.8,231.1 
		217.9,231.9 218.2,232.7 218.4,233.5 218.7,234.5 219,235.5 219.4,236.6 219.9,237.8 220,238.1 220.2,238.2 220.4,238.4 
		220.7,238.6 220.9,238.7 221.3,238.8 221.6,238.8 221.8,238.8 222.2,238.7 222.4,238.6 222.7,238.4 222.9,238.1 223,237.8 
		223.1,237.3 223.1,236.8 223.1,236.2 223.1,236.1 222.9,235.7 222.7,235.1 222.5,234.3 222.2,233.4 221.9,232.4 221.6,231.3 
		221.2,230.2 220.8,229.1 220.5,228 220.2,227 219.9,226.1 219.6,225.3 219.4,224.7 219.3,224.3 219.2,224.1 219.1,224 219,223.9 
		218.9,223.8 218.9,223.7 218.8,223.5 218.8,223.4 218.7,223.3 218.7,223.2 218.6,223.1 218.5,222.9 218.4,222.8 218.3,222.7 
		218.2,222.5 218,222.4 217.9,222.2 217.7,222.1 221.3,221 222,223.3 222.7,225.2 223.4,227.1 223.9,228.7 224.4,230.1 224.8,231.4 
		225.2,232.6 225.4,233.6 225.7,234.5 225.9,235.3 226,236 226.1,236.6 226.2,237 226.2,237.5 226.2,237.9 226.2,238.2 226.1,238.8 
		225.8,239.4 225.6,239.9 225.3,240.3 224.9,240.7 224.5,241.1 224.1,241.4 223.7,241.6 223.3,241.8 222.9,242 222.4,242.1 
		222,242.1 221.5,242.2 221.1,242.2 220.8,242.2 220.4,242.1 	"/>
	<polygon class="st0" points="226.1,64.5 226.3,64.6 226.6,64.7 226.8,64.8 227.1,64.9 227.2,65 227.4,65.2 227.6,65.3 227.7,65.4 
		227.9,65.6 228,65.7 228.1,65.9 228.2,66 228.3,66.2 228.5,66.4 228.6,66.5 228.7,66.7 228.8,66.9 228.8,67.3 228.6,67.6 228.4,68 
		228,68.4 227.5,68.8 226.9,69.2 226.3,69.6 225.5,69.8 224.8,70 223.9,70.1 223.1,70.1 222.1,69.9 221.2,69.6 220.2,69.1 
		219.3,68.3 218.8,67.9 218.3,67.4 217.9,66.9 217.5,66.4 217.1,65.9 216.8,65.4 216.5,64.9 216.3,64.3 216.1,63.7 215.9,63.1 
		215.7,62.5 215.5,61.9 215.4,61.2 215.3,60.5 215.3,59.8 215.3,59.1 215.4,56.7 215.7,54.6 216.2,52.8 217,51.3 217.8,50.1 
		218.7,49.1 219.7,48.4 220.8,47.9 221.9,47.7 223,47.7 224.1,47.8 225.2,48.1 226.1,48.6 227,49.3 227.7,50.1 228.3,51.1 
		228.1,51.4 228,51.7 227.8,52 227.6,52.3 227.4,52.6 227.3,52.8 227.1,53.1 226.9,53.3 226.8,53.5 226.6,53.7 226.4,53.8 
		226.2,53.9 226.1,54.1 225.9,54.2 225.7,54.3 225.5,54.4 225.4,53.4 225.2,52.6 224.9,51.9 224.4,51.4 223.9,51.1 223.2,50.9 
		222.6,51 221.9,51.1 221.3,51.6 220.6,52.2 220,53 219.5,54 219.1,55.3 218.8,56.7 218.7,58.5 218.8,60.4 219,61.8 219.4,63 
		219.8,64 220.4,64.8 220.9,65.4 221.6,65.9 222.2,66.3 222.8,66.5 223.4,66.7 224,66.7 224.6,66.6 225.1,66.4 225.5,66.2 
		225.8,65.9 226,65.5 226.1,65.1 226.1,64.5 	"/>
	<polygon class="st0" points="105.6,227.4 107.4,227.6 107.5,227.7 107.5,227.7 107.6,227.7 107.7,227.7 107.7,227.7 107.8,227.7 
		107.9,227.8 108,227.8 108,227.8 108.1,227.8 108.2,227.8 108.3,227.9 108.3,227.9 108.4,227.9 108.5,227.9 108.7,227.9 
		113.5,241.8 114,229.4 114,229.3 114,229.3 114,229.1 114,229.1 113.9,229 113.9,228.9 113.9,228.8 113.9,228.7 113.9,228.6 
		113.9,228.6 113.9,228.5 113.8,228.4 113.8,228.3 113.8,228.2 113.7,228.2 113.7,228.1 114.7,228.2 114.8,228.2 115.1,228.3 
		115.2,228.3 115.4,228.3 115.6,228.4 115.8,228.4 115.9,228.4 116.1,228.4 116.3,228.4 116.5,228.5 116.6,228.5 116.8,228.6 
		117,228.7 117.1,228.7 117.2,228.9 117.4,229 117.1,231 117,233.1 116.8,234.9 116.8,236.5 116.7,238.1 116.6,239.5 116.5,240.9 
		116.4,242.1 116.3,243.3 116.2,244.4 116.2,245.4 116.1,246.2 116.1,247 115.9,247.7 115.9,248.3 115.8,248.8 115.8,249.2 
		115.7,249.5 115.3,249.5 115,249.5 114.7,249.5 114.4,249.5 114.2,249.4 114,249.4 113.8,249.4 113.7,249.4 113.5,249.3 
		113.3,249.2 113.2,249.2 113,249.1 112.9,249 112.8,249 112.6,248.9 112.5,248.8 111.5,246.5 111.2,245.8 111,245.1 110.7,244.4 
		110.5,243.8 110.3,243.2 110.1,242.7 109.8,242.2 109.7,241.6 109.4,241.2 109.3,240.8 109.1,240.4 109,240 108.9,239.7 
		108.7,239.4 108.6,239.1 108.5,238.9 107.9,248.4 107.6,248.4 107.4,248.4 107.1,248.4 106.9,248.4 106.6,248.4 106.4,248.4 
		106.1,248.4 105.8,248.4 105.6,248.3 105.4,248.3 105.1,248.3 104.9,248.2 104.7,248.2 104.5,248.1 104.3,248 104.1,247.9 
		104.2,247.9 104.3,247.7 104.4,247.6 104.5,247.3 104.6,247 104.6,246.7 104.7,246.3 104.8,245.9 104.9,245.5 104.9,245.1 
		105,244.6 105.1,244 105.1,243.5 105.2,242.9 105.3,242.3 105.4,241.6 105.5,240.1 105.6,238.7 105.7,237.4 105.8,236.1 105.9,235 
		106,234 106,233 106.1,232.1 106.1,231.4 106.1,230.7 106.1,230.1 106.1,229.5 106.1,229.1 106.1,228.7 106,228.5 106,228.2 
		106,228.2 106,228.1 106,228.1 106,228 106,228 106,227.9 105.9,227.9 105.9,227.8 105.9,227.8 105.8,227.7 105.8,227.6 
		105.8,227.6 105.7,227.6 105.6,227.5 105.6,227.5 105.6,227.4 	"/>
	<polygon class="st0" points="92.8,59.4 92.9,59.2 93.1,59 93.1,58.9 93.3,58.8 93.3,58.6 93.4,58.5 93.4,58.4 93.5,58.2 93.5,58.1 
		93.6,58 93.6,57.8 93.6,57.7 93.6,57.6 93.6,57.4 93.6,57.3 93.6,57.2 93.6,41.1 93.6,41 93.6,40.8 93.6,40.7 93.6,40.5 93.5,40.4 
		93.5,40.2 93.5,40.1 93.4,40 93.3,39.8 93.3,39.7 93.1,39.6 93.1,39.5 92.9,39.3 92.8,39.3 92.6,39.1 92.4,39 103.8,36.4 
		103.8,36.6 103.8,36.7 103.8,36.9 103.8,37.1 103.9,37.3 103.9,37.5 103.9,37.7 104,37.9 104,38 104,38.3 104,38.5 104.1,38.8 
		104.1,39 104.2,39.2 104.2,39.5 104.2,39.7 104.2,39.7 104.2,39.7 104.1,39.7 104,39.6 103.9,39.6 103.8,39.6 103.7,39.6 
		103.6,39.6 103.5,39.6 103.4,39.6 103.3,39.6 103.2,39.6 103.2,39.6 103.1,39.6 103.1,39.6 102.6,39.6 102.2,39.6 101.8,39.6 
		101.4,39.6 101.1,39.6 100.8,39.6 100.4,39.7 100.1,39.8 99.8,39.8 99.4,40 99,40.1 98.6,40.2 98.2,40.4 97.7,40.6 97.2,40.8 
		96.6,41 96.6,44.6 96.8,44.7 97,44.7 97.3,44.7 97.6,44.6 97.9,44.6 98.2,44.5 98.5,44.5 98.8,44.4 99.1,44.3 99.5,44.2 99.8,44.1 
		100.1,44 100.4,43.9 100.7,43.8 101,43.7 101.3,43.6 101.3,43.6 101.4,43.7 101.4,43.8 101.5,43.9 101.5,44 101.5,44.2 101.6,44.4 
		101.7,44.6 101.7,44.8 101.8,45 101.9,45.3 101.9,45.6 101.9,45.9 102,46.3 102.1,46.6 102.2,47 101.7,47 101.3,47.1 100.9,47.1 
		100.4,47.2 100.1,47.2 99.7,47.3 99.3,47.4 99,47.4 98.6,47.5 98.3,47.6 97.9,47.7 97.6,47.9 97.3,48 97.1,48.2 96.8,48.3 
		96.6,48.5 96.6,49.2 96.6,49.8 96.6,50.4 96.6,50.9 96.6,51.4 96.6,51.9 96.6,52.3 96.6,52.7 96.6,53 96.6,53.4 96.7,53.7 96.7,54 
		96.7,54.3 96.7,54.6 96.7,54.9 96.8,55.1 97.2,55.1 97.6,55.1 98.1,54.9 98.6,54.8 99,54.7 99.6,54.6 100.1,54.4 100.7,54.2 
		101.2,54 101.8,53.8 102.4,53.7 103,53.5 103.5,53.4 104.1,53.2 104.6,53.1 105.2,53 105.2,53.4 105.2,53.8 105.1,54.2 105.1,54.6 
		105.1,54.9 105,55.2 105,55.5 104.9,55.8 104.8,56 104.7,56.2 104.6,56.4 104.5,56.5 104.4,56.7 104.2,56.7 104.1,56.8 104,56.9 
		92.8,59.4 	"/>
	<polygon class="st0" points="176.6,51.6 175.1,55.3 174.5,55.3 173.8,55.2 173.2,55.1 172.4,54.9 171.7,54.8 170.9,54.7 
		170.1,54.6 169.4,54.4 168.6,54.2 167.8,54.1 167.1,53.9 166.3,53.8 165.6,53.6 165,53.4 164.4,53.3 163.8,53.1 164.5,51.1 
		164.5,51.1 164.5,51 164.5,51 164.5,51 164.5,51 164.5,50.9 164.5,50.9 164.5,50.9 164.5,50.8 164.5,50.8 164.5,50.8 164.5,50.7 
		164.5,50.7 164.5,50.6 164.6,50.6 164.9,36.5 164.8,36.4 164.8,36.3 164.8,36.2 164.8,36.2 164.8,36.1 164.8,36.1 164.8,35.9 
		164.8,35.9 164.8,35.8 164.7,35.7 164.7,35.7 164.7,35.6 164.7,35.5 164.7,35.4 164.6,35.4 164.6,35.3 164.1,33.8 164.5,33.8 
		165.1,33.9 165.8,33.9 166.5,34 167.4,34.1 168.3,34.2 169.2,34.3 170.2,34.4 171.2,34.5 172.1,34.6 173,34.8 173.9,34.9 
		174.7,35.1 175.3,35.2 175.8,35.4 176.3,35.5 176.6,38.9 173.8,37.8 173.4,37.7 173,37.7 172.5,37.6 172,37.6 171.6,37.5 
		171.1,37.5 170.7,37.4 170.2,37.4 169.8,37.3 169.5,37.3 169.1,37.3 168.8,37.3 168.5,37.3 168.3,37.4 168.1,37.5 168.1,37.5 
		168.1,41.3 168.3,41.3 168.5,41.4 168.8,41.4 169,41.4 169.3,41.5 169.6,41.6 169.9,41.6 170.1,41.6 170.5,41.6 170.7,41.6 
		171,41.6 171.4,41.6 171.6,41.6 172,41.6 172.3,41.6 172.6,41.4 172.5,44.7 172.2,44.7 171.9,44.6 171.6,44.6 171.3,44.5 171,44.5 
		170.7,44.4 170.4,44.3 170.1,44.3 169.9,44.3 169.6,44.2 169.4,44.2 169.1,44.2 168.9,44.1 168.6,44.1 168.4,44.2 168.2,44.2 
		168.1,44.6 168.1,45 168.1,45.4 168,45.8 168,46.2 168,46.6 168,47 168,47.4 168,47.8 168,48.2 168,48.6 168,49 168.1,49.4 
		168.1,49.8 168.1,50.2 168.2,50.7 168.3,50.7 168.5,50.8 168.7,50.9 168.9,50.9 169.1,51 169.3,51 169.6,51.1 169.9,51.1 
		170.1,51.2 170.5,51.3 170.7,51.4 171.1,51.4 171.4,51.5 171.8,51.6 172.1,51.6 172.6,51.7 172.8,51.7 173,51.8 173.3,51.8 
		173.6,51.8 173.8,51.8 174.1,51.8 174.3,51.8 174.6,51.8 174.8,51.7 175,51.7 175.3,51.7 175.5,51.7 175.8,51.7 176,51.6 
		176.3,51.6 176.6,51.6 	"/>
	<polygon class="st0" points="102,247.9 92.1,246.6 92.3,246.5 92.4,246.4 92.5,246.3 92.6,246.3 92.7,246.2 92.8,246.1 92.9,246 
		93,245.9 93,245.9 93.1,245.8 93.1,245.7 93.2,245.6 93.3,245.4 93.3,245.3 93.4,245.2 93.5,245 93.5,244.6 93.6,244 93.8,243 
		93.9,241.9 94,240.6 94.2,239.2 94.3,237.7 94.5,236.1 94.7,234.6 94.8,233.1 94.9,231.7 95,230.4 95,229.3 95.1,228.4 95,227.8 
		95,227.4 94.7,226 104.1,227.4 104.1,227.5 104.1,227.6 104.1,227.8 104.1,227.9 104.1,228.1 104.2,228.3 104.2,228.5 104.2,228.7 
		104.2,228.9 104.2,229.2 104.3,229.5 104.3,229.8 104.4,230.1 104.4,230.4 104.4,230.8 104.5,231.1 102.4,230.1 102.4,230.1 
		102.2,230 102,230 101.7,230 101.4,229.9 101,229.9 100.7,229.8 100.3,229.8 99.9,229.8 99.5,229.7 99.2,229.7 98.9,229.7 
		98.6,229.7 98.4,229.7 98.3,229.8 98.2,229.8 97.7,234.9 97.8,234.9 98,234.9 98.1,235 98.3,235 98.5,235 98.6,235 98.8,235.1 
		99,235.1 99.3,235.1 99.5,235.2 99.8,235.2 100.1,235.3 100.4,235.4 100.7,235.4 101,235.5 101.4,235.5 101.4,235.8 101.4,236 
		101.4,236.2 101.4,236.4 101.4,236.6 101.4,236.8 101.3,237 101.3,237.2 101.3,237.4 101.3,237.5 101.2,237.7 101.2,237.9 
		101.2,238.1 101.1,238.3 101.1,238.4 101,238.6 100.8,238.6 100.6,238.5 100.4,238.4 100.1,238.4 99.9,238.3 99.7,238.3 
		99.4,238.2 99.2,238.2 99,238.2 98.7,238.1 98.5,238.1 98.3,238.1 98.1,238.1 97.9,238 97.6,238 97.4,237.9 96.8,244.2 
		101.4,244.8 101.4,244.8 101.5,244.8 101.5,244.8 101.7,244.8 101.7,244.8 101.8,244.9 101.9,244.9 101.9,244.9 102,244.8 
		102.1,244.8 102.2,244.8 102.3,244.8 102.4,244.7 102.5,244.7 102.6,244.7 102.8,244.6 102.2,246.8 102.1,246.9 102.1,247 
		102.1,247 102.1,247.1 102.1,247.2 102.1,247.2 102.1,247.3 102.1,247.4 102.1,247.4 102,247.5 102,247.6 102,247.6 102,247.7 
		102,247.7 102,247.9 102,247.9 	"/>
	<polygon class="st0" points="211.6,237.8 211.8,237.9 212,237.9 212.2,238 212.4,238.1 212.6,238.2 212.8,238.3 213,238.4 
		213.2,238.5 213.4,238.6 213.6,238.8 213.7,238.9 213.9,239 214.1,239.2 214.3,239.3 214.5,239.5 214.7,239.6 214.7,240.2 
		214.6,240.7 214.5,241.3 214.3,241.7 214.1,242.2 213.8,242.6 213.6,242.9 213.2,243.3 212.9,243.6 212.6,243.8 212.3,244 
		211.9,244.3 211.6,244.4 211.3,244.5 211,244.6 210.9,244.7 210.5,244.7 210.1,244.7 209.6,244.7 209,244.5 208.3,244.3 207.7,244 
		207.1,243.5 206.4,242.9 205.7,242.2 205,241.3 204.4,240.2 203.9,239 203.3,237.6 202.9,235.9 202.6,234 202.4,231.9 202.3,230.1 
		202.4,228.5 202.7,227.2 203.1,226.2 203.7,225.4 204.3,224.8 205,224.4 205.8,224.2 206.6,224 207.3,224 208.1,224.2 208.8,224.4 
		209.5,224.7 210.1,225 210.7,225.3 211.1,225.7 211.1,225.7 211.1,225.8 211.1,225.8 211.1,225.9 211.1,225.9 211.1,226 211.1,226 
		211.1,226 211.1,226.1 211.1,226.1 211.1,226.2 211.1,226.2 211.1,226.2 209.6,229.3 209.6,228.8 209.6,228.5 209.4,228.1 
		209.3,227.9 209.1,227.6 208.9,227.5 208.7,227.3 208.5,227.2 208.2,227.1 208,227 207.8,227 207.5,227 207.3,227 207.1,227 
		206.9,227 206.7,227 206.2,227.3 205.8,227.9 205.5,228.6 205.3,229.6 205.2,230.7 205.2,231.8 205.3,233.1 205.5,234.4 
		205.9,235.7 206.3,237 206.8,238.1 207.4,239.2 208.1,240.1 208.8,240.8 209.7,241.3 210.6,241.5 210.7,241.5 210.9,241.4 
		211,241.4 211.1,241.3 211.2,241.2 211.3,241.1 211.4,241 211.4,240.9 211.5,240.7 211.6,240.6 211.6,240.4 211.6,240.2 
		211.6,240.1 211.6,239.8 211.6,239.6 211.6,239.3 211.6,237.8 	"/>
	<polygon class="st0" points="46.8,80.3 46.8,80.2 46.9,80.1 46.9,80 47,79.9 47,79.8 47.1,79.7 47.1,79.6 47.2,79.5 47.2,79.4 
		47.3,79.3 47.3,79.1 47.3,79 47.3,78.9 47.4,78.8 47.4,78.6 47.4,78.5 47.5,58 47.5,57.9 47.5,57.8 47.4,57.6 47.4,57.5 47.3,57.4 
		47.3,57.2 47.2,57.1 47.1,57 47,56.9 46.9,56.8 46.8,56.7 46.8,56.7 46.6,56.6 46.5,56.5 46.4,56.5 46.2,56.5 46.9,56.1 47.5,55.8 
		48,55.5 48.6,55.2 49.1,54.9 49.6,54.7 50.1,54.4 50.5,54.2 51,54 51.4,53.8 51.8,53.6 52.1,53.4 52.5,53.3 52.9,53.1 53.3,52.9 
		53.7,52.7 53.9,52.6 54.1,52.5 54.4,52.4 54.7,52.2 54.9,52.1 55.2,52 55.4,51.9 55.7,51.7 55.9,51.6 56.2,51.5 56.5,51.4 
		56.8,51.2 57,51.1 57.3,51 57.5,50.8 57.7,50.6 57.8,54.2 57.6,54.2 57.3,54.2 57.1,54.2 56.9,54.3 56.6,54.4 56.3,54.6 56,54.7 
		55.6,54.9 55.2,55.2 54.8,55.4 54.3,55.7 53.7,56 53.1,56.3 52.4,56.7 51.7,57.1 50.9,57.5 50.8,57.7 50.7,58 50.6,58.2 50.6,58.5 
		50.5,58.7 50.5,59 50.5,59.2 50.4,59.5 50.4,59.8 50.4,60 50.3,60.3 50.3,60.7 50.3,61 50.3,61.3 50.3,61.7 50.3,62 50.7,61.9 
		51,61.7 51.3,61.6 51.6,61.4 52,61.3 52.2,61.2 52.5,61.1 52.7,61 52.9,60.9 53.1,60.8 53.3,60.8 53.5,60.7 53.6,60.7 53.7,60.7 
		53.8,60.6 53.8,60.6 55.5,59.6 55.6,59.9 55.7,60.1 55.8,60.4 55.8,60.6 55.9,60.8 55.9,61 56,61.2 56,61.4 56.1,61.6 56.1,61.8 
		56.1,62 56.1,62.2 56.1,62.4 56.1,62.6 56.1,62.8 56.1,63 55.7,63 55.4,63.1 55.1,63.2 54.7,63.2 54.4,63.3 54,63.5 53.7,63.6 
		53.4,63.7 53,63.9 52.7,64 52.3,64.1 52,64.3 51.6,64.5 51.2,64.7 50.9,64.9 50.5,65.1 50.5,76.3 50.5,76.4 50.5,76.5 50.5,76.5 
		50.5,76.6 50.5,76.7 50.6,76.8 50.6,76.8 50.6,76.9 50.6,77 50.7,77 50.7,77.1 50.8,77.1 50.8,77.2 50.9,77.2 51,77.3 51.1,77.3 
		46.8,80.3 	"/>
	<polygon class="st0" points="238.3,63.3 238,66.7 237.7,66.6 237.5,66.4 237.3,66.3 237,66.1 236.8,65.9 236.5,65.8 236.3,65.6 
		236,65.5 235.7,65.3 235.5,65.1 235.1,65 234.8,64.9 234.5,64.7 234.2,64.5 233.8,64.4 233.5,64.2 233.5,68.7 233.5,69.2 
		233.5,69.6 233.5,70 233.5,70.3 233.6,70.6 233.6,70.9 233.7,71.2 233.8,71.5 233.8,71.7 233.9,72 234,72.1 234.2,72.3 234.3,72.5 
		234.4,72.6 234.6,72.7 234.7,72.8 238.9,74.7 238.9,74.8 239,74.8 239,74.8 239.1,74.7 239.2,74.7 239.2,74.7 239.3,74.7 
		239.4,74.7 239.5,74.6 239.6,74.6 239.7,74.5 239.8,74.5 239.9,74.4 240.1,74.3 240.2,74.3 240.4,74.2 239.9,79 239.5,78.8 
		239,78.5 238.5,78.2 238,77.9 237.4,77.6 236.9,77.3 236.2,76.9 235.6,76.6 234.9,76.2 234.2,75.8 233.4,75.4 232.6,75 231.8,74.6 
		231,74.1 230.1,73.7 229.2,73.2 229.4,73 229.5,72.9 229.6,72.7 229.7,72.6 229.8,72.5 229.9,72.3 229.9,72.3 230,72.1 230,72.1 
		230.1,72 230.1,71.9 230.1,71.8 230.1,71.8 230.1,71.7 230.1,71.6 230.2,71.5 230.2,53.3 230.1,53.2 230.1,53.1 230.1,52.9 
		230.1,52.8 230.1,52.7 230,52.6 230,52.5 229.9,52.4 229.8,52.2 229.7,52 229.7,51.9 229.6,51.7 229.5,51.6 229.4,51.4 229.3,51.1 
		229.2,50.9 229.3,51 229.5,51 229.7,51.1 229.9,51.1 230.3,51.3 230.6,51.5 231,51.6 231.5,51.9 232,52.1 232.6,52.4 233.2,52.7 
		233.9,53 234.7,53.4 235.5,53.8 236.3,54.2 237.2,54.7 237.6,54.9 238,55.1 238.4,55.3 238.7,55.6 239,55.8 239.4,56.1 239.7,56.3 
		239.9,56.6 240.1,56.9 240.3,57.2 240.5,57.4 240.6,57.7 240.7,58 240.8,58.3 240.8,58.6 240.8,58.9 240.7,60.6 240.3,60.4 
		239.9,60.1 239.6,59.9 239.2,59.6 238.8,59.4 238.4,59.1 238,58.9 237.6,58.6 237.2,58.4 236.8,58.1 236.3,57.9 235.8,57.6 
		235.3,57.4 234.8,57.1 234.2,56.9 233.7,56.7 233.8,61.2 234.2,61.5 234.5,61.7 234.7,61.9 235.1,62.1 235.4,62.2 235.6,62.3 
		236,62.5 236.2,62.6 236.5,62.7 236.8,62.8 237,62.9 237.3,63 237.6,63.1 237.8,63.2 238.1,63.2 238.3,63.3 	"/>
	<polygon class="st0" points="183.9,236.4 184.4,244.8 184.4,245.1 184.3,245.4 184.1,245.8 183.9,246.1 183.7,246.5 183.4,246.9 
		183,247.2 182.7,247.6 182.3,247.9 181.8,248.2 181.4,248.5 180.9,248.6 180.4,248.8 179.9,249 179.4,249 178.9,249 178,248.8 
		177.1,248.4 176.4,247.9 175.7,247.1 175.1,246.2 174.6,245.3 174.1,244.2 173.7,243 173.4,241.8 173.2,240.5 173,239.2 172.9,238 
		172.8,236.7 172.8,235.5 172.8,234.3 173,233.2 173.2,232 173.4,230.9 173.8,230 174.2,229.3 174.6,228.6 175.1,228 175.7,227.6 
		176.2,227.3 176.8,227.1 177.4,227 178,226.9 178.5,226.9 179.1,227 179.5,227.1 180,227.3 180.4,227.5 180.9,227.8 181.3,228.1 
		181.7,228.4 182,228.7 182.2,229 182.4,229.4 182.5,229.7 182.5,230.1 182.5,230.5 182.4,230.9 182.2,231.3 182,231.8 181.7,232.2 
		181.4,232.7 180.9,233.2 180.5,233.8 180.3,233.5 180.3,233.1 180.2,232.8 180,232.5 180,232.2 179.8,231.9 179.8,231.7 
		179.6,231.5 179.5,231.3 179.4,231.1 179.3,230.9 179.3,230.8 179.1,230.7 179,230.6 178.9,230.5 178.8,230.5 178,230.4 
		177.4,230.6 176.9,231.1 176.5,231.9 176.3,232.8 176.1,233.9 176.1,235.1 176.1,236.4 176.2,237.7 176.4,239 176.6,240.3 
		176.9,241.5 177.2,242.6 177.5,243.5 177.8,244.2 178.2,244.7 178.3,244.9 178.4,245.1 178.5,245.2 178.7,245.4 178.9,245.5 
		179.1,245.6 179.3,245.7 179.5,245.7 179.8,245.7 179.9,245.7 180.2,245.6 180.3,245.6 180.5,245.4 180.7,245.2 180.8,245 
		180.9,244.7 180.9,240.5 180.9,240.4 180.9,240.4 180.9,240.3 180.9,240.3 180.9,240.2 180.9,240.2 180.9,240.2 180.9,240.1 
		180.9,240.1 180.9,240 180.8,240 180.8,240 180.8,240 180.7,240 180.7,240 180.7,239.9 180.5,239.9 180.3,239.9 180.2,239.9 
		180,240 179.9,240 179.7,240 179.6,240 179.4,240 179.3,240 179.1,240.1 179,240.1 178.8,240.2 178.7,240.3 178.5,240.4 
		178.4,240.5 178.3,240.6 178.1,239.5 178.1,237 178.1,237 178.1,237 178.1,236.9 178.1,236.9 178.2,236.9 178.2,236.8 178.2,236.8 
		178.2,236.8 178.2,236.8 178.3,236.8 178.3,236.8 178.3,236.8 178.4,236.8 178.4,236.8 183.9,236.4 	"/>
	<polygon class="st0" points="71.1,243.1 67.1,242 67.2,242 67.4,241.8 67.5,241.7 67.6,241.6 67.8,241.5 67.8,241.5 67.9,241.3 
		68,241.2 68.1,241.1 68.1,241 68.2,240.9 68.2,240.8 68.3,240.7 68.3,240.6 68.3,240.4 68.4,240.2 71.2,225.3 71,225.2 70.8,225.1 
		70.6,225 70.5,224.9 70.3,224.8 70.1,224.8 69.9,224.7 69.7,224.6 69.5,224.6 69.4,224.5 69.2,224.5 69,224.5 68.9,224.5 
		68.8,224.5 68.7,224.5 68.5,224.4 67.5,224.5 67.4,224.4 67.4,224.3 67.4,224.1 67.4,223.9 67.4,223.8 67.4,223.6 67.5,223.4 
		67.5,223.2 67.5,223 67.6,222.8 67.6,222.6 67.7,222.4 67.8,222.1 67.8,221.9 67.9,221.6 68,221.4 78.1,223.5 78.2,223.6 
		78.2,223.8 78.2,223.9 78.2,224.1 78.2,224.4 78.2,224.6 78.2,224.8 78.1,225.1 78.1,225.3 78,225.6 78,225.8 77.9,226.1 
		77.8,226.3 77.7,226.6 77.6,226.7 77.5,226.9 77.4,226.8 77.2,226.7 77.1,226.6 76.9,226.6 76.7,226.5 76.6,226.4 76.4,226.3 
		76.2,226.3 76,226.2 75.8,226.2 75.6,226.1 75.3,226.1 75.1,226.1 74.9,226 74.6,226 74.4,226 74.3,226.3 74.2,226.8 74,227.6 
		73.8,228.6 73.5,229.8 73.2,231 72.9,232.4 72.6,233.8 72.3,235.2 72.1,236.5 71.8,237.8 71.5,238.9 71.3,239.9 71.2,240.7 
		71.1,241.2 71.1,241.4 71,241.5 71,241.6 71,241.7 71,241.8 71,241.9 71,242 71,242.1 71,242.2 71,242.3 71,242.4 71,242.5 
		71,242.7 71,242.8 71,242.9 71,243 71.1,243.1 	"/>
	<polygon class="st0" points="125.8,249.9 121.5,249.9 121.6,249.7 121.7,249.6 121.8,249.4 121.9,249.3 122,249.2 122,249.1 
		122.1,249 122.1,248.9 122.2,248.8 122.2,248.6 122.2,248.6 122.2,248.5 122.2,248.4 122.2,248.3 122.2,248.1 122.3,248 
		122.7,231.9 122.3,231.9 122.1,231.8 121.8,231.8 121.6,231.7 121.3,231.7 121.1,231.7 120.9,231.7 120.7,231.7 120.4,231.7 
		120.2,231.7 120,231.7 119.8,231.7 119.6,231.7 119.4,231.7 119.1,231.8 118.9,231.8 118.9,231.7 118.9,231.6 118.8,231.4 
		118.8,231.3 118.8,231.2 118.8,231 118.8,230.8 118.7,230.6 118.7,230.4 118.7,230.2 118.6,230 118.6,229.7 118.6,229.4 
		118.7,229.1 118.7,228.8 118.8,228.5 129.8,229.2 129.8,229.5 129.8,229.7 129.9,230 129.9,230.2 129.9,230.4 129.9,230.7 
		129.9,230.9 129.9,231.1 129.9,231.4 129.9,231.6 129.9,231.8 129.9,232 129.8,232.2 129.8,232.4 129.8,232.6 129.8,232.7 
		129.6,232.7 129.3,232.6 129.1,232.5 128.9,232.4 128.6,232.3 128.4,232.2 128.2,232.1 127.9,232.1 127.7,232.1 127.4,232 
		127.2,232 126.9,231.9 126.6,231.9 126.3,231.9 126,232 125.8,232 125.2,247.9 125.2,248.1 125.2,248.1 125.2,248.3 125.2,248.4 
		125.2,248.5 125.2,248.6 125.2,248.7 125.3,248.8 125.3,248.9 125.3,249 125.4,249.1 125.4,249.3 125.5,249.4 125.6,249.5 
		125.7,249.7 125.8,249.9 	"/>
	<polygon class="st0" points="150.6,240.2 150.6,241.2 150.6,242 150.6,242.8 150.6,243.6 150.6,244.3 150.6,244.9 150.6,245.5 
		150.6,246 150.6,246.5 150.6,247 150.7,247.4 150.7,247.7 150.7,248.1 150.8,248.5 150.9,248.8 150.9,249 150.9,249.1 151,249.2 
		151,249.3 151,249.3 151,249.4 151.1,249.5 151.1,249.5 151.1,249.6 151.1,249.7 151.2,249.8 151.2,249.9 151.3,250 151.4,250.1 
		151.4,250.2 151.5,250.3 151.6,250.3 147.1,250.3 147.2,250.2 147.3,250.1 147.4,250 147.5,249.9 147.5,249.9 147.6,249.8 
		147.7,249.7 147.7,249.6 147.7,249.6 147.8,249.5 147.8,249.5 147.8,249.4 147.8,249.4 147.8,249.4 147.8,249.3 147.8,249.3 
		147.1,230.5 146.6,229.3 156.5,229.3 157,232.9 156.9,232.8 156.7,232.8 156.6,232.7 156.6,232.7 156.5,232.6 156.4,232.6 
		156.3,232.6 156.3,232.6 156.2,232.5 156.1,232.5 156.1,232.5 156.1,232.5 156,232.5 156,232.5 155.9,232.5 155.9,232.5 
		150.4,232.5 150.4,232.8 150.4,233.1 150.3,233.3 150.3,233.6 150.3,233.9 150.3,234.2 150.3,234.5 150.3,234.8 150.3,235.1 
		150.3,235.4 150.4,235.7 150.4,236 150.4,236.3 150.4,236.6 150.4,237 150.5,237.3 150.7,237.3 150.9,237.3 151.2,237.3 
		151.5,237.3 151.8,237.3 152,237.3 152.3,237.3 152.6,237.3 152.9,237.3 153.2,237.2 153.5,237.2 153.8,237.2 154,237.1 154.2,237 
		154.4,237 154.6,237 154.5,240.2 154.3,240.2 154.1,240.1 153.8,240.1 153.6,240.1 153.3,240 153,240 152.8,240 152.5,240 
		152.3,240 152,240 151.7,240 151.4,240 151.2,240.1 151,240.1 150.8,240.2 150.6,240.2 	"/>
	<polygon class="st0" points="199.5,246.7 199.5,246.5 199.5,246.3 199.5,246.2 199.5,246.1 199.6,246 199.6,245.9 199.6,245.8 
		199.6,245.7 199.5,245.7 199.5,245.6 199.5,245.5 199.5,245.4 199.5,245.4 199.5,245.3 199.5,245.2 199.5,245.1 196,225.7 
		196.3,225.6 196.6,225.5 196.9,225.4 197.3,225.3 197.6,225.3 197.9,225.3 198.2,225.2 198.5,225.2 198.8,225.2 199,225.2 
		199.2,225.2 199.4,225.2 199.5,225.2 199.7,225.2 199.8,225.2 199.8,225.2 199.7,225.3 199.7,225.3 199.7,225.4 199.6,225.5 
		199.5,225.6 199.5,225.7 199.5,225.8 199.5,225.9 199.5,226.1 199.5,226.2 199.5,226.4 199.5,226.6 199.5,226.9 199.5,227.2 
		199.5,227.5 199.6,227.8 202.7,244.5 202.7,244.7 202.7,244.8 202.8,244.9 202.8,245.1 202.9,245.2 202.9,245.2 203,245.4 
		203,245.4 203.1,245.6 203.1,245.6 203.1,245.7 203.2,245.8 203.3,245.9 203.3,245.9 203.3,246 203.4,246.1 199.5,246.7 	"/>
	<polygon class="st0" points="213.3,66.1 209.6,64.8 209.7,64.7 209.8,64.6 209.9,64.5 210,64.4 210.1,64.2 210.1,64.1 210.2,64.1 
		210.2,63.9 210.3,63.9 210.3,63.7 210.4,63.6 210.4,63.5 210.4,63.4 210.5,63.3 210.5,63.2 210.5,63.1 210.4,45.6 210.4,45.4 
		210.4,45.2 210.4,45.1 210.4,45 210.4,44.8 210.3,44.7 210.3,44.5 210.3,44.4 210.2,44.3 210.2,44.1 210.1,44 210.1,43.8 210,43.6 
		209.9,43.4 209.8,43.2 209.7,42.9 213.9,44.7 213.5,45.4 213.4,45.5 213.4,45.8 213.4,46.3 213.4,46.9 213.4,47.6 213.4,48.5 
		213.4,49.6 213.4,50.8 213.4,52.1 213.4,53.7 213.4,55.3 213.5,57.2 213.6,59.1 213.6,61.3 213.7,63.6 213.7,66 213.7,66 
		213.7,66.1 213.7,66.1 213.7,66.1 213.7,66.1 213.6,66.2 213.6,66.2 213.6,66.2 213.6,66.2 213.5,66.2 213.5,66.2 213.4,66.2 
		213.4,66.2 213.4,66.2 213.3,66.2 213.3,66.1 	"/>
	<path class="st0" d="M53.8,186.3l-0.8,1l-1,0.9l-1.2,0.8l-1.4,0.6l-1.6,0.5l-1.6,0.4l-1.7,0.3l-1.7,0l-1.8-0.1l-1.7-0.3l-1.6-0.5
		l-1.4-0.7l-1.3-0.9l-1-1.1l-0.8-1.4l-0.5-1.7l0-0.3v-0.3v-0.4v-0.3v-0.3l0-0.3v-0.3v-0.3l0-0.3l0-0.3l0-0.2l0-0.2v-0.2l0-0.2
		L33,180l0.1-0.1l0.1,0l0.1,0.1l0.1,0l0.1,0l0.1,0l0.1,0l0.1,0l0.1,0h0.1l0.1,0h0.1h0.1h0.1h0.1h0.1h0.1l17.2,0.2H52l0.1,0h0.1h0.1
		l0.1,0l0.1,0l0.1,0l0.1,0l0.1,0l0.1,0l0.1,0l0.1-0.1l0.1,0l0.1,0l0.1,0l0.1-0.1l0.1,0.4l0.1,0.4l0.1,0.4l0,0.4l0.1,0.4l0.1,0.4
		l0,0.4l0,0.4v0.4v0.4v0.4l-0.1,0.4l0,0.4l-0.1,0.4l-0.1,0.5L53.8,186.3L53.8,186.3z M35.7,183.3l0.2,0.9l0.3,0.7l0.4,0.6l0.5,0.5
		l0.6,0.4l0.6,0.4l0.7,0.3l0.7,0.2l0.7,0.2l0.8,0.1l0.8,0l0.7,0h0.7l0.7,0l0.6,0l0.6-0.1l0.7-0.1l0.7-0.2l0.6-0.2L48,187l0.5-0.2
		l0.5-0.3l0.4-0.2l0.4-0.3l0.3-0.3l0.3-0.3l0.2-0.3l0.1-0.3l0.1-0.3l0-0.3l0-0.3l-0.1-0.3l-0.9-0.1l-0.9-0.1l-0.9-0.1l-0.9-0.1
		l-1-0.1l-1,0l-1-0.1l-1,0l-1,0l-1,0h-1l-0.9,0h-0.9l-0.9,0.1l-0.9,0.1L35.7,183.3L35.7,183.3z"/>
	<path class="st0" d="M47.1,213.5l-0.5-0.2l-0.5-0.2l-0.5-0.2l-0.4-0.3l-0.4-0.3l-0.4-0.3l-0.4-0.4l-0.4-0.4l-0.3-0.4l-0.3-0.5
		l-0.3-0.5l-0.3-0.5l-0.3-0.6l-0.2-0.6l-0.2-0.7l-0.1-0.7l-0.6,0h-0.6h-0.6h-0.6h-0.6H38l-0.5,0.1l-0.5,0.1l-0.5,0l-0.5,0.1
		l-0.5,0.1l-0.4,0.1l-0.4,0.1l-0.4,0.1l-0.4,0.1l-0.3,0.2l-0.1-0.2l-0.1-0.3l-0.1-0.3l-0.1-0.4l-0.1-0.3l-0.1-0.3l-0.1-0.4l0-0.4
		l-0.1-0.3l0-0.3l0-0.3l0-0.2l0-0.3v-0.2v-0.1l0-0.1l0.1,0.1l0.1,0l0.1,0l0.1,0h0.1h0.1h0.1h0.1h0.1h0.1h0.1h0H34h0h0.1h0.1l4.1-0.2
		l13.1-1.4h0.1h0.1l0.1,0H52l0.2,0l0.1,0l0.1,0l0.1,0l0.1,0l0.1-0.1l0.1-0.1l0.1-0.1l0.1-0.1l0.1-0.1l0.1-0.1l0.2-0.1l1,5.5v0.1v0.1
		l0,0.1v0.1l0,0.1v0.1v0.2l0,0.1v0.2l0,0.1v0.1l0,0.2v0.2l0,0.1l-0.1,0.2v0.2l-0.1,0.4l-0.1,0.4l-0.2,0.4l-0.3,0.4l-0.3,0.4
		l-0.3,0.4l-0.4,0.4l-0.4,0.4l-0.5,0.4l-0.5,0.3l-0.6,0.3l-0.7,0.2l-0.7,0.1l-0.8,0.1h-0.8L47.1,213.5L47.1,213.5z M45.3,206.4
		l0,0.7l0.1,0.6l0.2,0.5l0.2,0.4l0.3,0.4l0.4,0.3l0.4,0.3l0.4,0.2l0.4,0.1l0.4,0.1h0.4l0.5-0.1l0.4-0.1l0.4-0.2l0.4-0.2l0.3-0.3
		l0.2-0.2l0.2-0.2l0.1-0.3l0.1-0.3l0.1-0.3l0.1-0.3l0-0.3l0-0.3v-0.3v-0.3l0-0.3l0-0.2l-0.1-0.2l-0.1-0.1l-0.1-0.1l-0.1,0
		L45.3,206.4L45.3,206.4z"/>
	<path class="st0" d="M45.5,230.6l-0.2-0.1l-0.2-0.1l-0.2-0.1l-0.3-0.2l-0.2-0.2l-0.2-0.2l-0.2-0.2l-0.2-0.3l-0.2-0.3l-0.2-0.2
		l-0.2-0.3l-0.2-0.3l-0.2-0.2l-0.1-0.2l-0.1-0.2l-0.1-0.1l0.1-0.1l0.2-0.1l0.2-0.1l0.2-0.1l0.2-0.1l0.2-0.2l0.2-0.2l0.2-0.2l0.1-0.2
		l0.2-0.2l0.1-0.2l0.1-0.2l0.1-0.2l0.1-0.2l0.1-0.2l0.1-0.2l-1.2-1.4l-0.1-0.1l0-0.1l-0.1-0.1l-0.1-0.1l-0.1-0.1l-0.1-0.2l-0.1-0.2
		l-0.1-0.2l-0.1-0.2l-0.1-0.3l-0.1-0.2l-0.1-0.3l-0.2-0.3l-0.2-0.3l-0.2-0.3l-0.2-0.3l-0.3,0H41l-0.3,0l-0.3,0l-0.2,0l-0.2,0
		l-0.2,0.1l-0.2,0l-0.2,0l-0.2,0.1l-0.2,0.1l-0.1,0l-0.2,0.1l-0.1,0.1l-0.1,0l-0.1,0.1l-0.3-0.5l-0.3-0.5l-0.2-0.4l-0.2-0.4
		l-0.2-0.3l-0.1-0.3l-0.1-0.2l-0.1-0.3l-0.1-0.3l-0.1-0.2l-0.1-0.2l0-0.2l-0.1-0.1l0-0.2l0-0.2l0-0.1l0.1,0.1l0.1,0l0.1,0l0.2,0.1
		l0.1,0.1h0.2l0.1,0.1l0.2,0l0.2,0l0.1,0h0.2h0.1h0.1h0.1h0.1l0.1,0l13.6-3.2l1.9-0.5l0.1,0h0.1l0.2-0.1l0.1-0.1l0.1,0l0.1-0.1
		l0.1-0.1l0.1-0.1l0.1-0.1l0.1-0.1l0.1-0.1l0.1-0.1l0.1-0.1l0.1-0.1l0.1-0.1l0.1-0.1l0.1,0.1l0.2,0.2l0.2,0.2l0.2,0.2l0.1,0.2
		l0.2,0.2l0.1,0.2l0.1,0.3l0.1,0.2l0.2,0.3l0.1,0.3l0.1,0.2l0.1,0.3l0.2,0.2l0.1,0.2l0.1,0.2l-0.5,0.5l-0.6,0.5l-0.7,0.7l-0.8,0.8
		l-0.9,0.9l-0.9,0.9l-0.9,1l-1,1l-1,1l-0.9,1.1l-0.9,1l-0.9,1l-0.8,0.9l-0.7,0.9l-0.6,0.8l-0.5,0.6l-0.1,0.1l-0.1,0.1l-0.1,0.1
		l0,0.1l-0.1,0.1l0,0.1l0,0.1v0.1l0,0.1l0,0.1l0,0.1v0.1l0,0.1v0L45.5,230.6L45.5,230.6L45.5,230.6z M53.2,216.6l-8.8,2.4l0.1,0.3
		l0.2,0.3l0.2,0.3l0.2,0.3l0.1,0.3l0.1,0.3l0.2,0.3l0.2,0.2l0.1,0.3l0.2,0.2l0.2,0.2l0.2,0.3l0.2,0.3l0.2,0.2l0.2,0.3l0.3,0.3
		l0.1-0.2l0.3-0.2l0.3-0.3l0.4-0.4l0.4-0.5l0.5-0.5l0.5-0.5l0.5-0.5l0.5-0.5l0.5-0.5l0.5-0.5l0.4-0.5l0.4-0.4l0.4-0.4l0.2-0.3
		L53.2,216.6L53.2,216.6z"/>
	<path class="st0" d="M60.1,240.1l-0.1,0l-0.1,0l-0.1,0l-0.1,0l-0.2,0l-0.1-0.1l-0.2-0.1l-0.2-0.1l-0.2-0.1l-0.3-0.1l-0.3-0.1
		l-0.3-0.1l-0.3-0.1l-0.3-0.2l-0.3-0.1l-0.4-0.2l0.1,0l0.1-0.1l0.1-0.1l0.1-0.1l0.1-0.1l0-0.1l0.1-0.1l0-0.1l0-0.1l0-0.1v0v-0.1
		v-0.1v-0.1v-0.1v-0.1l0.4-8.1l-0.2,0l-0.1,0l-0.1,0l-0.2-0.1h-0.1l-0.1-0.1l-0.1,0l-0.1-0.1l-0.1,0l-0.1-0.1l-0.2-0.1l-0.1-0.1
		l-0.1-0.1l-0.1-0.1l-0.1-0.1l-0.1-0.1l-0.2,0.3l-0.2,0.3l-0.2,0.3l-0.2,0.3l-0.1,0.2l-0.1,0.2l-0.1,0.2l-0.1,0.2l-0.1,0.2l-0.1,0.1
		l-0.1,0.2l-0.1,0.1l-0.1,0.1l-0.1,0.1l-0.1,0.1l-0.1,0.1l-0.3,0.4l-0.3,0.3l-0.2,0.4l-0.2,0.3l-0.2,0.3l-0.2,0.3l-0.1,0.3l-0.1,0.2
		L52,234l-0.1,0.2l-0.1,0.2l-0.1,0.2l0,0.2l0,0.2v0.3l0,0.3h-0.1l-0.2-0.1l-0.1-0.1l-0.2-0.1l-0.2-0.1l-0.3-0.2l-0.3-0.2l-0.3-0.2
		l-0.3-0.2l-0.3-0.2l-0.3-0.3l-0.3-0.3l-0.3-0.2l-0.3-0.2l-0.2-0.3l-0.1-0.2l0.1,0l0.2,0l0.2-0.1l0.2-0.1l0.1-0.1l0.1-0.1l0.1-0.1
		l0.1-0.1l0.1-0.1l0.1-0.1l0.1-0.1l0.1-0.1l0.1-0.1l0-0.1l0.1-0.1l0-0.1l2.3-3.1l0.9-1.2l0.8-1.1l0.8-1.1l0.7-1l0.6-0.9l0.6-0.9
		l0.5-0.8l0.5-0.7l0.4-0.6l0.4-0.5l0.3-0.5l0.3-0.4l0.2-0.4l0.1-0.2l0.1-0.2l0-0.1v-0.1l0,0l0-0.1l0-0.1l0-0.1l0-0.1l0-0.1l0-0.1
		v-0.1l0-0.1l0-0.1v-0.1v-0.1v-0.1l0-0.2v-0.2l3.2,2.6l1,0.9l0.9,0.9l0.6,0.9l0.5,0.9l0.3,0.9l0.1,0.9l-0.1,0.9l-0.2,0.9l-0.4,0.8
		l-0.4,0.8l-0.6,0.7l-0.7,0.6l-0.8,0.5l-0.9,0.5l-0.9,0.4l-1,0.3l0,1.1l-0.1,1l-0.1,0.9l0,0.9l0,0.8l0,0.7l0,0.7l0,0.6l0,0.5v0.4
		l0,0.4v0.3l0,0.3v0.2v0.1v0l0,0.1v0v0.1v0.1v0.1v0.1v0.1v0.1v0.1l0,0.1v0.1l0,0.1l0,0.1v0.1l0,0.1L60.1,240.1L60.1,240.1z
		 M60.8,221.2l-0.1,0.1l-0.1,0.1l-0.1,0.2l-0.2,0.3l-0.3,0.3l-0.3,0.4l-0.3,0.4l-0.3,0.4l-0.3,0.4l-0.3,0.4l-0.2,0.4l-0.2,0.4
		l-0.2,0.3l-0.1,0.3l0,0.2v0.1l0,0l0,0v0v0l0,0l0,0H58l0,0l0,0.1l0,0l0.1,0l0,0l0.1,0l0.1,0l0.1,0l0.5,0.2l0.5,0.1l0.5,0l0.5-0.1
		l0.4-0.1l0.4-0.1l0.4-0.3l0.3-0.3l0.3-0.3l0.3-0.4l0.2-0.4l0.1-0.4l0-0.4v-0.4l-0.1-0.5l-0.1-0.4l-0.1-0.1l-0.1-0.1l-0.1-0.1
		l-0.1-0.1l-0.1-0.1l-0.1-0.1l-0.1-0.1l-0.1-0.1l-0.1-0.1l-0.1-0.1l-0.2-0.1l-0.1,0l-0.1,0l-0.2-0.1h-0.1L60.8,221.2L60.8,221.2z"/>
	<path class="st0" d="M138.6,250.4l-0.5-0.1l-0.4-0.1l-0.4-0.1l-0.4-0.2l-0.4-0.3l-0.4-0.3L136,249l-0.3-0.4l-0.3-0.4l-0.3-0.4
		l-0.2-0.5l-0.2-0.5l-0.2-0.5l-0.2-0.6l-0.1-0.6l-0.1-0.6l-0.1-0.6l-0.1-0.6l-0.1-0.6l0-0.6l-0.1-0.6l-0.1-0.6l0-0.5v-0.5v-0.5v-0.5
		v-0.5l0-0.5l0.1-0.5l0.1-0.5l0.1-0.5l0.1-0.5l0.1-0.8l0.2-0.8l0.2-0.7l0.3-0.6l0.3-0.6l0.3-0.6l0.3-0.5l0.3-0.5l0.4-0.4l0.4-0.4
		l0.4-0.3l0.4-0.3l0.4-0.2l0.5-0.2l0.5-0.1l0.5-0.1l1.5,0.1l1.3,0.6l1.1,1l0.9,1.5l0.6,1.7l0.5,1.9l0.3,2.1l0.1,2.2l-0.1,2.2
		L145,244l-0.6,1.9l-0.8,1.7l-1,1.4l-1.1,0.9l-1.4,0.5L138.6,250.4L138.6,250.4z M139.1,232.4l-0.5,0.3l-0.5,0.5l-0.4,0.7l-0.4,0.9
		l-0.3,1L137,237l-0.2,1.2l-0.1,1.3l0,1.3l0.1,1.3l0.1,1.2l0.3,1.1l0.4,1l0.4,0.8l0.5,0.6l0.7,0.4l0.8-0.3l0.6-0.6l0.5-0.8l0.4-1
		l0.3-1.2l0.2-1.3l0.1-1.4l0-1.4l-0.1-1.4l-0.2-1.3l-0.3-1.2l-0.4-1l-0.4-0.9l-0.5-0.6l-0.5-0.4L139.1,232.4L139.1,232.4z"/>
	<path class="st0" d="M167.2,228.6v0.2l0,0.2v0.2l0.1,0.2l0,0.2l0,0.3l0,0.2l0.1,0.2l0.1,0.3l0,0.3l0.1,0.3l0.1,0.3l0.1,0.3l0.1,0.3
		l0.1,0.4l0.1,0.4l0.2,0.7l0.3,0.8l0.3,0.9l0.3,1l0.3,1.1l0.3,1.1l0.3,1.1l0.3,1.1l0.3,1.1l0.3,1.1l0.3,1.1l0.3,1l0.3,1l0.3,0.9
		l0.3,0.8l0.3,0.6v0.1v0.1l0.1,0l0,0.1l0.1,0l0,0.1l0.1,0.1l0.1,0.1l0,0.1l0.1,0.1l0,0.1l0.1,0.1l0,0.1l0.1,0v0h0.1l-3.9,0.4
		l-0.5-2.7L164,247l-0.8,3.1h-3.9l0.1-0.2l0.1-0.1l0.1-0.1l0.1-0.1l0.1-0.1l0.1-0.1l0-0.1l0.1-0.1l0.1-0.1l0-0.1l0-0.1l0-0.1
		l0.1-0.1v-0.1l0-0.1l0-0.1l3.3-15.8l0-0.3l0.1-0.3l0-0.2l0-0.3V231v-0.2v-0.2v-0.2v-0.2v-0.2v-0.2l0-0.2l0-0.2l-0.1-0.1l0-0.2
		l0-0.2l0.2-0.1l0.2-0.1l0.2-0.1l0.3-0.1l0.2-0.1l0.2,0l0.2,0l0.2,0h0.2l0.2,0h0.2l0.2,0h0.2h0.2l0.2,0.1L167.2,228.6L167.2,228.6z
		 M166.3,237.2l-1.5,6.4l0.2,0.1l0.2,0l0.2,0l0.2,0l0.2,0h0.2h0.3h0.2h0.2h0.2l0.2,0l0.3,0l0.2,0h0.2l0.2,0l0.2-0.1L166.3,237.2
		L166.3,237.2z"/>
	<path class="st0" d="M191.1,247.9l-4.6,0.4l0-0.1l0.1-0.1l0-0.1V248l0.1-0.1l0-0.1l0-0.1l0-0.1v-0.1v-0.1l0-0.1v-0.1l0-0.1V247
		v-0.1l0-0.1v-0.2v-0.3v-0.4l0-0.5l0-0.5l0-0.6l-0.1-0.7l-0.1-0.8l-0.1-0.9l-0.1-1l-0.1-1.1l-0.1-1.2l-0.1-1.3l-0.2-1.4l-0.2-1.5
		l-0.2-1.7l-0.1-0.6l-0.1-0.5l-0.1-0.5l-0.1-0.5l-0.1-0.5l-0.1-0.4l-0.1-0.4l-0.1-0.4l-0.1-0.4l-0.1-0.3l-0.1-0.3l-0.1-0.3l-0.1-0.3
		l-0.1-0.2l-0.1-0.2l-0.1-0.2l2.2-0.2l2-0.2l1.4-0.1l1.3,0.1l1.1,0.2l0.9,0.4l0.8,0.5l0.6,0.6l0.5,0.7l0.4,0.7l0.3,0.8l0.2,0.8
		l0.1,0.8v0.8l-0.1,0.8l-0.2,0.7l-0.2,0.6l-0.3,0.5l-0.1,0.1l-0.1,0.1l-0.1,0.1l-0.1,0.1l-0.1,0.1l0,0.1l-0.1,0.1l0,0.1l-0.1,0.1
		l-0.1,0.1l-0.1,0.1l-0.1,0.1l-0.1,0.1l-0.1,0.1L194,237l-0.1,0.1l1.2,2.6l1.8,4.6l0.1,0.2l0.1,0.2l0.1,0.2l0.1,0.2l0.1,0.2l0.1,0.2
		l0.1,0.2l0.1,0.2l0.1,0.1l0.1,0.2l0.1,0.1l0.1,0.1l0.1,0.1l0.1,0.1l0.1,0.1l0.1,0.1l-0.1,0.1l-0.1,0h-0.1l-0.2,0l-0.2,0l-0.3,0.1
		l-0.3,0h-0.2l-0.3,0l-0.3,0.1l-0.3,0l-0.3,0l-0.4,0l-0.4,0l-0.4,0l-0.4,0l-0.2-0.9l-0.2-0.9l-0.2-0.8l-0.3-0.7l-0.2-0.7l-0.3-0.6
		l-0.3-0.6l-0.2-0.5l-0.3-0.5l-0.3-0.4l-0.3-0.4l-0.2-0.3l-0.3-0.3l-0.3-0.3l-0.3-0.2l-0.3-0.2l0,0l0,0h0h0h0h0l0,0h0v0l0,0v0h0v0
		l0,0.5v0.5v0.4v0.4v0.4v0.4v0.4l0,0.4l0,0.4l0,0.4l0.1,0.5l0.1,0.4l0,0.5l0.1,0.5l0.1,0.5l0.1,0.5v0v0.1l0,0.1v0.1l0,0.1l0,0.1
		l0,0.1l0,0.1l0,0.1l0.1,0.1l0,0.1l0,0.1l0.1,0.1l0.1,0.1l0.1,0.1L191.1,247.9L191.1,247.9z M188.4,229.5l0.9,6h0.8l0.6-0.1l0.5-0.2
		l0.5-0.4l0.4-0.5l0.2-0.5l0.2-0.5l0.1-0.6v-0.5l-0.1-0.6l-0.1-0.5l-0.3-0.5l-0.3-0.4l-0.3-0.3l-0.4-0.2l-0.4-0.1L188.4,229.5
		L188.4,229.5z"/>
	<path class="st0" d="M234,202.6l0-7.6l0.1-0.8l0.3-0.8l0.4-0.7l0.6-0.6l0.7-0.6l0.8-0.5l0.9-0.4l1-0.3l1-0.1l1,0l0.9,0.2l0.9,0.4
		l0.9,0.6l0.8,0.8l0.6,1l0.5,1.2h0.1h0.2l0.1,0l0.2,0l0.2,0l0.2,0l0.3-0.1l0.3-0.1l0.3,0l0.3-0.1l0.4-0.1l0.4-0.1l0.4-0.1l0.4-0.1
		l0.5-0.1l0.5-0.1l0.3,0l0.3-0.1l0.2-0.1l0.3,0l0.3-0.1l0.3,0l0.3-0.1l0.3-0.1l0.3-0.1l0.3-0.1l0.3-0.1l0.3-0.1l0.2-0.1l0.2-0.1
		l0.2-0.1l0.2-0.1l0,0.2l0,0.2l0,0.2v0.2l0,0.2v0.2l0,0.2v0.2v0.2v0.3v0.3l0,0.3l0,0.4v0.4l0,0.5l0,0.5l-0.3,0l-0.3,0l-0.3,0.1
		l-0.4,0l-0.4,0.1l-0.4,0.1l-0.5,0.1l-0.5,0.1l-0.5,0.1L250,197l-0.6,0.1l-0.6,0.1l-0.7,0.1l-0.7,0.1l-0.8,0.1l-0.8,0.2l0,1.8h0.3
		l0.5,0l0.5,0l0.6,0l0.6,0.1h0.7l0.7,0.1l0.7,0l0.7,0l0.7,0h0.6l0.6,0l0.5,0l0.4-0.1l0.3-0.1l0.2-0.1l-0.1,4.7l-0.1-0.1l-0.1-0.1
		l-0.1-0.1l-0.1-0.1l-0.1-0.1l-0.1,0l-0.1-0.1l-0.1,0l-0.1,0l-0.1,0l-0.1,0l-0.1,0h-0.1l-0.1,0h-0.1l-0.1,0l-15.9-1.3h-0.2l-0.2,0
		h-0.1l-0.1,0H236l-0.2,0h-0.1h-0.1l-0.1,0h-0.2l-0.1,0l-0.2,0.1l-0.2,0l-0.2,0.1l-0.3,0.1L234,202.6L234,202.6z M239.2,193.4
		l-0.2,0.1l-0.1,0h-0.2l-0.1,0.1l-0.1,0.1l-0.1,0l-0.2,0.1l-0.1,0.1l-0.1,0l-0.1,0.1l-0.1,0.1l-0.1,0.1l-0.1,0.1l-0.1,0.1l-0.1,0.1
		l-0.1,0.1l-0.1,0.2l-0.1,0.2l0,0.3l-0.1,0.3l0,0.3l0,0.3v0.3v0.4l0,0.4v0.4l0.1,0.4l0,0.3l0,0.3l0,0.3l0.1,0.2l0.1,0.2l5.2,0.3
		l0.1-0.1l0.1-0.2l0.1-0.4l0.1-0.4l0-0.5v-0.6v-0.6l-0.1-0.6l-0.1-0.6l-0.2-0.5l-0.3-0.5l-0.4-0.4l-0.5-0.4l-0.6-0.2l-0.7-0.1
		L239.2,193.4L239.2,193.4z"/>
	<path class="st0" d="M193.3,59.5l-4.8-1.5l-0.2-0.6l-0.2-0.6l-0.2-0.6l-0.1-0.5l-0.1-0.5l-0.1-0.5l-0.1-0.5l-0.1-0.5l-0.1-0.5
		l-0.1-0.5l-0.2-0.6l-0.2-0.6l-0.2-0.7l-0.2-0.7l-0.3-0.8l-0.3-0.9l-0.3-0.1l-0.3-0.1l-0.2-0.1l-0.3-0.1l-0.3,0l-0.2,0l-0.2,0
		l-0.2,0h-0.2h-0.1h-0.1l-0.1,0h-0.1l-0.1,0l0,0l0,0l0.1,8.7l-4.4-0.9l0.7-1.1l0,0l0,0l0-0.1l0,0v0l0,0v-0.1v-0.1h0v-0.1v-0.1v0v0
		v-0.1V54v0l0.1-15.9V38l0-0.2v-0.1l0-0.2v-0.1l0-0.2l-0.1-0.2l-0.1-0.2l0-0.1l-0.1-0.2l-0.1-0.1l-0.1-0.2l-0.1-0.1l-0.1-0.2
		l-0.1-0.1l-0.1-0.2l0.3,0h0.3l0.4,0l0.4,0l0.4,0.1l0.4,0l0.5,0l0.5,0.1l0.5,0l0.5,0.1l0.6,0.1l0.6,0.1l0.6,0.1l0.6,0.1l0.7,0.1
		l0.7,0.1l1.1,0.2l1,0.3l0.9,0.5l0.8,0.5l0.6,0.6l0.5,0.7l0.4,0.8l0.2,0.8l0.1,0.9l0,0.9l-0.2,0.9l-0.3,0.9l-0.5,0.9l-0.6,0.8
		l-0.8,0.8l-0.9,0.7l0.1,0.8l0.1,0.7l0.1,0.7l0.1,0.6l0.1,0.6l0.2,0.6l0.1,0.5l0.2,0.5l0.2,0.5l0.2,0.5l0.2,0.5l0.2,0.5l0.3,0.5
		l0.2,0.5l0.3,0.5l0.3,0.5L193.3,59.5L193.3,59.5z M183,38.9v5.5l0,0.1h0.1l0.1,0l0.2,0.1l0.3,0l0.3,0h0.3l0.3,0l0.4,0h0.4h0.4h0.4
		h0.4l0.4,0l0.4,0l0.4-0.1l0.2-0.1l0.3-0.1l0.2-0.2l0.2-0.3l0.2-0.3l0.2-0.4l0.1-0.4l0.1-0.4l0-0.4l0-0.4l0-0.4l-0.1-0.4l-0.2-0.4
		l-0.2-0.4L188,40l-0.4-0.3l-0.1,0l-0.2-0.1l-0.2-0.1l-0.3-0.1l-0.4-0.1l-0.4-0.1l-0.4-0.1l-0.4-0.1l-0.4,0l-0.4-0.1l-0.4,0l-0.4,0
		l-0.3,0h-0.2H183L183,38.9L183,38.9z"/>
	<path class="st0" d="M76.4,65.1l0.1-0.1l0.1-0.1l0-0.1l0.1-0.1l0.1-0.1l0-0.1l0.1-0.1l0-0.1l0-0.1V64v-0.1l0-0.1v-0.1v-0.1v-0.1
		l0-0.1l0-18v-0.2l0-0.2v-0.1l-0.1-0.1v-0.1l-0.1-0.1l-0.1-0.1l0-0.1l-0.1-0.1L76.5,44l-0.1,0l-0.2-0.1l-0.1-0.1h-0.1l-0.2-0.1
		l-0.1-0.1l1-0.4l0.9-0.3l0.9-0.3l0.8-0.3l0.8-0.3l0.8-0.3l0.7-0.2l0.6-0.1l0.6-0.1l0.6-0.1l0.6-0.1l0.5,0l0.5,0h0.5l0.5,0h0.5
		l0.5,0.2l0.5,0.3l0.5,0.3l0.4,0.4l0.4,0.4l0.3,0.5l0.3,0.5l0.2,0.6l0.1,0.6l0,0.7l-0.1,0.6l-0.1,0.7l-0.3,0.7l-0.4,0.7l-0.5,0.7
		l-0.6,0.6L86.1,51l0,0.1l0.1,0.2l0.1,0.3l0.1,0.4l0.2,0.5l0.2,0.6l0.3,0.6l0.3,0.7l0.4,0.7l0.3,0.7l0.4,0.8l0.4,0.8l0.4,0.8
		l0.4,0.7l0.4,0.6l0.4,0.6h0v0l-3.6,1.2l-0.1-0.5l-0.1-0.5l-0.1-0.5l-0.2-0.5L86,58.8l-0.2-0.5l-0.3-0.5l-0.2-0.6l-0.3-0.6L84.8,56
		l-0.3-0.6l-0.3-0.6l-0.3-0.6l-0.4-0.6L83.1,53l-0.4-0.6l-0.1,0h-0.1l-0.1,0l-0.1,0l-0.2,0l-0.3,0l-0.2,0.1l-0.3,0.1l-0.3,0.1
		l-0.2,0.1L80.7,53l-0.2,0.1l-0.1,0.1l-0.1,0.1l-0.1,0.1v0.1l0.1,10.2l-0.1,0.1L80,64l-0.2,0.1l-0.3,0.1l-0.3,0.1L79,64.4l-0.3,0.1
		l-0.3,0.1l-0.3,0.1l-0.3,0.1l-0.3,0.1L77.3,65L77,65.1l-0.3,0.1h-0.2H76.4L76.4,65.1z M85.1,44.2h-0.3h-0.3h-0.3l-0.3,0l-0.3,0
		l-0.3,0l-0.3,0.1l-0.3,0.1l-0.3,0.1l-0.3,0.1l-0.3,0.1l-0.3,0.1L81,45l-0.3,0.2l-0.3,0.2l-0.3,0.2v3.7l0.1,0.1l0.2,0h0.3l0.3,0h0.3
		l0.3-0.1l0.4-0.1l0.4-0.1l0.4-0.1l0.4-0.1l0.4-0.1l0.3-0.1l0.3-0.1l0.3-0.1l0.2-0.1l0.2-0.1l0.4-0.3l0.3-0.3l0.3-0.3l0.2-0.3
		l0.1-0.3l0.1-0.4l0.1-0.3v-0.3l0-0.3l0-0.3l-0.1-0.3l-0.1-0.2l-0.1-0.2l-0.2-0.1l-0.2-0.1L85.1,44.2L85.1,44.2z"/>
	<path class="st0" d="M66.7,70.2l-0.5,0.1l-0.4,0h-0.4H65l-0.4,0l-0.4-0.1l-0.4-0.1L63.4,70l-0.4-0.1l-0.3-0.2l-0.4-0.2L62,69.2
		l-0.3-0.3l-0.3-0.3l-0.3-0.3L60.8,68l-0.2-0.3l-0.2-0.3l-0.2-0.3L60,66.9l-0.1-0.4l-0.1-0.3l-0.1-0.4l-0.1-0.4l-0.2-0.4l-0.1-0.4
		l-0.1-0.4L59,63.9L59,63.5L58.9,63l-0.1-0.5l0-0.5L58.6,59l0.3-2.7l0.5-2.4l0.8-2l1-1.7l1.1-1.3l1.3-1l1.3-0.6l1.4-0.3l1.4,0.1
		l1.3,0.4l1.2,0.8l1.1,1.1l0.9,1.5l0.7,1.8l0.5,2.2l0,0.5v0.7V57v1l-0.1,1.1l-0.1,1.2L73,61.6l-0.3,1.3l-0.4,1.3l-0.4,1.2l-0.5,1.1
		l-0.7,1l-0.8,0.9l-0.9,0.8l-1.1,0.6L66.7,70.2L66.7,70.2z M67,50.5l-1.2-0.1l-1,0.3l-0.9,0.6l-0.7,0.9l-0.6,1.2l-0.4,1.3l-0.3,1.5
		l-0.1,1.6l0,1.6l0.1,1.6l0.3,1.5l0.4,1.4l0.5,1.3l0.6,1l0.7,0.7l0.8,0.4l1,0l0.9-0.3l0.8-0.6l0.7-0.9l0.6-1.1l0.5-1.3l0.4-1.4
		l0.2-1.5l0.1-1.5l0-1.6l-0.1-1.5L69.8,54l-0.4-1.3l-0.6-1L67.9,51L67,50.5L67,50.5z"/>
</g>
</svg>
