<?xml version="1.0" encoding="utf-8"?>
<!-- Generator: Adobe Illustrator 19.0.0, SVG Export Plug-In . SVG Version: 6.00 Build 0)  -->
<svg version="1.1" id="beachcombing_xA0_Image_1_" xmlns="http://www.w3.org/2000/svg" xmlns:xlink="http://www.w3.org/1999/xlink"
	 x="0px" y="0px" viewBox="-11 13.7 575.8 574.3" style="enable-background:new -11 13.7 575.8 574.3;" xml:space="preserve">
<style type="text/css">
	.st0{fill:#FFFF00;}
	.st1{fill:#573922;}
	.st2{fill:#FFFFFF;}
</style>
<rect x="-10" y="13.7" class="st0" width="575.8" height="574.3"/>
<rect x="35" y="58.5" class="st1" width="486" height="484.7"/>
<polygon class="st2" points="318.6,498.3 318.3,428.4 458,428.1 388.8,341 441.7,341 370.1,253.9 405.9,254.7 326.6,160.5 
	353,160.5 278.9,87.9 278.9,85.9 277.8,86.9 276.8,85.9 276.8,87.9 202.7,160.5 229.1,160.5 149.8,254.7 185.5,253.9 114,341 
	166.9,341 97.6,428.1 237.4,428.4 237.1,498.3 201.9,498.1 201.5,516 277.2,516 278.5,516 354.1,516 353.8,498.1 "/>
</svg>
