<?xml version="1.0" encoding="utf-8"?>
<!-- Generator: Adobe Illustrator 19.0.0, SVG Export Plug-In . SVG Version: 6.00 Build 0)  -->
<svg version="1.1" id="beachcombing_xA0_Image_1_" xmlns="http://www.w3.org/2000/svg" xmlns:xlink="http://www.w3.org/1999/xlink"
	 x="0px" y="0px" viewBox="-11 13.7 575.8 574.3" style="enable-background:new -11 13.7 575.8 574.3;" xml:space="preserve">
<style type="text/css">
	.st0{fill:#FFFF00;}
	.st1{fill:#573922;}
	.st2{fill:#FFFFFF;}
	.st3{display:none;}
	.st4{display:inline;fill:#FFFFFF;}
</style>
<rect x="-11" y="13.7" class="st0" width="575.8" height="574.3"/>
<rect x="34" y="58.5" class="st1" width="486" height="484.7"/>
<g id="Layer_1_1_">
	<path class="st2" d="M472.4,459.6v-39.9c-11,22.7-27.4,34.1-49.3,34.1c-21.9,0-38.4-11.4-49.3-34.1c-11.7,22.7-28.4,34.1-49.9,34.1
		c-21.9,0-38.4-11.4-49.3-34.1c-11,22.7-27.8,34.1-50.5,34.1c-21.5,0-38.2-11.4-49.9-34.1c-11,22.7-27.4,34.1-49.3,34.1
		s-38.4-11.4-49.3-34.1v39.9c11,22.7,27.4,34.1,49.3,34.1s38.4-11.2,49.3-33.5c11.7,22.3,28.4,33.5,49.9,33.5
		c22.7,0,39.5-11.2,50.5-33.5c11,22.3,27.4,33.5,49.3,33.5c21.5,0,38.2-11.2,49.9-33.5c11,22.3,27.4,33.5,49.3,33.5
		C445.1,493.7,461.5,482.3,472.4,459.6z"/>
</g>
<g id="Shape">
	<g class="st3">
		<path class="st4" d="M291.8,372c-0.9,0-1.7,0-2.6,0c-2-0.8-4.1-1.3-5.8-2.4c-2.7-1.7-5.2-3.6-7.8-5.5c-2.5-1.8-5.2-2.9-8.3-2.7
			c-2.1,0.1-4.3,0.1-6.4,0c-5.1-0.1-8.2-2.4-9.7-7.3c-0.6-1.8-1.2-3.6-1.6-5.5c-0.9-3.9-2.9-7-5.9-9.6c-8.6-7.6-17.2-15.2-25.8-22.9
			c-8.9-8.1-17.1-16.9-20.8-28.8c-0.1-0.2,2.2,6.5-0.4-0.4c-2.6-6.9,0-6.5,0-9.8c1.6-2.5,3-5.1,4.8-7.4c1.1-1.4,1.8-2.6,1.4-4.6
			c-1.3-6.2,0.3-11.7,5.4-15.6c3-2.3,6.7-3.8,10.2-5.6c1.1-0.6,2-1,2.2-2.4c1.9-10.6,8.2-16.2,18.9-17c1.8-0.1,3-0.8,3.8-2.5
			c5.2-11.2,13.4-15.2,25.4-12.6c0.7,0.2,1.9,0.1,2.3-0.4c3.3-3.5,11.7-7.5,11.7-7.5s3.9-2.7,9.4,0c0.5,0.3,1.1,0.6,1.6,0.9
			c2.9,1.8,5.9,3.4,8.6,5.4c1.5,1.1,2.7,1.6,4.6,1c6.1-1.8,11.8-0.6,16.4,3.7c2.6,2.4,4.7,5.4,6.9,8.3c0.8,1.1,1.5,1.8,2.9,1.5
			c5.3-1.1,9.8,0.5,13.8,3.8c4.8,4,7.7,9.2,10.1,14.8c0.6,1.4,1.8,3,3.1,3.5c9.2,3.5,13.3,10.6,14.3,19.9c0.3,3.1,0.9,5.6,3.8,7.6
			c1.6,1.1,2.4,3.3,3.5,5c0.4,0.6,0.9,1.8,0.9,1.8s2.6,4.5,0,9c-3.4,7.1-0.4,0.5-0.5,0.8c-1.8,5.2-4.8,9.8-8.2,14.1
			c-9.4,11.9-20,22.7-30.9,33.2c-3.5,3.4-6.2,7.4-7.9,12c-1,2.5-2.1,5-3.4,7.3c-2.4,4.4-6.4,6.3-11.3,6.1c-1.5-0.1-3-0.2-4.5-0.2
			c-3.8-0.2-7.2,1-10.1,3.3C301.5,367.6,297,370.3,291.8,372z"/>
	</g>
	<path class="st2" d="M398.4,249.5l-32.5-10.6h-46.6h-97.4h-46.6l-29.6,10.6l-38.1,15.9l-0.5,29.2l90.8,90.1h155.3l84.7-88.5v-31.2
		L398.4,249.5z M378.2,331.7l-9.9,8h-28.4H229.1h-46.6l-17.3-15.9v-10.6l15.6-8l15.6,8l15.6-15.9l7.1,23.9l7.1-15.9l14.2,8l7.1-8
		l-2.8-8l11.4-10.6h7.1l12.8,9.3l1.4,17.2h11.4l-1.4-15.9l12.8-10.6l14.2,10.6v14.6l12.8,1.3l12.8-15.9v8l12.8-8l4.3,14.6h27
		l5.7,11.9L378.2,331.7z"/>
	
		<rect x="49.9" y="189.6" transform="matrix(-0.5802 -0.8145 0.8145 -0.5802 -10.1537 382.0832)" class="st2" width="87" height="8.2"/>
	
		<rect x="418.2" y="190.2" transform="matrix(0.5549 -0.8319 0.8319 0.5549 43.8715 470.6347)" class="st2" width="87" height="8.2"/>
	
		<rect x="336.9" y="155.9" transform="matrix(0.4919 -0.8707 0.8707 0.4919 54.0081 412.4955)" class="st2" width="87" height="8.2"/>
	
		<rect x="139.7" y="155.3" transform="matrix(-0.4274 -0.9041 0.9041 -0.4274 117.4553 393.1396)" class="st2" width="87" height="8.2"/>
	
		<rect x="230.4" y="145.2" transform="matrix(-1.899997e-003 -1 1 -1.899997e-003 125.1563 423.5567)" class="st2" width="87" height="8.2"/>
</g>
</svg>
