<?xml version="1.0" encoding="utf-8"?>
<!-- Generator: Adobe Illustrator 19.0.0, SVG Export Plug-In . SVG Version: 6.00 Build 0)  -->
<svg version="1.1" id="Layer_1" xmlns="http://www.w3.org/2000/svg" xmlns:xlink="http://www.w3.org/1999/xlink" x="0px" y="0px"
	 viewBox="0 0 240 100" style="enable-background:new 0 0 240 100;" xml:space="preserve">
<style type="text/css">
	.st0{fill:#229C95;}
</style>
<g id="XMLID_115_">
	<g id="XMLID_16_">
		<g id="XMLID_20_">
			<path id="XMLID_21_" class="st0" d="M232.6,59.8c0,0-0.7,0.9-2,2.7c-1.4,1.7-3.4,4.2-6.2,7.2c-5.6,5.9-14.4,13.7-27.3,19.9
				c-3.2,1.6-6.7,2.9-10.4,4.1c-3.7,1.2-7.7,2.2-11.9,2.8c-8.4,1.3-17.7,1.3-27-0.9c-4.6-1.1-9.2-2.7-13.6-4.7
				c-1.1-0.5-2.3-1.1-3.4-1.7l-0.8-0.4c-0.1-0.1-0.3-0.1-0.4-0.2l-0.5-0.3l-2-1.3c-2.6-1.7-4.8-3.6-6.9-5.6
				c-4.1-4.1-7.1-8.5-9.5-12.7c-2.4-4.2-4.2-8.2-5.9-11.8l-2.3-5.1l-0.6-1.2l-0.5-1l-0.5-1l-0.4-0.6c-0.4-0.8-1.1-1.6-1.7-2.4
				c-0.4-0.4-0.7-0.8-1-1.1c-0.3-0.4-0.8-0.7-1.1-1.1c-1.6-1.4-3.4-2.6-5.4-3.6c-2.1-1-4.4-1.8-6.7-2.3c-2.4-0.6-4.9-0.8-7.3-1
				c-0.6,0-1.2-0.1-1.8,0c-0.6,0-1.2,0-1.8,0c-0.6,0-1.1,0.1-1.6,0.1l-0.8,0.1c-0.3,0-0.5,0.1-0.8,0.1c-0.5,0.1-1.1,0.2-1.6,0.3
				c-0.5,0.1-1.2,0.3-1.7,0.4c-1.2,0.2-2.3,0.6-3.4,0.9c-1.1,0.4-2.2,0.8-3.2,1.2c-1,0.5-2.1,0.8-3,1.3c-7.9,3.8-13.7,9-17.6,12.9
				c-1.9,2-3.4,3.7-4.4,4.8c-1,1.2-1.5,1.8-1.5,1.8l-26.3-21c0,0,0.7-0.9,2-2.5c1.3-1.6,3.4-3.9,6.1-6.7c2.8-2.8,6.3-6.1,10.7-9.6
				c4.4-3.4,9.9-7,16.3-10.1c1.6-0.8,3.3-1.5,5-2.2c1.7-0.7,3.5-1.3,5.4-2c1.9-0.6,3.8-1.2,5.7-1.6c1-0.2,1.9-0.5,3-0.7
				c1.1-0.2,2.2-0.4,3.3-0.6c0.5-0.1,1.1-0.2,1.7-0.3c0.6-0.1,1.1-0.1,1.7-0.2c1.1-0.1,2.3-0.2,3.4-0.2c1.1,0,2.2-0.1,3.3-0.1
				c1.1,0,2.2,0,3.3,0.1c4.4,0.2,9,0.7,13.6,1.8c4.6,1.1,9.3,2.6,13.9,4.9c4.6,2.3,9.1,5.2,13.1,8.9c1,0.9,2,1.8,3,2.9
				c0.9,1,1.9,2.1,2.8,3.1c1.7,2.2,3.3,4.4,4.8,7l1.1,1.9l0.8,1.6l0.7,1.5l0.7,1.4l2.4,5.4c1.5,3.4,2.9,6.4,4.4,8.8
				c1.4,2.4,2.8,4.3,4,5.5c0.3,0.3,0.6,0.6,1,0.8c0.2,0.1,0.3,0.2,0.5,0.4c0.1,0.1,0.2,0.1,0.2,0.2l0.2,0.1c0.1,0.1,0.3,0.2,0.4,0.3
				l0.1,0.1c0,0,0.1,0.1,0.2,0.1l0.4,0.2c0.5,0.3,1,0.6,1.6,0.8c2.3,1.1,4.6,1.9,7,2.4c4.7,1.1,9.6,1.1,14.2,0.4
				c4.6-0.7,9.1-2.2,13-4.1c3.9-1.9,7.4-4.1,10.3-6.3c2.9-2.2,5.2-4.4,7-6.3c1.8-1.9,3.1-3.5,4-4.6c0.8-1.1,1.3-1.7,1.3-1.7
				L232.6,59.8z"/>
		</g>
	</g>
</g>
</svg>
