<?xml version="1.0" encoding="utf-8"?>
<!-- Generator: Adobe Illustrator 19.0.0, SVG Export Plug-In . SVG Version: 6.00 Build 0)  -->
<svg version="1.1" id="beachcombing_xA0_Image_1_" xmlns="http://www.w3.org/2000/svg" xmlns:xlink="http://www.w3.org/1999/xlink"
	 x="0px" y="0px" viewBox="-11 13.7 575.8 574.3" style="enable-background:new -11 13.7 575.8 574.3;" xml:space="preserve">
<style type="text/css">
	.st0{fill:#FFFF00;}
	.st1{fill:#573922;}
	.st2{fill:#FFFFFF;}
</style>
<rect x="-11" y="13.7" class="st0" width="575.8" height="574.3"/>
<rect x="34" y="58.5" class="st1" width="486" height="484.7"/>
<g>
	<path class="st2" d="M294.1,383.7h-63.7l-15-50.7h33.8V309H95.9V333h33.8l-15,50.7H51v20.8h57.2l-21.4,72.2h32.5l20.8-72.2h65
		l20.8,72.2h32.5l-21.4-72.2h57.2L294.1,383.7L294.1,383.7z M146.6,383.7l15-50.7H183l15.6,50.7H146.6z"/>
	<path class="st2" d="M321.4,169.2h-41.6l-7.8-28h20.8v-21.4H186.2v21.4H207l-7.8,28h-41.6V190h35.1l-13,42.9h26.7l12.3-42.9h41.6
		l12.3,42.9h26.7l-13-42.9h35.1L321.4,169.2L321.4,169.2z M225.2,169.2l7.8-28h13l7.8,28H225.2z"/>
	<path class="st2" d="M503.4,315.5h-50.1L443,277.8h25.4v-23.4H339.6v23.4h26l-10.4,37.7h-50.7v22.1h43.6l-16.3,52.7h29.9l15.6-52.7
		h54l15.6,52.7h29.3l-16.3-52.7h43.6L503.4,315.5L503.4,315.5z M383.8,315.5l11.1-37.7h18.9l11,37.7H383.8z"/>
</g>
</svg>
