<?xml version="1.0" encoding="utf-8"?>
<!-- Generator: Adobe Illustrator 19.0.0, SVG Export Plug-In . SVG Version: 6.00 Build 0)  -->
<svg version="1.1" id="beachcombing_xA0_Image_1_" xmlns="http://www.w3.org/2000/svg" xmlns:xlink="http://www.w3.org/1999/xlink"
	 x="0px" y="0px" viewBox="-11 13.7 575.8 574.3" style="enable-background:new -11 13.7 575.8 574.3;" xml:space="preserve">
<style type="text/css">
	.st0{fill:#FFFF00;}
	.st1{fill:#573922;}
	.st2{fill:#FFFFFF;}
</style>
<rect x="-11" y="13.7" class="st0" width="575.8" height="574.3"/>
<rect x="34" y="58.5" class="st1" width="486" height="484.7"/>
<g>
	<path class="st2" d="M286.1,479.5L180,304.7L74.6,479.5h-26v30h263.6v-30L286.1,479.5L286.1,479.5z M136.6,479.5l43.4-74.1l44,74.1
		H136.6z"/>
	<path class="st2" d="M250.7,203.9L183.3,91.8l-68.1,112.1H98.6v25.4h168.8v-25.4H250.7z M154.7,203.9l28.7-47.4l28,47.4H154.7z"/>
	<path class="st2" d="M483.6,341.4l-86.8-143.5l-86.8,143.5h-22v27.4H505v-27.4H483.6z M360.9,341.4l36-60.7l36,60.7H360.9z"/>
</g>
</svg>
