<?xml version="1.0" encoding="utf-8"?>
<!-- Generator: Adobe Illustrator 19.0.0, SVG Export Plug-In . SVG Version: 6.00 Build 0)  -->
<svg version="1.1" id="beachcombing_xA0_Image_1_" xmlns="http://www.w3.org/2000/svg" xmlns:xlink="http://www.w3.org/1999/xlink"
	 x="0px" y="0px" viewBox="-11 13.7 575.8 574.3" style="enable-background:new -11 13.7 575.8 574.3;" xml:space="preserve">
<style type="text/css">
	.st0{fill:#FFFF00;}
	.st1{fill:#573922;}
	.st2{fill:#FFFFFF;}
</style>
<rect x="-11" y="13.7" class="st0" width="575.8" height="574.3"/>
<rect x="34" y="58.5" class="st1" width="486" height="484.7"/>
<g>
	<path class="st2" d="M313.6,143.1l-5.8-5.8c-15.4-11.5-29.1-17.1-41.1-16.7c-31.7,1.3-62.1,9.4-91.2,24.3
		c-52.7,26.8-90.8,52.8-114.3,77.9l-9,9.6c0,0.9,0.4,1.7,1.3,2.6l15.4-7.1c25.3-11.6,49.2-17.3,71.9-17.3c8.1,0,12.2,1.9,12.2,5.8
		c0,2.6-1.7,5.8-5.1,9.6l-16.1,18.6c-20.1,23.6-32.1,37.7-36,42.4c-11.6,15.8-22.7,35.3-33.4,58.4c-2.1,4.7-3.9,9-5.1,12.8
		c2.1,4.3,3.6,5.8,4.5,4.5c25.3-41,60.8-82.4,106.6-124.3C219.4,192.5,267.7,160.6,313.6,143.1z M503,388.5
		c0-35.9-11.1-77.9-33.4-126.2c-12.8-28.2-26.8-52.5-41.7-73c-8.1-11.1-18.8-21.4-32.1-30.8c-16.7-12-32.3-17.9-46.9-17.9
		c-24,0-61.9,17.9-113.7,53.8c-63.4,44-121,101.8-172.8,173.6c0.4,2.1,1.9,3.6,4.5,4.5l36.6-27c19.3-14.1,42.8-28.5,70.6-43
		c59.1-30.8,104-46.2,134.9-46.2c8.1,0,19,3.6,32.8,10.9l-39.2,62.3h-16.1l-7.7-7.5c-7.7-7.5-13.3-12.1-16.7-13.7l-32.1,10.3
		l-35.3,21.2l-21.2,11.6l-39.8,30.8l-48.2,5.1l-1.9,1.9l-14.8,36l7.1,1.3l19.4-23.1l45.8,5.8l13.3-6.9l29.4-20.8l-16.7,36l-7.7,3.2
		l-38.5,19.9l-2.6,1.9l-8.3,34.7l6.4,2.6l17.3-25.7l51.4-18.6c12.8-13.3,24-27.8,33.4-43.7c4.3-7.3,8.3-14.6,12.2-21.8
		c30.4-8.1,45-13.1,43.7-14.8l23.8,31.5l47.5-33.4l34.7,9l3.9-13.5l-7.7-1.9l-4.5-59.7l12.8,9.6c44.5,33.4,80.9,66.4,109.2,98.9h4.5
		C501.5,395.6,503,393.2,503,388.5z M316.1,294.8c0-5.6-2.6-10.5-7.7-14.8c-5.1-4.3-10.9-6.4-17.3-6.4c-5.6,0-10.4,2.1-14.5,6.4
		c-4.1,4.3-6.1,9.2-6.1,14.8c0,13.7,6.2,20.6,18.6,20.6c2.1,0,4.3-2.1,6.4-6.4c0.9-1.7,2.1-3.9,3.9-6.4c1.7,0.4,4.3,0.6,7.7,0.6
		C313.1,301.4,316.1,298.6,316.1,294.8z M326.4,348.7l-21.2,11.6l-7.7-14.8l4.5-0.6L326.4,348.7z M359.8,342.3l-7.7-1.9l-3.9-8.3
		l-6.4,5.8l-19.3-5.1l-1.9-5.1l33.4-53.3l3.2,1.9L359.8,342.3z"/>
</g>
</svg>
