<?xml version="1.0" encoding="utf-8"?>
<!-- Generator: Adobe Illustrator 19.0.0, SVG Export Plug-In . SVG Version: 6.00 Build 0)  -->
<svg version="1.1" id="beachcombing_xA0_Image_1_" xmlns="http://www.w3.org/2000/svg" xmlns:xlink="http://www.w3.org/1999/xlink"
	 x="0px" y="0px" viewBox="-11 13.7 575.8 574.3" style="enable-background:new -11 13.7 575.8 574.3;" xml:space="preserve">
<style type="text/css">
	.st0{fill:#133647;}
	.st1{fill:#2A82C1;}
	.st2{fill:#FFFFFF;}
</style>
<rect x="-11" y="13.7" class="st0" width="575.8" height="574.3"/>
<rect x="34" y="58.5" class="st1" width="486" height="484.7"/>
<g>
	<path class="st2" d="M402.4,288.5L332.2,240c-7.8-33.2-15.3-55.8-22.4-67.9c-7.1-12.1-17-18.1-29.5-18.1c-9.5,0-18.4,4.9-26.6,14.6
		c-3.5,4.3-8.9,10.6-16.2,19.1l17.5-43c-6.5-9.4-17.1-13.5-31.8-12.2l-43.5,95.9c8.7,13,19.3,18.4,31.8,16.2
		c-6.1,16.9-9.1,31.5-9.1,44.1c0,10.4,3,19,9.1,25.9c-1.3,2.6-3.2,7.6-5.8,14.9l-52.6,164.6l28.6,19.4l67.5-150
		c10.8,13.4,20.3,24.5,28.6,33.1l5.8,31.8l-42.8,72.7l23.2,3.9l25.8-44.1l8.4,49.3l43.2-8.4l-19.5-97.4l57.8-99.3l9.7,5.2
		L402.4,288.5z M360.8,296.2l-46.7,81.2c-8.7-36.4-20.8-65.1-36.4-86.3c7.8-13,14.7-26,20.8-39l7.8,17.5L360.8,296.2z M341.3,118.6
		c0-8.6-2.9-15.7-8.8-21.5c-5.8-5.8-13.1-8.7-21.7-8.7c-8.2,0-15.4,2.9-21.4,8.7c-6.1,5.8-9.1,13-9.1,21.5c0,8.1,3,15.2,9.1,21.2
		c6.1,6,13.2,9,21.4,9c8.7,0,15.9-3,21.7-9C338.4,133.9,341.3,126.8,341.3,118.6z"/>
</g>
</svg>
