<?xml version="1.0" encoding="utf-8"?>
<!-- Generator: Adobe Illustrator 19.0.0, SVG Export Plug-In . SVG Version: 6.00 Build 0)  -->
<svg version="1.1" id="beachcombing_xA0_Image_1_" xmlns="http://www.w3.org/2000/svg" xmlns:xlink="http://www.w3.org/1999/xlink"
	 x="0px" y="0px" viewBox="-11 13.7 575.8 574.3" style="enable-background:new -11 13.7 575.8 574.3;" xml:space="preserve">
<style type="text/css">
	.st0{fill:#FFFF00;}
	.st1{fill:#573922;}
	.st2{fill:#FFFFFF;}
</style>
<rect x="-11" y="13.7" class="st0" width="575.8" height="574.3"/>
<rect x="34" y="58.5" class="st1" width="486" height="484.7"/>
<path class="st2" d="M314.4,266.1c-1.9-1.5-6.1-4.6-12.5-9.2c-2.3-1.9-5.7-4.4-10.3-7.5l-2.9-1.7l1.7-1.1l23.4,17.2l20.5-18.3
	L294.4,210c-1.2-10.3-4-26.3-8.6-48.1h-15.4c-3,0-9.5-4.9-19.4-14.9c-11.8,12.6-21.1,37.6-28,75l-1.7,9.2c0,1.9-0.4,5.4-1.1,10.3
	v-1.7c-0.4,1.9-0.6,5.5-0.6,10.9c0,1.9-1.5,4.8-4.6,8.6c-0.8,1.1-4,1.7-9.7,1.7c-4.2,0-10.7-0.5-19.4-1.4
	c-8.8-0.9-15.2-1.4-19.4-1.4c-19,0-35.4,4.4-49.1,13.2c-16.4,10.3-24.5,24.4-24.5,42.4c0,2.7,0.5,6.6,1.4,11.7
	c0.9,5.2,1.4,9.1,1.4,11.7c-0.4,1.5-1.1,6.1-2.3,13.7c-1.9,12.6-8.4,24.8-19.4,36.7c16.4-1.1,28.5-4.6,36.5-10.3
	c-3.4,5.3-8.2,10.5-14.3,15.5c-1.1,27.1-5,48.5-11.4,64.1l-10.3,6.3l13.1,41.2c9.5-9.6,19.8-17.6,30.8-24c0.8-4.2,1.9-7.3,3.4-9.2
	l4.6-5.7c1.9-4.2,2.9-8,2.9-11.4c0-7.3,2.7-19.7,8-37.2l2.3-1.7c4.9-3.8,8-6.5,9.1-8l16-24c3,4.9,4.6,11.8,4.6,20.5v6.3
	c0,3.4,3.4,10.2,10.3,20.5c11,16.7,16.6,28.5,16.6,35.3c0,1.1,0,2.3,0,3.4c0,3,2.4,5.5,7.3,7.4l1.1,0.6c2.6,8,6.4,11.9,11.3,11.9
	h28.8c7.2,0,10.7-3.6,10.7-10.8c0-3.4-3-7.4-9.1-12l-6.8-8.6c-2.3-1.1-4.6-3.6-6.9-7.4c-1.1-2.7-2.7-7-4.6-13.1
	c-8-17.1-12-34.2-12-51.3c0-3.8,0.4-8.9,1.1-15.4c0.4,1.1,2.7,2.5,6.9,4.3c16.3,2.1,35.6,3.7,57.7,4.8l4,32.3l-8.6,16.2l-3.4,5.2
	c-0.4,0.4-1.5,1.1-3.4,2.3c-2.7,2.3-5.3,6.3-8,12.1l-0.6,1.7c-0.4-0.4-1.1-0.8-2.3-1.2l-9.1,14.3c6.1,5,18.6,15.7,37.7,32.1
	c3-8.4,4.7-14.7,5.1-18.9c0-1.9,0.2-5.5,0.6-10.9c0.8-0.4,1.7-0.7,2.9-1.1c2.6-5.7,8-12.8,15.9-21.2c5-4.2,10.5-10.7,16.6-19.5
	l-1.7-32.7c3.8,7.7,8.6,16.8,14.3,27.5c14.1,10.7,21.5,28.4,22.3,53.3c8.8,0.8,13.5,6.7,14.3,17.7H424c1.2-8-5-18.7-18.3-32
	c-0.4-0.8-1-2.1-1.7-4l-5.7-13.1c-3.8-8.8-9.3-22.4-16.5-40.7l-5.7-39c0.4-1.9,1.5-5.1,3.4-9.7l5.1-19.5c0.4-0.8,2.1-2.7,5.2-5.7
	l27.4,20.8c6.1,4.5,11.6,6.7,16.6,6.7c8.4,0,15.2-5.7,20.6-17.1c5.3,0,11.1-2.8,17.4-8.3c6.3-5.5,9.4-10.9,9.4-16.3l-15.4-38.8
	l-10.3-27.4c3.1-6.5,4.6-16.2,4.6-29.1l-15.4,6.3c-1.2-0.8-2.9-1.1-5.1-1.1c-5,3.1-9,6.9-12,11.5h-1.1c-6.9,0.8-34.8,7.3-83.9,19.5
	l-6.9-5.2l-15.4,13.7L314.4,266.1z M279,97.2c-20.2,2.3-30.3,12.8-30.3,31.5c0,8.4,3,15.7,9.1,21.8c6.1,6.1,13.3,9.2,21.7,9.2
	c8.4,0,15.9-3.1,22.6-9.4c6.6-6.3,9.6-13.6,8.9-22c-1.2-11.1-4.4-18.5-9.7-22.3C292.5,99.3,285.1,96.4,279,97.2z M437.7,326.2
	c-2.3,0-4.8-0.9-7.4-2.9l-27.4-18.9c4.2-2.3,8.2-3.6,12-4c6.5,7.3,13.5,11.8,21.1,13.7c1.2,1.5,2.5,3.8,4,6.9
	c1.1,1.1,1.7,2.1,1.7,2.9C441.3,325.5,440,326.2,437.7,326.2z"/>
</svg>
