<?xml version="1.0" encoding="utf-8"?>
<!-- Generator: Adobe Illustrator 19.0.0, SVG Export Plug-In . SVG Version: 6.00 Build 0)  -->
<svg version="1.1" id="beachcombing_xA0_Image_1_" xmlns="http://www.w3.org/2000/svg" xmlns:xlink="http://www.w3.org/1999/xlink"
	 x="0px" y="0px" viewBox="-11 13.7 575.8 574.3" style="enable-background:new -11 13.7 575.8 574.3;" xml:space="preserve">
<style type="text/css">
	.st0{fill:#FFFF00;}
	.st1{fill:#573922;}
	.st2{fill:#FFFFFF;}
</style>
<rect x="-11" y="13.7" class="st0" width="575.8" height="574.3"/>
<rect x="34" y="58.5" class="st1" width="486" height="484.7"/>
<path class="st2" d="M315.2,265.3c-1.9-1.6-6.2-4.7-12.8-9.4c-2.3-2-5.9-4.5-10.5-7.6l-2.9-1.8l1.8-1.2l24,17.6l21-18.8l-40.9-36.4
	c-1.2-10.6-4.1-27-8.8-49.3h-15.8c-3.1,0-9.7-5.1-19.9-15.2c-12.1,12.9-21.6,38.5-28.7,76.8l-1.8,9.4c0,2-0.4,5.5-1.2,10.6v-1.8
	c-0.4,2-0.6,5.7-0.6,11.1c0,2-1.6,4.9-4.7,8.8c-0.8,1.2-4.1,1.8-9.9,1.8c-4.3,0-10.9-0.5-19.9-1.5c-9-1-15.6-1.5-19.9-1.5
	c-19.5,0-36.3,4.5-50.3,13.5c-16.8,10.6-25.1,25-25.1,43.4c0,2.7,0.5,6.7,1.5,12c1,5.3,1.5,9.3,1.5,12c-0.4,1.6-1.2,6.3-2.3,14.1
	c-2,12.9-8.6,25.4-19.9,37.5c16.8-1.2,29.2-4.7,37.4-10.6c-3.5,5.5-8.4,10.8-14.6,15.8c-1.2,27.8-5.1,49.7-11.7,65.7L69.6,467
	l13.5,42.2c9.7-9.8,20.3-18,31.6-24.6c0.8-4.3,1.9-7.4,3.5-9.4l4.7-5.9c2-4.3,2.9-8.2,2.9-11.7c0-7.4,2.7-20.2,8.2-38.1l2.3-1.7
	c5.1-3.9,8.2-6.6,9.4-8.2l16.4-24.6c3.1,5,4.7,12.1,4.7,21v6.4c0,3.5,3.5,10.5,10.5,21c11.3,17.1,17,29.2,17,36.2c0,1.1,0,2.3,0,3.5
	c0,3.1,2.5,5.6,7.5,7.6l1.2,0.6c2.7,8.2,6.6,12.2,11.6,12.2H244c7.3,0,11-3.7,11-11.1c0-3.5-3.1-7.6-9.4-12.3l-7-8.8
	c-2.3-1.2-4.7-3.7-7-7.6c-1.2-2.7-2.7-7.2-4.7-13.4c-8.2-17.5-12.3-35-12.3-52.5c0-3.9,0.4-9.2,1.2-15.8c0.4,1.1,2.7,2.6,7,4.4
	c16.7,2.2,36.5,3.8,59.1,5l4.1,33.1l-8.8,16.6l-3.5,5.3c-0.4,0.4-1.6,1.2-3.5,2.3c-2.7,2.3-5.5,6.5-8.2,12.4l-0.6,1.8
	c-0.4-0.4-1.2-0.8-2.3-1.2l-9.4,14.7c6.2,5.1,19.1,16,38.6,32.9c3.1-8.6,4.9-15.1,5.3-19.4c0-2,0.2-5.7,0.6-11.2
	c0.8-0.4,1.7-0.7,2.9-1.1c2.7-5.9,8.2-13.1,16.3-21.7c5.1-4.3,10.7-10.9,17-19.9l-1.7-33.4c3.9,7.8,8.8,17.2,14.6,28.2
	c14.4,11,22,29.1,22.8,54.6c9,0.8,13.8,6.8,14.6,18.2h46.8c1.2-8.2-5.1-19.1-18.7-32.8c-0.4-0.8-1-2.1-1.7-4.1l-5.9-13.5
	c-3.9-9-9.5-22.9-16.9-41.6l-5.9-39.9c0.4-1.9,1.5-5.3,3.5-10l5.3-19.9c0.4-0.8,2.1-2.7,5.3-5.9l28,21.3c6.3,4.6,11.9,6.9,17,6.9
	c8.6,0,15.6-5.8,21.1-17.5c5.5,0,11.4-2.8,17.8-8.5c6.5-5.6,9.7-11.2,9.7-16.7l-15.8-39.7l-10.6-28c3.1-6.6,4.7-16.6,4.7-29.8
	l-15.8,6.4c-1.2-0.8-2.9-1.2-5.3-1.2c-5.1,3.1-9.2,7-12.3,11.7h-1.2c-7,0.8-35.7,7.4-85.9,19.9l-7-5.3l-15.8,14.1L315.2,265.3z
	 M279,92.2c-20.7,2.3-31,13.1-31,32.3c0,8.6,3.1,16,9.4,22.3c6.2,6.3,13.7,9.4,22.2,9.4c8.6,0,16.3-3.2,23.1-9.7
	c6.8-6.5,9.8-14,9.1-22.6c-1.2-11.3-4.5-19-10-22.9C292.8,94.4,285.2,91.5,279,92.2z M441.6,326.8c-2.3,0-4.9-1-7.6-2.9l-28.1-19.4
	c4.3-2.3,8.4-3.7,12.3-4.1c6.6,7.4,13.8,12.1,21.6,14.1c1.2,1.6,2.5,3.9,4.1,7c1.1,1.2,1.7,2.2,1.7,2.9
	C445.3,326.1,443.9,326.8,441.6,326.8z"/>
</svg>
