<?xml version="1.0" encoding="utf-8"?>
<!-- Generator: Adobe Illustrator 19.0.0, SVG Export Plug-In . SVG Version: 6.00 Build 0)  -->
<svg version="1.1" id="beachcombing_xA0_Image_1_" xmlns="http://www.w3.org/2000/svg" xmlns:xlink="http://www.w3.org/1999/xlink"
	 x="0px" y="0px" viewBox="-11 13.7 575.8 574.3" style="enable-background:new -11 13.7 575.8 574.3;" xml:space="preserve">
<style type="text/css">
	.st0{fill:#FFFF00;}
	.st1{fill:#573922;}
	.st2{fill:#FFFFFF;}
</style>
<rect x="-11" y="13.7" class="st0" width="575.8" height="574.3"/>
<rect x="34" y="58.5" class="st1" width="486" height="484.7"/>
<g>
	<path class="st2" d="M215.5,224.4H60.9v-14.6h15.6l61.4-101.7l61.9,101.7h15.6L215.5,224.4L215.5,224.4z M319.3,264.2l6-4
		l16.1-14.6l7.1,5c25.5-6,45.4-10.7,59.7-14.1c14.3-3.4,23.1-5.4,26.4-6h1c1.7-2.3,3.5-4.5,5.5-6.5c2-2,4.4-3.7,7.1-5c1,0,2,0,3,0
		c1,0,1.7,0.3,2,1l16.1-6.5c0,6.7-0.4,12.5-1.3,17.4c-0.8,4.9-1.9,9-3.3,12.3l10.1,28.2l16.1,40.3c0,3-0.8,5.9-2.5,8.6
		c-1.7,2.7-4.2,5.5-7.6,8.6c-3.4,2.7-6.5,4.8-9.3,6.3c-2.9,1.5-5.6,2.3-8.3,2.3c-3,6-6.2,10.5-9.6,13.3c-3.4,2.9-7.2,4.3-11.6,4.3
		c-2.7,0-5.5-0.5-8.3-1.5c-2.9-1-5.8-2.7-8.8-5l-28.7-21.7c-1.3,1.3-2.4,2.5-3.3,3.5c-0.8,1-1.4,1.7-1.8,2l-5,20.1
		c-1,2.7-1.8,4.8-2.3,6.3c-0.5,1.5-0.9,2.9-1.3,4.3l5.5,39.8c3.7,9.7,7,18.1,9.8,25.2c2.8,7.1,5.3,12.8,7.3,17.1l5.5,13.6
		c0.3,1,0.6,1.8,0.8,2.5c0.2,0.7,0.4,1.2,0.8,1.5c6.7,6.7,11.7,12.8,14.9,18.4c3.2,5.5,4.4,10.5,3.8,14.9h-46.8
		c-0.3-6-1.8-10.6-4.3-13.6c-2.5-3-6-4.7-10.3-5c-0.3-13.1-2.4-24.3-6-33.5c-3.7-9.2-9.2-16.5-16.6-21.9c-2.7-5.4-5.2-10.5-7.6-15.4
		c-2.4-4.9-4.5-9.1-6.5-12.8l1.5,34.2c-3.4,4.4-6.5,8.2-9.3,11.6c-2.9,3.4-5.5,6-7.8,8.1c-4,4.7-7.5,8.8-10.3,12.3
		c-2.9,3.5-5,7-6.3,10.3c-0.7,0-1.3,0.1-1.8,0.3c-0.5,0.2-0.9,0.4-1.3,0.8c-0.3,2.7-0.5,5-0.5,6.8c0,1.8,0,3.3,0,4.3
		c0,2-0.5,4.7-1.5,8.1c-1,3.4-2.2,7.2-3.5,11.6c-10.1-8.4-18.3-15.4-24.7-20.9c-6.4-5.5-11.1-9.6-14.1-12.3l9.1-14.6
		c1,0,1.7,0.1,2,0.3c0.3,0.2,0.5,0.4,0.5,0.8l0.5-2c1.3-3,2.8-5.5,4.3-7.6c1.5-2,2.9-3.7,4.3-5c1-0.7,1.8-1.2,2.3-1.5
		c0.5-0.3,0.9-0.7,1.3-1l3.5-5l9.1-17.1l-4.5-33.7c-11.1-0.3-21.6-1-31.5-2c-9.9-1-19.1-2-27.4-3c-2.4-1-4.1-1.8-5.3-2.5
		c-1.2-0.7-1.9-1.3-2.3-2c-0.3,3.4-0.6,6.4-0.8,9.1c-0.2,2.7-0.3,5-0.3,7.1c0,8.7,1,17.5,3,26.4c2,8.9,5.2,17.7,9.6,26.4
		c1,3,1.8,5.7,2.5,8.1c0.7,2.4,1.3,4.2,2,5.5c1.3,2,2.5,3.7,3.5,5c1,1.3,2.2,2.2,3.5,2.5l8.6,11.1c3,2.4,5.3,4.5,6.8,6.5
		c1.5,2,2.3,3.9,2.3,5.5c0,4-0.9,7-2.8,8.8c-1.8,1.8-4.5,2.8-7.8,2.8H219c-2.4,0-4.5-1.1-6.5-3.3c-2-2.2-3.7-5.3-5-9.3l-1-0.5
		c-2.7-1-4.7-2.2-6-3.5c-1.3-1.3-2-2.7-2-4c0-0.7,0-1.3,0-2c0-0.7,0-1.2,0-1.5c0-3.7-1.4-8.6-4.3-14.6c-2.9-6-7.1-13.4-12.8-22.2
		c-3.4-5-6-9.4-7.8-13.1c-1.9-3.7-2.8-6.4-2.8-8.1v-6.5c0-4.4-0.4-8.4-1.3-12.1c-0.8-3.7-1.9-6.7-3.3-9.1l-16.6,24.7
		c-0.7,0.7-1.8,1.7-3.3,3c-1.5,1.3-3.4,3-5.8,5l-3,1.5c-2.7,9.4-4.7,17.3-6,23.7c-1.3,6.4-2,11.4-2,15.1c0,1.7-0.3,3.5-0.8,5.5
		c-0.5,2-1.3,4.2-2.3,6.5l-4.5,6c-1,0.7-1.8,1.8-2.3,3.5c-0.5,1.7-0.9,3.5-1.3,5.5c-5.7,3.4-11.3,7.1-16.6,11.3
		c-5.4,4.2-10.6,8.8-15.6,13.9l-13.6-42.8l10.6-7.1c3.4-8.1,6-17.6,8.1-28.7c2-11.1,3.2-23.7,3.5-37.8c3.4-2.7,6.2-5.3,8.6-7.8
		c2.3-2.5,4.4-5.3,6-8.3c-4,3.4-9.2,5.9-15.4,7.6c-6.2,1.7-13.7,2.9-22.4,3.5c5.7-6.4,10.2-12.8,13.6-19.1
		c3.4-6.4,5.5-12.8,6.5-19.1c1-4,1.7-7.2,2-9.6c0.3-2.3,0.5-4,0.5-5c0-1.3-0.1-3-0.3-5c-0.2-2-0.6-4.4-1.3-7.1c-0.3-3-0.7-5.5-1-7.6
		c-0.3-2-0.5-3.7-0.5-5c0-9.1,2.1-17.3,6.3-24.7c4.2-7.4,10.5-13.8,18.9-19.1c7.1-4.7,14.9-8.1,23.4-10.3c8.6-2.2,17.7-3.3,27.4-3.3
		c2.3,0,5.2,0.1,8.6,0.3c3.4,0.2,7.2,0.6,11.6,1.3c4.7,0.3,8.7,0.7,12.1,1c3.4,0.3,6,0.5,8.1,0.5c2.7,0,4.9-0.2,6.5-0.5
		c1.7-0.3,2.7-0.7,3-1c1.7-2,2.8-3.8,3.5-5.3c0.7-1.5,1-2.8,1-3.8c0-2.7,0.1-5,0.3-6.8c0.2-1.8,0.3-3.3,0.3-4.3v1.5
		c0.3-2.7,0.6-5,0.8-6.8c0.2-1.8,0.3-3.3,0.3-4.3l2-9.1c3.4-19.5,7.4-35.8,12.1-48.9c4.7-13.1,10.2-22.8,16.6-29.2
		c5,5.4,9.2,9.3,12.6,11.8c3.4,2.5,5.9,3.8,7.6,3.8H290c2,11.4,3.8,21.2,5.3,29.5c1.5,8.2,2.6,15,3.3,20.4l41.3,36.8l-21.2,19.1
		l-24.2-18.1l-1.5,1l3,1.5c2.3,1.7,4.3,3.1,5.8,4.3c1.5,1.2,2.9,2.4,4.3,3.8c3.4,2,6.1,3.9,8.3,5.5
		C316.6,262.4,318.2,263.6,319.3,264.2z M164.1,209.3l-26.2-42.8l-25.2,42.8H164.1z M283,89c3-0.3,6.5,0.3,10.3,1.8
		c3.9,1.5,8.1,3.8,12.8,6.8c2.7,2,4.9,5,6.5,8.8c1.7,3.9,2.8,8.6,3.5,14.4c0.3,4.4-0.3,8.4-2,12.1c-1.7,3.7-4.2,7.2-7.6,10.6
		c-3.4,3.4-7,5.9-10.8,7.6c-3.9,1.7-8,2.5-12.3,2.5c-4,0-8-0.8-11.8-2.3c-3.9-1.5-7.3-3.9-10.3-7.3c-3-3.4-5.3-6.9-6.8-10.6
		c-1.5-3.7-2.3-7.7-2.3-12.1c0-9.4,2.5-16.8,7.6-22.2C264.9,93.7,272.6,90.3,283,89z M446.2,326.7c1.3,0,2.3-0.3,3-0.8
		c0.7-0.5,0.8-0.9,0.5-1.3c0-0.7-0.2-1.3-0.5-1.8c-0.3-0.5-0.7-0.9-1-1.3c-0.7-1.7-1.4-3.1-2.3-4.3c-0.8-1.2-1.4-2.3-1.8-3.3
		c-4-1-7.8-2.7-11.3-5c-3.5-2.3-7-5.4-10.3-9.1c-2,0-4.1,0.3-6.3,1c-2.2,0.7-4.3,1.7-6.3,3l28.2,19.6c1.3,1,2.7,1.8,4,2.3
		C443.5,326.4,444.8,326.7,446.2,326.7z"/>
</g>
</svg>
