<?xml version="1.0" encoding="utf-8"?>
<!-- Generator: Adobe Illustrator 19.0.0, SVG Export Plug-In . SVG Version: 6.00 Build 0)  -->
<svg version="1.1" id="beachcombing_xA0_Image_1_" xmlns="http://www.w3.org/2000/svg" xmlns:xlink="http://www.w3.org/1999/xlink"
	 x="0px" y="0px" viewBox="-11 13.7 575.8 574.3" style="enable-background:new -11 13.7 575.8 574.3;" xml:space="preserve">
<style type="text/css">
	.st0{fill:#FFFF00;}
	.st1{fill:#573922;}
	.st2{fill:#FFFFFF;}
</style>
<rect x="-11" y="13.7" class="st0" width="575.8" height="574.3"/>
<rect x="34" y="58.5" class="st1" width="486" height="484.7"/>
<g>
	<path class="st2" d="M86.1,228.7c9.8,9.6,21.2,15.9,34.2,18.7c13,2.9,25.9,1.9,38.7-3c12.8-4.9,22.4-14.1,28.9-27.6
		c8.8-18.2,9-35.5,0.8-51.9c-8.3-16.4-18.8-27.3-31.7-32.7c-4.4-1.7-10.2-2.7-17.5-3c-7.3-0.3-13.4-0.2-18.5,0.5
		c-14.2,2.4-26.2,9.2-36,20.5c-9.8,11.3-14.5,24.9-14.2,40.8C71.3,206.5,76.3,219.1,86.1,228.7z"/>
	<path class="st2" d="M500.4,227.9c-5.1-1.7-9-0.8-11.9,2.5c-2.9,3.4-6.3,5.6-10.4,6.6c-6.1,1.4-13.3,1.7-21.5,1
		c-8.3-0.7-16.5-1-24.6-1c-23,0-46.8,0.1-71.7,0.3c-24.8,0.2-47-0.8-66.6-2.8c8.1-3,18.1-4.1,29.9-3c11.8,1,22.6,1.2,32.4,0.5
		c1-3.4,1.5-8.1,1.5-14.2c0-6.1-0.5-11-1.5-14.7c-25,0-49.9,0-74.7,0c-24.8,0-49.7,0-74.7,0c-2.4,2.4-3.3,6.9-2.8,13.7
		c0.5,6.8,1.1,11.8,1.8,15.2c5.4,0.7,11.7,0.5,19-0.5c7.3-1,12.6,0,16,3c-9.1,4.1-17.9,4.8-26.3,2.3c-8.4-2.5-16.7-2.1-24.8,1.3
		c-5.1,2-8.8,5.7-11.1,11.1c-2.4,5.4-5.7,8.8-10.1,10.1c-11.8,3.4-26.9,3.7-45.3,1c-18.4-2.7-33.2-3-44.3-1
		c-17.2,3.4-25.1,16-23.5,38c1.5,22,2.8,42.9,3.8,62.8c0.7,17.6,1.3,35,2,52.4c0.7,17.4,1.7,34.4,3,50.9c21.3,0,42.7,0,64.3,0
		c21.6,0,43.2,0,64.8,0c0.3-18.2,0.6-36.5,0.8-54.7c0.2-18.2,0.8-36.1,1.8-53.7c8.8,2,16.9,6,24.3,11.9c7.4,5.9,15.5,8.2,24.3,6.8
		c3.4-0.3,7.7-2.8,12.9-7.3c5.2-4.6,9.7-8.4,13.4-11.4c12.2-10.5,24.7-21.5,37.7-33.2c13-11.6,24.9-21.7,35.7-30.1
		c0-3,0.2-6.2,0.5-9.4c0.3-3.2,0.8-6,1.5-8.4c7.1-0.3,14.3-0.8,21.5-1.3c7.3-0.5,14.6-0.9,22-1.3c2.7-1.7,4.7-4.3,6.1-7.9
		c1.3-3.5,3.9-5.8,7.6-6.8c12.5-3.7,28.5-4,48.1-0.8c19.6,3.2,36.5,3.5,50.6,0.8c-0.3-4.7-0.3-9.8,0-15.2
		C502.2,236.2,501.7,231.6,500.4,227.9z M213.7,288.7c1.7-2,2.7-4.7,3-8.1c11.1-0.3,22.1-0.8,32.9-1.5c10.8-0.7,21.4-1.5,31.9-2.5
		c-6.4,6.1-12.9,11.9-19.5,17.5c-6.6,5.6-13.4,11.1-20.5,16.5c-5.1-3-10.4-5.7-16-8.1c-5.6-2.4-11.1-4.7-16.5-7.1
		C210.5,292.9,212,290.7,213.7,288.7z"/>
</g>
</svg>
