<?xml version="1.0" encoding="utf-8"?>
<!-- Generator: Adobe Illustrator 21.0.0, SVG Export Plug-In . SVG Version: 6.00 Build 0)  -->
<svg version="1.1" id="Layer_1" xmlns="http://www.w3.org/2000/svg" xmlns:xlink="http://www.w3.org/1999/xlink" x="0px" y="0px"
	 viewBox="0 0 277.5 87" style="enable-background:new 0 0 277.5 87;" xml:space="preserve">
<style type="text/css">
	.st0{fill:#010202;}
	.st1{fill:#015938;}
</style>
<g>
	<g>
		<g>
			<path class="st0" d="M141.9,18.8c0,0.5,0,1,0.1,1.5c0,0.6,0.1,1.1,0.3,1.6h0c0.4-0.5,0.7-1.1,1-1.7c0.2-0.4,0.4-0.9,0.6-1.3
				c0.4-1,0.7-2,1-3c0.3-1,0.5-2,0.6-3c0.1-0.5,0.1-0.9,0.2-1.4v0c0.1-0.4,0.1-0.9,0.1-1.3V10c0-0.3,0-0.6-0.1-0.9
				c0-0.3-0.1-0.6-0.2-0.9h0c-0.1-0.2-0.2-0.5-0.3-0.6c-0.1-0.2-0.3-0.3-0.6-0.3c-0.1,0-0.1,0-0.2,0h0c-0.3,0-0.5,0.1-0.7,0.3
				c-0.2,0.2-0.4,0.4-0.5,0.7c-0.2,0.3-0.3,0.6-0.4,1c-0.1,0.4-0.3,0.8-0.3,1.2c-0.2,1-0.4,2-0.5,3.1c-0.1,1.2-0.2,2.4-0.2,3.6v0
				C141.9,17.6,141.9,18.2,141.9,18.8L141.9,18.8z M121.5,28.7c0,0.2,0.1,0.5,0.1,0.7c0,0.2,0.1,0.4,0.2,0.5h0
				c0.1,0.1,0.2,0.3,0.3,0.4c0.1,0.1,0.2,0.2,0.4,0.2c0,0,0.1,0,0.1,0v0c0.1,0,0.2,0,0.2,0c0.1,0,0.2-0.1,0.2-0.1v0
				c0.2-0.1,0.4-0.2,0.6-0.3v0c0.5-0.3,0.9-0.7,1.3-1.1c0.4-0.5,0.8-1,1.1-1.6c0.3-0.5,0.6-1.1,0.8-1.7v0c0.2-0.5,0.4-1.1,0.5-1.7
				c0.1-0.5,0.2-0.9,0.3-1.4c0-0.2,0.1-0.4,0.1-0.6h0c0-0.2,0-0.3,0-0.4v-0.1c0-0.1,0-0.1,0-0.2c0-0.2-0.1-0.3-0.2-0.5
				c-0.1-0.1-0.2-0.3-0.3-0.4c-0.1-0.1-0.3-0.2-0.4-0.3v0c-0.2-0.1-0.3-0.1-0.5-0.1h0c-0.3,0-0.5,0.1-0.8,0.2
				c-0.3,0.1-0.6,0.3-0.9,0.5c-0.3,0.3-0.6,0.6-0.9,0.9c-0.3,0.4-0.6,0.8-0.9,1.3c-0.2,0.4-0.5,0.9-0.6,1.4
				c-0.2,0.4-0.3,0.9-0.4,1.4c-0.1,0.4-0.2,0.9-0.2,1.3c-0.1,0.4-0.1,0.7-0.1,1.1h0c0,0,0,0,0,0.1C121.5,28.4,121.5,28.6,121.5,28.7
				 M81.4,30.3c0,0.5,0.2,1,0.5,1.3c0.1,0.2,0.3,0.4,0.6,0.5c0.2,0.1,0.5,0.2,0.7,0.2c0,0,0.1,0,0.2,0c0.2,0,0.4-0.1,0.6-0.2
				c0.2-0.1,0.4-0.3,0.6-0.5c0.2-0.2,0.4-0.4,0.5-0.6c0.2-0.2,0.3-0.5,0.5-0.8c0.3-0.6,0.6-1.2,0.7-1.9v0c0.1-0.3,0.1-0.6,0.2-1v0
				c0.1-0.3,0.1-0.7,0.1-1c0-0.1,0-0.2,0-0.3c-0.3-0.2-0.6-0.4-0.9-0.6c-0.3-0.2-0.6-0.5-1-0.7c-0.1-0.1-0.2-0.2-0.3-0.3
				c-0.1-0.1-0.1-0.1-0.2-0.2l-0.8-0.8H83c-0.3,0.4-0.5,0.9-0.8,1.4c-0.2,0.4-0.4,0.8-0.5,1.3c-0.3,0.8-0.4,1.7-0.4,2.5V30.3z
				 M32.6,30.9c0,0.2,0.1,0.5,0.1,0.7c0,0.2,0.1,0.4,0.2,0.5c0.1,0.2,0.2,0.3,0.3,0.4c0.1,0.1,0.3,0.2,0.4,0.2c0,0,0.1,0,0.1,0h0h0
				c0.2,0,0.3-0.1,0.5-0.1c0.2-0.1,0.4-0.2,0.6-0.3c0.3-0.2,0.6-0.4,0.8-0.7c0.3-0.3,0.6-0.6,0.8-0.9c0.3-0.4,0.5-0.7,0.8-1.1
				c0.3-0.4,0.5-0.9,0.7-1.4c0.2-0.4,0.4-0.8,0.5-1.2c0.2-0.4,0.3-0.7,0.4-1.1h0c0.1-0.3,0.2-0.7,0.2-1c0.1-0.3,0.1-0.6,0.1-0.9v0v0
				c0-0.2,0-0.4-0.1-0.7c0-0.2-0.1-0.4-0.2-0.6c-0.2-0.4-0.4-0.8-0.8-1.1c-0.1,0-0.2,0-0.3,0h0c-0.2,0-0.3,0-0.4,0.1
				c-0.2,0-0.3,0.1-0.4,0.2c-0.3,0.2-0.6,0.4-0.9,0.6c-0.3,0.3-0.6,0.6-0.9,0.9c-0.3,0.3-0.6,0.7-0.8,1.1c-0.5,0.8-1,1.7-1.3,2.6h0
				c-0.2,0.5-0.3,1-0.4,1.4c-0.1,0.5-0.1,1-0.1,1.5v0C32.5,30.3,32.5,30.6,32.6,30.9 M25.3,7.7L25.3,7.7c-0.1,5.2-0.4,10.4-0.7,15.5
				c-0.1,1.9-0.2,3.8-0.2,5.7c0,1.5,0,3,0.1,4.6c0,0.1,0,0.3,0,0.4c0,0.1,0,0.1,0,0.2c0,0.6-0.1,1.3-0.3,1.8c-0.2,0.6-0.6,1.1-1,1.4
				c-0.6,0.4-1.2,0.7-1.8,1.1c-0.5,0.3-1,0.5-1.6,0.7c-0.5,0.2-1,0.3-1.5,0.3c0,0-0.1,0-0.1,0c-0.3,0-0.6-0.1-0.9-0.3
				c-0.2-0.1-0.3-0.3-0.4-0.5v0c-0.2-0.3-0.4-0.7-0.6-1c-0.6-1.2-1.2-2.3-1.7-3.5c-0.4-1-0.9-2-1.3-3c-1.1-2.2-2.1-4.4-3.1-6.7
				c-0.5-1.1-1-2.2-1.5-3.3c-0.1-0.3-0.3-0.6-0.4-0.8c0-0.1-0.1-0.1-0.1-0.2h0c0,0,0,0,0,0v0c0,0,0,0,0,0h0c0,0,0,0-0.1,0v0
				c-0.2,0-0.3,0.1-0.5,0.1c0.1,4.9,0.2,9.9,0.3,14.8v0.6v0c0,0.1,0,0.2,0,0.3c0,0.5,0,0.9-0.1,1.4c0,0.2-0.1,0.4-0.1,0.6
				c0,0.1-0.1,0.3-0.2,0.4h0c-0.2,0.3-0.5,0.5-0.8,0.7h0c-0.4,0.3-0.9,0.6-1.4,0.9h0c-0.5,0.3-1.1,0.6-1.7,0.8
				c-0.5,0.2-1.1,0.3-1.6,0.3c-0.1,0-0.1,0-0.1,0c-0.7,0-1.4-0.5-1.6-1.2c0-0.2-0.1-0.5-0.1-0.7c0-0.5,0-0.9-0.1-1.4v0
				c0-1.5,0-2.9,0-4.4c0-4.1,0.1-8.3,0.1-12.4c0-2.4,0.1-4.8,0.1-7.3c0-1.2,0.1-2.4,0.2-3.6c0.1-0.9,0.2-1.8,0.3-2.6
				C0.8,6.8,1,6.2,1.2,5.7c0.1-0.2,0.2-0.3,0.3-0.5C1.6,5.1,1.7,5,1.8,4.9l0.7-0.3C3,4.4,3.5,4.1,3.9,3.8c0.3-0.2,0.6-0.3,1-0.5v0
				c0.3-0.1,0.6-0.1,0.9-0.1v0c0.7,0,1.3,0.3,1.9,0.7C8,4.3,8.3,4.7,8.6,5.1v0C9,5.8,9.4,6.6,9.8,7.3c1.6,3.3,3.1,6.6,4.7,9.9
				c0.4,0.9,0.9,1.8,1.3,2.7c0.2,0.4,0.4,0.8,0.7,1.2c0.1,0,0.1,0,0.2,0h0c0.1,0,0.1,0,0.2,0h0c0,0,0.1-0.1,0.1-0.1
				c0-0.1,0.1-0.1,0.1-0.2c0-0.3,0.1-0.5,0.1-0.8c0-2.7,0.1-5.5,0.3-8.2c0-0.5,0.1-1.1,0.1-1.6c0-1.3,0.1-2.6,0.2-3.9
				c0-0.4,0.1-0.8,0.1-1.2C18,5,18,4.7,18.1,4.5v0c0.2-0.5,0.5-0.9,1-1.1c0.4-0.2,0.9-0.4,1.4-0.4c0.8,0,1.5,0.2,2.2,0.6
				C23.4,4,24,4.5,24.5,5.1c0.2,0.3,0.4,0.7,0.5,1.1c0.1,0.4,0.2,0.9,0.2,1.3C25.3,7.6,25.3,7.7,25.3,7.7 M153.7,30.5L153.7,30.5
				c-0.3,1.9-0.9,3.7-1.8,5.3c-0.4,0.8-0.9,1.6-1.6,2.2c-0.7,0.5-1.6,1-2.4,1.3c-0.7,0.2-1.4,0.4-2,0.4c-1.2,0-2.3-0.4-3.4-1v0
				c-1-0.6-1.9-1.5-2.7-2.4c-0.3-0.4-0.6-0.8-0.9-1.3c-0.5,0.2-0.9,0.4-1.2,0.8c-0.6,0.7-1.4,1.3-2.2,1.7c-0.6,0.3-1.3,0.5-2.1,0.5
				c-1.3-0.1-2.5-0.6-3.5-1.4c-0.7-0.6-1.3-1.3-1.8-2.1l-0.4-0.7c-0.1-0.1-0.1-0.1-0.2-0.2c-0.1-0.1-0.3-0.1-0.4-0.1
				c-0.7,0.8-1.5,1.6-2.3,2.3c-0.5,0.5-1.2,0.9-1.8,1.1c-0.5,0.2-1.1,0.3-1.7,0.3c-0.9,0-1.8-0.3-2.5-0.7c-0.9-0.5-1.8-1.2-2.6-2
				c-0.6,0.3-1.2,0.7-1.7,1c-0.7,0.5-1.4,0.9-2.1,1.3c-0.7,0.4-1.5,0.6-2.2,0.6c-0.7,0-1.4-0.3-1.9-0.7c-0.8-0.6-1.4-1.5-1.8-2.4
				c-0.4-1-0.6-2.1-0.6-3.2V31h0v-0.6c0-0.2,0-0.5,0-0.8c0-0.9-0.1-1.8-0.3-2.6c-0.1-0.1-0.2-0.1-0.3-0.1c-0.1,0-0.2,0-0.2,0
				c-0.5,0.6-0.9,1.3-1.3,2c-0.4,0.8-0.8,1.6-1.1,2.4h0c-0.3,0.7-0.4,1.4-0.5,2.1c0,0.8-0.2,1.6-0.4,2.4c-0.2,1.3-1.3,2.2-2.6,2.2
				c-0.4,0-0.7-0.1-1-0.1c-0.8-0.1-1.6-0.5-2-1.2c-0.3-0.7-0.5-1.5-0.5-2.3c0-0.2,0-0.5,0-0.7c0.1-1.8,0.1-3.5,0.1-5.3
				c0-0.3,0-0.5,0-0.8c0-0.7,0-1.3-0.1-2c-0.1-0.1-0.3-0.1-0.5-0.1h0c-0.1,0-0.1,0-0.2,0.1l-0.6,0.4c-0.9,0.5-1.8,0.9-2.7,1.3
				c0,0.4,0,0.7,0,1.1v0.2c0,2.7-1,5.2-2.7,7.2c-0.8,0.9-1.7,1.6-2.8,2.2c-1,0.5-2.1,0.8-3.2,0.8v0c-1,0-2-0.3-3-0.7
				c-1-0.6-1.9-1.4-2.6-2.4c-0.3-0.5-0.6-0.9-1-1.2c-0.4,0.3-0.8,0.6-1.2,0.9c-0.9,0.7-1.9,1.3-2.9,1.8c-0.8,0.4-1.6,0.7-2.5,0.8
				c-0.2,0-0.4,0-0.6,0h0c-0.9,0-1.7-0.4-2.3-1c-0.5-0.6-0.8-1.2-1-1.9l-0.2-0.8c0-0.1-0.1-0.2-0.2-0.2c-0.1-0.1-0.3-0.1-0.4-0.2
				c-1,0.9-1.9,1.8-2.7,2.9L62,37.2c-0.8,1-2,1.6-3.3,1.6v0c-1.3-0.1-2.5-0.6-3.5-1.5h0c-1.2-1.1-2.1-2.5-2.6-4l-0.2-0.8v0
				c0-0.1-0.1-0.2-0.2-0.2c-0.1-0.1-0.2-0.2-0.3-0.3v0c-0.2,0.2-0.4,0.4-0.6,0.6c-0.3,0.4-0.6,0.8-1,1.1c-0.5,0.6-1,1.2-1.5,1.9
				c-0.7,0.9-1.5,1.7-2.5,2.4c-0.7,0.5-1.5,0.8-2.3,0.8c-0.6,0-1.2-0.2-1.6-0.5c-0.2-0.1-0.3-0.3-0.5-0.4c-0.2-0.3-0.4-0.5-0.6-0.8
				c-0.6-0.9-1.1-1.8-1.5-2.7c0,0-0.1,0-0.1,0c-0.2,0-0.4,0-0.6,0.1c0,0,0,0-0.1,0v0c0,0-0.1,0.1-0.1,0.1c-0.1,0.1-0.3,0.3-0.4,0.4
				c-0.6,0.6-1.2,1.1-1.8,1.7v0c-0.3,0.3-0.7,0.6-1.1,0.9c-0.8,0.5-1.6,0.7-2.5,0.7c-1.5-0.1-2.8-0.7-3.9-1.6c-1.1-1-2-2.2-2.4-3.7
				c-0.2-0.7-0.3-1.3-0.3-2v0c0.2-2.1,0.7-4.2,1.7-6.1v0c0.9-1.8,2.1-3.5,3.5-4.9c0.7-0.7,1.5-1.3,2.4-1.9c0.6-0.4,1.4-0.7,2.1-0.9
				c0.3-0.1,0.6-0.1,0.9-0.1c0.1,0,0.2,0,0.3,0c0.9,0,1.7,0.2,2.5,0.6l0.7,0.3h0c0.2,0.1,0.3,0.1,0.5,0.1h0c0.1,0,0.1,0,0.2,0
				l0.7-0.2c0.2-0.1,0.3-0.1,0.5-0.1c0.3,0,0.7,0.1,1,0.2c0.8,0.2,1.4,0.8,1.6,1.5c0.1,0.4,0.1,0.8,0.1,1.2c-0.1,2-0.4,4-0.7,6
				c-0.1,0.6-0.2,1.3-0.2,1.9c0,0.1,0,0.1,0,0.2c0,0.3,0.1,0.7,0.2,1c0.1,0.3,0.2,0.5,0.5,0.7c0.1,0,0.2,0,0.2,0
				c0.7-0.1,1.3-0.4,1.7-1c1-1.6,1.9-3.2,2.8-4.9c0.5-1.2,1-2.5,1.4-3.7c0.2-0.7,0.4-1.5,0.6-2.2v0c0.2-0.6,0.2-1.2,0.2-1.9h0v-0.1
				c0-0.2,0-0.4-0.1-0.5c-0.7,0.1-1.4,0.2-2.1,0.2c-0.6,0-1.2,0-1.8-0.1c-0.4,0-0.9-0.1-1.3-0.2h0c-0.3-0.1-0.6-0.1-0.8-0.3h0
				c-0.2-0.1-0.4-0.3-0.5-0.5c-0.1-0.2-0.3-0.5-0.4-0.8c-0.2-0.4-0.4-0.9-0.5-1.3h0C44,13,44,12.7,44,12.4v-0.1
				c0.2-0.2,0.5-0.3,0.8-0.4v0c0.4-0.1,0.9-0.3,1.3-0.4c2-0.4,4-0.8,5.9-1.2c0.3-0.1,0.6-0.1,0.9-0.3v0c0.2-0.1,0.3-0.2,0.4-0.3v0
				L53.6,9v0c0.6-1.2,1.8-2,3.1-2c0.3,0,0.5,0,0.8,0.1l0.8,0.1L59,7.3c0.4,0,0.7,0.2,0.9,0.5h0c0.2,0.4,0.4,0.8,0.5,1.2
				c0.8,0,1.7,0.1,2.5,0.3c0.3,0.1,0.5,0.1,0.8,0.2c0.2,0,0.3,0.1,0.4,0.3v0c0.2,0.2,0.3,0.5,0.4,0.8c0.1,0.5,0.1,0.9,0.1,1.4
				c0,0.3,0,0.6,0,0.9c0,0.7-0.4,1.2-1,1.5c-0.8,0.3-1.7,0.5-2.5,0.6c-0.5,0-1,0.1-1.5,0.3c-0.5,1.8-0.9,3.7-1.2,5.5v0
				c-0.4,1.7-0.7,3.6-0.7,5.4v0v0.3c0,0.2,0,0.4,0,0.6c0,0.8,0.1,1.5,0.2,2.2c0.1,0.3,0.2,0.7,0.4,1v0c0.1,0.3,0.4,0.4,0.7,0.6h0
				c0.2,0,0.3-0.1,0.5-0.1h0c0.2-0.1,0.4-0.2,0.5-0.4c0.4-0.5,0.8-1,1.1-1.6v0c0.9-1.5,1.7-3.1,2.5-4.8c0.6-1,1-2.1,1.3-3.2L65,20
				c0.2-0.8,0.7-1.4,1.4-1.8c0.7-0.3,1.5-0.5,2.3-0.5h0.1c0.5,0,1.1,0.1,1.6,0.3c0.2,0.1,0.4,0.2,0.6,0.3c0.2,0.1,0.3,0.2,0.4,0.4v0
				c0.1,0.3,0.2,0.6,0.2,0.9c0,0.5-0.1,1-0.2,1.5c-0.3,1-0.5,2.1-0.6,3.2c-0.1,1-0.1,1.9-0.1,2.9c0,0.2,0,0.4,0,0.5
				c0,0.7,0.1,1.5,0.3,2.2c0.1,0.3,0.2,0.6,0.3,0.8h0c0.1,0.2,0.3,0.4,0.5,0.5c0.7-0.2,1.3-0.6,1.7-1.2c0.5-0.7,0.8-1.5,1-2.4
				c0.8-3.4,2.6-6.5,5.2-8.9c0.5-0.5,1.1-1,1.7-1.3c0.6-0.3,1.2-0.5,1.8-0.5c0.2,0,0.3,0,0.5,0c0.5,0.1,1,0.1,1.5,0.2h0.1
				c1.1,0,2.2,0.3,3.2,0.7c0.8,0.4,1.5,1,2,1.8l0.4,0.7c0.2,0.4,0.5,0.6,0.9,0.6c0.3-0.1,0.7-0.1,1-0.3c0.4-0.3,0.9-0.6,1.3-0.9
				c0.4-0.4,0.7-0.8,1.2-1.1h0c0.6-0.4,1.2-0.8,1.9-1c0.5-0.2,1-0.3,1.6-0.3c0.8,0,1.5,0.4,2,1c0.2,0.4,0.4,0.7,0.5,1.1
				c0.2,0.6,0.3,1.3,0.4,1.9c0,0.3,0.1,0.5,0.1,0.8c0.1-0.2,0.3-0.4,0.4-0.5l0.5-0.6l0.5-0.6c0.8-1.2,1.6-2.2,2.7-3.1
				c0.4-0.4,0.8-0.7,1.3-0.9c0.4-0.2,0.8-0.3,1.3-0.3c0.5,0,1,0.2,1.4,0.4c1.2,0.7,2,1.8,2.3,3.1v0c0.1,0.4,0.1,0.7,0.1,1.1
				c-0.1,1-0.3,1.9-0.6,2.8c-0.3,0.9-0.5,1.7-0.7,2.6c-0.1,0.6-0.2,1.3-0.2,2v0.1c0,0.3,0,0.6,0.1,0.9c0.1,0.4,0.2,0.7,0.5,0.9
				c0.2,0.2,0.4,0.3,0.6,0.3v0c0.4-0.1,0.7-0.2,1-0.4c0.4-0.3,0.7-0.6,1-1c0.6-0.7,1.1-1.5,1.4-2.5c0.6-2.3,1.6-4.6,2.9-6.6
				c1-1.6,2.3-2.9,3.9-3.9c1.2-0.8,2.6-1.3,4-1.3c0.1,0,0.2,0,0.3,0c0.8,0,1.5,0.3,2.1,0.8l0.6,0.5c0.1,0.1,0.2,0.2,0.3,0.2
				c0.1,0,0.2,0.1,0.3,0.1h0h0l0.7,0c0,0,0.1,0,0.1,0c0.5,0.1,0.9,0.2,1.4,0.4c0.5,0.2,0.9,0.5,1.1,1c0.1,0.4,0.2,0.8,0.2,1.3
				c-0.1,1.2-0.3,2.3-0.5,3.5c-0.2,1-0.4,1.9-0.6,2.9c-0.1,0.7-0.2,1.4-0.2,2.1c0,0.1,0,0.2,0,0.3c0,0.9,0.4,1.7,1,2.4
				c0.7,0.6,1.5,0.9,2.4,0.9h0.1c0.3,0,0.6,0,0.9-0.1c0.2,0,0.5-0.2,0.6-0.4c-0.4-1.9-0.7-3.9-0.9-5.8c-0.2-1.4-0.3-2.7-0.3-4.1
				c0-1.8,0.2-3.5,0.5-5.2c0.4-2.9,1.2-5.8,2.4-8.4c0.5-1.1,1.1-2.2,1.8-3.2c0.5-0.8,1.1-1.5,2-1.9c0.5-0.2,1-0.3,1.6-0.3v0
				c1.2,0,2.3,0.3,3.4,0.9c1.2,0.6,2.2,1.6,2.8,2.8c0.5,1.7,0.8,3.4,0.8,5.2V10c0,1.2-0.1,2.3-0.3,3.4c-1.1,5.8-3.3,11.4-6.7,16.3
				c-0.1,0.2-0.3,0.5-0.4,0.7c0,0.2,0.1,0.3,0.2,0.5c0.1,0.2,0.3,0.3,0.4,0.4c0.4,0.3,0.9,0.4,1.4,0.4c0.5,0,1-0.1,1.4-0.4v0
				c0.5-0.4,1-0.8,1.3-1.4v0c0.9-1.9,1.6-4,2.1-6.1c0.2-0.2,0.4-0.3,0.7-0.3h0c0.8,0.3,1.5,0.9,1.9,1.7c0.4,1.1,0.6,2.3,0.6,3.5
				C153.8,29.3,153.8,29.9,153.7,30.5 M74.8,5.1L74.8,5.1c-0.1,0.5-0.3,0.9-0.6,1.3C74,6.6,73.9,6.8,73.7,7
				c-0.2,0.2-0.4,0.3-0.6,0.4h0c-0.4,0.2-0.9,0.4-1.4,0.5c-0.5,0.1-1,0.2-1.5,0.2h-0.1c-0.4,0-0.8,0-1.2-0.2c-0.2,0-0.4-0.1-0.5-0.2
				c-0.2-0.1-0.3-0.2-0.4-0.2c-0.4-0.3-0.7-0.7-1-1.2c-0.2-0.5-0.3-1-0.3-1.5v0c0-0.7,0.2-1.4,0.6-2c0.2-0.3,0.5-0.6,0.8-0.8
				c0.3-0.3,0.7-0.4,1.1-0.6c0.5-0.2,1-0.2,1.5-0.2v0h0c0.5,0,1.1,0.1,1.6,0.3c0.5,0.2,0.9,0.4,1.3,0.8c0.3,0.3,0.6,0.7,0.8,1.1
				c0.2,0.4,0.3,0.8,0.3,1.3C74.9,4.8,74.8,5,74.8,5.1"/>
			<path class="st0" d="M171.5,10.1L171.5,10.1c-0.9-0.1-1.8-0.2-2.7-0.5c-0.8-0.2-1.6-0.6-2.3-1c-0.6-0.3-1.1-0.7-1.5-1.2
				c-0.2-0.2-0.3-0.4-0.4-0.7c-0.1-0.2-0.2-0.4-0.2-0.6h0c0-0.4,0.2-0.7,0.4-1v0c0.1-0.1,0.2-0.1,0.3-0.2c0.2-0.1,0.3-0.1,0.5-0.2
				c0.5-0.2,1-0.3,1.6-0.5c2.3-0.6,4.5-1.2,6.8-1.8c1.9-0.5,3.7-0.9,5.6-1.3c1.5-0.3,2.9-0.6,4.4-0.8c1.1-0.2,2.1-0.3,3.2-0.4h0.4
				h0.1c0.6,0,1.2,0.1,1.7,0.2c0.5,0.1,1.1,0.4,1.5,0.7c0.5,0.3,0.9,0.7,1.2,1.2c0.4,0.5,0.7,1.1,0.9,1.7c0.1,0.3,0.3,0.7,0.4,1
				c0.1,0.3,0.1,0.6,0.1,0.9c0,0,0,0.1,0,0.1c0,0.5-0.2,0.9-0.6,1.2v0c-0.2,0.1-0.3,0.1-0.5,0.2c-0.3,0-0.6,0.1-0.9,0.1
				c-0.7,0-1.4-0.1-2-0.1v0c-0.5-0.1-1-0.1-1.5-0.1c-1.3,0-2.6,0.1-3.9,0.3c-1.8,0.2-3.5,0.5-5.3,0.8c-0.1,1-0.2,2-0.3,3
				c-0.2,1.8-0.3,3.5-0.4,5.3l9.4-0.6c0,0,0.1,0,0.1,0c0.8,0.1,1.6,0.3,2.3,0.7c0.5,0.3,0.9,0.6,1.2,1.1c0.3,0.5,0.5,1,0.5,1.6
				c0,0.1,0,0.3,0,0.4c0,0.4-0.2,0.9-0.5,1.2c-0.3,0.3-0.6,0.6-1,0.8v0c-0.5,0.2-0.9,0.4-1.4,0.5c-0.6,0.1-1.2,0.2-1.8,0.3
				c-2.8,0.4-5.6,0.8-8.4,1.2c-0.1,2-0.1,3.9-0.1,5.9v0.2c0,0.2,0,0.3,0,0.5c0.1,1.4,0.1,2.9,0.2,4.3c0,0.4,0,0.7,0.1,1.1v0.1
				c0,0.1,0,0.2,0,0.3l0.1,0.8c0,0.1,0,0.1,0,0.2c0,0.4-0.2,0.7-0.4,1c-0.4,0.4-0.8,0.7-1.2,0.9h0c-0.4,0.2-0.9,0.4-1.4,0.6
				c-0.4,0.1-0.9,0.2-1.3,0.2h0c-0.6,0-1.2-0.2-1.7-0.5c-0.9-0.6-1.6-1.4-2-2.4c-0.2-0.5-0.4-1.1-0.5-1.7c-0.1-0.7-0.2-1.4-0.2-2.1
				c0-0.5,0-1,0.1-1.6c0.3-2.6,0.5-5.3,0.7-7.9c-0.4-0.5-0.8-1-1.2-1.5c-0.2-0.3-0.3-0.5-0.5-0.8v0c-0.1-0.2-0.2-0.3-0.2-0.5
				c0-0.1,0-0.1,0-0.2c0-0.5,0.2-1,0.6-1.4c0.4-0.5,1-0.8,1.6-0.9c0-1.3,0.1-2.7,0.1-4c0.1-1,0.2-2,0.3-3L171.5,10.1z"/>
			<path class="st0" d="M249.4,28.4L249.4,28.4c0,0.3-0.1,0.6-0.2,0.9c-0.1,0.2-0.2,0.5-0.4,0.6c-0.1,0.2-0.3,0.3-0.5,0.4v0
				c-0.2,0.1-0.4,0.1-0.6,0.1h0c-0.3,0-0.5-0.1-0.8-0.2c-0.2-0.1-0.5-0.2-0.6-0.4c-0.1-0.1-0.1-0.1-0.2-0.2
				c-0.1-0.1-0.1-0.1-0.2-0.2c-0.1-0.2-0.3-0.3-0.4-0.5c-0.1-0.2-0.2-0.3-0.4-0.5c0-0.1-0.1-0.2-0.1-0.2c0-0.1-0.1-0.1-0.1-0.2v0
				c0-0.1,0-0.1,0-0.2v0l0.4-0.7c0.2-0.3,0.4-0.7,0.6-1.1v0c0.2-0.3,0.3-0.7,0.5-1c0.2-0.5,0.4-1,0.6-1.5c0.1-0.1,0.1-0.3,0.1-0.4
				c0-0.1,0-0.1,0-0.2v-0.5h0.6c0.2,0.5,0.5,1.1,0.7,1.6v0c0.2,0.4,0.3,0.9,0.4,1.4c0.1,0.4,0.2,0.8,0.3,1.3
				c0.1,0.4,0.1,0.8,0.1,1.2C249.5,27.9,249.5,28.2,249.4,28.4 M230.2,26.4c-0.1,0.1-0.2,0.1-0.3,0.2c0,0-0.1,0-0.1,0.1
				c0,0-0.1,0-0.1,0h0c0,0-0.1,0-0.1,0c-0.1,0-0.1-0.1-0.2-0.1c-0.1-0.1-0.1-0.3-0.1-0.4c0-0.1,0-0.3,0-0.4c0,0,0,0,0-0.1h0
				c0-0.3,0-0.6,0.1-0.9c0-0.3,0.1-0.7,0.2-1c0.2-0.7,0.4-1.4,0.7-2.1c0.1-0.3,0.3-0.6,0.5-0.9c0.2-0.3,0.3-0.5,0.5-0.8v0
				c0.1-0.1,0.2-0.2,0.3-0.3c0.1-0.1,0.2-0.2,0.3-0.2c0.1-0.1,0.2-0.1,0.3-0.2c0.1,0,0.2-0.1,0.4-0.1c0.1,0,0.2,0,0.3,0
				c0.1,0,0.3,0.1,0.4,0.2c0.1,0.1,0.2,0.2,0.3,0.3c0.1,0.1,0.1,0.3,0.2,0.4v0c0,0.1,0.1,0.3,0.1,0.4v0c0,0.2,0,0.3,0,0.5
				c0,0.2-0.1,0.4-0.1,0.5c-0.1,0.2-0.1,0.4-0.2,0.6c-0.1,0.2-0.2,0.4-0.3,0.7c-0.5,1.1-1.1,2.1-2,2.9
				C230.8,26,230.5,26.2,230.2,26.4 M200,30.4L200,30.4c-0.3,0.5-0.7,0.9-1,1.3v0c-0.2,0.2-0.4,0.3-0.6,0.4v0
				c-0.2,0.1-0.4,0.2-0.6,0.2h0c-0.4,0-0.7-0.2-0.9-0.5c-0.3-0.4-0.5-0.9-0.5-1.4c-0.1-0.4-0.1-0.8-0.1-1.2v-0.1
				c0-1.3,0.3-2.7,0.8-3.9c0.2-0.6,0.5-1.1,0.9-1.6c0.4-0.5,0.9-1,1.5-1.3c0.2,1.8,0.9,3.6,2,5C201.2,28.4,200.7,29.5,200,30.4
				 M277.5,9.6c0-0.3-0.1-0.6-0.2-0.9c-0.2-0.5-0.5-1-0.9-1.3h0c-0.4-0.5-0.9-0.9-1.4-1.2c-0.8-0.6-1.7-1.1-2.7-1.4c0,0,0,0-0.1,0h0
				c-0.2,0-0.5,0-0.7,0c-1.1,0.1-2.1,0.2-3.2,0.2v0c-0.3-1.1-1.3-1.9-2.4-2v0c-0.3,0-0.5,0-0.8,0c-0.5,0-0.9,0.1-1.4,0.2
				c-0.4,0.1-0.7,0.3-1,0.5c-0.3,0.3-0.6,0.7-0.8,1.1c-0.3,0.5-0.6,1.1-0.8,1.6c-2.4,0.6-4.7,1.1-7.1,1.6c-0.8,0.2-1.6,0.3-2.4,0.5
				c0,0.4,0.1,0.7,0.3,1.1c0.3,0.6,0.6,1.1,1,1.5c1.1,1.3,2.7,2,4.4,2h0.1v0h0.2l2.5-0.1v0.5c0,0.3-0.1,0.7-0.2,1l0,0
				c-0.2,0.8-0.3,1.5-0.5,2.3c-0.1,0.2-0.1,0.4-0.1,0.6c0,0.1,0,0.1,0,0.2h0c-0.2,1.3-0.6,2.5-1.1,3.7c-0.5,1.1-1.2,2-2,2.8
				c-0.3,0.3-0.6,0.6-0.9,0.8v0c-0.1,0.1-0.2,0.1-0.3,0.2c0,0-0.1,0-0.1,0.1h0c0,0,0,0-0.1,0h0c-0.1-0.8-0.3-1.5-0.5-2.2
				c-0.3-0.9-0.7-1.8-1.1-2.7c-0.3-0.6-0.6-1.3-0.8-2c-0.1-0.5-0.2-1.1-0.3-1.6c0-0.2,0-0.4,0-0.6c0.1-0.3,0.1-0.6,0.1-0.9
				c0,0,0-0.1,0-0.1l0,0c0,0,0,0,0-0.1c0-0.1-0.1-0.1-0.1-0.2c-0.1-0.2-0.3-0.4-0.4-0.5c-0.5-0.5-1.1-0.7-1.8-0.7
				c-0.1,0-0.2,0-0.3,0c-0.3,0-0.6,0.1-0.9,0.2c-0.2,0.1-0.4,0.2-0.6,0.4l-0.5,0.6c-0.1,0.2-0.3,0.3-0.5,0.3c-0.3,0.2-0.6,0.3-1,0.4
				l-0.8,0.3v0c-0.1,0-0.2,0.1-0.3,0.3c-0.2,0.2-0.3,0.3-0.4,0.5v0c-0.4,0.6-0.7,1.3-0.9,2c-0.9,2.5-2.1,4.8-3.5,7.1
				c-0.7,1.1-1.4,2.1-2.2,3.1c-0.7,0.8-1.4,1.5-2.2,2c-0.6,0.4-1.3,0.6-2,0.6c-0.7,0-1.3-0.4-1.8-0.9c0.9-0.7,1.8-1.4,2.6-2.1v0
				c0.6-0.6,1.2-1.2,1.7-1.9c0.7-1,1.3-2.1,1.7-3.2c0.4-1,0.6-2.1,0.6-3.2c0-0.3,0-0.5,0-0.8v0c-0.1-1.3-0.7-2.6-1.7-3.5
				c-0.9-0.8-2.1-1.2-3.3-1.2c-0.1,0-0.2,0-0.3,0c-1.7,0-3.4,0.5-4.8,1.5c-1.8,1.2-3.3,2.8-4.3,4.7c-0.9,1.5-1.3,3.2-1.4,4.9
				c0,0.2,0,0.4,0,0.7v0c0.1,1.1,0.3,2.2,0.6,3.3l0.3,0.8c0,0,0,0,0,0.1c0,0,0,0,0,0c0,0.1,0,0.1,0,0.2c-0.4,0.4-1,0.7-1.6,0.7
				c-0.7,0-1.3-0.3-1.7-0.8c-0.3-0.3-0.5-0.7-0.6-1.1c-0.1-0.5-0.2-0.9-0.2-1.4v-0.1c0-1.3,0.3-2.7,0.8-3.9c0.3-0.7,0.6-1.5,1-2.2v0
				c0.3-0.5,0.6-1.1,0.8-1.6c0.2-0.5,0.3-1.1,0.4-1.6c0-1-0.5-1.9-1.2-2.5c-0.6-0.6-1.4-0.9-2.2-0.9h-0.1c-0.3,0-0.5,0-0.7,0.1
				c-1.1,0.2-2.1,0.3-3.2,0.6c-0.4,0.1-0.8,0.2-1.2,0.3c-0.2,0-0.3,0.1-0.5,0.1h0l-0.3-0.6c-0.1-0.1-0.1-0.2-0.2-0.2
				c-0.1-0.1-0.2-0.1-0.4-0.2c-0.3-0.1-0.6-0.2-1-0.2h-0.1c-1,0-1.9,0.4-2.6,1.2c-0.2,0.3-0.4,0.6-0.5,1c-0.3,0.7-0.7,1.5-1,2.2
				c-0.2,0.5-0.4,0.9-0.7,1.3c-0.2,0.3-0.5,0.5-0.8,0.7c-0.2-1.1-0.6-2-1.3-2.9c-0.7-0.8-1.7-1.3-2.8-1.4c-0.1,0-0.3,0-0.4,0
				c-0.7-0.8-1.8-1.2-2.9-1.2h-0.1c-1.1,0-2.1,0.3-3,1h0c-0.7,0.5-1.3,1.1-1.8,1.8c-0.7,0.9-1.3,1.8-1.7,2.8
				c-1.1,2.2-1.7,4.7-1.8,7.2c0,2.5,0.8,4.9,2.4,6.8c1.4,1.6,3.4,2.6,5.5,2.6h0.1h0c1.9,0,3.8-0.9,5-2.4c0.7-0.9,1.3-1.9,1.9-2.9
				c0.6-1.2,1.1-2.4,1.5-3.6c1.5-0.6,2.8-1.7,3.6-3.1c0.3-0.5,0.6-1,0.8-1.6c0.5-1,0.9-1.9,1.3-2.9c0,0,0.1,0,0.1,0h0
				c0.6,0,1.2,0,1.8-0.1c0.1,0.1,0.1,0.1,0.1,0.2c0,0,0.1,0.1,0.1,0.1c-0.1,0.3-0.2,0.5-0.3,0.8c-0.4,1.2-0.8,2.4-1.1,3.6
				c-0.2,1.1-0.3,2.1-0.4,3.2c0,1.3,0.2,2.5,0.7,3.7c0.5,1.1,1.1,2.1,2,2.9c0.6,0.6,1.2,1,1.9,1.3v0c0.7,0.3,1.4,0.4,2.1,0.4
				c0.5,0,1-0.1,1.5-0.2h0c0.6-0.2,1.2-0.4,1.7-0.8c1-0.6,1.9-1.2,2.8-1.8v0c0.2-0.1,0.4-0.2,0.6-0.4c0.1,0,0.1-0.1,0.2-0.1
				c0,0,0.1,0,0.1,0c0,0,0.1,0,0.1,0l0.6,0.6c0.7,0.7,1.5,1.2,2.4,1.6c1.1,0.5,2.2,0.8,3.4,0.8c0.5,0,0.9,0,1.4-0.1
				c2.8-0.6,5.3-2,7.2-4.1c0.3-0.3,0.5-0.6,0.8-0.8c0.1-0.1,0.2-0.1,0.3-0.2c0,0,0.1,0,0.1-0.1c0,0,0,0,0.1,0h0l0,0c0,0,0,0,0,0
				c0,0,0.1,0.1,0.1,0.1c0.1,0.2,0.2,0.4,0.3,0.5v0c0.7,1.3,1.7,2.6,2.8,3.6v0c0.9,0.7,1.9,1.1,3,1.2c1,0,2-0.3,2.8-0.9
				c1.1-0.7,2.2-1.5,3-2.6c0.8-0.8,1.5-1.7,2.2-2.6c0.5-0.6,0.9-1.1,1.3-1.8l0.4-0.7c0.1-0.1,0.1-0.2,0.2-0.2h0
				c0.1-0.1,0.3-0.1,0.4-0.1c0.8,1.5,1.6,3,2.4,4.4h0c0.7,1.1,1.6,2,2.7,2.8c0.9,0.6,2,1,3.2,1v0c1,0,2-0.3,2.9-1v0
				c0.5-0.4,1-0.8,1.4-1.3v0c0.5-0.6,0.9-1.2,1.3-1.9c0.5-0.9,0.9-1.9,1.1-3v0c0.2-1.1,0.4-2.2,0.4-3.3c0-0.8-0.1-1.7-0.2-2.5
				c-0.2-0.7-0.4-1.4-0.8-2c-0.3-0.5-0.6-0.9-1-1.3v0c-0.3-0.2-0.6-0.4-0.9-0.4c-0.1,0-0.1,0-0.2,0c-0.2,0.2-0.3,0.5-0.4,0.7
				l-0.2,0.9h0c-0.3,1.4-0.6,2.8-0.9,4.2c-0.1,0.4-0.2,0.8-0.3,1.2c-0.1,0.2-0.1,0.4-0.2,0.6c-0.3,0.6-1,1-1.6,1.1
				c-0.6,0-1.1-0.3-1.4-0.7c-0.2-0.3-0.4-0.6-0.5-1c-0.1-0.4-0.2-0.9-0.2-1.4c0-0.4,0-0.9,0-1.3v0c0-1.8,0.1-3.6,0.4-5.4
				c0.3-2,0.7-4,1.2-5.9c0.1-0.5,0.3-1.1,0.4-1.6v0c0.2-0.1,0.5-0.2,0.8-0.2c0.5-0.1,1.1-0.2,1.6-0.2c1.9-0.2,3.8-0.5,5.7-0.7
				c0.4,0,0.9-0.2,1.2-0.4C277.3,10.3,277.5,9.9,277.5,9.6C277.5,9.6,277.5,9.6,277.5,9.6"/>
		</g>
		<g>
			<rect y="54.8" class="st1" width="5.7" height="24.9"/>
			<path class="st1" d="M16.5,68.9v5.3c0,1.3,0.5,1.7,1.2,1.7c0.4,0,0.8-0.1,1.3-0.2l1.1,3.8c-1.3,0.3-2.5,0.5-3.8,0.5
				c-2.9,0-4.9-1.3-4.9-5.9v-5.1H8.3v-0.7l3.2-3.3v-2.2l5-2.9V65h3.9v4H16.5z"/>
			<path class="st1" d="M23.2,62.7L22.8,62c1-0.8,1.6-1.8,2-3c-1.5-0.1-2.4-1.1-2.4-2.4s1-2.3,2.3-2.3c1.6,0,2.6,1.2,2.6,2.8
				C27.2,59.4,25.6,61.7,23.2,62.7"/>
			<path class="st1" d="M33.3,80c-2.4,0-4.5-0.7-6.3-1.9l1.6-3.6c1.5,1.1,3.4,1.8,4.8,1.8c1.2,0,1.7-0.4,1.7-1
				c0-1.8-7.1-0.7-7.1-5.6c0-3,2.6-5,6.2-5c1.8,0,3.8,0.6,5.3,1.4l-1.2,3.6c-1.5-0.8-3.1-1.3-4.3-1.3c-1,0-1.5,0.4-1.5,0.9
				c0,1.9,7.4,0.7,7.4,6C39.7,78.2,36.9,80,33.3,80"/>
			<path class="st1" d="M57,74.4c-0.6-0.5-1.1-0.8-2.1-0.8c-1.1,0-2.1,0.7-2.1,1.7c0,1.1,0.7,1.8,1.9,1.8c1.1,0,1.8-0.4,2.3-1.1
				V74.4z M57.1,79.7v-1.3c-1,1-2.1,1.5-4,1.5c-2.8,0-5-1.7-5-4.6c0-2.5,2-4.5,5.4-4.5c1.6,0,2.5,0.3,3.5,0.9v-0.4
				c0-2.1-1.2-2.9-3.3-2.9c-1,0-2.2,0.2-3.4,0.5l-0.4-3.5c1.3-0.4,3.3-0.7,4.8-0.7c5,0,7.3,2.3,7.3,6.8v8.3H57.1z"/>
			<rect x="65.4" y="54.8" class="st1" width="5" height="24.9"/>
			<rect x="74.2" y="54.8" class="st1" width="5" height="24.9"/>
			<polygon class="st1" points="94.4,87 89.4,87 93.9,78.1 87.8,65 93.3,65 96.3,73.2 99.3,65 104.7,65 			"/>
			<path class="st1" d="M113.2,68.4c-1.9,0-2.9,1.4-2.9,3.9c0,2.5,1.1,3.9,2.9,3.9c1.8,0,2.9-1.4,2.9-3.9
				C116.1,69.9,115,68.4,113.2,68.4 M113.2,80c-5,0-7.9-3.5-7.9-7.6c0-4.1,2.9-7.6,7.9-7.6c5,0,7.8,3.5,7.8,7.6
				C121.1,76.5,118.2,80,113.2,80"/>
			<path class="st1" d="M133.9,79.7v-2.5c-1.6,1.7-3.5,2.8-5.4,2.8c-3,0-4.7-2-4.7-4.9V65h5v9c0,1.4,0.7,1.9,1.7,1.9
				c1,0,2.1-0.4,3.2-1.7V65h5v14.7H133.9z"/>
			<path class="st1" d="M147.4,70.4v9.3h-5V65h4.9v2.4c1.3-1.8,2.6-2.6,5.2-2.6v5C150,69.2,148.2,69.3,147.4,70.4"/>
			<path class="st1" d="M159.9,80c-2.4,0-4.6-0.7-6.3-1.9l1.6-3.6c1.5,1.1,3.4,1.8,4.8,1.8c1.2,0,1.7-0.4,1.7-1
				c0-1.8-7.1-0.7-7.1-5.6c0-3,2.6-5,6.2-5c1.8,0,3.8,0.6,5.3,1.4l-1.2,3.6c-1.5-0.8-3.1-1.3-4.3-1.3c-1,0-1.5,0.4-1.5,0.9
				c0,1.9,7.4,0.7,7.4,6C166.3,78.2,163.5,80,159.9,80"/>
			<path class="st1" d="M171,74.6c1.5,0,2.7,1.2,2.7,2.7c0,1.5-1.2,2.7-2.7,2.7c-1.4,0-2.6-1.2-2.6-2.7
				C168.3,75.8,169.5,74.6,171,74.6"/>
		</g>
	</g>
</g>
</svg>
