<?xml version="1.0" encoding="utf-8"?>
<!-- Generator: Adobe Illustrator 19.0.0, SVG Export Plug-In . SVG Version: 6.00 Build 0)  -->
<svg version="1.1" id="beachcombing_xA0_Image_1_" xmlns="http://www.w3.org/2000/svg" xmlns:xlink="http://www.w3.org/1999/xlink"
	 x="0px" y="0px" viewBox="-11 13.7 575.8 574.3" style="enable-background:new -11 13.7 575.8 574.3;" xml:space="preserve">
<style type="text/css">
	.st0{fill:#FFFF00;}
	.st1{fill:#4040FF;}
	.st2{fill:#FFFFFF;}
</style>
<rect x="-11" y="13.7" class="st0" width="575.8" height="574.3"/>
<rect x="34" y="58.5" class="st1" width="486" height="484.7"/>
<g>
	<path class="st2" d="M231.5,125.6l0.4,40.9l-184.6,2.2l-0.4-40.9L231.5,125.6z M288.5,131.8l-0.4,48.5c-5.6,2.7-10,6.3-13.1,10.9
		c-3.1,4.6-4.7,10.2-4.7,16.7c-0.3,6.5,1,12.3,4,17.4c3,5,7.4,8.9,13.4,11.6l-0.9,54.7c0,5.3-0.8,9.4-2.4,12.2
		c-1.6,2.8-3.9,4.2-6.9,4.2c-1.8-0.3-3.1-0.9-4-1.8s-1.3-2.2-1.3-4c0-0.9,0.5-1.9,1.6-3.1c1-1.2,2.4-2.4,4.2-3.6L253.1,259
		c-3.3,9.8-5.7,17.7-7.3,23.6s-2.4,10.1-2.4,12.5c0,13.1,2.8,22.8,8.5,29.1c5.6,6.4,14.4,9.7,26.3,10c11.9,0,20.8-3.1,26.7-9.3
		c5.9-6.2,9-15.7,9.3-28.5l0.4-60.5c5.6-2.7,9.9-6.3,12.7-10.9c2.8-4.6,4.2-10.2,4.2-16.7s-1.3-12.1-4-16.7
		c-2.7-4.6-6.7-8.2-12-10.9l0.4-44.5h0.4L288.5,131.8z M299.2,206.1c0.6-0.6,1.3-0.9,2.2-0.9c1.2,0,2.1,0.3,2.9,0.9
		c0.7,0.6,1.1,1.3,1.1,2.2c0,1.2-0.4,2.1-1.1,2.7c-0.7,0.6-1.7,0.9-2.9,0.9c-0.9,0-1.6-0.3-2.2-0.9c-0.6-0.6-0.9-1.5-0.9-2.7
		C298.3,207.4,298.6,206.7,299.2,206.1z M502.6,319.1c-22.5-3.3-44.1-2.2-64.5,3.1c-11.3,3-23.4,7-36.5,12s-25.8,10.5-38.3,16.5
		c-12.5,5.9-24,11.8-34.7,17.6c-10.7,5.8-19.3,11.1-25.8,15.8l14.2,18.2l-12.9,16.9c11,8.6,22.2,15.7,33.6,21.1
		c11.4,5.5,22.8,10,34.3,13.6c11.4,3.6,23,6.5,34.7,8.7s23.5,4.5,35.4,6.9c32.6,5.9,51.7,8.1,57.2,6.5s8.1-2.7,7.8-3.3L502.6,319.1z
		 M357,380.1c1.5,1.5,2.2,3.7,2.2,6.7s-0.7,5.3-2.2,6.9s-3.7,2.4-6.7,2.4s-5.3-0.7-6.9-2.2s-2.4-3.7-2.4-6.7s0.7-5.3,2.2-7.1
		c1.5-1.8,3.9-2.5,7.1-2.2C353.3,377.9,355.6,378.6,357,380.1z M502.1,127.3l0.4,40.9l-146,1.8l-0.4-41.4L502.1,127.3z"/>
</g>
</svg>
