<?xml version="1.0" encoding="utf-8"?>
<!-- Generator: Adobe Illustrator 19.0.0, SVG Export Plug-In . SVG Version: 6.00 Build 0)  -->
<svg version="1.1" id="beachcombing_xA0_Image_1_" xmlns="http://www.w3.org/2000/svg" xmlns:xlink="http://www.w3.org/1999/xlink"
	 x="0px" y="0px" viewBox="-11 13.7 575.8 574.3" style="enable-background:new -11 13.7 575.8 574.3;" xml:space="preserve">
<style type="text/css">
	.st0{fill:#FFFF00;}
	.st1{fill:#573922;}
	.st2{fill:#FFFFFF;}
</style>
<rect x="-11" y="13.7" class="st0" width="575.8" height="574.3"/>
<rect x="34" y="58.5" class="st1" width="486" height="484.7"/>
<g>
	<path class="st2" d="M146.6,109.8V76.1c-1.7-0.3-3.7-0.6-5.9-0.8c-2.2-0.2-4.7-0.3-7.4-0.3c-37.7,0-63,21.8-76,65.3l-11.3,8.2
		l27.2,25.5l34.4-25.5l-9.8-6.1c0-6.5,4.1-13.6,12.3-21.4c2.4-2.4,8.7-5.1,19-8.2c4.1-1,7.4-1.9,10-2.6c2.6-0.7,4.5-1,5.9-1
		c0.7,0,1,0.2,1,0.5L146.6,109.8L146.6,109.8z M90.1,415.9v-61.7h-36v61.7H90.1z M150.2,500.5L128.6,473l-7.2,9.7l-3.1-0.5
		c-18.8-6.1-28.3-21.1-28.3-44.9v-3.6H55.1c-0.3,1.7-0.6,3.7-0.8,5.9c-0.2,2.2-0.3,4.7-0.3,7.4c0,20.1,6.7,36.9,20,50.5
		c8.9,8.8,17.8,15.5,26.7,19.9c3.4,0.7,6.7,1.5,9.8,2.5c3.1,1,6.3,2,9.8,3.1l8.2,11.2L150.2,500.5z M90.6,253.1v-61.7h-36v61.7H90.6
		z M90.1,334.8v-62.2H54.6v62.2H90.1z M321.3,288.3h0.5c-8.6-5.8-16.6-11-24.1-15.6c-7.5-4.6-14.6-8.9-21.1-13l-3.6-2.6
		c-4.8-3.1-7.2-11-7.2-24c-2.4-14.3-11.8-23.6-28.3-28.1l-2.6-0.5c-10.6,0-22.8,14.3-36.5,42.8c-2.7,6.1-5,11.2-6.7,15.3
		c-1.7,4.1-2.7,7-3.1,8.7l-3.1,26.5c-1.7,12.9-4.3,22.6-7.7,29.1c-3.1,6.8-8.7,21.1-17,42.8c-8.2,22.1-12.3,34.4-12.3,36.7
		c0,3.1,6,8.5,18,16.3l43.7-79.1c0.7-1.7,1.5-2.6,2.6-2.6c1.4,0.7,3.9,2.9,7.7,6.6c5.1,5.1,15.6,29.8,31.3,74l30.3-5.6
		c-7.9-20.7-22.3-59-43.2-114.8c-1.7-4.4-2.6-9.3-2.6-14.8c0.3-4.4,0.7-6.5,1-6.1c0.3-4.4,4.1-8.5,11.3-12.2l34.4,22.4
		c0.7,0.3,3.8,1.4,9.2,3.1c5.5,1.7,13.2,3.9,23.1,6.6L321.3,288.3z M226.7,523v-35.7H164V523H226.7z M227.2,109.8V76.1h-62.7v33.7
		L227.2,109.8L227.2,109.8z M282.2,184.3c0-5.8-2.1-11-6.4-15.6c-4.3-4.6-9.3-6.9-15.2-6.9c-6.2,0-11.4,2.1-15.7,6.4
		c-4.3,4.3-6.4,9.4-6.4,15.6c0,5.8,2.1,10.7,6.4,14.8c4.3,4.1,9.3,6.1,15.2,6.1c6.2,0,11.4-2,15.7-6.1
		C280.1,194.5,282.2,189.7,282.2,184.3z M307.9,523v-35.7h-63.2v35.2L307.9,523z M308.4,109.3V75.1h-63.2v34.2H308.4z M388.1,522.5
		v-35.7h-63.2v34.7L388.1,522.5z M389.1,109.3V75.1h-62.7v34.2H389.1z M413.8,313.3l-59.6-8.7l-25.7,32.6l48.8,9.2L413.8,313.3z
		 M373.7,334.8l-2.6,2.6l-26.2-7.1l3.1-1L373.7,334.8z M389.1,324.5l-3.1,2l-34.4-6.6l3.6-2.6L389.1,324.5z M385.5,415.9v-66.3
		l-10.8,3.6l-22.1-3.6v66.3H385.5z M498.5,150.1c0-14.6-4.2-28.3-12.6-41.1c-8.4-12.8-19.8-22.4-34.2-28.8c-3.4-0.7-6.7-1.5-9.8-2.6
		c-3.1-1-6.3-2-9.8-3.1L424,63.9l-24.7,28.6l24.7,32.6l10.3-9.7c18.8,6.8,28.3,22.3,28.3,46.4v2H497
		C498,159.8,498.5,155.2,498.5,150.1z M506.7,448.5l-33.4-22.4l-28.3,22.4l9.2,9.2c-5.1,18.4-21.2,28.1-48.3,29.1v33.7
		c1.7,0.3,3.7,0.6,5.9,0.8c2.2,0.2,4.7,0.3,7.4,0.3c37.7,0,63-21.8,76-65.3L506.7,448.5z M496,325.1v-61.7H462v61.7H496z M496,405.1
		v-62.2H462v62.2H496z M496.5,245v-61.7h-33.9V245H496.5z"/>
</g>
</svg>
