<?xml version="1.0" encoding="utf-8"?>
<!-- Generator: Adobe Illustrator 19.0.0, SVG Export Plug-In . SVG Version: 6.00 Build 0)  -->
<svg version="1.1" id="beachcombing_xA0_Image_1_" xmlns="http://www.w3.org/2000/svg" xmlns:xlink="http://www.w3.org/1999/xlink"
	 x="0px" y="0px" viewBox="-11 13.7 575.8 574.3" style="enable-background:new -11 13.7 575.8 574.3;" xml:space="preserve">
<style type="text/css">
	.st0{fill:#FFFF00;}
	.st1{fill:#573922;}
	.st2{fill:#FFFFFF;}
</style>
<rect x="-11" y="13.7" class="st0" width="575.8" height="574.3"/>
<rect x="34" y="58.5" class="st1" width="486" height="484.7"/>
<g>
	<path class="st2" d="M498.8,295.5v-42.7H393.7c-8.7,0-15.6-3.4-20.8-10.3l-46.7-63.4l-9.7,7.1l36.9,58.9l-15.5,44.6h-56.9
		c2.2-9.1,3.2-18.1,3.2-27.2c0-4.7-0.4-8.6-1.3-11.6l49.8,6.5v-11.6l-38.2-11.6c-7.3-6.5-12.9-11-16.8-13.6
		c-6.5-4.3-13.2-6.7-20-7.1c-10.8-0.9-17.7,5-20.7,17.5c-1.3,5.2-1.9,13.6-1.9,25.2v18.8l-17.5-22H55.2v97h24
		c2.2-16.6,9.5-30.5,22-41.6c12.5-11.1,27.2-16.6,44-16.6c16.8,0,31.5,5.5,44,16.6c12.5,11.1,19.6,24.9,21.4,41.6h151.6l26.6-54.3
		L498.8,295.5L498.8,295.5z M192.9,357.3c0-13.3-4.6-24.5-13.9-33.7c-9.3-9.2-20.6-13.8-34-13.8c-13.4,0-24.7,4.6-34,13.8
		c-9.3,9.2-13.9,20.4-13.9,33.7s4.6,24.5,13.9,33.7c9.3,9.2,20.6,13.8,34,13.8c13.4,0,24.7-4.6,34-13.8
		C188.3,381.8,192.9,370.5,192.9,357.3z M279.6,188.8c0-12.1-6-18.1-18.1-18.1c-11.6,0-17.5,6-17.5,18.1c0,12.1,5.8,18.1,17.5,18.1
		C273.5,206.9,279.6,200.9,279.6,188.8z M484.6,357.3c0-13.3-4.6-24.5-13.9-33.7c-9.3-9.2-20.6-13.8-34-13.8
		c-13.4,0-24.7,4.6-34,13.8c-9.3,9.2-13.9,20.4-13.9,33.7s4.6,24.5,13.9,33.7c9.3,9.2,20.6,13.8,34,13.8c13.4,0,24.7-4.6,34-13.8
		C480,381.8,484.6,370.5,484.6,357.3z"/>
</g>
</svg>
