<?xml version="1.0" encoding="utf-8"?>
<!-- Generator: Adobe Illustrator 19.0.0, SVG Export Plug-In . SVG Version: 6.00 Build 0)  -->
<svg version="1.1" id="beachcombing_xA0_Image_1_" xmlns="http://www.w3.org/2000/svg" xmlns:xlink="http://www.w3.org/1999/xlink"
	 x="0px" y="0px" viewBox="-17 109.7 575.8 574.3" style="enable-background:new -17 109.7 575.8 574.3;" xml:space="preserve">
<style type="text/css">
	.st0{fill:#FFFF00;}
	.st1{fill:#FFFFFF;}
</style>
<path id="XMLID_1_" class="st0" d="M510,326.6c0,22-7.7,49.4-23.1,82.4s-32.2,63.3-50.5,91.2c-18.3,27.8-39.5,57.3-63.7,88.4
	c-24.2,31.1-41,52.2-50.5,63.1c-9.5,11-17.2,19.8-23.1,26.4l-52.7-61.5C211.3,574.8,176.1,524.6,141,466
	C105.8,407.5,88.3,361,88.3,326.6c0-58.6,20.5-108.3,61.5-149.4c41-41,90.8-61.5,149.4-61.5c58.6,0,108.3,20.5,149.4,61.5
	C489.5,218.2,510,268,510,326.6z M369.4,326.6c0,19-7,35.5-20.9,49.4c-13.9,13.9-30.4,20.9-49.4,20.9c-19,0-35.5-7-49.4-20.9
	c-13.9-13.9-20.9-30.4-20.9-49.4c0-19,7-35.5,20.9-49.4c13.9-13.9,30.4-20.9,49.4-20.9c19,0,35.5,7,49.4,20.9
	C362.4,291.1,369.4,307.5,369.4,326.6z"/>
<path id="XMLID_3_" class="st1" d="M471.7,325.2c0,17.9-6.3,40.2-18.8,67.1c-12.5,26.8-26.2,51.6-41.1,74.2
	c-14.9,22.7-32.2,46.7-51.9,72c-19.7,25.3-33.4,42.5-41.1,51.4c-7.8,8.9-14,16.1-18.8,21.5l-42.9-50.1
	c-28.6-34-57.2-74.8-85.9-122.5c-28.6-47.7-42.9-85.5-42.9-113.6c0-47.7,16.7-88.2,50.1-121.6c33.4-33.4,73.9-50.1,121.6-50.1
	c47.7,0,88.2,16.7,121.6,50.1C455,237,471.7,277.5,471.7,325.2z"/>
</svg>
