<?xml version="1.0" encoding="utf-8"?>
<!-- Generator: Adobe Illustrator 19.0.0, SVG Export Plug-In . SVG Version: 6.00 Build 0)  -->
<svg version="1.1" id="beachcombing_xA0_Image_1_" xmlns="http://www.w3.org/2000/svg" xmlns:xlink="http://www.w3.org/1999/xlink"
	 x="0px" y="0px" viewBox="-11 13.7 575.8 574.3" style="enable-background:new -11 13.7 575.8 574.3;" xml:space="preserve">
<style type="text/css">
	.st0{fill:#FFFF00;}
	.st1{fill:#573922;}
	.st2{fill:#FFFFFF;}
</style>
<rect x="-11" y="13.7" class="st0" width="575.8" height="574.3"/>
<rect x="34" y="58.5" class="st1" width="486" height="484.7"/>
<g>
	<path class="st2" d="M488.3,402.3c1.6-20.2-3.9-37.9-16.7-53.2c-12.8-15.2-29.3-23.7-49.4-25.3c-13.2-1.2-25.6,0.8-37.1,6.2
		l-8-13.6c14.8-8.2,30.3-11.5,46.4-9.9l-4.9-9.9c-15.2-1.2-30.9,2.1-47,9.9l-43.3-76h-37.7c-8.3,0-22.9,1.4-43.9,4.3
		c-1.2-7.8-5.2-19.6-11.7-35.2l-26.6-17.9c-30.1,22.3-45.1,59.6-45.1,111.9l-37.1-5.6l-1.2,6.8c-16.9,2.1-31.7,7.8-44.5,17.3l5.6,8
		c16.1-5.4,29.3-8,39.6-8c17.7,0,33.6,5.2,47.6,15.5l-6.2,10.5c-10.3-6.2-21.6-9.3-34-9.3c-18.5,0-34.4,6.7-47.6,20.1
		c-13.2,13.4-19.8,29.4-19.8,47.9c0,19,6.6,35,19.8,48.2c13.2,13.2,29.3,19.8,48.2,19.8c15.2,0,28.9-4.6,41.1-13.9
		c12.1-9.3,20.3-21.3,24.4-36.2l92.7,0.6l52.5-118.7h7.4l9.3,16.1c-9.9,8.2-17.5,16.1-22.9,23.5l4.3,13c6.2-9.9,14.4-18.5,24.7-26
		l7.4,13c-19,12.8-29.5,30.7-31.5,53.8c-1.6,20.2,3.9,37.9,16.7,53.2c12.8,15.2,29.3,23.7,49.5,25.3c20.2,1.7,38-3.9,53.5-16.7
		C478.1,439,486.7,422.5,488.3,402.3z M174.3,409.7c-6.6,20.2-20.4,30.3-41.4,30.3c-12,0-22-4.2-30.3-12.7
		c-8.2-8.4-12.4-18.6-12.4-30.6c0-11.9,4.1-22.1,12.4-30.6c8.2-8.4,18.3-12.7,30.3-12.7c7.4,0,14,1.7,19.8,4.9l-9.9,15.5
		c-4.1-1.6-7.4-2.5-9.9-2.5c-6.6,0-12.4,2.6-17.3,7.7c-4.9,5.2-7.4,11-7.4,17.6c0,7,2.5,12.9,7.4,17.6c4.9,4.7,10.9,7.1,17.9,7.1
		c10.7,0,18.1-4.9,22.3-14.8L174.3,409.7z M176.2,398.6l-17.9-2.5c0-6.2-2.5-11.7-7.4-16.7l10.5-15.5c9.9,9.1,14.8,20,14.8,32.8
		L176.2,398.6L176.2,398.6z M207.1,402.3l-6.2-0.6c2.1-25.1-6.6-44.5-26-58.1l5.6-9.3c18.5,0,27.8,14.4,27.8,43.3
		C208.3,383.7,207.9,392,207.1,402.3z M278.8,151.3c0-5.4-4.2-10.4-12.7-15.1c-8.5-4.7-15.8-7.1-21.9-7.1c-8.2,0-15,3-20.4,9
		c-5.4,6-8,13.1-8,21.3c0,6.6,2.2,13.1,6.5,19.5c4.3,6.4,9.6,9.6,15.8,9.6c7.8,0,15-9.1,21.6-27.2l8.7-3.7
		C275.3,154.6,278.8,152.6,278.8,151.3z M335,268.8c-9.5,2.5-16.3,3.7-20.4,3.7c-7.4,0-16.9,3.1-28.4,9.3L259,296.6
		c-8.2-5.4-14-9.1-17.3-11.1c-7-3.3-13.6-5.4-19.8-6.2c4.9-10.3,9.3-17.7,13-22.3l9.9,6.2l33.4-10.5c6.6-2.1,11.7-3.3,15.5-3.7
		c15.2,0,23.5,1.4,24.7,4.3l6.8-3.1L335,268.8z M254.7,379.4h-16.1l16.1-24.7V379.4z M316.5,324.4l-16.7,37.7
		c-0.8,1.7-2.1,2.5-3.7,2.5c-2.5,0-3.7-0.8-3.7-2.5l2.5-22.3c0.4-4.9-1.9-7.4-6.8-7.4h-25.3l9.9-14.2h38.9c4.1,0,6.2,1,6.2,3.1
		C317.7,322.1,317.3,323.2,316.5,324.4z M395.6,265.7c0-8.2-2.3-15.2-6.8-21c-7,0-13.6,1.7-19.8,4.9c-7.4,3.7-11.1,8.9-11.1,15.5
		c0,6.2,3.9,11.1,11.7,14.8c6.6,3.3,13.2,4.9,19.8,4.9C393.5,279.9,395.6,273.5,395.6,265.7z M464.2,396.1c0,13.6-4.7,25-14.2,34.3
		c-9.5,9.3-21,13.9-34.6,13.9c-13.2,0-24.5-4.7-34-14.2c-9.5-9.5-14.2-20.8-14.2-34c0-16.1,6.8-29.3,20.4-39.6l12.4,22.3
		c-4.9,4.1-7.4,9.9-7.4,17.3c0,6.6,2.3,12.2,6.8,16.7c4.5,4.5,10.1,6.8,16.7,6.8c6.6,0,12.2-2.3,16.7-6.8c4.5-4.5,6.8-10.1,6.8-16.7
		c0-6.6-2.3-12.2-6.8-16.7c-4.5-4.5-10.1-6.8-16.7-6.8h-3.1c-1.7,0.4-2.7,0.6-3.1,0.6l-13-21.6c6.2-2.5,12.4-3.7,18.5-3.7
		c13.6,0,25.1,4.6,34.6,13.9C459.5,371.1,464.2,382.5,464.2,396.1z"/>
</g>
</svg>
