<?xml version="1.0" encoding="utf-8"?>
<!-- Generator: Adobe Illustrator 19.0.0, SVG Export Plug-In . SVG Version: 6.00 Build 0)  -->
<svg version="1.1" id="beachcombing_xA0_Image_1_" xmlns="http://www.w3.org/2000/svg" xmlns:xlink="http://www.w3.org/1999/xlink"
	 x="0px" y="0px" viewBox="-11 13.7 575.8 574.3" style="enable-background:new -11 13.7 575.8 574.3;" xml:space="preserve">
<style type="text/css">
	.st0{fill:#FFFF00;}
	.st1{fill:#573922;}
	.st2{fill:#FFFFFF;}
</style>
<rect x="-11" y="13.7" class="st0" width="575.8" height="574.3"/>
<rect x="34" y="58.5" class="st1" width="486" height="484.7"/>
<g>
	<path class="st2" d="M463.6,480.8c0.6-5.1,1.2-12.3,1.7-21.7c0.5-9.4,0.7-21.3,0.7-35.6v-297c0-14.3-3.1-25-9.4-32
		c-6.2-7-14.9-10.5-26.1-10.5c-4.5,0-9.4,0.6-14.9,1.9l-42.2,76.9l-26.9-9.1l-95.4,18.6c-8.3,1.6-16.5,3.4-24.5,5.5
		c-8,2.1-16,4.4-24,6.9c-4.8,13.1-8.2,62.7-10.1,149l-41.2,150.4l-23.5,8.1l-48.4,23.9c7,4.1,20.8,6.2,41.2,6.2
		c0.6,0,1.6-0.1,2.9-0.2c1.3-0.2,3-0.4,5.3-0.7h265.7c23.7,0,40.3-2.9,49.9-8.6C454.3,507.1,460.7,496.5,463.6,480.8z M183.5,194.3
		H183c-4.5-11.5-10.2-17.3-17.3-17.7c-0.6,0-1.3-0.1-1.9-0.2c-0.6-0.2-1.3-0.2-1.9-0.2c-8,0-12.9,4.1-14.9,12.4l-3.8,89.3
		c5.4,8.6,10.6,13.2,15.3,13.8h1.4c5.1,0,10.7-3.5,16.8-10.5L183.5,194.3z M281.8,405.9l-66.7,65.4l-35,9.1l56.1-140.9l43.2-4.3
		L281.8,405.9z M259.3,127.5c0-8.9-3.2-16.6-9.6-22.9c-6.4-6.4-14.1-9.6-23-9.6c-9.3,0-17.1,3.2-23.5,9.6c-6.4,6.4-9.6,14-9.6,22.9
		c0,8.9,3.2,16.6,9.6,22.9c6.4,6.4,14.2,9.6,23.5,9.6c8.9,0,16.6-3.2,23-9.6C256.1,144,259.3,136.4,259.3,127.5z M338.4,383
		l-29.7,16.7l8.2-84.5l-68.1-21.5l10.6-88.3l89.2-33L338.4,383z"/>
</g>
</svg>
