<?xml version="1.0" encoding="utf-8"?>
<!-- Generator: Adobe Illustrator 19.0.0, SVG Export Plug-In . SVG Version: 6.00 Build 0)  -->
<svg version="1.1" id="beachcombing_xA0_Image_1_" xmlns="http://www.w3.org/2000/svg" xmlns:xlink="http://www.w3.org/1999/xlink"
	 x="0px" y="0px" viewBox="-11 13.7 575.8 574.3" style="enable-background:new -11 13.7 575.8 574.3;" xml:space="preserve">
<style type="text/css">
	.st0{fill:#FFFF00;}
	.st1{fill:#573922;}
	.st2{fill:#FFFFFF;}
</style>
<rect x="-11" y="13.7" class="st0" width="575.8" height="574.3"/>
<rect x="34" y="58.5" class="st1" width="486" height="484.7"/>
<g>
	<path class="st2" d="M494.1,254.3c-2.5,0.7-7.8,1.8-15.9,3.1c-8.1,1.4-18.9,3.5-32.3,6.3c-3.2,9.1-10.9,24.1-23.3,45
		c-4.2,0.7-11.5,2.2-21.7,4.4c-10.2,2.3-23.8,4.8-40.8,7.6c-6.7,4.5-12.8,8.9-18.3,13.1c-5.5,4.2-10.7,8.6-15.6,13.1
		c-8.1,8-14.5,13.3-19.1,15.7c-3.9,1.8-9.7,3.6-17.5,5.5c-7.8,1.9-17.3,3.9-28.6,6c-22.9,4.2-36,11.2-39.2,20.9l-6.9,23.6
		c-7.1,7.7-29.3,11.5-66.7,11.5c-4.9,1.8-8.8,3.1-11.6,3.9c-2.8,0.9-4.4,1.5-4.8,1.8c-0.4,0.4-3,5.8-7.9,16.2
		c-10.6,13.3-24.4,23.9-41.3,31.9C69.7,490,62.1,500.5,60,515.5h371.7c41.6-8.4,62.5-31.4,62.5-69.1L494.1,254.3L494.1,254.3z
		 M448,162.7c-0.7-1-1.9-2.7-3.4-5c-1.6-2.3-3.6-4.8-6.1-7.6c-10.6-13.6-24.4-22.5-41.3-26.7c-2.1-0.3-7.4-1.4-15.9-3.1
		c-9.2,0-17.7,0.5-25.4,1.6c-8.5,2.8-16.1,6.4-23,10.7c-6.9,4.4-13.3,9.3-19.3,14.9c-3.5-2.4-12.5-8.8-27-19.1
		c-14.5-10.3-34.4-24.3-59.8-42.1l-51.9,12l5.3,22l37.1-9.4l9.5,6.8L96,193.6l15.9,67.5l-13.2,6.3c-8.5,4.2-15.6,10.1-21.4,17.8
		c-5.8,7.7-9.8,16.9-11.9,27.7L62.6,326c0,25.1,5.3,44.5,15.9,58.1l5.3,6.8c21.9,17.5,43.1,26.2,63.5,26.2
		c20.1,0,39.9-9.2,59.3-27.7c0-1,2.3-4,6.9-8.9c2.5-3.8,5.1-10.2,7.9-19.1c2.8-8.9,4.2-17.2,4.2-24.9v-3.1
		c-0.7-4.2-1.3-8.4-1.9-12.6c-0.5-4.2-1-8.5-1.3-13.1l29.6-17.3c2.8-2.4,5.5-6.3,7.9-11.5c2.5-5.2,4.6-12,6.4-20.4l19.6-96.8
		l13.2,8.9c-4.6,10.5-6.9,20.9-6.9,31.4c0,5.6,0.5,10.6,1.6,15.2c2.1,7.3,4.8,15.2,7.9,23.6l13.2,16.2
		c15.9,14.7,31.2,23.4,46.1,26.2c1.8,0.4,3.5,0.6,5.3,0.8c1.8,0.2,3.5,0.3,5.3,0.3c8.5,0,19.1-1.6,31.8-4.7c2.8-1.7,6-3.5,9.5-5.2
		c3.5-1.7,7.2-3.5,11.1-5.2c21.5-18.1,32.3-39.3,32.3-63.3c0-3.8-0.2-8-0.5-12.6c-0.4-4.5-1.1-9.2-2.1-14.1L448,162.7z M118.2,141.8
		l-54,30.4l10.6,18.3l54-31.4L118.2,141.8z M193.4,323.4c0.7,1.8,1.1,3.5,1.1,5.2c0,1.7,0,3.5,0,5.2c0,33.5-18.9,50.2-56.6,50.2
		c-11.6-4.2-20.3-8-25.9-11.5c-11.6-12.6-17.5-26.3-17.5-41.3c4.9-20.2,13.2-33.1,24.9-38.7l14.8,65.4L193.4,323.4z M205.6,280.5
		c-12-15-33-23.9-63-26.7l-8.5-36.6l90,52.9L205.6,280.5z M238.4,247.5l-91.1-52.9l102.2-59.1l10.1,6.3L238.4,247.5z M152.1,315.6
		l-4.8-37.7c9.9,2.8,22.4,8.7,37.6,17.8L152.1,315.6z M340,165.9c10.2-10.1,22.2-15.2,36-15.2c15.2,0,27.5,5.2,37.1,15.7
		c7.8,10.1,11.6,21.8,11.6,35.1c0,14-3.9,25.3-11.6,34c-9.5,10.5-21.9,15.7-37.1,15.7c-7.1,0-13.7-1.3-19.9-3.9
		c-6.2-2.6-11.6-6.2-16.1-10.7c-4.6-4.5-8.1-9.9-10.6-16c-2.5-6.1-3.7-12.5-3.7-19.1c0-1.7,0.1-3.6,0.3-5.5c0.2-1.9,0.4-3.7,0.8-5.5
		c9.5,7,22.2,15.9,38.1,26.7l14.8-22.5L340,165.9z"/>
</g>
</svg>
