<?xml version="1.0" encoding="utf-8"?>
<!-- Generator: Adobe Illustrator 19.0.0, SVG Export Plug-In . SVG Version: 6.00 Build 0)  -->
<svg version="1.1" id="beachcombing_xA0_Image_1_" xmlns="http://www.w3.org/2000/svg" xmlns:xlink="http://www.w3.org/1999/xlink"
	 x="0px" y="0px" viewBox="-11 13.7 575.8 574.3" style="enable-background:new -11 13.7 575.8 574.3;" xml:space="preserve">
<style type="text/css">
	.st0{fill:#FFFF00;}
	.st1{fill:#4040FF;}
	.st2{fill:#FFFFFF;}
</style>
<rect x="-11" y="13.7" class="st0" width="575.8" height="574.3"/>
<rect x="34" y="58.5" class="st1" width="486" height="484.7"/>
<g>
	<path class="st2" d="M109,215c-6.9,11.4-15.7,28.7-26.3,51.9c-3.7,8.1-5.3,15.5-4.9,22l2.4,35.4l-34.9,56.8L69.1,400l41.6-54.3
		c4.9-6.5,7.5-18.9,7.9-37.3l22,21.4l1.2,9.8c0.4,4.1,1.4,11.4,3.1,22c2.8,6.5,6.9,18.7,12.2,36.6l23.8-4.9l-3.1-45.2l-3.7-29.9
		c-4.9-10.6-13.7-22.6-26.3-36l-10.4-11l12.8-20.8l14.7,8.5l36.7,17.7l15.3-20.8L124,190.5L109,215z M480.7,360.4l-4.3-3.1
		c5.3,3.3,12.8,4.9,22.6,4.9c4.1-4.1,6.7-8.9,7.9-14.7l-5.5-3.1c-11-6.1-17.3-11.4-19-15.9l-1.8-10.4l-3.7-1.2
		c-2.9-2-7.3-3.5-13.5-4.3c-1.2,0-5.7-0.8-13.5-2.4c-1.6-1.2-3.1-1.8-4.3-1.8c-3.7,0-5.5,3.3-5.5,9.8l5.5,3.7
		c1.6,0.8,2.4,1.6,2.4,2.4l-14.6,6.7l-28.7,1.8c-5.7,0.4-10.8,0.2-15.3-0.6c-2.4-0.4-5.5,0.3-9.2,2.1c-3.7,1.8-5.7,2.7-6.1,2.7
		H229.2L195,285.9h-7.3l14,119.1H94.9l-8,40.3h155.3c26.1,0,39.1-11.3,39.1-33.8v-24.8h-19.6L242.1,358h94.2l-14.1,4.3h-4.9
		l-42.2,5.4l9.8,7.8l-7.3,4.2l13.5,4.8l-5.5,4.8l13.5,1.2l5.5-5.2l2.4-1.7l2.4-2.9v2.7l-8.6,6.5l4.9,0.5l6.7-1.6l4.9-1.6l3.1-2.1
		l2.4-3.2l0.6,2.4l-1.2,2.4l-16.5,10.4l18.3-2.4l-2.4,4.3l12.8-10.4l-1.2,6.1l10.4-7.9l0.6,3c0.8,1.6,0.5,3.6-0.9,6
		s-2.1,3.8-2.1,4.2c0,0.8,0.8,1.6,2.4,2.4c2.4,2.4,4.5,7.7,6.1,15.7c0.8,5.2,4.1,9.1,9.8,11.5c15.5,6.9,26.9,10.3,34.2,10.3
		c15.9,0,23.8-3.1,23.8-9.4c0-5.4-1.8-9-5.5-10.6c-15.1-1.7-22.6-6.2-22.6-13.8v-5c0-2.1,0-3.5,0-4.4c0-2.1,0.4-4.2,1.2-6.3h0.6
		c2.4,1.7,6,4,10.8,6.9c5.2,0.8,11.4,2.1,18.7,3.8c1.6,0.8,4.6,2.7,9,5.7v0.6c-9,1.7-13.5,5.9-13.5,12.6s5.1,10.1,15.3,10.1
		c18.7,0,28.1-6.5,28.1-19.4c0-4.4-3.5-9.7-10.4-15.7c2.4-2.4,5.5-6.4,9.2-12.1c0.4-1.6,0.6-5,0.6-10.3c0.4-2.8,1.4-4.2,3.1-4.2
		c1.2,0,3.7,0.8,7.3,2.4c4.9,2.9,9.6,4.3,14.1,4.3c5.7,0,8.6-3.1,8.6-9.2C489.5,364.6,485.6,362.8,480.7,360.4z M141.4,180.8
		c0,16.7,8.3,25,25.1,25c17.1,0,25.7-8.3,25.7-25c0-17.1-8.6-25.6-25.7-25.6C149.7,155.2,141.4,163.7,141.4,180.8z"/>
</g>
</svg>
