<?xml version="1.0" encoding="utf-8"?>
<!-- Generator: Adobe Illustrator 19.0.0, SVG Export Plug-In . SVG Version: 6.00 Build 0)  -->
<svg version="1.1" id="beachcombing_xA0_Image_1_" xmlns="http://www.w3.org/2000/svg" xmlns:xlink="http://www.w3.org/1999/xlink"
	 x="0px" y="0px" viewBox="-11 13.7 575.8 574.3" style="enable-background:new -11 13.7 575.8 574.3;" xml:space="preserve">
<style type="text/css">
	.st0{fill:#FFFF00;}
	.st1{fill:#573922;}
	.st2{fill:#FFFFFF;}
</style>
<rect x="-11" y="13.7" class="st0" width="575.8" height="574.3"/>
<rect x="34" y="58.5" class="st1" width="486" height="484.7"/>
<g>
	<path class="st2" d="M197.5,390.2H197c0-2.2-1.5-4.1-4.3-5.6c2.8-3.1,4.3-5.6,4.3-7.5v-0.9c-1.6-2.8-4-4.7-7.1-5.6
		c1.9-1.2,2.8-2.8,2.8-4.7c0-3.4-2.5-5.7-7.5-7.1c0.9-1.2,1.5-2.8,1.5-4.7c0-2.8-1.6-4.3-4.7-4.3c-1.6,0-2.8,0.1-3.8,0.4v-1.9
		c0-2.8-0.6-4.9-1.9-6c0-0.6-2.5-1.5-7.5-2.4c0-4.7-1.9-7.1-5.6-7.1c-1.6,0-3.5,0.4-5.6,1.5c-0.3-1.9-2.4-4.1-6.2-6.6H150
		c-2.5,0-4.4,0.9-5.6,2.8c-2.5-3.4-4.4-5.1-5.6-5.1c-2.5,0.9-3.8,2.4-3.8,4.3c-3.8-2.2-6.6-3.2-8.5-3.2c-0.6,0-1.2,0.1-1.5,0.3
		c-0.3,0.1-0.6,0.3-0.9,0.3c-2.2,0.9-3.2,2.2-3.2,3.8c-2.2-1.2-4.3-1.9-6.2-1.9c-1.3,0-2.2,0.1-2.8,0.4c-1.3,0.3-2.2,1.5-2.8,3.2
		c-0.9-0.3-2.4-0.4-4.3-0.4c-5,0-7.5,2.6-7.5,7.9c-0.9-0.3-2.2-0.4-3.8-0.4c-3.1,0-4.9,0.9-5.1,2.8c-1.6,2.5-2.4,4.9-2.4,7.1
		c-2.5,0.6-4.9,2.5-7.1,5.6c-0.3,0.3-0.4,1-0.4,2.4c0,1.3,0.3,2.2,0.9,2.8c-5,0-7.5,1.9-7.5,5.6c0,0.6,0.3,1.3,0.9,1.9
		c-2.5,1.6-3.8,3.2-3.8,5.1v1.5c0,1.6,0.7,2.6,2.4,3.2c-1.6,0.9-3.5,2.8-5.6,5.6c0,3.1,2.2,5.6,6.6,7.5c-2.8,3.4-4.3,5.9-4.3,7.5
		c0.6,3.4,2.6,5.4,6.2,6c-1.3,1.3-1.9,2.9-1.9,5.1c0,1.3,0.1,2.2,0.4,2.8c0.9,1.6,3.7,3.2,7.9,5.1c-0.3,0.9-0.4,2.2-0.4,3.8
		c0,2.5,0.9,4.3,2.8,5.1l4.7,1.9v2.8c0,4.4,1.9,6.6,5.6,6.6c1.9,0,3.4-0.6,4.7-1.9c0.9,6.6,3.2,9.8,7.1,9.8c2.2,0,4-0.1,5.1-0.4
		c0.3,0.9,2.2,2.6,5.6,5.1c0.6,0.3,1.6,0.4,2.8,0.4c1.6,0,3.2-0.4,5.1-1.5c2.2,2.8,4.3,4.3,6.2,4.3c1.9,0,3.8-1.5,5.6-4.3
		c1.3,1.9,2.8,2.8,4.7,2.8c3.1,0,6-2.2,8.5-6.6c2.5,2.5,4.4,3.8,5.6,3.8c2.8,0,4.3-2.8,4.3-8.4c3.1,2.5,5.3,3.8,6.6,3.8h0.4
		c1.6-0.6,2.5-2.2,2.8-4.7l0.4-3.8c1.9,0.9,3.7,1.5,5.1,1.5c0.6,0,1-0.1,1.2-0.3s0.4-0.3,0.7-0.3c2.5-0.9,3.8-2.9,3.8-6
		c0-0.6-0.1-1.2-0.3-1.6c-0.1-0.4-0.3-1-0.3-1.6c2.2-0.9,4.9-2.5,7.9-4.7c0.3-0.6,0.4-1.2,0.4-1.9c0-1.2-0.9-2.6-2.8-4.3
		c4.4,0,6.8-1,7.1-3.2c0-2.2-0.7-4.4-2.4-6.6c1.6,0,3.2-0.9,5.1-2.8c0.3-0.3,0.4-0.9,0.4-1.9c0-1.2-0.9-2.8-2.8-4.7
		C195.9,394.9,197.5,392.4,197.5,390.2z M147,394.1l0.4-0.4c0.3,1.6,0.4,2.9,0.4,4.3c0,0.9,0,2.1,0,3.2c0,16.6-7.4,25.6-22.2,27.2
		h-2.4c-9.1,0-17.2-3.5-24.3-10.6s-10.6-15.4-10.6-25.1c0-18.1,7.2-27.8,21.6-29.1h2.4c8.1,0,15.4,3.1,21.9,9.1
		C141,378.8,145.3,385.8,147,394.1z M471.5,318.5V318c-0.9-3.4-3.8-5.1-8.5-5.1c-2.5,0-14.8,6.5-37.2,19.3l-38.1-7.5
		c-3.5-0.9-5.1-1.8-5.1-2.4c0-5.3,1.9-7.9,5.6-7.9c8.1,1.3,14.4,2.6,18.8,4.3c10.7,1.9,17.3,2.8,20.3,2.8c1.3,0,7.4-3.1,18.4-9.4
		h2.8c1.3-0.3,1.9-1,1.9-2.4c0.3,0,0.6-1,0.9-3.2c0-0.6-0.7-1.2-2.4-1.9c-1.3-0.3-9.6-1.8-25-4.3c-7.2-1.2-13.2-2.1-17.9-2.6
		c-4.7-0.4-7.8-0.7-9.4-0.7c3.1-0.3,5-0.7,5.6-1.5h-0.9l-1.9,0.9c-3.5,0-9.6-6-18.4-18.2c-3.1-1.2-5-2.8-5.6-4.7
		c-0.3-0.6-0.4-1.5-0.4-2.4c0-1.9,1.3-2.8,3.8-2.8c12.2,0,18.4-5.7,18.4-17.3c0-6.9-3.1-10.3-9.4-10.3h-0.9c-6.6,0-14.4,1-23.5,3.2
		l-4.7-10.7c0.3-0.6,1.9-1.9,4.7-3.8c9.4-1.2,14.1-5,14.1-11.3c0-5-2.4-7.5-7.1-7.5c-1.9,0.6-3.5,1-4.7,1.5l0.4-0.9h-19.8
		c-20.4,0-31.6-0.7-33.4-2.4c-8.8-9.7-20-19.8-33.4-30.4c-1.3,1.3-5,2.4-11.3,3.2c-5.3-0.9-12.1-1.5-20.3-1.5l-9.4-1.9
		c-2.5-0.3-4.4-0.6-5.9-0.7c-1.5-0.1-2.6-0.3-3.5-0.3h-1.5c-1.6,0.3-5,5.7-10.3,16.5c-2.8,5.3-4.3,15.6-4.3,31c0,5,0.9,8.1,2.8,9.4
		l7.5,2.4c-0.3,2.2-0.7,4.6-1.5,7.2c-0.6,2.6-1.3,5.7-1.9,9.1c-1.3,2.5-1.9,7.8-1.9,16c-12.2-4.7-21.8-7.1-28.7-7.1
		c-2.5,0-4.7,0.3-6.6,0.9c-8.5,1.3-15.6,4.7-21.2,10.3c-2.2,2.2-5.4,7.1-9.8,14.6h-0.9c-1.9,0-4.7-0.9-8.5-2.8l-6.6-10.7
		c-0.6-0.6-2.1-0.9-4.3-0.9s-4.1,0.1-5.6,0.4c-4.1,1.3-8.2,2.5-12.2,3.5c-4.1,1-8.4,2.5-12.6,4c-2.8,1.9-4.3,4.4-4.3,7.5v4.3
		c0,3.1-0.4,6.6-1.5,10.3c-0.9,3.4-1.6,5.1-1.9,5.1v-1.5c0,1.3,0.4,2.5,1.5,3.8c6-1.2,13.4-1.9,22.2-1.9c20.7,0,38.1,3.4,52.2,10.3
		c4.4,2.5,12.9,10.6,25.4,24.4c12.5,14.1,18.2,21.2,16.9,21.2l-0.4,11.8c0.3,0.6,0.4,1.6,0.4,2.8c0,2.5-0.9,4.4-2.8,5.6
		c2.8,1.6,4.3,3.4,4.3,5.6c0,3.1-1.6,5.6-4.7,7.5c1.9,1.6,2.8,3.4,2.8,5.6v1.5l-2.8,0.4c3.1,2.8,5.4,4.3,7.1,4.3
		c1.6-0.6,3.1-2.4,4.7-5.1c0.6,0,1.3,0.1,1.9,0.3c0.6,0.1,1.3,0.3,1.9,0.3c6.9,0,10.3-2.1,10.3-6l-0.4-1.5c5.3,0,7.9-0.7,7.9-2.4
		c0.3-4.1,1-6,2.4-6h37.6c6.9,3.1,11.2,4.7,12.6,4.7h0.9c2.2-3.4,4.1-6.9,5.6-10.3c1.6-3.4,2.6-6.9,3.2-10.3
		c4.1-9.7,16.3-20.6,36.8-32.8c4.1-2.2,9.3-3.4,15.6-3.8c1.3,0,2.5-0.1,3.8-0.3c1.3-0.1,2.6-0.3,4.3-0.3l10.3,0.4
		c2.5,0.3,4.6,0.4,6.2,0.4c1.9,0,3.2,0.1,4.3,0.4h-0.4c0,0.3,13.5,2.6,40.4,7.1C456.1,331.4,471.5,322.8,471.5,318.5z M132.9,413.8
		c-3.1-5.9-7.6-10.1-13.7-12.6c-0.6-1.2-1.3-2.4-1.9-3.2c-0.6-0.9-1.2-1.8-1.5-2.4c-2.8-2.8-6-4.3-9.4-4.3l-2.4,0.4
		c-5.3,0.9-8.2,2.5-8.5,4.7v0.9c0,4.1,2.6,9.1,7.9,15c6,5.6,11.6,8.4,16.9,8.4c1.9,0,4.4-0.9,7.5-2.8
		C131.5,416.1,132.9,414.6,132.9,413.8z M133.5,286c0,1.3-0.6,2.1-1.9,2.4v-0.4c-3.8,2.8-11,6-21.6,9.8c-0.3,0.3-0.7,0.4-1.5,0.4
		c-1.6,0-3.1-1-4.4-3.1c-1.5-2.1-2.1-3.8-2.1-5.4c0-3.1,7.8-7.1,23.5-11.8h0.9c1.3,0,2.2,0.3,2.8,0.9
		C132.1,281.9,133.5,284.2,133.5,286z M277.4,144.4h0.9c0-7.5-2.4-13.7-7.1-18.5c-4.7-4.9-10.7-7.2-17.9-7.2
		c-6.9,0-12.9,2.5-18.1,7.2c-5.1,4.9-7.8,10.9-7.8,18.1c0,16,11.5,25,34.4,27.2h1.9C272.9,171,277.4,162.2,277.4,144.4z M262,337.2
		c10,0.6,15,1.3,15,1.9c0,2.8-1.8,5.9-5.1,9.4c-2.8-2.8-6.9-4.3-12.2-4.3c-12.5,0-18.8,6.5-18.8,19.3c0,5.3,1.8,9.7,5.1,13.1h-6.2
		c-5-7.8-7.5-14.8-7.5-21.2c0.3-1.9,0.7-4.7,1.5-8.4c2.5-5.3,6.9-8.5,13.2-9.8c0.6,0,1.3-0.1,2.1-0.3c0.7-0.1,1.8-0.3,3.1-0.3
		s2.6,0.1,4.3,0.3C257.9,337.2,259.8,337.2,262,337.2z M274.7,144.4c0.6,0.6,0.9,1.6,0.9,2.8c0,1.3-0.1,2.2-0.4,2.8
		c-0.6,2.8-1.6,4.3-2.8,4.3c-0.3,0.3-0.7,0.4-1.5,0.4c-1.9,0-4-1-6.2-3.2c-4.1,2.2-7.2,3.2-9.4,3.2c-0.9,0-1.6-0.1-1.9-0.4
		c-5-0.3-7.5-2.6-7.5-7.1c0-2.8,0.9-5.6,2.6-8.4c1.8-2.8,3.2-4.3,4.4-4.3h16.5C272.3,134.6,274.1,137.8,274.7,144.4z M321.7,340
		c0,1.6-0.6,2.9-1.9,4.3c-13.2,13.1-20.4,22.5-21.6,28.2c-0.6,2.8-1.5,4.6-2.4,5.1c-0.6,0-1.3-0.3-1.9-0.9
		c-3.1-0.3-6.8-1.9-10.9-4.7v-0.4c0-4.1,5.1-14,15.6-29.5c3.4-4.4,7.1-6.6,10.9-6.6C317.7,335.4,321.7,336.9,321.7,340z M342,270.6
		c-0.9,0.9-2.4,1.5-4.3,1.5s-3.5-0.1-4.7-0.4c-1.3-3.1-4.3-6.6-9-10.3c-1.9-2.2-3.8-3.2-5.6-3.2c-8.8-1.6-15.7-2.8-20.9-3.8
		c-5.1-0.9-8.7-1.8-10.6-2.4c14.7-1.2,27.2-5.7,37.2-13.7C327.6,238.2,333.6,249,342,270.6z M353.7,219.4c-2.8,4.4-4.3,7.5-4.3,9.4
		c0,1.9,0.9,7.5,2.8,16.9l-9.4,1.9c-2.2-2.8-4.7-5.7-7.4-9c-2.6-3.1-5.7-6.5-9.1-9.8c-0.6,0-1.2-0.1-1.5-0.3
		c-0.3-0.1-0.6-0.3-0.9-0.3c-0.6,0-1,0.1-1.2,0.3c-0.1,0.1-0.4,0.3-0.7,0.3c-2.2,0.6-5.9,1.5-11,2.6c-5.1,1-11.9,2.5-20,4V219
		c6.9,3.4,14,5.1,21.2,5.1c4.1,0,8.5-0.7,13.2-2.4c0.9-0.3,3.8-0.6,8.5-0.9C338.7,220.6,345.4,220.1,353.7,219.4z M438.6,417
		c0-2.2-1.6-4-4.7-5.1c1.9-2.8,2.8-5.4,2.8-7.9v-1.5c-1.6-1.6-3.7-2.9-6.2-4.3c1.6-2.2,2.4-4,2.4-5.1c0-4.4-2.4-6.6-7.1-6.6
		c-0.6,0-1.2,0.1-1.5,0.4c0.6-2.5,0.9-4.1,0.9-4.7c0-3.4-1.8-5.1-5.1-5.1l-2.8,0.4c0-0.9-0.7-3.2-2.4-7.1c-0.9-0.9-2.6-1.5-5.1-1.5
		h-3.2c0-5.3-1.9-7.9-5.6-7.9c-1.6,0-3.1,0.7-4.7,2.4c-0.9-1.9-2.9-3.8-6.2-5.6c-1.3-0.6-2.2-0.9-2.8-0.9c-2.2,0-4,1-5.1,3.2
		c-2.2-3.1-4.1-4.7-5.6-4.7c-1.6,0.6-2.8,2.2-3.8,4.7c-3.8-1.6-6.2-2.4-7.1-2.4c-4.7,0-7.1,1-7.1,3.2c-2.5-0.6-4.3-0.9-5.1-0.9
		l-3.2,0.4c-1.6,0.9-2.6,2.4-3.2,4.3c-0.9-0.3-2.2-0.4-3.8-0.4c-5.3,0-7.9,2.8-7.9,8.4c-0.9-0.3-2.4-0.4-4.3-0.4
		c-4.4,0-6.6,3.1-6.6,9.4c-0.6,0.6-1.5,1.3-2.6,1.9s-2.5,1.6-4,2.8c0.6,1.3,0.9,3.4,0.9,6.6c-4.4,0-6.6,1.9-6.6,5.6
		c0,0.9,0.3,1.8,0.9,2.4c-1.6,0.9-2.8,2.8-3.8,5.6v1.9c0,1.9,0.4,2.9,1.5,3.2c-0.3,0.3-1.3,2.1-2.8,5.1v1.5c0,3.4,2.1,5.3,6.2,5.6
		c-2.5,3.1-3.8,5.6-3.8,7.5v0.9c0.9,2.5,2.9,4.3,6.2,5.1c-1.3,1.3-1.9,2.9-1.9,5.1c0,3.4,2.9,6.3,9,8.4c-0.3,0.6-0.4,1.8-0.4,3.2
		c0,4.1,2.8,6,8.5,6c0,3.8,0.7,6.5,2.4,7.9c1.3,1.3,2.5,1.9,3.8,1.9s2.5-0.6,3.8-1.9c1.6,6.3,4.3,9.4,7.9,9.4c1.6,0,3.4-0.6,5.6-1.9
		c0.6,2.2,2.4,4.3,5.1,6h1.5c1.9,0,4.3-0.9,7.1-2.8c3.1,2.5,5.3,3.8,6.6,3.8c1.9,0,3.8-1.6,5.6-4.7c1.6,2.5,3.2,3.8,5.1,3.8
		c2.8,0,5-2.2,6.6-6.6c2.5,1.6,4.3,2.4,5.1,2.4c3.1,0,4.7-1.5,4.7-4.3c0-1.2-0.1-2.4-0.4-3.2c2.8,1.9,5,2.8,6.6,2.8h0.9
		c2.2-0.6,3.2-2.9,3.2-7.1v-1.9c1.9,0.6,3.1,0.9,3.8,0.9c4.4,0,6.6-1.9,6.6-5.6c0-1.6-0.1-2.8-0.4-3.8c2.2-0.9,4.7-2.5,7.5-4.7
		c0.3-0.3,0.4-0.7,0.4-1.5c0-1.6-0.9-3.1-2.8-4.7c4.1,0,6.5-1.5,7.1-4.3c0-0.6-0.3-1.9-0.9-3.8l-1.5-2.4c1.6,0,3.2-1.2,5.1-3.8v-0.9
		c0-1.9-0.9-3.8-2.8-5.6C437.2,422,438.6,419.5,438.6,417z M395.2,430.7c0,7.8-2.1,14.6-6.3,20.4c-4.3,5.7-9.6,9-15.7,9.6h-1.5
		c-8.5,0-16.5-4.1-24-12.2c-7.8-8.1-11.8-17.3-11.8-27.6c0-15.6,7.2-24.6,21.6-26.8h2.8c9.1,0,17.2,3.5,24.3,10.7
		C391.7,412,395.2,420.5,395.2,430.7z M356.1,442.7c0.3-0.3,0.4-0.9,0.4-1.9c-4.4-17.8-7.5-26.8-9.4-26.8c-3.5,0-5.1,3.8-5.1,11.3
		v1.9c0,7.5,2.6,12.5,7.9,15c1.9,0.9,3.4,1.5,4.7,1.5C355.7,443.7,356.1,443.4,356.1,442.7z M491.2,373.8v-0.9
		c0-0.6-0.6-1.8-1.6-3.5c-1.2-1.8-1.9-2.6-2.6-2.6h-0.4c0.9-1.9,1.5-4,1.5-6v-2.4c-0.3-1.2-3.1-2.8-8.5-4.7c1.9-2.8,2.8-5.1,2.8-7.1
		c0-2.8-2.5-4.3-7.5-4.3h-2.4l-26.9,11.3c-1.9,0.9-2.8,1.9-2.8,2.8c0,0.6,0.1,1,0.4,1.5c1.3,5.3,2.2,9.4,2.8,12.2
		c0.6,2.8,0.9,4.6,0.9,5.1c0,5.9,0.4,11.9,1.5,17.8c3.8,1.9,5.6,4.3,5.6,7.1c0,3.1-0.9,5.3-2.8,6.6c2.8,1.9,4.3,3.5,4.3,5.1
		c0,2.2-1.5,4.9-4.3,7.9c2.8,1.6,4.3,3.4,4.3,5.6c1.6-0.3,2.9-0.6,4-0.7c1-0.1,2.2-0.4,3.5-0.7c0.6,0.3,1.5,0.4,2.4,0.4
		s1.8-0.1,2.4-0.4c2.8-0.6,4.4-3.5,4.7-9l1.9,0.4c2.8,0,5-3.5,6.6-10.7c0.9,0,2.4-0.9,4.3-2.6s2.8-3.4,2.8-5c0-1.2-0.4-2.4-1.5-3.2
		c0.9-0.6,2.2-2.4,3.8-5.1c0-1.2-0.7-4-2.4-7.9c2.2-3.1,3.2-5.3,3.2-6.6L491.2,373.8L491.2,373.8z"/>
</g>
</svg>
