<?xml version="1.0" encoding="utf-8"?>
<!-- Generator: Adobe Illustrator 19.0.0, SVG Export Plug-In . SVG Version: 6.00 Build 0)  -->
<svg version="1.1" id="beachcombing_xA0_Image_1_" xmlns="http://www.w3.org/2000/svg" xmlns:xlink="http://www.w3.org/1999/xlink"
	 x="0px" y="0px" viewBox="-11 13.7 575.8 574.3" style="enable-background:new -11 13.7 575.8 574.3;" xml:space="preserve">
<style type="text/css">
	.st0{fill:#FFFF00;}
	.st1{fill:#573922;}
	.st2{fill:#FFFFFF;}
</style>
<rect x="-11" y="13.7" class="st0" width="575.8" height="574.3"/>
<rect x="34" y="58.5" class="st1" width="486" height="484.7"/>
<g>
	<path class="st2" d="M227,218.6H76.4v-15.5h15.5l60.2-106.4l60,106.1h15v15.5V218.6L227,218.6z M191.7,388.2l5.5,9
		c0.7,0,1.1,0.2,1.2,0.5s0.2,1.1,0.2,1.9c0.4,0.4,0.5,0.7,0.5,1.1c0,0.4,0,0.9,0,1.4l-1.4,3.5l1.4,4v3.5l-1.4,4.9
		c-0.4,3.3-0.5,6.2-0.7,8.4s-0.4,4.4-0.7,6c-0.7,1.6-1.1,3-1.2,4s-0.2,1.6-0.2,1.9c-0.7,3-1.8,5.5-3.5,7.2c-1.6,1.8-4,3.3-7,4.8
		c-0.7,1.9-1.4,3.7-1.9,4.9c-0.7,1.4-1.4,2.1-2.5,2.5c-1.1,0.7-2.1,1.2-3.5,1.8c-1.4,0.5-2.6,1.1-4,1.8c-0.7,0.4-1.1,0.7-1.2,1.1
		c-0.2,0.4-0.2,0.9-0.2,1.4c0,0.4,0,0.7,0,1.1v1.9c-1.1,0.7-1.8,1.4-2.5,1.9c-1.4,0.4-2.6,1.1-4,1.9c-1.4,1.1-3,1.9-4.9,3h-4.9
		c-0.7,0-1.2,0.2-1.8,0.5s-0.9,0.5-1.2,0.5c-0.7,0-1.2,0-1.4,0c-0.4,0-0.7,0-1.1,0c-1.1,0-1.8,0-2.5,0c-0.7,0-1.4-0.4-1.9-1.1
		l-3,1.1h-5.3c-1.1,0.7-2.1,1.1-3.2,1.1c-1.2,0-2.1,0-2.8,0c-0.7,0-1.4,0-2.3,0c-0.9,0-1.6,0-2.3,0h-2.5c-1.6-0.7-3-1.2-3.7-1.8
		c-0.9-0.5-1.2-1.1-1.2-1.8c-1.4-0.7-2.8-1.2-4.2-1.4c-1.4-0.4-3-0.5-4.2-0.5l-4.4-4.9l-7.9-4c-0.4-1.1-0.7-2.3-1.1-3.7
		c-0.4-1.4-0.5-2.8-0.5-3.7c-1.1-0.4-1.8-0.7-2.5-1.2c-0.7-0.5-1.4-0.7-1.9-0.7l-10-16.9l1.4-3c-0.7-0.7-1.1-1.4-1.2-2.3
		c-0.2-0.9-0.2-1.8-0.2-2.8s-0.2-1.8-0.7-2.5c-0.5-0.7-0.7-1.2-0.7-1.4c0-1.1,0-1.9,0-2.8s0.5-1.8,1.4-2.8l-3.5-7.4
		c1.1-1.9,1.6-3.7,1.9-4.9c0-1.4,0.2-3,0.7-5.3c0.5-2.1,1.2-4.8,2.3-7.7c0.4-4.6,1.4-8.4,3.5-11.3c1.9-2.8,4.2-5.3,7-7.2l4-8.4
		l6.5-1.1l3-6l6-1.4l3.5-5.5h3c1.6,0,3.3,0.2,4.9,0.5c1.6,0.4,3.7,0.7,6,1.1c1.6-0.7,3.3-1.2,4.9-1.8c1.6-0.5,2.8-1.1,3.5-1.8
		c1.4-0.4,2.3-0.5,3-0.7c0.7-0.2,1.2-0.5,1.4-1.2l7.4,4.9l6-1.4c0.7,0.7,1.2,1.2,1.4,1.4c0.7,0.7,1.1,1.2,1.2,1.8s0.5,1.2,1.2,2.3
		c1.1,0,1.9-0.2,3-0.7c1.1-0.5,1.8-0.7,2.5-0.7c0.4,0,0.9,0,1.4,0c0.7,0.7,1.2,1.4,1.4,2.5c0.4,0.4,0.7,1.1,1.2,1.9
		c0.5,1.1,0.9,1.9,1.2,3c1.4,0.4,2.3,0.5,2.8,0.5c0.5,0,0.9,0.4,1.2,1.1c0,0.4,0.2,0.7,0.5,1.1c0.4,0.4,0.7,0.5,1.1,0.5
		c0,1.4,0.2,2.6,0.7,3.7c0.5,1.2,1.1,2.5,1.8,3.7l6.5,1.9l0.5,7c1.6,1.9,2.8,3.3,3.7,4.2C191.1,386.8,191.7,387.5,191.7,388.2z
		 M147.8,404.6c-3-6-6.5-10.4-10.4-13.4c-4-3-8.6-4.4-13.9-4.4c-1.6,0-3.3,0.2-4.9,0.5c-1.6,0.4-3.7,0.9-6,1.4
		c-1.9,0.7-4.2,1.6-6.7,2.8c-2.5,1.2-5.1,2.3-7.7,3.2c-2.3,5.3-4,10.4-5.3,15.1s-1.8,9.3-1.8,13.7c0,4.9,0.9,9.5,2.5,13.7
		s4.2,7.6,7.4,10.2c2.6,2.6,5.6,4.6,9.1,6c3.5,1.4,7.6,1.9,12.1,1.9c4.2,0,8.3-0.7,11.6-2.3c3.5-1.4,6.9-3.3,10.2-5.6
		c3.3-2.3,5.6-5.3,7.2-9c1.4-3.7,2.3-7.6,2.3-12c0-3.3-0.5-6.9-1.4-10.7C151.4,412,150,408.3,147.8,404.6z M467.5,313.6
		c0,1.9-2.3,4.6-7,7.7c-4.6,3.2-12,7-21.8,11.6c-3.3,0.4-6.7,0.7-10,1.2c-3.3,0.5-6.3,1.1-9,1.8c-3,0-5.8,0.2-8.4,0.7
		c-2.6,0.5-5.1,0.7-7.4,0.7c-3,0-5.8-0.2-8.4-0.5s-5.1-0.9-7.4-1.4l-12.8-3c-0.7-0.7-1.6-1.2-3-1.4c-1.4-0.4-2.3-1.1-3-1.9
		c-1.1-0.7-2.1-1.4-3.2-1.9c-1.2-0.7-2.1-1.4-2.8-1.9c-0.7-0.7-1.2-1.1-1.4-1.1c-0.7-0.7-1.4-1.1-2.5-1.1c-1.9,0-3.5,0.5-4.4,1.4
		c-1.1,1.1-1.4,2.5-1.4,4.4c0,2.6,0.9,4.9,2.8,7c1.8,1.9,4.2,3.5,7.2,4.4l7.4,4.9c1.1-0.7,2.5-1.2,4.4-1.4c1.9-0.4,4.2-0.5,6.5-0.5
		c0.4,0,1.1,0.2,1.9,0.5c1.1,0.4,2.1,0.5,3.5,0.5s2.8,0.2,4.2,0.5s2.8,0.5,4.2,0.5c1.9,0,3.7,0.2,5.3,0.5c1.4,0.4,3,0.5,4.8,0.5
		c1.4,0.7,2.8,1.1,4.2,1.1c1.4,0,2.8,0,4.2,0c1.9,0,4,0,6.2,0s4.4-0.4,6.7-1.1c1.9-0.4,4-0.7,6.2-1.1c2.1-0.4,4.2-0.9,6.2-1.4
		c4.6-1.9,8.8-3.5,12.5-4.4c3.7-1.1,6.7-1.4,9-1.4c0.7,0,1.2,0,1.4,0c0.4,0,0.5,0.4,0.5,1.1c0,1.4-1.6,3-4.9,4.8
		c-3.3,1.8-7.9,3.9-13.9,6.2c-3,1.4-5.5,2.5-7.4,3.2c-1.9,0.9-3.9,1.4-5.5,1.8c-1.6,0.7-3,1.2-3.7,1.4c-0.9,0.4-1.4,0.9-1.8,1.4
		c-0.7,0-1.2,0-1.4,0c-1.1,0-1.6,0-1.8,0c-0.2,0-0.5,0-1.2,0c-2.3,0-4.6-0.2-7-0.5c-2.3-0.4-4.8-1.1-7.4-1.9c-4-0.4-7.9-0.7-12-1.1
		c-4-0.4-7.4-0.9-10.4-1.4c-3.7-0.4-6.9-0.5-9.7-0.7c-2.8-0.2-5.5-0.2-7.7-0.2c-9.3,0-17.2,1.4-24.1,4c-6.9,2.6-12.7,6.5-17.6,11.4
		c-1.9,1.6-4.2,4.2-6.7,7.7c-2.5,3.5-5.3,7.4-8.3,11.6c-2.6,4.4-5.6,9.3-9,15.1c-3.3,5.8-7,12.1-10.9,19.2c-0.7,2.6-1.6,5.3-3,7.9
		c-0.4-4.9-1.1-8.6-1.9-11.3s-2.3-4-4-4.8c-1.1-0.7-4.8-1.2-11.3-1.8c-6.5-0.5-15.5-1.1-27.1-1.8c-3,4-5.8,7.2-8.4,10
		c-2.6,2.6-4.6,4.9-6,7l-16.4,4.9l-6.5-1.4c-1.4-1.4-2.5-3.2-3.2-5.5c-0.9-2.3-1.2-4.8-1.2-7.4c0-4.2,0.7-7.7,1.9-10.4
		c1.4-2.6,3.7-4.2,7-4.4c5.6,0,9.9-0.5,12.7-1.4c2.8-1.1,4.2-2.6,4.2-4.9c0-3-1.6-5.5-4.8-7.4c-3.2-1.9-7.9-3.7-14.3-4.9l-0.5-1.9
		c-2.3-7.2-5.6-14.1-9.7-20.1c-4.2-6.2-9.3-11.6-15.7-16.7c-6-4.9-12.1-9-18.6-12c-6.5-3-13.5-5.1-21.1-6.5
		c-6.3,0-13.2,0.2-20.6,0.5c-7.4,0.4-15.1,1.1-23,1.9l1.9-23.9c2.3-1.4,4-2.3,4.9-3c1.4-1.1,2.8-1.9,4.4-2.8c1.6-0.9,3.7-1.9,6-3.2
		c2.3-1.4,4.4-2.5,6.5-3.2c1.9-0.9,3.9-1.2,5.5-1.2c2.6,0,5.3,1.4,7.9,4.2s5.3,7,7.9,12.7c3.3,0,7,0.2,10.9,0.7
		c4,0.5,8.4,1.6,13.4,3.2c4.6,1.9,9.9,4,15.5,6c5.6,1.9,11.6,4.4,17.9,7c9.7,4,17.4,8.4,23.6,13.4c6.2,4.9,10.6,10.2,13.2,15.8
		c-2.6,3.7-4.8,7.4-6.2,11.3s-2.3,7.7-2.3,11.6c0,2.6,0.4,5.6,1.2,9.1c0.9,3.5,2.3,7.2,4.2,11.3c0.7,1.1,1.4,1.8,2.3,2.3
		c0.9,0.5,1.6,0.7,2.3,0.7c1.1,0,1.9-0.2,2.8-0.5c0.9-0.4,1.6-1.2,2.3-2.5c-0.7-2.6-1.4-5.1-1.9-7.4c-0.7-2.3-1.1-4.4-1.1-6.5
		c0-6.3,1.4-11.1,4.2-14.4s7.2-4.9,13.2-4.9c5.3,0,9.3,1.4,12,4.4s4,7.4,4,13.4c0,1.4-0.4,3-1.1,5.3c-0.7,2.1-1.4,4.4-1.9,6.7
		c-0.7,1.4-1.1,2.3-1.2,3c-0.2,0.7-0.2,1.4-0.2,2.5c0,1.9,1.4,3.5,4.2,4.4c2.8,1.1,7,1.4,12.7,1.4c2.6-3,4.9-5.8,7-8.6
		c1.9-2.8,4-5.6,6-8.3c1.6-3,3.2-5.6,4.8-7.9c1.4-2.3,2.8-4.8,3.7-7.4c3.3-4,5.8-7,7.4-9.5c1.6-2.3,2.5-3.9,2.5-4.4
		c0-1.6-0.4-3-1.2-4c-0.9-1.1-1.9-1.9-3.2-3h-57.7v-1.4c0-1.1,0.2-2.1,0.7-3.5c0.5-1.4,1.1-2.8,1.8-4.4c0.7-1.6,1.4-3.3,2.5-4.9
		c1.1-1.6,2.1-3.5,3.5-5.5c1.4-1.6,2.6-3.5,3.7-5.5c1.2-1.9,2.5-3.9,3.7-5.5c1.1-1.9,2.1-4,3.5-6.2c1.4-2.1,2.6-4.2,4-6.2
		c2.3-3.7,4.9-6.7,7.7-9c2.8-2.3,5.6-4,8.6-4.9c3-1.1,6.2-1.8,9.5-2.5s6.7-1.4,10-1.9l4.4-3.5c6-0.7,10.4-1.6,13.4-2.8
		s4.4-2.5,4.4-3.7c-1.4-6-3-11.4-5.3-16.2c-2.1-4.8-4.8-9.1-7.7-13.2c-1.4-2.3-2.8-4-4.4-5.3c-1.6-1.2-3.5-1.8-5.5-1.8
		c-0.4,0-0.7,0.2-1.2,0.5c-0.5,0.4-1.2,0.5-2.3,0.5c-0.4,0.4-1.1,0.7-1.9,1.1c-1.1,0.4-1.9,0.7-3,1.1s-2.1,0.7-3.2,1.1
		c-1.2,0.4-2.1,0.9-2.8,1.4c-1.1,0-1.8,0.2-2.5,0.7s-1.4,0.7-1.9,0.7c-1.6,0.4-3.2,0.7-4.4,1.2c-1.4,0.5-2.8,0.7-4.4,0.7
		c-1.6,0.4-3.3,0.5-4.9,0.7c-1.6,0.2-3.2,0.2-4.4,0.2h-4.9c-0.7-1.1-1.2-1.8-1.8-2.3c-0.5-0.5-0.7-0.9-0.7-1.2
		c-0.7-0.7-1.4-1.4-1.9-2.5c1.1-1.9,2.8-3.7,5.5-4.9c2.6-1.4,6.2-2.3,10.4-3H303c1.4,0,2.6,0.2,4,0.5c1.4,0.4,2.5,0.5,3.5,0.5
		c1.4,0,2.6,0.2,3.7,0.5c1.2,0.4,2.5,0.5,3.7,0.5h7l12.5,13.9c1.1,0.4,2.1,0.7,3.2,1.2c1.2,0.5,2.5,0.7,3.7,0.7c2.3,0,3.9-1.1,4.8-3
		c0.9-1.9,1.2-4.9,1.2-9v-7c0-6.3,1.2-11.1,3.7-14.4c2.5-3.3,6.2-4.9,11.3-4.9c0.4,0,0.7,0,1.2,0c0.5,0,1.1,0,1.8,0s1.4,0.2,1.9,0.5
		c0.7,0.4,1.4,0.5,1.9,0.5v8.4l-9.5,3.5c-2.6,1.4-4.6,2.8-6,4.4c-1.4,1.6-1.9,3.5-1.9,5.5c0,1.6,0.2,3.5,0.7,5.5s1.4,4,2.8,6
		l31.3-1.1c0.7,1.9,1.4,3.7,1.9,5.3c0.7,1.4,1.1,2.8,1.1,3.7c0,1.9-0.9,4.2-2.8,6.7c-1.8,2.5-4.2,5.1-7.2,7.7c-4,0-7,0.5-9,1.8
		c-1.9,1.2-3,2.8-3,4.8c0,1.4,0.7,3.2,2.3,5.6c1.4,2.5,3.7,5.3,6.7,8.3l12.5,12.5c3,0,6.2-0.2,9.5-0.5s6.9-0.9,10.4-1.4
		c4-0.4,8.1-0.5,12.5-0.7c4.2-0.2,8.8-0.2,13.4-0.2c10.2,0,17.9,0.5,23,1.8C465.1,309.6,467.5,311.3,467.5,313.6z M176.7,203.3
		L151.9,159l-24.8,44.2h49.6V203.3z M194.1,279.3l75.7,22.3v1.1c0,1.6-0.5,3.9-1.8,6.5s-3,6-5.6,10c-1.9,3.7-4,6.5-6.2,8.4
		c-2.1,1.9-4.2,3-6.2,3h-0.5l-10.4-4.9c-7.9-4-15.5-7.7-22.3-11.3c-7-3.5-13.4-6.5-19.4-9.1c-6-2.6-11.6-5.1-17.1-7.2
		s-10.6-3.7-15.1-4.8c1.4-2.3,2.5-4,3.5-5.3c1.1-1.2,1.8-2.1,2.5-2.8c0.4-0.4,2.5-1.1,6.5-1.9C181.3,282.3,186.9,281.1,194.1,279.3z
		 M428.8,432.4l0.5,5.5l-1.4,5.5c0.4,0.4,0.5,1.4,0.5,3s0,3.5,0,5.5v4.9l-4.4,5.5c0,1.6-0.2,3.3-0.7,4.9c-0.5,1.6-1.1,3.3-1.8,4.9
		c-1.1,1.6-1.8,3.2-2.5,4.4c-0.7,1.4-1.1,2.3-1.1,3l-4.4,2.5c-1.4,2.3-2.5,4.2-3.2,5.5c-0.9,1.4-1.2,2.3-1.2,3l-7,1.9
		c-1.4,1.6-2.8,3-4.4,3.7c-1.6,0.9-3.7,1.2-6,1.2c-2.3,1.9-4.2,3.3-5.5,4c-1.4,0.7-2.3,1.1-3,1.1H381c-1.6,0-3.5,0.2-5.6,0.5
		c-2.1,0.4-4.8,1.1-7.7,1.9l-3-3l-5.5,2.5l-7.9-5.5c-1.4,0.4-2.5,0.7-3.2,1.1c-0.9,0.4-1.6,0.5-2.3,0.5s-1.4-0.4-1.9-1.2
		c-0.7-0.9-1.1-2.1-1.1-3.7l-2.5-1.4h-10.4V492c0-1.1,0-1.8-0.2-2.5c-0.2-0.7-0.2-1.2-0.2-1.4l-4.9-1.1v-5.5l-6-9v-4.4l-4.4-6
		l-3.5-29.9l4.9-6l-0.5-6c0-0.4,0-0.5-0.2-0.7c-0.2-0.2-0.2-0.5-0.2-1.2c-0.4,0-0.5-0.2-0.5-0.5s0-0.7,0-1.1
		c0.7-0.7,1.2-1.4,1.4-1.9c1.4-0.7,2.8-1.4,4.4-2.5l0.5-7.9l1.4-1.1c1.4-0.7,2.3-1.2,3-1.4c0.7-0.4,1.4-0.7,1.9-1.1
		c0.7-0.7,1.4-1.6,1.9-3c0.7-1.4,1.4-3,1.9-4.9l0.5-1.1c3-1.4,5.5-2.6,7.2-3.7c1.8-1.2,2.8-2.1,3.2-2.8l28.9-6.5l22.3,2.5l10.4,4.9
		c1.1,1.4,1.9,2.3,2.8,3c0.9,0.7,1.6,1.4,2.3,1.9c1.4,0.7,2.3,1.2,2.8,1.4c0.5,0.4,0.9,0.5,1.2,0.5c0,1.9,0.2,3.3,0.7,4.2
		c0.5,0.9,1.1,1.6,1.8,2.3c0.7,0,1.4,0.2,2.5,0.5s1.9,0.9,3,1.4l-0.5,1.9c0,1.4,0.2,2.5,0.5,3.5c0.4,1.1,1.1,1.8,1.9,2.5
		c0.7,0.7,1.4,1.2,2.3,1.4c0.9,0.4,1.6,0.5,2.3,0.5c0,1.9,0.4,3.9,1.1,5.6c0.7,1.8,1.6,4,3,6.7L428.8,432.4z M383.6,479.2l7-4.4
		c0.7-2.6,1.4-5.6,1.9-9.1c0.7-3.5,1.1-6.9,1.1-10.2c0-9.7-1.9-17.6-5.6-24.1c-3.9-6.5-9.7-11.4-17.6-14.6c-1.6,0-3.2-0.2-4.4-0.7
		c-1.4-0.5-2.6-0.7-4-0.7c-1.1,0-2.1,0-3.2-0.2c-1.2-0.2-2.1-0.5-2.8-1.2c-7.9,3-13.9,7.2-17.9,12.5c-4,5.3-6,11.6-6,18.8
		c0,2.3,0.4,4.6,1.1,7c0.7,2.3,1.4,4.6,2.5,7c1.1,2.3,2.1,4.6,3.2,6.7c1.2,2.1,2.6,4.2,4.2,6.2c1.6,1.9,3.5,3.7,5.5,5.3
		c1.9,1.4,4,2.8,6,3.7c2.3,1.1,4.6,1.9,6.7,2.8c2.1,0.9,4.4,1.2,6.7,1.2c3,0,5.6-0.4,8.3-1.2C378.3,482.5,381,481.1,383.6,479.2z
		 M476.5,370.3l2.5,13.9c0,0.7-0.2,1.2-0.5,1.8c-0.4,0.5-0.7,1.1-1.1,1.8c-0.4,0.7-0.7,1.4-1.1,1.9c-0.4,0.7-0.5,1.4-0.5,1.9v1.1
		c0.7,1.9,1.1,3.5,1.2,4.8c0.2,1.2,0.2,2.3,0.2,3.2v1.4v1.1c-0.4,0.7-0.7,1.9-1.1,4c-0.4,1.9-0.5,4.4-0.5,7.4c-1.6,1.9-3,4-4,6
		c-1.1,1.9-1.6,4-1.9,6c-0.7,0.7-1.6,1.4-2.8,2.5c-1.2,1.1-2.1,1.8-2.8,2.5c-1.1,0.7-1.8,1.4-2.3,1.9c-0.5,0.7-0.7,1.2-0.7,1.4
		l-3.5,1.4c-1.1,0.4-1.8,0.7-2.5,1.1c-0.7,0.4-1.2,0.5-1.4,0.5c0,0.4-0.5,0.9-1.4,1.4c0,0.4-0.2,0.7-0.5,1.1
		c-0.4,0.4-0.7,0.9-1.1,1.4c-0.4,0.7-0.7,1.2-1.2,1.4c-0.5,0.4-1.1,1.1-1.8,1.9l-3-1.1l0.5-1.9l-7.9-4.4c0-0.7,0.2-1.4,0.7-1.9
		c0.5-0.7,0.7-1.2,0.7-1.4c0.4-0.4,0.7-0.9,1.1-1.4c0-0.4-0.2-1.9-0.7-4.9c-0.5-3-1.4-7.4-2.8-13.4c3-2.3,5.3-5.5,6.7-9.1
		c1.4-3.9,2.3-8.1,2.3-12.7c0-3.3-0.4-6.5-1.2-9.7s-1.9-6.3-3.2-9.7v-2.5l1.4-0.5l26.4-10.9L476.5,370.3z"/>
</g>
</svg>
