<?xml version="1.0" encoding="utf-8"?>
<!-- Generator: Adobe Illustrator 19.0.0, SVG Export Plug-In . SVG Version: 6.00 Build 0)  -->
<svg version="1.1" id="beachcombing_xA0_Image_1_" xmlns="http://www.w3.org/2000/svg" xmlns:xlink="http://www.w3.org/1999/xlink"
	 x="0px" y="0px" viewBox="-11 13.7 575.8 574.3" style="enable-background:new -11 13.7 575.8 574.3;" xml:space="preserve">
<style type="text/css">
	.st0{fill:#FFFF00;}
	.st1{fill:#573922;}
	.st2{fill:#FFFFFF;}
</style>
<rect x="-11" y="13.7" class="st0" width="575.8" height="574.3"/>
<rect x="34" y="58.5" class="st1" width="486" height="484.7"/>
<g>
	<path class="st2" d="M493.4,346.4c0-22.3-8-41.3-23.9-56.8c-16-15.9-35.2-23.8-57.6-23.8c-11.7,0-23.9,2.8-36.6,8.3l-29.8-48.5
		v-53.9h-65.9v14.6h48.3v35.4H218.5v-35.9l11.7,0.5v-14.6h-65.4v14.6h34.2v46.1l-19,37.9c-13.4-5.8-25.2-8.7-35.7-8.7
		c-20.8,0.3-39.7,8.7-56.7,25.2c-16.6,16.5-24.9,35-24.9,55.3c0,21,8.3,39.5,24.9,55.3c16.9,16.5,35.8,24.8,56.7,24.8
		c20.8,0,39.7-8.1,56.7-24.3c16.6-16.5,24.9-35.1,24.9-55.8v-6.3l16.6-4.4c7.8,11,14.5,16.8,20,17.5h3.4c8.1,0,14.8-2.7,20-8.3
		c5.2-5.5,8-12.8,8.3-21.8l63-43.2l4.9,7.3c-21.2,16.2-31.7,37.4-31.7,63.6c0,22.7,7.8,41.9,23.4,57.8
		c15.9,15.9,35.3,23.8,58.1,23.8c22.5,0,41.7-7.9,57.6-23.8C485.4,388.3,493.4,369,493.4,346.4z M202.8,342
		c0,15.9-5.7,29.5-17.1,40.8c-11.1,11-24.6,16.5-40.5,16.5c-7.8,0-15.2-1.5-22.2-4.6c-7-3.1-13.1-7.2-18.3-12.4
		c-5.2-5.2-9.3-11.2-12.2-18.2c-2.9-7-4.4-14.3-4.4-22.1c0-15.5,5.5-28.8,16.6-39.8c11.1-11,24.6-16.5,40.5-16.5
		c7.8,0,15.6,1.6,23.4,4.9l-35.2,65.5L202.8,342z M199.4,325l-39.6,11.7l22.5-40.8C190.1,302,195.8,311.7,199.4,325z M192.1,276.5
		l18.1-25.7l35.7,66l-23.4,5.3C217.8,304.6,207.7,289.4,192.1,276.5z M349.3,261.9l-65,47.1l-7.8-2.4c-4.9-1.3-8.3-1.9-10.3-1.9
		c-3.3,0-6,0.7-8.3,1.9l-34.7-70.4h109.4L349.3,261.9z M276.6,327.4c0,6.2-2.9,9.2-8.8,9.2c-6.5,0-9.8-3.1-9.8-9.2
		c0-5.8,3.2-9.1,9.8-9.7C273.6,317.7,276.6,321,276.6,327.4z M471.4,346.4c0,15.9-5.7,29.5-17.1,40.8c-11.1,11-24.6,16.5-40.5,16.5
		c-7.8,0-15.2-1.5-22.2-4.6c-7-3.1-13-7.2-18.1-12.4c-5.1-5.2-9-11.2-12-18.2c-2.9-7-4.4-14.3-4.4-22.1c0-16.8,6-30.7,18.1-41.8
		l33.7,51.5l12.2-7.3l-32.2-53.4c8.1-3.9,16.4-5.8,24.9-5.8c7.8,0,15.2,1.5,22.2,4.4c7,2.9,13.1,7,18.3,12.1
		c5.2,5.2,9.4,11.3,12.5,18.2C469.9,331.2,471.4,338.6,471.4,346.4z"/>
</g>
</svg>
