<?xml version="1.0" encoding="utf-8"?>
<!-- Generator: Adobe Illustrator 19.0.0, SVG Export Plug-In . SVG Version: 6.00 Build 0)  -->
<svg version="1.1" id="beachcombing_xA0_Image_1_" xmlns="http://www.w3.org/2000/svg" xmlns:xlink="http://www.w3.org/1999/xlink"
	 x="0px" y="0px" viewBox="-11 13.7 575.8 574.3" style="enable-background:new -11 13.7 575.8 574.3;" xml:space="preserve">
<style type="text/css">
	.st0{fill:#FFFF00;}
	.st1{fill:#573922;}
	.st2{fill:#FFFFFF;}
</style>
<rect x="-11" y="13.7" class="st0" width="575.8" height="574.3"/>
<rect x="34" y="58.5" class="st1" width="486" height="484.7"/>
<g>
	<path class="st2" d="M471.4,465.4v-270c0-39.5-1-64.9-2.9-76.2c-3.2-17.7-11.6-29.4-25-35.2c-11.2-4.8-29.5-7.2-54.9-7.2
		c-3.2,0-6.4,0-9.6,0c-2.9,0-6.1,0.2-9.6,0.5H259.6v66.5l-12,47.7C229.9,209.1,218,218,212,218c-7.7-1.9-15.4-4-23.1-6.3
		c-14.8-4.2-23.3-6.3-25.5-6.3c-8.3,0-34.3,20.3-78,60.8l44.8,55.9c-1,5.8-1.4,11.4-1.4,16.9c0,18.6,5.3,33.4,15.9,44.4v140.3h13
		V389.6c20.2,9,37.2,16.6,51,22.9c13.8,6.3,24.5,11.3,32.2,15.2c1.9,1.3,23.4,18.8,64.5,52.6l-9.6,17.4l14,26h57.8l1-1.4
		c1.6,0.3,3.3,0.6,5.1,0.7c1.8,0.2,3.8,0.2,6,0.2h41.4c20.5,0,34-3.9,40.4-11.6C468,503.6,471.4,488.2,471.4,465.4z M149.4,248.8
		L138.8,298l-17.3-29.9L149.4,248.8z M236,138.9c-11.9-14.8-25.2-22.2-40-22.2c-5.5,0-10.6,1-15.4,2.9
		c-17.7,7.1-26.5,18.8-26.5,35.2c0,5.5,1.1,10.4,3.4,14.9l8.7-2.4c0,9.3,3.2,17.3,9.6,23.9c6.4,6.6,14.1,9.9,23.1,9.9
		c8.7,0,16.2-3.2,22.6-9.6c6.4-6.4,9.6-14.3,9.6-23.6c0-7.1-2.6-14.3-7.7-21.7L236,138.9z M372.7,319.2l-17.8,26.5
		c-47.2-38.6-74-58.7-80.4-60.3h-1.9c-10.3,0-34.7,9.3-73.2,28c8-25.1,12.5-38.6,13.5-40.5c5.8-13.8,14.3-23.9,25.5-30.4L262,230
		c7.1-4.8,12.7-25.7,16.8-62.7v-55l56.8,32.3v113.8l37.1,24.6V319.2z M338.5,371.3l-21.2,37.6l11.6,28.9l-9.6,15.4
		c-7.1-10.3-13.6-19.8-19.7-28.7c-6.1-8.8-11.7-17.3-16.8-25.3c-4.5-6.1-22.6-17.7-54.4-34.7l38.5-27L338.5,371.3z"/>
</g>
</svg>
