<?xml version="1.0" encoding="utf-8"?>
<!-- Generator: Adobe Illustrator 19.0.0, SVG Export Plug-In . SVG Version: 6.00 Build 0)  -->
<svg version="1.1" id="beachcombing_xA0_Image_1_" xmlns="http://www.w3.org/2000/svg" xmlns:xlink="http://www.w3.org/1999/xlink"
	 x="0px" y="0px" viewBox="-11 13.7 575.8 574.3" style="enable-background:new -11 13.7 575.8 574.3;" xml:space="preserve">
<style type="text/css">
	.st0{fill:#FFFF00;}
	.st1{fill:#573922;}
	.st2{fill:#FFFFFF;}
</style>
<rect x="-11" y="13.7" class="st0" width="575.8" height="574.3"/>
<rect x="34" y="58.5" class="st1" width="486" height="484.7"/>
<g>
	<path class="st2" d="M433,260.1c-5.1-5.4-11.1-11.9-17.9-19.5l-32.6-34.7c-34.4-36.5-57.6-59.1-69.5-67.7
		c-43.8-32.5-88.2-50.6-133.1-54.2c10.1,5.8,20.5,11.7,31,17.9c10.5,6.1,21,12.8,31.5,20.1c15.9,10.1,32.4,34.3,49.4,72.6
		L57.6,464.5l35.3,29.3L320,233l73.9,65L433,260.1z M294.4,495.9c0-12.6-5.8-19-17.4-19c-12.3,0-18.5,6.3-18.5,19
		c0,10.5,6.2,15.7,18.5,15.7C288.7,511.6,294.4,506.4,294.4,495.9z M422.1,469.3c0-34.3-19.2-51.5-57.6-51.5
		c-10.1,0-17.8,6.9-22.8,20.6l7.1,20.1c-5.4,10.5-15.8,15.7-31,15.7v21.7c12.3,15.2,31.5,22.8,57.6,22.8c16.7,0,28.6-3.6,35.9-10.8
		C418.5,500.6,422.1,487.8,422.1,469.3z M502,487.8c0-10.1-2.3-18.9-6.8-26.3c-4.5-7.4-10.2-11.1-17.1-11.1c-0.4,0-3.1,3.6-8.1,10.8
		c-5.1,7.2-7.8,10.8-8.2,10.8c-8.7,0-13,5.6-13,16.8c0,6.5,3.1,12.2,9.2,17.1c6.2,4.9,13.6,7.3,22.3,7.3
		C494.8,502.4,502,493.9,502,487.8z"/>
</g>
</svg>
