<?xml version="1.0" encoding="utf-8"?>
<!-- Generator: Adobe Illustrator 19.0.0, SVG Export Plug-In . SVG Version: 6.00 Build 0)  -->
<svg version="1.1" id="beachcombing_xA0_Image_1_" xmlns="http://www.w3.org/2000/svg" xmlns:xlink="http://www.w3.org/1999/xlink"
	 x="0px" y="0px" viewBox="-11 13.7 575.8 574.3" style="enable-background:new -11 13.7 575.8 574.3;" xml:space="preserve">
<style type="text/css">
	.st0{fill:#FFFF00;}
	.st1{fill:#573922;}
	.st2{fill:#FFFFFF;}
</style>
<rect x="-11" y="13.7" class="st0" width="575.8" height="574.3"/>
<rect x="34" y="58.5" class="st1" width="486" height="484.7"/>
<g>
	<path class="st2" d="M496,203.5c-7.8-9.5-30.6-18-68.4-25.5c-16.3-3.2-30.8-5.7-43.5-7.4c-12.7-1.8-23.7-2.7-32.9-2.7H225.9
		c-14.5,0-35,3.7-61.5,11.1c-29.7,9.2-48.5,17.3-56.2,24.4v166.1H66.8l-6.9,6.9l6.9,7.4h177.7l0.5-5.8c0-15.6,4.8-28.2,14.3-37.9
		c9.5-9.7,22.3-14.6,38.2-14.6c5.7,0,12.1,1.2,19.4,3.7c7.2,2.5,13.9,6.7,19.9,12.7c11.7,10.3,17.5,21,17.5,32.4
		c0,3.9-0.7,7.1-2.1,9.5c11.3,1.4,22.1,2.5,32.4,3.2c10.3,0.7,20.3,1.1,30.2,1.1c46.7,0,73.7-8.1,81.2-24.4L496,203.5L496,203.5z
		 M112.4,410.4c0-13.1-6.4-19.6-19.1-19.6c-12.4,0-18.6,6.5-18.6,19.6c0,13.1,6.2,19.6,18.6,19.6C106,430,112.4,423.5,112.4,410.4z
		 M236.6,275.6H157v-61.5h79.6L236.6,275.6L236.6,275.6z M345.3,380.2c0-13.8-4.5-24.8-13.5-33.2c-9-8.3-20.1-12.5-33.2-12.5
		c-12.7,0-23,4.2-30.8,12.5c-7.8,8.3-11.7,19.4-11.7,33.2c0,14.2,3.9,26,11.7,35.5c7.8,9.5,18,14.3,30.8,14.3
		c13.1,0,23.9-4.4,32.4-13.3c8.5-8.8,12.7-20.3,12.7-34.5L345.3,380.2z M317.2,382.3c0,12-6,18-18,18c-5.7,0-10.3-1.5-13.8-4.5
		c-3.5-3-5.3-7.5-5.3-13.5c0-12.4,6-18.6,18-18.6c6,0,10.7,1.5,14.1,4.5C315.5,371.2,317.2,375.9,317.2,382.3z M299.2,275.6v-61.5
		h141.6v61.5H299.2z"/>
</g>
</svg>
