<?xml version="1.0" encoding="utf-8"?>
<!-- Generator: Adobe Illustrator 19.0.0, SVG Export Plug-In . SVG Version: 6.00 Build 0)  -->
<svg version="1.1" id="beachcombing_xA0_Image_1_" xmlns="http://www.w3.org/2000/svg" xmlns:xlink="http://www.w3.org/1999/xlink"
	 x="0px" y="0px" viewBox="-11 13.7 575.8 574.3" style="enable-background:new -11 13.7 575.8 574.3;" xml:space="preserve">
<style type="text/css">
	.st0{fill:#FFFF00;}
	.st1{fill:#573922;}
	.st2{fill:#FFFFFF;}
</style>
<rect x="-11" y="13.7" class="st0" width="575.8" height="574.3"/>
<rect x="34" y="58.5" class="st1" width="486" height="484.7"/>
<path class="st2" d="M70,264.7c56.8-3.7,109.1,10.2,156.9,41.7l30.6-85.8c-7.4-12.3-18.2-18.4-32.5-18.4c-6.5,0-14.5,2.5-23.9,7.4
	c-4.1-12.7-12.1-21.2-23.9-25.7c-10.2-4.1-22.7-3.3-37.4,2.5c11-23.1,27.4-41.2,49-54.4c21.6-13.2,45.1-19.8,70.5-19.8
	c16.3,0,32.3,2.9,47.8,8.6c27,9.8,48.3,26.1,64,49.1c15.7,23,23.6,48.1,23.6,75.4c0,11.4-1.6,22.8-4.9,34.2
	c-9.8-19.2-22.9-28.8-39.2-28.8c-7.4,0-14.9,2.3-22.7,6.7c-5.3-14.7-13.5-24.1-24.5-28.2c-8.2-2.9-17-3.1-26.3-0.6l-32.5,90.7
	c22.5,15.5,39.2,27.4,50.2,35.5c28.2,18.4,56.6,31.3,85.2,38.6H70V264.7z"/>
<path class="st2" d="M486.7,453.5c-11,23.7-28,35.5-50.9,35.5c-23.3,0-40.4-11.6-51.5-34.9c-11,23.3-28.2,34.9-51.5,34.9
	c-22.5,0-39.6-11.6-51.5-34.9c-11,23.3-28.4,34.9-52.1,34.9c-23.3,0-40.4-11.6-51.5-34.9c-11,23.3-28,34.9-50.9,34.9
	c-23.3,0-40.4-11.8-51.5-35.5v-41.1c11.4,23.3,28.6,34.9,51.5,34.9c22.5,0,39.4-11.6,50.9-34.9c11.4,23.3,28.6,34.9,51.5,34.9
	c23.3,0,40.6-11.6,52.1-34.9c11.8,23.3,29,34.9,51.5,34.9c22.9,0,40-11.6,51.5-34.9c11.4,23.3,28.6,34.9,51.5,34.9
	c22.5,0,39.4-11.6,50.9-34.9V453.5z"/>
</svg>
