<?xml version="1.0" encoding="utf-8"?>
<!-- Generator: Adobe Illustrator 19.0.0, SVG Export Plug-In . SVG Version: 6.00 Build 0)  -->
<svg version="1.1" id="beachcombing_xA0_Image_1_" xmlns="http://www.w3.org/2000/svg" xmlns:xlink="http://www.w3.org/1999/xlink"
	 x="0px" y="0px" viewBox="-11 13.7 575.8 574.3" style="enable-background:new -11 13.7 575.8 574.3;" xml:space="preserve">
<style type="text/css">
	.st0{fill:#FFFF00;}
	.st1{fill:#573922;}
	.st2{fill:#FFFFFF;}
</style>
<rect x="-11" y="13.7" class="st0" width="575.8" height="574.3"/>
<rect x="34" y="58.5" class="st1" width="486" height="484.7"/>
<g>
	<path class="st2" d="M131.9,304.2c0.7,0-0.3-1-3-2.9c-2.6-2-5.6-4.2-8.9-6.8c-3.3-2.6-6.4-5-9.4-7.3c-3-2.3-4.4-3.7-4.4-4.4
		c-0.7-0.6-1.6-3.2-2.7-7.6c-1.2-4.4-2.6-9.4-4.4-15.1c-1.8-5.7-3.8-11.4-5.9-17.1c-2.1-5.7-4.4-10-6.6-12.9l-4.4-8.3
		c-1,0-1.6,1.3-2,3.9c-0.3,2.6-0.7,5.5-1,8.5c-0.3,3.1-0.8,5.9-1.5,8.5c-0.7,2.6-1.6,3.9-3,3.9c-2,0-5.9-0.6-11.8-1.7
		c-5.9-1.1-10.5-1.7-13.8-1.7c-0.7,0-1.2,0.1-1.5,0.2c-0.3,0.2-0.7,0.2-1,0.2l47.8,46.9c0.3,0.3,1.1,0.5,2.5,0.5
		c0.3,6.8,1.1,11.4,2.2,13.7c1.1,2.3,3.4,3.4,6.6,3.4c2.6,0,6.1-0.5,10.3-1.5C120.4,305.6,125.6,304.8,131.9,304.2z M158.5,243.1
		c0.7,0-0.3-1-3-2.9c-2.6-2-5.6-4.2-8.9-6.8c-3.3-2.6-6.4-5-9.4-7.3c-3-2.3-4.4-3.7-4.4-4.4c-0.7-2-1.4-5.4-2.2-10.3
		c-0.8-4.9-1.9-10.2-3.2-15.9c-1.3-5.7-2.9-11.1-4.7-16.4c-1.8-5.2-4.2-9.3-7.1-12.2c-1.6-1.6-2.8-3.6-3.4-5.9c-1,0-1.9,1.3-2.7,3.9
		c-0.8,2.6-1.6,5.4-2.5,8.3c-0.8,2.9-1.6,5.7-2.5,8.3c-0.8,2.6-1.9,3.9-3.2,3.9c-2,0-5.9-0.6-11.8-1.7c-5.9-1.1-10.5-1.7-13.8-1.7
		c-0.7,0-1.2,0.1-1.5,0.2c-0.3,0.2-0.7,0.2-1,0.2l47.8,46.9c0.3,0.3,1.1,0.5,2.5,0.5c0.3,6.8,1.1,11.4,2.2,13.7
		c1.1,2.3,3.4,3.4,6.7,3.4c2.6,0,6.1-0.5,10.3-1.5C147,244.6,152.2,243.8,158.5,243.1z M310.2,354.9c0-4.2-1-9.6-3-16.1
		c-6.2-9.1-13-13.7-20.2-13.7c-5.3,0-10.3,0.8-15.3,2.4l-56.2,32.7l-78.3-50.8l-24.1,5.4l97,84L310.2,354.9z M277.7,311.5l-3.4-3.9
		h-0.5c-0.7,0-1.5-0.2-2.5-0.5c-1-0.3-2.6-0.5-4.9-0.5c-1.3,0-2.8,0.1-4.4,0.2c-1.6,0.2-3.6,0.6-5.9,1.2l-39.9,10.3
		c-1.6,0-3.8-1.1-6.4-3.4c-2.6-2.3-4.3-3.7-4.9-4.4l-31.5-35.6c-0.7-0.6-2-2.2-3.9-4.6c-2-2.4-4.1-5-6.4-7.8
		c-2.3-2.8-4.4-5.3-6.4-7.6c-2-2.3-3.3-3.4-3.9-3.4h-1c-2.6,0-5.7,0.7-9.4,2c-3.6,1.3-5.4,2.9-5.4,4.9l0.5,1.5
		c4.9,8.5,11.4,17.6,19.5,27.3c8,9.8,15.9,18.8,23.6,27.1c7.7,8.3,14.4,15.2,20.2,20.7c5.7,5.5,8.9,8.3,9.6,8.3c4.3,0,9.9-1,17-2.9
		c7.1-2,14.2-4.2,21.4-6.8c7.2-2.6,14-5.4,20.2-8.3c6.2-2.9,10.8-5.4,13.8-7.3L277.7,311.5z M421,285.6c0-2.6-1.2-4.3-3.7-5.1
		c-2.5-0.8-5.8-2.5-10.1-5.1l-107.4-5.9c-3.3,2-4.9,3.9-4.9,5.9c0,1,0.2,1.9,0.7,2.7c0.5,0.8,0.7,1.9,0.7,3.2c0,1.3-0.2,2.8-0.5,4.4
		c-0.3,1.6-0.5,3.4-0.5,5.4c0,1.6,0.2,3.2,0.5,4.6c0.3,1.5,1.3,3,3,4.6l111.8,4.9c2,0,3.6,0.3,4.9,1c1.3,0.7,2.3,1,3,1
		c1,0,1.5-2.3,1.5-6.8L421,285.6z M496.9,452.1l-81.3-119.6c-26.3-6.5-47.6-9.8-64-9.8c-20,0-30,5.4-30,16.1v2.4
		c0.3,4.9,5.2,9.8,14.8,14.6l63.5,3.9l68.5,92.3L496.9,452.1L496.9,452.1z M421,159.2c0-8.1-4.4-12.2-13.3-12.2
		c-9.2,0-13.8,4.1-13.8,12.2c0,8.1,4.6,12.2,13.8,12.2C416.6,171.4,421,167.3,421,159.2z M439.2,205.1c0-6.8-4.4-10.3-13.3-10.3
		c-8.2,0-12.3,3.4-12.3,10.3c0,7.2,4.1,10.7,12.3,10.7C434.8,215.8,439.2,212.2,439.2,205.1z M504.3,332.5l-10.8-8.8v-2.4
		c0-11.4-2.6-18.6-7.9-21.5c-5.3-2.9-11-4.4-17.2-4.4h-8.9c-7.6,0-13.9,2.6-19,7.8c-5.1,5.2-7.8,11.6-8.1,19l-0.5,11.2
		c0,5.5,2,9.5,6.2,12c4.1,2.4,9.8,3.7,17,3.7h14.3l6.4,11.2L504.3,332.5z M457,253.9c0-5.9-3.1-8.8-9.4-8.8c-6.6,0-9.9,2.9-9.9,8.8
		c0,5.5,3.3,8.3,9.9,8.3C453.8,262.2,457,259.4,457,253.9z"/>
</g>
</svg>
