<?xml version="1.0" encoding="utf-8"?>
<!-- Generator: Adobe Illustrator 19.0.0, SVG Export Plug-In . SVG Version: 6.00 Build 0)  -->
<svg version="1.1" id="beachcombing_xA0_Image_1_" xmlns="http://www.w3.org/2000/svg" xmlns:xlink="http://www.w3.org/1999/xlink"
	 x="0px" y="0px" viewBox="-11 13.7 575.8 574.3" style="enable-background:new -11 13.7 575.8 574.3;" xml:space="preserve">
<style type="text/css">
	.st0{fill:#FFFF00;}
	.st1{fill:#573922;}
	.st2{fill:#FFFFFF;}
</style>
<rect x="-11" y="13.7" class="st0" width="575.8" height="574.3"/>
<rect x="34" y="58.5" class="st1" width="486" height="484.7"/>
<g>
	<path class="st2" d="M458.1,511.4c-8.5,0-16.7-3.5-22.4-9.5l-85.4-85.2c-29.1,20.2-64,30.9-99.4,30.9
		c-96.9,0-175.4-78.5-175.4-175.4c0-96.9,78.5-175.4,175.4-175.4s175.4,78.5,175.4,175.4c0,35.4-10.7,70.2-30.9,99.4l85.4,85.4
		c5.7,5.7,9.2,14,9.2,22.4C490,497,475.6,511.4,458.1,511.4z M250.9,160.7c-61.5,0-111.6,50.1-111.6,111.6s50.1,111.6,111.6,111.6
		s111.6-50.1,111.6-111.6C362.5,210.7,312.4,160.7,250.9,160.7z"/>
</g>
</svg>
