<?xml version="1.0" encoding="utf-8"?>
<!-- Generator: Adobe Illustrator 19.0.0, SVG Export Plug-In . SVG Version: 6.00 Build 0)  -->
<svg version="1.1" id="beachcombing_xA0_Image_1_" xmlns="http://www.w3.org/2000/svg" xmlns:xlink="http://www.w3.org/1999/xlink"
	 x="0px" y="0px" viewBox="-11 13.7 575.8 574.3" style="enable-background:new -11 13.7 575.8 574.3;" xml:space="preserve">
<style type="text/css">
	.st0{fill:#FFFF00;}
	.st1{fill:#573922;}
	.st2{fill:#FFFFFF;}
</style>
<rect x="-11" y="13.7" class="st0" width="575.8" height="574.3"/>
<rect x="34" y="58.5" class="st1" width="486" height="484.7"/>
<path class="st2" d="M501.5,348.4l-7.8-58.4c-0.9-6.1-5.4-9.5-13.6-10.4l-101.3-9.7l-46.7-49.3c-4.3-4.8-9.5-7.1-15.6-7.1H173.8
	c-5.2,0-8.7,2.8-10.4,8.5l-13.6,46.3l-84.4,11.1c-4.8,0.4-7.4,2.8-7.8,7.2l-3.9,54.8c-0.4,3.9,1.5,6.3,5.8,7.2l27.9,2
	c1.3-13.8,6.7-25,16.2-33.7c9.5-8.7,21-13,34.4-13c13.4,0,25,4.4,34.7,13.3s15,20,15.9,33.4H375c1.3-13.4,6.7-24.6,16.2-33.4
	c9.5-8.9,21-13.3,34.4-13.3s24.9,4.4,34.4,13.2c9.5,8.8,14.9,20,16.2,33.6L501.5,348.4z M171.8,354.6c0-9.4-3.2-17.5-9.7-24.1
	s-14.5-10-24-10s-17.6,3.3-24.3,10c-6.7,6.6-10.1,14.7-10.1,24.1s3.3,17.5,10.1,24.1c6.7,6.6,14.8,10,24.3,10s17.5-3.3,24-10
	C168.6,372,171.8,364,171.8,354.6z M250.3,274.4h-64.9l5.2-30.5c0.9-4.8,3.5-7.1,7.8-7.1h51.9V274.4z M344.4,267.3
	c1.3,1.7,1.5,3.2,0.6,4.5c-0.9,1.7-2.4,2.6-4.5,2.6h-73.3v-37.6H312c3.9,0,6.7,1.1,8.4,3.2L344.4,267.3z M460,354.6
	c0-9.4-3.4-17.5-10.1-24.1s-14.8-10-24.3-10s-17.6,3.3-24.3,10c-6.7,6.6-10.1,14.7-10.1,24.1s3.3,17.5,10.1,24.1
	c6.7,6.6,14.8,10,24.3,10s17.6-3.3,24.3-10C456.6,372,460,364,460,354.6z"/>
</svg>
