<?xml version="1.0" encoding="utf-8"?>
<!-- Generator: Adobe Illustrator 19.0.0, SVG Export Plug-In . SVG Version: 6.00 Build 0)  -->
<svg version="1.1" id="beachcombing_xA0_Image_1_" xmlns="http://www.w3.org/2000/svg" xmlns:xlink="http://www.w3.org/1999/xlink"
	 x="0px" y="0px" viewBox="-11 13.7 575.8 574.3" style="enable-background:new -11 13.7 575.8 574.3;" xml:space="preserve">
<style type="text/css">
	.st0{fill:#FFFF00;}
	.st1{fill:#4040FF;}
	.st2{fill:#FFFFFF;}
</style>
<rect x="-11" y="13.7" class="st0" width="575.8" height="574.3"/>
<rect x="34" y="58.5" class="st1" width="486" height="484.7"/>
<g>
	<path class="st2" d="M442.8,450.5c-0.4-1.8-0.6-3.5-0.8-4.9c-0.2-1.5-0.5-2.9-0.8-4.4l-4.4,1.1c-5.5,1.1-10.8,2-15.9,2.7
		s-10.2,1.1-15.3,1.1h-20.8l-8.2-1.6l-162-47.1l66.8-46.5l63-140.7l8.2,7.7L295,349.3l23,8.2c12.4,4.7,25,9.6,37.8,14.5
		s25.9,10.1,39.4,15.6h0.5c5.1,0,26.6-46.9,64.6-140.7h-1.1c-1.8,0.4-4.6,0.5-8.2,0.5c-16.1,0-29.8-4.6-41.1-13.7
		c-7.3-5.8-12.2-32.1-14.8-78.8H293.9c-4.7-1.8-8.2-2.7-10.4-2.7c-3.7,0-5.5,1.5-5.5,4.4c0,1.1,6.4,10.2,19.2,27.4
		c3.6,4,7.1,8.2,10.4,12.6c3.3,4.4,6.7,8.9,10.4,13.7v0.5c0,2.9-7.1,6-21.3,9.3c-19.7,4-30.8,7.5-33.4,10.4
		c-2.6,2.6-5.8,15.9-9.9,40l-6,37.2l-87-42.7l15.3-20.8l-9.3-7.1L151,259.5l-30.1-13.7l-5.5,10.9l27.9,13.7l-14.2,19.2l8.8,7.1
		l14.8-21.3l84.3,40.5c-14.2,10.6-44.3,30.8-90.3,60.8l-91.4-25.2v18.6l321.3,92c2.5,0.4,4.9,0.5,7.1,0.5s4.6,0,7.1,0
		c7.7,0,15.6-0.5,23.8-1.4c8.2-0.9,16.5-2.5,24.9-4.7C441.7,456.2,442.8,454.2,442.8,450.5z M415.4,282.5
		c-14.6,55.5-24.1,83.2-28.4,83.2h-0.5c-4.4-1.1-8.8-2.3-13.1-3.6c-4.4-1.3-8.8-2.6-13.1-4.1c-21.5-5.8-34.7-11.7-39.4-17.5v-1.6
		c0-7.3,10.4-26.1,31.2-56.4H415.4L415.4,282.5z M495.9,179.6c0-11.3-3.9-21.1-11.8-29.3S466.9,138,455.9,138
		c-11.3,0-21,4.1-29,12.3s-12,17.8-12,28.7c0,11.3,4,21,12,29s17.7,12,29,12c10.9,0,20.3-3.9,28.2-11.8
		C492,200.5,495.9,190.9,495.9,179.6z"/>
</g>
</svg>
