<?xml version="1.0" encoding="utf-8"?>
<!-- Generator: Adobe Illustrator 19.0.0, SVG Export Plug-In . SVG Version: 6.00 Build 0)  -->
<svg version="1.1" id="beachcombing_xA0_Image_1_" xmlns="http://www.w3.org/2000/svg" xmlns:xlink="http://www.w3.org/1999/xlink"
	 x="0px" y="0px" viewBox="-11 13.7 575.8 574.3" style="enable-background:new -11 13.7 575.8 574.3;" xml:space="preserve">
<style type="text/css">
	.st0{fill:#FFFF00;}
	.st1{fill:#4040FF;}
	.st2{fill:#FFFFFF;}
</style>
<rect x="-11" y="13.7" class="st0" width="575.8" height="574.3"/>
<rect x="34" y="58.5" class="st1" width="486" height="484.7"/>
<g>
	<path class="st2" d="M464.4,419l-63.1-45.4l12.9-23.3c3.7-6.5,5.5-14.3,5.5-23.3c0-22.5-8.8-33.1-26.3-31.9l-75.2,4.9l-53.8-36.2
		c-12.6-2.5-24.7-3.7-36.1-3.7c-6.9,0-12.2,0.2-15.9,0.6c-0.8-19.5-9.4-52.1-25.7-97.6l-4.9-12.8l-6.1-6.7l-56.3,4.9v11l36.2,11
		c4.9,1.6,7.8,5.5,8.6,11.6l5.5,37.9c2.9,20,7.8,43,14.7,69l-32.6-15.3l-22.1,17.9l39.7,18.4l-37.1,21.7L77,304.4l-18.4,14.7
		l264.1,127c15.1,7.3,29.8,11,44.1,11c20.4,0,38.4-8.7,53.9-26.1l21,10.1L464.4,419z M399.6,420.1c-10.6,10.8-22.7,16.1-36.2,16.1
		c-8.2,0-17.8-2.7-28.8-8l-179.9-87.3l37-21L399.6,420.1z M369.4,352.8l-7.4,21.5l-39.8-19.6L369.4,352.8z M493.9,312
		c0-8.9-3.1-16.4-9.2-22.5s-13.7-9.1-22.7-9.1s-16.5,3-22.7,9.1c-6.1,6.1-9.2,13.6-9.2,22.5c0,8.5,3.1,15.9,9.2,22.2
		c6.1,6.3,13.7,9.4,22.7,9.4s16.5-3.1,22.7-9.4C490.8,327.9,493.9,320.5,493.9,312z"/>
</g>
</svg>
