<?xml version="1.0" encoding="utf-8"?>
<!-- Generator: Adobe Illustrator 19.0.0, SVG Export Plug-In . SVG Version: 6.00 Build 0)  -->
<svg version="1.1" id="beachcombing_xA0_Image_1_" xmlns="http://www.w3.org/2000/svg" xmlns:xlink="http://www.w3.org/1999/xlink"
	 x="0px" y="0px" viewBox="-11 13.7 575.8 574.3" style="enable-background:new -11 13.7 575.8 574.3;" xml:space="preserve">
<style type="text/css">
	.st0{fill:#FFFF00;}
	.st1{fill:#4040FF;}
	.st2{fill:#FFFFFF;}
</style>
<rect x="-11" y="13.7" class="st0" width="575.8" height="574.3"/>
<rect x="34" y="58.5" class="st1" width="486" height="484.7"/>
<path class="st2" d="M502,297.8l-30.3-45.1h-22.5l-2.6,30.3h-20v-27.7L411.9,236l-15.4,20.6v27h-11.6V265h-19.3v18l-12.2,0.6
	l-1.9-27l-22.5-14.8l7.1-10.3l15.5,9l9.7-16.5l-16.2-9.4l6.5-10.4l22.4,13.8l25.7-3.2l-9.7-22.5l-23.2-13.5l9.7-17.4l27,12.9
	l11.6-19.3L391.3,106l-54.1,3.9l-10.9,20l24.5,16.7l-10.3,17.4l-23.2-14.2l-24.5,3.2l10.3,23.8l23.2,13.5l-5.8,9.7l-16.7-8.4
	l-9,16.1l16.1,9l-6.4,10.9l-24.5-11.6l-23.8,11.6l-5.8-10.9l16.1-9l-9-16.1l-16.7,8.4l-5.8-9.7l23.2-13.5l10.3-23.8l-24.5-3.2
	l-23.2,14.2l-10.3-17.4l24.5-16.7l-10.9-20l-54.1-3.9l-23.8,48.9l11.6,19.3l27-12.9l9.7,17.4l-23.2,13.5l-9.7,22.5l25.7,3.2
	l22.5-13.5l6.5,10.4l-16.1,9.7l9.6,16l15.4-9l7.1,10.3l-22.5,14.8l-1.9,27l-12.2-0.6v-18h-19.3v18.7h-11.6v-27L149.3,236l-14.8,19.3
	V283h-20l-2.6-30.3H89.4l-30.3,45.1l30.3,45.1l22.5-0.6l2.6-29.6h20v27l14.8,20l15.4-20.6v-27h11.6v18.7h19.3v-18l12.2-0.6l2.6,27
	l21.9,14.8l-7.1,10.3l-15.5-9l-9.7,16.5l16.2,9.4l-6.5,10.4l-22.4-13.8l-25.7,3.2l9.7,22.5l23.2,13.5l-9.7,17.4l-27-12.9l-11.6,19.1
	l23.8,48.5l54.1-3.9l10.9-19.7l-24.5-16.5l10.3-17.2l23.2,14.2l24.5-3.2L258,418.9l-23.2-13.5l5.8-9.7l16.7,8.4l9-16.1l-16.1-9
	l5.8-10.9l24.5,11.6L305,368l5.8,10.9l-16.1,9l9,16.1l16.7-8.4l5.8,9.7l-23.2,13.5l-10.3,23.8l24.5,3.2l23.2-14.2l10.3,17.2
	l-24.5,16.5l10.9,19.7l54.1,3.8l23.8-48.5l-11.6-19.1l-27,12.9l-9.7-17.4l23.2-13.5l9.7-22.5l-25.7-3.2l-22.5,13.5l-6.5-10.4
	l16.1-9.7l-9.6-16l-15.4,9l-7.1-10.3l23.2-16.1l1.3-25.7l12.2,0.6v18h19.3V312h11.6v27l15.4,20.6l14.8-19.3v-27.7h20l2.6,29.6
	l22.5,0.6L502,297.8z"/>
</svg>
