<?xml version="1.0" encoding="utf-8"?>
<!-- Generator: Adobe Illustrator 19.0.0, SVG Export Plug-In . SVG Version: 6.00 Build 0)  -->
<svg version="1.1" id="beachcombing_xA0_Image_1_" xmlns="http://www.w3.org/2000/svg" xmlns:xlink="http://www.w3.org/1999/xlink"
	 x="0px" y="0px" viewBox="-11 13.7 575.8 574.3" style="enable-background:new -11 13.7 575.8 574.3;" xml:space="preserve">
<style type="text/css">
	.st0{fill:#FFFF00;}
	.st1{fill:#4040FF;}
	.st2{fill:#FFFFFF;}
</style>
<rect x="-11" y="13.7" class="st0" width="575.8" height="574.3"/>
<rect x="34" y="58.5" class="st1" width="486" height="484.7"/>
<g>
	<path class="st2" d="M497,448.3c0-3.4-0.2-5.9-0.5-7.6c-12.1,7.1-21.4,11.1-27.8,12.1h-58.6l-2-22.2c43.1-14.8,64.7-26.6,64.7-35.4
		V374l2.5-19.7c0-3.4-0.8-6.2-2.5-8.6l-41.9-25.3c-27.3-16.5-41.6-25.9-43-28.3c-2.4-5.4-14.3-15.8-35.9-31.3l-9.1,36.4
		c-36.4-20.5-55.1-33.4-56.1-38.4c0.3,1,0.5-7.2,0.5-24.8c0-21.9-5.6-36.2-16.7-43c0.7-2,1-3.9,1-5.6l-1-12.6
		c0-5.1,3.5-9.1,10.4-12.1c6.9-3,14.1-4.5,21.5-4.5c-12.1-25.3-26.6-37.9-43.5-37.9c-5.1,0-9.9,1.3-14.7,3.8
		c-4.7,2.5-8.8,5.8-12.4,9.9c-3.5,4-6.4,8.6-8.6,13.6c-2.2,5.1-3.3,10.1-3.3,15.2c0,1.7,0.2,2.5,0.5,2.5c0.3,0,0.5-0.2,0.5-0.5
		c3.7,15.2,10.4,24.6,20.2,28.3l-7.6,2c-11.8,3-20.4,19.2-25.8,48.5c-2.7,14.1-4.8,28.7-6.3,43.7c-1.5,15-2.3,30.6-2.3,46.7
		c0,3.4,0,6.7,0,10.1c0,3,0.2,6.2,0.5,9.6h-75.3c-6.4-22.9-19.2-35.2-38.4-36.9v55.1c-19.9,27.6-29.8,46-29.8,55.1
		c0,3.7,1.7,5.6,5.1,5.6h318.3v26.3h-78.3v22.2h175.3C490.3,471,497,460.7,497,448.3z M243.8,460.4H68.5
		c2.7,10.8,7.1,17.5,13.1,20.2c2.7,0.7,7.7,1,15.2,1h63.7c9.1-0.7,17.8-1.2,26-1.5c8.3-0.3,16.1-0.5,23.5-0.5c7.4,0,12.1,0.3,14.1,1
		h1.5C233.7,480.6,239.8,473.9,243.8,460.4z M331.3,323.9c-2.4,2.7-4.9,5.4-7.6,8.1c-4.7,5.4-7.1,8.4-7.1,9.1v0.5
		c0.3,2,0.6,3.8,0.8,5.3c0.2,1.5,0.3,2.8,0.3,3.8c0,5.7-2.9,8.6-8.6,8.6h-2.5c-22.2-4-33.3-13.6-33.3-28.8c0-3.7,0.3-7.8,1-12.4
		c0.7-4.5,1.7-9.7,3-15.4c16.2,1.3,29.2,4,39.2,8.1C326.3,314.9,331.3,319.2,331.3,323.9z"/>
</g>
</svg>
