<?xml version="1.0" encoding="utf-8"?>
<!-- Generator: Adobe Illustrator 19.0.0, SVG Export Plug-In . SVG Version: 6.00 Build 0)  -->
<svg version="1.1" id="Layer_1" xmlns="http://www.w3.org/2000/svg" xmlns:xlink="http://www.w3.org/1999/xlink" x="0px" y="0px"
	 viewBox="0 0 600 600" style="enable-background:new 0 0 600 600;" xml:space="preserve">
<style type="text/css">
	.st0{fill:#FFFFFF;}
</style>
<path id="XMLID_22_" class="st0" d="M202.5,579.4l-32.8-97.6l-102.5,0.7c-3.3,0-6.7-1.6-8.7-4.3c-2-3-2.7-6.4-1.4-9.7l30.9-98
	L4.4,310.6c-2.7-2-4.4-5.3-4.4-8.7c0-3.3,1.6-6.7,4.3-8.7L87,232.4l-32.1-97.6c-1.4-3.3-0.7-6.7,1.3-9.7c2-2.7,5.3-4.4,8.7-4.4
	l102.5-0.7l31.5-98c1-3,3.3-5.7,6.7-6.7c3.3-1,7-0.7,9.7,1.3l83.5,59.8l82.7-60.8c3-2,6.3-2.4,9.7-1.4c3.4,1,5.7,3.7,6.7,6.7
	l32.8,97.6l102.5-0.7c3.3,0,6.7,1.6,8.7,4.3c2,3,2.7,6.4,1.4,9.7l-30.9,98l83.5,59.8c5.4,4,5.4,13.4,0.1,17.4l-82.7,60.8l32.1,97.6
	c1.4,3.3,0.7,6.7-1.3,9.7c-2,2.7-5.3,4.4-8.7,4.4L433,480l-31.5,98c-1,3-3.3,5.7-6.7,6.7c-3.3,1-6.7,0.7-9.7-1.3l-83.5-59.8
	l-82.7,60.8c-2.7,2-6.3,2.4-9.7,1.4C205.9,585,203.5,582.4,202.5,579.4z M493.1,298.8c-0.7-106.5-87.7-192.4-194.2-191.7
	c-106.5,0.7-192.4,87.7-191.7,194.2S194.9,493.6,301.4,493S493.8,405.3,493.1,298.8z"/>
<path id="XMLID_3_" class="st0" d="M204.7,568l-30.8-93.6H75.7c-3.2,0-6.4-1.6-8.3-4.2c-1.9-2.9-2.6-6.1-1.3-9.3l30.1-93.6
	l-79.5-57.7c-2.6-1.9-4.2-5.1-4.2-8.3s1.6-6.4,4.2-8.3l79.5-57.7l-30.1-93.6c-1.3-3.2-0.6-6.4,1.3-9.3c1.9-2.6,5.1-4.2,8.3-4.2h98.1
	l30.8-93.6c1-2.9,3.2-5.4,6.4-6.4c3.2-1,6.7-0.6,9.3,1.3L299.9,87l79.5-57.7c2.9-1.9,6.1-2.2,9.3-1.3c3.2,1,5.5,3.5,6.4,6.4
	l30.8,93.6H524c3.2,0,6.4,1.6,8.3,4.2c1.9,2.9,2.6,6.1,1.3,9.3l-30.1,93.6l79.5,57.7c5.1,3.9,5.1,12.8,0,16.7l-79.5,57.7l30.1,93.6
	c1.3,3.2,0.6,6.4-1.3,9.3c-1.9,2.6-5.1,4.2-8.3,4.2h-98.1L395.1,568c-1,2.9-3.2,5.4-6.4,6.4c-3.2,1-6.4,0.6-9.3-1.3l-79.5-57.7
	l-79.5,57.7c-2.6,1.9-6.1,2.2-9.3,1.3C207.9,573.4,205.6,570.8,204.7,568z M484.6,301.2c0-102-82.7-184.7-184.7-184.7
	s-184.7,82.7-184.7,184.7s82.7,184.7,184.7,184.7S484.6,403.1,484.6,301.2z"/>
</svg>
