<svg id="Layer_1" data-name="Layer 1" xmlns="http://www.w3.org/2000/svg" viewBox="0 0 27 17.94"><title>SurveyLogo_27x27px</title><path d="M11.5,21.69a1.07,1.07,0,0,1,.67-.35l25.46-5.27c.33-.06.64-.09.87.22v.36c-.73,1.64-1.28,3.34-1.9,5-1.45,3.88-2.87,7.77-4.3,11.66-.28.75-.43.8-1.13.35-1.47-1-3-1.9-4.4-2.88a.72.72,0,0,0-.95,0c-1.43,1-2.88,1.93-4.33,2.89-.63.42-.87.3-1-.42-.4-2.28-.82-4.55-1.21-6.83-.05-.29-.26-.38-.47-.49l-6.45-3.41c-.3-.16-.58-.34-.87-.51Zm20,11.17,5.59-15.19-13.59,10Zm3.05-15.25L13.25,22c2.07,1.09,4,2.09,5.87,3.11a1,1,0,0,0,1,0L34.1,18C34.27,17.89,34.47,17.85,34.59,17.61Zm-1.78,2.14c-.09-.1-.13,0-.19,0-4,2.07-8.09,4.15-12.14,6.2a.53.53,0,0,0-.3.67c.17.84.31,1.69.46,2.53s.29,1.48.43,2.22A35.37,35.37,0,0,0,22.21,28a1.61,1.61,0,0,1,.63-.9c1.89-1.37,3.77-2.76,5.66-4.14ZM23,28.38l-1.23,4.07L25.48,30Z" transform="translate(-11.5 -16.03)"/></svg>