<?xml version="1.0" encoding="utf-8"?>
<!-- Generator: Adobe Illustrator 19.0.0, SVG Export Plug-In . SVG Version: 6.00 Build 0)  -->
<svg version="1.1" id="beachcombing_xA0_Image_1_" xmlns="http://www.w3.org/2000/svg" xmlns:xlink="http://www.w3.org/1999/xlink"
	 x="0px" y="0px" viewBox="-11 13.7 575.8 574.3" style="enable-background:new -11 13.7 575.8 574.3;" xml:space="preserve">
<style type="text/css">
	.st0{fill:#FFFF00;}
	.st1{fill:#573922;}
	.st2{fill:#FFFFFF;}
</style>
<rect x="-11" y="13.7" class="st0" width="575.8" height="574.3"/>
<rect x="34" y="58.5" class="st1" width="486" height="484.7"/>
<g>
	<path class="st2" d="M397.7,345.8L271,124.6c-111.6,48.3-167.4,75.2-167.4,80.9c0,1,0.5,1.5,1.5,1.5h1.5
		c16.1,0,63.2-12.6,141.3-37.7l27.6,69.4L57.4,348.8c11.1,17.1,23.5,25.6,37.2,25.6c12.4,0,25-8.5,37.7-25.6
		c12.4,17.1,25,25.6,37.7,25.6c11.7,0,21.9-8.5,30.7-25.6c12.4,18.1,24.5,27.1,36.2,27.1c10.7,0,20.1-9,28.2-27.1
		c12.4,17.1,24.5,25.6,36.2,25.6c11.4,0,21.3-8.7,29.7-26.1c0.7,3.7,5.4,8.7,14.1,15.1c9.4,6.7,16.6,10.1,21.6,10.1
		C377.9,373.5,388.3,364.2,397.7,345.8z M466.6,431.3v-24.1c-10.7,29.2-21.6,43.7-32.7,43.7c-5.7,0-14.1-7.4-25.1-22.1
		c-8.4-11.4-12.6-18.1-12.6-20.1c0-1,0.5-1.5,1.5-1.5c-9,26.5-19.4,39.7-31.2,39.7c-4.7,0-11.9-4.9-21.6-14.6
		c-8.7-9.7-13.4-17.3-14.1-22.6l0.5-0.5c-2.3,0.7-7.7,7.2-16.1,19.6c-8.4,12.4-13.1,18.6-14.1,18.6c-11.7,0-23.8-12.2-36.2-36.7
		c-8,25.5-17.4,38.2-28.2,38.2c-8.4,0-16.8-6.5-25.1-19.6c-7.4-10.4-11.1-16.6-11.1-18.6c-8.7,25.1-18.9,37.7-30.7,37.7
		c-12.7,0-25.3-12.6-37.7-37.7c-12.7,25.1-25.3,37.7-37.7,37.7c-13.7,0-26.1-12.6-37.2-37.7v25.1c11.1,24.5,23.5,36.7,37.2,36.7
		c12.7,0,25.3-12.2,37.7-36.7c12.4,24.5,25,36.7,37.7,36.7c12.1,0,22.3-12.2,30.7-36.7c12.4,25.5,24.5,38.2,36.2,38.2
		c10.7,0,20.1-12.7,28.2-38.2c12.4,24.1,24.5,36.2,36.2,36.2c11.7,0,21.6-12.6,29.7-37.7c0.3,0.7,1.4,2.5,3.3,5.5
		c1.8,3,4.6,7.2,8.3,12.6c8.4,12.4,16.4,18.6,24.1,18.6c11.1,0,21.4-13.4,31.2-40.2c-1,0-1.5,0.3-1.5,1c0,2,4.2,8.7,12.6,20.1
		c11.1,14.8,19.4,22.1,25.1,22.1C445.3,474,456.2,459.8,466.6,431.3z M493.7,248.8c0-7-1.3-13.8-3.8-20.4c-2.5-6.5-6-12.1-10.3-16.8
		c-4.4-4.7-9.5-8.5-15.3-11.3c-5.9-2.8-12-4.3-18.3-4.3c-6.7,0-13,1.4-18.9,4.3c-5.9,2.9-10.9,6.6-15.1,11.3
		c-4.2,4.7-7.5,10.3-10.1,16.8c-2.5,6.5-3.8,13.3-3.8,20.4c0,7,1.3,13.7,3.8,19.9c2.5,6.2,5.9,11.7,10.1,16.6
		c4.2,4.9,9.1,8.6,14.8,11.3c5.7,2.7,11.9,4,18.6,4c12.7,0,24-5,33.7-15.1C488.9,275.1,493.7,262.9,493.7,248.8z"/>
</g>
</svg>
