<?xml version="1.0" encoding="utf-8"?>
<!-- Generator: Adobe Illustrator 19.0.0, SVG Export Plug-In . SVG Version: 6.00 Build 0)  -->
<svg version="1.1" id="beachcombing_xA0_Image_1_" xmlns="http://www.w3.org/2000/svg" xmlns:xlink="http://www.w3.org/1999/xlink"
	 x="0px" y="0px" viewBox="-11 13.7 575.8 574.3" style="enable-background:new -11 13.7 575.8 574.3;" xml:space="preserve">
<style type="text/css">
	.st0{fill:#FFFF00;}
	.st1{fill:#573922;}
	.st2{fill:#FFFFFF;}
</style>
<rect x="-11" y="13.7" class="st0" width="575.8" height="574.3"/>
<rect x="34" y="58.5" class="st1" width="486" height="484.7"/>
<g>
	<path class="st2" d="M109.5,526.5c-12.5,0-23.4-3.5-32.8-10.5c-9.4-7-17-17.3-22.9-30.9v-47.9c6.2,13.6,13.9,23.8,22.9,30.6
		c9,6.8,19.7,10.2,32.2,10.2c12.5,0,23.3-3.4,32.5-10.2c9.2-6.8,16.7-17,22.6-30.6c6.2,13.6,14.1,23.8,23.7,30.6
		c9.5,6.8,20.2,10.2,32,10.2c11.8,0,22.3-3.4,31.7-10.2c9.4-6.8,17.2-17,23.4-30.6c6.2,13.6,14.1,23.8,23.7,30.6
		c9.5,6.8,20.6,10.2,33.1,10.2c12.1,0,22.8-3.4,32-10.2c9.2-6.8,16.9-17,23.1-30.6c6.2,13.6,13.9,23.8,22.9,30.6
		c9,6.8,19.7,10.2,32.2,10.2c12.5,0,23.4-3.4,32.8-10.2c9.4-6.8,17.2-17,23.4-30.6v47.9c-6.2,14-14,24.3-23.1,31.1
		c-9.2,6.8-20,10.2-32.5,10.2c-12.5,0-23.2-3.5-32.2-10.5c-9-7-16.6-17.3-22.9-30.9c-5.9,13.6-13.5,23.9-22.9,30.9
		c-9.4,7-20.1,10.5-32.2,10.5c-13.2,0-24.5-3.5-33.9-10.5c-9.4-7-17-17.3-22.9-30.9c-6.2,13.6-14.1,23.9-23.4,30.9
		c-9.4,7-19.9,10.5-31.7,10.5c-12.5,0-23.4-3.5-32.8-10.5c-9.4-7-17-17.3-22.9-30.9c-5.9,13.6-13.4,23.9-22.6,30.9
		C132.9,523,122,526.5,109.5,526.5z M256.7,104.4c-2.6-5.1-5.4-10.3-8.5-15.4c-3.1-5.1-7.8-9.2-14.1-12.1c-0.7,0-1.7,0-2.8,0
		s-2,0-2.8,0c-0.4,1.5-0.9,2.9-1.7,4.4c-0.7,1.5-1.3,3.1-1.7,5c-2.6,11-4,22.2-4.4,33.6c-0.4,11.4-0.2,22.8,0.6,34.2
		c0.4,8.8,0.9,17.7,1.7,26.7c0.7,9,1.5,18.1,2.2,27.3c0.4,1.8,0.1,3.2-0.8,4.1c-0.9,0.9-2.3,1.6-4.1,1.9c-15.4,3.7-30.9,7.4-46.3,11
		c-15.4,3.7-30.7,7.5-45.7,11.6c-6.2,1.8-12.3,4-18.2,6.6c-5.9,2.6-10.5,7-13.8,13.2c0,0.7,0,1.7,0,2.8c0,1.1,0,2,0,2.8
		c3.3,4.8,7.3,8.5,12.1,11c4.8,2.6,9.9,4.8,15.4,6.6c8.1,2.6,16.2,4.9,24.2,6.9c8.1,2,16.3,4.1,24.8,6.3c6.2,1.5,12.5,3,18.7,4.7
		c6.2,1.7,12.5,3.4,18.7,5.2c0,1.1-0.1,2.1-0.3,3c-0.2,0.9-0.5,1.7-0.8,2.5c-1.5,7-3,14.1-4.7,21.2c-1.7,7.2-3,14.2-4.1,21.2
		c-2.6,13.2-4.9,26.4-6.9,39.7c-2,13.2-4.3,26.4-6.9,39.7c-1.1,8.5-0.6,14.8,1.7,19c2.2,4.2,6.6,8.4,13.2,12.4c1.5,0,2.9,0,4.4,0
		c1.5,0,2.9,0,4.4,0c5.5-2.6,10-5.9,13.5-9.9c3.5-4,6.5-8.6,9.1-13.8c8.4-16.2,16.6-32.2,24.5-48.2c7.9-16,15.9-31.9,24-47.7
		c1.5-2.9,2.9-5.9,4.4-8.8c1.5-2.9,3.1-5.9,5-8.8c4.8,4.8,9.4,9.6,13.8,14.3c4.4,4.8,8.8,9.2,13.2,13.2c8.1,8.1,16.3,16.2,24.8,24.2
		c8.4,8.1,16.9,16.2,25.3,24.2c2.9,2.9,6.1,5.6,9.4,8c3.3,2.4,6.6,4.7,9.9,6.9c4.4,2.6,8.4,2.9,11.8,1.1c3.5-1.8,5.8-5.3,6.9-10.5
		c1.1-6.2,0.7-11.9-1.1-17.1c-1.8-5.1-4.2-10.1-7.2-14.9c-4.4-8.1-8.8-16.3-13.2-24.8c-4.4-8.4-8.8-16.7-13.2-24.8
		c-2.9-6.2-6-12.7-9.1-19.3c-3.1-6.6-6.3-13.4-9.6-20.4c6.6-6.2,13.3-12.4,20.1-18.5c6.8-6.1,13.3-12.2,19.6-18.5
		c4.4-4.8,9.1-9.5,14.1-14.3c5-4.8,9.3-9.7,12.9-14.9c2.9-2.9,5.3-6.4,7.2-10.5c1.8-4,3.7-7.9,5.5-11.6c0-1.1,0-2.2,0-3.3
		c0-1.1,0-2.2,0-3.3c-2.2-3.7-5-6-8.3-6.9c-3.3-0.9-7-1-11-0.3c-4.4,0.7-8.9,1.5-13.5,2.2c-4.6,0.7-9.1,1.7-13.5,2.8
		c-11.8,2.9-23.5,5.7-35.3,8.3c-11.8,2.6-23.9,4-36.4,4.4c-2.6,0-4.7-0.4-6.3-1.1c-1.7-0.7-3.2-2.4-4.7-5L256.7,104.4z"/>
</g>
</svg>
