<?xml version="1.0" encoding="utf-8"?>
<!-- Generator: Adobe Illustrator 19.0.0, SVG Export Plug-In . SVG Version: 6.00 Build 0)  -->
<svg version="1.1" id="beachcombing_xA0_Image_1_" xmlns="http://www.w3.org/2000/svg" xmlns:xlink="http://www.w3.org/1999/xlink"
	 x="0px" y="0px" viewBox="-17 109.7 575.8 574.3" style="enable-background:new -17 109.7 575.8 574.3;" xml:space="preserve">
<style type="text/css">
	.st0{fill:#F6EB0F;}
	.st1{fill:#573923;}
	.st2{fill:none;stroke:#FFFFFF;stroke-width:15;stroke-miterlimit:10;}
	.st3{fill:#FFFFFF;}
</style>
<polygon id="XMLID_8_" class="st0" points="405.8,509.2 270.2,684 135.7,509.2 135.7,109.7 405.8,109.7 "/>
<polygon id="XMLID_6_" class="st1" points="375,510.6 270.8,673.5 167.5,510.6 167.5,138.4 375,138.4 "/>
<path id="XMLID_9_" class="st2" d="M326.6,479H217c-6.6,0-12-5.4-12-12V353.1c0-6.6,5.4-12,12-12h109.6c6.6,0,12,5.4,12,12V467
	C338.6,473.6,333.2,479,326.6,479z"/>
<path id="XMLID_10_" class="st2" d="M326.6,313.7H217c-6.6,0-12-5.4-12-12V187.8c0-6.6,5.4-12,12-12h109.6c6.6,0,12,5.4,12,12v113.8
	C338.6,308.3,333.2,313.7,326.6,313.7z"/>
<g id="XMLID_11_">
	<path id="XMLID_16_" class="st3" d="M303.9,242.9l-17-11.8c-1.9-8.1-3.7-13.6-5.4-16.5c-1.7-2.9-4.1-4.4-7.2-4.4
		c-2.3,0-4.5,1.2-6.5,3.6c-0.8,1-2.2,2.6-3.9,4.6l4.3-10.5c-1.6-2.3-4.2-3.3-7.7-3l-10.6,23.3c2.1,3.2,4.7,4.5,7.7,3.9
		c-1.5,4.1-2.2,7.7-2.2,10.7c0,2.5,0.7,4.6,2.2,6.3c-0.3,0.6-0.8,1.8-1.4,3.6l-12.8,40l6.9,4.7l16.4-36.5c2.6,3.3,4.9,5.9,6.9,8.1
		l1.4,7.7l-10.4,17.7l5.6,0.9l6.3-10.7l2,12l10.5-2.1l-4.7-23.7l14-24.2l2.4,1.3L303.9,242.9z M293.8,244.7l-11.4,19.7
		c-2.1-8.8-5.1-15.8-8.8-21c1.9-3.2,3.6-6.3,5.1-9.5l1.9,4.3L293.8,244.7z M289.1,201.6c0-2.1-0.7-3.8-2.1-5.2
		c-1.4-1.4-3.2-2.1-5.3-2.1c-2,0-3.7,0.7-5.2,2.1c-1.5,1.4-2.2,3.1-2.2,5.2c0,2,0.7,3.7,2.2,5.2c1.5,1.5,3.2,2.2,5.2,2.2
		c2.1,0,3.9-0.7,5.3-2.2C288.4,205.3,289.1,203.5,289.1,201.6z"/>
</g>
<g id="XMLID_12_">
	<path id="XMLID_33_" class="st3" d="M254.3,430.6h-0.1c0-0.5-0.3-0.9-0.9-1.2c0.6-0.7,0.9-1.2,0.9-1.7v-0.2c-0.3-0.6-0.9-1-1.6-1.2
		c0.4-0.3,0.6-0.6,0.6-1c0-0.8-0.6-1.3-1.7-1.6c0.2-0.3,0.3-0.6,0.3-1c0-0.6-0.3-0.9-1-0.9c-0.3,0-0.6,0-0.8,0.1v-0.4
		c0-0.6-0.1-1.1-0.4-1.3c0-0.1-0.6-0.3-1.7-0.5c0-1-0.4-1.6-1.2-1.6c-0.3,0-0.8,0.1-1.2,0.3c-0.1-0.4-0.5-0.9-1.3-1.4h-0.3
		c-0.6,0-1,0.2-1.2,0.6c-0.6-0.8-1-1.1-1.2-1.1c-0.6,0.2-0.8,0.5-0.8,0.9c-0.8-0.5-1.5-0.7-1.9-0.7c-0.1,0-0.2,0-0.3,0.1
		c-0.1,0-0.1,0.1-0.2,0.1c-0.5,0.2-0.7,0.5-0.7,0.8c-0.5-0.3-0.9-0.4-1.3-0.4c-0.3,0-0.5,0-0.6,0.1c-0.3,0.1-0.5,0.3-0.6,0.7
		c-0.2-0.1-0.5-0.1-0.9-0.1c-1.1,0-1.7,0.6-1.7,1.8c-0.2-0.1-0.5-0.1-0.8-0.1c-0.7,0-1.1,0.2-1.1,0.6c-0.3,0.6-0.5,1.1-0.5,1.6
		c-0.6,0.1-1.1,0.6-1.6,1.2c-0.1,0.1-0.1,0.2-0.1,0.5c0,0.3,0.1,0.5,0.2,0.6c-1.1,0-1.7,0.4-1.7,1.2c0,0.1,0.1,0.3,0.2,0.4
		c-0.6,0.3-0.8,0.7-0.8,1.1v0.3c0,0.3,0.2,0.6,0.5,0.7c-0.3,0.2-0.8,0.6-1.2,1.2c0,0.7,0.5,1.2,1.5,1.7c-0.6,0.8-0.9,1.3-0.9,1.7
		c0.1,0.8,0.6,1.2,1.3,1.3c-0.3,0.3-0.4,0.7-0.4,1.1c0,0.3,0,0.5,0.1,0.6c0.2,0.3,0.8,0.7,1.8,1.1c-0.1,0.2-0.1,0.5-0.1,0.8
		c0,0.6,0.2,0.9,0.6,1.1l1,0.4v0.6c0,1,0.4,1.4,1.2,1.4c0.4,0,0.8-0.1,1-0.4c0.2,1.4,0.7,2.2,1.6,2.2c0.5,0,0.9,0,1.1-0.1
		c0.1,0.2,0.5,0.6,1.2,1.1c0.1,0.1,0.3,0.1,0.6,0.1c0.3,0,0.7-0.1,1.1-0.3c0.5,0.6,0.9,0.9,1.3,0.9c0.4,0,0.8-0.3,1.2-0.9
		c0.3,0.4,0.6,0.6,1,0.6c0.7,0,1.3-0.5,1.9-1.4c0.6,0.6,1,0.8,1.2,0.8c0.6,0,0.9-0.6,0.9-1.9c0.7,0.6,1.2,0.8,1.5,0.8h0.1
		c0.3-0.1,0.6-0.5,0.6-1l0.1-0.8c0.4,0.2,0.8,0.3,1.1,0.3c0.1,0,0.2,0,0.3-0.1c0,0,0.1-0.1,0.2-0.1c0.6-0.2,0.8-0.7,0.8-1.3
		c0-0.1,0-0.3-0.1-0.4c0-0.1-0.1-0.2-0.1-0.4c0.5-0.2,1.1-0.6,1.8-1c0.1-0.1,0.1-0.3,0.1-0.4c0-0.3-0.2-0.6-0.6-0.9
		c1,0,1.5-0.2,1.6-0.7c0-0.5-0.2-1-0.5-1.4c0.3,0,0.7-0.2,1.1-0.6c0.1-0.1,0.1-0.2,0.1-0.4c0-0.3-0.2-0.6-0.6-1
		C253.9,431.6,254.3,431.1,254.3,430.6z M243.2,431.4l0.1-0.1c0.1,0.3,0.1,0.7,0.1,0.9c0,0.2,0,0.4,0,0.7c0,3.7-1.6,5.7-4.9,6H238
		c-2,0-3.8-0.8-5.3-2.3c-1.6-1.6-2.3-3.4-2.3-5.5c0-4,1.6-6.1,4.8-6.4h0.5c1.8,0,3.4,0.7,4.8,2C241.8,428,242.8,429.6,243.2,431.4z
		 M314.7,414.7v-0.1c-0.2-0.8-0.8-1.1-1.9-1.1c-0.6,0-3.3,1.4-8.2,4.2l-8.4-1.7c-0.8-0.2-1.1-0.4-1.1-0.5c0-1.2,0.4-1.8,1.2-1.8
		c1.8,0.3,3.2,0.6,4.2,0.9c2.4,0.4,3.8,0.6,4.5,0.6c0.3,0,1.6-0.7,4-2.1h0.6c0.3-0.1,0.4-0.2,0.4-0.5c0.1,0,0.1-0.2,0.2-0.7
		c0-0.1-0.2-0.3-0.5-0.4c-0.3-0.1-2.1-0.4-5.5-0.9c-1.6-0.3-2.9-0.5-3.9-0.6c-1-0.1-1.7-0.2-2.1-0.2c0.7-0.1,1.1-0.2,1.2-0.3h-0.2
		l-0.4,0.2c-0.8,0-2.1-1.3-4-4c-0.7-0.3-1.1-0.6-1.2-1c-0.1-0.1-0.1-0.3-0.1-0.5c0-0.4,0.3-0.6,0.8-0.6c2.7,0,4-1.3,4-3.8
		c0-1.5-0.7-2.3-2.1-2.3H296c-1.5,0-3.2,0.2-5.2,0.7l-1-2.4c0.1-0.1,0.4-0.4,1-0.8c2.1-0.3,3.1-1.1,3.1-2.5c0-1.1-0.5-1.7-1.6-1.7
		c-0.4,0.1-0.8,0.2-1,0.3l0.1-0.2h-4.4c-4.5,0-7-0.2-7.4-0.5c-1.9-2.1-4.4-4.4-7.4-6.7c-0.3,0.3-1.1,0.5-2.5,0.7
		c-1.2-0.2-2.7-0.3-4.5-0.3l-2.1-0.4c-0.6-0.1-1-0.1-1.3-0.2c-0.3,0-0.6-0.1-0.8-0.1h-0.3c-0.3,0.1-1.1,1.3-2.3,3.6
		c-0.6,1.2-0.9,3.4-0.9,6.8c0,1.1,0.2,1.8,0.6,2.1l1.7,0.5c-0.1,0.5-0.2,1-0.3,1.6c-0.1,0.6-0.3,1.3-0.4,2c-0.3,0.6-0.4,1.7-0.4,3.5
		c-2.7-1-4.8-1.6-6.3-1.6c-0.6,0-1,0.1-1.5,0.2c-1.9,0.3-3.4,1-4.7,2.3c-0.5,0.5-1.2,1.6-2.2,3.2H244c-0.4,0-1-0.2-1.9-0.6l-1.5-2.4
		c-0.1-0.1-0.5-0.2-0.9-0.2c-0.5,0-0.9,0-1.2,0.1c-0.9,0.3-1.8,0.5-2.7,0.8c-0.9,0.2-1.8,0.5-2.8,0.9c-0.6,0.4-0.9,1-0.9,1.7v0.9
		c0,0.7-0.1,1.4-0.3,2.3c-0.2,0.8-0.3,1.1-0.4,1.1v-0.3c0,0.3,0.1,0.6,0.3,0.8c1.3-0.3,2.9-0.4,4.9-0.4c4.6,0,8.4,0.8,11.5,2.3
		c1,0.6,2.8,2.3,5.6,5.4c2.8,3.1,4,4.7,3.7,4.7l-0.1,2.6c0.1,0.1,0.1,0.3,0.1,0.6c0,0.6-0.2,1-0.6,1.2c0.6,0.3,0.9,0.8,0.9,1.2
		c0,0.7-0.3,1.2-1,1.7c0.4,0.3,0.6,0.8,0.6,1.2v0.3l-0.6,0.1c0.7,0.6,1.2,0.9,1.6,0.9c0.3-0.1,0.7-0.5,1-1.1c0.1,0,0.3,0,0.4,0.1
		c0.1,0,0.3,0.1,0.4,0.1c1.5,0,2.3-0.4,2.3-1.3l-0.1-0.3c1.2,0,1.8-0.2,1.8-0.5c0.1-0.9,0.2-1.3,0.5-1.3h8.3c1.5,0.7,2.5,1,2.8,1
		h0.2c0.5-0.8,0.9-1.5,1.2-2.3c0.3-0.8,0.6-1.5,0.7-2.3c0.9-2.1,3.6-4.6,8.1-7.2c0.9-0.5,2-0.8,3.4-0.8c0.3,0,0.6,0,0.8-0.1
		c0.3,0,0.6-0.1,0.9-0.1l2.3,0.1c0.6,0.1,1,0.1,1.3,0.1c0.4,0,0.7,0,0.9,0.1h-0.1c0,0.1,3,0.6,8.9,1.6
		C311.3,417.6,314.7,415.7,314.7,414.7z M240.1,435.7c-0.7-1.3-1.7-2.2-3-2.8c-0.1-0.3-0.3-0.5-0.4-0.7c-0.1-0.2-0.2-0.4-0.3-0.5
		c-0.6-0.6-1.3-0.9-2.1-0.9l-0.5,0.1c-1.2,0.2-1.8,0.6-1.9,1v0.2c0,0.9,0.6,2,1.8,3.3c1.3,1.2,2.6,1.9,3.7,1.9c0.4,0,1-0.2,1.7-0.6
		C239.7,436.3,240.1,435.9,240.1,435.7z M240.2,407.6c0,0.3-0.1,0.4-0.4,0.5V408c-0.8,0.6-2.4,1.3-4.8,2.2c-0.1,0.1-0.2,0.1-0.3,0.1
		c-0.3,0-0.7-0.2-1-0.7c-0.3-0.4-0.5-0.8-0.5-1.2c0-0.7,1.7-1.6,5.2-2.6h0.2c0.3,0,0.5,0.1,0.6,0.2
		C239.9,406.7,240.2,407.2,240.2,407.6z M271.9,376.4h0.2c0-1.7-0.5-3-1.6-4.1c-1-1.1-2.4-1.6-3.9-1.6c-1.5,0-2.9,0.5-4,1.6
		c-1.1,1.1-1.7,2.4-1.7,4c0,3.5,2.5,5.5,7.6,6h0.4C270.9,382.3,271.9,380.3,271.9,376.4z M268.5,418.9c2.2,0.1,3.3,0.3,3.3,0.4
		c0,0.6-0.4,1.3-1.1,2.1c-0.6-0.6-1.5-0.9-2.7-0.9c-2.8,0-4.2,1.4-4.2,4.2c0,1.2,0.4,2.1,1.1,2.9h-1.3c-1.1-1.7-1.7-3.3-1.7-4.7
		c0.1-0.4,0.2-1,0.3-1.9c0.6-1.2,1.5-1.9,2.9-2.2c0.1,0,0.3,0,0.5-0.1c0.2,0,0.4-0.1,0.7-0.1c0.3,0,0.6,0,0.9,0.1
		C267.6,418.9,268,418.9,268.5,418.9z M271.3,376.4c0.1,0.1,0.2,0.3,0.2,0.6c0,0.3,0,0.5-0.1,0.6c-0.1,0.6-0.3,0.9-0.6,0.9
		c-0.1,0.1-0.2,0.1-0.3,0.1c-0.4,0-0.9-0.2-1.3-0.7c-0.9,0.5-1.6,0.7-2.1,0.7c-0.2,0-0.3,0-0.4-0.1c-1.1-0.1-1.7-0.6-1.7-1.6
		c0-0.6,0.2-1.2,0.6-1.9c0.4-0.6,0.7-0.9,1-0.9h3.6C270.8,374.2,271.2,374.9,271.3,376.4z M281.7,419.5c0,0.3-0.1,0.7-0.4,0.9
		c-2.9,2.9-4.5,5-4.8,6.2c-0.1,0.6-0.3,1-0.5,1.1c-0.1,0-0.3-0.1-0.4-0.2c-0.7-0.1-1.5-0.4-2.4-1v-0.1c0-0.9,1.1-3.1,3.4-6.5
		c0.8-1,1.6-1.4,2.4-1.4C280.8,418.5,281.7,418.8,281.7,419.5z M286.1,404.2c-0.2,0.2-0.5,0.3-0.9,0.3c-0.4,0-0.8,0-1-0.1
		c-0.3-0.7-0.9-1.4-2-2.3c-0.4-0.5-0.8-0.7-1.2-0.7c-1.9-0.3-3.5-0.6-4.6-0.8s-1.9-0.4-2.3-0.5c3.3-0.3,6-1.3,8.2-3
		C283,397.1,284.3,399.4,286.1,404.2z M288.7,392.9c-0.6,1-0.9,1.7-0.9,2.1s0.2,1.7,0.6,3.7l-2.1,0.4c-0.5-0.6-1-1.3-1.6-2
		c-0.6-0.7-1.3-1.4-2-2.2c-0.1,0-0.2,0-0.3-0.1c-0.1,0-0.1-0.1-0.2-0.1c-0.1,0-0.2,0-0.3,0.1c0,0-0.1,0.1-0.2,0.1
		c-0.5,0.1-1.3,0.3-2.4,0.6c-1.1,0.2-2.6,0.5-4.4,0.9v-3.6c1.5,0.8,3.1,1.1,4.7,1.1c0.9,0,1.9-0.2,2.9-0.5c0.2-0.1,0.8-0.1,1.9-0.2
		C285.4,393.2,286.9,393.1,288.7,392.9z M307.4,436.5c0-0.5-0.3-0.9-1-1.1c0.4-0.6,0.6-1.2,0.6-1.8v-0.3c-0.3-0.3-0.8-0.7-1.3-0.9
		c0.3-0.5,0.5-0.9,0.5-1.1c0-1-0.5-1.4-1.6-1.4c-0.1,0-0.2,0-0.3,0.1c0.1-0.6,0.2-0.9,0.2-1c0-0.8-0.4-1.1-1.1-1.1l-0.6,0.1
		c0-0.2-0.2-0.7-0.5-1.6c-0.2-0.2-0.6-0.3-1.1-0.3h-0.7c0-1.2-0.4-1.8-1.2-1.8c-0.3,0-0.7,0.2-1,0.5c-0.2-0.4-0.7-0.8-1.3-1.2
		c-0.3-0.1-0.5-0.2-0.6-0.2c-0.5,0-0.9,0.2-1.1,0.7c-0.5-0.7-0.9-1-1.2-1c-0.3,0.1-0.6,0.5-0.8,1c-0.8-0.3-1.3-0.5-1.6-0.5
		c-1,0-1.6,0.2-1.6,0.7c-0.6-0.1-0.9-0.2-1.1-0.2l-0.7,0.1c-0.3,0.2-0.6,0.5-0.7,0.9c-0.2-0.1-0.5-0.1-0.8-0.1
		c-1.2,0-1.8,0.6-1.8,1.9c-0.2-0.1-0.5-0.1-0.9-0.1c-1,0-1.5,0.7-1.5,2.1c-0.1,0.1-0.3,0.3-0.6,0.4c-0.2,0.1-0.5,0.3-0.9,0.6
		c0.1,0.3,0.2,0.8,0.2,1.4c-1,0-1.5,0.4-1.5,1.2c0,0.2,0.1,0.4,0.2,0.5c-0.3,0.2-0.6,0.6-0.8,1.2v0.4c0,0.4,0.1,0.7,0.3,0.7
		c-0.1,0.1-0.3,0.4-0.6,1.1v0.3c0,0.8,0.4,1.2,1.3,1.2c-0.6,0.7-0.8,1.2-0.8,1.7v0.2c0.2,0.6,0.7,0.9,1.3,1.1
		c-0.3,0.3-0.4,0.7-0.4,1.1c0,0.8,0.7,1.4,2,1.9c-0.1,0.1-0.1,0.4-0.1,0.7c0,0.9,0.6,1.3,1.9,1.3c0,0.8,0.2,1.4,0.5,1.8
		c0.3,0.3,0.6,0.4,0.8,0.4c0.3,0,0.6-0.1,0.8-0.4c0.3,1.4,0.9,2.1,1.8,2.1c0.3,0,0.8-0.1,1.2-0.4c0.1,0.5,0.5,0.9,1.1,1.3h0.3
		c0.4,0,0.9-0.2,1.6-0.6c0.7,0.6,1.2,0.8,1.5,0.8c0.4,0,0.8-0.3,1.2-1c0.3,0.6,0.7,0.8,1.1,0.8c0.6,0,1.1-0.5,1.5-1.4
		c0.6,0.3,0.9,0.5,1.1,0.5c0.7,0,1-0.3,1-0.9c0-0.3,0-0.5-0.1-0.7c0.6,0.4,1.1,0.6,1.5,0.6h0.2c0.5-0.1,0.7-0.7,0.7-1.6v-0.4
		c0.4,0.1,0.7,0.2,0.8,0.2c1,0,1.5-0.4,1.5-1.2c0-0.3,0-0.6-0.1-0.8c0.5-0.2,1-0.6,1.7-1c0.1-0.1,0.1-0.2,0.1-0.3
		c0-0.3-0.2-0.7-0.6-1c0.9,0,1.4-0.3,1.6-0.9c0-0.1-0.1-0.4-0.2-0.8l-0.3-0.5c0.3,0,0.7-0.3,1.1-0.8v-0.2c0-0.4-0.2-0.8-0.6-1.2
		C307.1,437.6,307.4,437,307.4,436.5z M297.9,439.5c0,1.7-0.5,3.2-1.4,4.5c-0.9,1.3-2.1,2-3.5,2.1h-0.3c-1.9,0-3.6-0.9-5.3-2.7
		c-1.7-1.8-2.6-3.8-2.6-6.1c0-3.4,1.6-5.4,4.8-5.9h0.6c2,0,3.8,0.8,5.3,2.4C297.1,435.4,297.9,437.3,297.9,439.5z M289.3,442.2
		c0.1-0.1,0.1-0.2,0.1-0.4c-1-3.9-1.7-5.9-2.1-5.9c-0.8,0-1.1,0.8-1.1,2.5v0.4c0,1.7,0.6,2.8,1.8,3.3c0.4,0.2,0.8,0.3,1,0.3
		C289.2,442.4,289.3,442.3,289.3,442.2z M319,426.9v-0.2c0-0.1-0.1-0.4-0.4-0.8c-0.2-0.4-0.4-0.6-0.6-0.6H318
		c0.2-0.4,0.3-0.9,0.3-1.3v-0.5c-0.1-0.3-0.7-0.6-1.9-1c0.4-0.6,0.6-1.1,0.6-1.6c0-0.6-0.6-0.9-1.7-0.9h-0.5l-5.9,2.5
		c-0.4,0.2-0.6,0.4-0.6,0.6c0,0.1,0,0.2,0.1,0.3c0.3,1.2,0.5,2.1,0.6,2.7c0.1,0.6,0.2,1,0.2,1.1c0,1.3,0.1,2.6,0.3,3.9
		c0.8,0.4,1.2,0.9,1.2,1.6c0,0.7-0.2,1.2-0.6,1.4c0.6,0.4,0.9,0.8,0.9,1.1c0,0.5-0.3,1.1-0.9,1.8c0.6,0.3,0.9,0.8,0.9,1.2
		c0.3-0.1,0.6-0.1,0.9-0.2c0.2,0,0.5-0.1,0.8-0.2c0.1,0.1,0.3,0.1,0.5,0.1c0.2,0,0.4,0,0.5-0.1c0.6-0.1,1-0.8,1-2l0.4,0.1
		c0.6,0,1.1-0.8,1.5-2.4c0.2,0,0.5-0.2,0.9-0.6c0.4-0.4,0.6-0.7,0.6-1.1c0-0.3-0.1-0.5-0.3-0.7c0.2-0.1,0.5-0.5,0.8-1.1
		c0-0.3-0.2-0.9-0.5-1.8c0.5-0.7,0.7-1.2,0.7-1.4V426.9z"/>
</g>
</svg>
