<?xml version="1.0" encoding="utf-8"?>
<!-- Generator: Adobe Illustrator 19.0.0, SVG Export Plug-In . SVG Version: 6.00 Build 0)  -->
<svg version="1.1" id="beachcombing_xA0_Image_1_" xmlns="http://www.w3.org/2000/svg" xmlns:xlink="http://www.w3.org/1999/xlink"
	 x="0px" y="0px" viewBox="-11 13.7 575.8 574.3" style="enable-background:new -11 13.7 575.8 574.3;" xml:space="preserve">
<style type="text/css">
	.st0{fill:#FFFF00;}
	.st1{fill:#573922;}
	.st2{fill:#FFFFFF;}
</style>
<rect x="-11" y="13.7" class="st0" width="575.8" height="574.3"/>
<rect x="34" y="58.5" class="st1" width="486" height="484.7"/>
<polygon class="st2" points="317.6,498.3 317.3,428.4 457,428.1 387.8,341 440.7,341 369.1,253.9 404.9,254.7 325.6,160.5 
	352,160.5 277.9,87.9 277.9,85.9 276.8,86.9 275.8,85.9 275.8,87.9 201.7,160.5 228.1,160.5 148.8,254.7 184.5,253.9 113,341 
	165.9,341 96.6,428.1 236.4,428.4 236.1,498.3 200.9,498.1 200.5,516 276.2,516 277.5,516 353.1,516 352.8,498.1 "/>
</svg>
