<?xml version="1.0" encoding="utf-8"?>
<!-- Generator: Adobe Illustrator 19.0.0, SVG Export Plug-In . SVG Version: 6.00 Build 0)  -->
<svg version="1.1" id="Layer_1" xmlns="http://www.w3.org/2000/svg" xmlns:xlink="http://www.w3.org/1999/xlink" x="0px" y="0px"
	 viewBox="-17 109 576 576" style="enable-background:new -17 109 576 576;" xml:space="preserve">
<style type="text/css">
	.st0{fill:#4099FF;}
	.st1{display:none;}
	.st2{display:inline;fill:#FFFFFF;}
	.st3{fill:#FFFFFF;}
</style>
<g id="Layer_1_1_">
</g>
<rect x="-17" y="109" class="st0" width="576" height="577"/>
<g id="Shape">
	<g class="st1">
		<path class="st2" d="M304,471.4c-1,0-2.1,0-3.1,0c-2.4-1-5-1.6-7.1-3c-3.3-2-6.4-4.5-9.6-6.8c-3-2.3-6.3-3.5-10.2-3.4
			c-2.6,0.1-5.2,0.1-7.8,0c-6.3-0.1-10-2.9-11.9-8.9c-0.7-2.2-1.5-4.5-2-6.7c-1.1-4.7-3.6-8.5-7.2-11.8
			c-10.6-9.3-21.1-18.6-31.6-28.1c-11-10-20.9-20.7-25.4-35.3c-0.1-0.2,2.7,8-0.5-0.5c-3.2-8.4,0-8,0-12c1.9-3,3.6-6.2,5.9-9
			c1.4-1.8,2.2-3.2,1.7-5.6c-1.6-7.6,0.4-14.4,6.6-19.1c3.7-2.8,8.2-4.7,12.5-6.8c1.4-0.7,2.4-1.2,2.8-3c2.3-12.9,10-19.8,23.2-20.8
			c2.2-0.2,3.7-1,4.6-3.1c6.4-13.7,16.5-18.6,31.2-15.4c0.9,0.2,2.3,0.1,2.8-0.5c4-4.3,14.3-9.2,14.3-9.2s4.8-3.4,11.5,0
			c0.6,0.4,1.3,0.7,1.9,1.1c3.5,2.2,7.2,4.1,10.5,6.6c1.9,1.4,3.3,2,5.6,1.3c7.5-2.3,14.4-0.7,20.1,4.5c3.2,3,5.7,6.7,8.4,10.2
			c1,1.3,1.8,2.2,3.6,1.8c6.4-1.4,12,0.6,16.9,4.7c5.9,4.9,9.4,11.2,12.4,18.1c0.7,1.7,2.2,3.6,3.8,4.2c11.2,4.3,16.3,13,17.5,24.4
			c0.4,3.8,1.1,6.9,4.6,9.3c1.9,1.3,2.9,4,4.2,6.1c0.5,0.7,1.1,2.2,1.1,2.2s3.2,5.5,0,11c-4.2,8.7-0.5,0.7-0.6,1
			c-2.3,6.4-5.9,12-10.1,17.3C393,400.8,380,414,366.7,427c-4.3,4.2-7.6,9-9.7,14.6c-1.2,3.1-2.6,6.1-4.2,9c-3,5.4-7.8,7.7-13.9,7.4
			c-1.8-0.1-3.7-0.2-5.5-0.3c-4.6-0.2-8.8,1.2-12.4,4C315.9,465.9,310.3,469.3,304,471.4z"/>
	</g>
	<path class="st3" d="M472.3,265.7c21.7-12.8,37.9-33.5,45.8-57.6c-20.2,11.8-42.3,20.7-65.9,25.1c-18.7-20.2-45.8-32.5-75.3-32.5
		c-57.1,0-103.3,46.3-103.3,103.4c0,7.9,0.5,16.2,2.5,23.6c-86.1-4.4-162.4-45.3-213.6-108.3c-8.9,15.3-14.3,33.5-14.3,52.2
		c0,35.9,16.7,67.4,44.8,86.1c-17.2-0.5-33.5-5.4-49.2-12.8c0,0,0,0.5,0,1c0,50.2,37.9,92,85.1,101.4c-8.9,2.5-15.7,3.9-25.1,3.9
		c-6.4,0-12.8-1-19.2-2c13.3,40.8,51.2,70.9,96.5,71.9c-35.4,27.6-79.7,44.3-128.4,44.3c-8.4,0-16.7-0.5-24.6-1.5
		c45.8,29,99.9,46.3,158.5,46.3c190,0,294.3-157.5,294.3-294.3c0-4.4,0-8.9-0.5-13.3c20.2-14.3,37.9-32.5,51.7-53.6
		C513.1,257.4,493.4,262.8,472.3,265.7z"/>
</g>
</svg>
