<?xml version="1.0" encoding="utf-8"?>
<!-- Generator: Adobe Illustrator 19.0.0, SVG Export Plug-In . SVG Version: 6.00 Build 0)  -->
<svg version="1.1" id="beachcombing_xA0_Image_1_" xmlns="http://www.w3.org/2000/svg" xmlns:xlink="http://www.w3.org/1999/xlink"
	 x="0px" y="0px" viewBox="-17 109.7 575.8 574.3" style="enable-background:new -17 109.7 575.8 574.3;" xml:space="preserve">
<style type="text/css">
	.st0{fill:#4099FF;stroke:#66757F;stroke-width:30;stroke-miterlimit:10;}
	.st1{fill:#FFFFFF;}
</style>
<ellipse class="st0" cx="271.5" cy="397.1" rx="274.3" ry="273.4"/>
<path class="st1" d="M375.3,214.2c11.9-7,20.8-18.3,25.1-31.6c-11.1,6.5-23.2,11.3-36.1,13.8c-10.3-11.1-25.1-17.8-41.3-17.8
	c-31.3,0-56.7,25.4-56.7,56.7c0,4.3,0.3,8.9,1.3,13c-47.2-2.4-89-24.8-117.1-59.4c-4.9,8.4-7.8,18.3-7.8,28.6
	c0,19.7,9.2,37,24.5,47.2c-9.4-0.3-18.3-3-27-7c0,0,0,0.3,0,0.5c0,27.5,20.8,50.5,46.7,55.6c-4.9,1.3-8.6,2.2-13.8,2.2
	c-3.5,0-7-0.5-10.5-1.1c7.3,22.4,28.1,38.9,52.9,39.4c-19.4,15.1-43.7,24.3-70.4,24.3c-4.6,0-9.2-0.3-13.5-0.8
	c25.1,15.9,54.8,25.4,86.9,25.4c104.1,0,161.3-86.3,161.3-161.3c0-2.4,0-4.9-0.3-7.3c11.1-7.8,20.8-17.8,28.3-29.4
	C397.7,209.6,386.9,212.6,375.3,214.2z"/>
</svg>
