<?xml version="1.0" encoding="utf-8"?>
<!-- Generator: Adobe Illustrator 19.0.0, SVG Export Plug-In . SVG Version: 6.00 Build 0)  -->
<svg version="1.1" id="beachcombing_xA0_Image_1_" xmlns="http://www.w3.org/2000/svg" xmlns:xlink="http://www.w3.org/1999/xlink"
	 x="0px" y="0px" viewBox="-11 13.7 575.8 574.3" style="enable-background:new -11 13.7 575.8 574.3;" xml:space="preserve">
<style type="text/css">
	.st0{fill:#FFFF00;}
	.st1{fill:#573922;}
	.st2{fill:#FFFFFF;}
</style>
<rect x="-11" y="13.7" class="st0" width="575.8" height="574.3"/>
<rect x="34" y="58.5" class="st1" width="486" height="484.7"/>
<g>
	<path class="st2" d="M470.6,380.7l-0.1-1.4l-0.1-1.3l-0.2-1.3l-0.1-1.3l-0.2-1.3l-0.2-1.3l-0.3-1.4l-0.3-1.5l-0.3-1.7l-0.4-1.9
		l-0.5-2l-0.6-2.4l-0.6-2.6l-2.6-12l-3.1-12.1l-3.2-12.2l-3.2-12.3l-3.2-12.3l-2.9-12.3l-2.4-12.2l-1.8-12.2l-1.1-12l-0.2-11.9
		l1-11.7l2.2-11.4l3.6-11.2l5.2-10.8l6.9-10.5l8.9-10.1L412,85.5l-13.6,4.9l-14.4,4.4l-15.1,3.9l-15.7,3.3l-16.3,2.7l-16.7,2
		l-17.1,1.3l-17.4,0.7l-17.7-0.1l-17.9-0.8l-17.9-1.7l-17.9-2.5l-17.9-3.3l-17.8-4.3L161,91l-17.2-6.1l-60,86.5l8.5,10.2l6.8,10.6
		l5.2,10.9l3.6,11.3l2.4,11.6l1.2,11.8l0.1,12l-0.8,12l-1.6,12.1l-2.1,12.2l-2.6,12.1l-2.9,12l-3.1,12l-3.2,11.8l-3,11.5l-2.8,11.3
		l-0.8,3.4l-0.7,3.3l-0.6,3.2l-0.6,3.2l-0.5,3l-0.4,3l-0.4,2.9l-0.3,2.8l-0.2,2.7l-0.2,2.6v2.6l-0.1,2.5l0.1,2.4l0.2,2.3l0.2,2.2
		l0.3,2.1l1,5.6l1.4,5.4l1.8,5.4l2.1,5.2l2.5,5.1l2.8,5l3.2,4.8l3.5,4.6l3.8,4.3l4.1,4.1l4.3,3.9l4.7,3.5l4.9,3.3l5.1,2.9l5.4,2.5
		l5.6,2.1l1.5,0.5l1.7,0.5l2.1,0.5l2.4,0.5l2.6,0.5l3,0.5l3.3,0.6l3.5,0.6l3.9,0.6l4.1,0.7l4.4,0.6l4.8,0.8l5,0.7l5.3,0.8l5.6,0.8
		l5.9,0.8l5.7,0.9l5.6,0.7l5.5,0.7l5.5,0.7l5.4,0.8l5.3,0.9l5.1,1.1l5,1.4l4.8,1.7l4.6,2.1l4.4,2.5l4.2,3.1l4,3.6l3.7,4.3l3.5,5
		l3.2,5.7l0.4,0.1l3.9-6.5l4.1-5.5l4.3-4.7l4.6-3.8l5-3.2l5.4-2.6l5.8-2.1l6.4-1.7l7-1.4l7.6-1.3l8.3-1.1l9-1.2l9.8-1.3l10.6-1.6
		l11.5-1.8l12.4-2.2l4.3-0.8l4.2-0.9l4.1-0.9l4-1.1l3.9-1.2l3.8-1.3l3.6-1.6l3.5-1.6l3.4-1.7l3.3-1.9l3.2-2l3-2.1l3-2.3l2.7-2.4
		l2.7-2.5l2.6-2.7l2.8-3.3l2.7-3.3l2.5-3.4l2.3-3.5l2.1-3.5l1.9-3.6l1.8-3.6l1.5-3.8l1.3-3.8l1.2-3.8l1-3.9l0.8-3.9l0.6-4l0.4-4
		l0.3-4.1v-4.2V384l-0.1-1.7L470.6,380.7z M452.3,390.2l-0.4,4.9l-0.7,4.9l-1.1,4.8l-1.4,4.8l-1.8,4.7l-2.3,4.6l-2.6,4.5l-3,4.3
		l-3.3,4.1l-3.6,3.9l-4,3.6l-4.5,3.4l-4.7,3l-5.1,2.7l-5.5,2.4l-1.6,0.5l-2.4,0.6l-3.1,0.6l-3.6,0.8l-4,0.7l-4.3,0.8l-4.5,0.8
		l-4.6,0.8l-4.6,0.8l-4.5,0.7l-4.1,0.6l-3.7,0.6l-3.2,0.5l-2.6,0.4l-1.9,0.3l-0.9,0.1l-2.5,0.4l-2.4,0.3l-2.3,0.3l-2.3,0.3l-2.2,0.3
		l-2.2,0.3l-2.1,0.3l-2.1,0.3l-2.3,0.3l-2.3,0.3l-2.3,0.3l-2.4,0.4l-2.5,0.4l-2.7,0.4l-2.9,0.4l-3,0.5l-2.8,0.5l-2.8,0.6l-2.8,0.7
		l-2.8,0.7l-2.8,0.8l-2.8,1l-2.7,1l-2.7,1.1l-2.6,1.2l-2.6,1.3l-2.4,1.3l-2.3,1.6l-2.3,1.6l-2.1,1.7l-1.9,1.8l-1.8,2l-3.3-2.6
		l-3.2-2.4l-3-2.1l-3-1.9l-2.9-1.6l-2.7-1.4l-2.7-1.3l-2.6-1.1l-2.6-1l-2.5-0.8l-2.5-0.6l-2.5-0.5l-2.4-0.5l-2.4-0.4l-2.4-0.4
		l-2.4-0.3l-2.5-0.3l-2.8-0.4l-3.1-0.4l-3.4-0.5l-3.6-0.5l-4-0.5l-4.2-0.6l-4.5-0.6l-4.8-0.8l-5.1-0.8l-5.4-0.8l-5.6-0.8l-5.9-0.9
		l-6.2-1l-6.5-1l-6.7-1.1l-4.2-0.7l-4-1l-3.8-1.3l-3.7-1.5l-3.4-1.6l-3.3-1.8l-3.1-1.9l-2.9-1.9l-2.7-2.1l-2.5-2.1l-2.3-2.1
		l-2.1-2.1l-1.9-2l-1.7-2l-1.5-1.9l-1.2-1.8l-2.8-4.6l-2.4-4.5l-2-4.3l-1.6-4.2l-1.2-4.2l-0.9-4.1l-0.6-3.9l-0.3-3.9l-0.1-3.8
		l0.1-3.8l0.3-3.7l0.4-3.7l0.6-3.7l0.7-3.6l0.7-3.7l0.8-3.6l1-4.5l1-4.5l1-4.6l1.1-4.6l1.1-4.7l1.1-4.7l1.1-4.7l1.1-4.7l1.1-4.8
		l1.2-4.8l1.1-4.8l1.2-4.9l1.2-4.9l1.2-4.9l1.2-5l1.3-5l0.9-3.4l0.8-3.2l0.6-2.8l0.6-2.6l0.5-2.4l0.5-2.3l0.4-2l0.3-2l0.3-1.9l0.3-2
		l0.3-2l0.2-2l0.2-2.2l0.2-2.4l0.2-2.6l0.2-2.8l0.1-6.6l-0.3-6.5l-0.6-6.4l-1.1-6.3l-1.3-6.1l-1.6-5.8l-1.7-5.6l-1.9-5.3l-2-5
		l-2.1-4.7l-2.1-4.3l-2.1-3.8l-2-3.4l-1.9-3l-1.8-2.4l-1.4-1.9l44.5-64.8l13.1,4.2l14.1,3.8l14.9,3.3l15.7,2.8l16.3,2.3l16.7,1.8
		l17,1.2l17.2,0.6h17.3l17.2-0.6l17-1.3l16.6-2l16.1-2.7l15.5-3.5l14.7-4.3l13.8-5.1l44.3,64.4l-4.4,6.3l-3.9,6.4l-3.5,6.5l-3,6.6
		l-2.6,6.7l-2.1,6.8l-1.7,6.8l-1.3,6.9l-1,7l-0.5,7l-0.1,7l0.2,7l0.6,7.1l0.9,7.1l1.3,7l1.7,7l2.8,11.1l2.6,10.4l2.5,9.9l2.3,9.2
		l2.1,8.6l1.9,8l1.7,7.4l1.6,6.9l1.4,6.3l1.2,5.6l1,5l0.9,4.4l0.7,3.9l0.5,3.3l0.4,2.6l0.2,2L452.3,390.2L452.3,390.2z"/>
	<polygon class="st2" points="301.2,380.9 301.7,381.1 302.2,381.2 302.7,381.3 303.1,381.3 303.6,381.4 304.1,381.4 304.5,381.4 
		305,381.4 305.4,381.4 305.9,381.3 306.4,381.3 306.8,381.3 307.3,381.2 307.8,381.1 308.2,381 308.6,381 309,381 309.4,381 
		309.7,381 310.2,381 310.5,381 310.9,381 311.3,381 311.7,381 312.1,381 312.6,381.1 313,381.2 313.4,381.2 313.8,381.3 
		314.2,381.4 314.7,381.5 315,381.6 315.3,381.7 315.6,381.7 315.9,381.7 316.1,381.7 316.3,381.7 316.6,381.7 316.7,381.6 
		316.9,381.6 317,381.4 317.1,381.3 317.2,381.2 317.2,381.1 317.3,380.9 317.3,380.7 317.4,380.5 317.2,380.2 317.1,379.9 
		316.8,379.7 316.4,379.3 316,378.9 315.4,378.5 314.7,378.1 314,377.6 313.1,377.2 312.1,376.7 311,376.1 309.8,375.5 308.6,375 
		307.2,374.4 305.7,373.7 304.1,373 287.4,365.4 286.9,365.1 286.5,364.8 286.1,364.3 285.9,363.8 285.6,363.3 285.5,362.6 
		285.3,361.8 285.2,360.9 285.1,360 285.1,358.9 285,357.7 285,356.3 284.9,354.8 284.9,353.2 284.8,351.5 284.7,349.5 284.6,347.5 
		284.6,345.4 284.5,343.5 284.5,341.5 284.5,339.5 284.5,337.6 284.5,335.7 284.6,333.7 284.7,331.9 284.8,329.9 284.9,328.1 
		285.1,326.2 285.3,324.3 285.5,322.5 285.8,320.6 286.1,318.7 287.1,318.8 287.6,319.7 288,320.5 288.3,321.3 288.7,322 289,322.6 
		289.3,323.2 289.6,323.7 289.9,324.2 290.2,324.7 290.4,325 290.6,325.3 290.8,325.6 291,325.8 291.2,326 291.3,326 291.5,326.1 
		292.3,326.1 293.2,326.2 294,326.4 294.8,326.6 295.6,326.9 296.3,327.3 297.1,327.6 297.8,327.9 298.4,328.2 299.1,328.5 
		299.6,328.8 300.2,329 300.7,329.2 301.1,329.3 301.5,329.3 301.8,329.2 301.8,329 301.8,328.9 301.8,328.6 301.8,328.4 
		301.8,328.3 301.8,328.2 301.7,328 301.6,327.9 301.6,327.7 301.5,327.6 301.4,327.5 301.3,327.4 301.1,327.3 300.9,327.2 
		300.8,327.1 300.6,327 300.6,327 300.6,326.9 300.6,326.9 300.6,326.8 300.6,326.7 300.6,326.7 300.6,326.6 300.6,326.6 
		300.6,326.5 300.7,326.4 300.7,326.4 300.7,326.3 300.7,326.3 300.8,326.3 300.9,326.4 301.1,326.5 301.2,326.6 301.3,326.6 
		301.4,326.7 301.5,326.8 301.6,326.9 301.7,327 301.8,327.1 301.9,327.2 302,327.4 302.2,327.4 302.2,327.6 302.3,327.7 
		302.4,327.8 302.5,327.9 302.7,327.9 302.8,327.9 303,327.9 303.1,327.9 303.2,327.8 303.3,327.8 303.4,327.7 303.5,327.7 
		303.6,327.6 303.7,327.5 303.8,327.4 303.8,327.3 303.9,327.1 303.9,327 304.1,326.8 304.2,327 304.3,327.1 304.5,327.3 
		304.6,327.4 304.7,327.5 304.8,327.6 304.9,327.8 305,327.9 305.1,328.1 305.1,328.2 305.2,328.2 305.3,328.3 305.4,328.4 
		305.6,328.4 305.7,328.4 305.8,328.4 305.9,328.4 306.2,328.4 306.4,328.3 306.5,328.3 306.7,328.2 306.9,328.2 307.1,328.2 
		307.3,328.2 307.5,328.1 307.7,328.1 307.9,328.1 308.1,328.1 308.3,328 308.6,328 308.8,328 309,327.9 309.8,329 310.6,329.9 
		311.5,330.8 312.3,331.5 313.1,332.2 313.9,332.7 314.7,333.3 315.4,333.6 316.1,334 316.7,334.2 317.3,334.4 317.8,334.5 
		318.3,334.6 318.6,334.5 318.9,334.3 319.1,334.2 319.1,334 319.1,333.8 319.1,333.6 319.1,333.5 319,333.3 318.9,333.2 318.8,333 
		318.6,332.8 318.5,332.7 318.3,332.5 318.2,332.4 318,332.2 317.8,332 317.6,331.9 317.5,331.7 317.4,331.4 319.7,331.6 
		320.1,331.5 320.4,331.4 320.8,331.3 321.2,331.2 321.6,331.1 322,330.8 322.4,330.7 322.8,330.5 323.2,330.4 323.6,330.3 
		323.9,330.1 324.2,330 324.6,330 324.9,330 325.2,330.1 325.5,330.3 325.5,330.5 325.5,330.7 325.5,330.9 325.5,331.1 325.6,331.4 
		325.6,331.5 325.7,331.8 325.8,332 325.9,332.2 326,332.4 326.2,332.6 326.3,332.8 326.5,333 326.7,333.3 326.9,333.5 327.1,333.6 
		327.3,333.9 327.7,334.1 327.9,334.2 328.3,334.4 328.7,334.6 329.1,334.6 329.4,334.7 329.8,334.7 330,334.7 330.2,334.6 
		330.4,334.3 330.5,334.1 330.5,333.7 330.4,333.3 330.2,332.7 329.9,332 329.8,331.8 329.7,331.7 329.7,331.4 329.8,331.3 
		329.8,331.1 330,331 330.1,330.8 330.3,330.7 330.4,330.5 330.6,330.3 330.8,330.1 330.9,329.9 331,329.6 331.1,329.2 331.1,328.9 
		331.1,328.4 331.4,328.2 331.7,328 331.9,327.7 332.1,327.5 332.2,327.2 332.3,326.9 332.3,326.6 332.3,326.3 332.2,326 
		332.2,325.6 332,325.3 331.8,324.9 331.6,324.6 331.3,324.2 331,323.9 330.6,323.4 330.3,323.2 330.1,323 329.8,322.7 329.6,322.4 
		329.3,322.2 329.1,321.9 328.8,321.6 328.6,321.3 328.4,321 328.1,320.7 327.9,320.4 327.7,320.1 327.5,319.8 327.3,319.5 
		327.1,319.2 326.9,318.8 326.4,318 326,317.2 325.6,316.4 325.2,315.6 324.9,315 324.5,314.3 324.2,313.7 324,313.2 323.7,312.8 
		323.5,312.3 323.3,312 323.2,311.7 323,311.4 322.9,311.3 322.8,311.1 322.8,311 323,311 323.1,311.1 323.3,311.2 323.4,311.2 
		323.5,311.3 323.6,311.3 323.8,311.4 323.9,311.4 324.1,311.5 324.2,311.5 324.3,311.6 324.4,311.6 324.6,311.7 324.7,311.8 
		324.9,311.8 325,311.9 326.2,312.4 327.2,312.9 328.1,313.3 328.9,313.6 329.6,313.7 330.1,313.8 330.6,313.7 330.8,313.6 
		330.9,313.3 330.9,312.9 330.7,312.3 330.3,311.6 329.9,310.8 329.3,309.8 328.5,308.6 327.4,307.3 327.1,306.8 326.7,306.1 
		326.2,305.4 325.7,304.7 325.2,304 324.7,303.3 324.1,302.6 323.6,302 323.1,301.3 322.7,300.8 322.3,300.3 322,299.8 321.9,299.5 
		321.8,299.1 321.9,298.9 322.1,298.9 322.2,298.9 322.5,298.9 322.7,298.9 322.9,299 323.2,299 323.5,298.9 323.7,298.9 324,298.9 
		324.2,298.9 324.4,298.8 324.7,298.7 324.8,298.5 324.9,298.4 324.9,298.3 324.9,298.1 324.8,297.8 324.3,297.6 323.7,297.3 
		323.2,296.9 322.7,296.5 322.1,296.1 321.5,295.6 321,295.1 320.5,294.5 319.9,293.8 319.3,293.2 318.8,292.5 318.3,291.7 
		317.7,290.9 317.2,290.1 316.7,289.3 316.1,288.4 315.9,288 315.7,287.7 315.5,287.3 315.3,287 315,286.6 314.8,286.3 314.6,285.9 
		314.4,285.6 314.2,285.2 314,284.9 313.7,284.6 313.4,284.3 313.2,283.9 313,283.6 312.7,283.3 312.5,282.9 312.3,282.6 312,282.3 
		311.8,282 311.6,281.7 311.5,281.4 311.3,281.2 311.2,280.9 311.1,280.7 311,280.5 311,280.2 311,280.1 311,279.9 311,279.8 
		311,279.6 311.1,279.5 311.2,279.3 311.3,279.3 311.4,279.2 311.6,279.2 311.7,279.2 311.8,279.2 311.9,279.2 312,279.3 
		312.1,279.3 312.3,279.4 312.4,279.6 312.5,279.7 312.6,279.8 312.7,279.9 312.9,279.9 312.9,280 313.1,280.1 313.4,280.3 
		313.8,280.5 314.2,280.7 314.7,280.8 315.1,281 315.6,281.1 316.1,281.2 316.4,281.2 316.9,281.2 317.2,281.1 317.5,280.9 
		317.7,280.6 317.7,280.2 317.7,279.8 317.6,279.1 317.4,278.4 317.4,278.4 317.5,278.5 317.6,278.5 317.7,278.5 317.7,278.5 
		317.9,278.6 318,278.6 318.2,278.7 318.3,278.8 318.5,278.9 318.7,279 318.9,279.1 319.1,279.1 319.3,279.2 319.6,279.3 
		319.8,279.4 320.1,279.6 320.4,279.7 320.7,279.8 321,279.9 321.3,279.9 321.6,279.9 321.9,279.9 322.1,279.9 322.4,279.9 
		322.7,279.9 322.9,279.8 323.2,279.7 323.4,279.6 323.6,279.5 323.9,279.3 324.1,279.2 324.2,278.9 324.1,278.6 324,278.4 
		323.7,278.1 323.4,277.8 323,277.6 322.6,277.4 322,277.1 321.5,276.9 321,276.7 320.5,276.4 320,276.1 319.6,275.9 319.1,275.6 
		318.8,275.4 318.5,275.1 317.5,273.9 316.4,272.6 315.4,271.6 314.5,270.5 313.7,269.4 312.9,268.4 312.1,267.5 311.3,266.5 
		310.5,265.5 309.8,264.5 309.1,263.5 308.3,262.4 307.5,261.3 306.7,260 305.9,258.7 305,257.3 305,257.3 304.9,257.2 304.9,257.1 
		304.9,257 305,256.9 305,256.8 305,256.8 305.1,256.7 305.1,256.6 305.1,256.6 305.2,256.5 305.3,256.5 305.4,256.5 305.4,256.5 
		305.6,256.6 305.7,256.6 306,257 306.4,257.3 306.7,257.7 307.2,258.1 307.5,258.5 307.9,258.8 308.2,259.2 308.6,259.5 
		308.9,259.8 309.3,260 309.6,260.2 309.9,260.3 310.2,260.3 310.5,260.3 310.8,260.1 311,259.9 311,259.9 311,259.8 311,259.7 
		311,259.6 310.9,259.5 310.9,259.3 310.9,259.2 310.9,259.1 310.8,258.9 310.8,258.8 310.8,258.7 310.8,258.6 310.9,258.5 
		310.9,258.4 311,258.3 311.3,258.5 311.7,258.7 312,258.8 312.4,258.9 312.6,259.1 312.9,259.2 313.2,259.2 313.4,259.3 
		313.7,259.3 313.9,259.3 314,259.3 314.2,259.3 314.4,259.2 314.5,259.2 314.6,259.1 314.8,258.9 314.7,258.8 314.7,258.7 
		314.7,258.5 314.6,258.3 314.5,258.1 314.5,257.9 314.4,257.8 314.2,257.6 314.1,257.3 313.9,257.1 313.7,256.9 313.5,256.6 
		313.3,256.4 313.1,256.1 312.9,255.8 312.6,255.5 312.3,255.2 312,254.9 311.7,254.7 311.4,254.4 311.1,254.1 310.9,253.7 
		310.6,253.4 310.3,253.1 310.1,252.8 309.8,252.5 309.6,252.2 309.4,251.8 309.1,251.5 308.9,251.2 308.6,250.8 308.4,250.4 
		308,249.8 307.6,249.2 307.3,248.6 306.8,248 306.5,247.4 306.1,246.9 305.8,246.3 305.4,245.8 305.1,245.3 304.7,244.8 
		304.4,244.3 304.1,243.9 303.8,243.4 303.5,243 303.2,242.6 302.9,242.1 303,242.2 303.2,242.2 303.3,242.2 303.5,242.2 
		303.5,242.1 303.7,242.1 303.8,242 303.8,242 303.9,241.9 304,241.9 304.1,241.8 304.1,241.7 304.1,241.6 304.2,241.5 304.2,241.5 
		304.2,241.3 304,241 303.8,240.7 303.6,240.4 303.4,240.2 303.2,240 303,239.7 302.7,239.6 302.5,239.4 302.3,239.2 302.1,239.1 
		301.9,238.9 301.6,238.8 301.4,238.6 301.2,238.5 300.9,238.3 300.7,238.1 300.5,238 300.3,237.8 300.1,237.7 299.9,237.5 
		299.8,237.4 299.6,237.2 299.5,237.1 299.4,236.9 299.3,236.8 299.2,236.7 299.1,236.5 299.1,236.4 299,236.2 299,236.1 299,236 
		299,235.9 299.4,236.1 299.8,236.4 300.3,236.6 300.8,236.8 301.3,237.1 301.8,237.2 302.3,237.4 302.8,237.5 303.2,237.6 
		303.7,237.6 304.1,237.5 304.4,237.5 304.6,237.3 304.7,237 304.9,236.7 304.8,236.2 302.5,233.6 297.8,228.6 297.3,228.4 
		297,227.9 296.7,227.4 296.3,227 296,226.4 295.7,225.9 295.5,225.4 295.2,224.8 295.1,224.3 294.9,223.9 294.8,223.4 294.8,223 
		294.7,222.8 294.8,222.6 294.9,222.5 295.1,222.5 295.3,222.5 295.5,222.6 295.8,222.7 296.1,222.7 296.3,222.8 296.5,222.9 
		296.8,223 297.1,223 297.3,223.2 297.6,223.3 297.9,223.3 298.1,223.4 298.4,223.5 298.7,223.6 299,223.8 299.2,223.9 299.9,224.2 
		300.5,224.4 301,224.6 301.4,224.6 301.6,224.6 301.9,224.4 302,224.3 302,224.1 302,223.8 301.8,223.5 301.7,223.2 301.5,222.8 
		301.2,222.4 300.8,222 300.5,221.7 300.1,221.2 299.7,220.8 299.3,220.4 299,219.9 298.6,219.5 298.3,219 298,218.5 297.7,218 
		297.4,217.4 297.2,216.9 297,216.4 296.8,215.9 296.5,215.3 296.3,214.8 296,214.2 295.7,213.8 295.5,213.2 294.2,211.1 293.1,209 
		292.1,207.2 291.2,205.4 290.3,203.8 289.6,202.3 288.9,201 288.4,199.9 287.9,198.8 287.5,197.9 287.3,197.1 287.1,196.5 287,196 
		287,195.6 287.1,195.4 287.4,195.4 287.7,195.4 288,195.4 288.3,195.5 288.6,195.6 288.9,195.7 289.2,195.9 289.5,196.1 
		289.8,196.2 290.1,196.3 290.4,196.4 290.7,196.5 291.1,196.5 291.4,196.6 291.8,196.6 292.2,196.5 292.7,196.4 292.8,196.2 
		292.8,196.1 292.9,195.9 292.8,195.7 292.8,195.6 292.6,195.4 292.5,195.1 292.3,194.9 292.1,194.8 291.9,194.6 291.7,194.3 
		291.4,194.1 291.2,193.9 291,193.8 290.8,193.5 290.7,193.3 290.3,192.8 289.8,192.3 289.4,191.7 289,191.1 288.5,190.4 
		288.1,189.7 287.7,188.9 287.2,188.1 286.8,187.3 286.3,186.3 285.9,185.4 285.5,184.4 285,183.3 284.6,182.2 284.1,181.1 
		283.7,179.9 283.4,179.2 283.1,178.5 282.8,177.7 282.5,177 282.1,176.3 281.8,175.6 281.4,175 281,174.3 280.7,173.6 280.2,173 
		279.8,172.5 279.4,171.8 279,171.2 278.6,170.7 278,170.1 277.6,169.6 277.5,169.6 277.5,169.6 277.4,169.6 277.4,169.6 
		277.3,169.6 277.2,169.6 277.2,169.6 277.1,169.6 277.1,169.6 277,169.6 277,169.6 276.9,169.6 276.8,169.6 276.4,170.6 276,171.6 
		275.6,172.6 275.2,173.6 274.8,174.5 274.5,175.5 274.1,176.5 273.7,177.4 273.3,178.3 272.9,179.2 272.6,180.1 272.1,180.9 
		271.7,181.7 271.3,182.5 270.9,183.3 270.5,184 270.5,184.1 270.4,184.2 270.2,184.4 270.1,184.6 270,184.9 269.8,185.3 
		269.5,185.7 269.3,186.2 269,186.8 268.6,187.4 268.3,188.1 267.9,188.8 267.5,189.6 267,190.5 266.5,191.5 266,192.5 265.7,192.9 
		265.4,193.5 265.1,194 264.8,194.4 264.5,194.9 264.2,195.4 263.9,195.9 263.5,196.4 263.2,196.9 262.8,197.3 262.5,197.8 
		262.1,198.3 261.7,198.8 261.3,199.3 261,199.8 260.6,200.2 260,200.9 259.5,201.5 259,202.1 258.6,202.7 258.2,203.2 257.9,203.7 
		257.6,204.2 257.4,204.5 257.1,204.9 256.9,205.3 256.8,205.6 256.7,205.8 256.7,206 256.7,206.2 256.8,206.4 256.8,206.4 
		256.8,206.5 256.9,206.5 257,206.5 257.2,206.5 257.3,206.4 257.5,206.4 257.6,206.4 257.8,206.3 258,206.3 258.2,206.1 
		258.3,206.1 258.4,206 258.6,205.9 258.7,205.8 258.8,205.6 258.9,205.5 258.5,209.7 258.3,211.7 258.4,211.8 258.7,211.9 
		258.9,212 259,212 259.2,212 259.5,212 259.8,211.9 260,211.8 260.3,211.7 260.6,211.5 261,211.3 261.3,211.1 261.7,210.8 
		262,210.5 262.4,210.2 262.8,209.8 262.9,209.7 263.1,209.6 263.2,209.5 263.3,209.4 263.4,209.3 263.5,209.1 263.6,209 
		263.7,208.8 263.8,208.8 264,208.6 264.1,208.5 264.2,208.5 264.3,208.4 264.5,208.3 264.7,208.3 264.9,208.2 265,208.3 
		265.1,208.4 265.1,208.5 265.1,208.7 265.1,208.9 265,209.2 264.9,209.5 264.8,209.8 264.6,210.3 264.3,210.8 264.1,211.3 
		263.8,211.8 263.4,212.5 263.1,213.1 262.6,213.9 262.2,214.6 262.1,214.7 262,214.8 261.9,215 261.8,215.3 261.6,215.6 261.4,216 
		261.1,216.4 260.9,216.9 260.6,217.5 260.2,218.2 259.8,218.8 259.5,219.6 259,220.4 258.5,221.2 258.1,222.2 257.6,223.2 
		257.3,223.7 257,224.1 256.8,224.6 256.5,225.1 256.3,225.5 256,225.9 255.8,226.3 255.6,226.6 255.4,227 255.2,227.3 255.1,227.6 
		254.9,227.8 254.7,228.1 254.5,228.4 254.4,228.6 254.3,228.7 252.4,231.3 252.3,231.5 252.2,231.6 252.1,231.7 252,231.8 
		251.9,232 251.9,232.2 251.8,232.4 251.7,232.5 251.7,232.7 251.6,232.9 251.5,233.1 251.5,233.4 251.4,233.6 251.3,233.8 
		251.2,234 251.2,234.3 251.2,234.5 251.2,234.5 251.3,234.5 251.5,234.5 251.6,234.5 251.8,234.5 252,234.5 252.3,234.4 
		252.4,234.4 252.6,234.4 252.8,234.5 252.9,234.5 253,234.7 253,235 252.9,235.3 252.8,235.7 252.8,235.7 252.8,235.8 252.9,235.8 
		252.9,235.9 253,235.9 253,235.9 253.1,236 253.1,236 253.1,236.1 253.2,236.1 253.3,236.1 253.4,236.2 253.6,236.2 253.7,236.1 
		253.9,236.1 254.1,236 254.3,235.9 254.5,235.8 254.6,235.8 254.8,235.7 255,235.7 255,235.6 255.1,235.7 255.2,235.8 255.2,235.9 
		255.2,236.1 254.9,236.2 254.7,236.4 254.5,236.5 254.3,236.7 254.1,236.7 253.9,236.9 253.8,237 253.6,237.1 253.5,237.2 
		253.3,237.3 253.3,237.5 253.2,237.5 253.1,237.7 253.1,237.8 253,237.9 253,238 252.8,238.3 252.7,238.7 252.5,239.1 252.4,239.5 
		252.3,239.8 252.2,240.2 252,240.6 251.8,240.9 251.7,241.2 251.5,241.6 251.2,241.9 251.1,242.2 250.9,242.4 250.7,242.6 
		250.4,242.8 250.2,243 250.2,243.1 250.2,243.1 250.2,243.2 250.2,243.2 250.3,243.3 250.3,243.3 250.3,243.4 250.4,243.4 
		250.4,243.4 250.4,243.5 250.5,243.6 250.6,243.7 250.7,243.7 250.7,243.7 250.7,243.8 250.7,243.8 250.7,243.9 250.8,243.9 
		250.8,243.9 250.8,244 250.8,244 250.9,244.1 250.9,244.1 250.9,244.2 250.9,244.2 250.9,244.3 250.9,244.4 250.5,244.7 250.2,245 
		249.9,245.4 249.6,245.7 249.3,246 249,246.2 248.8,246.5 248.6,246.7 248.5,246.9 248.2,247 248.1,247.2 248,247.3 247.9,247.4 
		247.9,247.5 247.8,247.6 247.6,248.4 247.5,249.1 247.6,249.8 247.8,250.3 248.1,250.7 248.5,251 249,251.2 249.6,251.4 
		250.2,251.4 250.8,251.3 251.5,251.1 252.3,250.8 252.9,250.4 253.6,249.9 254.3,249.3 255,248.7 256.6,247.2 257.1,247.2 
		257.1,247.3 257.1,247.4 257,247.5 257,247.6 256.9,247.7 256.8,247.9 256.8,248.1 256.7,248.2 256.6,248.4 256.4,248.6 
		256.3,248.9 256.1,249.1 255.9,249.3 255.8,249.6 255.5,249.9 255.3,250.2 254.4,251.5 253.5,252.7 252.6,253.8 251.8,254.9 
		251.1,256 250.4,256.9 249.7,257.8 249,258.6 248.5,259.4 248,260.1 247.4,260.7 247,261.3 246.6,261.8 246.2,262.2 245.9,262.6 
		245.6,262.9 245.1,263.5 244.5,264 244,264.6 243.5,265.1 242.9,265.7 242.3,266.1 241.8,266.7 241.2,267.2 240.6,267.7 
		239.9,268.2 239.4,268.8 238.7,269.2 238,269.8 237.4,270.3 236.8,270.8 236.1,271.3 235.9,271.4 235.8,271.6 235.7,271.7 
		235.7,271.8 235.7,271.9 235.7,272.1 235.8,272.2 235.9,272.4 236,272.4 236.2,272.5 236.3,272.6 236.4,272.7 236.6,272.8 
		236.8,272.8 236.9,272.8 237.1,272.8 237.5,272.8 237.9,272.8 238.3,272.8 238.7,272.8 239.1,272.8 239.6,272.8 240,272.7 
		240.4,272.7 240.8,272.6 241.2,272.5 241.6,272.4 242.1,272.3 242.6,272.1 243,271.9 243.5,271.7 244,271.4 244,271.6 244,271.8 
		244,272 244,272.1 244,272.3 243.9,272.4 243.8,272.6 243.7,272.7 243.7,272.8 243.6,273 243.4,273.1 243.3,273.2 243.1,273.3 
		243,273.4 242.8,273.5 242.6,273.6 242.6,273.7 242.6,273.8 242.6,273.9 242.5,274 242.5,274.1 242.5,274.2 242.5,274.3 
		242.6,274.4 242.6,274.5 242.6,274.6 242.7,274.7 242.8,274.8 242.9,274.8 243.1,274.8 243.3,274.8 243.2,274.9 243.2,274.9 
		243.1,275 243.1,275.1 243.1,275.3 243,275.4 242.9,275.5 242.9,275.6 242.7,275.8 242.6,276 242.4,276.2 242.3,276.4 242.2,276.7 
		242,276.9 241.8,277.1 241.6,277.4 241.5,277.6 241.3,277.8 241.1,278.1 241,278.3 240.8,278.5 240.7,278.8 240.5,279.1 
		240.4,279.3 240.2,279.6 240.1,279.8 239.9,280.1 239.8,280.4 239.7,280.6 239.5,280.9 239.4,281.2 239.3,281.5 239.4,281.6 
		239.6,281.7 239.7,281.8 239.7,282 239.7,282.1 239.8,282.2 239.7,282.4 239.7,282.6 239.7,282.7 239.6,282.8 239.6,283 
		239.4,283.1 239.4,283.3 239.3,283.4 239.2,283.6 239.1,283.7 239.1,283.8 239,284 238.9,284.2 238.9,284.3 238.9,284.4 
		238.9,284.6 238.9,284.7 238.9,284.9 239,285 239,285.1 239.1,285.2 239.2,285.2 239.4,285.3 239.5,285.3 239.7,285.3 239.9,285.2 
		242.6,283.7 243.3,283.3 244,282.8 244.7,282.4 245.3,282 245.9,281.7 246.5,281.4 247.1,281 247.5,280.7 248,280.5 248.5,280.2 
		248.8,280 249.3,279.8 249.6,279.6 249.9,279.4 250.1,279.3 250.3,279.2 250.3,279.2 250.3,279.3 250.3,279.3 250.3,279.4 
		250.3,279.4 250.3,279.5 250.3,279.6 250.4,279.6 250.4,279.6 250.1,279.9 249.7,280.3 249.4,280.7 249,281.1 248.7,281.5 
		248.4,281.9 248,282.3 247.7,282.8 247.2,283.3 246.9,283.8 246.5,284.3 246.1,284.8 245.7,285.3 245.3,285.9 244.9,286.5 
		244.5,287.1 244.4,287.2 244.3,287.4 244.2,287.5 244,287.7 243.8,287.9 243.6,288.2 243.4,288.5 243.1,288.7 242.9,289 
		242.6,289.4 242.3,289.8 242,290.2 241.6,290.6 241.3,291 240.9,291.4 240.5,291.9 240.4,292.1 240.2,292.2 240.1,292.5 
		239.9,292.7 239.7,292.9 239.6,293.2 239.3,293.5 239.1,293.8 238.9,294.1 238.6,294.5 238.4,294.9 238.1,295.3 237.8,295.7 
		237.5,296.1 237.2,296.6 236.9,297 236.5,297.6 236.1,298.2 235.7,298.7 235.3,299.2 234.9,299.7 234.5,300.3 234.1,300.7 
		233.7,301.2 233.3,301.6 232.9,302 232.5,302.4 232.1,302.7 231.7,303.1 231.3,303.4 230.9,303.7 230.5,304 230.5,304.4 
		230.5,304.8 230.5,305.1 230.7,305.4 230.8,305.8 231.1,306.1 231.3,306.4 231.6,306.6 231.9,306.8 232.2,307 232.6,307 233,307.1 
		233.3,307 233.8,307 234.2,306.7 234.7,306.4 236.2,305.1 236.3,305 236.4,305 236.4,304.9 236.5,304.8 236.6,304.8 236.7,304.7 
		236.8,304.6 236.9,304.6 237,304.5 237.1,304.4 237.2,304.3 237.4,304.2 237.5,304.1 237.6,304 237.7,304 237.9,303.8 238,303.7 
		238,303.7 238.2,303.7 238.2,303.7 238.2,303.7 238.2,303.8 238.2,303.9 238.2,304 238.1,304 238,304.1 238,304.2 238,304.3 
		237.9,304.3 237.9,304.4 237.8,304.5 237.8,304.6 237.8,304.6 237.8,304.7 237.8,304.8 237.8,304.8 237.8,304.8 237.8,304.9 
		237.9,305 237.9,305.1 238,305.1 238,305.2 238.1,305.3 238.2,305.4 238.3,305.4 238.5,305.4 238.7,305.4 238.9,305.4 239.1,305.4 
		239.2,305.4 239.4,305.4 239.6,305.3 239.8,305.3 239.9,305.2 240.1,305.1 240.2,305.1 240.4,305 240.5,304.9 240.6,304.8 
		240.7,304.7 240.9,304.6 241.8,303.6 241.9,303.6 242,303.5 242.1,303.5 242.1,303.4 242.2,303.4 242.3,303.4 242.4,303.4 
		242.5,303.3 242.6,303.4 242.7,303.4 242.7,303.4 242.8,303.5 242.8,303.6 242.9,303.7 242.9,303.8 242.9,304 242.4,304.6 
		242.1,305.3 241.6,306 241.1,306.7 240.5,307.5 239.9,308.3 239.3,309.1 238.6,309.9 237.8,310.7 237,311.5 236.2,312.4 
		235.4,313.3 234.5,314.2 233.5,315.1 232.5,316 231.6,316.9 231.4,317.1 231.4,317.2 231.3,317.3 231.3,317.4 231.3,317.5 
		231.3,317.6 231.3,317.7 231.3,317.8 231.3,317.9 231.3,318 231.4,318 231.4,318 231.5,318.1 231.6,318.1 231.6,318.1 231.7,318.1 
		233,318.1 232.8,318.7 230.3,320.5 229.7,320.9 229.2,321.4 228.8,321.7 228.3,322.2 228,322.5 227.6,323 227.3,323.3 227.1,323.8 
		226.8,324.1 226.6,324.5 226.5,324.9 226.4,325.3 226.3,325.8 226.2,326.1 226.2,326.5 226.4,326.8 226.4,327 226.4,327.2 
		226.5,327.4 226.5,327.5 226.5,327.6 226.6,327.8 226.7,327.9 226.7,328 226.8,328.2 226.9,328.2 227,328.3 227.1,328.4 
		227.2,328.5 227.3,328.5 227.4,328.6 227.5,328.6 227.6,328.7 227.6,328.8 227.6,328.9 227.6,329 227.6,329.1 227.5,329.2 
		227.4,329.3 227.3,329.5 227.1,329.5 227,329.7 226.8,329.8 226.7,329.8 226.5,330 226.4,330 226.2,330.2 226.1,330.2 226,330.3 
		225.9,330.5 225.7,330.6 225.6,330.8 225.5,331 225.4,331.2 225.4,331.4 225.3,331.7 225.2,331.9 225.2,332.1 225.2,332.5 
		225.1,332.7 225.1,333 225.1,333.3 225.1,333.7 225.2,334 225.7,334.3 226.2,334.6 226.8,334.7 227.3,334.9 227.6,335 228.1,335.1 
		228.4,335.1 228.7,335.1 229,335.1 229.4,335 229.6,334.9 229.9,334.9 230.2,334.8 230.5,334.6 230.8,334.5 231.1,334.3 
		231.2,334.3 231.4,334.3 231.6,334.3 231.8,334.3 232,334.3 232.2,334.2 232.4,334.2 232.7,334.2 232.9,334.1 233.1,334.1 
		233.3,334.1 233.5,334 233.8,333.9 233.9,333.8 234.1,333.7 234.3,333.6 234.5,333.5 234.6,333.4 234.8,333.3 234.9,333.2 
		235.1,333 235.3,333 235.4,332.9 235.6,332.8 235.8,332.7 235.9,332.7 236.1,332.7 236.3,332.8 236.4,332.9 236.6,333 236.7,333.2 
		236.9,333.4 237,333.6 237.2,333.9 237.5,334 237.7,334.1 237.9,334.1 238.2,334.1 238.4,334.1 238.6,334 238.9,333.9 239.2,333.8 
		239.5,333.7 239.8,333.6 240,333.5 240.3,333.5 240.6,333.4 240.8,333.4 240.9,333.4 241,333.4 241,333.3 241.1,333.3 241.1,333.3 
		241.2,333.2 241.3,333.1 241.3,333 241.4,333 241.5,332.9 241.5,332.7 241.6,332.7 241.8,332.5 241.8,332.4 242,332.2 242.1,332.2 
		242.2,332.2 242.3,332.4 242.4,332.5 242.5,332.6 242.6,332.7 242.6,332.8 242.7,333 242.9,333 243.1,333.1 243.3,333 243.6,333 
		244.1,332.8 244.5,332.6 245.1,332.2 245.9,331.7 246.1,331.4 246.3,331.2 246.5,331 246.7,330.8 246.8,330.7 247,330.6 
		247.2,330.5 247.3,330.5 247.4,330.6 247.6,330.6 247.7,330.8 247.8,331 247.9,331.2 248,331.5 248.1,331.9 248.2,332.4 
		248.5,332.5 248.9,332.5 249.3,332.5 249.6,332.5 250,332.5 250.3,332.4 250.7,332.2 251,332.1 251.4,331.9 251.7,331.7 
		252.2,331.4 252.5,331.2 252.9,330.8 253.2,330.6 253.6,330.2 254,329.8 254.3,329.5 254.5,329.2 254.7,328.9 255,328.6 
		255.2,328.3 255.5,327.9 255.8,327.7 256,327.4 256.3,327.1 256.6,326.9 256.9,326.7 257.3,326.4 257.7,326.3 258.2,326.1 
		258.6,326 259.1,325.9 259.2,325.9 259.2,326 259.3,326 259.3,326.1 259.2,326.2 259.2,326.3 259.2,326.5 259.1,326.7 259,326.8 
		258.9,327 258.8,327.1 258.7,327.4 258.7,327.5 258.7,327.7 258.6,327.8 258.6,327.9 258.7,328.2 258.9,328.4 259.2,328.3 
		259.8,328.2 260.3,327.9 261,327.6 261.8,327.1 262.6,326.6 263.4,326 264.2,325.4 265,324.8 265.8,324.1 266.5,323.4 267.2,322.7 
		267.8,322 268.3,321.3 269.3,321.3 269.3,321.4 269.4,321.4 269.5,321.5 269.5,321.5 269.7,321.6 269.7,321.7 269.7,321.8 
		269.8,322 269.8,322.2 269.8,322.4 269.9,322.6 269.9,322.8 269.9,323.1 269.9,323.3 269.9,323.6 269.9,323.9 269.8,324.9 
		269.7,325.9 269.7,326.8 269.6,327.6 269.5,328.4 269.4,329.1 269.4,329.8 269.4,330.4 269.4,330.9 269.3,331.4 269.3,331.8 
		269.3,332.2 269.3,332.5 269.3,332.7 269.3,332.9 269.3,333 269.3,361.4 269.2,361.9 269.2,362.4 269,362.8 268.7,363.3 
		268.4,363.8 268.1,364.3 267.6,364.7 267.1,365.2 266.5,365.7 266,366.1 265.2,366.5 264.4,367 263.6,367.4 262.7,367.9 
		261.7,368.4 260.7,368.8 256,370.7 252,372.4 248.5,373.8 245.6,375 243.1,375.9 241.2,376.7 239.5,377.4 238.2,378 237.1,378.3 
		236.3,378.7 235.7,379 235.2,379.3 234.7,379.6 234.3,379.8 233.8,380.2 233.3,380.5 233.2,380.6 233,380.7 233,380.9 233,381 
		233,381.2 233,381.3 233,381.4 233,381.6 233.1,381.7 233.2,381.8 233.3,381.9 233.5,382 233.6,382.1 233.8,382.1 234,382.1 
		234.1,382.1 234.8,381.9 235.6,381.8 236.3,381.7 236.9,381.6 237.6,381.6 238.2,381.5 238.8,381.4 239.3,381.4 239.9,381.4 
		240.4,381.4 240.8,381.4 241.3,381.4 241.8,381.4 242.1,381.5 242.5,381.6 242.9,381.6 243.3,381.7 243.7,381.8 244.3,381.8 
		245,381.9 245.6,381.9 246.4,381.9 247.1,381.9 248,381.9 248.8,381.8 249.9,381.8 250.8,381.7 251.9,381.6 253,381.4 254.2,381.3 
		255.5,381.1 256.8,381 257.7,380.9 258.7,380.7 259.8,380.7 260.8,380.7 261.9,380.6 262.9,380.7 264,380.7 265.1,380.8 
		266.3,380.9 267.5,381 268.6,381.2 269.8,381.4 271,381.6 272.2,381.8 273.5,382.1 274.8,382.4 275.6,382.6 276.4,382.8 277.3,383 
		278.2,383 279.2,383 280.1,382.9 281.1,382.8 282.1,382.6 283.1,382.5 284.2,382.3 285.3,382.1 286.3,381.9 287.4,381.7 
		288.5,381.6 289.6,381.3 290.8,381.2 291.7,381.1 292.6,381 293.4,380.9 294.2,380.7 295,380.7 295.7,380.6 296.4,380.5 
		297.1,380.5 297.6,380.5 298.2,380.5 298.7,380.5 299.2,380.5 299.6,380.5 300,380.5 300.4,380.6 300.8,380.7 	"/>
	<polygon class="st2" points="168.9,347.9 172.9,349.4 177.2,350.4 182,351 187.2,351.1 192.9,350.5 195,350.2 197.1,349.6 
		199.1,349.1 201,348.3 202.8,347.5 204.6,346.6 206.2,345.6 207.8,344.4 209.3,343.2 210.7,341.8 212,340.3 213.3,338.7 214.4,337 
		215.5,335.2 216.5,333.3 217.4,331.3 217.8,330.5 218,329.7 218.3,329 218.6,328.2 218.8,327.4 219,326.7 219.3,326 219.4,325.2 
		219.5,324.5 219.7,323.8 219.8,323.1 219.9,322.4 220,321.7 220.1,321.1 220.1,320.4 220.1,319.7 220.1,228.5 220.1,228.4 
		220.2,228.1 220.3,227.9 220.4,227.8 220.6,227.6 220.9,227.4 221.1,227.3 221.3,227.1 221.6,227 221.8,226.9 222,226.8 
		222.2,226.8 222.4,226.6 222.5,226.6 222.6,226.6 222.7,226.5 228.4,226.5 228.3,217.6 228.3,217.5 228.3,217.5 228.3,217.4 
		228.3,217.4 228.2,217.4 228.2,217.3 228.2,217.3 228.2,217.2 228.1,217.1 228.1,217.1 228.1,217.1 228,217 228,217 200.6,217.8 
		200.5,217.9 200.5,217.9 200.5,218 200.5,218.1 200.5,218.2 200.5,218.3 200.4,218.3 200.4,218.4 200.4,218.5 200.4,218.6 
		200.4,218.7 200.4,218.8 200.4,218.8 200.4,218.9 200.4,219 200.4,227 206,227 206.3,227 206.7,227 206.9,227.2 207.2,227.3 
		207.5,227.5 207.7,227.7 207.8,227.9 208,228.3 208.2,228.6 208.3,229 208.5,229.4 208.5,229.9 208.6,230.3 208.7,230.9 
		208.7,231.5 208.8,232.1 208.8,295.8 208.7,298.4 208.7,300.9 208.7,303.2 208.7,305.3 208.6,307.3 208.6,309.2 208.5,311 
		208.5,312.6 208.5,314.1 208.4,315.5 208.3,316.7 208.3,317.8 208.2,318.7 208.1,319.6 208,320.2 207.9,320.8 206.6,325.3 
		204.7,329 202.4,332 199.7,334.3 196.7,335.9 193.5,337 190.2,337.3 186.9,337 183.6,336.2 180.5,334.8 177.7,332.8 175.2,330.4 
		173,327.5 171.4,324.1 170.4,320.3 170,316.1 170.1,229.2 170.1,229.1 170.1,229 170.1,228.9 170.2,228.9 170.2,228.8 170.2,228.7 
		170.3,228.6 170.3,228.6 170.4,228.5 170.4,228.4 170.5,228.4 170.6,228.3 170.7,228.2 170.8,228.1 170.9,228 171,227.9 173.9,227 
		173.9,218.4 173.2,217.8 146,218.4 146,227.1 146,227.2 146,227.3 146,227.3 146,227.4 146,227.5 146,227.6 146.1,227.6 
		146.1,227.6 146.1,227.7 146.2,227.7 146.2,227.7 146.3,227.7 146.4,227.7 148.4,227.7 148.4,227.8 148.5,227.8 148.6,227.8 
		148.7,227.9 148.8,228 148.9,228.1 149,228.3 149.1,228.4 149.2,228.6 149.2,228.7 149.3,228.9 149.4,229.1 149.5,229.2 
		149.5,229.4 149.5,229.6 149.5,229.7 149.8,319.9 149.9,322.3 150.3,324.8 151.1,327.6 152.1,330.4 153.4,333.2 155.1,336.1 
		157.2,338.8 159.5,341.4 162.3,343.8 165.5,346 	"/>
	<polygon class="st2" points="371.7,216.8 370.2,216.8 368.7,216.9 367.4,217 366,217.1 364.8,217.4 360.9,218.3 357.5,219.5 
		354.3,221 351.5,222.7 349,224.6 346.7,226.6 344.8,228.7 343.2,231 341.8,233.4 340.7,235.8 339.9,238.3 339.3,240.7 339,243.1 
		339,245.5 339.2,247.8 339.6,249.9 340.2,251.9 340.8,253.6 341.6,255.4 342.4,257 343.3,258.5 344.5,260.1 345.7,261.6 
		347.1,263.2 348.6,264.7 350.4,266.4 352.3,268.1 354.5,269.8 356.8,271.7 359.3,273.6 362.1,275.7 365.2,278 367,279.4 369,280.8 
		370.9,282.2 372.7,283.6 374.6,285 376.5,286.4 378.4,287.8 380.2,289.3 382.1,290.7 383.8,292.2 385.6,293.8 387.4,295.5 
		389.2,297.2 391,299 392.6,301 394.4,302.9 396.6,306.4 398.1,309.7 399.2,312.9 399.7,316 399.8,319 399.6,321.7 398.9,324.4 
		398,326.8 396.8,329 395.4,331.1 393.9,332.9 392.3,334.5 390.5,335.9 388.8,337 387.2,337.8 385.6,338.4 384,338.9 382.1,339.2 
		380,339.4 377.8,339.4 375.4,339.4 372.9,339.2 370.4,338.8 367.9,338.3 365.4,337.6 363,336.5 360.7,335.4 358.5,333.9 
		356.6,332.2 354.8,330.2 353.4,327.8 352.2,325.2 352,324.7 351.8,324.1 351.6,323.6 351.5,323.1 351.3,322.6 351.2,322.1 
		351,321.6 350.9,321 350.7,320.5 350.7,320 350.6,319.4 350.5,318.8 350.5,318.2 350.5,317.5 350.4,316.8 350.5,316.1 340.3,316.1 
		340.3,348.5 340.3,348.6 340.3,348.8 340.3,348.8 340.3,348.9 340.3,349 340.3,349.1 340.3,349.3 340.4,349.4 340.4,349.4 
		340.4,349.5 340.5,349.6 340.5,349.6 340.5,349.7 340.5,349.8 340.6,349.8 340.7,349.9 350.8,349.9 350.8,349.8 350.9,349.7 
		350.9,349.7 350.9,349.6 351,349.5 351,349.4 351,349.4 351,349.2 351.1,349.1 351.1,349 351.1,348.9 351.1,348.8 351.1,348.7 
		351.1,348.6 351.1,348.6 350.8,348 350.7,347.5 350.5,346.9 350.4,346.5 350.4,346.1 350.3,345.7 350.4,345.3 350.4,345.1 
		350.5,344.8 350.6,344.5 350.7,344.3 351,344.1 351.3,344 351.5,343.9 351.8,343.8 352.2,343.7 352.5,343.7 352.8,343.8 
		353.1,343.8 353.4,343.9 353.7,344 354,344 354.2,344.2 354.5,344.3 354.8,344.4 355,344.5 355.2,344.7 355.5,344.8 355.8,345 
		356,345.1 356.3,345.3 356.5,345.4 357.6,346 358.7,346.6 359.8,347.1 360.9,347.6 362,348.1 363.1,348.6 364.2,349 365.3,349.4 
		366.5,349.7 367.6,350 368.7,350.3 369.8,350.5 371,350.8 372.2,351 373.3,351.2 374.5,351.2 376.5,351.5 378.6,351.5 380.7,351.5 
		382.7,351.2 384.8,351 386.7,350.5 388.7,350.1 390.6,349.4 392.5,348.7 394.4,347.8 396.3,346.9 398.1,345.8 399.9,344.6 
		401.7,343.3 403.5,341.9 405.3,340.3 406.4,339.3 407.5,338.1 408.6,336.8 409.6,335.4 410.6,334 411.6,332.5 412.4,331 
		413.3,329.5 414.1,327.8 414.9,326.3 415.6,324.7 416.1,323.1 416.7,321.5 417.1,320 417.4,318.5 417.7,317.1 418,315.3 
		418.2,313.7 418.3,312.1 418.5,310.7 418.5,309.5 418.4,308.4 418.3,307.3 418.2,306.4 418.1,305.6 417.9,304.8 417.7,304 
		417.5,303.3 417.2,302.7 417,302 416.7,301.3 416.5,300.7 416.4,300 416,299.2 415.7,298.3 415.1,297.2 414.4,296 413.7,294.8 
		412.9,293.6 412,292.2 411,290.9 410.1,289.5 409.1,288.2 408.1,287 407.1,285.8 406.1,284.7 405.2,283.7 404.3,282.8 403.5,282.1 
		402.6,281.3 401.6,280.4 400.5,279.5 399.3,278.5 398.1,277.5 396.7,276.4 395.3,275.3 393.7,274.1 392.1,272.9 390.4,271.6 
		388.6,270.3 386.6,268.9 384.6,267.5 382.6,265.9 380.4,264.4 378.3,262.9 376.3,261.5 374.4,260 372.7,258.7 371.1,257.4 
		369.5,256.2 368.2,254.9 366.8,253.7 365.7,252.6 364.6,251.5 363.7,250.5 362.9,249.6 362.2,248.6 361.5,247.7 361.1,246.9 
		360.7,246 360,243.6 359.8,241.2 360,238.9 360.7,236.8 361.6,234.8 362.9,233 364.5,231.4 366.4,230 368.5,228.9 370.9,228.1 
		373.3,227.6 375.8,227.3 378.5,227.4 381.3,227.9 384,228.8 386.7,230.1 387.7,230.7 388.6,231.3 389.4,232 390.2,232.7 
		390.9,233.4 391.6,234.1 392.2,234.9 392.7,235.7 393.2,236.6 393.6,237.5 393.9,238.3 394.2,239.4 394.5,240.3 394.7,241.3 
		394.7,242.4 394.8,243.5 395.1,247 404.7,246.6 404.7,218.4 394.1,218.4 393.9,221 393.7,220.9 393.6,220.8 393.3,220.8 
		393.1,220.8 392.9,220.7 392.7,220.6 392.5,220.6 392.3,220.6 392.1,220.5 391.9,220.4 391.7,220.4 391.5,220.3 391.3,220.3 
		391.1,220.2 390.9,220.2 390.7,220 388.8,219.5 386.8,219 385,218.5 383.1,218.2 381.3,217.8 379.6,217.5 377.9,217.3 376.3,217.1 
		374.7,216.9 373.1,216.8 	"/>
	<polygon class="st2" points="440.1,398.8 439.3,397.4 437.9,396 436.1,394.7 433.9,393.7 433.5,393.6 433.1,393.4 432.6,393.3 
		432,393.1 431.3,392.9 430.6,392.7 429.7,392.5 428.8,392.2 427.8,392 426.7,391.7 425.6,391.4 424.4,391.1 423.1,390.8 
		421.7,390.5 420.2,390.1 418.7,389.7 415.6,389 415.4,389 415.3,389 415.1,388.9 414.9,388.9 414.7,388.8 414.5,388.8 414.3,388.7 
		414,388.6 413.8,388.6 413.5,388.5 413.2,388.4 413,388.3 412.8,388.3 412.6,388.1 412.4,388 412.2,387.8 411.5,394 411.9,393.9 
		412.2,393.8 412.6,393.8 412.9,393.7 413.2,393.7 413.4,393.7 413.6,393.7 413.8,393.8 414,393.8 414.2,393.8 414.3,393.9 
		414.4,393.9 414.6,394 414.7,394 414.9,394.1 415.1,394.1 429.9,397.5 431.3,397.9 432.5,398.5 433.4,399 434,399.7 434.4,400.4 
		434.7,401.1 434.7,401.8 434.4,402.4 434,403 433.4,403.4 432.6,403.7 431.5,403.8 430.3,403.8 428.9,403.6 427.4,403 425.6,402.2 
		413.6,397.7 413.4,397.7 413.2,397.5 413,397.4 412.8,397.3 412.5,397.2 412.4,397.1 412.2,396.9 412,396.8 411.8,396.6 
		411.6,396.5 411.5,396.3 411.3,396.1 411.2,396 411,395.8 410.9,395.6 410.8,395.5 410.7,395.7 410.6,396 410.5,396.3 410.3,396.6 
		410.1,396.8 409.9,397.2 409.8,397.5 409.5,397.9 409.3,398.2 409.1,398.5 408.9,398.8 408.7,399.2 408.4,399.5 408.2,399.9 
		408,400.2 407.8,400.5 407.9,400.5 408.1,400.6 408.5,400.7 409,400.9 409.8,401.1 410.6,401.4 411.4,401.8 412.5,402.3 
		413.7,402.8 415,403.3 416.4,403.9 417.9,404.5 419.6,405.2 421.3,406 423.2,406.7 425.1,407.4 427.7,408.5 430.1,409.1 
		432.4,409.2 434.4,408.9 436.2,408.4 437.7,407.5 438.9,406.3 439.9,405 440.4,403.6 440.7,402 440.6,400.4 	"/>
	<polygon class="st2" points="111.6,386 112,386.1 112.2,386.2 112.5,386.3 113,386.4 113.3,386.4 113.7,386.5 114.1,386.5 
		114.4,386.6 114.8,386.6 115.2,386.6 115.5,386.6 115.8,386.6 116.1,386.5 116.3,386.5 116.5,386.4 116.4,386 116.3,385.4 
		116.2,384.8 116.1,384 116,383.2 116,382.4 115.9,381.6 115.9,380.7 115.8,379.9 115.7,379.2 115.7,378.5 115.7,378 115.7,377.4 
		115.7,377 115.7,376.8 115.8,376.7 125.5,376.1 125.6,376.5 125.6,377 125.6,377.4 125.6,377.7 125.6,378.1 125.6,378.5 
		125.5,378.9 125.5,379.2 125.4,379.5 125.4,379.8 125.4,380.2 125.3,380.5 125.3,380.7 125.2,381.1 125.1,381.3 125.1,381.6 
		125.6,381.6 126.2,381.6 126.7,381.5 127.2,381.4 127.7,381.3 128.2,381.3 128.6,381.3 129,381.2 129.4,381.1 129.7,381.1 130,381 
		130.3,381 130.5,381 130.7,380.9 130.8,380.9 130.9,380.9 130.8,380.6 130.8,380.4 130.7,380.2 130.7,379.9 130.7,379.6 
		130.6,379.4 130.6,379 130.5,378.7 130.5,378.4 130.5,378.1 130.5,377.7 130.5,377.3 130.5,377 130.5,376.6 130.5,376.1 
		130.6,375.7 138.2,375.7 138.4,382 138.3,382.1 138.3,382.3 138.3,382.4 138.3,382.5 138.3,382.6 138.2,382.7 138.2,382.8 
		138.2,382.9 138.2,383.1 138.2,383.2 138.1,383.2 138.1,383.4 138,383.4 138,383.6 137.9,383.7 137.8,383.8 138.1,383.8 
		138.4,383.7 138.6,383.6 138.9,383.6 139.3,383.5 139.6,383.5 139.9,383.4 140.2,383.4 140.6,383.3 140.9,383.2 141.2,383.2 
		141.7,383.1 142.1,383 142.5,382.9 142.9,382.8 143.4,382.6 142.8,369.1 142.8,369.1 142.6,369.2 142.5,369.2 142.4,369.2 
		142.3,369.3 142,369.4 141.8,369.5 141.6,369.6 141.4,369.7 141.1,369.9 140.9,370 140.7,370.1 140.4,370.2 140.3,370.3 
		140.1,370.3 140,370.3 114.4,371.7 114.2,371.7 113.9,371.7 113.7,371.7 113.5,371.7 113.2,371.6 112.9,371.6 112.6,371.6 
		112.4,371.6 112.1,371.5 111.8,371.5 111.6,371.4 111.4,371.4 111.1,371.4 111,371.4 110.9,371.4 110.8,371.3 111.4,385.8 	"/>
	<polygon class="st2" points="442.3,353.3 442,353.2 441.5,353.1 441.1,352.9 440.7,352.8 440.3,352.7 439.9,352.6 439.4,352.6 
		439,352.5 438.7,352.5 438.3,352.4 437.9,352.4 437.7,352.4 437.4,352.4 437.2,352.4 437.3,352.6 437.4,352.8 437.4,353.1 
		437.5,353.4 437.6,353.8 437.7,354.2 437.7,354.7 437.8,355.2 437.9,355.7 437.9,356.3 438,356.9 438.1,357.6 438.2,358.3 
		438.2,359 438.4,359.8 438.5,360.6 438.1,360.8 437.7,360.9 437.1,361.1 436.6,361.2 435.9,361.3 435.2,361.4 434.4,361.4 
		433.6,361.5 432.8,361.6 432,361.6 431.2,361.7 430.4,361.7 429.6,361.8 428.9,361.8 428.3,361.8 427.7,361.8 427.5,361.4 
		427.4,360.9 427.3,360.5 427.2,360.1 427.1,359.7 427.1,359.3 427.1,358.9 427.1,358.5 427.1,358.2 427.1,357.8 427.2,357.4 
		427.3,357 427.3,356.6 427.4,356.3 427.5,355.9 427.6,355.5 427.3,355.4 427,355.4 426.8,355.4 426.5,355.3 426.3,355.3 426,355.3 
		425.7,355.3 425.4,355.3 425.2,355.4 424.8,355.4 424.5,355.5 424.1,355.6 423.7,355.7 423.3,355.9 422.8,356.1 422.4,356.2 
		422.3,356.7 422.3,357 422.3,357.4 422.3,357.7 422.4,358.1 422.4,358.3 422.4,358.6 422.4,359 422.5,359.3 422.6,359.6 
		422.6,359.9 422.7,360.2 422.7,360.6 422.8,360.9 422.9,361.4 423,361.8 417.3,361.8 417.1,361.1 416.9,360.4 416.7,359.8 
		416.6,359.2 416.5,358.6 416.5,358.1 416.4,357.5 416.3,357 416.2,356.4 416.2,356 416.2,355.5 416.2,355 416.3,354.6 416.4,354.2 
		416.5,353.8 416.6,353.4 416.6,353.3 416.6,353.1 416.7,353.1 416.7,352.9 416.7,352.8 416.8,352.6 416.9,352.6 416.9,352.4 
		417,352.3 417.1,352.1 417.2,352 417.2,351.9 417.3,351.8 417.4,351.6 417.5,351.5 417.5,351.2 417.2,351.2 416.9,351.3 
		416.5,351.3 416.1,351.3 415.7,351.5 415.2,351.5 414.9,351.5 414.4,351.6 413.9,351.7 413.5,351.8 413.1,351.9 412.7,352 
		412.3,352 412,352.1 411.6,352.2 411.4,352.3 412.2,368.6 412.4,368.5 412.6,368.3 412.8,368.1 413,367.9 413.2,367.8 413.5,367.6 
		413.8,367.5 414,367.3 414.3,367.2 414.5,367.1 414.8,367 415.1,367 415.3,366.9 415.6,366.8 415.9,366.8 416.1,366.7 439.3,365.7 
		439.6,365.8 440,365.8 440.2,365.9 440.5,366 440.7,366 440.9,366.2 441.1,366.3 441.4,366.4 441.6,366.5 441.7,366.6 442,366.8 
		442.1,367 442.3,367.2 442.5,367.4 442.7,367.6 442.9,367.8 443,353.7 442.6,353.5 	"/>
	<polygon class="st2" points="428.1,422.1 427.1,421.5 426.1,420.7 424.9,419.9 423.7,419 422.4,418 421,417 419.6,415.9 
		418.1,414.8 416.7,413.5 415.2,412.4 413.7,411.1 412.2,409.9 410.6,408.7 409.2,407.3 409.2,407 409.2,406.8 409.3,406.5 
		409.4,406.3 409.5,406 409.7,405.8 409.9,405.5 410,405.3 410.2,405 410.3,404.8 410.6,404.6 410.8,404.4 410.9,404.1 411.1,403.9 
		411.3,403.8 411.4,403.6 411.2,403.4 411,403.2 410.8,403 410.6,402.9 410.4,402.8 410.2,402.6 410,402.4 409.7,402.3 409.5,402.2 
		409.2,402 409,401.9 408.6,401.7 408.4,401.6 408,401.4 407.7,401.2 407.3,401 406.8,401.8 406.3,402.5 405.7,403.3 405.1,404.1 
		404.6,404.9 404,405.6 403.4,406.3 402.9,407 402.4,407.7 401.9,408.4 401.4,408.9 401.1,409.5 400.7,409.9 400.4,410.3 
		400.1,410.5 400,410.7 400,410.8 400.1,410.9 400.1,411.1 400.3,411.2 400.4,411.4 400.5,411.6 400.6,411.9 400.9,412.1 
		401.1,412.4 401.3,412.7 401.5,412.9 401.7,413.2 402,413.6 402.2,413.9 402.6,414.3 402.9,414.6 403,414.4 403.1,414.2 
		403.3,413.9 403.4,413.7 403.6,413.4 403.7,413.2 403.9,412.9 404.1,412.6 404.3,412.4 404.6,412 404.8,411.7 405.1,411.4 
		405.4,411.1 405.7,410.8 406.1,410.5 406.5,410.1 409.2,412.5 419.4,420.9 420,421.4 420.7,422 421.2,422.5 421.8,423 422.4,423.5 
		422.9,424 423.3,424.5 423.8,425 424.2,425.4 424.6,425.9 424.9,426.3 425.3,426.7 425.6,427.2 425.8,427.5 426,427.9 426.2,428.2 
		429.8,423 429,422.6 	"/>
	<polygon class="st2" points="421.8,430 421.7,429.6 421.6,429.3 421.5,429 421.3,428.6 421.1,428.3 420.9,428 420.7,427.6 
		420.5,427.3 420.2,427 419.9,426.6 419.6,426.3 419.5,426.6 419.4,426.8 419.3,427 419.1,427.2 419,427.4 418.9,427.6 418.8,427.8 
		418.7,428 418.6,428.1 418.5,428.2 418.3,428.4 418.2,428.5 418.1,428.6 418,428.8 417.9,428.8 417.8,428.9 412.4,432.7 402,416.4 
		401.7,416 401.4,415.6 401.2,415.1 400.9,414.7 400.7,414.3 400.5,413.9 400.3,413.5 400.1,413.2 399.9,412.8 399.8,412.5 
		399.6,412.1 399.6,411.9 399.4,411.5 399.3,411.3 399.3,411 399.2,410.7 398.9,410.9 398.6,411.1 398.3,411.2 398,411.4 
		397.7,411.6 397.3,411.9 396.9,412.1 396.6,412.4 396.3,412.7 395.9,412.9 395.5,413.2 395.3,413.5 394.9,413.8 394.6,414 
		394.4,414.3 394.1,414.6 394.3,414.7 394.6,414.8 394.8,414.9 395.1,415.1 395.4,415.4 395.6,415.6 395.9,415.8 396.2,416 
		396.4,416.2 396.7,416.4 396.9,416.7 397.1,416.9 397.3,417.1 397.5,417.2 397.6,417.5 397.7,417.5 406.2,431.9 410.3,440.3 
		410.5,440.3 410.8,440.1 411.1,440 411.5,439.8 412,439.5 412.5,439.1 413.1,438.6 413.8,438.2 414.6,437.6 415.4,436.9 
		416.3,436.3 417.3,435.5 418.3,434.7 419.4,433.8 420.7,432.8 421.9,431.8 421.9,431.5 421.9,431.1 421.9,430.7 421.8,430.4 	"/>
	<polygon class="st2" points="349.6,141.5 349.8,141.8 350,142.1 350.2,142.3 350.4,142.7 350.6,143 350.7,143.3 350.8,143.5 
		351,143.8 351.1,144.1 351.2,144.3 351.2,144.5 351.3,144.7 351.3,144.9 351.3,144.9 361.7,175.8 362.1,175.9 362.5,176.1 
		362.8,176.3 363.2,176.4 363.5,176.5 363.8,176.6 364.1,176.7 364.4,176.9 364.7,176.9 365,177 365.2,177 365.5,177.1 365.7,177.1 
		365.9,177.1 366.1,177.2 366.3,177.2 374.6,148.3 369.2,146.3 369.2,149.2 369.2,149.4 369.2,149.5 369.2,149.6 369.2,149.8 
		369.1,149.9 369.1,150 369.1,150.1 369.1,150.2 369,150.3 369,150.5 369,150.6 369,150.7 368.9,150.8 368.9,151 368.8,151.1 
		368.8,151.2 363.9,164.1 356.8,144.5 356.6,144.1 356.2,143.6 355.8,143.2 355.3,142.8 354.8,142.4 354.3,142.1 353.7,141.8 
		353.1,141.5 352.5,141.4 351.9,141.2 351.3,141.1 350.7,141 350.2,140.9 349.8,140.9 349.3,140.9 349,141 349.3,141.2 	"/>
	<polygon class="st2" points="187.9,433.1 186.1,419.7 180.4,418.5 180.5,418.8 180.6,419.1 180.6,419.3 180.7,419.6 180.8,419.9 
		180.9,420.2 181,420.6 181,421 181,421.4 181,421.9 181,422.4 181,422.9 181,423.5 180.9,424.2 180.8,424.8 180.7,425.6 
		180.4,427.8 180,430 179.7,431.9 179.5,433.7 179.2,435.4 178.9,436.9 178.7,438.3 178.5,439.6 178.3,440.7 178.1,441.7 178,442.6 
		177.8,443.3 177.7,443.9 177.6,444.4 177.5,444.9 177.5,445.1 177.4,445.4 177.4,445.7 177.4,445.9 177.3,446.2 177.3,446.4 
		177.2,446.6 177.1,446.9 177.1,447.1 177,447.3 176.9,447.6 176.9,447.8 176.8,448 176.6,448.2 176.6,448.4 176.3,448.6 
		176.2,448.7 182.7,449.6 182.6,449.4 182.5,449.3 182.5,449.1 182.4,448.9 182.3,448.6 182.2,448.4 182.2,448.2 182.2,448 
		182.1,447.8 182.1,447.6 182.1,447.3 182.1,447.1 182.1,446.9 182.1,446.6 182.2,446.4 182.2,446.2 183.6,435.4 186.1,449.8 
		192.3,436.6 191,447.3 191,447.6 190.9,447.8 190.8,448.1 190.8,448.3 190.7,448.6 190.6,448.7 190.6,448.9 190.5,449.2 
		190.3,449.4 190.2,449.6 190.1,449.8 190,450 189.8,450.2 189.6,450.3 189.5,450.6 189.3,450.7 195.9,451.9 195.8,451.7 
		195.8,451.4 195.7,450.9 195.7,450.5 195.7,449.8 195.8,449.2 195.8,448.4 195.9,447.4 195.9,446.5 196,445.4 196.1,444.3 
		196.2,443 196.4,441.7 196.5,440.3 196.7,438.8 196.9,437.1 198.3,424.6 198.3,424.5 198.3,424.3 198.3,424.1 198.4,423.9 
		198.6,423.7 198.6,423.5 198.7,423.3 198.9,423.1 199,422.9 199.1,422.7 199.3,422.4 199.4,422.2 199.5,422 199.7,421.8 
		199.8,421.6 200,421.4 193.4,420.8 	"/>
	<polygon class="st2" points="281.4,159.8 282.3,160.5 283.1,161.2 283.9,161.8 284.8,162.4 285.7,162.9 286.6,163.4 287.4,163.7 
		288.3,164 289.2,164.3 290.1,164.5 290.9,164.7 291.8,164.8 292.7,164.8 293.6,164.7 295.5,164.4 297.3,163.7 299,162.7 
		300.3,161.5 301.5,160 302.5,158.4 303.2,156.7 303.5,154.8 303.6,153 303.4,151.1 302.8,149.4 301.8,147.8 300.6,146.3 298.8,145 
		296.6,144.1 294.1,143.3 291.1,142.8 290.6,142.7 290.2,142.6 289.8,142.5 289.3,142.3 289,142.2 288.6,142.1 288.2,142 288,141.8 
		287.6,141.6 287.3,141.4 287,141.3 286.8,141.1 286.6,140.9 286.3,140.6 286.1,140.4 285.9,140.2 285.9,139.3 286.1,138.5 
		286.5,137.9 287.1,137.4 287.8,136.9 288.6,136.6 289.6,136.4 290.5,136.4 291.5,136.4 292.6,136.7 293.6,137 294.6,137.4 
		295.4,138 296.2,138.8 296.8,139.6 297.3,140.6 297.5,140.5 297.8,140.4 298.1,140.2 298.4,140 298.8,139.8 299.2,139.5 
		299.5,139.2 299.9,138.9 300.2,138.6 300.5,138.3 300.6,137.9 300.8,137.6 300.8,137.3 300.8,136.9 300.6,136.6 300.3,136.3 
		299.5,135.5 298.4,134.7 297.3,133.9 296.1,133.3 294.7,132.7 293.3,132.3 291.9,132 290.4,131.9 289,131.9 287.6,132 286.3,132.4 
		285,132.9 283.9,133.7 282.9,134.6 282,135.8 281.5,137.2 281.2,137.9 281,138.6 281,139.3 280.9,139.9 280.9,140.5 280.9,141.1 
		281,141.6 281.2,142.2 281.4,142.7 281.7,143.2 282,143.6 282.4,144.1 282.8,144.5 283.3,144.9 283.8,145.4 284.5,145.7 
		284.6,145.8 284.7,145.9 284.9,146 285.2,146 285.4,146.2 285.8,146.3 286.1,146.3 286.4,146.4 286.8,146.5 287.3,146.6 
		287.7,146.7 288.2,146.8 288.7,146.9 289.2,147.1 289.8,147.2 290.4,147.3 293.4,147.9 294.2,148.1 294.9,148.4 295.7,148.6 
		296.3,148.9 296.8,149.2 297.3,149.6 297.8,150 298.1,150.4 298.4,150.9 298.7,151.5 298.8,152 299,152.6 299,153.2 299,153.9 
		298.9,154.6 298.7,155.3 298.6,155.7 298.4,156.1 298.2,156.5 297.9,156.9 297.6,157.3 297.1,157.7 296.6,158.1 296.1,158.6 
		295.5,158.9 294.9,159.2 294.3,159.5 293.6,159.7 292.9,159.8 292.1,159.8 291.3,159.8 290.6,159.6 290,159.6 289.4,159.5 
		288.8,159.4 288.3,159.1 287.7,158.9 287.2,158.7 286.7,158.3 286.2,158 285.8,157.6 285.3,157.2 285,156.7 284.6,156.1 
		284.3,155.5 284.1,154.8 283.9,154.2 283.7,153.3 283.3,153.5 282.9,153.6 282.6,153.7 282.2,153.9 281.9,154 281.6,154.3 
		281.2,154.6 281,154.8 280.8,155.1 280.5,155.4 280.3,155.7 280.2,156 280,156.4 279.9,156.7 279.8,157.2 279.7,157.5 279.6,158.1 
		280.5,159 	"/>
	<polygon class="st2" points="221.4,144.8 221.6,145.4 221.7,145.9 222,146.4 222.2,146.9 222.5,147.3 222.9,147.8 223.3,148.2 
		223.8,148.7 224.4,149 224.9,149.3 225.5,149.6 225.7,149.8 225.9,149.8 226,149.8 226.3,149.9 226.6,150 226.8,150 227.2,150.1 
		227.6,150.1 228,150.2 228.4,150.3 228.9,150.3 229.4,150.3 229.8,150.4 230.4,150.5 231,150.6 231.6,150.6 234.7,150.9 235.5,151 
		236.3,151.1 237,151.4 237.6,151.6 238.2,151.8 238.7,152.2 239.2,152.5 239.7,152.9 240,153.3 240.2,153.8 240.5,154.4 240.7,155 
		240.7,155.6 240.8,156.2 240.8,156.9 240.7,157.6 240.7,158 240.5,158.4 240.3,158.9 240,159.3 239.7,159.7 239.4,160.2 239,160.7 
		238.5,161.1 237.9,161.6 237.4,161.9 236.8,162.3 236.1,162.5 235.4,162.7 234.7,162.8 233.9,162.9 233.1,162.8 232.5,162.8 
		231.9,162.8 231.3,162.7 230.8,162.6 230.2,162.4 229.6,162.2 229.1,161.9 228.6,161.7 228.1,161.3 227.6,160.9 227.2,160.5 
		226.8,159.9 226.5,159.4 226.1,158.8 225.9,158.1 225.7,157.3 225.2,157.4 224.9,157.6 224.5,157.8 224.2,158 223.9,158.2 
		223.6,158.4 223.3,158.7 223,159 222.8,159.3 222.7,159.6 222.5,159.9 222.3,160.3 222.2,160.7 222.1,161.1 222.1,161.4 
		222.1,161.8 222.1,162.4 223,163.2 223.9,163.9 224.9,164.5 225.8,165.1 226.7,165.6 227.6,166.1 228.6,166.5 229.5,166.9 
		230.4,167.2 231.3,167.5 232.2,167.6 233.1,167.7 234,167.8 234.8,167.8 235.7,167.7 236.6,167.6 238.5,167.1 240.2,166.2 
		241.8,165 243,163.6 244.1,162.1 244.8,160.3 245.3,158.6 245.5,156.7 245.3,154.8 245,153.1 244.2,151.4 243,149.9 241.5,148.5 
		239.7,147.4 237.5,146.7 234.8,146.3 231.9,146 231.3,145.9 230.9,145.9 230.5,145.8 230.1,145.7 229.7,145.7 229.2,145.6 
		228.9,145.5 228.6,145.3 228.2,145.2 227.9,145 227.6,144.9 227.4,144.7 227.1,144.5 226.8,144.4 226.6,144.1 226.5,143.9 
		226.3,143 226.5,142.3 226.8,141.6 227.3,141 228,140.5 228.8,140.1 229.7,139.8 230.6,139.7 231.6,139.7 232.7,139.8 233.8,140 
		234.7,140.4 235.6,140.8 236.4,141.4 237.2,142.2 237.8,143.2 238,143 238.3,142.9 238.5,142.7 238.9,142.5 239.2,142.2 
		239.5,141.9 239.9,141.6 240.2,141.2 240.5,140.9 240.7,140.6 240.8,140.2 240.9,139.8 240.9,139.6 240.8,139.2 240.7,138.9 
		240.4,138.6 239.4,137.8 238.3,137.1 237.1,136.5 235.8,136 234.4,135.6 233,135.3 231.5,135.2 230.1,135.2 228.7,135.4 
		227.3,135.7 226,136.2 224.8,136.9 223.8,137.7 222.9,138.8 222.2,140 221.7,141.4 221.5,142.2 221.4,142.9 221.4,143.5 
		221.4,144.1 	"/>
	<polygon class="st2" points="243.4,139.8 243.5,139.7 243.6,139.6 243.7,139.5 243.9,139.4 244,139.3 244.2,139.2 244.3,139.2 
		244.4,139.1 244.5,139 244.8,139 244.9,138.9 245,138.8 245.1,138.8 245.3,138.8 245.8,138.7 246.4,138.6 247,138.5 247.5,138.5 
		248,138.5 248.6,138.4 249,138.4 249.6,138.4 250.1,138.4 250.5,138.4 250.9,138.5 251.4,138.5 251.7,138.5 252.1,138.6 
		252.4,138.8 252.6,138.9 252.4,162.8 252.3,162.9 252.3,163 252.3,163 252.3,163.1 252.3,163.1 252.3,163.2 252.3,163.2 
		252.3,163.2 252.3,163.3 252.3,163.3 251.7,164.8 257.8,163.7 257.3,162.3 257.3,162.3 257.3,162.2 257.3,162.1 257.3,162.1 
		257.3,162 257.3,162 257.3,161.9 257.3,161.9 257.3,161.8 257.3,161.8 257.3,161.7 257.4,138.6 257.7,138.5 258.1,138.5 
		258.4,138.4 258.7,138.3 259,138.2 259.3,138.2 259.6,138.1 259.9,138.1 260.3,138 260.6,138 260.9,137.9 261.2,137.9 261.6,137.9 
		261.9,137.9 262.2,138 262.6,138 265.3,138.8 265.4,133.3 243.1,134.6 243.1,139.8 243.2,139.8 	"/>
	<polygon class="st2" points="400.4,437.6 400.2,436.7 400,435.7 399.7,434.5 399.3,433.1 398.9,431.6 398.4,429.9 397.7,428 
		397,425.8 396.2,423.4 395.3,420.6 394.2,417.7 393.1,414.3 387.8,415.9 388,416.2 388.3,416.4 388.6,416.6 388.7,416.8 388.9,417 
		389,417.2 389.1,417.4 389.2,417.6 389.3,417.8 389.4,417.9 389.5,418.1 389.6,418.3 389.6,418.5 389.7,418.6 389.8,418.8 390,419 
		390.1,419.2 390.3,419.8 390.7,420.7 391,421.9 391.5,423.2 392,424.8 392.5,426.4 393,428 393.6,429.7 394.1,431.4 394.5,432.8 
		395,434.2 395.3,435.3 395.6,436.2 395.8,436.8 395.9,437 395.9,437.9 395.9,438.7 395.7,439.3 395.5,439.8 395.2,440.3 
		394.8,440.6 394.5,440.8 394,440.8 393.6,440.9 393.1,440.8 392.6,440.7 392.2,440.6 391.8,440.3 391.5,440 391.2,439.8 391,439.4 
		390.4,437.6 389.8,435.9 389.3,434.4 388.8,433 388.5,431.7 388.1,430.5 387.9,429.4 387.6,428.4 387.4,427.4 387.2,426.4 
		387,425.4 386.7,424.4 386.4,423.4 386.1,422.3 385.9,421.2 385.6,419.9 385.5,419.8 385.4,419.5 385.4,419.4 385.3,419.1 
		385.3,418.9 385.2,418.7 385.2,418.5 385.1,418.3 385.1,418.1 385.1,417.9 385.1,417.7 385.1,417.5 385.1,417.2 385.1,417 
		385.1,416.8 385.2,416.5 379.4,418.3 379.7,418.5 379.9,418.7 380.1,418.8 380.3,419.1 380.5,419.2 380.5,419.4 380.6,419.5 
		380.7,419.7 380.8,419.8 380.8,419.9 380.8,420.1 380.9,420.2 380.9,420.4 381,420.5 381,420.7 381.2,420.8 381.2,420.9 381.3,421 
		381.3,421.3 381.4,421.5 381.5,421.8 381.6,422.3 381.7,422.7 381.9,423.2 382,423.9 382.1,424.6 382.3,425.3 382.5,426.1 
		382.7,427.1 382.9,428 383.2,429 383.5,430.1 383.6,430.8 383.7,431.4 383.8,431.9 384,432.5 384.1,433.1 384.3,433.7 384.4,434.2 
		384.5,434.8 384.7,435.4 384.8,436 385,436.6 385.1,437.2 385.3,437.8 385.4,438.4 385.6,439 385.8,439.5 386,440.2 386.3,440.8 
		386.5,441.5 386.8,442.1 387.1,442.6 387.4,443.1 387.8,443.5 388.1,444 388.6,444.3 388.9,444.7 389.4,445 389.8,445.2 
		390.3,445.5 390.8,445.7 391.3,445.8 391.9,445.9 392.4,445.9 392.9,445.9 393.5,445.9 394.1,445.9 394.8,445.8 395.5,445.6 
		396.1,445.4 396.8,445.1 397.4,444.7 398,444.3 398.6,443.8 399.1,443.2 399.6,442.5 399.9,441.8 400.3,440.9 400.5,439.9 
		400.5,439.5 400.5,439 400.5,438.3 	"/>
	<polygon class="st2" points="384.4,175.5 384.5,176.5 384.8,177.4 385,178.4 385.3,179.3 385.7,180.1 386,181 386.5,181.8 
		387,182.6 387.5,183.3 388.1,184.1 388.7,184.8 389.4,185.5 390.2,186.1 391.6,187.3 393,188 394.4,188.5 395.8,188.8 397.1,188.8 
		398.3,188.7 399.5,188.4 400.6,188 401.5,187.5 402.5,186.9 403.2,186.3 403.7,185.7 404.1,185.1 404.4,184.6 404.4,184.1 
		404.3,183.8 404.1,183.5 403.9,183.2 403.7,183 403.5,182.8 403.4,182.5 403.2,182.3 403,182.1 402.8,181.8 402.6,181.7 
		402.3,181.5 402,181.2 401.8,181.1 401.4,180.9 401.1,180.8 400.7,180.6 400.3,180.4 400.3,181.4 400.1,181.9 399.9,182.5 
		399.4,183 398.8,183.3 398.1,183.6 397.3,183.7 396.3,183.7 395.4,183.5 394.5,183.1 393.6,182.6 392.6,181.8 391.8,180.9 
		391,179.6 390.3,178.2 389.7,176.4 389.4,174.3 389.3,171.4 389.5,168.9 389.9,166.7 390.5,164.8 391.2,163.2 392.2,162 
		393.1,161.1 394.1,160.5 395.1,160.2 396.1,160.2 397,160.4 397.8,160.9 398.5,161.7 399,162.6 399.3,163.9 399.5,165.3 
		399.7,165.2 400,165 400.3,164.9 400.5,164.7 400.8,164.5 401.1,164.2 401.3,164 401.6,163.7 401.9,163.4 402.1,163 402.3,162.6 
		402.6,162.3 402.9,161.8 403.1,161.4 403.4,160.9 403.6,160.4 402.8,159 401.7,157.8 400.4,156.7 398.9,156 397.4,155.5 
		395.7,155.3 394.1,155.3 392.4,155.7 390.8,156.5 389.3,157.5 387.9,158.9 386.7,160.8 385.6,163 384.9,165.7 384.3,168.8 
		384.2,172.4 384.2,173.5 384.3,174.5 	"/>
	<polygon class="st2" points="237.5,425.9 237.2,425.8 237,425.6 236.7,425.6 236.5,425.4 236.2,425.4 236,425.3 235.7,425.3 
		235.5,425.3 235.3,425.3 235,425.2 234.7,425.2 234.4,425.2 234.1,425.1 233.8,425 232.4,424.9 232.4,425 232.5,425.1 232.5,425.2 
		232.6,425.3 232.6,425.5 232.7,425.6 232.7,425.7 232.7,425.8 232.7,426 232.7,426.1 232.7,426.2 232.8,426.4 232.8,426.5 
		232.8,426.6 232.8,426.7 232.8,426.8 232.1,445.4 224.8,424.6 224.6,424.6 224.5,424.6 224.4,424.5 224.3,424.5 224.2,424.5 
		224,424.5 223.9,424.5 223.8,424.4 223.7,424.4 223.6,424.4 223.5,424.4 223.3,424.3 223.3,424.3 223.2,424.3 223.1,424.3 
		223,424.2 220.3,423.9 220.3,423.9 220.3,424.1 220.4,424.1 220.5,424.2 220.6,424.2 220.6,424.3 220.7,424.4 220.7,424.5 
		220.8,424.5 220.8,424.6 220.8,424.8 220.9,424.8 220.9,424.9 220.9,425 220.9,425 220.9,425.1 220.9,425.4 221,425.8 221,426.4 
		221.1,427.1 221.1,427.9 221,428.8 221,429.8 221,430.9 220.9,432.3 220.8,433.7 220.7,435.2 220.6,436.9 220.4,438.8 220.3,440.8 
		220.1,442.9 219.9,445.1 219.8,446.1 219.8,447 219.6,447.9 219.5,448.7 219.4,449.5 219.3,450.2 219.2,450.9 219.1,451.6 
		219,452.2 218.8,452.7 218.7,453.2 218.6,453.6 218.5,454 218.3,454.3 218.2,454.5 218.1,454.5 218.3,454.7 218.6,454.8 
		218.9,454.9 219.2,455 219.5,455.1 219.9,455.1 220.3,455.1 220.6,455.2 221,455.2 221.4,455.2 221.8,455.3 222.2,455.3 
		222.5,455.3 222.9,455.3 223.3,455.3 223.7,455.3 224.6,441.1 224.7,441.4 224.9,441.8 225.2,442.2 225.3,442.7 225.5,443.3 
		225.8,443.9 226,444.5 226.4,445.1 226.6,445.9 226.9,446.7 227.3,447.5 227.6,448.4 227.9,449.3 228.3,450.2 228.7,451.3 
		229,452.3 230.5,455.8 230.8,455.9 231,456.1 231.2,456.1 231.4,456.3 231.6,456.4 231.8,456.5 232.1,456.6 232.3,456.7 
		232.6,456.7 232.8,456.7 233.2,456.8 233.5,456.8 233.9,456.9 234.3,456.9 234.8,456.9 235.4,456.9 235.5,456.4 235.6,455.9 
		235.6,455.1 235.7,454.2 235.9,453.2 236,452 236.1,450.7 236.2,449.2 236.3,447.6 236.4,445.9 236.5,444 236.7,441.9 236.8,439.8 
		237,437.5 237.1,435 237.2,432.4 237.5,429.3 237.9,426.3 237.7,426.1 	"/>
	<polygon class="st2" points="201.1,142.7 201.3,142.8 201.6,143 201.7,143.2 201.8,143.4 201.9,143.6 202.1,143.8 202.2,144 
		202.2,144.2 202.3,144.4 202.3,144.7 202.4,144.9 202.4,145.1 202.4,145.3 202.4,145.5 202.4,169.5 202.4,169.7 202.4,169.9 
		202.4,170.1 202.4,170.3 202.3,170.5 202.3,170.7 202.3,170.9 202.2,171.1 202.1,171.3 202,171.5 201.9,171.7 201.8,171.9 
		201.7,172.1 201.6,172.3 201.3,172.6 201.2,172.8 217.9,169.1 218.1,169 218.3,168.9 218.5,168.7 218.7,168.5 218.8,168.3 219,168 
		219.1,167.7 219.3,167.4 219.3,167 219.4,166.6 219.5,166.1 219.5,165.6 219.6,165.1 219.6,164.5 219.7,163.9 219.7,163.2 
		218.8,163.4 218,163.6 217.2,163.8 216.3,164 215.5,164.3 214.6,164.5 213.7,164.8 212.9,165 212.1,165.3 211.3,165.6 210.5,165.8 
		209.8,166 209,166.1 208.3,166.3 207.7,166.4 207.1,166.4 207,166.1 207,165.6 206.9,165.3 206.9,164.8 206.9,164.3 206.9,163.9 
		206.9,163.3 206.9,162.8 206.8,162.1 206.8,161.6 206.8,160.9 206.8,160.1 206.8,159.4 206.8,158.4 206.8,157.5 206.8,156.5 
		207.1,156.3 207.5,156 207.9,155.8 208.4,155.6 208.8,155.4 209.3,155.2 209.8,155.1 210.4,154.9 210.9,154.8 211.4,154.7 
		212,154.6 212.6,154.5 213.2,154.5 213.8,154.4 214.4,154.4 215.1,154.3 215,153.8 214.9,153.2 214.8,152.7 214.7,152.2 
		214.7,151.8 214.6,151.4 214.5,151 214.4,150.7 214.3,150.3 214.2,150.1 214.2,149.9 214.1,149.6 214,149.5 214,149.3 213.9,149.2 
		213.8,149.2 213.4,149.3 213,149.5 212.6,149.7 212.1,149.9 211.6,150 211.1,150.2 210.6,150.3 210.1,150.4 209.7,150.6 
		209.2,150.6 208.7,150.7 208.3,150.8 207.8,150.8 207.5,150.8 207.1,150.8 206.8,150.8 206.8,145.4 207.7,145 208.5,144.7 
		209.2,144.4 209.9,144.2 210.5,144 211.1,143.8 211.5,143.6 212.1,143.5 212.6,143.4 213,143.3 213.5,143.3 214,143.2 214.5,143.2 
		215.1,143.2 215.8,143.2 216.5,143.2 216.6,143.2 216.6,143.2 216.7,143.2 216.9,143.2 217,143.2 217.2,143.3 217.3,143.3 
		217.5,143.3 217.7,143.3 217.8,143.3 217.9,143.3 218,143.4 218.1,143.4 218.2,143.4 218.3,143.4 218.2,143 218.1,142.7 218,142.3 
		218,142 217.9,141.6 217.9,141.3 217.9,140.9 217.8,140.6 217.8,140.4 217.8,140 217.7,139.8 217.7,139.5 217.7,139.2 217.7,139 
		217.7,138.8 217.7,138.5 200.6,142.4 200.9,142.6 	"/>
	<polygon class="st2" points="308.3,159.7 308.3,159.8 308.3,159.8 308.3,159.9 308.3,160 308.3,160.1 308.3,160.1 308.3,160.2 
		308.3,160.2 308.3,160.3 308.3,160.3 308.3,160.4 308.3,160.4 307.3,163.4 308.1,163.6 309,163.9 310,164.1 311,164.4 312.2,164.7 
		313.3,164.9 314.5,165.1 315.6,165.4 316.7,165.6 317.9,165.8 319.1,166 320.1,166.2 321.2,166.4 322.2,166.5 323.2,166.7 
		324.1,166.7 326.3,161.1 325.9,161.2 325.5,161.2 325.1,161.3 324.8,161.3 324.4,161.3 324,161.3 323.6,161.4 323.3,161.4 
		322.9,161.4 322.6,161.4 322.2,161.4 321.8,161.4 321.4,161.4 321.1,161.4 320.7,161.4 320.4,161.3 319.7,161.2 319.2,161.1 
		318.6,161 318.1,160.9 317.6,160.8 317.2,160.8 316.7,160.6 316.3,160.5 315.9,160.4 315.5,160.3 315.2,160.2 314.8,160.2 
		314.5,160.1 314.2,159.9 314,159.9 313.8,159.8 313.7,159.1 313.7,158.6 313.6,157.9 313.5,157.3 313.5,156.7 313.5,156.1 
		313.5,155.4 313.5,154.8 313.5,154.3 313.5,153.7 313.5,153.1 313.5,152.4 313.6,151.9 313.7,151.3 313.7,150.7 313.8,150.1 
		314.1,150.1 314.5,150 314.8,150 315.2,150.1 315.6,150.1 316,150.1 316.3,150.2 316.7,150.3 317.1,150.3 317.5,150.4 318,150.5 
		318.4,150.6 318.9,150.7 319.3,150.8 319.8,150.8 320.3,150.9 320.4,146 319.9,146.2 319.4,146.2 319,146.3 318.5,146.3 
		318.1,146.3 317.6,146.3 317.2,146.3 316.7,146.3 316.3,146.2 315.9,146.2 315.5,146.1 315,146 314.7,146 314.3,145.9 314,145.8 
		313.6,145.7 313.6,140.1 313.7,140 314,139.9 314.3,139.9 314.7,139.8 315.2,139.8 315.7,139.8 316.2,139.9 316.9,139.9 317.5,140 
		318.2,140 318.9,140.1 319.6,140.2 320.3,140.3 321,140.4 321.5,140.5 322.2,140.5 326.4,142.1 325.9,137.1 325.2,136.9 
		324.4,136.7 323.5,136.5 322.3,136.3 321.1,136.1 319.7,135.8 318.3,135.6 316.9,135.5 315.4,135.3 314,135.1 312.6,135 
		311.3,134.8 310.2,134.7 309.1,134.7 308.3,134.6 307.6,134.6 308.5,136.8 308.5,136.9 308.6,137 308.6,137.1 308.6,137.2 
		308.6,137.4 308.6,137.5 308.7,137.6 308.7,137.7 308.7,137.8 308.7,137.9 308.8,138 308.8,138.2 308.8,138.2 308.8,138.4 
		308.8,138.5 308.8,138.5 308.4,159.7 	"/>
	<polygon class="st2" points="209.3,427.4 209.6,427.3 209.8,427.3 210.2,427.3 210.7,427.3 211.2,427.3 211.8,427.4 212.3,427.4 
		212.9,427.4 213.5,427.5 214,427.6 214.5,427.7 214.9,427.7 215.2,427.8 215.5,427.9 215.6,427.9 218.6,429.4 218.5,428.9 
		218.5,428.4 218.4,427.9 218.4,427.4 218.3,427 218.3,426.6 218.2,426.1 218.2,425.8 218.2,425.5 218.1,425.2 218.1,424.9 
		218.1,424.6 218,424.4 218,424.2 218,424.1 218,423.9 203.9,421.7 204.5,423.9 204.5,424.4 204.6,425.3 204.5,426.7 204.5,428.4 
		204.3,430.3 204.1,432.4 203.9,434.7 203.7,436.9 203.4,439.2 203.2,441.5 203,443.6 202.8,445.6 202.6,447.2 202.4,448.6 
		202.3,449.6 202.2,450.1 202,450.4 201.9,450.6 201.8,450.8 201.8,451 201.7,451.2 201.6,451.3 201.5,451.5 201.4,451.6 
		201.3,451.7 201.2,451.8 201,451.9 200.9,452.1 200.8,452.1 200.5,452.3 200.3,452.4 200.2,452.5 214.9,454.5 214.9,454.4 
		214.9,454.3 214.9,454.2 214.9,454 214.9,454 214.9,453.9 215,453.8 215,453.7 215,453.6 215,453.5 215,453.4 215,453.2 215,453.2 
		215,453.1 215.1,453 215.1,452.9 216,449.5 215.8,449.6 215.6,449.7 215.5,449.8 215.3,449.8 215.2,449.9 215,449.9 214.9,449.9 
		214.8,450 214.7,450 214.5,450 214.4,449.9 214.4,449.9 214.2,449.9 214.2,449.9 214.1,449.9 214,449.8 207.1,448.9 208.1,439.6 
		208.4,439.7 208.7,439.7 209,439.8 209.3,439.8 209.7,439.8 210,439.9 210.4,439.9 210.7,440 211.1,440 211.4,440.1 211.8,440.2 
		212.1,440.3 212.5,440.3 212.8,440.4 213.1,440.5 213.5,440.6 213.5,440.4 213.6,440.1 213.6,439.8 213.7,439.6 213.7,439.3 
		213.8,439 213.8,438.8 213.9,438.4 213.9,438.2 214,437.9 214,437.6 214,437.4 214,437 214.1,436.7 214.1,436.4 214.1,436 
		213.5,436 212.9,435.9 212.5,435.8 212,435.7 211.6,435.6 211.2,435.5 210.8,435.4 210.5,435.4 210.1,435.3 209.9,435.2 
		209.6,435.2 209.3,435.2 209.1,435.2 208.9,435.1 208.6,435.1 208.5,435.1 209.3,427.4 	"/>
	<polygon class="st2" points="382.8,441.7 382.4,441.4 382.2,441.2 381.9,441.1 381.6,440.8 381.3,440.6 381,440.5 380.8,440.3 
		380.5,440.1 380.2,440 379.9,439.8 379.6,439.7 379.3,439.6 379,439.5 378.7,439.3 378.7,441.7 378.7,442.1 378.7,442.5 
		378.7,442.8 378.7,443 378.6,443.3 378.6,443.6 378.5,443.8 378.4,444 378.3,444.2 378.2,444.3 378.1,444.5 377.9,444.6 
		377.7,444.7 377.6,444.8 377.3,444.9 377.2,444.9 375.8,444.6 374.6,443.9 373.4,442.8 372.4,441.5 371.5,439.9 370.7,438.2 
		370.1,436.3 369.6,434.4 369.2,432.4 369.1,430.5 369,428.7 369.2,427.1 369.5,425.7 369.9,424.5 370.6,423.7 371.4,423.2 
		371.7,423.2 371.9,423.2 372.2,423.2 372.6,423.2 372.9,423.2 373.3,423.3 373.6,423.4 374.1,423.5 374.3,423.7 374.7,423.9 
		375,424.2 375.3,424.5 375.4,425 375.6,425.4 375.7,426 375.7,426.6 377.9,422.1 377.9,422 377.9,422 377.9,421.9 377.9,421.8 
		377.9,421.7 377.9,421.7 377.9,421.6 377.9,421.5 377.9,421.5 377.9,421.4 377.9,421.3 377.3,420.8 376.5,420.3 375.6,419.8 
		374.6,419.4 373.4,419.1 372.2,418.8 371.1,418.8 369.9,419 368.8,419.4 367.8,420 366.8,420.9 366,422.1 365.4,423.6 365,425.6 
		364.8,427.9 364.9,430.6 365.2,433.8 365.7,436.6 366.3,439.1 367.1,441.2 367.9,443 368.8,444.7 369.8,445.9 370.9,447 
		371.9,447.9 372.8,448.6 373.8,449.1 374.8,449.4 375.6,449.7 376.4,449.8 377,449.8 377.6,449.7 377.8,449.6 378.3,449.4 
		378.7,449.3 379.2,449.1 379.7,448.7 380.1,448.4 380.6,448 381.1,447.6 381.6,447.1 382,446.5 382.4,445.9 382.7,445.3 383,444.6 
		383.2,443.8 383.3,443 383.4,442.1 383,441.9 	"/>
	<polygon class="st2" points="131.9,168.5 132.1,168.6 132.3,168.7 132.5,168.8 132.6,169 132.8,169.1 132.9,169.3 133,169.4 
		133.1,169.6 133.2,169.8 133.3,170 133.4,170.1 133.4,170.4 133.4,170.6 133.4,170.7 133.3,201.4 133.3,201.6 133.3,201.8 
		133.2,202 133.1,202.1 133.1,202.3 133.1,202.5 133,202.7 133,202.9 132.9,203 132.9,203.1 132.8,203.4 132.7,203.5 132.6,203.7 
		132.6,203.8 132.5,203.9 132.4,204 138.8,199.6 138.6,199.5 138.5,199.5 138.5,199.4 138.4,199.3 138.2,199.2 138.2,199.1 
		138.1,199.1 138.1,199 138,198.9 138,198.8 138,198.6 138,198.6 138,198.4 138,198.3 138,198.2 138,198 138,181.3 138.5,181 
		139,180.7 139.6,180.4 140.1,180.2 140.7,179.9 141.2,179.7 141.7,179.5 142.2,179.3 142.8,179 143.2,178.9 143.8,178.7 
		144.3,178.6 144.8,178.5 145.3,178.4 145.8,178.2 146.3,178.1 146.3,177.9 146.3,177.6 146.3,177.3 146.3,177.1 146.3,176.7 
		146.3,176.5 146.2,176.2 146.2,175.8 146.1,175.5 146.1,175.2 146,174.9 145.9,174.6 145.8,174.3 145.8,173.9 145.6,173.6 
		145.5,173.2 142.9,174.6 142.8,174.6 142.8,174.7 142.6,174.7 142.4,174.8 142.2,174.9 141.9,175 141.6,175.1 141.2,175.2 
		140.9,175.4 140.5,175.6 140.1,175.7 139.6,175.9 139.2,176.1 138.7,176.3 138.2,176.5 137.7,176.7 137.7,176.2 137.7,175.7 
		137.7,175.2 137.7,174.7 137.7,174.2 137.8,173.8 137.8,173.4 137.8,173 137.9,172.6 138,172.2 138,171.8 138.1,171.5 138.1,171.1 
		138.2,170.7 138.4,170.4 138.5,169.9 139.7,169.3 140.8,168.8 141.8,168.3 142.8,167.7 143.6,167.3 144.3,166.9 145,166.5 
		145.5,166.1 146.1,165.8 146.6,165.6 147.1,165.4 147.5,165.2 147.9,165.1 148.2,165 148.5,165 148.9,165 148.8,159.7 148.4,159.9 
		148.1,160.2 147.7,160.4 147.3,160.6 146.9,160.8 146.5,161 146.1,161.2 145.8,161.4 145.3,161.6 145,161.8 144.5,162 144.1,162.1 
		143.7,162.3 143.3,162.5 143,162.6 142.7,162.8 142.1,163.1 141.6,163.4 141,163.6 140.4,163.9 139.9,164.2 139.3,164.5 
		138.6,164.8 138,165.1 137.3,165.4 136.6,165.8 135.9,166.1 135.1,166.5 134.3,167 133.4,167.5 132.5,167.9 131.5,168.4 
		131.8,168.5 	"/>
	<polygon class="st2" points="406.4,191.1 406.4,191.2 406.4,191.3 406.3,191.4 406.3,191.5 406.3,191.6 406.2,191.8 406.2,191.9 
		406.1,192 405.9,192.1 405.8,192.4 405.7,192.5 405.5,192.7 405.4,192.9 405.2,193.2 405,193.4 406.3,194.1 407.6,194.8 
		408.9,195.5 410.1,196.2 411.3,196.8 412.4,197.3 413.5,197.9 414.5,198.5 415.4,199 416.4,199.5 417.3,200 418.1,200.5 
		418.9,200.9 419.6,201.3 420.3,201.7 421,202.1 421.7,194.9 421.5,195.1 421.3,195.1 421,195.3 420.9,195.4 420.7,195.4 
		420.5,195.5 420.3,195.6 420.2,195.6 420.1,195.7 420,195.7 419.8,195.7 419.7,195.7 419.7,195.8 419.6,195.8 419.5,195.8 
		419.5,195.7 413.2,192.8 413,192.7 412.8,192.5 412.5,192.4 412.4,192.1 412.2,191.9 412.1,191.6 411.9,191.2 411.8,190.9 
		411.7,190.5 411.6,190 411.5,189.6 411.4,189.1 411.4,188.6 411.4,188 411.4,187.4 411.4,186.8 411.4,180.1 411.9,180.3 
		412.4,180.5 412.9,180.7 413.4,181 413.8,181.2 414.3,181.4 414.7,181.7 415.1,181.9 415.6,182.2 415.9,182.4 416.3,182.6 
		416.7,182.8 417,183.1 417.4,183.3 417.7,183.6 418.1,183.7 418.6,178.7 418.2,178.6 417.9,178.5 417.5,178.3 417.1,178.2 
		416.7,178 416.2,177.9 415.9,177.8 415.4,177.6 415.1,177.4 414.6,177.2 414.2,177 413.7,176.8 413.2,176.5 412.8,176.3 
		412.4,175.9 411.9,175.5 411.6,168.7 412.5,169.1 413.3,169.4 414.1,169.8 414.9,170.1 415.6,170.6 416.2,170.9 416.9,171.3 
		417.5,171.7 418.2,172 418.8,172.5 419.4,172.8 420,173.1 420.5,173.6 421,173.9 421.6,174.3 422.1,174.6 422.4,172.1 422.4,171.7 
		422.3,171.2 422.2,170.8 422,170.4 421.8,169.9 421.6,169.5 421.3,169.1 421,168.7 420.6,168.3 420.2,167.9 419.7,167.5 
		419.2,167.1 418.7,166.8 418.1,166.4 417.5,166.1 416.9,165.7 415.6,165 414.3,164.5 413.1,163.9 412,163.3 411,162.8 410,162.4 
		409.2,161.9 408.4,161.6 407.7,161.2 407.1,161 406.5,160.8 406.1,160.5 405.7,160.4 405.4,160.2 405.1,160.2 405,160.2 
		405.1,160.5 405.2,160.8 405.5,161.1 405.6,161.4 405.7,161.6 405.8,161.8 405.9,162.1 406,162.3 406.1,162.5 406.2,162.6 
		406.3,162.8 406.3,163 406.3,163.2 406.4,163.4 406.4,163.5 406.4,163.7 406.4,191 	"/>
	<polygon class="st2" points="329.1,437.8 329,437.9 328.9,437.9 328.9,437.9 328.8,437.9 328.8,437.9 328.7,437.9 328.7,438 
		328.7,438 328.7,438.1 328.7,438.1 328.7,438.2 328.7,438.2 328.7,442 328.9,443.5 329.1,443.4 329.3,443.3 329.5,443.1 329.7,443 
		329.9,442.9 330.1,442.8 330.3,442.7 330.6,442.7 330.8,442.7 331,442.6 331.3,442.6 331.5,442.6 331.7,442.6 331.9,442.6 
		332.2,442.6 332.4,442.6 332.5,442.6 332.5,442.6 332.6,442.7 332.6,442.7 332.7,442.7 332.8,442.7 332.8,442.8 332.8,442.9 
		332.8,442.9 332.8,443 332.8,443 332.8,443.2 332.8,443.2 332.8,443.3 332.8,443.3 332.8,443.4 332.8,449.7 332.6,450.2 
		332.4,450.5 332.2,450.8 331.9,451 331.7,451.1 331.4,451.2 331.1,451.3 330.8,451.2 330.4,451.2 330.1,451 329.8,450.9 
		329.5,450.7 329.3,450.5 329.1,450.2 328.8,450 328.7,449.6 328.2,448.9 327.8,447.9 327.3,446.5 326.9,444.9 326.4,443.2 
		326.1,441.2 325.8,439.2 325.7,437.3 325.6,435.4 325.7,433.5 325.9,431.9 326.3,430.5 326.8,429.4 327.6,428.7 328.5,428.3 
		329.7,428.5 329.8,428.6 330,428.7 330.1,428.8 330.3,429 330.4,429.2 330.6,429.4 330.8,429.6 330.9,430 331.1,430.3 331.2,430.7 
		331.4,431 331.5,431.5 331.7,431.9 331.8,432.4 331.9,432.9 332.2,433.4 332.9,432.6 333.5,431.8 334,431 334.5,430.4 334.8,429.6 
		335.1,429 335.2,428.5 335.2,427.9 335.2,427.3 335.1,426.8 334.8,426.3 334.5,425.8 334,425.3 333.5,424.9 332.8,424.4 
		332.1,423.9 331.4,423.7 330.8,423.4 330.1,423.2 329.3,423.1 328.4,423.1 327.6,423.2 326.7,423.4 325.8,423.7 325,424.2 
		324.2,424.8 323.4,425.6 322.8,426.6 322.1,427.8 321.6,429.2 321.2,430.8 321,432.5 320.7,434.2 320.7,436 320.7,437.7 
		320.8,439.7 321,441.5 321.2,443.5 321.6,445.4 322,447.2 322.6,448.9 323.3,450.6 324.1,452 325,453.3 326,454.4 327.1,455.3 
		328.5,455.9 329.9,456.1 330.6,456.1 331.4,456.1 332.1,455.9 332.8,455.6 333.6,455.3 334.2,454.9 334.9,454.5 335.4,454 
		336,453.5 336.5,453 337,452.4 337.3,451.8 337.6,451.4 337.9,450.8 338,450.3 338,449.9 337.2,437.3 	"/>
	<polygon class="st2" points="176.6,422.3 176.9,422.4 177.1,422.5 177.4,422.6 177.6,422.7 177.9,422.9 178.1,423 178.3,423.1 
		178.5,422.9 178.7,422.6 178.8,422.3 178.9,421.9 179,421.5 179.1,421.2 179.2,420.8 179.2,420.4 179.3,420 179.3,419.7 
		179.3,419.3 179.3,419 179.3,418.7 179.3,418.4 179.3,418.2 179.2,418 164.1,414.8 163.9,415.2 163.8,415.6 163.7,415.9 
		163.6,416.3 163.5,416.7 163.5,417 163.4,417.3 163.4,417.6 163.3,417.9 163.2,418.2 163.2,418.5 163.2,418.7 163.2,419 
		163.2,419.2 163.2,419.4 163.3,419.6 164.9,419.4 165.1,419.5 165.2,419.5 165.4,419.5 165.6,419.5 165.9,419.5 166.1,419.6 
		166.4,419.7 166.6,419.7 167,419.8 167.2,419.9 167.5,420 167.8,420.1 168,420.2 168.3,420.4 168.6,420.6 168.9,420.7 164.6,443 
		164.6,443.3 164.5,443.5 164.5,443.7 164.4,443.9 164.3,444.1 164.3,444.2 164.2,444.3 164.1,444.6 164,444.7 163.8,444.9 
		163.7,445 163.5,445.1 163.4,445.3 163.2,445.4 162.9,445.6 162.7,445.7 168.7,447.3 168.6,447.2 168.6,447 168.6,446.9 
		168.6,446.7 168.6,446.5 168.6,446.3 168.6,446.2 168.6,446 168.6,445.8 168.6,445.7 168.6,445.5 168.6,445.4 168.6,445.2 
		168.6,445.1 168.6,444.9 168.7,444.8 168.7,444.5 168.8,443.7 169.1,442.6 169.4,441.1 169.7,439.4 170.2,437.5 170.5,435.5 
		171,433.4 171.5,431.4 171.9,429.3 172.3,427.4 172.7,425.7 173,424.2 173.3,423 173.5,422.2 173.7,421.7 174,421.8 174.4,421.8 
		174.7,421.9 175,421.9 175.4,422 175.7,422.1 176,422.1 176.3,422.2 	"/>
	<polygon class="st2" points="256.5,427 256.5,426.6 239.9,425.4 239.9,426 239.8,426.4 239.8,426.9 239.8,427.3 239.8,427.7 
		239.8,428 239.8,428.3 239.9,428.7 239.9,429 239.9,429.3 239.9,429.5 240,429.7 240,429.9 240.1,430.1 240.2,430.3 240.2,430.4 
		240.5,430.4 240.8,430.3 241.2,430.3 241.5,430.3 241.8,430.2 242.1,430.2 242.4,430.2 242.8,430.2 243.1,430.2 243.4,430.3 
		243.8,430.3 244.2,430.3 244.5,430.4 244.9,430.4 245.3,430.5 245.8,430.6 245.2,454.6 245.1,454.9 245.1,455.1 245.1,455.2 
		245.1,455.3 245.1,455.5 245,455.6 245,455.8 245,455.9 244.9,456.1 244.8,456.2 244.8,456.4 244.6,456.6 244.5,456.8 244.3,457 
		244.2,457.2 244,457.5 250.4,457.5 250.3,457.2 250.1,456.9 250,456.7 249.9,456.5 249.9,456.4 249.7,456.1 249.7,456 249.6,455.8 
		249.6,455.7 249.6,455.5 249.6,455.3 249.6,455.2 249.6,455.1 249.6,454.9 249.6,454.7 249.6,454.5 250.4,430.8 250.8,430.7 
		251.2,430.7 251.7,430.7 252.1,430.7 252.5,430.7 252.9,430.8 253.3,430.8 253.6,430.9 254,430.9 254.4,431 254.7,431.2 
		255.1,431.3 255.4,431.5 255.8,431.6 256.1,431.7 256.5,431.8 256.5,431.6 256.5,431.3 256.5,431 256.6,430.7 256.6,430.4 
		256.6,430.1 256.6,429.8 256.6,429.4 256.6,429.1 256.6,428.8 256.6,428.4 256.6,428 256.6,427.7 256.5,427.3 	"/>
	<polygon class="st2" points="281.6,426.7 282.3,428.5 283.4,456.5 283.4,456.6 283.4,456.7 283.4,456.8 283.3,456.9 283.3,456.9 
		283.2,457 283.2,457.1 283.1,457.2 283,457.3 282.9,457.5 282.9,457.5 282.7,457.7 282.6,457.8 282.5,458 282.3,458.1 289,458.1 
		288.9,458 288.8,457.9 288.6,457.7 288.5,457.6 288.5,457.5 288.4,457.3 288.3,457.2 288.3,457.1 288.2,456.9 288.2,456.9 
		288.2,456.7 288.1,456.6 288.1,456.5 288.1,456.4 288,456.3 288,456.1 287.9,455.8 287.8,455.3 287.7,454.8 287.7,454.3 
		287.6,453.7 287.6,453.1 287.6,452.4 287.5,451.7 287.5,450.9 287.5,450 287.5,449.1 287.5,448 287.5,446.9 287.5,445.7 
		287.5,444.4 287.5,443 287.8,442.9 288.1,442.9 288.4,442.8 288.8,442.7 289.2,442.7 289.6,442.7 290,442.7 290.4,442.7 
		290.8,442.7 291.2,442.7 291.6,442.7 292,442.8 292.4,442.8 292.7,442.9 293,443 293.3,443 293.5,438.2 293.3,438.2 292.9,438.3 
		292.6,438.4 292.2,438.4 291.9,438.4 291.4,438.5 291,438.6 290.6,438.6 290.1,438.7 289.7,438.7 289.2,438.7 288.8,438.7 
		288.4,438.7 288,438.7 287.7,438.7 287.4,438.6 287.3,438.2 287.2,437.6 287.1,437.1 287.1,436.7 287.1,436.2 287.1,435.8 
		287.1,435.3 287.1,434.9 287.1,434.4 287.1,434 287.1,433.6 287.1,433.1 287.1,432.7 287.1,432.3 287.1,431.9 287.1,431.5 
		295.5,431.5 295.5,431.5 295.6,431.5 295.6,431.5 295.7,431.5 295.7,431.5 295.8,431.5 295.9,431.5 296,431.6 296.1,431.6 
		296.2,431.6 296.3,431.7 296.4,431.7 296.5,431.8 296.7,431.9 296.9,432 297.1,432.1 296.3,426.7 	"/>
	<polygon class="st2" points="366.3,451.6 366.2,451.5 366.1,451.4 366,451.3 366,451.1 365.9,451 365.9,450.8 365.8,450.7 
		365.7,450.5 365.7,450.4 365.5,450.2 365.5,450 365.4,449.9 365.4,449.6 365.3,449.4 360.8,424.5 360.7,423.9 360.7,423.5 
		360.6,423.1 360.6,422.7 360.6,422.4 360.6,422.1 360.6,421.9 360.6,421.6 360.6,421.4 360.7,421.3 360.7,421.1 360.8,421 
		360.8,420.8 360.9,420.7 360.9,420.7 361,420.5 361,420.5 360.9,420.5 360.7,420.5 360.4,420.5 360.1,420.5 359.9,420.5 
		359.5,420.6 359.1,420.6 358.6,420.6 358.2,420.7 357.7,420.7 357.2,420.8 356.7,420.9 356.3,421 355.8,421.1 355.3,421.3 
		360.6,450.2 360.6,450.5 360.6,450.6 360.6,450.7 360.7,450.8 360.7,450.9 360.7,451 360.7,451.2 360.7,451.3 360.7,451.4 
		360.7,451.5 360.7,451.7 360.7,451.8 360.7,452 360.7,452.2 360.6,452.4 360.6,452.7 366.4,451.7 366.3,451.7 	"/>
	<polygon class="st2" points="381.3,183 381.3,183 381.4,183 381.4,183 381.5,183 381.5,183 381.6,183 381.6,183 381.6,183 
		381.7,183 381.7,182.9 381.8,182.9 381.9,182.9 381.9,182.8 381.9,182.8 381.9,182.7 381.7,179 381.6,175.6 381.6,172.5 
		381.5,169.5 381.4,166.8 381.4,164.2 381.4,162 381.3,159.9 381.3,158.1 381.3,156.6 381.3,155.2 381.3,154.1 381.4,153.2 
		381.4,152.5 381.4,152.1 381.5,151.9 382.1,150.9 375.8,148.2 376,148.6 376.2,148.9 376.3,149.2 376.4,149.5 376.5,149.8 
		376.6,150 376.7,150.2 376.8,150.4 376.8,150.6 376.8,150.8 376.8,151 376.8,151.3 376.8,151.5 376.8,151.7 376.8,151.9 
		376.9,152.2 377,178.4 377,178.5 377,178.7 376.9,178.8 376.9,179 376.8,179.2 376.8,179.3 376.8,179.5 376.7,179.6 376.5,179.8 
		376.5,179.9 376.4,180.1 376.3,180.2 376.2,180.4 376,180.6 375.8,180.8 375.7,180.9 381.3,182.9 	"/>
	<path class="st2" d="M112.2,361.6l1.1,2.1l1.6,1.7l1.9,1.4l2.1,1l2.4,0.8l2.5,0.5l2.6,0.1l2.6-0.1l2.6-0.4l2.4-0.6l2.4-0.8l2.1-1
		l1.8-1.2l1.5-1.3l1.1-1.5l0.2-0.6l0.1-0.7l0.1-0.6l0.1-0.6l0.1-0.6v-0.6v-0.6v-0.6l-0.1-0.6l-0.1-0.5l-0.1-0.5l-0.1-0.6l-0.1-0.6
		l-0.2-0.5l-0.1-0.6l-0.2-0.6l-0.2,0.1l-0.2,0.1l-0.2,0.1l-0.2,0.1l-0.2,0.1l-0.1,0.1l-0.2,0.1l-0.1,0.1l-0.2,0.1l-0.2,0.1l-0.1,0.1
		l-0.2,0.1h-0.2h-0.2l-0.2,0.1h-0.1l-25.6-0.3h-0.1h-0.2H114h-0.2h-0.1h-0.2l-0.2-0.1h-0.2l-0.2-0.1l-0.2-0.1l-0.2-0.1l-0.2-0.1
		l-0.2-0.1l-0.2-0.1l-0.2-0.1l-0.1-0.1l-0.1,0.2l-0.1,0.2l-0.1,0.3v0.3l-0.1,0.3l-0.1,0.3l-0.1,0.4l-0.1,0.4v0.4v0.5l-0.1,0.4v0.5
		v0.5v0.5v0.5l0.1,0.4L112.2,361.6z M117.1,357.9l1.3-0.1l1.3-0.1h1.4l1.4-0.1h1.5l1.4,0.1l1.6,0.1l1.4,0.1l1.5,0.1l1.4,0.1l1.5,0.1
		l1.4,0.1l1.4,0.2l1.4,0.1l1.3,0.1l0.1,0.5l0.1,0.5l-0.1,0.5l-0.2,0.4l-0.2,0.4l-0.3,0.4l-0.4,0.4l-0.5,0.4l-0.5,0.4l-0.6,0.3
		l-0.7,0.4l-0.8,0.3l-0.9,0.3l-1,0.3l-1.1,0.3l-1.1,0.2l-0.9,0.1l-0.9,0.1l-1,0.1h-1.1l-1.1-0.1l-1.1-0.1l-1.2-0.2l-1.1-0.3
		l-1.1-0.3l-1-0.4l-1-0.6l-0.9-0.6l-0.8-0.8l-0.6-1l-0.5-1.1l-0.3-1.3L117.1,357.9z"/>
	<path class="st2" d="M117.7,393.3l0.8-0.1l0.8-0.1h0.8h0.9h0.9h0.9h1l1,0.1l0.2,1l0.3,1l0.3,0.9l0.4,0.9l0.4,0.8l0.4,0.8l0.4,0.7
		l0.5,0.6l0.5,0.5l0.5,0.5l0.6,0.5l0.6,0.4l0.6,0.4l0.8,0.3l0.7,0.3l0.8,0.3l1.3,0.1h1.2l1.2-0.1l1-0.2l1-0.3l0.9-0.4l0.8-0.4
		l0.8-0.5l0.6-0.5l0.6-0.5l0.5-0.5l0.4-0.6l0.4-0.6l0.3-0.6l0.2-0.5l0.2-0.6v-0.3l0.1-0.3l0.1-0.2v-0.3l0.1-0.3v-0.2l0.1-0.2v-0.3
		l-0.1-0.2v-0.3v-0.2l-0.1-0.2v-0.2l-0.1-0.2v-0.2V393l-1.4-8.2l-0.3,0.2l-0.2,0.2l-0.2,0.2l-0.2,0.2l-0.2,0.1l-0.2,0.1l-0.2,0.1
		l-0.2,0.1l-0.2,0.1l-0.2,0.1l-0.2,0.1l-0.3,0.1h-0.2l-0.2,0.1h-0.2h-0.2l-19.6,2.1l-6.1,0.3h-0.2h-0.1h-0.1h-0.2H113h-0.2h-0.1
		h-0.2h-0.1h-0.2h-0.2H112l-0.2-0.1l-0.2-0.1l-0.2-0.1l-0.2-0.1l-0.1,0.2v0.2v0.3l0.1,0.4l0.1,0.3l0.1,0.5l0.1,0.5l0.2,0.5l0.1,0.5
		l0.1,0.5l0.1,0.5l0.2,0.5l0.1,0.5l0.1,0.4l0.2,0.4l0.2,0.3l0.5-0.3l0.6-0.2l0.6-0.2l0.6-0.2l0.6-0.2l0.7-0.2l0.7-0.2L117.7,393.3z
		 M138.7,391.5l0.2,0.1l0.2,0.1l0.1,0.1l0.2,0.3l0.1,0.3l0.1,0.4v0.4v0.4l-0.1,0.5l-0.1,0.4l-0.1,0.4l-0.2,0.4l-0.2,0.4l-0.2,0.4
		l-0.3,0.3l-0.3,0.3l-0.5,0.4l-0.6,0.3l-0.6,0.3l-0.6,0.1l-0.7,0.1h-0.6l-0.6-0.1l-0.6-0.2l-0.6-0.3l-0.6-0.4l-0.5-0.4l-0.5-0.6
		l-0.3-0.6l-0.3-0.8l-0.2-0.9l-0.1-1.1L138.7,391.5z"/>
	<path class="st2" d="M136.6,419.9l1.4-1.5l1.3-1.6l1.4-1.6l1.4-1.6l1.4-1.6l1.3-1.4l1.3-1.3l1.1-1.2l1.1-1l0.9-0.8l0.8-0.7
		l-0.2-0.3l-0.2-0.3l-0.3-0.3l-0.2-0.4l-0.2-0.3l-0.2-0.4l-0.3-0.4l-0.2-0.3l-0.2-0.4l-0.2-0.4l-0.3-0.3l-0.2-0.3l-0.3-0.3l-0.3-0.3
		l-0.3-0.3l-0.2-0.2l-0.2,0.2l-0.1,0.2l-0.2,0.2l-0.1,0.2l-0.2,0.2l-0.2,0.2l-0.2,0.1l-0.2,0.2l-0.2,0.1l-0.2,0.1l-0.2,0.2l-0.2,0.1
		l-0.2,0.1l-0.3,0.1h-0.2l-0.2,0.1l-2.9,0.7l-20.4,4.8l-0.2,0.1h-0.2h-0.2h-0.2h-0.2h-0.3l-0.2-0.1l-0.3-0.1l-0.3-0.1l-0.2-0.1h-0.3
		l-0.2-0.1l-0.3-0.1l-0.2-0.1l-0.2-0.1l-0.2-0.2l0.1,0.2l0.1,0.3l0.1,0.3l0.1,0.2l0.1,0.3l0.1,0.3l0.1,0.3l0.2,0.4l0.2,0.4l0.2,0.4
		l0.2,0.5l0.3,0.5l0.3,0.5l0.3,0.6l0.4,0.7l0.4,0.7l0.2-0.1l0.2-0.1l0.2-0.1l0.3-0.1l0.2-0.1l0.3-0.1l0.3-0.1l0.3-0.1l0.3-0.1
		l0.3-0.1l0.3-0.1l0.3-0.1l0.4-0.1l0.4-0.1h0.4l0.4-0.1l0.3,0.5l0.3,0.5l0.3,0.5l0.3,0.4l0.2,0.4l0.2,0.3l0.2,0.4l0.2,0.3l0.2,0.3
		l0.2,0.3l0.2,0.3l0.2,0.2l0.1,0.2l0.2,0.2l0.1,0.1l0.2,0.1l1.8,2.1l-0.1,0.3l-0.2,0.3l-0.1,0.3l-0.2,0.3l-0.2,0.3l-0.2,0.3
		l-0.3,0.3l-0.2,0.3l-0.3,0.3l-0.3,0.3l-0.3,0.3l-0.3,0.2l-0.3,0.2l-0.3,0.2l-0.3,0.2l-0.2,0.2l0.1,0.2l0.2,0.3l0.2,0.3l0.3,0.3
		l0.3,0.4l0.3,0.4l0.3,0.3l0.3,0.4l0.3,0.4l0.3,0.4l0.3,0.3l0.3,0.3l0.4,0.3l0.3,0.2l0.3,0.2l0.3,0.1v-0.1l0.1-0.1v-0.1l0.1-0.2
		v-0.1l0.1-0.2l0.1-0.2l0.1-0.2v-0.2l0.1-0.2l0.1-0.2l0.1-0.1l0.1-0.2l0.1-0.2l0.1-0.1l0.1-0.2l0.7-1l1-1.2l1.1-1.3l1.2-1.4
		L136.6,419.9z M134.3,416.2l-0.4,0.5l-0.4,0.3l-0.2,0.3l-0.4-0.4l-0.3-0.4l-0.3-0.3l-0.3-0.4l-0.3-0.4l-0.3-0.3l-0.3-0.3l-0.2-0.4
		l-0.3-0.3l-0.3-0.4l-0.2-0.4l-0.2-0.4l-0.3-0.4l-0.3-0.4l-0.3-0.4l-0.2-0.4l13.1-3.5l-0.2,0.4l-0.3,0.4l-0.5,0.5l-0.5,0.6l-0.6,0.7
		l-0.7,0.8l-0.7,0.8l-0.8,0.8l-0.8,0.8l-0.7,0.7l-0.7,0.7l-0.6,0.7L134.3,416.2z"/>
	<path class="st2" d="M161,415.7l-0.7-1.3l-0.9-1.4l-1.3-1.3l-1.5-1.3l-4.8-3.9v0.3l0.1,0.3v0.2v0.2v0.2l-0.1,0.2l-0.1,0.1v0.2
		l-0.1,0.2l-0.1,0.1l-0.1,0.1l-0.1,0.2l-0.1,0.1l-0.1,0.2l-0.1,0.1v0.2l-0.1,0.2l-0.2,0.3L151,410l-0.3,0.5l-0.4,0.6l-0.5,0.8
		l-0.5,0.8l-0.6,1l-0.8,1.1l-0.8,1.1l-0.9,1.3l-1,1.4l-1.1,1.5l-1.1,1.6l-1.2,1.7l-1.3,1.8l-3.5,4.6l-0.1,0.2L137,430l-0.1,0.2
		l-0.2,0.2l-0.1,0.1l-0.2,0.2l-0.1,0.1l-0.2,0.2l-0.2,0.1l-0.2,0.2l-0.2,0.2l-0.2,0.1l-0.3,0.1l-0.3,0.1l-0.3,0.1l-0.2,0.1l0.2,0.3
		l0.3,0.4l0.4,0.3l0.4,0.3l0.4,0.4l0.5,0.4l0.4,0.3l0.4,0.3l0.5,0.3l0.4,0.3l0.4,0.3l0.3,0.2l0.3,0.2l0.2,0.1l0.3,0.1h0.1l-0.1-0.4
		v-0.4l0.1-0.3l0.1-0.3l0.1-0.3l0.1-0.3l0.2-0.3l0.1-0.3l0.2-0.3l0.2-0.4l0.3-0.4l0.3-0.4l0.3-0.4l0.3-0.5l0.4-0.5l0.4-0.6l0.1-0.2
		l0.2-0.2l0.1-0.2l0.2-0.2l0.2-0.2l0.1-0.3l0.2-0.2l0.2-0.3l0.2-0.3l0.2-0.3l0.2-0.3l0.2-0.3l0.3-0.4l0.3-0.4l0.3-0.4l0.3-0.4
		l0.2,0.1l0.2,0.2l0.2,0.1l0.2,0.1l0.2,0.1l0.3,0.1l0.2,0.1l0.2,0.1l0.2,0.1l0.2,0.1l0.2,0.1h0.2l0.3,0.1l0.2,0.1l0.2,0.1l0.3,0.1
		l-0.6,12.1v0.2v0.1v0.2v0.1v0.2v0.1l-0.1,0.2l-0.1,0.1l-0.1,0.2l-0.1,0.1l-0.1,0.1l-0.1,0.1l-0.1,0.1l-0.2,0.1l-0.2,0.1l-0.2,0.1
		l0.5,0.3l0.5,0.2l0.5,0.3l0.4,0.2l0.5,0.2l0.4,0.1l0.4,0.2l0.3,0.1l0.3,0.1l0.3,0.1l0.2,0.1l0.3,0.1l0.2,0.1l0.2,0.1l0.2,0.1
		l0.2,0.1l-0.1-0.2l-0.1-0.2v-0.2l-0.1-0.2l-0.1-0.2v-0.2l-0.1-0.2v-0.1v-0.2v-0.1v-0.1v-0.1V441v-0.1v-0.1l0.1-0.1v-0.1v-0.2v-0.3
		l0.1-0.4v-0.5l0.1-0.5v-0.6l0.1-0.8l0.1-0.9l0.1-1l0.1-1.1l0.1-1.1l0.1-1.3l0.1-1.3l0.1-1.4l0.1-1.6l1.5-0.4l1.3-0.5l1.3-0.7
		l1.2-0.8l1-0.9l0.9-1l0.6-1.1l0.5-1.1l0.3-1.3l0.1-1.3l-0.2-1.3L161,415.7z M156.5,418.7l-0.1,0.6l-0.2,0.6l-0.3,0.6l-0.4,0.5
		l-0.4,0.5l-0.5,0.4l-0.6,0.4l-0.6,0.2l-0.6,0.2l-0.7,0.1l-0.7-0.1l-0.8-0.2l-0.7-0.3l-0.1-0.1l-0.1-0.1l-0.2-0.1l-0.1-0.1l-0.1-0.1
		l-0.1-0.1l-0.1-0.1l-0.1-0.1h-0.1l-0.1-0.1l-0.1-0.1v-0.1v-0.1l-0.1-0.1v-0.2l0.1-0.3l0.2-0.4l0.3-0.5l0.3-0.5l0.3-0.6l0.4-0.6
		l0.4-0.6l0.4-0.6l0.4-0.6l0.4-0.5l0.4-0.5l0.3-0.4l0.2-0.3l0.2-0.2l0.2-0.1l0.2,0.1h0.2l0.3,0.1l0.2,0.1l0.2,0.1l0.3,0.2l0.2,0.1
		l0.2,0.2l0.2,0.1l0.2,0.2l0.1,0.2l0.2,0.2l0.1,0.2l0.1,0.2l0.1,0.2l0.2,0.2l0.2,0.6l0.1,0.7L156.5,418.7L156.5,418.7z"/>
	<path class="st2" d="M279.4,436l-0.7-2.9l-1-2.6l-1.3-2.2l-1.6-1.6l-1.9-1l-2.3-0.2l-0.8,0.2l-0.8,0.2l-0.7,0.3l-0.6,0.3l-0.6,0.4
		l-0.6,0.5l-0.5,0.5l-0.5,0.6l-0.5,0.7l-0.4,0.8l-0.4,0.9l-0.4,0.9l-0.4,1L263,434l-0.3,1.1l-0.2,1.2l-0.2,0.8l-0.1,0.7l-0.1,0.7
		l-0.1,0.8l-0.1,0.8v0.8v0.8v0.8v0.8l0.1,0.8l0.1,0.9l0.1,0.9l0.1,0.9l0.2,0.9l0.2,0.9l0.2,0.9l0.2,1l0.2,0.9l0.3,0.9l0.3,0.8
		l0.3,0.7l0.3,0.7l0.4,0.6l0.4,0.6l0.5,0.5l0.4,0.5l0.5,0.4l0.5,0.4l0.5,0.3l0.6,0.2l0.6,0.2l0.7,0.2l2.3,0.1l2-0.8l1.7-1.4l1.5-2.1
		l1.1-2.5l0.9-2.8l0.5-3.1l0.2-3.2l-0.1-3.2L279.4,436z M274.8,445.7l-0.3,1.9l-0.5,1.8l-0.6,1.6l-0.8,1.2l-1,0.9l-1.2,0.4l-1-0.5
		l-0.8-0.9l-0.6-1.2l-0.5-1.4l-0.4-1.7l-0.2-1.8l-0.2-1.9l0.1-1.9l0.1-2l0.3-1.8l0.3-1.8l0.4-1.6l0.5-1.3l0.5-1.1l0.7-0.8l0.7-0.4
		l0.9,0.1l0.8,0.5l0.8,0.9l0.6,1.3l0.5,1.6l0.4,1.8l0.3,1.9l0.2,2l0.1,2.1L274.8,445.7z"/>
	<path class="st2" d="M321.5,456.4l-0.1-0.1l-0.1-0.1l-0.1-0.1l-0.1-0.1l-0.2-0.1l-0.1-0.1l-0.1-0.2l-0.1-0.1l-0.1-0.2l-0.1-0.1
		l-0.1-0.2l-0.1-0.1V455v-0.2l-0.4-0.9l-0.4-1.2l-0.4-1.3l-0.4-1.4l-0.5-1.4l-0.4-1.6l-0.5-1.7l-0.5-1.7l-0.4-1.7l-0.5-1.6l-0.4-1.6
		l-0.4-1.6l-0.4-1.4l-0.4-1.3l-0.4-1.2l-0.3-1.1l-0.2-0.5l-0.2-0.5l-0.1-0.5l-0.2-0.4l-0.1-0.4l-0.1-0.5l-0.1-0.4l-0.1-0.4l-0.1-0.3
		l-0.1-0.4l-0.1-0.4l-0.1-0.3l-0.1-0.3v-0.3l-0.1-0.3v-0.3l-0.3-0.1l-0.3-0.1h-0.3h-0.3l-0.3-0.1h-0.3l-0.3,0.1h-0.3l-0.3,0.1
		l-0.3,0.1l-0.3,0.1l-0.3,0.1l-0.4,0.1l-0.3,0.1l-0.3,0.1l-0.3,0.2l0.1,0.3l0.1,0.3l0.1,0.2l0.1,0.3l0.1,0.3v0.3v0.3v0.3v0.3v0.3
		v0.3v0.4l-0.1,0.4l-0.1,0.3l-0.1,0.5l-0.1,0.4l-5,23.6l-0.1,0.2l-0.1,0.2v0.2l-0.1,0.2l-0.1,0.1l-0.1,0.2l-0.1,0.2l-0.1,0.1
		l-0.1,0.2l-0.1,0.2l-0.2,0.2l-0.1,0.2l-0.2,0.2l-0.2,0.2l-0.2,0.2l-0.2,0.3h5.9l1.1-4.6l7.4-0.3l0.8,4l5.9-0.5L321.5,456.4
		L321.5,456.4L321.5,456.4z M313.4,448l-0.3,0.1h-0.3l-0.3,0.1l-0.4,0.1l-0.3,0.1h-0.3h-0.3h-0.3h-0.4h-0.3l-0.3-0.1l-0.3-0.1
		l-0.3-0.1l-0.3-0.1l-0.3-0.1l2.3-9.5l2.8,9.5L313.4,448z"/>
	<path class="st2" d="M358.6,452.5l-0.2-0.2l-0.2-0.2l-0.1-0.2l-0.2-0.2l-0.2-0.3l-0.1-0.2l-0.2-0.3l-0.1-0.3l-0.2-0.3l-0.1-0.3
		l-0.2-0.3l-0.1-0.3l-0.1-0.3l-0.1-0.3l-2.7-6.8l-1.8-3.9l0.1-0.2l0.2-0.2l0.1-0.2l0.2-0.2l0.1-0.1l0.2-0.2l0.1-0.2l0.2-0.2l0.1-0.2
		l0.2-0.2l0.1-0.2l0.2-0.2l0.1-0.2l0.1-0.2l0.1-0.2l0.1-0.2l0.4-0.8l0.3-1l0.3-1l0.1-1.1v-1.1l-0.1-1.2l-0.3-1.1l-0.4-1.1L354,426
		l-0.8-1l-0.9-0.9l-1.2-0.8l-1.4-0.5l-1.6-0.3l-1.9-0.1l-2.1,0.1l-3.1,0.3l-3.2,0.3l0.1,0.3l0.2,0.3l0.1,0.3l0.2,0.4l0.1,0.4
		l0.2,0.5l0.1,0.5l0.2,0.5l0.1,0.5l0.2,0.6l0.1,0.6l0.1,0.7l0.1,0.8l0.1,0.7l0.1,0.8l0.1,0.9l0.3,2.5l0.3,2.3l0.3,2.1l0.2,1.9
		l0.2,1.8l0.2,1.6l0.2,1.5l0.1,1.3l0.1,1.2l0.1,1l0.1,0.9l0.1,0.8l0.1,0.7v0.5v0.4v0.3l-0.1,0.2v0.2v0.2l-0.1,0.2v0.2l-0.1,0.2v0.2
		v0.1l-0.1,0.2l-0.1,0.2l-0.1,0.2l-0.1,0.1v0.1l-0.1,0.1l-0.1,0.1l-0.1,0.1l6.9-0.5l-0.2-0.1l-0.1-0.1l-0.1-0.2l-0.1-0.1l-0.1-0.2
		l-0.1-0.1l-0.1-0.2l-0.1-0.2l-0.1-0.2l-0.1-0.2l-0.1-0.1l-0.1-0.2v-0.1l-0.1-0.1v-0.1v-0.1l-0.2-0.8l-0.1-0.8l-0.2-0.7l-0.1-0.7
		l-0.1-0.6l-0.1-0.7l-0.1-0.6l-0.1-0.6l-0.1-0.6v-0.6v-0.6v-0.6v-0.6V443v-0.8l0.1-0.7v-0.1h0.1v-0.1v-0.1h0.1h0.1h0.1h0.1h0.1
		l0.1-0.1l0.5,0.3l0.4,0.3l0.4,0.4l0.5,0.5l0.4,0.5l0.4,0.6l0.4,0.6l0.4,0.8l0.3,0.8l0.4,0.9l0.4,1l0.3,1.1l0.4,1.1l0.3,1.1l0.3,1.3
		l0.3,1.3l0.5-0.1l0.5-0.1l0.5-0.1l0.5-0.1l0.5-0.1l0.5-0.1l0.4-0.1l0.5-0.1h0.3l0.4-0.1l0.4-0.1l0.3-0.1l0.3-0.1h0.2l0.2-0.1
		l0.2-0.1l-0.2-0.1L358.6,452.5z M350.4,431.7l-0.2,0.9l-0.3,0.8l-0.3,0.8l-0.5,0.7l-0.7,0.5l-0.8,0.4l-1,0.2h-1.2l-1.4-9l3.5-0.1
		l0.6,0.2l0.6,0.3l0.5,0.5l0.4,0.6l0.4,0.8l0.2,0.8l0.1,0.9V431.7z"/>
	<path class="st2" d="M442.5,372.3l-0.1-0.3v-0.3l-0.1-0.3l-0.1-0.3l-0.1-0.3L442,371l-0.3,0.2l-0.3,0.2l-0.3,0.2l-0.4,0.1l-0.4,0.2
		l-0.4,0.1l-0.4,0.2l-0.4,0.1l-0.4,0.2l-0.5,0.1l-0.4,0.2l-0.5,0.1l-0.4,0.1l-0.4,0.1l-0.4,0.1l-0.7,0.2l-0.7,0.2l-0.6,0.2l-0.6,0.1
		l-0.6,0.2l-0.5,0.1L432,374l-0.5,0.1l-0.4,0.1l-0.4,0.1l-0.3,0.1l-0.3,0.1l-0.3,0.1l-0.2,0.1h-0.3h-0.1l-0.7-1.8l-1-1.5l-1.1-1.1
		l-1.3-0.9l-1.4-0.6l-1.4-0.3l-1.4-0.1l-1.4,0.2l-1.5,0.4l-1.3,0.6l-1.2,0.7l-1.1,0.9l-1,1l-0.6,1.1l-0.5,1.2l-0.1,1.2l0.1,11.4
		l0.3-0.2l0.4-0.1l0.3-0.2l0.3-0.1l0.3-0.1l0.2-0.1h0.3l0.2-0.1h0.2h0.2l0.3,0.1h0.2l0.2,0.1h0.2l0.3,0.1h0.3l23.7,2l0.1,0.1h0.2
		l0.2,0.1h0.2l0.2,0.1l0.1,0.1l0.2,0.1l0.1,0.1l0.2,0.1l0.1,0.1l0.2,0.1l0.1,0.2l0.2,0.1l0.1,0.1l0.2,0.2l0.2,0.1l0.2-7.1l-0.3,0.2
		l-0.4,0.1l-0.6,0.1l-0.7,0.1l-0.9,0.1h-0.9l-1.1-0.1l-1-0.1l-1.1-0.1l-1-0.1h-1l-1-0.1l-0.9-0.1l-0.8-0.1l-0.7-0.1h-0.4l0.1-2.6
		l1.1-0.3l1.1-0.2l1-0.2l1-0.2l1-0.2l0.9-0.2l0.8-0.2l0.8-0.2l0.8-0.2l0.7-0.1l0.6-0.1l0.6-0.1l0.6-0.1l0.5-0.1l0.5-0.1l0.4-0.1
		l0.1-0.8l0.1-0.7v-0.6l0.1-0.5l0.1-0.5v-0.4v-0.4v-0.3v-0.3l-0.1-0.3L442.5,372.3L442.5,372.3z M425.3,379v0.9l-0.1,0.8l-0.1,0.6
		l-0.1,0.5l-0.1,0.3l-0.1,0.1l-7.8-0.4l-0.1-0.3l-0.1-0.3l-0.1-0.4l-0.1-0.4l-0.1-0.5l-0.1-0.5v-0.5l-0.1-0.5v-0.5v-0.5l0.1-0.5
		l0.1-0.5l0.1-0.4l0.1-0.4l0.1-0.3l0.2-0.3l0.1-0.2l0.2-0.2l0.1-0.2l0.2-0.1l0.2-0.2l0.2-0.1l0.2-0.2l0.2-0.1l0.2-0.2l0.3-0.1
		l0.2-0.1l0.2-0.1l0.2-0.1h0.3l0.2-0.1l0.3-0.1l1.2-0.1l1,0.1l0.9,0.3l0.7,0.5l0.5,0.6l0.4,0.8l0.3,0.8l0.2,1l0.1,0.9L425.3,379
		L425.3,379z"/>
	<path class="st2" d="M330.9,164.7L330.9,164.7v0.2v0.1v0.1v0.1v0.1v0.1h-0.1v0.1v0.1l-0.1,0.1v0.1l-0.1,0.1l-0.1,0.1l-0.1,0.1
		l-1,1.6l6.5,1.4l-0.2-12.9l0.1-0.1l0.1-0.1h0.2l0.2-0.1h0.2h0.2h0.3l0.3,0.1l0.3,0.1l0.3,0.1l0.4,0.1l0.4,0.1l0.3,0.1l0.4,0.1
		l0.4,0.2l0.4,1.3l0.4,1.1l0.3,1.1l0.3,1.1l0.3,0.9l0.3,0.9l0.2,0.8l0.2,0.8l0.2,0.8l0.2,0.8l0.2,0.8l0.2,0.8l0.2,0.8l0.3,0.9
		l0.3,0.9l0.4,1l7.1,2.2l-1.9-3.6l-0.4-0.8l-0.4-0.8l-0.3-0.8l-0.4-0.8l-0.3-0.8l-0.3-0.8L347,164l-0.3-0.8l-0.3-0.8l-0.2-0.8
		l-0.3-0.9l-0.2-1l-0.2-0.9l-0.2-1l-0.2-1.1l-0.2-1.2l1.3-1.1l1.1-1.2l0.9-1.2l0.7-1.3l0.4-1.3l0.3-1.3l0.1-1.3l-0.2-1.3l-0.3-1.2
		l-0.6-1.2l-0.7-1.1l-1-0.9l-1.1-0.8l-1.3-0.7l-1.5-0.5l-1.6-0.3l-1.1-0.2l-1.1-0.2l-1-0.2l-0.9-0.1l-1-0.2l-0.9-0.1l-0.8-0.2
		l-0.8-0.1l-0.8-0.2l-0.7-0.1l-0.6-0.1l-0.6-0.1l-0.5-0.1l-0.5-0.1H330l-0.4-0.1l0.2,0.3l0.2,0.2l0.2,0.3l0.1,0.2l0.2,0.3l0.1,0.2
		l0.1,0.3l0.1,0.2l0.1,0.3l0.1,0.3l0.1,0.3v0.2l0.1,0.3v0.2l0.1,0.3v0.2L330.9,164.7z M335.9,142.2h0.1h0.3h0.3l0.5,0.1l0.5,0.1
		l0.5,0.1l0.6,0.1l0.6,0.1l0.6,0.2l0.6,0.1l0.5,0.1l0.5,0.1l0.5,0.1l0.3,0.1l0.3,0.1l0.2,0.1l0.6,0.4l0.5,0.4l0.4,0.5l0.3,0.5
		l0.2,0.6l0.1,0.6l0.1,0.5l-0.1,0.6l-0.1,0.6l-0.2,0.5l-0.3,0.5l-0.3,0.4l-0.3,0.4l-0.3,0.3l-0.4,0.2l-0.3,0.1l-0.5,0.1l-0.6,0.1
		l-0.5,0.1h-0.6h-0.6h-0.5h-0.5l-0.5-0.1l-0.4-0.1h-0.5l-0.4-0.1l-0.4-0.1l-0.3-0.1l-0.2-0.1h-0.1l-0.1-0.1L335.9,142.2L335.9,142.2
		z"/>
	<path class="st2" d="M175.9,149.5h0.2l0.2,0.1l0.3,0.2l0.2,0.1l0.1,0.1l0.2,0.1l0.1,0.2l0.2,0.1l0.1,0.2v0.2l0.1,0.2v0.2l0.1,0.3
		v0.3l-0.1,26.9l-0.1,0.2v0.2v0.2v0.1l-0.1,0.2v0.2v0.2l-0.1,0.2l-0.1,0.2l-0.1,0.2l-0.1,0.2l-0.1,0.2l-0.1,0.2l-0.1,0.2l-0.2,0.2
		l-0.1,0.2h0.3h0.3l0.4-0.1l0.4-0.1l0.4-0.1l0.4-0.2l0.5-0.1l0.4-0.2l0.4-0.1l0.4-0.2l0.4-0.2l0.4-0.1l0.4-0.2l0.3-0.1l0.2-0.1
		l0.2-0.1l-0.2-15.3V164l0.1-0.2l0.2-0.2l0.2-0.2l0.3-0.2l0.3-0.1l0.3-0.2l0.4-0.1l0.4-0.1l0.3-0.1l0.4-0.1l0.3-0.1l0.2-0.1l0.2-0.1
		h0.2l0.1-0.1l0.6,1l0.6,0.9l0.5,0.9l0.5,0.9l0.4,0.9l0.5,0.9l0.4,0.8l0.4,0.9l0.3,0.9l0.4,0.8l0.3,0.8l0.3,0.8l0.3,0.8l0.2,0.8
		l0.2,0.7l0.2,0.8l5.4-1.8v-0.1h0.1l-0.6-1l-0.6-1l-0.6-1.1l-0.5-1.1l-0.6-1.1l-0.5-1.1l-0.5-1.1l-0.5-1.1l-0.4-1l-0.4-0.9l-0.3-0.9
		l-0.3-0.7l-0.2-0.6l-0.2-0.5l-0.1-0.3l0.1-0.2l2.3-1.7l0.9-1l0.7-1l0.6-1l0.4-1.1l0.2-1l0.2-1l-0.1-1l-0.1-1l-0.3-0.9l-0.4-0.8
		l-0.4-0.8l-0.5-0.6l-0.6-0.6l-0.7-0.5l-0.8-0.4l-0.8-0.3H191l-0.8-0.1h-0.7l-0.8,0.1l-0.8,0.1l-0.9,0.2l-0.9,0.2l-1,0.2l-1,0.2
		l-1.1,0.3l-1.1,0.4l-1.2,0.4l-1.2,0.4l-1.4,0.5l-1.4,0.5l-1.5,0.5l0.2,0.1L175.9,149.5z M182.1,152.2l0.4-0.3l0.5-0.3l0.5-0.3
		l0.5-0.2l0.4-0.2l0.5-0.2l0.5-0.2l0.5-0.1l0.4-0.1l0.5-0.1l0.5-0.1l0.5-0.1l0.4-0.1h0.5h0.5h0.5l0.3,0.1l0.3,0.1l0.3,0.2l0.2,0.3
		l0.2,0.3l0.2,0.4l0.1,0.4l0.1,0.4v0.4l-0.1,0.5l-0.1,0.5l-0.2,0.4l-0.3,0.5l-0.4,0.4l-0.5,0.5l-0.5,0.4l-0.3,0.2l-0.3,0.2l-0.4,0.2
		l-0.4,0.2l-0.5,0.2l-0.5,0.2l-0.5,0.2l-0.6,0.2l-0.5,0.1l-0.6,0.2l-0.5,0.1h-0.5l-0.4,0.1h-0.4l-0.3-0.1l-0.2-0.1L182.1,152.2
		L182.1,152.2z"/>
	<path class="st2" d="M150.4,177.5l0.1,0.7l0.1,0.7l0.1,0.6l0.2,0.6l0.2,0.6l0.1,0.6l0.3,0.5l0.2,0.5l0.2,0.5l0.2,0.5l0.2,0.5
		l0.3,0.4l0.3,0.4l0.3,0.4l0.3,0.4l0.4,0.5l0.5,0.4l0.4,0.4l0.5,0.4l0.5,0.4l0.5,0.3l0.5,0.3l0.5,0.2l0.6,0.2l0.5,0.2l0.6,0.1
		l0.6,0.1h0.6h0.6l0.6-0.1l0.7-0.1l1.8-0.5l1.6-0.9l1.4-1.2l1.2-1.4l1-1.6l0.8-1.7l0.6-1.8l0.5-1.9l0.4-1.9l0.3-1.9l0.2-1.8l0.1-1.7
		v-1.6v-1.3v-1.1L172,166l-0.7-3.2l-1.1-2.7l-1.3-2.3l-1.7-1.6l-1.8-1.2l-1.9-0.6l-2.1-0.1l-2,0.4l-2,1l-1.9,1.4l-1.7,2l-1.4,2.5
		l-1.1,3l-0.8,3.6l-0.4,4.1l0.2,4.6L150.4,177.5z M154.6,170.3l0.2-2.4l0.5-2.3l0.6-2l0.9-1.8l1.1-1.3l1.3-0.9l1.6-0.4l1.8,0.2
		l1.3,0.7l1.2,1.2l0.9,1.5l0.6,1.9l0.5,2.1l0.2,2.2l0.1,2.4l-0.2,2.3L167,176l-0.6,2.1l-0.8,2l-0.9,1.7l-1.1,1.4l-1.2,0.9l-1.3,0.4
		l-1.6-0.1l-1.2-0.6l-1.1-1.1l-0.9-1.5l-0.7-1.9l-0.5-2.1l-0.4-2.3l-0.1-2.4L154.6,170.3z"/>
</g>
</svg>
