<?xml version="1.0" encoding="utf-8"?>
<!-- Generator: Adobe Illustrator 19.0.0, SVG Export Plug-In . SVG Version: 6.00 Build 0)  -->
<svg version="1.1" id="beachcombing_xA0_Image_1_" xmlns="http://www.w3.org/2000/svg" xmlns:xlink="http://www.w3.org/1999/xlink"
	 x="0px" y="0px" viewBox="-11 13.7 575.8 574.3" style="enable-background:new -11 13.7 575.8 574.3;" xml:space="preserve">
<style type="text/css">
	.st0{fill:#FFFF00;}
	.st1{fill:#573922;}
	.st2{fill:#FFFFFF;}
</style>
<rect x="-11" y="13.7" class="st0" width="575.8" height="574.3"/>
<rect x="34" y="58.5" class="st1" width="486" height="484.7"/>
<g>
	<path class="st2" d="M489,419V239.3c0-4.4-1.7-8.3-5.2-11.6c-3.5-3.3-7.9-5-13.3-5h-88.2v-37.9H248.7v37.9H81.3
		c-4.7,0-9,1.7-12.8,5.2c-3.8,3.5-5.7,7.6-5.7,12.3V418c0.6,4.7,2.7,9,6.2,12.8c3.5,3.8,7.7,5.7,12.8,5.7h389.6
		c5.4,0,9.6-1.7,12.8-5.2c3.2-3.5,4.7-7.9,4.7-13.3V419z M174.2,195.2c0.6-0.6,0.9-3,0.9-7.1c-1.3-4.7-2.5-9.2-3.6-13.3
		c-1.1-4.1-2.1-7.9-3.1-11.4H92.2c-5.4,11.7-8.1,20.7-8.1,27c0,10.1,6.6,15.2,19.9,15.2h52.6C168.4,205.6,174.2,202.2,174.2,195.2z
		 M375.2,329.8c0,16.1-5.7,30-17.1,41.7c-11.4,11.4-25.3,17.1-41.7,17.1c-16.4,0-30.5-5.7-42.2-17.1c-11.7-11.7-17.5-25.8-17.5-42.2
		c0-16.1,5.8-29.9,17.5-41.2c11.7-11.7,25.8-17.5,42.2-17.5c16.4,0,30.3,5.9,41.7,17.5C369.5,300.1,375.2,314,375.2,329.8z
		 M351.1,222.7h-75.4v-23.2h75.4V222.7z M344.9,329.8c0-8.2-2.8-15.1-8.3-20.6c-5.5-5.5-12.3-8.3-20.1-8.3c-8.5,0-15.6,2.7-21.3,8.1
		c-5.7,5.4-8.5,12.3-8.5,20.9c0,7.9,2.8,14.7,8.5,20.4c5.7,5.7,12.8,8.5,21.3,8.5c7.9,0,14.6-2.8,20.1-8.5
		C342.1,344.5,344.9,337.7,344.9,329.8z"/>
</g>
</svg>
