<?xml version="1.0" encoding="utf-8"?>
<!-- Generator: Adobe Illustrator 19.0.0, SVG Export Plug-In . SVG Version: 6.00 Build 0)  -->
<svg version="1.1" id="beachcombing_xA0_Image_1_" xmlns="http://www.w3.org/2000/svg" xmlns:xlink="http://www.w3.org/1999/xlink"
	 x="0px" y="0px" viewBox="-11 13.7 575.8 574.3" style="enable-background:new -11 13.7 575.8 574.3;" xml:space="preserve">
<style type="text/css">
	.st0{fill:#FFFF00;}
	.st1{fill:#573922;}
	.st2{fill:#FFFFFF;}
</style>
<rect x="-11" y="13.7" class="st0" width="575.8" height="574.3"/>
<rect x="34" y="58.5" class="st1" width="486" height="484.7"/>
<g>
	<path class="st2" d="M457,250l-44.2-5.9h-29.9l-31.1,6l3.6-19.1l6-34.7v-40.6l-8.4-29.9L335.1,84l-33.5,27.5L279,134.2l-20.3,34.7
		l-11.9,32.3l-7.2,17.9l-22.7-19.1l-27.5-14.3l-40.6-19.1l-6,44.2v32.3l10.8,38.2l8.4,17.9l-27.5,7.2l-35.8,14.3l22.7,29.9
		l19.1,19.1l31.1,17.9l60.9,23.9c-14.3,57.4-25.1,92-32.3,104l38.2,9.6c2.4-22.3,10.3-57.4,23.9-105.1l37,4.8l29.9,4.8h34.7
		l26.3-8.3l33.5-14.2l-22.7-29.7l-19.1-20.2l14.3-9.5l29.9-28.5l14.3-27.3L457,250z"/>
</g>
</svg>
