<?xml version="1.0" encoding="utf-8"?>
<!-- Generator: Adobe Illustrator 21.0.2, SVG Export Plug-In . SVG Version: 6.00 Build 0)  -->
<svg version="1.1" id="beachcombing_xA0_Image_1_" xmlns="http://www.w3.org/2000/svg" xmlns:xlink="http://www.w3.org/1999/xlink"
	 x="0px" y="0px" viewBox="0 0 575.8 574.3" style="enable-background:new 0 0 575.8 574.3;" xml:space="preserve">
<style type="text/css">
	.st0{fill:#FFFF00;}
	.st1{fill:#573922;}
	.st2{fill:#FFFFFF;stroke:#FFFFFF;stroke-miterlimit:10;}
</style>
<rect y="0" class="st0" width="575.8" height="574.3"/>
<rect x="45" y="44.8" class="st1" width="486" height="484.7"/>
<g>
	<rect x="163.1" y="69.6" class="st2" width="82.8" height="60"/>
	<rect x="328.7" y="69.6" class="st2" width="82.8" height="60"/>
	<path class="st2" d="M121,150h124.8v166.8c0,0,4.8,12-27.6,13.2v158.4c0,0,2.4,7.2-7.2,13.2H75.4c0,0-3.6,0-7.2-10.8v-120L121,150z
		"/>
	<rect x="263.9" y="150" class="st2" width="45.6" height="152.4"/>
	<path class="st2" d="M328.7,150h126l52.8,220.8v120c0,0,1.2,2.4-8.4,10.8h-129c0,0-6.6-3.6-16.2-12l1.2-163.8c0,0-21.6,9-26.4-9
		V150z"/>
</g>
</svg>
