<?xml version="1.0" encoding="utf-8"?>
<!-- Generator: Adobe Illustrator 19.0.0, SVG Export Plug-In . SVG Version: 6.00 Build 0)  -->
<svg version="1.1" id="beachcombing_xA0_Image_1_" xmlns="http://www.w3.org/2000/svg" xmlns:xlink="http://www.w3.org/1999/xlink"
	 x="0px" y="0px" viewBox="-11 13.7 575.8 574.3" style="enable-background:new -11 13.7 575.8 574.3;" xml:space="preserve">
<style type="text/css">
	.st0{fill:#FFFF00;}
	.st1{fill:#573922;}
	.st2{fill:#FFFFFF;}
</style>
<rect x="-11" y="13.7" class="st0" width="575.8" height="574.3"/>
<rect x="34" y="58.5" class="st1" width="486" height="484.7"/>
<g>
	<path class="st2" d="M488,222.9c0-7.3-3.3-12.5-10-15.5l-201.8-85.6L73.9,202.9c-7,3-10.5,8.3-10.5,16c0,4,1.7,7.7,5,11
		c3.3,3.3,7,5,11,5c3.3,0,5.5-0.2,6.5-0.5l30-12.5v183.8h134.2v42.1H91.9v33h192.3v-75.1h143.7V222.4l37.1,15.5c2,1,4.2,1.5,6.5,1.5
		c4.3,0,8.2-1.7,11.5-5C486.3,231.1,488,227.2,488,222.9z M402.9,380.6H284.2v-23.5h20.5l-36.1-55.6l-37.6,55.6h19v23.5H141V211.9
		l134.2-54.6l127.7,54.6L402.9,380.6L402.9,380.6z M305.2,207.9c0-10-3-17.9-9-23.8c-6-5.8-13.5-8.8-22.5-8.8
		c-21.4,0-32.7,13-34.1,39.1h20c0-14.3,4.7-21.5,14-21.5c8.3,0,12.5,4.7,12.5,14c0,5.3-3.8,12.4-11.5,21
		c-9,10.7-13.5,23.5-13.5,38.6l16.5-1c0-3.7,0.1-6.8,0.3-9.3c0.2-2.5,0.8-4.8,1.8-6.8c1-2,2.4-4.2,4.3-6.5c1.8-2.3,4.3-5,7.3-8
		C300.5,225.2,305.2,216.2,305.2,207.9z M279.2,295.5V279h-17v16.5H279.2z"/>
</g>
</svg>
