<?xml version="1.0" encoding="utf-8"?>
<!-- Generator: Adobe Illustrator 19.0.0, SVG Export Plug-In . SVG Version: 6.00 Build 0)  -->
<svg version="1.1" id="beachcombing_xA0_Image_1_" xmlns="http://www.w3.org/2000/svg" xmlns:xlink="http://www.w3.org/1999/xlink"
	 x="0px" y="0px" viewBox="-11 13.7 575.8 574.3" style="enable-background:new -11 13.7 575.8 574.3;" xml:space="preserve">
<style type="text/css">
	.st0{fill:#FFFF00;}
	.st1{fill:#573922;}
	.st2{fill:#FFFFFF;}
</style>
<rect x="-11" y="13.7" class="st0" width="575.8" height="574.3"/>
<rect x="34" y="58.5" class="st1" width="486" height="484.7"/>
<g>
	<path class="st2" d="M281.5,240.8L217,170h-76.1l-65,70.8l71.7,82.8h62.6L281.5,240.8z M144.8,280.7h-8.7l-32.3-34.7v-7.2
		l40.9-33.2L144.8,280.7L144.8,280.7z M230,116c-0.3-1-0.5-1.9-0.5-2.9h-93.9v8.2h6.3c5.8,0,9.1,0.6,10.1,1.9
		c2.2,9.3,6.3,17,12.3,23.1c5.9,6.1,12.1,9.1,18.5,9.1c14.8,0,25.2-10.8,31.3-32.3c4.2-1.3,9-1.9,14.4-1.9c0.6,0,1-0.8,1-2.4
		C229.8,118.6,230,117.7,230,116z M214.1,521.5v-183h-69.3v183H165l16.4-140.1l11.6,140.1L214.1,521.5L214.1,521.5z M214.1,99.7
		c-4.8-14.4-14.8-22-29.9-22.6h-1.4c-12.2,0-21.4,7.5-27.4,22.6H214.1z M254.1,246.1l-32.3,34.7h-7.7v-75.1l40,33.2L254.1,246.1
		L254.1,246.1z M477,171.4l-1.4-37.6c-3.9,1.3-8.8,1.9-14.9,1.9c-10.6,0-25.4-5-44.3-14.9c-21.8-2.9-36.8-6.9-44.8-12v101.1l1.9,5.3
		l-92.9,65.5v136.8h62.1v-98.2h61.6v98.2h61.2V280.7l-79.9-60.2v-52c1.6-6.4,7.9-9.6,18.8-9.6c3.5,0,9.1,1.6,16.9,4.8
		c17.3,7.1,30.3,10.6,39,10.6C466.6,174.3,472.2,173.3,477,171.4z"/>
</g>
</svg>
