<?xml version="1.0" encoding="utf-8"?>
<!-- Generator: Adobe Illustrator 19.0.0, SVG Export Plug-In . SVG Version: 6.00 Build 0)  -->
<svg version="1.1" id="beachcombing_xA0_Image_1_" xmlns="http://www.w3.org/2000/svg" xmlns:xlink="http://www.w3.org/1999/xlink"
	 x="0px" y="0px" viewBox="-11 13.7 575.8 574.3" style="enable-background:new -11 13.7 575.8 574.3;" xml:space="preserve">
<style type="text/css">
	.st0{fill:#FFFF00;}
	.st1{fill:#573922;}
	.st2{fill:#FFFFFF;}
</style>
<rect x="-11" y="13.7" class="st0" width="575.8" height="574.3"/>
<rect x="34" y="58.5" class="st1" width="486" height="484.7"/>
<g>
	<path class="st2" d="M492.9,246c-8.3,13.5-18.3,23.8-30.1,30.9c-11.8,7.1-25.6,10.7-41.4,10.7c-15.7,0-29.7-3.4-41.9-10.1
		s-22.2-17-30.1-30.9c-7.9,13.9-17.8,24.2-29.8,30.9s-26.3,10.1-42.8,10.1c-16.2,0-30.3-3.4-42.5-10.1c-12.2-6.7-22-17-29.5-30.9
		c-8.3,13.9-18.3,24.2-30.1,30.9c-11.7,6.7-25.7,10.1-41.9,10.1s-30.3-3.4-42.5-10.1c-12.2-6.7-21.9-17-29.5-30.9v-48.4
		c8.2,13.1,18.1,23.1,29.8,29.8c11.6,6.7,25.5,10.1,41.6,10.1c16.2,0,30.1-3.4,41.9-10.1s21.9-16.7,30.1-29.8
		c7.9,13.1,17.8,23.1,29.8,29.8c12,6.7,26.1,10.1,42.2,10.1c16.2,0,30.1-3.4,42.2-10.1s22.1-16.7,30.4-29.8
		c8.2,13.1,18.4,23.1,30.4,29.8s25.8,10.1,41.6,10.1c15.7,0,29.6-3.4,41.6-10.1s22.1-16.7,30.4-29.8L492.9,246L492.9,246z
		 M492.9,132.4c-8.3,13.5-18.2,23.8-29.8,30.9c-11.7,7.2-25.1,10.5-40.5,10.1c-15.7,0-29.7-3.4-41.9-10.1
		c-12.2-6.7-22.2-17-30.1-30.9c-7.9,13.9-17.8,24.2-29.8,30.9s-26.3,10.1-42.8,10.1c-16.2,0-30.3-3.4-42.5-10.1
		c-12.2-6.7-22-17-29.5-30.9c-8.3,13.9-18.3,24.2-30.1,30.9c-11.7,6.7-25.7,10.1-41.9,10.1c-16.2,0-30.3-3.4-42.5-10.1
		c-12.2-6.7-22-17-29.5-30.9V84c7.9,13.1,17.7,23.1,29.3,29.8s25.5,10.1,41.6,10.1s30.1-3.4,41.9-10.1c11.8-6.7,21.9-16.7,30.1-29.8
		c7.5,13.1,17.3,23.1,29.3,29.8c12,6.7,26.1,10.1,42.2,10.1c16.2,0,30.1-3.4,42.2-10.1s22.1-16.7,30.4-29.8
		c8.2,13.1,18.4,23.1,30.4,29.8c12,6.7,25.8,10.1,41.6,10.1c15.7,0,29.6-3.4,41.6-10.1c12-6.7,22.1-16.7,30.4-29.8L492.9,132.4
		L492.9,132.4z M492.9,359c-8.3,13.5-18.2,23.6-29.8,30.4c-11.7,6.7-25.1,10.1-40.5,10.1c-15.7,0-29.7-3.3-41.9-9.8
		s-22.2-16.4-30.1-29.5c-7.9,13.1-17.8,23-29.8,29.5s-26.3,9.8-42.8,9.8c-16.2,0-30.3-3.3-42.5-9.8c-12.2-6.6-22-16.4-29.5-29.5
		c-8.3,13.1-18.3,23-30.1,29.5c-11.8,6.6-25.7,9.8-41.9,9.8c-16.2,0-30.3-3.4-42.5-10.1S69.6,372.6,62,359v-47.8
		c7.9,13.1,17.7,23.1,29.5,29.8c11.8,6.7,25.7,10.1,41.9,10.1s30-3.4,41.6-10.1c11.6-6.7,21.3-16.7,29.3-29.8
		c7.9,13.1,17.8,23,29.8,29.5c12,6.6,26.1,9.8,42.2,9.8c16.2,0,30.1-3.3,42.2-9.8c12-6.6,22.1-16.4,30.4-29.5
		c8.2,13.1,18.4,23,30.4,29.5c12,6.6,25.8,9.8,41.6,9.8c15.7,0,29.6-3.3,41.6-9.8c12-6.6,22.1-16.4,30.4-29.5L492.9,359L492.9,359z
		 M492.9,472.1c-8.3,13.5-18.2,23.8-29.8,30.7c-11.7,6.9-25.1,10.6-40.5,11c-15.7,0-29.7-3.4-41.9-10.1c-12.2-6.7-22.2-17-30.1-30.9
		c-7.9,13.9-17.8,24.2-29.8,30.9s-26.3,10.1-42.8,10.1c-16.2,0-30.3-3.4-42.5-10.1c-12.2-6.7-22-17-29.5-30.9
		c-8.3,13.9-18.3,24.2-30.1,30.9c-11.7,6.7-25.7,10.1-41.9,10.1c-16.2,0-30.3-3.5-42.5-10.4S69.6,486,62,472.2v-47.8
		c8.2,13.5,18.1,23.5,29.8,30.1c11.6,6.6,25.5,9.8,41.6,9.8s30-3.3,41.6-9.8c11.6-6.6,21.3-16.6,29.3-30.1
		c7.9,13.5,17.8,23.5,29.8,30.1c12,6.6,26.1,9.8,42.2,9.8c16.2,0,30.1-3.3,42.2-9.8s22.1-16.6,30.4-30.1
		c8.2,13.5,18.4,23.5,30.4,30.1c12,6.6,25.8,9.8,41.6,9.8c15.7,0,29.6-3.3,41.6-9.8s22.1-16.6,30.4-30.1L492.9,472.1L492.9,472.1z"
		/>
</g>
</svg>
