<?xml version="1.0" encoding="utf-8"?>
<!-- Generator: Adobe Illustrator 19.0.0, SVG Export Plug-In . SVG Version: 6.00 Build 0)  -->
<svg version="1.1" id="beachcombing_xA0_Image_1_" xmlns="http://www.w3.org/2000/svg" xmlns:xlink="http://www.w3.org/1999/xlink"
	 x="0px" y="0px" viewBox="-11 13.7 575.8 574.3" style="enable-background:new -11 13.7 575.8 574.3;" xml:space="preserve">
<style type="text/css">
	.st0{fill:#FFFF00;}
	.st1{fill:#573922;}
	.st2{fill:#FFFFFF;}
</style>
<rect x="-11" y="13.7" class="st0" width="575.8" height="574.3"/>
<rect x="34" y="58.5" class="st1" width="486" height="484.7"/>
<g>
	<path class="st2" d="M447.1,281.1c-5.4-5.5-12.8-8.4-20.5-8l-92.5,5.1l50.9-57.9c7.2-8.3,9.3-19.3,6.5-29.1
		c-1.5-6.7-5.6-12.9-11.8-16.8c-0.2-0.1-121.6-70.7-121.6-70.7c-9.9-5.8-22.4-4.5-31,3.1l-59.3,52.9c-10.9,9.7-11.9,26.5-2.1,37.4
		c9.7,10.9,26.5,11.9,37.4,2.1l45-40.1l37.2,21.6l-65.6,74.7c-27.2,4.4-51.7,17-70.9,35.1l34.3,34.3c15.5-14.1,36.1-22.7,58.6-22.7
		c48.1,0,87.2,39.1,87.2,87.2c0,22.5-8.6,43.1-22.7,58.6l34.3,34.3c22.8-24.3,36.8-56.9,36.8-92.9c0-21.4-5-41.7-13.8-59.7l35.8-2
		l-8.7,106.8c-1.2,14.6,9.7,27.4,24.3,28.6c0.7,0.1,1.5,0.1,2.2,0.1c13.7,0,25.3-10.5,26.4-24.4l11.2-137.1
		C455.1,294.1,452.4,286.5,447.1,281.1z"/>
	<path class="st2" d="M398,167.5c24.5,0,44.4-19.9,44.4-44.4c0-24.5-19.9-44.4-44.4-44.4c-24.5,0-44.4,19.9-44.4,44.4
		C353.6,147.6,373.4,167.5,398,167.5z"/>
	<path class="st2" d="M241.6,476.6c-48.1,0-87.2-39.1-87.2-87.2c0-18.1,5.6-35,15.1-48.9l-34.6-34.6c-18,23-28.8,52-28.8,83.6
		c0,74.9,60.7,135.6,135.6,135.6c31.5,0,60.5-10.8,83.5-28.8l-34.6-34.6C276.6,471,259.7,476.6,241.6,476.6z"/>
</g>
</svg>
