<?xml version="1.0" encoding="utf-8"?>
<!-- Generator: Adobe Illustrator 19.0.0, SVG Export Plug-In . SVG Version: 6.00 Build 0)  -->
<svg version="1.1" id="beachcombing_xA0_Image_1_" xmlns="http://www.w3.org/2000/svg" xmlns:xlink="http://www.w3.org/1999/xlink"
	 x="0px" y="0px" viewBox="-11 13.7 575.8 574.3" style="enable-background:new -11 13.7 575.8 574.3;" xml:space="preserve">
<style type="text/css">
	.st0{fill:#FFFF00;}
	.st1{fill:#573922;}
	.st2{fill:#FFFFFF;}
</style>
<rect x="-11" y="13.7" class="st0" width="575.8" height="574.3"/>
<rect x="34" y="58.5" class="st1" width="486" height="484.7"/>
<g>
	<path class="st2" d="M470,496.6c0-10.2-9.4-20.6-28.2-31.2c-2-0.8-9-3.3-20.8-7.3l-27.6-101c27.4-16.3,41.1-49,41.1-97.9
		c0-46.1-15.3-85.1-46-116.9c-19.6-20.4-57.8-40.8-114.6-61.2l-15.3-5.5L316.8,271c-2.9,4.1-4.3,7.8-4.3,11
		c-12.3-2.9-33.5-11.6-63.7-26.4c-3.3-1.6-8.8-2.5-16.5-2.5c-20.8,0-31.3,7.6-31.3,22.7c0,33.5,9.2,57.2,27.6,71.1l55.8-14.7
		l-9.8-16.5c20.8,4.5,38.2,8,52.1,10.4c0.4,0.4,2.5,0.6,6.1,0.6l36.8,120.1l-18.4-5.5l-12.9-59.4c-1.6-7.4-7.8-14.9-18.4-22.7
		L287.4,336c-0.4-0.8-0.8-1.4-1.2-1.8c-1.2,0-3.7,0.4-7.4,1.2c-23.3,5.3-39.6,9.8-49,13.5c0,8.2,6.3,16.3,19,24.5
		c16.3,10.6,29,17.8,38,21.4c0.8,7.8,2.9,18.2,6.1,31.3c-67.4-18-113.8-27-139.1-27c-3.3,0-9.8,1.8-19.6,5.5l-16.5,6.1
		c-13.1-2-21.4-16.7-25.1-44.1l-11.6,53l1.2,16.5c0.4,5.7,2,10,4.9,12.8l9.8,13.4c4.1,5.7,8,8.5,11.6,8.5c11,0,22.1-4.9,33.1-14.7
		c4.9,17.6,15.9,26.4,33.1,26.4c11.8,0,22.5-3.9,31.9-11.6c4.1,13.6,12.3,21.9,24.5,25.1c9.4,2.5,19.4,0.2,30-6.7
		c3.3,8.8,7.1,14.1,11.6,15.7c34.3,12.9,78.8,19.3,133.6,19.3c29.8,0,49-3.3,57.6-9.8C468,504.1,470,498.2,470,496.6z M264.1,215.2
		c0-19.6-10.2-29.4-30.6-29.4c-8.6,0-15.8,2.8-21.8,8.3c-5.9,5.5-8.9,12.6-8.9,21.1c0,8.6,3,15.6,8.9,21.1
		c5.9,5.5,13.2,8.3,21.8,8.3c8.2,0,15.3-2.9,21.4-8.6C261,230.4,264.1,223.4,264.1,215.2z"/>
</g>
</svg>
