<?xml version="1.0" encoding="utf-8"?>
<!-- Generator: Adobe Illustrator 19.0.0, SVG Export Plug-In . SVG Version: 6.00 Build 0)  -->
<svg version="1.1" id="beachcombing_xA0_Image_1_" xmlns="http://www.w3.org/2000/svg" xmlns:xlink="http://www.w3.org/1999/xlink"
	 x="0px" y="0px" viewBox="-11 13.7 575.8 574.3" style="enable-background:new -11 13.7 575.8 574.3;" xml:space="preserve">
<style type="text/css">
	.st0{fill:#FFFF00;}
	.st1{fill:#4040FF;}
	.st2{fill:#FFFFFF;}
</style>
<rect x="-11" y="13.7" class="st0" width="575.8" height="574.3"/>
<rect x="34" y="58.5" class="st1" width="486" height="484.7"/>
<g>
	<path class="st2" d="M186.4,357.7l5.6-10.6h86.7c3.3,0,7-1.6,11.1-4.9l21.7-31.5l17.3,38.9l-11.8,88.2l-2.5,9.9H200.1V481h265.7
		c24.8,0,38.8-10.8,42.1-32.4l3.1-20.8l-27.9-6.1c-1.2,6.6-3.3,14-6.2,22.2c-2.1,2.5-6,3.7-11.8,3.7H384c-1.2-3.7-4.5-6.6-9.9-8.6
		l-14.2-5.6c3.3-13.2,6.8-28.2,10.5-45c0-2.9,3.5-17.9,10.5-45.1c0.8-3.3,0.8-6.4,0-9.3l-24.2-74.7h-0.6l37.2-32.1l1.2,0.6l30.4,16
		c5.4,1.6,9.7,1.2,13-1.2l4.3-3.1l-40.9,144.4l-2.5-0.6c-7-1.6-11.6,0.8-13.6,7.4l-1.2,3.7c-2.5,7.8,0.2,12.8,8.1,14.8l2.5,0.6
		l-4.3,15.4l30.4,8.6l5-16c2.1,0.4,3.7,0.6,5,0.6c2.1,0,4.1-2.9,6.2-8.6l1.2-3.7c2.5-7.8,0.8-12.3-5-13.6l51.4-178.3l6.8-9.9
		l-15.5-22.8l-40.3,22.8c-0.8,0-1.7-0.2-2.5-0.6l-20.4-13.6l-20.4-32.7l-60.7,23.5c-2.9,1.6-5.2,3.3-6.8,4.9l-37.2,35.8
		c-0.8,0.8-2.1,1.9-3.7,3.1l-21.7,9.9l-154.2,11.7v-2.5c0-8.2-3.7-11.7-11.2-10.5h-5c-7,1.2-10.5,5.1-10.5,11.7v3.1L65,249.6
		l1.9,26.5l17.3-1.2v2.5c0,8.2,3.7,11.7,11.1,10.5h5c7-1.2,10.5-5.1,10.5-11.7v-2.5l161.7-10.5l6.2-2.5l-18,37l-97.9,15.4
		c-5.4,0.8-7.6,4.1-6.8,9.9l3.1,27.8L57.6,292.2l-16.1,30.7l195.1,111.9c7.8,4.5,15.7,6.8,23.5,6.8c8.7,0,16.5-2.8,23.5-8.5
		c2.5-2,8.3-7.9,17.3-17.7l-21.7-19.5c-2.9,2.1-8.1,5.8-15.5,11.1c-2.9,1.2-6.8,0.4-11.8-2.5l-59.5-34.9c0-2.5-1.2-5.6-3.7-9.4
		L186.4,357.7z M402.6,154c0,9.5,3.4,17.6,10.2,24.4c6.8,6.8,15,10.2,24.5,10.2c9.9,0,18.2-3.3,24.8-9.9c6.6-6.6,9.9-14.8,9.9-24.7
		s-3.3-18.1-9.9-24.7c-6.6-6.6-14.9-9.9-24.8-9.9c-9.9,0-18.2,3.3-24.8,9.9C405.9,135.9,402.6,144.1,402.6,154z"/>
</g>
</svg>
