<?xml version="1.0" encoding="utf-8"?>
<!-- Generator: Adobe Illustrator 19.0.0, SVG Export Plug-In . SVG Version: 6.00 Build 0)  -->
<svg version="1.1" id="Layer_1" xmlns="http://www.w3.org/2000/svg" xmlns:xlink="http://www.w3.org/1999/xlink" x="0px" y="0px"
	 viewBox="0 0 240 100" style="enable-background:new 0 0 240 100;" xml:space="preserve">
<style type="text/css">
	.st0{fill:#F9ED32;}
</style>
<g id="XMLID_131_">
	<g id="XMLID_68_">
		<g id="XMLID_72_">
			<path id="XMLID_73_" class="st0" d="M232.8,60c0,0-0.7,0.9-2,2.5c-0.3,0.4-0.7,0.9-1.1,1.4c-0.4,0.5-0.9,1-1.4,1.6
				c-0.5,0.6-1.1,1.2-1.7,1.9c-0.6,0.7-1.3,1.3-2,2c-2.8,2.9-6.3,6.2-10.8,9.7c-4.5,3.5-9.9,7.1-16.3,10.2c-6.5,3.1-14,5.7-22.3,7
				c-1,0.2-2.1,0.3-3.2,0.4c-1.1,0.1-2.1,0.2-3.2,0.3c-1.1,0.1-2.2,0.1-3.3,0.1c-0.6,0-1.2,0-1.8,0.1l-1.2,0c-0.4,0-0.9-0.1-1.3-0.1
				l-1.7-0.2l-1.5-0.2c-1-0.1-2.1-0.2-3.1-0.4c-1-0.1-2.1-0.3-3.2-0.5c-1.1-0.2-2.2-0.4-3.3-0.6c-4.5-0.9-9.2-2.4-13.9-4.6
				c-2.4-1.1-4.7-2.4-7-3.9c-2.3-1.5-4.5-3.2-6.5-5l-1.5-1.4L118,79c-0.5-0.5-0.9-1-1.4-1.5l-1.4-1.7c-0.5-0.6-0.9-1.2-1.3-1.7
				c-0.4-0.6-0.8-1.2-1.2-1.8c-0.7-1.2-1.5-2.4-2.1-3.5c-2.6-4.7-4.2-9.1-5.6-12.8c-1.4-3.7-2.5-6.7-3.6-8.6
				c-0.1-0.2-0.3-0.5-0.4-0.7l-0.1-0.1l0,0c0,0,0,0,0,0c0,0,0,0,0,0l-0.1-0.1l-0.2-0.2l-0.6-0.7c-0.4-0.5-0.9-0.9-1.3-1.4L98,43.5
				c-0.2-0.2-0.5-0.4-0.7-0.6c-0.5-0.4-0.9-0.8-1.4-1.2c-0.5-0.3-1-0.7-1.4-1.1L93,39.7c-0.5-0.3-1-0.5-1.6-0.8
				c-2.1-1.1-4.3-1.9-6.6-2.4c-4.7-1-9.7-1.1-14.6-0.2c-2.5,0.4-4.9,1-7.2,1.7c-1.1,0.4-2.3,0.7-3.4,1.2c-0.5,0.2-1.1,0.4-1.6,0.6
				c-0.5,0.2-1.1,0.5-1.6,0.7c-4.2,1.9-7.8,4.1-10.8,6.3c-3,2.2-5.4,4.4-7.2,6.2c-0.9,0.9-1.7,1.8-2.3,2.5c-0.6,0.8-1.2,1.4-1.6,1.9
				c-0.8,1.1-1.2,1.7-1.2,1.7L6.7,40.8c0,0,0.7-1,2.1-2.8c0.7-0.9,1.6-2,2.6-3.3c1.1-1.3,2.3-2.7,3.8-4.2c5.8-6,14.9-13.7,27.8-19.5
				c0.8-0.4,1.6-0.7,2.4-1.1c0.8-0.4,1.7-0.7,2.5-1c1.7-0.7,3.5-1.3,5.3-1.9c3.7-1.1,7.6-2.2,11.7-2.8c8.2-1.4,17.5-1.5,27,0.6
				c4.8,1.1,9.6,2.8,14.1,5.1c1.1,0.6,2.3,1.2,3.4,1.8c1.1,0.7,2.2,1.4,3.3,2.1c1,0.8,2.1,1.5,3.1,2.3c1,0.8,2,1.7,3,2.5
				c0.5,0.4,1,0.8,1.4,1.3l1.4,1.4c0.9,0.9,1.8,1.8,2.6,2.8l1.2,1.5l1.6,1.9l1.5,2.4c0.4,0.6,0.7,1.2,1,1.8
				c2.7,4.9,4.2,9.2,5.5,12.8c1.3,3.6,2.5,6.4,3.6,8.5c1.2,2.2,2.1,3.2,3.8,4.8c1.6,1.5,3.4,2.6,5.4,3.6c2.1,1,4.4,1.7,7.1,2.3
				c0.7,0.1,1.3,0.3,2,0.4c0.7,0.1,1.4,0.2,2.1,0.3c0.7,0.1,1.4,0.2,2.2,0.3c0.4,0,0.7,0.1,1.1,0.1l0.9,0.1c1,0,1.9-0.1,2.9-0.1
				c0.6-0.1,1.2-0.1,1.9-0.2c0.6-0.1,1.2-0.1,1.8-0.2c4.8-0.8,9.3-2.3,13.4-4.2c4-1.9,7.6-4.3,10.6-6.6c3-2.3,5.5-4.6,7.4-6.6
				c0.5-0.5,1-1,1.4-1.4c0.4-0.5,0.8-0.9,1.2-1.3c0.4-0.4,0.7-0.8,1-1.1c0.3-0.4,0.6-0.7,0.8-1c1-1.2,1.5-1.8,1.5-1.8L232.8,60z"/>
		</g>
	</g>
</g>
</svg>
