<?xml version="1.0" encoding="utf-8"?>
<!-- Generator: Adobe Illustrator 19.0.0, SVG Export Plug-In . SVG Version: 6.00 Build 0)  -->
<svg version="1.1" id="Layer_1" xmlns="http://www.w3.org/2000/svg" xmlns:xlink="http://www.w3.org/1999/xlink" x="0px" y="0px"
	 viewBox="38 -38 576 576" style="enable-background:new 38 -38 576 576;" xml:space="preserve">
<style type="text/css">
	.st0{fill:#E34930;}
	.st1{display:none;}
	.st2{display:inline;fill:#FFFFFF;}
	.st3{fill:#FFFFFF;}
</style>
<rect x="38" y="-38" class="st0" width="576" height="576"/>
<g id="Layer_1_1_">
</g>
<g id="Shape">
	<g class="st1">
		<path class="st2" d="M348,327.4c-1,0-2.1,0-3.1,0c-2.4-1-5-1.6-7.1-3c-3.3-2-6.4-4.5-9.6-6.8c-3-2.3-6.3-3.5-10.2-3.4
			c-2.6,0.1-5.2,0.1-7.8,0c-6.3-0.1-10-2.9-11.9-8.9c-0.7-2.2-1.5-4.5-2-6.7c-1.1-4.7-3.6-8.5-7.2-11.8
			c-10.6-9.3-21.1-18.6-31.6-28.1c-11-10-20.9-20.7-25.4-35.3c-0.1-0.2,2.7,8-0.5-0.5c-3.2-8.4,0-8,0-12c1.9-3,3.6-6.2,5.9-9
			c1.4-1.8,2.2-3.2,1.7-5.6c-1.6-7.6,0.4-14.4,6.6-19.1c3.7-2.8,8.2-4.7,12.5-6.8c1.4-0.7,2.4-1.2,2.8-3c2.3-12.9,10-19.8,23.2-20.8
			c2.2-0.2,3.7-1,4.6-3.1c6.4-13.7,16.5-18.6,31.2-15.4c0.9,0.2,2.3,0.1,2.8-0.5c4-4.3,14.3-9.2,14.3-9.2s4.8-3.4,11.5,0
			c0.6,0.4,1.3,0.7,1.9,1.1c3.5,2.2,7.2,4.1,10.5,6.6c1.9,1.4,3.3,2,5.6,1.3c7.5-2.3,14.4-0.7,20.1,4.5c3.2,3,5.7,6.7,8.4,10.2
			c1,1.3,1.8,2.2,3.6,1.8c6.4-1.4,12,0.6,16.9,4.7c5.9,4.9,9.4,11.2,12.4,18.1c0.7,1.7,2.2,3.6,3.8,4.2c11.2,4.3,16.3,13,17.5,24.4
			c0.4,3.8,1.1,6.9,4.6,9.3c1.9,1.3,2.9,4,4.2,6.1c0.5,0.7,1.1,2.2,1.1,2.2s3.2,5.5,0,11c-4.2,8.7-0.5,0.7-0.6,1
			c-2.3,6.4-5.9,12-10.1,17.3C437,256.8,424,270,410.7,283c-4.3,4.2-7.6,9-9.7,14.6c-1.2,3.1-2.6,6.1-4.2,9c-3,5.4-7.8,7.7-13.9,7.4
			c-1.8-0.1-3.7-0.2-5.5-0.3c-4.6-0.2-8.8,1.2-12.4,4C359.9,321.9,354.3,325.3,348,327.4z"/>
	</g>
	<path class="st3" d="M49.6,293.1c1.6-1,3.4-1.9,4.8-3.1c71.2-58.4,142.3-116.8,213.4-175.2c17-14,34-28,51-42
		c6.9-5.7,6.9-5.8,13.7-0.2c85.2,70,170.5,140.1,255.7,210.1c4.4,3.6,8.7,7.2,14.2,11.7c-2.7,0.5-4.1,1-5.4,1
		c-14.2,0.1-28.4,0.5-42.5-0.3c-4.8-0.3-11.1-2.6-13.8-6.1c-15.1-20-34.7-33.2-58.2-41c-14.6-4.9-25-15.5-34.7-26.6
		c-6.5-7.3-13.4-9.8-22.3-6.1c-3.9,1.6-6.6,0.9-9-2.8c-2.5-4-6.1-7.3-8.2-11.5c-5-10.1-13-16.2-23.4-20.2
		c-11.7-4.6-23.4-9.2-33.1-17.7c-2-1.8-4.7-2.9-7.1-4.1c-12.2-5.9-18.6-4.7-27.4,5.7c-13.6,16.1-27,32.4-45.4,43.4
		c-5.9,3.5-12,6.7-17.8,10.4c-4.4,2.8-7.5,2.4-11-1.7c-3.4-4-7.4-7.9-11.8-10.5c-3.2-1.9-7.8-2.6-11.5-2
		c-12.5,2-20.3,11.3-28.7,19.6c-9.8,9.7-19.4,19.5-29,29.4c-11,11.4-24.7,18.7-38.5,25.8c-8.9,4.6-17.6,9.6-26.4,14.4
		c-1.4,0.7-2.9,1.7-4.3,1.7c-13.9,0.1-27.9,0.1-41.8,0.1C50.5,294.6,50.1,293.8,49.6,293.1z"/>
	<path class="st3" d="M430.7,405.1c-4.5-2.8-5.1-5.9-5.1-10.1c0-27.1,0-54.3,0-81.4c0-14.5,0-14.5-14.8-14.5c-8.6,0-8.6,0-8.6,8.9
		c0,11,0,21.9,0,33.8c-2.4-0.4-3.6-0.4-4.6-0.8c-25.2-9.3-54,8.5-51.5,42.5c1.1,15.7,6.9,29.4,23,35.4c13.9,5.2,26.7,3.1,36.5-9.3
		c6,10.4,11.2,12.9,22.7,10.6c1.9-0.4,4.8-2.4,4.8-3.5C433,412.7,433.1,406.6,430.7,405.1z M401.5,389.2c-2,7.4-7.8,11.6-15.1,11.6
		c-7.4,0-13.5-3.9-15.2-11.3c-1.2-5.4-1.8-11.4-0.8-16.8c2.6-13.1,19.3-19.1,30-11.3c1.2,0.9,1.9,2.9,2.1,4.4
		c0.3,3.3,0.1,6.6,0.1,10c0.2,0,0.3,0,0.5,0C402.6,380.3,402.6,384.9,401.5,389.2z"/>
	<path class="st3" d="M51.6,340.9c8.6,0,16.2-0.2,23.7,0.2c1.3,0.1,2.9,3,3.6,4.8c5.5,14.3,10.9,28.7,16.3,43
		c0.7,1.7,1.4,3.5,2.7,6.6c2.7-8.5,4.8-15.6,7.2-22.6c3.1-9.3,6.5-18.6,9.6-27.9c1.1-3.2,3-4.8,6.5-4.6c4.1,0.2,8.3,0.1,12.4,0.1
		c6.8,0.1,7.5,0.9,5,7.1c-6.4,16.3-13,32.5-19.4,48.7c-4.5,11.3-8.9,22.7-13.6,33.9c-2.2,5.2-4.6,10.5-7.6,15.3
		c-8.6,13.8-22.2,18.1-37.3,11.9c-1.4-0.6-2.7-3-3-4.6c-0.3-2.3,0.5-4.6,0.8-7c0.4-3.7,1.8-4.9,5.9-4c8.4,2,12.8-0.3,16.9-8
		c4.2-7.9,5.8-15.2,1.2-24.3c-10-19.8-18.7-40.3-27.8-60.6C53.6,346.7,52.9,344.4,51.6,340.9z"/>
	<path class="st3" d="M190.8,337.8c-25.3-0.8-43.9,15.4-44.7,39.2c-0.9,25.2,16,43.2,41.3,44c24.9,0.8,42.6-15.9,43.5-41.1
		C231.7,356.6,214.5,338.6,190.8,337.8z M197.5,398.3c-13.2,7.6-27.7-2.3-27.7-19c-0.1-8.3,2.7-15.2,10.3-19.1
		c6.4-3.3,12.9-3,19,1.2C211,369.6,210,391.1,197.5,398.3z"/>
	<path class="st3" d="M273.9,346.7c4-4.5,11-6.9,18.6-7.8c19.2-2.4,33.4,7.9,35,27.1c1.4,16.4,0.8,33,0.8,49.5c0,1.5-2.6,2.9-4,4.3
		c-0.2,0.2-0.8,0-1.2,0.1c-18.5,0.9-18.5,0.9-18.5-17.6c0-9.4,0.1-18.9,0-28.3c-0.1-10.1-6.2-17.1-14.9-17c-9,0-16.2,7.1-16.3,16.7
		c-0.2,13.4-0.2,26.7,0,40.1c0.1,4.4-1,6.3-5.8,6.3c-18.1,0.1-18.1,0.3-18.1-17.7c0-13.2-0.1-26.3,0-39.5c0-3.8-1-6.2-4.7-8.5
		c-2.1-1.2-2.2-6.2-2.5-9.6c-0.1-1.4,1.7-4.4,2.5-4.4c7.1,0.1,14.3,0.3,21.4,1.4C268.7,342.1,271,344.8,273.9,346.7z"/>
	<path class="st3" d="M467.8,384.7c0,9.1,5.5,15.2,14.8,17c9.7,1.9,19.3,1,28.5-2.2c5.2-1.7,7-0.5,7.7,4.8c1.3,10.9,1.5,10.9-9.2,14
		c-12.1,3.5-24.4,4.4-36.7,1.1c-19.4-5.3-31.3-22.7-29.6-42.9c1.8-21.9,15.6-36.2,37.1-38c5.2-0.4,10.7-0.2,15.8,0.8
		c23.4,4.8,28.5,23.9,25.3,41.5c-0.7,3.9-3.3,3.8-6.1,3.8c-13.8,0-27.5,0-41.3,0C472,384.7,469.9,384.7,467.8,384.7z M467.3,369.8
		c10.1,0,19,0.1,27.9-0.1c2,0,3.9-1,5.9-1.6c-0.7-2.2-0.8-4.8-2.1-6.5c-4.8-6.3-11.9-6.4-18.7-5.1
		C473.9,357.8,469.6,361.7,467.3,369.8z"/>
	<path class="st3" d="M564.7,348.7c9.3-11.1,20.6-12.5,33.3-8.6c4.4,1.4,5.9,4,4.4,8.5c-1.4,4.2-2.4,8.6-3.8,13.3
		c-3.1-1.1-5.6-2.1-8.3-2.8c-14.3-3.8-24.9,4-25.2,18.7c-0.3,12-0.3,24,0,36c0.1,4.9-1.5,6.4-6.4,6.4c-16.8,0-16.8,0.2-16.8-16.6
		c0-13.6,0-27.1,0-40.7c0-4.1-0.3-7.6-5.5-9.1c-1.4-0.4-2.3-4.9-2.3-7.4c0-2.2,1-5.5,2.6-6.3C545.2,335.4,558.7,339.7,564.7,348.7z"
		/>
</g>
</svg>
