<?xml version="1.0" encoding="utf-8"?>
<!-- Generator: Adobe Illustrator 19.0.0, SVG Export Plug-In . SVG Version: 6.00 Build 0)  -->
<svg version="1.1" id="beachcombing_xA0_Image_1_" xmlns="http://www.w3.org/2000/svg" xmlns:xlink="http://www.w3.org/1999/xlink"
	 x="0px" y="0px" viewBox="-17 109.7 575.8 574.3" style="enable-background:new -17 109.7 575.8 574.3;" xml:space="preserve">
<style type="text/css">
	.st0{fill:#B5D337;stroke:#7E8033;stroke-width:30;stroke-miterlimit:10;}
	.st1{display:none;}
	.st2{display:inline;fill:#FFFFFF;}
	.st3{fill:#FFFFFF;}
</style>
<ellipse class="st0" cx="269.7" cy="397.3" rx="274.3" ry="273.4"/>
<g id="Shape">
	<g class="st1">
		<path class="st2" d="M283,302.7c-0.7,0-1.3,0-2,0c-1.5-0.6-3.1-1-4.5-1.9c-2.1-1.3-4-2.8-6-4.3c-1.9-1.4-4-2.2-6.4-2.1
			c-1.6,0.1-3.3,0-4.9,0c-4-0.1-6.3-1.8-7.5-5.6c-0.5-1.4-0.9-2.8-1.3-4.2c-0.7-3-2.2-5.4-4.6-7.4c-6.7-5.9-13.3-11.7-19.9-17.7
			c-6.9-6.3-13.2-13-16-22.3c0-0.1,1.7,5-0.3-0.3c-2-5.3,0-5,0-7.6c1.2-1.9,2.3-3.9,3.7-5.7c0.9-1.1,1.4-2,1.1-3.5
			c-1-4.8,0.3-9,4.2-12c2.3-1.8,5.2-3,7.9-4.3c0.9-0.4,1.5-0.7,1.7-1.9c1.5-8.2,6.3-12.5,14.6-13.1c1.4-0.1,2.3-0.6,2.9-2
			c4-8.7,10.4-11.7,19.6-9.7c0.6,0.1,1.5,0.1,1.8-0.3c2.5-2.7,9-5.8,9-5.8s3-2.1,7.2,0c0.4,0.2,0.8,0.5,1.2,0.7
			c2.2,1.4,4.6,2.6,6.6,4.2c1.2,0.9,2.1,1.2,3.5,0.8c4.7-1.4,9.1-0.5,12.7,2.9c2,1.9,3.6,4.2,5.3,6.4c0.6,0.8,1.1,1.4,2.3,1.1
			c4.1-0.9,7.6,0.4,10.7,3c3.7,3.1,5.9,7.1,7.8,11.4c0.5,1.1,1.4,2.3,2.4,2.7c7.1,2.7,10.3,8.2,11.1,15.3c0.3,2.4,0.7,4.4,2.9,5.9
			c1.2,0.8,1.8,2.5,2.7,3.8c0.3,0.4,0.7,1.4,0.7,1.4s2,3.5,0,6.9c-2.6,5.5-0.3,0.4-0.4,0.7c-1.4,4-3.7,7.6-6.3,10.9
			c-7.3,9.2-15.5,17.5-23.8,25.7c-2.7,2.6-4.8,5.7-6.1,9.2c-0.7,1.9-1.6,3.8-2.6,5.6c-1.9,3.4-4.9,4.9-8.8,4.7
			c-1.2-0.1-2.3-0.1-3.5-0.2c-2.9-0.1-5.5,0.7-7.8,2.5C290.6,299.2,287,301.4,283,302.7z"/>
	</g>
	<path class="st3" d="M95.1,281.1c1-0.7,2.1-1.2,3-2c44.8-36.8,89.6-73.6,134.5-110.4c10.7-8.8,21.4-17.6,32.1-26.5
		c4.4-3.6,4.4-3.6,8.6-0.1c53.7,44.1,107.4,88.3,161.1,132.4c2.8,2.3,5.5,4.5,9,7.4c-1.7,0.3-2.6,0.6-3.4,0.6
		c-8.9,0-17.9,0.3-26.8-0.2c-3-0.2-7-1.6-8.7-3.9c-9.5-12.6-21.9-20.9-36.7-25.8c-9.2-3.1-15.7-9.8-21.9-16.8
		c-4.1-4.6-8.4-6.2-14.1-3.8c-2.4,1-4.2,0.5-5.6-1.8c-1.6-2.5-3.9-4.6-5.2-7.2c-3.2-6.4-8.2-10.2-14.8-12.7
		c-7.4-2.9-14.7-5.8-20.8-11.2c-1.3-1.1-2.9-1.8-4.5-2.6c-7.7-3.7-11.7-2.9-17.2,3.6c-8.5,10.2-17,20.4-28.6,27.4
		c-3.7,2.2-7.6,4.2-11.2,6.5c-2.8,1.7-4.7,1.5-7-1.1c-2.1-2.5-4.6-5-7.5-6.6c-2-1.2-4.9-1.6-7.2-1.3c-7.8,1.3-12.8,7.1-18.1,12.3
		c-6.2,6.1-12.2,12.3-18.3,18.5c-6.9,7.2-15.6,11.8-24.3,16.3c-5.6,2.9-11.1,6.1-16.6,9.1c-0.9,0.5-1.8,1.1-2.7,1.1
		c-8.8,0.1-17.6,0-26.3,0C95.7,282,95.4,281.5,95.1,281.1z"/>
	<path class="st3" d="M335.2,351.7c-2.8-1.7-3.2-3.7-3.2-6.4c0-17.1,0-34.2,0-51.3c0-9.2,0-9.2-9.3-9.1c-5.4,0-5.4,0-5.4,5.6
		c0,6.9,0,13.8,0,21.3c-1.5-0.2-2.2-0.3-2.9-0.5c-15.8-5.9-34,5.4-32.5,26.8c0.7,9.9,4.3,18.5,14.5,22.3c8.8,3.3,16.8,2,23-5.8
		c3.8,6.6,7.1,8.2,14.3,6.7c1.2-0.2,3.1-1.5,3-2.2C336.6,356.4,336.7,352.6,335.2,351.7z M316.8,341.6c-1.2,4.7-4.9,7.3-9.5,7.3
		c-4.7,0-8.5-2.5-9.6-7.1c-0.8-3.4-1.1-7.2-0.5-10.6c1.6-8.3,12.2-12.1,18.9-7.1c0.7,0.5,1.2,1.8,1.3,2.8c0.2,2.1,0.1,4.2,0.1,6.3
		c0.1,0,0.2,0,0.3,0C317.5,336,317.5,338.9,316.8,341.6z"/>
	<path class="st3" d="M96.3,311.2c5.4,0,10.2-0.2,14.9,0.1c0.8,0.1,1.8,1.9,2.3,3c3.5,9,6.9,18.1,10.3,27.1c0.4,1.1,0.9,2.2,1.7,4.2
		c1.7-5.4,3-9.8,4.5-14.2c2-5.9,4.1-11.7,6-17.6c0.7-2,1.9-3,4.1-2.9c2.6,0.1,5.2,0,7.8,0.1c4.3,0,4.7,0.6,3.2,4.5
		c-4.1,10.2-8.2,20.5-12.3,30.7c-2.8,7.1-5.6,14.3-8.6,21.4c-1.4,3.3-2.9,6.6-4.8,9.6c-5.4,8.7-14,11.4-23.5,7.5
		c-0.9-0.4-1.7-1.9-1.9-2.9c-0.2-1.4,0.3-2.9,0.5-4.4c0.3-2.3,1.2-3.1,3.7-2.5c5.3,1.2,8-0.2,10.6-5.1c2.7-5,3.6-9.6,0.7-15.3
		C109.4,342,104,329,98.2,316.3C97.6,314.9,97.1,313.4,96.3,311.2z"/>
	<path class="st3" d="M184,309.2c-16-0.5-27.7,9.7-28.2,24.7c-0.5,15.9,10.1,27.2,26,27.7c15.7,0.5,26.8-10,27.4-25.9
		C209.8,321.1,199,309.7,184,309.2z M188.2,347.4c-8.3,4.8-17.4-1.5-17.4-12c-0.1-5.2,1.7-9.6,6.5-12.1c4-2.1,8.1-1.9,12,0.7
		C196.7,329.3,196.1,342.9,188.2,347.4z"/>
	<path class="st3" d="M236.4,314.9c2.5-2.9,6.9-4.3,11.7-4.9c12.1-1.5,21,5,22,17.1c0.9,10.3,0.5,20.8,0.5,31.2
		c0,0.9-1.6,1.8-2.5,2.7c-0.1,0.1-0.5,0-0.7,0c-11.7,0.5-11.7,0.5-11.7-11.1c0-5.9,0-11.9,0-17.8c0-6.4-3.9-10.7-9.4-10.7
		c-5.7,0-10.2,4.5-10.3,10.5c-0.1,8.4-0.1,16.8,0,25.3c0,2.8-0.6,3.9-3.7,4c-11.4,0.1-11.4,0.2-11.4-11.2c0-8.3,0-16.6,0-24.9
		c0-2.4-0.6-3.9-3-5.3c-1.3-0.8-1.4-3.9-1.6-6c-0.1-0.9,1-2.8,1.6-2.7c4.5,0.1,9,0.2,13.5,0.9C233.1,312,234.6,313.6,236.4,314.9z"
		/>
	<path class="st3" d="M358.6,338.8c0,5.8,3.5,9.6,9.3,10.7c6.1,1.2,12.1,0.6,18-1.4c3.2-1.1,4.4-0.3,4.8,3c0.8,6.9,1,6.9-5.8,8.8
		c-7.6,2.2-15.4,2.8-23.1,0.7c-12.2-3.3-19.7-14.3-18.6-27c1.2-13.8,9.8-22.8,23.4-24c3.3-0.3,6.7-0.1,10,0.5
		c14.7,3,18,15.1,16,26.2c-0.4,2.4-2.1,2.4-3.9,2.4c-8.7,0-17.4,0-26,0C361.2,338.8,359.9,338.8,358.6,338.8z M358.2,329.4
		c6.4,0,12,0.1,17.6,0c1.2,0,2.5-0.6,3.7-1c-0.4-1.4-0.5-3-1.3-4.1c-3.1-4-7.5-4-11.8-3.2C362.4,321.8,359.7,324.3,358.2,329.4z"/>
	<path class="st3" d="M419.6,316.1c5.8-7,13-7.9,21-5.4c2.8,0.9,3.7,2.5,2.8,5.3c-0.9,2.7-1.5,5.4-2.4,8.4c-2-0.7-3.6-1.3-5.2-1.8
		c-9-2.4-15.7,2.5-15.9,11.8c-0.2,7.5-0.2,15.1,0,22.7c0.1,3.1-1,4-4,4c-10.6,0-10.6,0.1-10.6-10.4c0-8.5,0-17.1,0-25.6
		c0-2.6-0.2-4.8-3.5-5.7c-0.9-0.3-1.4-3.1-1.4-4.7c0-1.4,0.6-3.5,1.6-4C407.3,307.8,415.8,310.4,419.6,316.1z"/>
</g>
</svg>
